<svg xmlns="http://www.w3.org/2000/svg" width="85" height="92" viewBox="0 0 85 92">
  <g id="Grupo_988196" data-name="Grupo 988196" transform="translate(-285 -3777)">
    <rect id="Rectángulo_338875" data-name="Rectángulo 338875" width="85" height="92" rx="10" transform="translate(285 3777)" fill="#ff6e33"/>
    <g id="asistencia-social" transform="translate(295.999 3792)">
      <g id="Grupo_988194" data-name="Grupo 988194" transform="translate(1.226 20.4)">
        <path id="Trazado_735384" data-name="Trazado 735384" d="M21.755,193.713l-4-4.258a7.372,7.372,0,0,1-2-5.048V169.331a2.877,2.877,0,0,0-2.254-2.809h0a2.877,2.877,0,0,0-3.5,2.809v19a10.709,10.709,0,0,0,1.977,6.2l2.186,3.079,5.229,7.366,1.845,2.6h13.94l-2.008-9.57a16.918,16.918,0,0,0-7.118-10.566l-4.287-2.883a3.072,3.072,0,0,0-4.014.512h0a3.306,3.306,0,0,0,.07,4.462c2.348,2.488,5.841,6.207,5.841,6.207" transform="translate(-10 -166.453)" fill="#ffcdac"/>
        <path id="Trazado_735385" data-name="Trazado 735385" d="M310,193.713l4-4.258a7.372,7.372,0,0,0,2-5.048V169.331a2.877,2.877,0,0,1,2.254-2.809h0a2.877,2.877,0,0,1,3.5,2.809v19a10.709,10.709,0,0,1-1.977,6.2l-2.186,3.079-5.229,7.366-1.845,2.6h-13.94l2.008-9.57a16.919,16.919,0,0,1,7.118-10.566l4.287-2.883a3.072,3.072,0,0,1,4.014.512h0a3.306,3.306,0,0,1-.07,4.462c-2.348,2.488-5.84,6.207-5.84,6.207" transform="translate(-261.458 -166.453)" fill="#ffcdac"/>
      </g>
      <g id="Grupo_988195" data-name="Grupo 988195" transform="translate(12.672 22.013)">
        <path id="Trazado_735386" data-name="Trazado 735386" d="M280.137,183.586a4.523,4.523,0,0,1,2.208-1.264l3.129-.75v-1.911H289.3v1.917h0l3.121.746a4.535,4.535,0,0,1,3.481,4.41v2.289h-6.919Z" transform="translate(-258.475 -179.656)" fill="#7d9bff"/>
        <path id="Trazado_735387" data-name="Trazado 735387" d="M119.151,183.535a4.523,4.523,0,0,0-2.208-1.264l-3.129-.75v-1.911h-3.822v1.917h0l-3.121.746a4.535,4.535,0,0,0-3.481,4.41v2.289h6.919Z" transform="translate(-103.39 -179.611)" fill="#7d9bff"/>
      </g>
      <path id="Trazado_735388" data-name="Trazado 735388" d="M168.426,211.07l-4.359,1.045a6.316,6.316,0,0,0-4.844,6.142v4.407h23.722v-4.4a6.316,6.316,0,0,0-4.848-6.143l-4.348-1.039" transform="translate(-139.708 -185.202)" fill="#78d2fa"/>
      <path id="Trazado_735389" data-name="Trazado 735389" d="M239.636,189.357v2.67l-2.66,6.05-2.663-6.058v-2.661" transform="translate(-205.595 -166.15)" fill="#ffb487"/>
      <path id="Trazado_735390" data-name="Trazado 735390" d="M219.582,114.551v3.686a5.933,5.933,0,0,1-5.933,5.933h0a5.933,5.933,0,0,1-5.933-5.933v-3.686" transform="translate(-182.258 -100.512)" fill="#ffcdac"/>
      <path id="Trazado_735391" data-name="Trazado 735391" d="M213.649,64h0a5.933,5.933,0,0,0-5.933,5.933v1.428h2.9a6.518,6.518,0,0,0,5-2.332h0l3.969,2.332V69.933A5.933,5.933,0,0,0,213.649,64Z" transform="translate(-182.258 -56.156)" fill="#bebebe"/>
      <path id="Trazado_735392" data-name="Trazado 735392" d="M146.634,94.9V93.871a4.26,4.26,0,0,0-4.26-4.26h0a4.26,4.26,0,0,0-4.26,4.26V94.9h2.936a10.156,10.156,0,0,0,5.22-1.444h0" transform="translate(-121.187 -78.628)" fill="#f5b955"/>
      <path id="Trazado_735393" data-name="Trazado 735393" d="M146.634,125.9v2.646a4.26,4.26,0,0,1-4.26,4.26h0a4.26,4.26,0,0,1-4.26-4.26V125.9" transform="translate(-121.187 -110.473)" fill="#ffcdac"/>
      <path id="Trazado_735394" data-name="Trazado 735394" d="M304.5,94.947V93.922a4.26,4.26,0,0,1,4.26-4.26h0a4.26,4.26,0,0,1,4.26,4.26v1.025h-2.936a10.155,10.155,0,0,1-5.22-1.444h0" transform="translate(-267.18 -78.673)" fill="#f5b955"/>
      <path id="Trazado_735395" data-name="Trazado 735395" d="M304.5,125.955V128.6a4.26,4.26,0,0,0,4.26,4.26h0a4.26,4.26,0,0,0,4.26-4.26v-2.646" transform="translate(-267.18 -110.518)" fill="#ffcdac"/>
      <path id="Trazado_735396" data-name="Trazado 735396" d="M78.849,471.308a1.226,1.226,0,1,0-2,1.419l1.845,2.6a1.226,1.226,0,0,0,2-1.419Z" transform="translate(-67.232 -413.092)"/>
      <path id="Trazado_735397" data-name="Trazado 735397" d="M25.594,188.979a18.049,18.049,0,0,0-7.633-11.331l-4.287-2.883a4.313,4.313,0,0,0-5.467.558V160.555a4.1,4.1,0,0,0-6.67-3.2A4.083,4.083,0,0,0,0,160.555v19a11.872,11.872,0,0,0,2.2,6.909l2.186,3.079a1.226,1.226,0,1,0,2-1.419L4.2,185.048a9.433,9.433,0,0,1-1.751-5.49v-19a1.652,1.652,0,1,1,3.3,0v15.077a8.563,8.563,0,0,0,2.209,5.75c.061.073.124.146.19.216.814.862,1.771,1.879,2.672,2.837l1.262,1.343.013.012,1.892,2.013a1.226,1.226,0,1,0,1.787-1.678c-.022-.024-1.457-1.551-3.1-3.293l-2.81-2.991-.021-.023a2.068,2.068,0,0,1,.04-2.71,1.853,1.853,0,0,1,2.413-.308l4.287,2.883a15.61,15.61,0,0,1,6.6,9.8l2.008,9.57a1.226,1.226,0,1,0,2.4-.5Z" transform="translate(0 -137.277)"/>
      <path id="Trazado_735398" data-name="Trazado 735398" d="M58.107,442.089a1.226,1.226,0,0,0-2,1.424l.008.011a1.226,1.226,0,0,0,2-1.424Z" transform="translate(-49.034 -387.457)"/>
      <path id="Trazado_735399" data-name="Trazado 735399" d="M312.672,157.358a4.1,4.1,0,0,0-6.67,3.2v14.768a4.313,4.313,0,0,0-5.467-.558l-4.287,2.883a18.048,18.048,0,0,0-7.633,11.331l-2.008,9.57a1.226,1.226,0,1,0,2.4.5l2.008-9.57a15.61,15.61,0,0,1,6.6-9.8L301.9,176.8a1.853,1.853,0,0,1,2.413.308,2.068,2.068,0,0,1,.043,2.708l-.023.026-5.906,6.284a1.226,1.226,0,1,0,1.787,1.678c.017-.018,5.025-5.342,5.839-6.2.066-.07.129-.143.19-.216a8.564,8.564,0,0,0,2.209-5.75V160.557a1.652,1.652,0,1,1,3.3,0v19a9.433,9.433,0,0,1-1.75,5.49l-9.259,13.044a1.226,1.226,0,1,0,2,1.419L312,186.469a11.872,11.872,0,0,0,2.2-6.909v-19A4.084,4.084,0,0,0,312.672,157.358Z" transform="translate(-251.456 -137.279)"/>
      <path id="Trazado_735400" data-name="Trazado 735400" d="M125.18,86.069a1.226,1.226,0,0,0,1.226-1.226v-4.4c0-.152-.006-.3-.015-.452h5.648a1.226,1.226,0,0,0,1.226-1.226V76.474a5.741,5.741,0,0,0-4.422-5.6l-2.18-.521V69.96a5.482,5.482,0,0,0,2.346-4.494V62.631a5.481,5.481,0,0,0-9.044-4.169,7.156,7.156,0,0,0-13.263.01,5.481,5.481,0,0,0-9.056,4.159v2.835a5.482,5.482,0,0,0,2.346,4.494v.391l-2.18.521a5.741,5.741,0,0,0-4.422,5.6v2.289a1.226,1.226,0,0,0,1.226,1.226h5.632c-.009.149-.015.3-.015.449v4.407a1.226,1.226,0,0,0,1.226,1.226h7.367a1.226,1.226,0,0,0,0-2.451h-1.266V81.085a1.226,1.226,0,0,0-2.451,0v2.533h-2.424V80.437a5.074,5.074,0,0,1,3.9-4.95l3.363-.806L112.2,79.8a1.226,1.226,0,0,0,1.122.732h0a1.225,1.225,0,0,0,1.122-.732l2.248-5.113,3.353.8a5.074,5.074,0,0,1,3.908,4.951v3.178h-2.424V81.085a1.226,1.226,0,1,0-2.451,0v2.533H117.69a1.226,1.226,0,1,0,0,2.451ZM109.436,71.2a5.751,5.751,0,0,0-.981-.331l-2.189-.525v-.382a5.53,5.53,0,0,0,1.062-.97,7.215,7.215,0,0,0,2.108,2.113ZM100.1,65.465v-.584h1.711a11.385,11.385,0,0,0,4.358-.868v1.451a3.034,3.034,0,0,1-6.068,0Zm8.53-.358V63.812H110.3A7.722,7.722,0,0,0,115.51,61.8l2.527,1.485v2a4.707,4.707,0,0,1-9.41-.179Zm8.582,6.1v-.083A7.213,7.213,0,0,0,119.336,69a5.529,5.529,0,0,0,1.053.96v.382l-2.189.525A5.767,5.767,0,0,0,117.21,71.2Zm3.279-5.739v-.179c0-.06,0-.119,0-.179V64.015a11.385,11.385,0,0,0,4.353.866h1.711v.584a3.034,3.034,0,1,1-6.068,0Zm3.034-5.869a3.038,3.038,0,0,1,3.027,2.834h-1.7a8.933,8.933,0,0,1-4.109-1A3.038,3.038,0,0,1,123.523,59.6Zm-14.9,1.562a4.708,4.708,0,0,1,9.356-.748L115.92,59.2a1.225,1.225,0,0,0-1.56.27,5.28,5.28,0,0,1-4.057,1.893h-1.675v-.2Zm-5.5-1.562a3.039,3.039,0,0,1,2.786,1.832,8.934,8.934,0,0,1-4.109,1h-1.7A3.038,3.038,0,0,1,103.131,59.6ZM106.017,73.1a7.516,7.516,0,0,0-5.208,4.434H95.841V76.474a3.3,3.3,0,0,1,2.54-3.218l3.121-.746a1.226,1.226,0,0,0,.941-1.192v-.412a5.32,5.32,0,0,0,1.37,0v.35c0,.018,0,.037,0,.055a1.227,1.227,0,0,0,1,1.206l1.828.438Zm7.307,3.16-1.437-3.27v-.875a7.183,7.183,0,0,0,2.872,0V73Zm7.292-3.158L120,72.958l1.838-.44a1.227,1.227,0,0,0,1-1.207c0-.01,0-.019,0-.029v-.376a5.32,5.32,0,0,0,1.37,0v.412a1.226,1.226,0,0,0,.941,1.192l3.121.746a3.3,3.3,0,0,1,2.54,3.218v1.063h-4.984A7.515,7.515,0,0,0,120.616,73.105Z" transform="translate(-81.943 -47.382)"/>
      <path id="Trazado_735401" data-name="Trazado 735401" d="M247.226,295.67a1.224,1.224,0,1,0,.866.358A1.231,1.231,0,0,0,247.226,295.67Z" transform="translate(-215.85 -259.433)"/>
      <path id="Trazado_735402" data-name="Trazado 735402" d="M247.22,4.285a1.226,1.226,0,0,0,1.226-1.226V1.226a1.226,1.226,0,0,0-2.451,0V3.059A1.226,1.226,0,0,0,247.22,4.285Z" transform="translate(-215.845)"/>
      <path id="Trazado_735403" data-name="Trazado 735403" d="M193.245,22.59a1.225,1.225,0,1,0,1.732-1.734l-1.286-1.284a1.226,1.226,0,1,0-1.732,1.734Z" transform="translate(-168.116 -16.858)"/>
      <path id="Trazado_735404" data-name="Trazado 735404" d="M290.971,23.2a1.221,1.221,0,0,0,.867-.359l1.276-1.277a1.226,1.226,0,1,0-1.734-1.732L290.1,21.106a1.226,1.226,0,0,0,.867,2.092Z" transform="translate(-254.234 -17.083)"/>
    </g>
  </g>
</svg>
