<svg xmlns="http://www.w3.org/2000/svg" xmlns:xlink="http://www.w3.org/1999/xlink" width="85" height="92" viewBox="0 0 85 92">
  <defs>
    <clipPath id="clip-path">
      <path id="path1509" d="M0-682.665H72.5v72.5H0Z" transform="translate(0 682.665)"/>
    </clipPath>
  </defs>
  <g id="Grupo_988197" data-name="Grupo 988197" transform="translate(-810 -3777)">
    <rect id="Rectángulo_338875" data-name="Rectángulo 338875" width="85" height="92" rx="10" transform="translate(810 3777)" fill="#ff6e33"/>
    <g id="g1503" transform="translate(816 4469.665)">
      <g id="g1505" transform="translate(0 -682.665)">
        <g id="g1507" clip-path="url(#clip-path)">
          <g id="g1513" transform="translate(18.238 11.126)">
            <path id="path1515" d="M0-45.227v15.51a7.031,7.031,0,0,0,7.031,7.031H19.363a7.031,7.031,0,0,0,7.031-7.031v-15.51A5.374,5.374,0,0,0,21.02-50.6H5.374A5.374,5.374,0,0,0,0-45.227" transform="translate(0 50.601)" fill="#fa9801"/>
          </g>
          <g id="g1517" transform="translate(32.551 11.126)">
            <path id="path1519" d="M-56.447,0h-.145a12.116,12.116,0,0,1,.468,3.334v17.55a7.031,7.031,0,0,1-7.03,7.031h5.05a7.031,7.031,0,0,0,7.031-7.031V5.374A5.374,5.374,0,0,0-56.447,0" transform="translate(63.155)" fill="#f88604"/>
          </g>
          <g id="g1521" transform="translate(10.455 50.193)">
            <path id="path1523" d="M-315.422,0h-33.711L-352.9,3.588V13.993h41.96V3.588Z" transform="translate(352.9)" fill="#fff0dc"/>
          </g>
          <g id="g1525" transform="translate(47.365 50.193)">
            <path id="path1527" d="M-4.788,0h-.569V13.993h5.05V3.587Z" transform="translate(5.357)" fill="#ffddce"/>
          </g>
          <g id="g1529" transform="translate(10.455 27.016)">
            <path id="path1531" d="M-301.569-77.638l-9.759-2.293v-6.932h-10.187v6.932l-9.759,2.293a7.671,7.671,0,0,0-6.128,7.546V-60.1h6.363a2.577,2.577,0,0,1,2.577,2.577v7.829h24.08v-7.829A2.577,2.577,0,0,1-301.8-60.1h6.363v-9.994a7.671,7.671,0,0,0-6.128-7.546" transform="translate(337.402 86.862)" fill="#fff0dc"/>
          </g>
          <g id="g1533" transform="translate(31.478 27.016)">
            <path id="path1535" d="M-124.641-77.638-134.4-79.93v-6.932h-5.051v7.5a3.019,3.019,0,0,0,2.329,2.939l7.431,1.746a7.671,7.671,0,0,1,6.128,7.546V-60.1h5.05v-9.994a7.671,7.671,0,0,0-6.128-7.546" transform="translate(139.45 86.862)" fill="#ffddce"/>
          </g>
          <g id="g1537" transform="translate(10.455 35.061)">
            <path id="path1539" d="M-301.569-9.928l-5.022-1.18a11.021,11.021,0,0,1-9.831,5.414,11.022,11.022,0,0,1-9.831-5.414l-5.022,1.18A7.671,7.671,0,0,0-337.4-2.382V7.612h6.363a2.577,2.577,0,0,1,2.577,2.577v7.829h24.08V10.188A2.577,2.577,0,0,1-301.8,7.612h6.363V-2.382a7.671,7.671,0,0,0-6.128-7.546" transform="translate(337.402 11.108)" fill="#fc90d2"/>
          </g>
          <g id="g1541" transform="translate(38.14 35.061)">
            <path id="path1543" d="M-68.574-9.929l-5.022-1.18a9.659,9.659,0,0,1-3.126,3.415l3.1.728A7.671,7.671,0,0,1-67.5.579V7.611h5.05V-2.383a7.671,7.671,0,0,0-6.128-7.546" transform="translate(76.722 11.109)" fill="#fb74c4"/>
          </g>
          <g id="g1545" transform="translate(21.932 9.479)">
            <path id="path1547" d="M-.888-105.146a8.79,8.79,0,0,0,2.98,6.492c1.517,1.306,3.649,3.747,6.465,3.779,2.816-.031,4.948-2.473,6.465-3.779A8.79,8.79,0,0,0,18-105.146l.014-12.493H-.993Z" transform="translate(0.993 117.64)" fill="#fff0dc"/>
          </g>
          <g id="g1549" transform="translate(31.486 9.479)">
            <path id="path1551" d="M-37.044,0l-.011,14.994a8.79,8.79,0,0,1-2.98,6.492c-.422.363-.892.815-1.411,1.278,2.814-.033,4.945-2.473,6.462-3.778A8.79,8.79,0,0,0-32,12.493L-31.99,0Z" transform="translate(41.445)" fill="#ffddce"/>
          </g>
          <g id="g1553" transform="translate(18.238 2.347)">
            <path id="path1555" d="M-222.131-120.781a7.816,7.816,0,0,1-5.433-3.17,1.49,1.49,0,0,0-2.076-.426c-3.235,2.18-11.649,9.591-18.885,6.21v-4.852a12.114,12.114,0,0,1,12.114-12.114h2.166a12.114,12.114,0,0,1,12.114,12.114Z" transform="translate(248.525 135.132)" fill="#fba615"/>
          </g>
          <g id="g1557" transform="translate(28.91 2.347)">
            <path id="path1559" d="M-30.369,0h-2.166a12.211,12.211,0,0,0-1.442.089,12.112,12.112,0,0,1,10.661,11.6,7.957,7.957,0,0,0,5.061,2.667V12.114A12.114,12.114,0,0,0-30.369,0" transform="translate(33.977)" fill="#fa9801"/>
          </g>
          <g id="g1561" transform="translate(51.665 10.233)">
            <path id="path1563" d="M-166.181-83.091a9.873,9.873,0,0,1-9.873,9.873,9.873,9.873,0,0,1-9.873-9.873,9.873,9.873,0,0,1,9.873-9.873,9.873,9.873,0,0,1,9.873,9.873" transform="translate(185.926 92.964)" fill="#fbd307"/>
          </g>
          <g id="g1565" transform="translate(59.012 10.233)">
            <path id="path1567" d="M-21.253,0a9.886,9.886,0,0,0-2.525.327,9.876,9.876,0,0,1,7.348,9.546,9.876,9.876,0,0,1-7.348,9.545,9.879,9.879,0,0,0,2.525.327A9.873,9.873,0,0,0-11.38,9.873,9.873,9.873,0,0,0-21.253,0" transform="translate(23.779)" fill="#f9c301"/>
          </g>
          <g id="g1569" transform="translate(60.476 14.223)">
            <path id="path1571" d="M-6.37-.488A1.059,1.059,0,0,1-7.121-.8L-9.689-3.367A1.062,1.062,0,0,1-10-4.118v-4.82A1.062,1.062,0,0,1-8.938-10,1.062,1.062,0,0,1-7.876-8.938v4.38L-5.619-2.3a1.062,1.062,0,0,1,0,1.5A1.059,1.059,0,0,1-6.37-.488Z" transform="translate(10 10)"/>
          </g>
          <g id="g1573" transform="translate(4.322 39.051)">
            <path id="path1575" d="M-268.6-188.066h-31.915v-20.347a2,2,0,0,1,2-2H-270.6a2,2,0,0,1,2,2Z" transform="translate(300.518 210.411)" fill="#eff3f5"/>
          </g>
          <g id="g1577" transform="translate(29.214 39.051)">
            <path id="path1579" d="M-42.286,0h-5.024a2,2,0,0,1,2,2V22.346h5.024V2a2,2,0,0,0-2-2" transform="translate(47.311)" fill="#e5ecf1"/>
          </g>
          <g id="g1581" transform="translate(1.062 59.718)">
            <path id="path1583" d="M-309.89,0H-345.1a1.614,1.614,0,0,0-1.614,1.614,2.853,2.853,0,0,0,2.853,2.853h32.729a2.853,2.853,0,0,0,2.853-2.853A1.614,1.614,0,0,0-309.89,0" transform="translate(346.711)" fill="#e5ecf1"/>
          </g>
          <g id="g1585" transform="translate(1.062 63.536)">
            <path id="path1587" d="M-582.571-55.694h-68.066a1.155,1.155,0,0,1-1.155-1.155v-4.308a1.155,1.155,0,0,1,1.155-1.155h68.066a1.155,1.155,0,0,1,1.155,1.155v4.308a1.155,1.155,0,0,1-1.155,1.155" transform="translate(651.792 62.312)" fill="#f9c36e"/>
          </g>
          <g id="g1589" transform="translate(65.233 63.536)">
            <path id="path1591" d="M-42.505,0h-3.9V5.463a1.155,1.155,0,0,1-1.155,1.155h5.05a1.155,1.155,0,0,0,1.155-1.155V1.155A1.155,1.155,0,0,0-42.505,0" transform="translate(47.556)" fill="#e7b467"/>
          </g>
          <g id="g1593" transform="translate(18.159 46.155)">
            <path id="path1595" d="M-47.048-23.524a2.8,2.8,0,0,1-2.8,2.8,2.8,2.8,0,0,1-2.8-2.8,2.8,2.8,0,0,1,2.8-2.8,2.8,2.8,0,0,1,2.8,2.8" transform="translate(52.639 26.319)" fill="#557981"/>
          </g>
          <g id="g1597" transform="translate(0 62.474)">
            <path id="path1599" d="M-591.509-63.57h-68.066a2.219,2.219,0,0,1-2.217-2.217V-70.1a2.219,2.219,0,0,1,2.217-2.217h68.066a2.219,2.219,0,0,1,2.217,2.217v4.308A2.219,2.219,0,0,1-591.509-63.57Zm-68.066-6.618a.093.093,0,0,0-.093.093v4.308a.093.093,0,0,0,.093.093h68.066a.093.093,0,0,0,.093-.093V-70.1a.093.093,0,0,0-.093-.093Z" transform="translate(661.792 72.312)"/>
          </g>
          <g id="g1601" transform="translate(17.097 45.093)">
            <path id="path1603" d="M-58.781-36.319a3.862,3.862,0,0,1,3.857,3.857A3.862,3.862,0,0,1-58.781-28.6a3.862,3.862,0,0,1-3.857-3.857A3.861,3.861,0,0,1-58.781-36.319Zm0,5.59a1.735,1.735,0,0,0,1.733-1.733,1.735,1.735,0,0,0-1.733-1.733,1.735,1.735,0,0,0-1.733,1.733A1.735,1.735,0,0,0-58.781-30.728Z" transform="translate(62.639 36.319)"/>
          </g>
          <g id="g1605" transform="translate(3.26 37.989)">
            <path id="path1607" d="M-309.456-61.334a1.062,1.062,0,0,1-1.062-1.062V-81.064a3.065,3.065,0,0,1,3.061-3.061h27.917a3.065,3.065,0,0,1,3.061,3.061v5.873a1.062,1.062,0,0,1-1.062,1.062,1.062,1.062,0,0,1-1.062-1.062v-5.873A.938.938,0,0,0-279.54-82h-27.917a.938.938,0,0,0-.937.937V-62.4A1.062,1.062,0,0,1-309.456-61.334Z" transform="translate(310.518 84.125)"/>
          </g>
          <g id="g1609" transform="translate(35.176 50.835)">
            <path id="path1611" d="M-8.938-73.7A1.062,1.062,0,0,1-10-74.764v-7.821a1.062,1.062,0,0,1,1.062-1.062,1.062,1.062,0,0,1,1.062,1.062v7.821A1.062,1.062,0,0,1-8.938-73.7Z" transform="translate(10 83.648)"/>
          </g>
          <g id="g1613" transform="translate(0 58.656)">
            <path id="path1615" d="M-360.012-40a1.058,1.058,0,0,1-.672-.24,3.9,3.9,0,0,1-1.436-3.03,2.679,2.679,0,0,1,2.676-2.676h35.207a2.679,2.679,0,0,1,2.676,2.676,3.9,3.9,0,0,1-1.426,3.022,1.062,1.062,0,0,1-1.5-.144,1.062,1.062,0,0,1,.144-1.495,1.787,1.787,0,0,0,.653-1.383.553.553,0,0,0-.552-.552h-35.207a.553.553,0,0,0-.552.552,1.786,1.786,0,0,0,.658,1.387,1.062,1.062,0,0,1,.149,1.495A1.06,1.06,0,0,1-360.012-40Z" transform="translate(362.12 45.944)"/>
          </g>
          <g id="g1617" transform="translate(34.662 33.999)">
            <path id="path1619" d="M-74.173-247.521a1.062,1.062,0,0,1-1.062-1.062v-7.178A3.643,3.643,0,0,1-71.6-259.4h5.3v-8.932a6.584,6.584,0,0,0-5.282-6.506l-4.288-1.007a11.442,11.442,0,0,1-5.69,4.438,1.062,1.062,0,0,1-1.365-.626,1.062,1.062,0,0,1,.626-1.365,9.148,9.148,0,0,0,4.974-4.159,1.062,1.062,0,0,1,1.18-.534l5.022,1.18a8.682,8.682,0,0,1,6.947,8.58v9.994a1.062,1.062,0,0,1-1.062,1.062H-71.6a1.516,1.516,0,0,0-1.515,1.515v7.178A1.062,1.062,0,0,1-74.173-247.521Z" transform="translate(82.987 278.12)"/>
          </g>
          <g id="g1621" transform="translate(11.004 33.999)">
            <path id="path1623" d="M-123.494-41.457a1.057,1.057,0,0,1-.5-.128,11.1,11.1,0,0,1-4.086-3.712l-4.261,1a6.686,6.686,0,0,0-3.922,2.43,1.062,1.062,0,0,1-1.491.184,1.062,1.062,0,0,1-.184-1.491,8.791,8.791,0,0,1,5.138-3.2l4.995-1.174a1.062,1.062,0,0,1,1.18.534,8.809,8.809,0,0,0,3.641,3.555,1.062,1.062,0,0,1,.429,1.439A1.062,1.062,0,0,1-123.494-41.457Z" transform="translate(138.167 47.571)"/>
          </g>
          <g id="g1625" transform="translate(35.466 28.688)">
            <path id="path1627" d="M-48.806-52.575a1.065,1.065,0,0,1-.244-.028l-4.737-1.113a1.062,1.062,0,0,1-.819-1.034v-4.2a1.062,1.062,0,0,1,1.062-1.062,1.062,1.062,0,0,1,1.062,1.062v3.357l3.918.92a1.062,1.062,0,0,1,.791,1.277A1.062,1.062,0,0,1-48.806-52.575Z" transform="translate(54.607 60.011)"/>
          </g>
          <g id="g1629" transform="translate(20.542 28.603)">
            <path id="path1631" d="M-53.549-2.48A1.062,1.062,0,0,1-54.582-3.3a1.062,1.062,0,0,1,.791-1.277l3.918-.92V-8.938A1.062,1.062,0,0,1-48.81-10a1.062,1.062,0,0,1,1.062,1.062v4.283a1.062,1.062,0,0,1-.819,1.034l-4.737,1.113A1.065,1.065,0,0,1-53.549-2.48Z" transform="translate(54.61 10)"/>
          </g>
          <g id="g1633" transform="translate(20.96 14.232)">
            <path id="path1635" d="M.534-36.933c-2.8-.031-4.9-1.961-6.432-3.37-.261-.24-.507-.467-.738-.666a9.854,9.854,0,0,1-3.349-7.274L-10-50.05a1.062,1.062,0,0,1,1.053-1.071,1.062,1.062,0,0,1,1.071,1.053l.015,1.793a7.72,7.72,0,0,0,2.611,5.7c.247.213.511.455.79.712,1.35,1.242,3.029,2.787,4.994,2.809,1.941-.022,3.62-1.567,4.97-2.809.279-.257.543-.5.79-.712A7.728,7.728,0,0,0,8.9-48.289l.007-6.657a1.062,1.062,0,0,1,1.063-1.061,1.062,1.062,0,0,1,1.061,1.063l-.007,6.679a9.865,9.865,0,0,1-3.349,7.3c-.231.2-.477.425-.738.666C5.41-38.894,3.313-36.964.534-36.933Z" transform="translate(10 56.007)"/>
          </g>
          <g id="g1637" transform="translate(17.176 1.285)">
            <path id="path1639" d="M-41.925-20a10.421,10.421,0,0,1-4.464-.976A1.062,1.062,0,0,1-47-21.941v-4.852a13.089,13.089,0,0,1,1.065-5.2,1.062,1.062,0,0,1,1.4-.556,1.062,1.062,0,0,1,.556,1.4,10.977,10.977,0,0,0-.893,4.36v4.146c5.617,2.077,12.154-2.7,15.724-5.309.579-.423,1.085-.792,1.506-1.076a2.519,2.519,0,0,1,1.909-.385,2.561,2.561,0,0,1,1.645,1.1,6.347,6.347,0,0,0,3.487,2.453v-.931A11.064,11.064,0,0,0-31.659-37.845h-2.166a11.021,11.021,0,0,0-7.466,2.9,1.062,1.062,0,0,1-1.5-.065,1.062,1.062,0,0,1,.065-1.5,13.139,13.139,0,0,1,8.9-3.462h2.166A13.191,13.191,0,0,1-18.484-26.793v2.238a1.062,1.062,0,0,1-.341.78,1.062,1.062,0,0,1-.8.279,8.859,8.859,0,0,1-6.232-3.64.451.451,0,0,0-.289-.2.4.4,0,0,0-.31.063c-.4.271-.886.625-1.439,1.029C-31.089-23.911-36.437-20-41.925-20Z" transform="translate(47.001 39.969)"/>
          </g>
          <g id="g1641" transform="translate(17.176 18.251)">
            <path id="path1643" d="M-7.941,8.429a1.061,1.061,0,0,1-.912-.516A8.083,8.083,0,0,1-10,3.76v-12.7A1.062,1.062,0,0,1-8.938-10,1.062,1.062,0,0,1-7.876-8.938V3.76a5.958,5.958,0,0,0,.845,3.061A1.062,1.062,0,0,1-7.4,8.278,1.057,1.057,0,0,1-7.941,8.429Z" transform="translate(10 10)"/>
          </g>
          <g id="g1645" transform="translate(42.574 15.636)">
            <path id="path1647" d="M-8.94-167.109a1.057,1.057,0,0,1-.545-.151,1.062,1.062,0,0,1-.365-1.457,5.958,5.958,0,0,0,.845-3.061v-15.313a1.062,1.062,0,0,1,1.062-1.062,1.062,1.062,0,0,1,1.062,1.062v15.313a8.083,8.083,0,0,1-1.147,4.153A1.062,1.062,0,0,1-8.94-167.109Z" transform="translate(10.001 188.153)"/>
          </g>
          <g id="g1649" transform="translate(51.353 52.719)">
            <path id="path1651" d="M-8.938-89.974A1.062,1.062,0,0,1-10-91.036v-9.755a1.062,1.062,0,0,1,1.062-1.062,1.062,1.062,0,0,1,1.062,1.062v9.755A1.062,1.062,0,0,1-8.938-89.974Z" transform="translate(10 101.853)"/>
          </g>
          <g id="g1653" transform="translate(50.603 9.171)">
            <path id="path1655" d="M-184.991-102.964a10.947,10.947,0,0,1,10.935,10.935,10.947,10.947,0,0,1-10.935,10.935,10.947,10.947,0,0,1-10.935-10.935A10.947,10.947,0,0,1-184.991-102.964Zm0,19.746a8.821,8.821,0,0,0,8.811-8.811,8.821,8.821,0,0,0-8.811-8.811,8.821,8.821,0,0,0-8.811,8.811A8.821,8.821,0,0,0-184.991-83.218Z" transform="translate(195.926 102.964)"/>
          </g>
        </g>
      </g>
    </g>
  </g>
</svg>
