<svg xmlns="http://www.w3.org/2000/svg" width="85" height="92" viewBox="0 0 85 92">
  <g id="Grupo_988204" data-name="Grupo 988204" transform="translate(-810 -3924)">
    <rect id="Rectángulo_338875" data-name="Rectángulo 338875" width="85" height="92" rx="10" transform="translate(810 3924)" fill="#ff6e33"/>
    <g id="colaboracion" transform="translate(820 3869.343)">
      <path id="Trazado_735458" data-name="Trazado 735458" d="M228.881,273.745h3.126a2.958,2.958,0,1,0,5.579,0h2.491a.635.635,0,0,0,.635-.635V260.577a.635.635,0,0,0-.635-.635h-2.491a2.958,2.958,0,1,0-5.579,0h-3.126l-3.943,7.887Z" transform="translate(-196.381 -155.701)" fill="#fd6930"/>
      <path id="Trazado_735459" data-name="Trazado 735459" d="M176,263.91a2.976,2.976,0,0,0-1.358.146v-4.112h-3.126a2.958,2.958,0,1,0-5.579,0h-2.491a.635.635,0,0,0-.635.635v12.533a.635.635,0,0,0,.635.635h2.491a2.958,2.958,0,1,0,5.579,0h3.126v-4.112A2.958,2.958,0,1,0,176,263.91Z" transform="translate(-142.143 -155.702)" fill="#01c0fa"/>
      <path id="Trazado_735460" data-name="Trazado 735460" d="M242.441,153.2h0a1.972,1.972,0,0,1-1.972-1.972v-1.972a1.972,1.972,0,0,1,1.972-1.972h0a1.972,1.972,0,0,1,1.972,1.972v1.972A1.972,1.972,0,0,1,242.441,153.2Z" transform="translate(-209.941 -60.786)" fill="#80d261"/>
      <path id="Trazado_735461" data-name="Trazado 735461" d="M303.58,183.732h0a1.972,1.972,0,0,1-.722-2.693l.986-1.708a1.972,1.972,0,0,1,2.693-.722h0a1.972,1.972,0,0,1,.722,2.693l-.986,1.708A1.972,1.972,0,0,1,303.58,183.732Z" transform="translate(-264.179 -87.905)" fill="#80d261"/>
      <path id="Trazado_735462" data-name="Trazado 735462" d="M174.517,183.732h0a1.972,1.972,0,0,0,.722-2.693l-.986-1.708a1.972,1.972,0,0,0-2.693-.722h0a1.972,1.972,0,0,0-.722,2.693l.986,1.708A1.972,1.972,0,0,0,174.517,183.732Z" transform="translate(-148.918 -87.905)" fill="#80d261"/>
      <path id="Trazado_735463" data-name="Trazado 735463" d="M414.95,98.9l1.831-.366a7.3,7.3,0,0,0,5.867-7.156v-.552a5.667,5.667,0,0,0-5.667-5.667h0a5.667,5.667,0,0,0-5.667,5.667v5.093A3.041,3.041,0,0,0,414.95,98.9Z" transform="translate(-359.096 -6.548)" fill="#ffc344"/>
      <path id="Trazado_735464" data-name="Trazado 735464" d="M319.395,236.767h6.229a.635.635,0,0,0,.6-.437l2.87-8.768a3.809,3.809,0,0,1,3.62-2.624h5.261a3.809,3.809,0,0,1,3.809,3.809v21.189a.635.635,0,0,1-.635.635H330.59a.635.635,0,0,1-.635-.635v-8.258a3.807,3.807,0,0,1-2.579,1.006H321.3a3.174,3.174,0,0,1-3.174-3.174v-1.473A1.269,1.269,0,0,1,319.395,236.767Z" transform="translate(-277.738 -128.582)" fill="#ffc344"/>
      <path id="Trazado_735465" data-name="Trazado 735465" d="M423.141,228.746a3.809,3.809,0,0,0-3.809-3.809h-.217a3.8,3.8,0,0,1,.217,1.27V242.77a5.26,5.26,0,0,1-5.26,5.26h-2.762v1.9a.635.635,0,0,0,.635.635h10.561a.635.635,0,0,0,.635-.635Z" transform="translate(-359.094 -128.582)" fill="#feb237"/>
      <path id="Trazado_735466" data-name="Trazado 735466" d="M19.1,98.9l-1.831-.366a7.3,7.3,0,0,1-5.867-7.156v-.552a5.667,5.667,0,0,1,5.667-5.667h0a5.667,5.667,0,0,1,5.667,5.667v5.093A3.041,3.041,0,0,1,19.1,98.9Z" transform="translate(-9.957 -6.548)" fill="#0067c5"/>
      <path id="Trazado_735467" data-name="Trazado 735467" d="M29.891,236.767H23.662a.635.635,0,0,1-.6-.437l-2.87-8.768a3.809,3.809,0,0,0-3.62-2.624H11.309A3.809,3.809,0,0,0,7.5,228.746v21.189a.635.635,0,0,0,.635.635H18.7a.635.635,0,0,0,.635-.635v-8.258a3.807,3.807,0,0,0,2.579,1.006h6.078a3.174,3.174,0,0,0,3.174-3.174v-1.473A1.27,1.27,0,0,0,29.891,236.767Z" transform="translate(-6.548 -128.582)" fill="#0067c5"/>
      <path id="Trazado_735468" data-name="Trazado 735468" d="M18.338,292.868l-2.816-7.6v10.174a5.26,5.26,0,0,1-5.26,5.26H7.5v1.9a.635.635,0,0,0,.635.635H18.7a.635.635,0,0,0,.635-.635v-8.258h0A3.8,3.8,0,0,1,18.338,292.868Z" transform="translate(-6.548 -181.253)" fill="#0055a3"/>
      <path id="Trazado_735469" data-name="Trazado 735469" d="M261.283,258.294a.952.952,0,0,1-.952-.952v-2.991h-2.174a.952.952,0,0,1-.9-1.269,2.006,2.006,0,0,0-1.66-2.661,2.008,2.008,0,0,0-2.123,2.661.952.952,0,0,1-.9,1.27h-3.126a.952.952,0,0,1,0-1.9h2.006q0-.017,0-.034a3.91,3.91,0,0,1,7.79-.488,4.051,4.051,0,0,1,.03.522h1.37a1.589,1.589,0,0,1,1.587,1.587v3.308A.952.952,0,0,1,261.283,258.294Z" transform="translate(-216.952 -149.157)"/>
      <path id="Trazado_735470" data-name="Trazado 735470" d="M255.359,367.01a3.9,3.9,0,0,1-3.872-3.421,4.045,4.045,0,0,1-.03-.522h-2.005a.952.952,0,0,1,0-1.9h3.126a.952.952,0,0,1,.9,1.27,2.006,2.006,0,0,0,1.66,2.661,2.008,2.008,0,0,0,2.123-2.661.952.952,0,0,1,.9-1.27h2.174v-2.991a.952.952,0,0,1,1.9,0v3.309a1.589,1.589,0,0,1-1.587,1.587h-1.371q0,.017,0,.034a3.909,3.909,0,0,1-3.918,3.909Z" transform="translate(-216.952 -244.071)"/>
      <path id="Trazado_735471" data-name="Trazado 735471" d="M162.171,272.1a3.9,3.9,0,0,1-3.872-3.421,4.048,4.048,0,0,1-.03-.522H156.9a1.589,1.589,0,0,1-1.587-1.587v-3.309a.952.952,0,0,1,1.9,0v2.991h2.174a.952.952,0,0,1,.9,1.269,2.006,2.006,0,0,0,1.66,2.661,2.008,2.008,0,0,0,2.123-2.661.952.952,0,0,1,.9-1.27h2.174v-3.16a.952.952,0,0,1,1.27-.9,2.006,2.006,0,1,0,0-3.783.952.952,0,0,1-1.269-.9v-3.16h-2.174a.952.952,0,0,1-.9-1.269,2.006,2.006,0,0,0-1.66-2.661,2.008,2.008,0,0,0-2.123,2.661.952.952,0,0,1-.9,1.27h-2.174v2.991a.952.952,0,0,1-1.9,0v-3.308a1.589,1.589,0,0,1,1.587-1.587h1.371q0-.017,0-.034a3.91,3.91,0,0,1,7.79-.488,4.051,4.051,0,0,1,.03.522h2.005a.952.952,0,0,1,.952.952v2.991a4.055,4.055,0,0,1,.522.03,3.91,3.91,0,0,1-.522,7.79V267.2a.952.952,0,0,1-.952.952h-2.006q0,.017,0,.034a3.909,3.909,0,0,1-3.918,3.909Z" transform="translate(-135.595 -149.157)"/>
      <path id="Trazado_735472" data-name="Trazado 735472" d="M235.893,147.6a2.927,2.927,0,0,1-2.924-2.924v-1.972a2.924,2.924,0,1,1,5.848,0v1.972A2.927,2.927,0,0,1,235.893,147.6Zm0-5.915a1.021,1.021,0,0,0-1.02,1.02v1.972a1.02,1.02,0,1,0,2.039,0v-1.972A1.021,1.021,0,0,0,235.893,141.686Z" transform="translate(-203.393 -54.238)"/>
      <path id="Trazado_735473" data-name="Trazado 735473" d="M298.022,178.4a2.924,2.924,0,0,1-2.53-4.386l.986-1.708a2.924,2.924,0,1,1,5.064,2.924l-.986,1.708A2.934,2.934,0,0,1,298.022,178.4Zm.99-5.652a1.024,1.024,0,0,0-.885.51l-.986,1.708a1.021,1.021,0,0,0,.373,1.393,1,1,0,0,0,.508.137,1.024,1.024,0,0,0,.885-.51l.986-1.708a1.021,1.021,0,0,0-.373-1.393A1,1,0,0,0,299.012,172.749Z" transform="translate(-257.637 -81.357)"/>
      <path id="Trazado_735474" data-name="Trazado 735474" d="M166.991,178.4h0a2.934,2.934,0,0,1-2.534-1.462l-.986-1.708a2.924,2.924,0,1,1,5.064-2.924l.986,1.708a2.924,2.924,0,0,1-2.53,4.386Zm-.99-5.652a1,1,0,0,0-.508.137,1.021,1.021,0,0,0-.373,1.393l.986,1.708a1.024,1.024,0,0,0,.885.51h0a1.02,1.02,0,0,0,.881-1.53l-.986-1.708A1.024,1.024,0,0,0,166,172.749Z" transform="translate(-142.376 -81.357)"/>
      <path id="Trazado_735475" data-name="Trazado 735475" d="M407.8,93.363h0a4,4,0,0,1-3.987-3.994V84.276a6.619,6.619,0,0,1,13.239,0v.552a8.272,8.272,0,0,1-6.632,8.09l-1.831.366A4.02,4.02,0,0,1,407.8,93.363Zm2.633-13.8a4.72,4.72,0,0,0-4.715,4.715v5.093a2.089,2.089,0,0,0,2.082,2.09,2.126,2.126,0,0,0,.416-.042l1.831-.366a6.363,6.363,0,0,0,5.1-6.223v-.552A4.72,4.72,0,0,0,410.432,79.561Z" transform="translate(-352.548)"/>
      <path id="Trazado_735476" data-name="Trazado 735476" d="M334.6,244.974H324.042a1.589,1.589,0,0,1-1.587-1.587V236.8a4.759,4.759,0,0,1-1.626.286.966.966,0,0,1-.968-.952.939.939,0,0,1,.936-.952,2.87,2.87,0,0,0,1.966-.754.952.952,0,0,1,1.6.7v7.94h9.926V222.2a2.86,2.86,0,0,0-2.856-2.856h-5.261a2.85,2.85,0,0,0-2.715,1.968l-2.87,8.768a1.584,1.584,0,0,1-1.508,1.093h-6.229a.318.318,0,0,0-.317.317v1.473a2.224,2.224,0,0,0,2.222,2.222h1.6a.952.952,0,0,1,0,1.9h-1.6a4.131,4.131,0,0,1-4.126-4.126v-1.473a2.224,2.224,0,0,1,2.222-2.222h6l2.8-8.55a4.75,4.75,0,0,1,4.525-3.28h5.261a4.766,4.766,0,0,1,4.761,4.761v21.189A1.589,1.589,0,0,1,334.6,244.974Z" transform="translate(-271.19 -122.035)"/>
      <path id="Trazado_735477" data-name="Trazado 735477" d="M404.765,276.758a.952.952,0,0,1-.645-1.653,2.868,2.868,0,0,0,.744-1.11l3.462-9.345a.952.952,0,1,1,1.786.661l-3.462,9.345a4.78,4.78,0,0,1-1.241,1.85A.949.949,0,0,1,404.765,276.758Z" transform="translate(-352.548 -162.711)"/>
      <path id="Trazado_735478" data-name="Trazado 735478" d="M13.157,93.363a4.021,4.021,0,0,1-.789-.079l-1.831-.366a8.272,8.272,0,0,1-6.632-8.09v-.552a6.619,6.619,0,0,1,13.239,0v5.093A4,4,0,0,1,13.157,93.363Zm-2.633-13.8a4.72,4.72,0,0,0-4.715,4.715v.552a6.363,6.363,0,0,0,5.1,6.223l1.831.366a2.12,2.12,0,0,0,.416.042,2.088,2.088,0,0,0,2.082-2.09V84.276A4.72,4.72,0,0,0,10.524,79.561Z" transform="translate(-3.409)"/>
      <path id="Trazado_735479" data-name="Trazado 735479" d="M12.148,244.974H1.587A1.589,1.589,0,0,1,0,243.387V222.2a4.766,4.766,0,0,1,4.761-4.761h5.261a4.75,4.75,0,0,1,4.525,3.28l.4,1.22a.952.952,0,0,1-1.81.592l-.4-1.22a2.85,2.85,0,0,0-2.715-1.968H4.761A2.86,2.86,0,0,0,1.9,222.2V243.07h9.926v-7.94a.952.952,0,0,1,1.6-.7,2.85,2.85,0,0,0,1.934.754h6.078a2.224,2.224,0,0,0,2.222-2.222v-1.473a.318.318,0,0,0-.317-.317H17.114a1.584,1.584,0,0,1-1.508-1.093l-1.046-3.195a.952.952,0,0,1,1.81-.592l.974,2.976h6a2.224,2.224,0,0,1,2.222,2.222v1.473a4.131,4.131,0,0,1-4.126,4.126H15.361a4.759,4.759,0,0,1-1.626-.286v6.586A1.589,1.589,0,0,1,12.148,244.974Z" transform="translate(0 -122.035)"/>
      <path id="Trazado_735480" data-name="Trazado 735480" d="M63.5,276.758a.949.949,0,0,1-.644-.251,4.78,4.78,0,0,1-1.241-1.85l-3.462-9.345a.952.952,0,0,1,1.786-.661L63.4,274a2.868,2.868,0,0,0,.744,1.11.952.952,0,0,1-.645,1.653Z" transform="translate(-50.722 -162.711)"/>
    </g>
  </g>
</svg>
