<svg xmlns="http://www.w3.org/2000/svg" width="85" height="92" viewBox="0 0 85 92">
  <g id="Grupo_988203" data-name="Grupo 988203" transform="translate(-285 -4071)">
    <rect id="Rectángulo_338875" data-name="Rectángulo 338875" width="85" height="92" rx="10" transform="translate(285 4071)" fill="#ff6e33"/>
    <g id="Grupo_988202" data-name="Grupo 988202" transform="translate(-642 -157)">
      <g id="cita" transform="translate(936 4241)">
        <g id="Grupo_988200" data-name="Grupo 988200" transform="translate(0.981 0.981)">
          <path id="Trazado_735405" data-name="Trazado 735405" d="M33.842,13.623c0-2.617-2.73-4.349-4.556-5.036A15.543,15.543,0,0,0,24.016,7.5,13.218,13.218,0,0,0,18,9.246L9.573,17.677a13.218,13.218,0,0,0-1.746,6.012,15.542,15.542,0,0,0,1.087,5.27c.687,1.826,2.419,4.556,5.036,4.556S33.842,16.24,33.842,13.623Z" transform="translate(-7.827 -7.5)" fill="#a29aa5"/>
          <path id="Trazado_735406" data-name="Trazado 735406" d="M61.116,72.889c-1.016-3.082-.216-5.032,3.426-8.674s5.591-4.442,8.674-3.426l.615.2c.4.131,2.7.76,2.7.76l3.46,13.467-4.448,4.448-13.467-3.46s-.557-2.088-.76-2.7Z" transform="translate(-53.79 -53.463)" fill="#766d78"/>
          <path id="Trazado_735407" data-name="Trazado 735407" d="M349.563,53.379h14.314V67.693H349.563Z" transform="translate(-304.844 -47.375)" fill="#e1dee2"/>
          <path id="Trazado_735408" data-name="Trazado 735408" d="M407.588,47.168l-8.431-8.431a5.171,5.171,0,0,0-.463,6.779s-.612,1.861-.179,2.294l2.3-1.048S403.36,48.674,407.588,47.168Z" transform="translate(-346.639 -34.649)" fill="#c38778"/>
          <path id="Trazado_735409" data-name="Trazado 735409" d="M411.366,88.166a3.246,3.246,0,0,1-3.679.891,1.985,1.985,0,0,0-2.142.424l-1.29,1.29c.433.433,2.294-.179,2.294-.179a5.171,5.171,0,0,0,6.779-.463Z" transform="translate(-352.38 -77.61)" fill="#9d6c6c"/>
          <path id="Trazado_735410" data-name="Trazado 735410" d="M344.991,7.5a12.66,12.66,0,0,0-5.357,1.164c-2.451,1.108-6.327,1.764-9.416,4.853-.318.318-2.433,4.876-2.433,4.876l1.792.963,4.31-3.264c3.357-2.542,5.123-.6,8.484-.012,0,2.959,1.536,5.366-.8,7.7,6.661-3.646,9.165-7.951,7.632-14.534A5.943,5.943,0,0,0,344.991,7.5Z" transform="translate(-285.916 -7.5)" fill="#766d78"/>
          <path id="Trazado_735411" data-name="Trazado 735411" d="M353.306,58.365c-2.919-.484-5.706-1.459-8.04.875l-3.787,3.787,1.7.915,3.393-3.393c2.333-2.333,4.74-.8,7.7-.8C354.274,58.806,354.093,58.5,353.306,58.365Z" transform="translate(-297.818 -51.17)" fill="#544f56"/>
          <path id="Trazado_735412" data-name="Trazado 735412" d="M418.256,20.844c0,6.448-1.809,8.711-7.632,14.534l-3.393,3.393,1.924,3.6,2.427-.531s6.224-5.266,7.255-11.426A12.66,12.66,0,0,0,420,25.06,5.943,5.943,0,0,0,418.256,20.844Z" transform="translate(-354.966 -19.098)" fill="#544f56"/>
          <path id="Trazado_735413" data-name="Trazado 735413" d="M122.127,98.246a24.413,24.413,0,0,0-6.951-16.6,23.557,23.557,0,0,0-36.045,29.066c.4.741-.471,1.459,0,2.15s2.292,1.356,2.835,1.991a23.048,23.048,0,0,0,16.6,6.951A23.554,23.554,0,0,0,122.127,98.246Z" transform="translate(-67.363 -67.036)" fill="#bfe2e6"/>
          <path id="Trazado_735414" data-name="Trazado 735414" d="M152.653,119.119a23.564,23.564,0,0,1,2.99,26.161H145.607v10.035a23.564,23.564,0,0,1-26.161-2.99c.944,1.1,1.989,3.429,3.119,4.343s2.347.417,3.636,1.111a23.607,23.607,0,0,0,20.325.954c2.8-1.183,6.628-1.583,8.749-3.693s2.535-5.93,3.734-8.72a23.575,23.575,0,0,0-6.357-27.2Z" transform="translate(-104.84 -104.513)" fill="#94ccd4"/>
          <path id="Trazado_735415" data-name="Trazado 735415" d="M266.24,110.552l-2.986.8-1.913,7.231c-.453,1.689,2.1,3.52,3.337,2.283l2.045-2.045c1.045-1.045.224-2.138-.484-3.364v-4.9Z" transform="translate(-228.122 -97.067)" fill="#c38778"/>
          <path id="Trazado_735416" data-name="Trazado 735416" d="M292.894,112.182a2.846,2.846,0,0,0,.055,2.232,7.531,7.531,0,0,0,.586,1.04l1.408-2.928-1.408-1.974Z" transform="translate(-255.416 -97.068)" fill="#9d6c6c"/>
          <path id="Trazado_735417" data-name="Trazado 735417" d="M288.981,12.745a23.782,23.782,0,0,1,5.914-4.08A12.323,12.323,0,0,0,290.024,7.5c-3.354,0-6.719,2.171-11.6,7.831A3.944,3.944,0,0,0,277.6,16.9l-1.292,4.886,2.418.648,1.909-4.855c3.932-3.932,5.984-5.626,8.345-4.83Z" transform="translate(-241.177 -7.501)" fill="#faf8f8"/>
          <path id="Trazado_735418" data-name="Trazado 735418" d="M305.04,46.3c-2.361-.8-4.413.9-8.345,4.83l-1.909,4.855,1.975.529,1.9-3.945,4.187-4.187Q303.988,47.238,305.04,46.3Z" transform="translate(-257.236 -41.054)" fill="#e1dee2"/>
          <path id="Trazado_735419" data-name="Trazado 735419" d="M353.12,177.334l-3.926.778c-.826-1.421-2.351-2.75-3.63-1.47l-2.045,2.045a1.965,1.965,0,0,0-.468.734l6.5,1.309,4.877-1.309Z" transform="translate(-299.184 -154.059)" fill="#c38778"/>
          <path id="Trazado_735420" data-name="Trazado 735420" d="M342.321,201.307a1.967,1.967,0,0,0,1.856,2.617h8.213l1.309-2.617Z" transform="translate(-298.454 -175.946)" fill="#9d6c6c"/>
          <path id="Trazado_735421" data-name="Trazado 735421" d="M428.059,118.347a40.231,40.231,0,0,1-4.288,4.921l-1.093,3.318-2.682.531V129.2l4.963,1.309c2.979-2.75,6.138-10.481,3.1-12.165Z" transform="translate(-366.061 -103.842)" fill="#faf8f8"/>
          <path id="Trazado_735422" data-name="Trazado 735422" d="M428.059,97.18c.989,1.775-.512,8.106-3.492,10.856H420v2.617h5.067a1.947,1.947,0,0,0,1.427-.615A18.514,18.514,0,0,0,431.1,98.864a12.321,12.321,0,0,0-1.164-4.871A18.8,18.8,0,0,1,428.059,97.18Z" transform="translate(-366.061 -82.675)" fill="#e1dee2"/>
          <path id="Trazado_735423" data-name="Trazado 735423" d="M40.542,31.784,39.5,30.737l-8.431,8.431,1.047,1.047a4.862,4.862,0,0,0,6.518.725s1.645.827,2.555-.083.083-2.555.083-2.555A4.862,4.862,0,0,0,40.542,31.784Z" transform="translate(-28.023 -27.696)" fill="#ebae9d"/>
          <path id="Trazado_735424" data-name="Trazado 735424" d="M13.309,18.319a2.181,2.181,0,0,0,.633-1.7,2.185,2.185,0,0,0,3-3,2.181,2.181,0,0,0,1.7-.633c.771-.771.654-2.44-1.085-4.137a5.962,5.962,0,0,0-8.389,8.388c1.7,1.739,3.366,1.856,4.137,1.085Z" transform="translate(-7.828 -7.501)" fill="#e592b8"/>
          <path id="Trazado_735425" data-name="Trazado 735425" d="M28.224,22.56a2.188,2.188,0,0,0,0-3.095L26.929,18.17q-.215-.215-.445-.4a2.184,2.184,0,0,1-1.926,3.462,2.185,2.185,0,0,1-3,3A2.184,2.184,0,0,1,18.1,26.156q.188.23.4.445L19.793,27.9a2.186,2.186,0,0,0,3.728-1.7,2.185,2.185,0,0,0,3-3A2.18,2.18,0,0,0,28.224,22.56Z" transform="translate(-16.752 -16.424)" fill="#de5ca3"/>
          <path id="Trazado_735426" data-name="Trazado 735426" d="M23.468,163.355l-.891-2.7c.891,2.7-4.9,5.164-6.441,1.418a19.744,19.744,0,0,0,2.419,4.556l18.249.188-3.7-1.851Z" transform="translate(-15.049 -140.611)" fill="#ffcdbe"/>
          <path id="Trazado_735427" data-name="Trazado 735427" d="M35.721,207.656a1.946,1.946,0,0,0,1.427.614h8.6a5.387,5.387,0,0,0,3.744,1.927,3.467,3.467,0,0,0,3.378-3.7l-.376-.188H34.62a14.255,14.255,0,0,0,1.1,1.349Z" transform="translate(-31.114 -180.292)" fill="#ebae9d"/>
          <path id="Trazado_735428" data-name="Trazado 735428" d="M162.4,15.809c3.746,1.546,1.285,7.332-1.418,6.441l2.7.891,1.609,9.635,1.851,3.7-.188-18.25a19.749,19.749,0,0,0-4.556-2.419Z" transform="translate(-140.938 -14.722)" fill="#ffcdbe"/>
          <path id="Trazado_735429" data-name="Trazado 735429" d="M208.6,45.42v-8.6a1.947,1.947,0,0,0-.614-1.427,14.26,14.26,0,0,0-1.349-1.1V52.165l.188.376a3.467,3.467,0,0,0,3.7-3.378A5.388,5.388,0,0,0,208.6,45.42Z" transform="translate(-180.62 -30.786)" fill="#ebae9d"/>
          <path id="Trazado_735430" data-name="Trazado 735430" d="M149.55,142.923l-6.3,6.3a1.309,1.309,0,0,0,0,1.851,2.616,2.616,0,0,0,.623.461l4.146-3.841,3.841-4.146a2.618,2.618,0,0,0-.461-.623A1.309,1.309,0,0,0,149.55,142.923Z" transform="translate(-125.197 -124.869)" fill="#a29aa5"/>
          <path id="Trazado_735431" data-name="Trazado 735431" d="M153.636,157.757l4.448-4.448a2.618,2.618,0,0,0,.461-3.078l-7.987,7.987A2.618,2.618,0,0,0,153.636,157.757Z" transform="translate(-131.881 -131.554)" fill="#766d78"/>
          <path id="Trazado_735432" data-name="Trazado 735432" d="M262.6,267.179l4.911-4.911a.981.981,0,0,1,1.388,0l8.06,8.06a.982.982,0,0,1,0,1.388l-4.911,4.911a.982.982,0,0,1-1.388,0l-8.06-8.06A.981.981,0,0,1,262.6,267.179Z" transform="translate(-229.008 -228.681)" fill="#faf8f8"/>
          <path id="Trazado_735433" data-name="Trazado 735433" d="M344.17,290.693a1.963,1.963,0,0,0-1.388,3.351l2.045,2.045c1.045,1.045,2.963.889,3.63-1.47l1.309-2.021-1.309-1.905Z" transform="translate(-298.448 -253.635)" fill="#ffcdbe"/>
          <path id="Trazado_735434" data-name="Trazado 735434" d="M294.371,342.455a1.963,1.963,0,0,0-3.351,1.388v4.287l2.042,1.214,1.884-1.214a2.147,2.147,0,0,0,1.47-3.63Z" transform="translate(-253.962 -298.12)" fill="#ffcdbe"/>
          <path id="Trazado_735435" data-name="Trazado 735435" d="M307.905,316.009l8.431-8.431a13.218,13.218,0,0,0,1.746-6.012c0-5.549-3.691-10.259-3.691-10.259a1.946,1.946,0,0,0-1.427-.614h-8.993V292.6l6.608,3.329a26.087,26.087,0,0,1-14.325,14.325l-3.329-6.608H291.02v8.993a1.947,1.947,0,0,0,.615,1.427s4.71,3.69,10.259,3.69A13.219,13.219,0,0,0,307.905,316.009Z" transform="translate(-253.962 -253.635)" fill="#a29aa5"/>
          <path id="Trazado_735436" data-name="Trazado 735436" d="M318.474,295.385a16.649,16.649,0,0,1,2.382,8.951,13.218,13.218,0,0,1-1.746,6.012l-8.431,8.431a13.218,13.218,0,0,1-6.012,1.746,16.649,16.649,0,0,1-8.95-2.382,18.514,18.514,0,0,0,11.175,4.606A13.218,13.218,0,0,0,312.9,321l8.431-8.431a13.218,13.218,0,0,0,1.746-6.012A18.516,18.516,0,0,0,318.474,295.385Z" transform="translate(-258.044 -257.713)" fill="#766d78"/>
          <path id="Trazado_735437" data-name="Trazado 735437" d="M321.388,306.2l-4.763-.943v2.021l4.159.824v2.617l-2.436,1.72a23.691,23.691,0,0,1-5.588,5.588l-1.72,2.436h-2.617L307.6,316.3h-2.021l.943,4.763a1.963,1.963,0,0,0,1.3,1.479l1.088.367a26.087,26.087,0,0,0,14.325-14.325l-.367-1.088A1.963,1.963,0,0,0,321.388,306.2Z" transform="translate(-266.616 -266.289)" fill="#766d78"/>
          <path id="Trazado_735438" data-name="Trazado 735438" d="M389.332,380.075c-2.758-2.758-4.857-4.372-7.685-4.329l-5,5.019c0,2.99,1.748,5.234,4.255,7.741Z" transform="translate(-328.383 -327.557)" fill="#faf8f8"/>
          <path id="Trazado_735439" data-name="Trazado 735439" d="M381.648,375.751a11.115,11.115,0,0,0-4.09.985,10.455,10.455,0,0,0-.911,4.034A26.156,26.156,0,0,0,381.648,375.751Z" transform="translate(-328.384 -327.563)" fill="#e1dee2"/>
          <path id="Trazado_735440" data-name="Trazado 735440" d="M334.25,428.1l-3.221,1.578,3.317,1.093A13.014,13.014,0,0,1,334.25,428.1Z" transform="translate(-288.736 -373.062)" fill="#766d78"/>
          <path id="Trazado_735441" data-name="Trazado 735441" d="M331.653,402.836a23.521,23.521,0,0,1-4.338,2.436l.485,2.448h0a25.907,25.907,0,0,0,3.221-1.578,12.531,12.531,0,0,1,.63-3.306Z" transform="translate(-285.508 -351.103)" fill="#544f56"/>
          <path id="Trazado_735442" data-name="Trazado 735442" d="M431.1,334.019l-1.093-3.317-1.578,3.221A13,13,0,0,1,431.1,334.019Z" transform="translate(-373.39 -288.409)" fill="#766d78"/>
          <path id="Trazado_735443" data-name="Trazado 735443" d="M408.049,327.473l-2.448-.485a23.519,23.519,0,0,1-2.436,4.338,12.529,12.529,0,0,1,3.306-.63,25.883,25.883,0,0,0,1.578-3.221Z" transform="translate(-351.432 -285.181)" fill="#544f56"/>
          <path id="Trazado_735444" data-name="Trazado 735444" d="M408.882,408.554c3.319-3.319,1.412-7.019-.916-9.347l-.379-.379a5.171,5.171,0,0,0-6.779-.463s-1.861-.612-2.294-.179.179,2.294.179,2.294a5.171,5.171,0,0,0,.463,6.779l.379.379C401.863,409.967,405.563,411.874,408.882,408.554Z" transform="translate(-346.639 -346.311)" fill="#ffcdbe"/>
          <path id="Trazado_735445" data-name="Trazado 735445" d="M422.449,413.69l-1.963-1.963a5.962,5.962,0,1,1-8.431,8.431l1.963,1.963a5.962,5.962,0,0,0,8.431-8.431Z" transform="translate(-359.159 -358.831)" fill="#ebae9d"/>
          <path id="Trazado_735446" data-name="Trazado 735446" d="M145.377,310.161c-1.272-1.272-2.883-1.368-7.032.969l-.629,2.175,3.174,1.344a3.3,3.3,0,0,0-.436,3.164l3.958.724-.784-1.38C146.208,312.574,145.891,311.107,145.377,310.161Z" transform="translate(-120.719 -269.783)" fill="#ebae9d"/>
          <path id="Trazado_735447" data-name="Trazado 735447" d="M175.469,323.387l1.709,1.056v-1.309c2.581-4.582,2.237-5.794.965-7.066.177,1.129-.2,2.436-2.659,6.821A.538.538,0,0,0,175.469,323.387Z" transform="translate(-153.485 -275.69)" fill="#c38778"/>
          <path id="Trazado_735448" data-name="Trazado 735448" d="M139.974,318.239a1.9,1.9,0,0,1-1.976.488l-.282.008V320.5a3.292,3.292,0,0,0,3.174-.426l4.487-4.487c-1.372-.359-2.944.62-5.4,2.655Z" transform="translate(-120.719 -275.206)" fill="#c38778"/>
          <path id="Trazado_735449" data-name="Trazado 735449" d="M27.562,305c.258.862,1.222,3.946,1.627,5.237-4.255,0-9.594-5.241-9.594-9.6l5.511-.15.347-2.175-7.8-3.787s-9.825,7.647-9.825,11.288a13.218,13.218,0,0,0,1.746,6.012l4.215,4.215s7.543,4.653,10.227,4.653c2.59,0,7.483-5.271,9.4-8.629l-3.606-7.4Z" transform="translate(-7.827 -256.967)" fill="#e592b8"/>
          <path id="Trazado_735450" data-name="Trazado 735450" d="M71.116,336.152l-1.709.252,2.959,6.073a.981.981,0,0,1-.143,1.076A70.038,70.038,0,0,1,67.2,348.8c-1.978,1.815-2.841-1.365-1.5-2.978l3.271-3.271-.18-.576a23.66,23.66,0,0,1-9.594-9.6L64.42,334l.282-1.77-3.536-1.1a1.963,1.963,0,0,0-1.969.487l-3.852,3.852c-1.612,1.339-.156,4.95,2.621,7.727l-4.582,4.582L57.6,352a13.218,13.218,0,0,0,6.012,1.746c3.641,0,11.288-9.825,11.288-9.825Z" transform="translate(-47.423 -288.708)" fill="#de5ca3"/>
          <path id="Trazado_735451" data-name="Trazado 735451" d="M45.154,409.6c4.328-4.328,2.6-7.9,1.9-8.722l1.087-2.692c-.433-.433-2.294.179-2.294.179a5.171,5.171,0,0,0-6.779.463S45.022,409.733,45.154,409.6Z" transform="translate(-34.976 -346.311)" fill="#ebae9d"/>
          <path id="Trazado_735452" data-name="Trazado 735452" d="M78.988,406.223s.612-1.861.179-2.294l-1.29,1.29a1.985,1.985,0,0,0-.424,2.141,3.246,3.246,0,0,1-.891,3.679l-1.8,1.8,1.418,2.508L78.525,413a5.171,5.171,0,0,0,.463-6.779Z" transform="translate(-66.007 -352.053)" fill="#c38778"/>
          <path id="Trazado_735453" data-name="Trazado 735453" d="M16.958,408.555c2.011-2.011,1.127-5.254-.05-7.188a30.6,30.6,0,0,0-3.486-4.044l-3.848,3.848a5.962,5.962,0,0,0,0,8.431C11.7,410.969,14.375,411.138,16.958,408.555Z" transform="translate(-7.828 -346.312)" fill="#c38778"/>
          <path id="Trazado_735454" data-name="Trazado 735454" d="M28.505,428.229a5.6,5.6,0,0,1-.866,6.272c-1.835,1.835-4.127,3.008-6.468,1.963a5.962,5.962,0,0,0,8.431,0C31.613,434.452,30.669,431.338,28.505,428.229Z" transform="translate(-19.425 -373.174)" fill="#9d6c6c"/>
        </g>
        <g id="Grupo_988201" data-name="Grupo 988201" transform="translate(0 0)">
          <path id="Trazado_735455" data-name="Trazado 735455" d="M5.2,29.014a2.936,2.936,0,0,0,2.146.927H9.548A24.815,24.815,0,0,0,9.292,33.5c0,.518.016,1.042.049,1.557a.982.982,0,0,0,.979.92l.062,0a.981.981,0,0,0,.918-1.041c-.03-.475-.045-.958-.045-1.435a22.817,22.817,0,0,1,.281-3.558h4.009a6.041,6.041,0,0,0,4.143,1.927,4.389,4.389,0,0,0,4.341-4.259L27.937,23.7A4.389,4.389,0,0,0,32.2,19.359a6.04,6.04,0,0,0-1.927-4.143V11.207a22.815,22.815,0,0,1,3.558-.281.981.981,0,1,0,0-1.963,24.811,24.811,0,0,0-3.558.256V7.015a2.935,2.935,0,0,0-.927-2.146A19.615,19.615,0,0,0,17.5,0a10.668,10.668,0,0,0-1.852.17A.981.981,0,0,0,15.988,2.1a8.7,8.7,0,0,1,1.51-.139A14.633,14.633,0,0,1,22.512,3.03c1.7.8,1.114,2.662.975,3.035-.437,1.18-1.274,1.7-1.83,1.513l-.615-.2a.981.981,0,0,0-.615,1.864l2.755.908.192,1.149a24.471,24.471,0,0,0-11.75,11.75l-1.149-.192L9.567,20.1a.981.981,0,1,0-1.864.614l.2.615c.183.556-.333,1.393-1.513,1.83-.373.138-2.239.726-3.035-.975A14.636,14.636,0,0,1,2.291,17.17a11.265,11.265,0,0,1,1.03-4.358L4.7,14.194a6.112,6.112,0,0,0,4.335,1.95A5.994,5.994,0,0,0,12,15.321a3.039,3.039,0,0,0,3.16-.485,3.04,3.04,0,0,0,.485-3.16,5.8,5.8,0,0,0-1.127-7.3L12.181,2.034A6.943,6.943,0,0,0,1.864,11.3,13.729,13.729,0,0,0,.328,17.17,19.613,19.613,0,0,0,5.2,29.014Zm14.86-2.986,6.3-6.3a.327.327,0,0,1,.463,0,1.636,1.636,0,0,1,0,2.313l-4.448,4.448a1.638,1.638,0,0,1-2.313,0,.328.328,0,0,1,0-.463ZM25.328,6.747a5.085,5.085,0,0,0,.356-2.167,14.491,14.491,0,0,1,2.321,1.727.967.967,0,0,1,.3.708v8.6a.981.981,0,0,0,.287.694,4.358,4.358,0,0,1,1.639,3.05,2.145,2.145,0,0,1-.991,1.9,3.671,3.671,0,0,0,.019-.371,3.575,3.575,0,0,0-1.054-2.545,2.284,2.284,0,0,0-1.776-.662l-1.409-8.44a.981.981,0,0,0-.661-.77l-.106-.035a4.35,4.35,0,0,0,1.074-1.687Zm-1.616,6.568.9,5.384-5.584,5.584-5.384-.9A22.506,22.506,0,0,1,23.712,13.315ZM5.273,25.328A5.227,5.227,0,0,0,7.075,25a4.4,4.4,0,0,0,1.69-1.064l.032.1a.982.982,0,0,0,.77.661l8.44,1.409c0,.052-.008.1-.008.157a2.275,2.275,0,0,0,.671,1.619,3.593,3.593,0,0,0,2.917,1.033,2.145,2.145,0,0,1-1.9.993,4.359,4.359,0,0,1-3.05-1.639.981.981,0,0,0-.694-.287h-8.6a.967.967,0,0,1-.708-.3,14.541,14.541,0,0,1-1.75-2.359c.123.007.252.01.388.01Zm8.4-13.3c.175.358.384,1.143.1,1.425s-1.068.073-1.42-.1a.982.982,0,0,0-.984.059,3.782,3.782,0,0,1-4.047.329A3.171,3.171,0,0,0,8.86,12.029a3.17,3.17,0,0,0,3.5-3.5A3.169,3.169,0,0,0,14.064,7a3.783,3.783,0,0,1-.329,4.047A.99.99,0,0,0,13.674,12.023Zm-9.924-8.6a4.986,4.986,0,0,1,7.043,0l1.294,1.294h0a1.2,1.2,0,0,1-.939,2.055.981.981,0,0,0-.91,1.486A1.2,1.2,0,0,1,8.585,9.91a.981.981,0,0,0-1.486.91,1.205,1.205,0,0,1-2.055.939h0L3.749,10.465a4.986,4.986,0,0,1,0-7.043Z" transform="translate(-0.328 0)"/>
          <path id="Trazado_735456" data-name="Trazado 735456" d="M284.021,21.966a.981.981,0,1,0,1.842.677,16.254,16.254,0,0,0,1.094-5.464,12.92,12.92,0,0,0-1.072-4.861,13.585,13.585,0,0,0,1.072-5.366A6.943,6.943,0,0,0,280.014.009a13.583,13.583,0,0,0-5.367,1.071,12.928,12.928,0,0,0-4.86-1.071c-3.763,0-7.338,2.367-12.339,8.171a4.955,4.955,0,0,0-1.032,1.954l-3.2,12.114a3.225,3.225,0,0,0,1.7,3.473,2.654,2.654,0,0,0,3.282-.242l2.045-2.045c1.44-1.44.569-3.028-.072-4.113l2.886-6.252A22.509,22.509,0,0,1,273.695,23.5l-2.287.453a4.2,4.2,0,0,0-2.643-1.856,2.486,2.486,0,0,0-2.141.783l-2.045,2.045a2.944,2.944,0,0,0,2.082,5.026h9.088a22.7,22.7,0,0,1,0,7.117h-9.088a2.946,2.946,0,0,0-1.511.408l-3.631-3.591a1.966,1.966,0,0,0-2.776,0L253.833,38.8a1.963,1.963,0,0,0,0,2.78l3.617,3.577a2.941,2.941,0,0,0-.439,1.561v13.28a2.936,2.936,0,0,0,.928,2.146,19.614,19.614,0,0,0,11.843,4.869,13.729,13.729,0,0,0,5.872-1.536,6.952,6.952,0,0,0,9.264-.5h0a6.953,6.953,0,0,0,.5-9.264,13.729,13.729,0,0,0,1.536-5.872,19.613,19.613,0,0,0-4.87-11.844,2.935,2.935,0,0,0-2.146-.927h-2.205a24.814,24.814,0,0,0,0-7.117h2.205a2.936,2.936,0,0,0,2.146-.928,16.457,16.457,0,0,0,1.923-2.557.981.981,0,1,0-1.67-1.031,14.508,14.508,0,0,1-1.691,2.252.967.967,0,0,1-.708.3h-4.086V25.071l1.891-.375a.981.981,0,0,0,.741-.656l1.021-3.1a35.594,35.594,0,0,0,5.133-6.229,9.5,9.5,0,0,1,.353,2.464,14.507,14.507,0,0,1-.973,4.788Zm-13.5,29.989,1.182,1.182a4.982,4.982,0,0,0,.227,1.882,6.982,6.982,0,0,0-.877,2.41A6.713,6.713,0,0,1,270.516,51.956Zm2.57-.206-1.19-1.19a6.7,6.7,0,0,1,4.285-.091,7.055,7.055,0,0,1,1.3.615,6.956,6.956,0,0,0-2.51.893A4.979,4.979,0,0,0,273.086,51.749Zm-9.619,2-.4-2.039a3.012,3.012,0,0,0,1.737-1.831,3.059,3.059,0,0,0,.122-.5l4.394-4.394c.051-.01.1-.021.154-.035a3.247,3.247,0,0,0,2.1-1.852l2.122.42a22.489,22.489,0,0,1-10.228,10.228Zm-4.489-7.033a.981.981,0,0,1,1.675-.694l2.045,2.045a1.194,1.194,0,0,1,.243,1.178,1.242,1.242,0,0,1-1.1.776h-2.864Zm7.683-7.683h3.306v2.8a1.652,1.652,0,0,1-.993,1.222,1.008,1.008,0,0,1-.962-.3l-2.045-2.045a.981.981,0,0,1,.694-1.675Zm-6.525-3.753L263.9,39a2.9,2.9,0,0,0,.68,3.1l2.045,2.045a3.224,3.224,0,0,0,.413.348L264.429,47.1a2.835,2.835,0,0,0-.342-.419l-2.045-2.045a2.893,2.893,0,0,0-3.034-.7l-3.786-3.744ZM259.28,60.7a.967.967,0,0,1-.3-.708V51.981h2.138l1.152,5.816a.982.982,0,0,0,.656.741l3.318,1.093a.981.981,0,0,0,.615-1.864l-2.774-.914-.222-1.12a24.619,24.619,0,0,0,4.438-2.677c-.514,4.134,1.8,6.908,4.464,9.575l1.382,1.382a11.264,11.264,0,0,1-4.358,1.03A17.7,17.7,0,0,1,259.28,60.7Zm24.256,2.885a4.986,4.986,0,0,1-7.043,0l-2.341-2.341a4.2,4.2,0,0,1-.34-5.542.981.981,0,0,0,.115-.849,6.846,6.846,0,0,1-.265-1.142,6.872,6.872,0,0,1,1.142.266.982.982,0,0,0,.849-.115,4.2,4.2,0,0,1,5.542.34l2.342,2.341A4.986,4.986,0,0,1,283.535,63.586ZM280.65,39.331a17.7,17.7,0,0,1,4.344,10.507,11.265,11.265,0,0,1-1.03,4.358l-1.413-1.412c-2.01-2.006-3.768-3.494-5.729-4.171a7.815,7.815,0,0,0-3.764-.329,24.62,24.62,0,0,0,2.626-4.371l1.12.222.914,2.774a.981.981,0,1,0,1.864-.614l-1.093-3.318a.981.981,0,0,0-.741-.656l-5.816-1.152V39.03h8.011A.967.967,0,0,1,280.65,39.331Zm-21.8-17.283L256.8,24.093c-.275.276-.808-.01-.912-.07-.536-.309-.887-.877-.782-1.269l1.661-6.279,2.267.607-.869,1.884a.982.982,0,0,0,.041.9c.069.119.139.238.208.355C259.173,21.5,259.173,21.722,258.848,22.047ZM261.4,11.968l-1.526,3.305-2.6-.7,1.042-3.94a2.982,2.982,0,0,1,.621-1.175c5.687-6.6,8.677-7.49,10.852-7.49a9.509,9.509,0,0,1,2.462.352,36.126,36.126,0,0,0-6.385,5.291l-4.253,4.055A.976.976,0,0,0,261.4,11.968Zm6.438,1.649,2.555-2.555a3.7,3.7,0,0,1,.85-.652A7.314,7.314,0,0,0,271.925,12c-.386,1.375-.321,2.332.2,2.849s1.474.582,2.849.2a7.336,7.336,0,0,0,1.586.687,3.7,3.7,0,0,1-.652.848l-2.555,2.555a24.418,24.418,0,0,0-5.514-5.514Zm5.976-2.3a5.546,5.546,0,0,1-.619-1.242c.456.032.963.108,1.546.2.531.086,1.109.181,1.719.234.053.61.147,1.188.234,1.719.1.583.172,1.09.2,1.546a5.549,5.549,0,0,1-1.242-.62.982.982,0,0,0-.85-.115,6.839,6.839,0,0,1-1.142.265,6.868,6.868,0,0,1,.266-1.141.981.981,0,0,0-.115-.849Zm.082,16.673h-7.232a.981.981,0,0,1-.694-1.675l2.045-2.045c.256-.256.421-.235.5-.225.458.06,1.112.674,1.588,1.494a.981.981,0,0,0,1.039.47l2.754-.545v2.527Zm4.062-8.265a.982.982,0,0,0-.238.387l-.914,2.774-1.12.222a24.714,24.714,0,0,0-1.23-2.3l2.838-2.838c2-2,1.646-4.151,1.336-6.052a14.576,14.576,0,0,1-.251-2.341.981.981,0,0,0-.981-.981,14.56,14.56,0,0,1-2.341-.252c-1.9-.31-4.055-.661-6.052,1.336l-2.838,2.838q-.8-.483-1.641-.907l2.7-2.578.017-.016c5.065-5.065,8.645-7.039,12.77-7.039a4.98,4.98,0,0,1,4.98,4.98C284.994,11.077,283.02,14.657,277.955,19.723Z" transform="translate(-220.042 -0.008)"/>
          <path id="Trazado_735457" data-name="Trazado 735457" d="M34.477,309.568H34.45a22.809,22.809,0,0,1-5.359-.492,2.927,2.927,0,0,0-.228-.665l-3.016-6.189c2.257-4.117,2.369-5.974.553-7.79-1.714-1.714-3.842-1.573-7.756.557l-6.226-3.023a2.951,2.951,0,0,0-3.151.37c-7.388,6.054-8.939,9.322-8.939,11a13.73,13.73,0,0,0,1.536,5.873,6.943,6.943,0,0,0,9.762,9.762A13.73,13.73,0,0,0,17.5,320.5c1.675,0,4.942-1.551,11-8.937a2.917,2.917,0,0,0,.348-.535,24.7,24.7,0,0,0,4.985.509c.224,0,.451,0,.675-.009a.981.981,0,0,0-.026-1.962Zm-10.359-8.276-2.546.376a1.83,1.83,0,0,1,.338-1.36l3.691-3.691C25.864,297.321,25.654,298.494,24.118,301.292Zm-6.364-.316a5.38,5.38,0,0,0,1.857.245,5.451,5.451,0,0,0,.231,1.837c.118.4.38,1.242.669,2.171a22.664,22.664,0,0,1-4.919-4.922Zm6.412-5.7-3.642,3.642a1.839,1.839,0,0,1-1.361.336l.4-2.534C22.187,295.294,23.449,295.09,24.166,295.277Zm-20.417,21.8a4.986,4.986,0,0,1,0-7.043L6.9,306.888A28.108,28.108,0,0,1,9.584,310.1c1.533,2.2,2.987,5.2,1.208,6.98A4.986,4.986,0,0,1,3.749,317.082Zm9.724-7.884a4.242,4.242,0,0,1,.064,5.08,12.223,12.223,0,0,0-2.343-5.3,27.217,27.217,0,0,0-1.99-2.494,5.018,5.018,0,0,1,2.428.871.982.982,0,0,0,.849.115,6.838,6.838,0,0,1,1.142-.265,6.868,6.868,0,0,1-.266,1.141.98.98,0,0,0,.115.849Zm13.5,1.124c-4.092,4.993-7.812,8.219-9.478,8.219a11.264,11.264,0,0,1-4.358-1.03l1.382-1.382a6.086,6.086,0,0,0,.838-7.613c.386-1.375.32-2.331-.2-2.848s-1.474-.582-2.848-.2a6.376,6.376,0,0,0-4.843-.773.981.981,0,0,0-1.264.105l-2.888,2.888a11.265,11.265,0,0,1-1.03-4.358c0-1.666,3.227-5.386,8.22-9.479a.983.983,0,0,1,1.049-.122l6.029,2.927-.336,2.107L12.531,297.3a.981.981,0,0,0-.917.183L8.43,300.131a.981.981,0,0,0,1.254,1.51l2.774-2.3.191.059a24.622,24.622,0,0,0,8.782,8.783l.061.2-2.3,2.773A.981.981,0,1,0,20.7,312.4l2.644-3.184a.982.982,0,0,0,.181-.921c-.012-.037-.927-2.956-1.471-4.716l2.118-.313,2.925,6a.982.982,0,0,1-.122,1.05Z" transform="translate(-0.328 -253.505)"/>
        </g>
      </g>
    </g>
  </g>
</svg>
