<svg xmlns="http://www.w3.org/2000/svg" width="128" height="106" viewBox="0 0 128 106">
  <g id="Grupo_988193" data-name="Grupo 988193" transform="translate(-316 -2797)">
    <rect id="Rectángulo_344923" data-name="Rectángulo 344923" width="128" height="106" rx="10" transform="translate(316 2797)" fill="#9eebec"/>
    <g id="unido" transform="translate(334 2805)">
      <path id="Trazado_735346" data-name="Trazado 735346" d="M205.4,202.394l-20.5-20.5a3.283,3.283,0,1,1,4.643-4.643l-5.28-5.279a3.276,3.276,0,0,1-.964-2.323,3.374,3.374,0,0,1,.042-.526,3.279,3.279,0,0,1,5.253-2.066l-2.009-2.009a3.284,3.284,0,0,1-.965-2.326,3.137,3.137,0,0,1,.044-.534,3.285,3.285,0,0,1,5.565-1.785l2.3,2.3a3.283,3.283,0,1,1,4.643-4.643l13.325,13.326.038-.053a6,6,0,0,1,8.5.006l6.214,6.214a6.376,6.376,0,0,1,1.867,4.5l0,3.887a6.861,6.861,0,0,0,2.011,4.846l1.386,1.385-15.848,15.848-1.77-1.77a6.863,6.863,0,0,0-4.4-2A6.368,6.368,0,0,1,205.4,202.394Zm0,0" transform="translate(-150.01 -128.567)" fill="#fecbaa"/>
      <path id="Trazado_735347" data-name="Trazado 735347" d="M353.874,360.116l17.988-17.988a1.517,1.517,0,0,1,2.146,0l6.407,6.406a1.519,1.519,0,0,1,0,2.146l-17.988,17.988a1.518,1.518,0,0,1-2.146,0l-6.406-6.407A1.517,1.517,0,0,1,353.874,360.116Zm0,0" transform="translate(-289.252 -279.639)" fill="#fdd559"/>
      <path id="Trazado_735348" data-name="Trazado 735348" d="M89.268,202.4l20.5-20.5a3.283,3.283,0,1,0-4.644-4.643l5.28-5.28a3.281,3.281,0,0,0-4.331-4.914l2.009-2.009a3.283,3.283,0,0,0,.965-2.325,3.13,3.13,0,0,0-.044-.534,3.271,3.271,0,0,0-2.717-2.707,3.283,3.283,0,0,0-2.849.921l-2.3,2.3a3.283,3.283,0,1,0-4.642-4.643L83.173,171.392l-.038-.052a6,6,0,0,0-8.5.006l-6.213,6.214a6.373,6.373,0,0,0-1.867,4.5l0,3.887a6.856,6.856,0,0,1-2.01,4.846l-1.386,1.385L79,208.025l1.771-1.77a6.863,6.863,0,0,1,4.4-2A6.375,6.375,0,0,0,89.268,202.4Zm0,0" transform="translate(-51.688 -128.575)" fill="#fecbaa"/>
      <path id="Trazado_735349" data-name="Trazado 735349" d="M34.481,360.124,16.492,342.136a1.517,1.517,0,0,0-2.146,0l-6.407,6.407a1.519,1.519,0,0,0,0,2.146l17.988,17.988a1.517,1.517,0,0,0,2.146,0l6.407-6.406A1.519,1.519,0,0,0,34.481,360.124Zm0,0" transform="translate(-6.134 -279.645)" fill="#ff84a7"/>
      <path id="Trazado_735350" data-name="Trazado 735350" d="M182.6,85.337v29a3.283,3.283,0,1,1-6.567,0V121.8a3.281,3.281,0,0,1-6.537.412v2.842a3.283,3.283,0,0,1-.963,2.326,3.078,3.078,0,0,1-.409.347,3.284,3.284,0,0,1-5.2-2.673V121.8a3.283,3.283,0,1,1-6.566,0V102.956l-.064.011a6.005,6.005,0,0,1-6.005-6.014V88.166a6.378,6.378,0,0,1,1.861-4.5l2.746-2.751a6.861,6.861,0,0,0,2-4.849V74.105h22.412v2.5a6.868,6.868,0,0,0,1.7,4.525A6.37,6.37,0,0,1,182.6,85.337Zm0,0" transform="translate(-123.005 -60.649)" fill="#fedfc5"/>
      <path id="Trazado_735351" data-name="Trazado 735351" d="M175.316,177.253a3.286,3.286,0,0,0-4.647,0l5.28-5.28a3.281,3.281,0,0,0-4.331-4.914l2.009-2.009a3.282,3.282,0,0,0,.964-2.325,3.063,3.063,0,0,0-.044-.534,3.285,3.285,0,0,0-5.565-1.785l-2.3,2.3a3.283,3.283,0,1,0-4.643-4.643l-13.326,13.326-.038-.052a5.982,5.982,0,0,0-5.438-1.634,8.811,8.811,0,0,0,4.626,3.5v16.524a6.014,6.014,0,0,0,7.18,5.9,6.019,6.019,0,0,0,3.483,3.058L175.312,181.9A3.282,3.282,0,0,0,175.316,177.253Zm0,0" transform="translate(-117.228 -128.575)" fill="#ffae85"/>
      <path id="Trazado_735352" data-name="Trazado 735352" d="M212.321,182.254v-11.6a6.009,6.009,0,0,0-.8.674l-.037.053-13.326-13.326a3.286,3.286,0,0,0-4.647,0,3.286,3.286,0,0,0,0,4.647l-2.3-2.3a3.282,3.282,0,0,0-5.565,1.785,3.132,3.132,0,0,0-.043.534,3.28,3.28,0,0,0,.965,2.325l2.009,2.009a3.282,3.282,0,0,0-4.332,4.914l5.28,5.28a3.283,3.283,0,1,0-4.642,4.643l13.737,13.737a6.03,6.03,0,0,0,1.129.106,5.954,5.954,0,0,0,3.514-1.137,6.006,6.006,0,0,0,2.493-4.875v-1.48q.278.026.56.026A6.017,6.017,0,0,0,212.321,182.254Zm0,0" transform="translate(-150 -128.568)" fill="#ffae85"/>
      <path id="Trazado_735353" data-name="Trazado 735353" d="M182.6,85.337v29a3.284,3.284,0,0,1-3.283,3.288c-.049,0-.1,0-.155,0A3.248,3.248,0,0,1,177.4,117s0,0,0,0a3.282,3.282,0,0,1-1.362-2.666V121.8a3.281,3.281,0,0,1-6.537.412v2.842a3.283,3.283,0,0,1-.963,2.326,3.078,3.078,0,0,1-.409.347,3.284,3.284,0,0,1-5.2-2.673V121.8a3.283,3.283,0,1,1-6.566,0V102.956l-.064.011a6.005,6.005,0,0,1-6.005-6.014V88.166a6.378,6.378,0,0,1,1.861-4.5l2.746-2.751a6.874,6.874,0,0,0,2-4.849V74.105h22.412v2.5a6.186,6.186,0,0,0,.216,1.695,6.821,6.821,0,0,0,1.487,2.831A6.422,6.422,0,0,1,182.6,85.337Zm0,0" transform="translate(-123.005 -60.649)" fill="#fedfc5"/>
      <path id="Trazado_735354" data-name="Trazado 735354" d="M211.022,85.337v29a3.284,3.284,0,0,1-3.283,3.288c-.049,0-.1,0-.155,0a3.248,3.248,0,0,1-1.763-.617l.056-27.944a4.284,4.284,0,0,0-.109-.775,12.631,12.631,0,0,0-12.635-10.193H185.02a6.838,6.838,0,0,0,.306-2.027V74.105h22.412v2.5a6.186,6.186,0,0,0,.216,1.695,6.821,6.821,0,0,0,1.487,2.831A6.422,6.422,0,0,1,211.022,85.337Zm0,0" transform="translate(-151.423 -60.649)" fill="#fecbaa"/>
      <path id="Trazado_735355" data-name="Trazado 735355" d="M196.656,19.6h-25.44a1.518,1.518,0,0,1-1.517-1.518V9.018A1.518,1.518,0,0,1,171.216,7.5h25.44a1.518,1.518,0,0,1,1.517,1.518v9.059A1.518,1.518,0,0,1,196.656,19.6Zm0,0" transform="translate(-138.884 -6.138)" fill="#83d9ff"/>
      <path id="Trazado_735356" data-name="Trazado 735356" d="M202.989,447.763l-.273,1.334.263-1.336a1.362,1.362,0,1,0-.526,2.672l.025,0a1.387,1.387,0,0,0,.257.025,1.362,1.362,0,0,0,.254-2.7Zm0,0" transform="translate(-164.79 -366.434)"/>
      <path id="Trazado_735357" data-name="Trazado 735357" d="M262.175,450.263l.135,1.355-.14-1.354a1.362,1.362,0,0,0,.138,2.717c.047,0,.094,0,.141-.007l.038,0a1.362,1.362,0,0,0-.312-2.706Zm0,0" transform="translate(-213.564 -368.496)"/>
      <path id="Trazado_735358" data-name="Trazado 735358" d="M232.535,451.233h-.02a1.354,1.354,0,0,0-1.412,1.3,1.37,1.37,0,0,0,1.308,1.421h.063a1.362,1.362,0,0,0,.06-2.722Zm0,0" transform="translate(-189.137 -369.294)"/>
      <path id="Trazado_735359" data-name="Trazado 735359" d="M174.407,439.876l-.017-.006a1.354,1.354,0,0,0-1.734.824,1.366,1.366,0,1,0,1.751-.818Zm0,0" transform="translate(-141.239 -359.93)"/>
      <path id="Trazado_735360" data-name="Trazado 735360" d="M291.379,444.847l.336,1.32-.34-1.319a1.362,1.362,0,1,0,.68,2.637l.036-.009a1.362,1.362,0,0,0-.711-2.629Zm0,0" transform="translate(-237.628 -364.033)"/>
      <path id="Trazado_735361" data-name="Trazado 735361" d="M319.413,435.068l.54,1.25-.544-1.248a1.362,1.362,0,1,0,1.087,2.5l.033-.015a1.362,1.362,0,0,0-1.116-2.484Zm0,0" transform="translate(-260.739 -355.971)"/>
      <path id="Trazado_735362" data-name="Trazado 735362" d="M147.845,81.414a1.362,1.362,0,1,0-.636-2.565l-.016.009a1.36,1.36,0,0,0,.653,2.556Zm0,0" transform="translate(-119.879 -64.4)"/>
      <path id="Trazado_735363" data-name="Trazado 735363" d="M63.966,165.819a1.362,1.362,0,0,0,1.839-.574l.024-.048a1.362,1.362,0,1,0-1.863.621Zm0,0" transform="translate(-51.754 -133.593)"/>
      <path id="Trazado_735364" data-name="Trazado 735364" d="M52.522,193.651a1.36,1.36,0,0,0,1.726-.853l.018-.054a1.362,1.362,0,1,0-1.744.907Zm0,0" transform="translate(-42.227 -156.302)"/>
      <path id="Trazado_735365" data-name="Trazado 735365" d="M79.524,140.073a1.361,1.361,0,0,0,1.9-.3l.018-.024a1.362,1.362,0,0,0-2.216-1.584l1.1.807-1.1-.8A1.362,1.362,0,0,0,79.524,140.073Zm0,0" transform="translate(-64.624 -112.612)"/>
      <path id="Trazado_735366" data-name="Trazado 735366" d="M122.407,97.559a1.368,1.368,0,1,0-.789-2.475l-.034.025a1.363,1.363,0,0,0,.823,2.45Zm0,0" transform="translate(-99.065 -77.603)"/>
      <path id="Trazado_735367" data-name="Trazado 735367" d="M49.7,311.4a1.362,1.362,0,1,0-.018-.06Zm0,0" transform="translate(-40.623 -253.398)"/>
      <path id="Trazado_735368" data-name="Trazado 735368" d="M99.752,117.341a1.366,1.366,0,1,0-.951-2.335l-.023.023a1.361,1.361,0,0,0,.974,2.312Zm0,0" transform="translate(-80.524 -93.796)"/>
      <path id="Trazado_735369" data-name="Trazado 735369" d="M46.062,281.379a1.362,1.362,0,0,0-2.7.337l.008.055a1.362,1.362,0,0,0,2.7-.392Zm0,0" transform="translate(-35.478 -229.314)"/>
      <path id="Trazado_735370" data-name="Trazado 735370" d="M42.912,252.89h.041a1.362,1.362,0,0,0,1.36-1.322v-.058a1.362,1.362,0,1,0-1.4,1.38Zm0,0" transform="translate(-34.039 -204.725)"/>
      <path id="Trazado_735371" data-name="Trazado 735371" d="M45.454,222.9a1.405,1.405,0,0,0,.242.021,1.363,1.363,0,0,0,1.339-1.122c0-.02.006-.04.009-.06a1.362,1.362,0,1,0-1.59,1.16Zm0,0" transform="translate(-36.282 -180.202)"/>
      <path id="Trazado_735372" data-name="Trazado 735372" d="M403.166,143.9a1.362,1.362,0,0,0,2.242-1.546l-1.132.758,1.128-.764a1.362,1.362,0,1,0-2.255,1.529Zm0,0" transform="translate(-329.751 -116.014)"/>
      <path id="Trazado_735373" data-name="Trazado 735373" d="M437.15,229.031a1.361,1.361,0,0,0-1.2,1.506l.007.059a1.363,1.363,0,0,0,1.347,1.169,1.392,1.392,0,0,0,.194-.013,1.372,1.372,0,0,0-.348-2.72Zm0,0" transform="translate(-356.78 -187.436)"/>
      <path id="Trazado_735374" data-name="Trazado 735374" d="M429.695,200.033l.006.018a1.362,1.362,0,0,0,1.306.978,1.341,1.341,0,0,0,.384-.056,1.362,1.362,0,0,0,.923-1.691l-.006-.018a1.362,1.362,0,1,0-2.613.769Zm0,0" transform="translate(-351.623 -162.28)"/>
      <path id="Trazado_735375" data-name="Trazado 735375" d="M418.681,170.937a1.369,1.369,0,0,0,1.229.765,1.361,1.361,0,0,0,1.219-1.958l-1.234.575,1.233-.578a1.362,1.362,0,0,0-2.466,1.156Zm0,0" transform="translate(-342.533 -138.277)"/>
      <path id="Trazado_735376" data-name="Trazado 735376" d="M383.6,119.679a1.371,1.371,0,1,0-.041-.043Zm0,0" transform="translate(-313.612 -96.041)"/>
      <path id="Trazado_735377" data-name="Trazado 735377" d="M438.719,260.385a1.37,1.37,0,0,0-.116,2.738l.077,0a1.362,1.362,0,0,0,1.358-1.287l0-.056A1.36,1.36,0,0,0,438.719,260.385Zm0,0" transform="translate(-357.906 -213.102)"/>
      <path id="Trazado_735378" data-name="Trazado 735378" d="M334.261,81.826l.033.018a1.357,1.357,0,0,0,1.834-.56,1.366,1.366,0,0,0-.553-1.844l-.659,1.192.655-1.194a1.362,1.362,0,1,0-1.309,2.388Zm0,0" transform="translate(-272.985 -64.876)"/>
      <path id="Trazado_735379" data-name="Trazado 735379" d="M360.415,98.788l.021.016a1.362,1.362,0,0,0,1.646-2.171l-.009-.006a1.362,1.362,0,1,0-1.658,2.161Zm0,0" transform="translate(-294.533 -78.851)"/>
      <path id="Trazado_735380" data-name="Trazado 735380" d="M92.131,67.9l-6.393-6.4a2.876,2.876,0,0,0-4.072,0l-.148.148-.42-.42a5.5,5.5,0,0,1-1.192-1.784,1.327,1.327,0,0,0-.1-.253,5.507,5.507,0,0,1-.317-1.85V55.526a1.372,1.372,0,1,0-.009-2.421,7.678,7.678,0,0,0-2.251-5.121l-6.2-6.213a7.359,7.359,0,0,0-9.41-.845l-.658-.662V24.688a7.733,7.733,0,0,0-1.919-5.1,5.5,5.5,0,0,1-1.365-3.627V14.819h.094a2.883,2.883,0,0,0,2.879-2.88V2.88A2.883,2.883,0,0,0,57.772,0H32.332a2.883,2.883,0,0,0-2.879,2.88v9.059a2.883,2.883,0,0,0,2.879,2.88h.21v.6A5.464,5.464,0,0,1,30.935,19.3l-2.746,2.751a7.683,7.683,0,0,0-2.259,5.464V36.3a7.343,7.343,0,0,0,.791,3.32,7.313,7.313,0,0,0-4.779,2.148l-6.2,6.213a7.685,7.685,0,0,0-2.259,5.464v3.89a5.463,5.463,0,0,1-1.607,3.886l-.415.416,0,0-.148-.148a2.876,2.876,0,0,0-4.072,0L.841,67.9a2.887,2.887,0,0,0,0,4.073l2.19,2.192a1.362,1.362,0,1,0,1.927-1.924L2.768,70.048a.158.158,0,0,1,0-.223l6.394-6.4a.153.153,0,0,1,.216,0l1.111,1.114h0l15.177,15.2,1.7,1.7a.158.158,0,0,1,0,.223l-6.393,6.4a.153.153,0,0,1-.217,0L8.813,76.1a1.362,1.362,0,1,0-1.928,1.924L18.831,89.993a2.876,2.876,0,0,0,4.072,0l6.393-6.4a2.886,2.886,0,0,0,0-4.072l-.07-.07.806-.808a5.472,5.472,0,0,1,3.523-1.6,7.706,7.706,0,0,0,4.959-2.249l5.873-5.886a4.663,4.663,0,0,0,3.371-3.552,4.644,4.644,0,0,0,6.636-4.2V57.919a4.642,4.642,0,0,0,6.566-4.233v-9.56l4.189,4.21a1.362,1.362,0,0,0,1.931-1.922L63.588,42.9A4.638,4.638,0,0,1,69.1,43.7l6.2,6.212a4.979,4.979,0,0,1,1.463,3.539v3.89a8.171,8.171,0,0,0,2.4,5.811l.423.423-1.975,1.979L65.669,77.519,65,76.852l-.021-.02-.117-.118a8.2,8.2,0,0,0-5.274-2.39,4.994,4.994,0,0,1-3.212-1.458L51.9,68.415a1.362,1.362,0,1,0-1.921,1.931l4.472,4.447a7.706,7.706,0,0,0,4.96,2.249,5.475,5.475,0,0,1,3.522,1.6L63,78.7a1.312,1.312,0,0,0,.113.113l.628.628-.07.07a2.886,2.886,0,0,0,0,4.072l6.393,6.4a2.877,2.877,0,0,0,4.073,0l17.99-18.021A2.886,2.886,0,0,0,92.131,67.9ZM80.4,54.358l-.026,0-.248-.05ZM36.587,72.869a4.985,4.985,0,0,1-3.207,1.455,8.2,8.2,0,0,0-5.274,2.39l-.8.805-.724-.725-.028-.028L13.379,63.572l.423-.423a8.171,8.171,0,0,0,2.4-5.811v-3.89a4.976,4.976,0,0,1,1.463-3.539l6.2-6.212a4.638,4.638,0,0,1,5.521-.787l-3.5,3.5a1.362,1.362,0,0,0,1.928,1.924L32,44.151v17a4.644,4.644,0,0,0,6.661,4.19,4.667,4.667,0,0,0,2.308,3.136Zm21.65-19.182a1.922,1.922,0,1,1-3.843,0V38.5a1.362,1.362,0,1,0-2.724,0V61.154a1.92,1.92,0,0,1-3.815.318V38.48A1.376,1.376,0,0,0,45.1,38.5V61.153a4.669,4.669,0,0,0,.028.511v2.744a1.921,1.921,0,1,1-3.842,0V38.463a1.362,1.362,0,0,0-2.724,0v22.69a1.921,1.921,0,1,1-3.842,0V35.82a1.362,1.362,0,1,0-2.724,0v4.686a1.337,1.337,0,0,0-.328.157A4.66,4.66,0,0,1,28.654,36.3V27.517a4.979,4.979,0,0,1,1.463-3.539l2.746-2.751a8.169,8.169,0,0,0,2.4-5.811v-.6H38A1.362,1.362,0,1,0,38,12.1H32.332a.156.156,0,0,1-.155-.156V2.88a.156.156,0,0,1,.155-.156H57.771a.156.156,0,0,1,.156.156v9.059a.156.156,0,0,1-.156.156H44.4a1.362,1.362,0,1,0,0,2.724H54.954V15.96a8.224,8.224,0,0,0,2.04,5.424,5.007,5.007,0,0,1,1.243,3.3ZM90.2,70.048,72.213,88.069a.146.146,0,0,1-.109.045A.148.148,0,0,1,72,88.069l-6.393-6.4a.158.158,0,0,1,0-.223l1.029-1.031h0L77.076,69.948l6.516-6.528a.152.152,0,0,1,.216,0l6.394,6.4A.158.158,0,0,1,90.2,70.048Zm0,0"/>
      <path id="Trazado_735381" data-name="Trazado 735381" d="M195.266,32.8a1.453,1.453,0,1,0,1.451,1.453A1.453,1.453,0,0,0,195.266,32.8Zm0,0" transform="translate(-158.622 -26.848)"/>
      <path id="Trazado_735382" data-name="Trazado 735382" d="M456.865,374.688a1.453,1.453,0,1,0,1.45,1.453A1.453,1.453,0,0,0,456.865,374.688Zm0,0" transform="translate(-372.718 -306.65)"/>
      <path id="Trazado_735383" data-name="Trazado 735383" d="M111.912,444.656a1.45,1.45,0,1,0-1.45,1.453A1.453,1.453,0,0,0,111.912,444.656Zm0,0" transform="translate(-89.217 -362.724)"/>
    </g>
  </g>
</svg>
