<svg xmlns="http://www.w3.org/2000/svg" width="85" height="92" viewBox="0 0 85 92">
  <g id="Grupo_988652" data-name="Grupo 988652" transform="translate(-285 -6580)">
    <rect id="Rectángulo_338875" data-name="Rectángulo 338875" width="85" height="92" rx="10" transform="translate(285 6580)" fill="#ff6e33"/>
    <g id="ventas" transform="translate(290.945 6590)">
      <path id="Trazado_742115" data-name="Trazado 742115" d="M29.882,328h-7.8L8.054,341.743l7.8,8.085,14.032-13.743Z" transform="translate(-6.787 -278.281)" fill="#ff7f00"/>
      <path id="Trazado_742116" data-name="Trazado 742116" d="M312.054,32.253h8.662l15.591-15.271L327.645,8,312.054,23.271Z" transform="translate(-264.706 -6.787)" fill="#f4393d"/>
      <path id="Trazado_742117" data-name="Trazado 742117" d="M200.054,264l5.062,16.977h18.75L229.158,264Z" transform="translate(-169.683 -223.982)" fill="#17afdc"/>
      <g id="Grupo_988654" data-name="Grupo 988654" transform="translate(37.247 66.418)">
        <circle id="Elipse_5928" data-name="Elipse 5928" cx="2.5" cy="2.5" r="2.5" transform="translate(-0.433 0.298)" fill="#dbe6fd"/>
        <circle id="Elipse_5929" data-name="Elipse 5929" cx="2.5" cy="2.5" r="2.5" transform="translate(13.567 0.298)" fill="#dbe6fd"/>
      </g>
      <path id="Trazado_742118" data-name="Trazado 742118" d="M42.008,41.954V29.828L20.629,8,8.054,20.127,29.433,41.954Z" transform="translate(-6.787 -6.787)" fill="#fccc38"/>
      <path id="Trazado_742119" data-name="Trazado 742119" d="M217.079,275.4H198.328a1.212,1.212,0,0,1-1.162-.866L192.1,257.559A1.212,1.212,0,0,1,193.266,256h29.1a1.212,1.212,0,0,1,1.158,1.573l-5.291,16.977A1.214,1.214,0,0,1,217.079,275.4Zm-17.848-2.425h16.956l4.534-14.552H194.893Z" transform="translate(-162.896 -217.195)"/>
      <path id="Trazado_742120" data-name="Trazado 742120" d="M248.054,296h14.552v2.425H248.054Z" transform="translate(-210.407 -251.132)"/>
      <path id="Trazado_742121" data-name="Trazado 742121" d="M256.054,328h12.127v2.425H256.054Z" transform="translate(-217.195 -278.281)"/>
      <path id="Trazado_742122" data-name="Trazado 742122" d="M250.008,248a1.213,1.213,0,0,0-1.138.793l-8.2,22.247h-24.62v2.425h6.063v2.649a3.638,3.638,0,1,0,2.425,0v-2.649h10.914v2.649a3.638,3.638,0,1,0,2.425,0v-2.649h3.638a1.213,1.213,0,0,0,1.138-.793l8.2-22.247h5.218V248ZM223.33,280.742a1.213,1.213,0,1,1,1.213-1.213A1.213,1.213,0,0,1,223.33,280.742Zm13.339,0a1.213,1.213,0,1,1,1.213-1.213A1.213,1.213,0,0,1,236.669,280.742Z" transform="translate(-183.258 -210.407)"/>
      <path id="Trazado_742123" data-name="Trazado 742123" d="M35.221,36.38H23.095a1.212,1.212,0,0,1-.857-.355L.41,14.2a1.212,1.212,0,0,1,0-1.714h0L12.536.356a1.212,1.212,0,0,1,1.714,0h0L36.079,22.183a1.213,1.213,0,0,1,.355.857V35.167a1.212,1.212,0,0,1-1.212,1.213ZM23.6,33.955H34.009V23.543L13.393,2.928,2.982,13.339Z" transform="translate(0 0)"/>
      <path id="Trazado_742124" data-name="Trazado 742124" d="M355.391,73.692a3.342,3.342,0,0,1-2.364-5.706l1.715,1.715a.918.918,0,0,0,1.3,1.3c.328-.327.383-.448-.217-1.59-.544-1.035-1.453-2.768.217-4.437a3.344,3.344,0,0,1,4.731,4.726l0,0-1.715-1.715a.918.918,0,0,0-1.3-1.3c-.329.329-.385.451.216,1.595.542,1.034,1.451,2.766-.216,4.433A3.339,3.339,0,0,1,355.391,73.692Z" transform="translate(-298.637 -54.291)"/>
      <path id="Trazado_742125" data-name="Trazado 742125" d="M63.034,372.489a2.986,2.986,0,0,1-2.113-5.1l1.715,1.715a.563.563,0,0,0,.795.8l0,0c.2-.2.232-.232-.217-1.088a3.03,3.03,0,0,1,.217-3.934A2.988,2.988,0,1,1,67.66,369.1l-1.715-1.715a.563.563,0,0,0-.795-.8l0,0c-.2.2-.234.234.216,1.092a3.028,3.028,0,0,1-.216,3.931,2.98,2.98,0,0,1-2.114.873Z" transform="translate(-50.897 -308.826)"/>
      <path id="Trazado_742126" data-name="Trazado 742126" d="M313.755,26.679h-8.489a1.212,1.212,0,0,1-1.213-1.212h0V16.977a1.213,1.213,0,0,1,.355-.857L320.174.356a1.212,1.212,0,0,1,1.714,0h0l8.489,8.489a1.212,1.212,0,0,1,0,1.714h0L314.613,26.323a1.21,1.21,0,0,1-.857.355Zm-7.276-2.425h6.774L327.805,9.7l-6.774-6.774L306.479,17.479Z" transform="translate(-257.919 0)"/>
      <path id="Trazado_742127" data-name="Trazado 742127" d="M9.755,344.253A1.209,1.209,0,0,1,8.9,343.9L.41,335.409a1.212,1.212,0,0,1,0-1.714h0l13.339-13.339a1.212,1.212,0,0,1,.857-.355h8.489a1.212,1.212,0,0,1,1.213,1.212h0V329.7a1.213,1.213,0,0,1-.355.857L10.613,343.9a1.208,1.208,0,0,1-.857.355Zm-6.774-9.7,6.774,6.774L21.882,329.2v-6.774H15.108Z" transform="translate(0 -271.494)"/>
      <path id="Trazado_742128" data-name="Trazado 742128" d="M177.873,179.638a1.819,1.819,0,1,1,1.819-1.819A1.819,1.819,0,0,1,177.873,179.638Z" transform="translate(-149.321 -149.321)"/>
      <path id="Trazado_742129" data-name="Trazado 742129" d="M87.617,85.848a4.045,4.045,0,0,0-.712-4.73c-2.012-2.013-4.073-.932-5.437-.216-1.473.773-1.92.894-2.6.216a1.629,1.629,0,0,1,2.3-2.3L82.887,77.1a4.045,4.045,0,0,0-4.731-.712l-2.043-2.043L74.4,76.059,76.442,78.1a4.046,4.046,0,0,0,.712,4.73c2.014,2.016,4.077.933,5.441.217,1.469-.773,1.915-.895,2.595-.217a1.629,1.629,0,0,1-2.3,2.3l-1.715,1.715a4,4,0,0,0,4.73.712L87.737,89.4l1.715-1.715Z" transform="translate(-63.075 -63.075)"/>
      <path id="Trazado_742130" data-name="Trazado 742130" d="M296.054,192h2.425v2.425h-2.425Z" transform="translate(-251.132 -162.896)"/>
      <path id="Trazado_742131" data-name="Trazado 742131" d="M296.054,224h2.425v2.425h-2.425Z" transform="translate(-251.132 -190.045)"/>
      <path id="Trazado_742132" data-name="Trazado 742132" d="M160.054,256h2.425v2.425h-2.425Z" transform="translate(-135.747 -217.195)"/>
      <path id="Trazado_742133" data-name="Trazado 742133" d="M160.054,288h2.425v2.425h-2.425Z" transform="translate(-135.747 -244.344)"/>
    </g>
  </g>
</svg>
