<svg xmlns="http://www.w3.org/2000/svg" width="85" height="92" viewBox="0 0 85 92">
  <g id="Grupo_988653" data-name="Grupo 988653" transform="translate(-285 -6580)">
    <rect id="Rectángulo_338875" data-name="Rectángulo 338875" width="85" height="92" rx="10" transform="translate(285 6580)" fill="#ff6e33"/>
    <g id="_FILLED_OUTLINE" data-name="/ FILLED_OUTLINE" transform="translate(278 6577)">
      <rect id="Rectángulo_345740" data-name="Rectángulo 345740" width="28.686" height="40.822" rx="14.343" transform="translate(52.409 17.103)" fill="#31c292"/>
      <path id="Trazado_742134" data-name="Trazado 742134" d="M50.479,24H26.207A2.207,2.207,0,0,0,24,26.207V62.616a2.207,2.207,0,0,0,2.207,2.207H50.479a2.207,2.207,0,0,0,2.207-2.207V26.207A2.207,2.207,0,0,0,50.479,24Z" transform="translate(-6.897 -6.897)" fill="#ff8662"/>
      <path id="Trazado_742135" data-name="Trazado 742135" d="M51.948,355.232A4.413,4.413,0,0,0,47.7,352H41.12a2.207,2.207,0,0,0-2.207,2.207H26.96a2.3,2.3,0,0,0-1.838,3.677h0a2.3,2.3,0,0,0,1.461.888l17.483,2.914a2.206,2.206,0,0,1,1.791,1.7l1.884,8.477h8.826Z" transform="translate(-7.467 -289.661)" fill="#f2e6d2"/>
      <rect id="Rectángulo_345741" data-name="Rectángulo 345741" width="6.62" height="9.93" transform="translate(23.723 17.103)" fill="#ffbfac"/>
      <path id="Trazado_742136" data-name="Trazado 742136" d="M285.607,354.207H273.653A2.207,2.207,0,0,0,271.446,352h-6.575a4.413,4.413,0,0,0-4.252,3.232L256,371.859h8.826l1.884-8.477a2.207,2.207,0,0,1,1.791-1.7l17.483-2.914a2.3,2.3,0,0,0,1.461-.888h0a2.3,2.3,0,0,0-1.838-3.677Z" transform="translate(-206.901 -289.661)" fill="#f2e6d2"/>
      <rect id="Rectángulo_345742" data-name="Rectángulo 345742" width="6.62" height="9.93" transform="translate(59.029 17.103)" fill="#aae5cf"/>
      <path id="Trazado_742137" data-name="Trazado 742137" d="M258.924,171.637l-4.38,4.38a2.207,2.207,0,0,0-.1,3.013l4.43,5.063a1.1,1.1,0,0,0,1.934-.727v-2.58h11.033a2.207,2.207,0,0,0,2.207-2.207v-2.207a2.207,2.207,0,0,0-2.207-2.207H260.808v-1.75a1.1,1.1,0,0,0-1.883-.78Z" transform="translate(-205.089 -133.894)" fill="#f2e6d2"/>
      <path id="Trazado_742138" data-name="Trazado 742138" d="M130.072,372.44l-.494-.495a2.169,2.169,0,0,0-1.534-.635h-3.058a3.313,3.313,0,0,1-2.923-1.757,1.064,1.064,0,0,1,.949-1.552h.1a1.08,1.08,0,0,1,.925.556,1.1,1.1,0,0,0,.952.547h3.058a4.376,4.376,0,0,1,3.094,1.282l.494.494a1.066,1.066,0,0,1,0,1.507l-.053.053A1.066,1.066,0,0,1,130.072,372.44Z" transform="translate(-91.333 -303.455)" fill="#dacfbd"/>
      <path id="Trazado_742139" data-name="Trazado 742139" d="M317.98,372.413h0a1.1,1.1,0,0,1,0-1.56l.78-.78a3.309,3.309,0,0,1,2.34-.969h3.5a1.1,1.1,0,0,0,.952-.547,1.08,1.08,0,0,1,.925-.556h.1a1.064,1.064,0,0,1,.949,1.553,3.313,3.313,0,0,1-2.923,1.757h-3.5a1.1,1.1,0,0,0-.78.323l-.78.78A1.1,1.1,0,0,1,317.98,372.413Z" transform="translate(-260.054 -303.455)" fill="#dacfbd"/>
      <path id="Trazado_742140" data-name="Trazado 742140" d="M292.536,140.633a2.209,2.209,0,0,0,.478.053h24.273a2.207,2.207,0,0,0,2.207-2.207V112A28.686,28.686,0,0,1,292.536,140.633Z" transform="translate(-238.398 -82.761)" fill="#2aa57c"/>
      <path id="Trazado_742141" data-name="Trazado 742141" d="M36.536,140.633a2.209,2.209,0,0,0,.478.053H61.286a2.207,2.207,0,0,0,2.207-2.207V112A28.686,28.686,0,0,1,36.536,140.633Z" transform="translate(-17.704 -82.76)" fill="#d97253"/>
      <path id="Trazado_742142" data-name="Trazado 742142" d="M127.123,107.637l4.38,4.38a2.207,2.207,0,0,1,.1,3.013l-4.43,5.063a1.1,1.1,0,0,1-1.934-.727v-2.58H114.207A2.207,2.207,0,0,1,112,114.58v-2.207a2.207,2.207,0,0,1,2.207-2.207H125.24v-1.75a1.1,1.1,0,0,1,1.883-.78Z" transform="translate(-82.76 -78.72)" fill="#f2e6d2"/>
      <path id="Trazado_742143" data-name="Trazado 742143" d="M79.276,346.207H68.236A3.315,3.315,0,0,0,65.115,344H58.54a5.533,5.533,0,0,0-5.315,4.04l-3.556,12.8-3.556-12.8A5.533,5.533,0,0,0,40.8,344H34.223a3.315,3.315,0,0,0-3.12,2.207H20.063a3.4,3.4,0,0,0-.559,6.756l17.483,2.914a1.1,1.1,0,0,1,.9.849l1.884,8.477,2.154-.479-1.884-8.477a3.3,3.3,0,0,0-2.687-2.547l-17.483-2.914a1.195,1.195,0,0,1,.2-2.373H31.1a3.315,3.315,0,0,0,3.12,2.207h3.5a1.1,1.1,0,0,1,.78.323l1.56,1.56,1.56-1.56-1.56-1.56a3.288,3.288,0,0,0-2.34-.969h-3.5a1.1,1.1,0,0,1,0-2.207H40.8a3.32,3.32,0,0,1,3.189,2.424l4.619,16.627,1.063-.3,1.063.3,4.619-16.627a3.32,3.32,0,0,1,3.189-2.424h6.575a1.1,1.1,0,0,1,0,2.207h-3.5a3.288,3.288,0,0,0-2.34.969l-1.56,1.56,1.56,1.56,1.56-1.56a1.1,1.1,0,0,1,.78-.323h3.5a3.315,3.315,0,0,0,3.12-2.207h11.04a1.195,1.195,0,0,1,.2,2.373L61.989,353.7a3.3,3.3,0,0,0-2.687,2.547l-1.884,8.477,2.154.479,1.884-8.477a1.1,1.1,0,0,1,.9-.849l17.483-2.914a3.4,3.4,0,0,0-.559-6.756Z" transform="translate(-0.57 -282.764)"/>
      <path id="Trazado_742144" data-name="Trazado 742144" d="M299.583,16H275.31A3.314,3.314,0,0,0,272,19.31V32.55h2.207V19.31a1.1,1.1,0,0,1,1.1-1.1h3.31v9.93h8.826v-9.93h12.136a1.1,1.1,0,0,1,1.1,1.1V55.719a1.1,1.1,0,0,1-1.1,1.1H275.31a1.1,1.1,0,0,1-1.1-1.1V53.512H272v2.207a3.314,3.314,0,0,0,3.31,3.31h24.273a3.314,3.314,0,0,0,3.31-3.31V19.31A3.314,3.314,0,0,0,299.583,16ZM285.24,25.93h-4.413V18.207h4.413Z" transform="translate(-220.694 0)"/>
      <path id="Trazado_742145" data-name="Trazado 742145" d="M19.31,59.029H43.583a3.314,3.314,0,0,0,3.31-3.31v-9.93H44.686v9.93a1.1,1.1,0,0,1-1.1,1.1H19.31a1.1,1.1,0,0,1-1.1-1.1V19.31a1.1,1.1,0,0,1,1.1-1.1h3.31v9.93h8.826v-9.93H43.583a1.1,1.1,0,0,1,1.1,1.1v6.62h2.207V19.31A3.314,3.314,0,0,0,43.583,16H19.31A3.314,3.314,0,0,0,16,19.31V55.719A3.314,3.314,0,0,0,19.31,59.029Zm5.517-40.822H29.24V25.93H24.826Z" transform="translate(0 0)"/>
      <path id="Trazado_742146" data-name="Trazado 742146" d="M121.007,99.96a2.207,2.207,0,0,0-3.767,1.56v.646h-9.93a3.314,3.314,0,0,0-3.31,3.31v2.207a3.314,3.314,0,0,0,3.31,3.31h9.93v1.477a2.189,2.189,0,0,0,1.43,2.066,2.228,2.228,0,0,0,.785.144,2.189,2.189,0,0,0,1.652-.756l4.43-5.063a3.318,3.318,0,0,0-.15-4.52l-4.38-4.38Zm2.87,7.447-4.43,5.062v-3.682H107.31a1.1,1.1,0,0,1-1.1-1.1v-2.207a1.1,1.1,0,0,1,1.1-1.1h12.136V101.52l4.379,4.379A1.106,1.106,0,0,1,123.876,107.406Z" transform="translate(-75.864 -71.823)"/>
      <path id="Trazado_742147" data-name="Trazado 742147" d="M253.672,163.474a2.2,2.2,0,0,0-2.4.478l-4.38,4.38a3.318,3.318,0,0,0-.151,4.52l4.43,5.063a2.189,2.189,0,0,0,1.652.756,2.228,2.228,0,0,0,.785-.144,2.189,2.189,0,0,0,1.43-2.066v-1.477h9.93a3.314,3.314,0,0,0,3.31-3.31v-2.207a3.314,3.314,0,0,0-3.31-3.31h-9.93v-.646A2.2,2.2,0,0,0,253.672,163.474Zm-.837,2.032-.011,0Zm12.129,2.86a1.1,1.1,0,0,1,1.1,1.1v2.207a1.1,1.1,0,0,1-1.1,1.1H252.827v3.682L248.4,171.4a1.106,1.106,0,0,1,.05-1.507l4.38-4.38v2.853Z" transform="translate(-198.212 -126.99)"/>
    </g>
  </g>
</svg>
