<svg xmlns="http://www.w3.org/2000/svg" xmlns:xlink="http://www.w3.org/1999/xlink" width="506" height="267.025" viewBox="0 0 506 267.025">
  <defs>
    <clipPath id="clip-path">
      <rect id="Rectángulo_345664" data-name="Rectángulo 345664" width="505" height="267.025" fill="none"/>
    </clipPath>
    <clipPath id="clip-path-2">
      <rect id="Rectángulo_345658" data-name="Rectángulo 345658" width="188.977" height="188.977" fill="none"/>
    </clipPath>
    <clipPath id="clip-path-3">
      <rect id="Rectángulo_345661" data-name="Rectángulo 345661" width="152.247" height="39.45" fill="none"/>
    </clipPath>
    <clipPath id="clip-path-4">
      <rect id="Rectángulo_345663" data-name="Rectángulo 345663" width="107.472" height="30.761" fill="none"/>
    </clipPath>
  </defs>
  <g id="Grupo_988416" data-name="Grupo 988416" transform="translate(-915 -991.487)">
    <rect id="AdobeStock_31320034" width="505" height="84" rx="12" transform="translate(915 1147)" fill="#fee7dd"/>
    <g id="Grupo_988404" data-name="Grupo 988404" transform="translate(915 989.487)">
      <g id="Grupo_988415" data-name="Grupo 988415" transform="translate(1 2)">
        <g id="Grupo_988414" data-name="Grupo 988414" transform="translate(0 0)">
          <g id="Grupo_988413" data-name="Grupo 988413" clip-path="url(#clip-path)">
            <path id="Trazado_741335" data-name="Trazado 741335" d="M1219.406,156.384h4.916a45.365,45.365,0,0,1,1.865-6.976l-4.254-2.456,8.318-14.407,4.264,2.462a46,46,0,0,1,5.1-5.1l-2.462-4.264,14.407-8.318,2.457,4.254A45.4,45.4,0,0,1,1261,119.71v-4.916h16.636v4.916a45.384,45.384,0,0,1,6.975,1.866l2.456-4.254,14.408,8.318-2.462,4.264a46.063,46.063,0,0,1,5.1,5.1l4.264-2.462,8.318,14.407-4.253,2.456a45.49,45.49,0,0,1,1.865,6.976h4.916v16.636h-4.916a45.487,45.487,0,0,1-1.865,6.976l4.253,2.456-8.318,14.407-4.264-2.462a46.1,46.1,0,0,1-5.1,5.1l2.462,4.264-14.407,8.318h0l-2.456-4.254a45.392,45.392,0,0,1-6.975,1.866v4.916H1261V209.7a45.41,45.41,0,0,1-6.976-1.866l-2.456,4.254h0l-14.407-8.318,2.462-4.264a46.036,46.036,0,0,1-5.1-5.1l-4.264,2.462-8.318-14.407,4.254-2.456a45.362,45.362,0,0,1-1.865-6.976h-4.916Zm22.354,9.22a27.569,27.569,0,1,0,28.457-28.456A27.668,27.668,0,0,0,1241.76,165.6" transform="translate(-1011.922 -96.183)" fill="#0ce6ea"/>
            <path id="Trazado_741336" data-name="Trazado 741336" d="M1336.734,272.021a36.64,36.64,0,0,0,5.487-72.866.245.245,0,1,0-.073.485,36.149,36.149,0,1,1-40.4,44.852.245.245,0,1,0-.475.123,36.628,36.628,0,0,0,35.464,27.405" transform="translate(-1079.343 -166.864)" fill="#f2e6dc"/>
            <path id="Trazado_741337" data-name="Trazado 741337" d="M2796.9,800.745l-18.917,2.395,13.407,13.559-3.568,18.732,17.039-8.561,16.713,9.183-2.877-18.851,13.9-13.057-18.818-3.089L2805.65,783.8Z" transform="translate(-2777.979 -656.727)" fill="#ff6e33"/>
            <path id="Trazado_741338" data-name="Trazado 741338" d="M1637.77,203.283A101.666,101.666,0,0,0,1677.333,7.991a101.666,101.666,0,0,0-79.125,187.3,101,101,0,0,0,39.562,7.987m0-202.788a101.149,101.149,0,1,1-101.149,101.149A101.264,101.264,0,0,1,1637.77.495" transform="translate(-1483.458 -0.004)" fill="#fad1d9"/>
            <g id="Grupo_988406" data-name="Grupo 988406" transform="translate(59.822 7.151)" opacity="0.5">
              <g id="Grupo_988405" data-name="Grupo 988405">
                <g id="Grupo_988404-2" data-name="Grupo 988404" clip-path="url(#clip-path-2)">
                  <path id="Trazado_741339" data-name="Trazado 741339" d="M1580.236,138.6a94.488,94.488,0,1,0,94.488-94.489,94.488,94.488,0,0,0-94.488,94.489" transform="translate(-1580.235 -44.109)" fill="#1448d3"/>
                </g>
              </g>
            </g>
            <path id="Trazado_741340" data-name="Trazado 741340" d="M1731.469,805.793l83.855,15.387a94.512,94.512,0,0,1-166.861-.013Z" transform="translate(-1577.587 -675.152)" fill="#efbc73"/>
            <rect id="Rectángulo_345659" data-name="Rectángulo 345659" width="59.876" height="46.761" transform="translate(182.133 91.351) rotate(-174.12)" fill="#363e44"/>
            <path id="Trazado_741341" data-name="Trazado 741341" d="M2071.095,696.492h0c-10.008-1.033-17.866-10.635-18.3-22.364l-1.36-36.456,39.652-1.494,1.336,36.5c.508,13.893-9.474,25.041-21.326,23.818" transform="translate(-1920.033 -533.035)" fill="#bc8271"/>
            <path id="Trazado_741342" data-name="Trazado 741342" d="M2043.146,354.876c-.926,16.559-11,42.284-32.371,41.089s-28.518-27.881-27.594-44.439,15.195-24.883,31.753-23.958,29.136,10.749,28.212,27.308" transform="translate(-1859.71 -274.402)" fill="#bc8271"/>
            <path id="Trazado_741343" data-name="Trazado 741343" d="M2325.528,472.148c2.486,6.573.951,13.245-3.432,14.9s-9.948-2.326-12.435-8.9-.951-13.245,3.431-14.9,9.948,2.327,12.436,8.9" transform="translate(-2195.987 -387.829)" fill="#bc8271"/>
            <path id="Trazado_741344" data-name="Trazado 741344" d="M1923.156,494.366c-3.2,6.255-2.421,13.057,1.75,15.193s10.147-1.2,13.351-7.459,2.419-13.056-1.75-15.192-10.148,1.2-13.351,7.458" transform="translate(-1746.706 -407.427)" fill="#bc8271"/>
            <path id="Trazado_741345" data-name="Trazado 741345" d="M1947.09,532.034a.244.244,0,0,0,.119-.031,9.04,9.04,0,0,0,3.494-3.8c1.783-3.48,1.313-7.294-1.047-8.5a3.363,3.363,0,0,0-.755-.278.245.245,0,1,0-.114.477,2.891,2.891,0,0,1,.645.237c2.119,1.085,2.494,4.6.834,7.843a8.557,8.557,0,0,1-3.3,3.6.245.245,0,0,0,.12.46" transform="translate(-1762.424 -435.202)" fill="#363e44"/>
            <path id="Trazado_741346" data-name="Trazado 741346" d="M2373.468,509.328a.245.245,0,0,0,.142-.445,8.564,8.564,0,0,1-2.876-3.942c-1.287-3.4-.522-6.858,1.7-7.7a2.86,2.86,0,0,1,.667-.164.245.245,0,0,0-.06-.487,3.354,3.354,0,0,0-.781.192c-2.48.938-3.372,4.677-1.989,8.333a9.048,9.048,0,0,0,3.051,4.167.242.242,0,0,0,.142.046" transform="translate(-2252.895 -416.078)" fill="#363e44"/>
            <path id="Trazado_741347" data-name="Trazado 741347" d="M1983.864,528.945a.246.246,0,0,0,.23-.162,62.852,62.852,0,0,0,3.323-13.9.245.245,0,1,0-.487-.058,62.438,62.438,0,0,1-3.3,13.793.244.244,0,0,0,.146.314.237.237,0,0,0,.084.015" transform="translate(-1804.02 -431.175)" fill="#363e44"/>
            <path id="Trazado_741348" data-name="Trazado 741348" d="M2341.319,503.8a.242.242,0,0,0,.065-.009.245.245,0,0,0,.173-.3,62.374,62.374,0,0,1-2.143-16.9.245.245,0,0,0-.24-.25h-.005a.246.246,0,0,0-.246.241,62.824,62.824,0,0,0,2.16,17.041.245.245,0,0,0,.236.181" transform="translate(-2215.77 -407.485)" fill="#363e44"/>
            <path id="Trazado_741349" data-name="Trazado 741349" d="M2079.99,693.441c7.607,0,13.977-4.673,18.74-8.83a.246.246,0,1,0-.323-.37c-4.958,4.327-11.674,9.221-19.671,8.665-7.977-.556-13.891-6-18.625-11.252a.245.245,0,1,0-.364.329c4.518,5.013,10.756,10.841,18.955,11.412.433.03.864.045,1.289.045" transform="translate(-1927.745 -571.072)" fill="#363e44"/>
            <path id="Trazado_741350" data-name="Trazado 741350" d="M2154.893,555.074a.243.243,0,0,0,.1-.023c1.512-.705,2.384-1.565,2.593-2.556a3.371,3.371,0,0,0-.584-2.327,9.428,9.428,0,0,1-.854-2.061,8.025,8.025,0,0,1,.018-3.955.245.245,0,0,0-.477-.116,8.5,8.5,0,0,0-.016,4.2,9.854,9.854,0,0,0,.893,2.163,2.927,2.927,0,0,1,.541,2c-.177.832-.957,1.577-2.321,2.213a.245.245,0,0,0,.1.468" transform="translate(-2001.966 -455.675)" fill="#363e44"/>
            <path id="Trazado_741351" data-name="Trazado 741351" d="M2186.612,625.87c.073,0,.147,0,.221-.006a.245.245,0,1,0-.025-.49,4.98,4.98,0,0,1-4.076-2.009,4.446,4.446,0,0,1-.919-2.6.246.246,0,0,0-.246-.243h0a.244.244,0,0,0-.242.248,4.93,4.93,0,0,0,1.018,2.887,5.515,5.515,0,0,0,4.271,2.21" transform="translate(-2035.72 -519.921)" fill="#363e44"/>
            <path id="Trazado_741352" data-name="Trazado 741352" d="M1929.974,263.923a8.843,8.843,0,1,0,5.117-11.411,8.843,8.843,0,0,0-5.117,11.411" transform="translate(-1754.892 -211.087)" fill="#363e44"/>
            <path id="Trazado_741353" data-name="Trazado 741353" d="M2252.089,238.459a10.8,10.8,0,1,0,6.249-13.931,10.8,10.8,0,0,0-6.249,13.931" transform="translate(-2132.99 -187.531)" fill="#363e44"/>
            <path id="Trazado_741354" data-name="Trazado 741354" d="M1946.3,186.8a10.8,10.8,0,1,0,6.247-13.931A10.8,10.8,0,0,0,1946.3,186.8" transform="translate(-1777.628 -144.247)" fill="#363e44"/>
            <path id="Trazado_741355" data-name="Trazado 741355" d="M2223.047,192.679a6.806,6.806,0,1,0,3.939-8.782,6.8,6.8,0,0,0-3.939,8.782" transform="translate(-2091.562 -153.707)" fill="#363e44"/>
            <path id="Trazado_741356" data-name="Trazado 741356" d="M2115.126,179.86a10.8,10.8,0,1,0,6.249-13.932,10.8,10.8,0,0,0-6.249,13.932" transform="translate(-1973.823 -138.432)" fill="#363e44"/>
            <path id="Trazado_741357" data-name="Trazado 741357" d="M2070.056,277.442a10.8,10.8,0,1,0,6.249-13.931,10.8,10.8,0,0,0-6.249,13.931" transform="translate(-1921.446 -220.194)" fill="#363e44"/>
            <path id="Trazado_741358" data-name="Trazado 741358" d="M2026.759,152.148a10.8,10.8,0,1,0,6.249-13.931,10.8,10.8,0,0,0-6.249,13.931" transform="translate(-1871.127 -115.214)" fill="#363e44"/>
            <path id="Trazado_741359" data-name="Trazado 741359" d="M2018.795,347.878a6.806,6.806,0,1,0,3.939-8.782,6.806,6.806,0,0,0-3.939,8.782" transform="translate(-1854.194 -283.744)" fill="#363e44"/>
            <path id="Trazado_741360" data-name="Trazado 741360" d="M2209.2,478.82h0l.08,0c.03.171.126.394.3.4a5.079,5.079,0,0,1,.379.961c.219.5.983.131.765-.371-.147-.338.954.373,1.443.607,1.56.744,3.149,1.418,4.76,2.042.751.292,1.5.589,2.265.854a20.173,20.173,0,0,0,2.787.938,21.11,21.11,0,0,1,2.963,3.991,21.687,21.687,0,0,1-7.017,1c-.008-.053-.015-.105-.021-.159-.048-.529-8.85-3.348-9.124-2.969a21.663,21.663,0,0,1-5.524-6.3,21.541,21.541,0,0,1,5.941-1" transform="translate(-2077.15 -401.19)" fill="#fff"/>
            <path id="Trazado_741361" data-name="Trazado 741361" d="M2229.266,479.82a17.325,17.325,0,0,1,6.252,4.4,7.03,7.03,0,0,1-2.739,4.3,7.134,7.134,0,0,1-1.192.7,16.24,16.24,0,0,1-5.568-1.038,15.434,15.434,0,0,1-3.638-2.052,7.059,7.059,0,0,1,.438-7.342,16.693,16.693,0,0,1,6.448,1.033" transform="translate(-2090.694 -401.157)" fill="#363e44"/>
            <path id="Trazado_741362" data-name="Trazado 741362" d="M2011.34,503.758v0l-.08-.015c-.056.164-.185.369-.362.35a5.1,5.1,0,0,0-.523.891c-.3.462-.993-.024-.7-.485.2-.311-1,.22-1.52.374-1.657.492-3.331.91-5.019,1.276-.788.171-1.577.347-2.371.49a20.12,20.12,0,0,1-2.9.493,21.105,21.105,0,0,0-3.548,3.48,21.7,21.7,0,0,0,6.775,2.083c.016-.051.032-.1.045-.154.132-.515,9.265-1.927,9.476-1.51a21.673,21.673,0,0,0,6.437-5.36,21.545,21.545,0,0,0-5.71-1.914" transform="translate(-1835.386 -422.074)" fill="#fff"/>
            <path id="Trazado_741363" data-name="Trazado 741363" d="M2032.538,502.13a17.32,17.32,0,0,0-6.861,3.369,7.021,7.021,0,0,0,2.036,4.672,7.114,7.114,0,0,0,1.068.881,16.233,16.233,0,0,0,5.662-.158,15.419,15.419,0,0,0,3.913-1.46,7.056,7.056,0,0,0,.711-7.32,16.685,16.685,0,0,0-6.529.016" transform="translate(-1863.193 -420.443)" fill="#363e44"/>
            <path id="Trazado_741364" data-name="Trazado 741364" d="M2629.008,250.615l-22.36,2.83,15.847,16.026-4.218,22.14,20.138-10.119,19.755,10.853-3.4-22.28,16.426-15.432-22.241-3.651-9.6-20.391Z" transform="translate(-2588.805 -193.206)" fill="#ff6e33"/>
            <path id="Trazado_741365" data-name="Trazado 741365" d="M2431.173,15.335l-14.451,1.829,10.242,10.359-2.728,14.311,13.019-6.541,12.766,7.015-2.2-14.4,10.617-9.975-14.375-2.36-6.205-13.18Z" transform="translate(-2345.26 -2.005)" fill="#ff6e33"/>
            <path id="Trazado_741366" data-name="Trazado 741366" d="M47.126,711.929h61.015L225.158,702.5l19.32,9.432h20.73V530.993h-37.46A180.622,180.622,0,0,0,47.126,711.615Z" transform="translate(232.152 -444.904)" fill="#0ce6ea"/>
            <g id="Grupo_988409" data-name="Grupo 988409" transform="translate(230.348 218.779)" opacity="0.5">
              <g id="Grupo_988408" data-name="Grupo 988408" transform="translate(0)">
                <g id="Grupo_988407" data-name="Grupo 988407" clip-path="url(#clip-path-3)">
                  <rect id="Rectángulo_345660" data-name="Rectángulo 345660" width="152.247" height="39.45" transform="translate(0 0)" fill="#fad1d9"/>
                </g>
              </g>
            </g>
            <path id="Trazado_741367" data-name="Trazado 741367" d="M809.575,1363.871h152.57V1324.1H809.575Zm152.246-.325H809.9V1324.42H961.821Z" transform="translate(-588.401 -1109.424)" fill="#d3bba3"/>
            <path id="Trazado_741368" data-name="Trazado 741368" d="M1194.682,1422.017h45.023a.162.162,0,1,0,0-.324h-45.023a.162.162,0,1,0,0,.324" transform="translate(-928.532 -1191.197)" fill="#d3bba3"/>
            <path id="Trazado_741369" data-name="Trazado 741369" d="M974.966,1422.017h25.8a.162.162,0,0,0,0-.324h-25.8a.162.162,0,0,0,0,.324" transform="translate(-653.974 -1191.197)" fill="#d3bba3"/>
            <path id="Trazado_741370" data-name="Trazado 741370" d="M1332.809,1470.409h22.63a.162.162,0,1,0,0-.324h-22.63a.162.162,0,1,0,0,.324" transform="translate(-1066.659 -1231.743)" fill="#d3bba3"/>
            <path id="Trazado_741371" data-name="Trazado 741371" d="M974.966,1470.409h48.2a.162.162,0,0,0,0-.324h-48.2a.162.162,0,0,0,0,.324" transform="translate(-676.368 -1231.743)" fill="#d3bba3"/>
            <path id="Trazado_741372" data-name="Trazado 741372" d="M974.966,1518.8h65.917a.162.162,0,0,0,0-.324H974.966a.162.162,0,0,0,0,.324" transform="translate(-694.088 -1272.29)" fill="#d3bba3"/>
            <path id="Trazado_741373" data-name="Trazado 741373" d="M205.429,1281.634l-30.442,59.236H311.324l-3.688-42.394Z" transform="translate(165.306 -1073.845)" fill="#fff"/>
            <path id="Trazado_741374" data-name="Trazado 741374" d="M676.768,559.722s-14.031-19.279-39.374,6.415-37.532,68.181-37.532,68.181l38.577,14.839Z" transform="translate(-269.022 -463.159)" fill="#fff"/>
            <path id="Trazado_741375" data-name="Trazado 741375" d="M200.532,601.96c-16.143-7.414-42.721-17.725-71.822-21.24L73.112,712.8l111.4,19.959,11.921-22.973,5.865,26.16,11.317,3.851,3.023-112.677a27.679,27.679,0,0,0-16.11-25.16" transform="translate(276.504 -486.57)" fill="#1448d3"/>
            <path id="Trazado_741376" data-name="Trazado 741376" d="M278.893,620.472s-23.311-12.167-47.249-15.4l-1.614,45.463Z" transform="translate(188.812 -506.977)" fill="#fad1d9"/>
            <path id="Trazado_741377" data-name="Trazado 741377" d="M819.341,893.161H879.4l-27.157-82.127H792.184Z" transform="translate(-502.834 -679.543)" fill="#363e44"/>
            <path id="Trazado_741378" data-name="Trazado 741378" d="M1178.679,1114.025c-4.271,1.205-5.469,3.37-4.955,5.479s2.544,3.362,6.816,2.157,9.166-4.415,8.652-6.523-6.241-2.319-10.513-1.113" transform="translate(-874.506 -932.793)" fill="#e2a18d"/>
            <path id="Trazado_741379" data-name="Trazado 741379" d="M1174.327,1066.816c-4.951,1.4-6.339,3.907-5.742,6.35s2.949,3.9,7.9,2.5,10.624-5.116,10.028-7.561-7.235-2.687-12.186-1.29" transform="translate(-870.995 -893.141)" fill="#e2a18d"/>
            <path id="Trazado_741380" data-name="Trazado 741380" d="M1210.411,999.131c-4.272,1.205-6.3-.048-6.816-2.157s.684-4.273,4.955-5.479,10-.995,10.514,1.113-4.381,5.317-8.653,6.523" transform="translate(-909.219 -830.13)" fill="#e2a18d"/>
            <path id="Trazado_741381" data-name="Trazado 741381" d="M1186.253,1035.6c-4.951,1.4-7.3-.056-7.9-2.5s.791-4.953,5.742-6.35,11.589-1.153,12.185,1.291-5.077,6.162-10.027,7.56" transform="translate(-882.347 -859.568)" fill="#e2a18d"/>
            <path id="Trazado_741382" data-name="Trazado 741382" d="M18.785,764.282s2.453-7.072,10.188.189,22.99,24.5,33.211,22.176,29.522-61.873,61.337-46.307,6.6,65.272-7.69,81.885S77.856,854.208,51.18,851.17,3.662,800.6.761,794.653c-5.212-10.686,18.023-30.371,18.023-30.371" transform="translate(366.117 -618.139)" fill="#fff"/>
            <path id="Trazado_741383" data-name="Trazado 741383" d="M323.737,1364.751a62.825,62.825,0,0,0,14.311-1.672,73.654,73.654,0,0,0,18.986-7.447.162.162,0,0,0-.158-.284c-12.924,7.191-26.725,10.2-39.915,8.695-7.67-.874-15.588-5.563-23.533-13.938a.162.162,0,0,0-.236.223c8,8.431,15.983,13.154,23.731,14.036a60.031,60.031,0,0,0,6.813.386" transform="translate(100.355 -1131.174)" fill="#e6d0be"/>
            <path id="Trazado_741384" data-name="Trazado 741384" d="M786.778,729.612s-17.994-29.755-30.148-25.725,3.746,5.176,2.979,9.431c0,0-7.82,1.741-6.139,6.5,0,0-3.6,2.938-3.36,5.293,0,0-7.711,6.266-3.89,9.441,3.256,2.7,4.578-2.763,8.109-2.129s4.792,14.817,11.933,15.257l4.76,10.7s16.95-18.876,15.757-28.775" transform="translate(-402.648 -589.453)" fill="#e2a18d"/>
            <path id="Trazado_741385" data-name="Trazado 741385" d="M930.328,833.015a.162.162,0,0,0,.114-.277c-1.785-1.775-5.489-.854-5.646-.814a.162.162,0,0,0,.08.314c.037-.009,3.683-.915,5.336.73a.163.163,0,0,0,.115.047" transform="translate(-575.405 -696.816)" fill="#363e44"/>
            <path id="Trazado_741386" data-name="Trazado 741386" d="M911.13,799.135a.162.162,0,0,0,.105-.286c-.082-.069-2.048-1.681-5.252-.335a.162.162,0,1,0,.125.3,4.869,4.869,0,0,1,4.918.284.162.162,0,0,0,.1.038" transform="translate(-553.161 -668.605)" fill="#363e44"/>
            <path id="Trazado_741387" data-name="Trazado 741387" d="M743.421,840.609l4.959,7.746s-8.035,20.306-19.03,27.128l-4.012-7.995s12.552-18.327,18.083-26.879" transform="translate(-360.978 -704.323)" fill="#fad1d9"/>
            <path id="Trazado_741388" data-name="Trazado 741388" d="M748.781,956.333a.155.155,0,0,0,.06-.012c4.814-1.919,8.4-6.491,10.568-9.989a43.107,43.107,0,0,0,3.574-7.191.162.162,0,1,0-.305-.109c-.048.134-4.892,13.374-13.956,16.988a.162.162,0,0,0,.06.313" transform="translate(-379.364 -786.699)" fill="#e6d0be"/>
            <path id="Trazado_741389" data-name="Trazado 741389" d="M412.2,1062.481a3.076,3.076,0,0,0,.743-.089,2.17,2.17,0,0,0,1.439-1.065c.7-1.3-.15-2.839-.719-3.642a13.319,13.319,0,0,0-5.936-4.645.162.162,0,0,0-.118.3,12.994,12.994,0,0,1,5.79,4.531c.525.741,1.315,2.156.7,3.3a1.871,1.871,0,0,1-1.232.9,2.978,2.978,0,0,1-2.3-.4,7.758,7.758,0,0,1-2.381-3.38.162.162,0,1,0-.294.136,8.008,8.008,0,0,0,2.5,3.515,3.322,3.322,0,0,0,1.811.533" transform="translate(24.283 -882.304)" fill="#e6d0be"/>
            <path id="Trazado_741390" data-name="Trazado 741390" d="M476.37,1071.215a.162.162,0,0,0,.149-.1l3.048-7.145a.162.162,0,1,0-.3-.127l-3.047,7.145a.162.162,0,0,0,.085.213.168.168,0,0,0,.064.014" transform="translate(-51.786 -891.282)" fill="#e6d0be"/>
            <path id="Trazado_741391" data-name="Trazado 741391" d="M746.224,880.076a1.7,1.7,0,1,0-1.7-1.7,1.7,1.7,0,0,0,1.7,1.7m0-3.068a1.372,1.372,0,1,1-1.372,1.372,1.374,1.374,0,0,1,1.372-1.372" transform="translate(-363.629 -734.548)" fill="#e6d0be"/>
            <path id="Trazado_741392" data-name="Trazado 741392" d="M849.649,1018.372a.164.164,0,0,0,.072-.017.162.162,0,0,0,.072-.218l-2.549-5.079a.162.162,0,1,0-.29.145l2.549,5.08a.162.162,0,0,0,.145.089" transform="translate(-482.124 -848.738)" fill="#e6d0be"/>
            <path id="Trazado_741393" data-name="Trazado 741393" d="M308.147,680.7a3.189,3.189,0,0,0,1.731-.567,6.037,6.037,0,0,0,2.42-5.921,2.589,2.589,0,0,0-4.216-1.723,5.668,5.668,0,0,0-2.058,2.613c-.95,2.325-.4,4.758,1.233,5.424a2.343,2.343,0,0,0,.89.173m-.829-.323h0Zm2.5-8.129a2.023,2.023,0,0,1,.767.148,2.492,2.492,0,0,1,1.4,1.887,5.716,5.716,0,0,1-2.28,5.579,2.492,2.492,0,0,1-2.321.366c-1.464-.6-1.938-2.842-1.055-5a5.346,5.346,0,0,1,1.935-2.465,2.869,2.869,0,0,1,1.554-.513" transform="translate(143.056 -562.985)" fill="#e0aa63"/>
            <path id="Trazado_741394" data-name="Trazado 741394" d="M325.182,713.011a5.6,5.6,0,0,0,3.252-1.165,5.671,5.671,0,0,0,2.025-2.64,2.59,2.59,0,0,0-2.71-3.66,6.037,6.037,0,0,0-5.14,3.806,2.572,2.572,0,0,0,2.574,3.658m2.707-7.142a2.442,2.442,0,0,1,2.044.894,2.49,2.49,0,0,1,.219,2.34,5.343,5.343,0,0,1-1.911,2.484c-1.875,1.388-4.166,1.483-5.107.212a2.49,2.49,0,0,1-.219-2.34,5.715,5.715,0,0,1,4.844-3.587l.129,0" transform="translate(122.067 -591.156)" fill="#e0aa63"/>
            <path id="Trazado_741395" data-name="Trazado 741395" d="M360.86,733.724a6.288,6.288,0,0,0,1.591-.21c2.429-.638,4.041-2.542,3.594-4.245a2.8,2.8,0,0,0-1.89-1.858,5.669,5.669,0,0,0-3.326-.074c-2.429.638-4.041,2.542-3.594,4.245.348,1.324,1.838,2.142,3.625,2.142m1.574-6.275a4.742,4.742,0,0,1,1.611.267,2.488,2.488,0,0,1,1.687,1.635c.4,1.53-1.107,3.257-3.363,3.849s-4.418-.17-4.82-1.7,1.107-3.258,3.363-3.849a6,6,0,0,1,1.522-.2m-5.042,4.092h0Z" transform="translate(80.974 -609.237)" fill="#e0aa63"/>
            <path id="Trazado_741396" data-name="Trazado 741396" d="M403.247,731.722a5.119,5.119,0,0,0,1.823-.318,2.8,2.8,0,0,0,1.856-1.892c.416-1.711-1.231-3.586-3.671-4.179a5.667,5.667,0,0,0-3.324.135,2.8,2.8,0,0,0-1.856,1.892c-.416,1.711,1.231,3.586,3.671,4.179a6.376,6.376,0,0,0,1.5.184m-1.492-6.25a6.049,6.049,0,0,1,1.424.175c2.267.551,3.806,2.25,3.433,3.788a2.491,2.491,0,0,1-1.657,1.666,5.343,5.343,0,0,1-3.131.123c-2.266-.551-3.806-2.25-3.432-3.788a2.49,2.49,0,0,1,1.657-1.665,4.787,4.787,0,0,1,1.707-.3" transform="translate(33.481 -607.582)" fill="#e0aa63"/>
            <path id="Trazado_741397" data-name="Trazado 741397" d="M443.754,713.72a2.583,2.583,0,0,0,2.578-3.709,5.668,5.668,0,0,0-2.073-2.6c-2.045-1.457-4.541-1.476-5.562-.042s-.19,3.786,1.856,5.244a5.67,5.67,0,0,0,3.136,1.109h.064m-2.695-7.1a5.709,5.709,0,0,1,4.968,3.5,2.269,2.269,0,0,1-2.333,3.274,5.341,5.341,0,0,1-2.953-1.049c-1.9-1.354-2.7-3.5-1.78-4.791a2.479,2.479,0,0,1,2.1-.933" transform="translate(-12.612 -591.792)" fill="#e0aa63"/>
            <path id="Trazado_741398" data-name="Trazado 741398" d="M471.869,675.5a2.279,2.279,0,0,0,.651-.094,2.8,2.8,0,0,0,1.8-1.948,6.036,6.036,0,0,0-1.82-6.131,2.589,2.589,0,0,0-4.365,1.3,5.669,5.669,0,0,0,.031,3.327c.624,2.1,2.194,3.551,3.706,3.551m-1.28-8.6a2.753,2.753,0,0,1,1.705.676,5.716,5.716,0,0,1,1.715,5.779,2.49,2.49,0,0,1-1.581,1.738c-1.519.45-3.291-1-3.955-3.239a5.343,5.343,0,0,1-.034-3.134,2.49,2.49,0,0,1,1.581-1.738,2.008,2.008,0,0,1,.568-.082" transform="translate(-45.411 -558.508)" fill="#e0aa63"/>
            <path id="Trazado_741399" data-name="Trazado 741399" d="M476.777,634a2.875,2.875,0,0,0,2.179-1.151,6.036,6.036,0,0,0,.588-6.369,2.8,2.8,0,0,0-2.142-1.56c-1.75-.161-3.368,1.741-3.6,4.241s1.008,4.667,2.761,4.829c.071.006.142.01.213.01m.6-8.757a2.49,2.49,0,0,1,1.89,1.4,5.715,5.715,0,0,1-.554,6,2.49,2.49,0,0,1-2.113,1.026c-1.576-.145-2.683-2.153-2.468-4.476s1.671-4.093,3.246-3.948" transform="translate(-52.003 -523.596)" fill="#e0aa63"/>
            <path id="Trazado_741400" data-name="Trazado 741400" d="M210.452,669.388a.163.163,0,0,0,.087-.025l56.471-35.735a.162.162,0,1,0-.174-.274l-56.214,35.572,1.409-52.241a.162.162,0,0,0-.324-.009l-1.417,52.545a.162.162,0,0,0,.162.166" transform="translate(203.822 -516.565)" fill="#fad1d9"/>
            <path id="Trazado_741401" data-name="Trazado 741401" d="M201.6,330.815s-51.809,24.641-85.1-18.967c0,0,19.462-20.007,35.178-26.4s30.606,2.866,49.919,45.369" transform="translate(284.511 -237.634)" fill="#363e44"/>
            <path id="Trazado_741402" data-name="Trazado 741402" d="M109.052,232.325s4.429-23.48,24.252-15.171c13.943,5.844,4.993,18.965-3.132,20.379-8.379,1.459-21.12-5.208-21.12-5.208" transform="translate(346.737 -180.457)" fill="#363e44"/>
            <path id="Trazado_741403" data-name="Trazado 741403" d="M197.467,230.7l.322-.041c-.015-.116-1.4-11.661,4.143-15.6,2.9-2.063,7.2-1.712,12.777,1.044l.143-.291c-5.695-2.813-10.105-3.155-13.109-1.017-2.985,2.125-3.987,6.344-4.3,9.51a32.219,32.219,0,0,0,.027,6.4" transform="translate(258.161 -178.811)" fill="#363e44"/>
            <path id="Trazado_741404" data-name="Trazado 741404" d="M196.158,427.255h.014a.162.162,0,0,0,.147-.176,55.972,55.972,0,0,0-6.217-21.806,31.852,31.852,0,0,0-4.947-7.071.162.162,0,0,0-.226.232,31.57,31.57,0,0,1,4.9,7.007A55.663,55.663,0,0,1,196,427.107a.162.162,0,0,0,.161.148" transform="translate(278.706 -333.604)" fill="#2d353a"/>
            <path id="Trazado_741405" data-name="Trazado 741405" d="M132.852,282.35A14.064,14.064,0,0,0,141.4,279.6a15.5,15.5,0,0,0,5.423-7.28.162.162,0,0,0-.162-.16h0a.162.162,0,0,0-.16.157,15.451,15.451,0,0,1-6.092,7.57c-3.868,2.453-8.585,2.8-14.022,1.018a.162.162,0,0,0-.1.308,21.193,21.193,0,0,0,6.571,1.139" transform="translate(337.724 -228.035)" fill="#2d353a"/>
            <path id="Trazado_741406" data-name="Trazado 741406" d="M313.157,354.167c3.6,4.605,19.129-.355,19.129-.355l11.986-13.241a14.891,14.891,0,1,0-28.54-8.508s-6.241,17.413-2.574,22.1" transform="translate(109.52 -269.312)" fill="#e2a18d"/>
            <path id="Trazado_741407" data-name="Trazado 741407" d="M341.32,481.621l1.271-33.307,18.026.8-1.27,33.307a9.022,9.022,0,0,1-18.026-.8" transform="translate(89.047 -375.63)" fill="#e2a18d"/>
            <path id="Trazado_741408" data-name="Trazado 741408" d="M494.047,413.212s-5.253,3-5.37,4.171c-.14,1.4,4.079,3.533,4.079,3.533s1.182-7.725,1.291-7.7" transform="translate(-68.275 -346.219)" fill="#e2a18d"/>
            <path id="Trazado_741409" data-name="Trazado 741409" d="M414.819,422.46a12.927,12.927,0,0,0-3.645-4.329c-.516-.377-2.564,4.464-1.9,4.588a12.956,12.956,0,0,0,5.548-.259" transform="translate(23.848 -350.323)" fill="#fff"/>
            <path id="Trazado_741410" data-name="Trazado 741410" d="M436.794,412.938a12.153,12.153,0,0,1-5.356-5.324,12.154,12.154,0,0,1,7.544.351,9.084,9.084,0,0,1,1.705.995,5.082,5.082,0,0,1-1.894,4.588,9.168,9.168,0,0,1-2-.61" transform="translate(-5.671 -341.152)" fill="#363e44"/>
            <path id="Trazado_741411" data-name="Trazado 741411" d="M463.807,473.346a2.231,2.231,0,0,0,.629-.09,2.271,2.271,0,0,0,1.582-1.781.162.162,0,0,0-.32-.055,1.924,1.924,0,0,1-3.362.926.162.162,0,1,0-.246.211,2.265,2.265,0,0,0,1.716.789" transform="translate(-35.932 -394.877)" fill="#363e44"/>
            <path id="Trazado_741412" data-name="Trazado 741412" d="M389.4,524.306h.01a56.273,56.273,0,0,0,11.5-2.272.162.162,0,0,0-.1-.309,55.877,55.877,0,0,1-11.426,2.258.162.162,0,0,0,.01.324" transform="translate(40.871 -437.132)" fill="#363e44"/>
            <path id="Trazado_741413" data-name="Trazado 741413" d="M311.035,334.884c4.252-2.038,5.559-12.062,2.946-18.482-3.368-8.278-13.136-13.165-21.029-12.5-1.94.164-6.374,1.112-7.846,3.878-1.147,2.153,1.038,6.628,4.74,7.914,5.2,1.808,12.5.6,9.8,6.534-8.168,17.97,6.715,14.9,11.387,12.656" transform="translate(143.501 -254.581)" fill="#363e44"/>
            <g id="Grupo_988412" data-name="Grupo 988412" transform="translate(232.821 126.389)" opacity="0.4">
              <g id="Grupo_988411" data-name="Grupo 988411" transform="translate(0)">
                <g id="Grupo_988410" data-name="Grupo 988410" clip-path="url(#clip-path-4)">
                  <rect id="Rectángulo_345662" data-name="Rectángulo 345662" width="107.471" height="30.761" transform="translate(0.001)" fill="#efbc73"/>
                </g>
              </g>
            </g>
            <path id="Trazado_741414" data-name="Trazado 741414" d="M1034.766,789.792h107.8V758.706h-107.8Zm107.471-.324H1035.09V759.03h107.147Z" transform="translate(-805.326 -635.699)" fill="#fad1d9"/>
            <path id="Trazado_741415" data-name="Trazado 741415" d="M1088.63,831.361l-3.92.5,2.778,2.81-.74,3.881,3.531-1.774,3.462,1.9-.6-3.906,2.88-2.705-3.9-.64-1.683-3.575Z" transform="translate(-766.887 -693.633)" fill="#ff6e33"/>
            <path id="Trazado_741416" data-name="Trazado 741416" d="M1189.414,831.361l-3.919.5,2.777,2.81-.739,3.881,3.531-1.774,3.462,1.9-.6-3.906,2.88-2.705-3.9-.64-1.683-3.575Z" transform="translate(-884.012 -693.633)" fill="#ff6e33"/>
            <path id="Trazado_741417" data-name="Trazado 741417" d="M1290.2,831.361l-3.92.5,2.778,2.81-.74,3.881,3.531-1.774,3.463,1.9-.6-3.906,2.879-2.705-3.9-.64-1.683-3.575Z" transform="translate(-1001.137 -693.633)" fill="#fff"/>
            <path id="Trazado_741418" data-name="Trazado 741418" d="M1390.983,831.361l-3.919.5,2.777,2.81-.739,3.881,3.531-1.774,3.462,1.9-.6-3.906,2.879-2.705-3.9-.64-1.684-3.575Z" transform="translate(-1118.26 -693.633)" fill="#fff"/>
            <path id="Trazado_741419" data-name="Trazado 741419" d="M1491.769,831.361l-3.92.5,2.779,2.81-.74,3.881,3.53-1.774,3.463,1.9-.6-3.906,2.879-2.705-3.9-.64-1.683-3.575Z" transform="translate(-1235.386 -693.633)" fill="#fff"/>
          </g>
        </g>
      </g>
    </g>
  </g>
</svg>
