<svg xmlns="http://www.w3.org/2000/svg" width="85" height="92" viewBox="0 0 85 92">
  <g id="Grupo_988473" data-name="Grupo 988473" transform="translate(-285 -6580)">
    <rect id="Rectángulo_338875" data-name="Rectángulo 338875" width="85" height="92" rx="10" transform="translate(285 6580)" fill="#ff6e33"/>
    <g id="entrevista" transform="translate(293 6556.919)">
      <path id="Trazado_741571" data-name="Trazado 741571" d="M302.533,120.618v2.306a1.075,1.075,0,0,1-.594.962l-.481.24h12.907l-.962-.481a2.151,2.151,0,0,1-1.189-1.923V103.694H296.081v8.6A8.6,8.6,0,0,0,302.533,120.618Z" transform="translate(-256.361 -55.079)" fill="#f5b97d"/>
      <circle id="Elipse_5910" data-name="Elipse 5910" cx="6.452" cy="6.452" r="6.452" transform="translate(3.157 41.087)" fill="#ffc269"/>
      <path id="Trazado_741572" data-name="Trazado 741572" d="M62.111,83.458c0-6.533-4.185-11.829-10.718-11.829A11.829,11.829,0,0,0,39.564,83.458c0,5.377,5.3,8.6,11.829,8.6S62.111,88.835,62.111,83.458Z" transform="translate(-34.256 -27.316)" fill="#ffa95f"/>
      <path id="Trazado_741573" data-name="Trazado 741573" d="M47.092,100.635a9.824,9.824,0,0,1-3.912-4.2,11.786,11.786,0,0,0-3.615,8.5c0,5.348,5.241,8.565,11.725,8.6Z" transform="translate(-34.256 -48.794)" fill="#ff8b5a"/>
      <path id="Trazado_741574" data-name="Trazado 741574" d="M40.738,272.032h-8.6a8.6,8.6,0,0,0-8.6,8.6v12.9H46.115V277.409A5.377,5.377,0,0,0,40.738,272.032Z" transform="translate(-20.375 -200.834)" fill="#95d6a4"/>
      <path id="Trazado_741575" data-name="Trazado 741575" d="M32.135,275.259h2.151v-3.226H32.135a8.6,8.6,0,0,0-8.6,8.6v12.9h3.226v-12.9a5.383,5.383,0,0,1,5.377-5.377Z" transform="translate(-20.375 -200.835)" fill="#78c2a4"/>
      <path id="Trazado_741576" data-name="Trazado 741576" d="M91.963,241.63a4.3,4.3,0,0,1-4.3-4.3v-5.377h8.6v5.377A4.3,4.3,0,0,1,91.963,241.63Z" transform="translate(-75.901 -166.131)" fill="#f7d291"/>
      <path id="Trazado_741577" data-name="Trazado 741577" d="M87.661,243.913a10.682,10.682,0,0,0,8.6.924v-4.868h-8.6Z" transform="translate(-75.901 -173.072)" fill="#ecbd83"/>
      <path id="Trazado_741578" data-name="Trazado 741578" d="M99,320.129H79.645v15.055H99a2.151,2.151,0,0,0,2.151-2.151V322.28A2.151,2.151,0,0,0,99,320.129Z" transform="translate(-68.96 -242.479)" fill="#eceaec"/>
      <path id="Trazado_741579" data-name="Trazado 741579" d="M65.764,320.129a2.151,2.151,0,0,0-2.151,2.151v10.754a2.151,2.151,0,0,0,2.151,2.151H85.121a2.151,2.151,0,0,0,2.151-2.151h0v-1.075H70.065a3.226,3.226,0,0,1-3.226-3.226v-8.6Z" transform="translate(-55.079 -242.479)" fill="#dad8db"/>
      <path id="Trazado_741580" data-name="Trazado 741580" d="M67.646,127.742c3.419,2.424,8.3,3.21,10.975,3.464a2.141,2.141,0,0,1,1.929,2.139v3a8.6,8.6,0,0,1-17.206,0v0a9.99,9.99,0,0,1,2.585-6.706Z" transform="translate(-54.846 -75.901)" fill="#ffe1a0"/>
      <circle id="Elipse_5911" data-name="Elipse 5911" cx="2.151" cy="2.151" r="2.151" transform="translate(18.212 83.027)" fill="#fff"/>
      <path id="Trazado_741581" data-name="Trazado 741581" d="M297.615,258.036,293.542,256H280.636l-6.225,3.113a4.3,4.3,0,0,0-2.378,3.847v21h27.96V261.884A4.3,4.3,0,0,0,297.615,258.036Z" transform="translate(-235.539 -186.953)" fill="#c3ddff"/>
      <path id="Trazado_741582" data-name="Trazado 741582" d="M279.559,296.421a5.377,5.377,0,0,0-2.018-4.2l-4.627-3.7a4.292,4.292,0,0,0-.883,2.6v21h7.528v-15.7Z" transform="translate(-235.537 -215.111)" fill="#a4ccff"/>
      <path id="Trazado_741583" data-name="Trazado 741583" d="M347.5,352.194H332.447a4.3,4.3,0,0,0-4.3,4.3l3.226,10.754H351.8V356.5A4.3,4.3,0,0,0,347.5,352.194Z" transform="translate(-284.123 -270.242)" fill="#9b959d"/>
      <path id="Trazado_741584" data-name="Trazado 741584" d="M302.532,120.618V103.694H296.08v8.6A8.6,8.6,0,0,0,302.532,120.618Z" transform="translate(-256.36 -55.079)" fill="#e3aa75"/>
      <path id="Trazado_741585" data-name="Trazado 741585" d="M294.028,55.6h-8.6a5.377,5.377,0,0,0-5.377,5.377,2.151,2.151,0,0,0,2.151,2.151h1.075a3.226,3.226,0,0,1,3.226,3.226v3.226a5.377,5.377,0,0,0,5.377,5.377h5.377a4.3,4.3,0,0,0,4.3-4.3V63.125A7.528,7.528,0,0,0,294.028,55.6Z" transform="translate(-242.479 -13.434)" fill="#9f6e50"/>
      <path id="Trazado_741586" data-name="Trazado 741586" d="M335.673,352.194h-3.226a4.3,4.3,0,0,0-4.3,4.3v10.754h3.226V356.5A4.3,4.3,0,0,1,335.673,352.194Z" transform="translate(-284.123 -270.242)" fill="#857e87"/>
      <path id="Trazado_741587" data-name="Trazado 741587" d="M285.425,55.6a5.377,5.377,0,0,0-5.377,5.377,2.151,2.151,0,0,0,2.151,2.151h1.075a3.226,3.226,0,0,1,3.226,3.226V55.6Z" transform="translate(-242.479 -13.434)" fill="#785353"/>
      <path id="Trazado_741588" data-name="Trazado 741588" d="M66.607,143.752V136.3l-.677.747a9.99,9.99,0,0,0-2.585,6.706v0A8.588,8.588,0,0,0,73.579,152.2,8.6,8.6,0,0,1,66.607,143.752Z" transform="translate(-54.847 -83.308)" fill="#f7d291"/>
      <path id="Trazado_741589" data-name="Trazado 741589" d="M112.044,209.011a1.006,1.006,0,0,0,.505,1.33,6.515,6.515,0,0,0,5.127,0,1.006,1.006,0,0,0-.825-1.835,4.51,4.51,0,0,1-3.476,0A1.006,1.006,0,0,0,112.044,209.011Z" transform="translate(-96.936 -145.753)"/>
      <path id="Trazado_741590" data-name="Trazado 741590" d="M104.947,171.427a1.006,1.006,0,0,0,1.006-1.006v-1.075a1.006,1.006,0,0,0-2.012,0v1.075A1.006,1.006,0,0,0,104.947,171.427Z" transform="translate(-89.997 -111.052)"/>
      <path id="Trazado_741591" data-name="Trazado 741591" d="M153.044,171.427a1.006,1.006,0,0,0,1.006-1.006v-1.075a1.006,1.006,0,0,0-2.012,0v1.075A1.006,1.006,0,0,0,153.044,171.427Z" transform="translate(-131.642 -111.052)"/>
      <path id="Trazado_741592" data-name="Trazado 741592" d="M131.416,352.709a3.157,3.157,0,1,0,3.157,3.157A3.16,3.16,0,0,0,131.416,352.709Zm0,4.3a1.145,1.145,0,1,1,1.145-1.145A1.146,1.146,0,0,1,131.416,357.011Z" transform="translate(-111.053 -270.688)"/>
      <path id="Trazado_741593" data-name="Trazado 741593" d="M65.46,81.371v-6.44a5.279,5.279,0,0,0-2.934-4.747l-5.035-2.518a1.138,1.138,0,0,1-.633-1.023V62.1a5.315,5.315,0,0,0,3.226-4.882V49.69a8.544,8.544,0,0,0-8.534-8.534h-8.6a6.39,6.39,0,0,0-6.383,6.383,3.162,3.162,0,0,0,2.151,2.992v6.687a9.6,9.6,0,0,0,6.452,9.068v1.6L38.422,71.26a5.279,5.279,0,0,0-2.934,4.747V91.7H32.949a3.244,3.244,0,0,0,.249-1.25V79.906a3.266,3.266,0,0,0-3.262-3.262h-3.19v-.069a6.393,6.393,0,0,0-5.377-6.3V69.05A9.635,9.635,0,0,0,26.6,61.885a8.293,8.293,0,0,0,2.259-5.742,13.64,13.64,0,0,0-3.176-9.027A11.212,11.212,0,0,0,17.1,43.307a12.949,12.949,0,0,0-1.339.07A7.458,7.458,0,1,0,4.626,53.121a12.822,12.822,0,0,0-.36,3.022,8.324,8.324,0,0,0,3.582,6.885,9.624,9.624,0,0,0,2.906,4.622v2.595a9.623,9.623,0,0,0-8.6,9.556V91.7H1.006a1.006,1.006,0,0,0,0,2.012H35.488v3.3a1.006,1.006,0,1,0,2.012,0v-21a3.306,3.306,0,0,1,.231-1.214l3.712,3.093a4.359,4.359,0,0,1,1.573,3.358V97.007a1.006,1.006,0,1,0,2.012,0V86.253a3.3,3.3,0,0,1,3.3-3.3H63.378a3.3,3.3,0,0,1,3.3,3.3V97.007a1.006,1.006,0,1,0,2.012,0V86.253A5.315,5.315,0,0,0,65.46,81.371ZM4.127,47.539a5.443,5.443,0,0,1,9.411-3.729A12.9,12.9,0,0,0,5.351,50.98,5.412,5.412,0,0,1,4.127,47.539ZM7.5,59.928a6.252,6.252,0,0,1-1.226-3.785A10.835,10.835,0,0,1,17.1,45.319,9.107,9.107,0,0,1,24.17,48.44a11.634,11.634,0,0,1,2.678,7.7,6.712,6.712,0,0,1-.138,1.363v-.062a3.134,3.134,0,0,0-2.84-3.14c-2.527-.24-7.249-.986-10.489-3.283a1.006,1.006,0,0,0-1.328.145L10.338,53.06A10.975,10.975,0,0,0,7.5,59.928Zm2,.514a8.967,8.967,0,0,1,2.325-6.031l1.137-1.256c3.548,2.181,8.17,2.909,10.714,3.151A1.13,1.13,0,0,1,24.7,57.444v3a7.6,7.6,0,1,1-15.194,0Zm9.853,9.341v.339a3.3,3.3,0,0,1-6.591,0V69.016a9.569,9.569,0,0,0,6.591.767ZM31.186,90.45a1.251,1.251,0,0,1-1.25,1.25H10.79a1.251,1.251,0,0,1-1.25-1.25V85.178a1.006,1.006,0,0,0-2.012,0V90.45a3.244,3.244,0,0,0,.249,1.25H4.163V79.8a7.605,7.605,0,0,1,7.027-7.573,5.306,5.306,0,0,0,9.736.014,4.376,4.376,0,0,1,3.807,4.333v.069H10.79a3.266,3.266,0,0,0-3.262,3.262v.97a1.006,1.006,0,1,0,2.012,0v-.97a1.251,1.251,0,0,1,1.25-1.25H29.937a1.251,1.251,0,0,1,1.25,1.25Zm9.54-33.232V50.7H40.8a2.223,2.223,0,0,1,2.22,2.22v3.226A6.39,6.39,0,0,0,49.4,62.526h1.075a1.006,1.006,0,0,0,0-2.012H49.4a4.376,4.376,0,0,1-4.371-4.371V52.916A4.237,4.237,0,0,0,40.8,48.684H39.72a1.146,1.146,0,0,1-1.145-1.145,4.376,4.376,0,0,1,4.371-4.371h8.6a6.529,6.529,0,0,1,6.522,6.522v7.528a3.3,3.3,0,0,1-3.3,3.3,1.006,1.006,0,0,0,0,2.012l.069,0v4.119a3.159,3.159,0,0,0,.326,1.4H47.179v-2.5a1.006,1.006,0,0,0-.755-.974,7.588,7.588,0,0,1-5.7-7.347ZM63.448,80.947l-.069,0H48.323a5.28,5.28,0,0,0-3.3,1.152v-.853a6.366,6.366,0,0,0-2.3-4.9l-3.721-3.1a3.349,3.349,0,0,1,.312-.18l6.013-3.006H57.766l3.86,1.93a3.277,3.277,0,0,1,1.822,2.947Z" transform="translate(0)"/>
    </g>
  </g>
</svg>
