<svg xmlns="http://www.w3.org/2000/svg" width="85" height="92" viewBox="0 0 85 92">
  <g id="Grupo_988490" data-name="Grupo 988490" transform="translate(-600 -6580)">
    <rect id="Rectángulo_345192" data-name="Rectángulo 345192" width="85" height="92" rx="10" transform="translate(600 6580)" fill="#ff6e33"/>
    <g id="entrevista_1_" data-name="entrevista (1)" transform="translate(612 6595)">
      <g id="Grupo_988488" data-name="Grupo 988488">
        <g id="Grupo_988474" data-name="Grupo 988474">
          <path id="Trazado_741594" data-name="Trazado 741594" d="M39,12V4a2.006,2.006,0,0,1,2-2H59a2.006,2.006,0,0,1,2,2v8a2.006,2.006,0,0,1-2,2H53l-1.55,3.11a1.626,1.626,0,0,1-2.9,0L47,14H41a2.006,2.006,0,0,1-2-2Z" fill="#e6e9ed"/>
        </g>
        <g id="Grupo_988475" data-name="Grupo 988475">
          <path id="Trazado_741595" data-name="Trazado 741595" d="M3,1H21a2.006,2.006,0,0,1,2,2V13a2.006,2.006,0,0,1-2,2H15l-1.55,3.11a1.626,1.626,0,0,1-2.9,0L9,15H3a2.006,2.006,0,0,1-2-2V3A2.006,2.006,0,0,1,3,1Z" fill="#e6e9ed"/>
        </g>
        <g id="Grupo_988476" data-name="Grupo 988476">
          <path id="Trazado_741596" data-name="Trazado 741596" d="M49,55.01v-5a2.993,2.993,0,0,1,.88-2.12A2.952,2.952,0,0,1,52,47.01a2.995,2.995,0,0,1,3,3v7a4,4,0,0,1-4,4H43a2,2,0,0,1-2-2v-2a1.988,1.988,0,0,1,.58-1.41h.01A1.978,1.978,0,0,1,43,55.01Z" fill="#fcd770"/>
        </g>
        <g id="Grupo_988477" data-name="Grupo 988477">
          <path id="Trazado_741597" data-name="Trazado 741597" d="M47.59,48.04l.98-.42a5.271,5.271,0,0,1,.51-.19,7.425,7.425,0,0,1,2.48-.42H52a2.952,2.952,0,0,0-2.12.88A2.993,2.993,0,0,0,49,50.01v5H43a7.6,7.6,0,0,1,4.59-6.97Z" fill="#fcd770"/>
        </g>
        <g id="Grupo_988478" data-name="Grupo 988478">
          <path id="Trazado_741598" data-name="Trazado 741598" d="M47,32.01H36l.16-.31a8.976,8.976,0,0,1,5.32-4.55,12.019,12.019,0,0,0-5.09-1.14H36A10.012,10.012,0,0,1,43.99,22h4.25A12.769,12.769,0,0,1,61,34.76a11.906,11.906,0,0,1-8,11.25v-5l1.41-1.41A2.006,2.006,0,0,0,55,38.18v-.17a1.955,1.955,0,0,0-.59-1.41A2,2,0,0,0,53,36.01a4,4,0,0,0-4-4Z" fill="#b27946"/>
        </g>
        <g id="Grupo_988479" data-name="Grupo 988479">
          <path id="Trazado_741599" data-name="Trazado 741599" d="M38,47v7.43a1.812,1.812,0,0,0-.54.65l-.46.93H36a2.006,2.006,0,0,0-2,2,2.993,2.993,0,0,0,.88,2.12,2.9,2.9,0,0,0,1.97.87H30V47Z" fill="#e6e9ed"/>
        </g>
        <g id="Grupo_988480" data-name="Grupo 988480">
          <path id="Trazado_741600" data-name="Trazado 741600" d="M41,59.01a2,2,0,0,0,2,2H37a.757.757,0,0,1-.15-.01,2.9,2.9,0,0,1-1.97-.87A2.993,2.993,0,0,1,34,58.01a2.006,2.006,0,0,1,2-2h1l.46-.93a1.812,1.812,0,0,1,.54-.65v-.01a1.945,1.945,0,0,1,2.57.16l1.01,1.02A1.988,1.988,0,0,0,41,57.01Z" fill="#f0d0b4"/>
        </g>
        <g id="Grupo_988481" data-name="Grupo 988481">
          <path id="Trazado_741601" data-name="Trazado 741601" d="M41,44.01v-4l-2-2a6.835,6.835,0,0,0,2-4.83V32.01h8a4,4,0,0,1,4,4,2,2,0,0,1,1.41.59A1.955,1.955,0,0,1,55,38.01v.17a2.006,2.006,0,0,1-.59,1.42L53,41.01v6H51.56a7.425,7.425,0,0,0-2.48.42l-3.82.54a3.076,3.076,0,0,1-.53.04A3.722,3.722,0,0,1,41,44.28Z" fill="#f0d0b4"/>
        </g>
        <g id="Grupo_988482" data-name="Grupo 988482">
          <path id="Trazado_741602" data-name="Trazado 741602" d="M24.9,55.64a1.8,1.8,0,0,1-.24.48,2.076,2.076,0,0,0-.66-.11H23l-.47-.93a1.9,1.9,0,0,0-1.32-1.02v-.01l1.89-5.68A1.991,1.991,0,0,1,25,47a1.932,1.932,0,0,1,.63.1,2,2,0,0,1,1.27,2.53Z" fill="#969faa"/>
        </g>
        <g id="Grupo_988483" data-name="Grupo 988483">
          <path id="Trazado_741603" data-name="Trazado 741603" d="M24.66,56.12A2.013,2.013,0,0,1,26,58.01a2.993,2.993,0,0,1-.88,2.12,2.952,2.952,0,0,1-2.12.88H17a2.006,2.006,0,0,0,2-2v-2a1.955,1.955,0,0,0-.59-1.41l1.02-1.02a1.913,1.913,0,0,1,1.37-.57l.41.05a1.9,1.9,0,0,1,1.32,1.02l.47.93h1A2.076,2.076,0,0,1,24.66,56.12Z" fill="#f0d0b4"/>
        </g>
        <g id="Grupo_988484" data-name="Grupo 988484">
          <path id="Trazado_741604" data-name="Trazado 741604" d="M19,44.01v.27a3.722,3.722,0,0,1-3.74,3.73,3.036,3.036,0,0,1-.52-.04l-3.82-.54a7.425,7.425,0,0,0-2.48-.42H7v-6L5.58,39.6A2.039,2.039,0,0,1,5,38.18v-.17a2,2,0,0,1,2-2,4,4,0,0,1,4-4h8v1.17a6.835,6.835,0,0,0,2,4.83l-2,2Z" fill="#f0d0b4"/>
        </g>
        <g id="Grupo_988485" data-name="Grupo 988485">
          <path id="Trazado_741605" data-name="Trazado 741605" d="M11,50.01a2.993,2.993,0,0,0-.88-2.12A2.952,2.952,0,0,0,8,47.01h.44a7.425,7.425,0,0,1,2.48.42,5.271,5.271,0,0,1,.51.19l.97.42A7.593,7.593,0,0,1,17,55.01H11Z" fill="#ff826e"/>
        </g>
        <g id="Grupo_988486" data-name="Grupo 988486">
          <path id="Trazado_741606" data-name="Trazado 741606" d="M11,55.01h6a2,2,0,0,1,1.41.59A1.955,1.955,0,0,1,19,57.01v2a2.006,2.006,0,0,1-2,2H9a4,4,0,0,1-4-4v-7a2.995,2.995,0,0,1,3-3,2.952,2.952,0,0,1,2.12.88A2.993,2.993,0,0,1,11,50.01Z" fill="#ff826e"/>
        </g>
        <g id="Grupo_988487" data-name="Grupo 988487">
          <path id="Trazado_741607" data-name="Trazado 741607" d="M19,32.01H11a4,4,0,0,0-4,4,2,2,0,0,0-2,2v.17a2.039,2.039,0,0,0,.58,1.42L7,41.01v6.17a2.99,2.99,0,0,0-2,2.83V57a9.993,9.993,0,0,1-4-8V32a9,9,0,0,1,9-9h4a7,7,0,0,1,7,7,2.006,2.006,0,0,1-2,2Z" fill="#fcd770"/>
        </g>
      </g>
      <g id="Grupo_988489" data-name="Grupo 988489">
        <path id="Trazado_741608" data-name="Trazado 741608" d="M3,16H8.382l1.276,2.553a2.619,2.619,0,0,0,4.684,0L15.618,16H21a3,3,0,0,0,3-3V3a3,3,0,0,0-3-3H3A3,3,0,0,0,0,3V13A3,3,0,0,0,3,16ZM2,3A1,1,0,0,1,3,2H21a1,1,0,0,1,1,1V13a1,1,0,0,1-1,1H14.382l-1.829,3.658a.64.64,0,0,1-1.1,0L9.618,14H3a1,1,0,0,1-1-1Z"/>
        <path id="Trazado_741609" data-name="Trazado 741609" d="M10.868,4.5,9.132,3.5,5.781,9.367,4.707,8.293,3.293,9.707l2.926,2.926Z"/>
        <path id="Trazado_741610" data-name="Trazado 741610" d="M59,1H41a3,3,0,0,0-3,3v8a3,3,0,0,0,3,3h5.382l1.276,2.553a2.619,2.619,0,0,0,4.684,0L53.618,15H59a3,3,0,0,0,3-3V4A3,3,0,0,0,59,1Zm1,11a1,1,0,0,1-1,1H52.382l-1.829,3.658a.64.64,0,0,1-1.1,0L47.618,13H41a1,1,0,0,1-1-1V4a1,1,0,0,1,1-1H59a1,1,0,0,1,1,1Z"/>
        <path id="Trazado_741611" data-name="Trazado 741611" d="M48.243,21c-2.168,0-3.857,0-4.261,0A11.08,11.08,0,0,0,35.2,25.41a1,1,0,0,0,.8,1.6h.4a10.933,10.933,0,0,1,2.468.284,10,10,0,0,0-3.6,3.956l-.156.312A1,1,0,0,0,36,33.01h4v.171A5.791,5.791,0,0,1,38.294,37.3l-.707.707L40,40.424v3.852a4.728,4.728,0,0,0,4.5,4.71,8.537,8.537,0,0,0-2.435,5.189,2.886,2.886,0,0,0-.346.135l-.44-.44a2.957,2.957,0,0,0-2.077-.86c-.067,0-.131.009-.2.014V46H29V62h7.9c.035,0,.067.01.1.01H51a5.006,5.006,0,0,0,5-5v-7a3.993,3.993,0,0,0-1.865-3.37A12.919,12.919,0,0,0,62,34.76,13.778,13.778,0,0,0,48.243,21ZM42.116,45.01H44a4,4,0,0,0,4-4H46a2,2,0,0,1-2,2H42V39.6l-1.63-1.63A7.773,7.773,0,0,0,42,33.182V33.01h7a3,3,0,0,1,3,3v1h1a1,1,0,0,1,1,1v.171a1,1,0,0,1-.293.708L52,40.6v5.413h-.444a8.533,8.533,0,0,0-2.686.436l-3.748.536a2.757,2.757,0,0,1-3.006-1.972Zm5.872,3.95.194-.083A3.927,3.927,0,0,0,48,50.009v4H44.077A6.574,6.574,0,0,1,47.988,48.96ZM39.86,55.285l.44.44a2.969,2.969,0,0,0-.3,1.286v2a2.966,2.966,0,0,0,.184,1H38V60H36.9A2,2,0,0,1,35,58.01a1,1,0,0,1,1-1h1.618l.741-1.482a.971.971,0,0,1,1.5-.243ZM31,48h6v6a2.941,2.941,0,0,0-.43.633l-.188.376H36a3,3,0,0,0-3,3A3.954,3.954,0,0,0,33.551,60H31Zm23,9.009a3,3,0,0,1-3,3H43a1,1,0,0,1-1-1v-2a1,1,0,0,1,1-1h5.466l1.7,2.555,1.664-1.109L50,54.707v-4.7a2,2,0,0,1,1.985-2h.029a2,2,0,0,1,1.987,2v7ZM54,44.5V41.424L55.121,40.3A2.978,2.978,0,0,0,56,38.182V38.01a3.006,3.006,0,0,0-2.073-2.854,5.008,5.008,0,0,0-4.133-4.075A2.982,2.982,0,0,0,47,27.01H46v2h1a1,1,0,0,1,0,2H37.744a8.01,8.01,0,0,1,3.69-2.758,11.139,11.139,0,0,1,1.011.59l1.109-1.664A12.869,12.869,0,0,0,38.2,25.135,9.07,9.07,0,0,1,43.989,23h4.254A11.775,11.775,0,0,1,60,34.76,10.915,10.915,0,0,1,54,44.5Z"/>
        <circle id="Elipse_5912" data-name="Elipse 5912" cx="1" cy="1" r="1" transform="translate(44 35.01)"/>
        <circle id="Elipse_5913" data-name="Elipse 5913" cx="1" cy="1" r="1" transform="translate(13.999 35.01)"/>
        <path id="Trazado_741612" data-name="Trazado 741612" d="M25.948,46.154a3,3,0,0,0-3.8,1.9l-1.661,4.989a2.948,2.948,0,0,0-1.767.829l-.439.44a2.952,2.952,0,0,0-.346-.135A8.537,8.537,0,0,0,15.5,48.986,4.728,4.728,0,0,0,20,44.276V40.424l2.414-2.414-.707-.707A5.791,5.791,0,0,1,20,33.181v-.365A2.994,2.994,0,0,0,22,30a8.009,8.009,0,0,0-8-8H10A10.011,10.011,0,0,0,0,32V49a11.04,11.04,0,0,0,4.05,8.5A4.989,4.989,0,0,0,9,62.01H23a4,4,0,0,0,4-4,2.981,2.981,0,0,0-1.076-2.282l1.925-5.783a3,3,0,0,0-1.9-3.791ZM15.922,54.01H12v-4a3.97,3.97,0,0,0-.181-1.132l.192.082a6.573,6.573,0,0,1,3.912,5.05ZM18,39.6V43.01H16a2,2,0,0,1-2-2H12a4,4,0,0,0,4,4h1.887a2.73,2.73,0,0,1-2.621,2,2.779,2.779,0,0,1-.388-.027l-3.749-.537a8.525,8.525,0,0,0-2.684-.436H8V40.6L6.291,38.889A1,1,0,0,1,6,38.181V38.01a1,1,0,0,1,1-1H8v-1a3,3,0,0,1,3-3h7v.171a7.773,7.773,0,0,0,1.63,4.784ZM2,49V32a8.009,8.009,0,0,1,8-8h4a6.006,6.006,0,0,1,6,6,1,1,0,0,1-1,1H16v.01H11a5.008,5.008,0,0,0-4.927,4.146A3.005,3.005,0,0,0,4,38.01v.171A2.986,2.986,0,0,0,4.877,40.3L6,41.424v5.142a3.985,3.985,0,0,0-2,3.442v4.633A9.037,9.037,0,0,1,2,49Zm4,8.009v-7a2,2,0,0,1,1.986-2h.029a2,2,0,0,1,1.984,2v4.7l-1.83,2.748,1.664,1.108,1.7-2.554H17a1,1,0,0,1,1,1v2a1,1,0,0,1-1,1H9a3,3,0,0,1-3-3Zm17,3H19.816a2.966,2.966,0,0,0,.184-1v-2a2.969,2.969,0,0,0-.3-1.286l.439-.439a.971.971,0,0,1,1.5.243l.74,1.482H24a1,1,0,0,1,1,1A2,2,0,0,1,23,60.01Zm2.951-10.695-1.9,5.7c-.018,0-.035-.005-.053-.005h-.382l-.188-.376a2.925,2.925,0,0,0-.987-1.119l1.609-4.832a1,1,0,0,1,1.9.631Z"/>
        <path id="Trazado_741613" data-name="Trazado 741613" d="M13,4h7V6H13Z"/>
        <path id="Trazado_741614" data-name="Trazado 741614" d="M13,8h7v2H13Z"/>
        <path id="Trazado_741615" data-name="Trazado 741615" d="M42,5H58V7H42Z"/>
        <path id="Trazado_741616" data-name="Trazado 741616" d="M42,9H58v2H42Z"/>
      </g>
    </g>
  </g>
</svg>
