<svg xmlns="http://www.w3.org/2000/svg" width="85" height="92" viewBox="0 0 85 92">
  <g id="Grupo_988499" data-name="Grupo 988499" transform="translate(-915 -6580)">
    <rect id="Rectángulo_345193" data-name="Rectángulo 345193" width="85" height="92" rx="10" transform="translate(915 6580)" fill="#ff6e33"/>
    <g id="Layer_1" transform="translate(920.461 6583.83)">
      <g id="Grupo_988498" data-name="Grupo 988498" transform="translate(2.539 9.17)">
        <path id="Trazado_741617" data-name="Trazado 741617" d="M100.641,137.121H73.061a1.811,1.811,0,1,1,0-3.621h27.581a1.811,1.811,0,0,1,0,3.621Z" transform="translate(-52.361 -99.321)" fill="#72c2e9"/>
        <path id="Trazado_741618" data-name="Trazado 741618" d="M120.67,146.67h4.03v28.013h-4.03Z" transform="translate(-88.195 -108.87)" fill="#f0c020"/>
        <path id="Trazado_741619" data-name="Trazado 741619" d="M120.67,146.67h4.03v2.562h-4.03Z" transform="translate(-88.195 -108.87)" fill="#e8a61e"/>
        <circle id="Elipse_5914" data-name="Elipse 5914" cx="4.698" cy="4.698" r="4.698" transform="translate(4.995 11.15)" fill="#ffb69f"/>
        <path id="Trazado_741620" data-name="Trazado 741620" d="M23.283,93.9v1.823a1.822,1.822,0,0,0,1.82,1.82h4.888v6.183H20.46V88.674a4.765,4.765,0,0,1,4.764-4.764h0a4.765,4.765,0,0,1,4.764,4.764V93.9Z" transform="translate(-15.533 -63.363)" fill="#fc5d3d"/>
        <path id="Trazado_741621" data-name="Trazado 741621" d="M40.413,158.739v19.109H35.1V162.681a1.375,1.375,0,0,0-1.375-1.375H23.209a2.749,2.749,0,0,1-2.749-2.749V155.99h17.2A2.749,2.749,0,0,1,40.413,158.739Z" transform="translate(-15.533 -115.628)" fill="#7d7b79"/>
        <path id="Trazado_741622" data-name="Trazado 741622" d="M83.262,237.058a1.8,1.8,0,0,1-1.782,2.035H73.7V235.5h7.717A1.84,1.84,0,0,1,83.262,237.058Z" transform="translate(-54.137 -173.28)" fill="#efefef"/>
        <path id="Trazado_741623" data-name="Trazado 741623" d="M5.04,192.667H8.43v15.368H5.04Z" transform="translate(-4.352 -142.222)" fill="#f0c020"/>
        <path id="Trazado_741624" data-name="Trazado 741624" d="M9.279,104.5V83.56a2.12,2.12,0,0,0-4.239,0v28.457H23.915v-3.391a1.375,1.375,0,0,0-1.375-1.375H12.028A2.749,2.749,0,0,1,9.279,104.5Z" transform="translate(-4.352 -61.572)" fill="#72c2e9"/>
        <path id="Trazado_741625" data-name="Trazado 741625" d="M61.367,192.667h3.39v15.368h-3.39Z" transform="translate(-45.195 -142.222)" fill="#f0c020"/>
        <path id="Trazado_741626" data-name="Trazado 741626" d="M47.859,122.07v0a1.822,1.822,0,0,1-1.82,1.82H32.55a1.822,1.822,0,0,1-1.82-1.82V120.25H46.04A1.822,1.822,0,0,1,47.859,122.07Z" transform="translate(-22.98 -89.713)" fill="#ffb69f"/>
        <path id="Trazado_741627" data-name="Trazado 741627" d="M210.514,54.428a4.7,4.7,0,1,1-9.394,0,4.7,4.7,0,0,1,9.394,0Z" transform="translate(-146.529 -38.58)" fill="#ffb69f"/>
        <path id="Trazado_741628" data-name="Trazado 741628" d="M207.578,93.9v1.823a1.822,1.822,0,0,1-1.82,1.82H200.87v6.183H210.4V88.674a4.765,4.765,0,0,0-4.764-4.764h0a4.765,4.765,0,0,0-4.764,4.764V93.9Z" transform="translate(-146.347 -63.363)" fill="#efefef"/>
        <path id="Trazado_741629" data-name="Trazado 741629" d="M162.96,158.739v19.109h5.317V162.681a1.375,1.375,0,0,1,1.375-1.375h10.512a2.749,2.749,0,0,0,2.749-2.749V155.99h-17.2A2.749,2.749,0,0,0,162.96,158.739Z" transform="translate(-118.859 -115.628)" fill="#7d7b79"/>
        <path id="Trazado_741630" data-name="Trazado 741630" d="M147.476,237.058a1.8,1.8,0,0,0,1.782,2.035h7.78V235.5h-7.717A1.84,1.84,0,0,0,147.476,237.058Z" transform="translate(-107.62 -173.28)" fill="#efefef"/>
        <path id="Trazado_741631" data-name="Trazado 741631" d="M0,0H3.39V15.368H0Z" transform="translate(68.293 65.813) rotate(180)" fill="#f0c020"/>
        <path id="Trazado_741632" data-name="Trazado 741632" d="M196.936,104.5V83.56a2.12,2.12,0,0,1,4.239,0v28.457H182.3v-3.391a1.375,1.375,0,0,1,1.375-1.375h10.512A2.749,2.749,0,0,0,196.936,104.5Z" transform="translate(-132.883 -61.572)" fill="#72c2e9"/>
        <path id="Trazado_741633" data-name="Trazado 741633" d="M0,0H3.39V15.368H0Z" transform="translate(52.808 65.813) rotate(180)" fill="#f0c020"/>
        <path id="Trazado_741634" data-name="Trazado 741634" d="M162.96,122.07v0a1.822,1.822,0,0,0,1.82,1.82h13.49a1.822,1.822,0,0,0,1.82-1.82V120.25H164.78A1.822,1.822,0,0,0,162.96,122.07Z" transform="translate(-118.859 -89.713)" fill="#ffb69f"/>
        <g id="Grupo_988491" data-name="Grupo 988491" transform="translate(17.536 0.686)">
          <path id="Trazado_741635" data-name="Trazado 741635" d="M118.646,121.7H107.622a1.622,1.622,0,0,0,0,3.244h11.024Z" transform="translate(-95.094 -91.452)" fill="#f0c020"/>
          <circle id="Elipse_5915" data-name="Elipse 5915" cx="6.827" cy="6.827" r="6.827" fill="#f0c020"/>
          <path id="Trazado_741636" data-name="Trazado 741636" d="M161.1,14.419v8.154a2.749,2.749,0,0,1-2.749,2.749h-.377a4.695,4.695,0,0,0-8.893,0H131.749A2.749,2.749,0,0,1,129,22.573V14.419a2.749,2.749,0,0,1,2.749-2.749h26.6A2.749,2.749,0,0,1,161.1,14.419Z" transform="translate(-111.771 -11.669)" fill="#f0c020"/>
        </g>
        <g id="Grupo_988497" data-name="Grupo 988497">
          <g id="Grupo_988492" data-name="Grupo 988492" transform="translate(6.713 42.149)">
            <path id="Trazado_741637" data-name="Trazado 741637" d="M42.652,180.774a.687.687,0,0,1-.687-.687V179.08a.687.687,0,1,1,1.375,0v1.006A.687.687,0,0,1,42.652,180.774Zm0-3.755a.687.687,0,0,1-.687-.687V163.865H27.647a.687.687,0,0,1,0-1.375h14.73a.963.963,0,0,1,.962.962v12.879A.687.687,0,0,1,42.652,177.019Z" transform="translate(-26.96 -162.49)" fill="#afafaf"/>
          </g>
          <g id="Grupo_988493" data-name="Grupo 988493" transform="translate(45.888 42.149)">
            <path id="Trazado_741638" data-name="Trazado 741638" d="M170.147,180.774a.687.687,0,0,1-.687-.687V179.08a.687.687,0,1,1,1.375,0v1.006A.687.687,0,0,1,170.147,180.774Zm0-3.755a.687.687,0,0,1-.687-.687V163.452a.963.963,0,0,1,.962-.962h14.729a.687.687,0,0,1,0,1.375H170.835v12.467A.687.687,0,0,1,170.147,177.019Z" transform="translate(-169.46 -162.49)" fill="#afafaf"/>
          </g>
          <g id="Grupo_988496" data-name="Grupo 988496" transform="translate(6.713 42.149)">
            <g id="Grupo_988494" data-name="Grupo 988494">
              <path id="Trazado_741639" data-name="Trazado 741639" d="M42.652,180.774a.687.687,0,0,1-.687-.687V179.08a.687.687,0,1,1,1.375,0v1.006A.687.687,0,0,1,42.652,180.774Zm0-3.755a.687.687,0,0,1-.687-.687V163.865H27.647a.687.687,0,0,1,0-1.375h14.73a.963.963,0,0,1,.962.962v12.879A.687.687,0,0,1,42.652,177.019Z" transform="translate(-26.96 -162.49)" fill="#afafaf"/>
            </g>
            <g id="Grupo_988495" data-name="Grupo 988495" transform="translate(39.174)">
              <path id="Trazado_741640" data-name="Trazado 741640" d="M170.147,180.774a.687.687,0,0,1-.687-.687V179.08a.687.687,0,1,1,1.375,0v1.006A.687.687,0,0,1,170.147,180.774Zm0-3.755a.687.687,0,0,1-.687-.687V163.452a.963.963,0,0,1,.962-.962h14.729a.687.687,0,0,1,0,1.375H170.835v12.467A.687.687,0,0,1,170.147,177.019Z" transform="translate(-169.46 -162.49)" fill="#afafaf"/>
            </g>
          </g>
          <path id="Trazado_741641" data-name="Trazado 741641" d="M63.117,24.249a.686.686,0,0,0,.97,0l1.788-1.788a7.507,7.507,0,1,0-.972-.972l-1.786,1.786a.687.687,0,0,0,0,.973Zm7.563-13.7a6.139,6.139,0,1,1-6.139,6.139,6.161,6.161,0,0,1,6.139-6.139Z" transform="translate(-46.317 -9.17)"/>
          <path id="Trazado_741642" data-name="Trazado 741642" d="M89.347,45.31A.688.688,0,0,0,88.66,46v.2a.687.687,0,0,0,1.375,0V46A.688.688,0,0,0,89.347,45.31Z" transform="translate(-64.985 -35.375)"/>
          <path id="Trazado_741643" data-name="Trazado 741643" d="M82.948,23.442a.688.688,0,0,0,.687-.687A1.068,1.068,0,0,1,84.71,21.7a1.092,1.092,0,0,1,1.069,1.05,1.039,1.039,0,0,1-.6.94,1.965,1.965,0,0,0-1.16,1.765v.151a.687.687,0,0,0,1.375,0V25.46a.61.61,0,0,1,.382-.528,2.433,2.433,0,0,0,1.377-2.177,2.447,2.447,0,0,0-4.893,0A.687.687,0,0,0,82.948,23.442Z" transform="translate(-60.345 -17.262)"/>
          <circle id="Elipse_5916" data-name="Elipse 5916" cx="0.687" cy="0.687" r="0.687" transform="translate(52.395 0)"/>
          <path id="Trazado_741644" data-name="Trazado 741644" d="M166.547,21.5h-23.23a.687.687,0,0,0,0,1.375h23.23a.687.687,0,1,0,0-1.375Z" transform="translate(-104.118 -18.11)"/>
          <path id="Trazado_741645" data-name="Trazado 741645" d="M143.312,35.375h3.849a.687.687,0,1,0,0-1.375h-3.849a.687.687,0,1,0,0,1.375Z" transform="translate(-104.114 -27.174)"/>
          <path id="Trazado_741646" data-name="Trazado 741646" d="M184.631,34.687a.687.687,0,0,0-.687-.687H167.312a.687.687,0,1,0,0,1.375h16.632A.687.687,0,0,0,184.631,34.687Z" transform="translate(-121.517 -27.174)"/>
          <path id="Trazado_741647" data-name="Trazado 741647" d="M143.307,47.875h14.262a.687.687,0,0,0,0-1.375H143.307a.687.687,0,1,0,0,1.375Z" transform="translate(-104.111 -36.238)"/>
          <circle id="Elipse_5917" data-name="Elipse 5917" cx="0.687" cy="0.687" r="0.687" transform="translate(35.818 45.36)"/>
          <circle id="Elipse_5918" data-name="Elipse 5918" cx="0.687" cy="0.687" r="0.687" transform="translate(0 34.932)"/>
          <path id="Trazado_741648" data-name="Trazado 741648" d="M71.519,74.983V31.157a2.806,2.806,0,0,0-5.6-.267,5.485,5.485,0,0,0-1.459-1.179,5.376,5.376,0,0,0,2.681-5.554,3.44,3.44,0,0,0,2.945-3.4V12.606A3.441,3.441,0,0,0,66.65,9.17H58.37a.687.687,0,0,0,0,1.375h8.28a2.07,2.07,0,0,1,2.062,2.062V20.76a2.061,2.061,0,0,1-1.971,2.059,5.381,5.381,0,0,0-9.828,0H40.053a2.07,2.07,0,0,1-2.062-2.062V12.606a2.07,2.07,0,0,1,2.062-2.062H52.872a.687.687,0,1,0,0-1.375H40.053a3.441,3.441,0,0,0-3.436,3.436V20.76A3.441,3.441,0,0,0,40.053,24.2h9.668v1.468a2.064,2.064,0,0,0,2.062,2.062H53.7a.687.687,0,0,0,0-1.375H51.783a.689.689,0,0,1-.687-.687V24.2h5.412a5.376,5.376,0,0,0,2.686,5.514,5.456,5.456,0,0,0-2.82,4.77v4.539H48.46a2.509,2.509,0,0,0-2.233,3.643H44.314V40.168l2-11.007a.687.687,0,0,0-.553-.8.694.694,0,0,0-.8.553l-1.913,10.5H32.6a2.31,2.31,0,0,0-2.109,3.244H27.831A2.508,2.508,0,0,0,25.6,39.019H17.684V34.481a5.455,5.455,0,0,0-2.82-4.77,5.385,5.385,0,1,0-5.265,0,5.489,5.489,0,0,0-1.46,1.18,2.806,2.806,0,0,0-5.6.267V42.041a.687.687,0,1,0,1.375,0V31.157a1.432,1.432,0,1,1,2.865,0V52.1a3.441,3.441,0,0,0,3.436,3.436H20.727a.691.691,0,0,1,.687.687v2.705H3.914V47.539a.687.687,0,1,0-1.375,0V74.983a.688.688,0,0,0,.687.687H70.832a.688.688,0,0,0,.687-.687ZM70.144,74.3H68.129l0-13.993h2.018ZM44.24,70.7A2.493,2.493,0,0,0,41.956,74.3H39.731V57.966a.687.687,0,1,0-1.375,0V74.3H35.7V47.657h2.656v4.811a.687.687,0,0,0,1.375,0V47.657H50.818a2.5,2.5,0,0,0,2.228-3.621h3.327v4.808H49.389a3.441,3.441,0,0,0-3.436,3.436V70.7Zm-14.421,0H28.106V52.281a3.441,3.441,0,0,0-3.436-3.436H17.684V44.036h3.327a2.5,2.5,0,0,0,2.226,3.621h11.09V74.3H32.1A2.493,2.493,0,0,0,29.818,70.7Zm21-26.666a1.123,1.123,0,1,1,0,2.246H23.237a1.123,1.123,0,0,1,0-2.246Zm-3.491,8.244a2.07,2.07,0,0,1,2.062-2.062H65.905V52.1a2.07,2.07,0,0,1-2.062,2.062H53.331a2.066,2.066,0,0,0-2.062,2.062V70.7H47.327ZM52.644,60.3h2.015V74.3H52.644Zm3.39,0H66.755V74.3H56.033ZM67.28,31.157a1.432,1.432,0,1,1,2.865,0V58.928h-17.5V56.223a.688.688,0,0,1,.687-.687H63.843A3.441,3.441,0,0,0,67.28,52.1Zm-9.462-6.139a4.011,4.011,0,0,1,4.008-4.011h.006a4.011,4.011,0,1,1-4.014,4.011Zm-.069,9.462a4.078,4.078,0,0,1,8.156,0V48.845H57.749V44.036h4.2a2.515,2.515,0,0,0,2.507-2.507v-5.41a.687.687,0,1,0-1.375,0v2.9H60.591v-2.9a.687.687,0,1,0-1.375,0v2.9H57.749V34.481ZM47.327,41.527a1.135,1.135,0,0,1,1.133-1.133H63.082v1.135a1.136,1.136,0,0,1-1.133,1.133H48.46A1.135,1.135,0,0,1,47.327,41.527Zm-15.659.2a.937.937,0,0,1,.934-.935H42.94v1.869H32.6A.937.937,0,0,1,31.668,41.727Zm-4.937-.2A1.136,1.136,0,0,1,25.6,42.662H12.109a1.135,1.135,0,0,1-1.133-1.133V40.394H25.6A1.139,1.139,0,0,1,26.731,41.529ZM8.222,25.018a4.01,4.01,0,1,1,4.011,4.011,4.024,4.024,0,0,1-4.011-4.011ZM12.23,30.4h0a4.1,4.1,0,0,1,4.077,4.077v4.539H14.841v-2.9a.687.687,0,0,0-1.375,0v2.9H10.976v-2.9a.687.687,0,1,0-1.375,0v5.41a2.513,2.513,0,0,0,2.507,2.507h4.2v4.808H8.153V34.481A4.093,4.093,0,0,1,12.23,30.4Zm8.5,23.757H10.215A2.07,2.07,0,0,1,8.153,52.1v-1.88H24.669a2.07,2.07,0,0,1,2.062,2.062V70.7H22.789V56.223A2.066,2.066,0,0,0,20.727,54.161Zm.687,6.141V74.3H19.4V60.3ZM18.025,74.3H7.3V60.3H18.025ZM5.929,60.3V74.3H3.914V60.3ZM22.789,74.3V72.077h7.032a1.148,1.148,0,0,1,1.16.959,0,0,0,0,0,0,0,1.113,1.113,0,0,1-1.1,1.256Zm20.288-1.256v0a1.148,1.148,0,0,1,1.163-.959h7.029V74.3H44.177A1.11,1.11,0,0,1,43.077,73.039Z" transform="translate(-2.539 -9.17)"/>
        </g>
      </g>
    </g>
  </g>
</svg>
