<svg xmlns="http://www.w3.org/2000/svg" width="85" height="92" viewBox="0 0 85 92">
  <g id="Grupo_988520" data-name="Grupo 988520" transform="translate(-1230 -6580)">
    <rect id="Rectángulo_345194" data-name="Rectángulo 345194" width="85" height="92" rx="10" transform="translate(1230 6580)" fill="#ff6e33"/>
    <g id="entrevista-de-trabajo" transform="translate(1241 6594)">
      <g id="Grupo_988518" data-name="Grupo 988518">
        <g id="Grupo_988500" data-name="Grupo 988500">
          <path id="Trazado_741649" data-name="Trazado 741649" d="M49.12,42.88A2.993,2.993,0,0,0,47,42a1,1,0,0,0-1,1V60a2,2,0,0,0,4,0V45A2.993,2.993,0,0,0,49.12,42.88Z" fill="#fcd770"/>
        </g>
        <g id="Grupo_988501" data-name="Grupo 988501">
          <path id="Trazado_741650" data-name="Trazado 741650" d="M18,45v3A6,6,0,0,1,6.78,50.96,5.915,5.915,0,0,1,6,48V45a1,1,0,0,1,1-1H17A1,1,0,0,1,18,45Z" fill="#dfb28b"/>
        </g>
        <g id="Grupo_988502" data-name="Grupo 988502">
          <path id="Trazado_741651" data-name="Trazado 741651" d="M24,38H42V61a1,1,0,0,1-1,1H23a1,1,0,0,1-1-1V38Z" fill="#e6e9ed"/>
        </g>
        <g id="Grupo_988503" data-name="Grupo 988503">
          <path id="Trazado_741652" data-name="Trazado 741652" d="M32,54h6v4H32Z" fill="#fcd770"/>
        </g>
        <g id="Grupo_988504" data-name="Grupo 988504">
          <path id="Trazado_741653" data-name="Trazado 741653" d="M26,42h6v8H26Z" fill="#b4dd7f"/>
        </g>
        <g id="Grupo_988505" data-name="Grupo 988505">
          <path id="Trazado_741654" data-name="Trazado 741654" d="M31,24h2l2.63,8.78A3.991,3.991,0,0,0,34,36v2H30V36a3.991,3.991,0,0,0-1.63-3.22Z" fill="#ff826e"/>
        </g>
        <g id="Grupo_988506" data-name="Grupo 988506">
          <path id="Trazado_741655" data-name="Trazado 741655" d="M34.39,21.91,33,24H31l-1.39-2.09L32,20Z" fill="#fc6e51"/>
        </g>
        <g id="Grupo_988507" data-name="Grupo 988507">
          <path id="Trazado_741656" data-name="Trazado 741656" d="M40,32H38a4.006,4.006,0,0,0-2.37.78L33,24l1.39-2.09L37,24l1.96-4.89,7.67,2.88A8.263,8.263,0,0,1,52,29.73a8.317,8.317,0,0,1-2.42,5.85A8.228,8.228,0,0,1,43.73,38H40Zm2,0h2.32a1.685,1.685,0,0,0,.4-3.32L42,28Z" fill="#4fc1e9"/>
        </g>
        <g id="Grupo_988508" data-name="Grupo 988508">
          <path id="Trazado_741657" data-name="Trazado 741657" d="M22,32V28l-2.72.68a1.685,1.685,0,0,0,.4,3.32Zm5-8,2.61-2.09L31,24l-2.63,8.78A4.006,4.006,0,0,0,26,32H24v6H20.27a8.255,8.255,0,0,1-7.95-6A8.086,8.086,0,0,1,12,29.73a8.249,8.249,0,0,1,5.37-7.74l7.67-2.88Z" fill="#4fc1e9"/>
        </g>
        <g id="Grupo_988509" data-name="Grupo 988509">
          <path id="Trazado_741658" data-name="Trazado 741658" d="M34.39,21.91,32,20l4-2,2.96,1.11L37,24Z" fill="#3bafda"/>
        </g>
        <g id="Grupo_988510" data-name="Grupo 988510">
          <path id="Trazado_741659" data-name="Trazado 741659" d="M28,18l4,2-2.39,1.91L27,24l-1.96-4.89Z" fill="#3bafda"/>
        </g>
        <g id="Grupo_988511" data-name="Grupo 988511">
          <path id="Trazado_741660" data-name="Trazado 741660" d="M62,7v6a1,1,0,0,1-1,1H47a1,1,0,0,1-1-1V7a1,1,0,0,1,1-1h3V3.41a1.414,1.414,0,0,1,2.41-1L56,6h5A1,1,0,0,1,62,7Z" fill="#e6e9ed"/>
        </g>
        <g id="Grupo_988512" data-name="Grupo 988512">
          <path id="Trazado_741661" data-name="Trazado 741661" d="M2,13V7A1,1,0,0,1,3,6H17a1,1,0,0,1,1,1v6a1,1,0,0,1-1,1H14v2.59a1.414,1.414,0,0,1-2.41,1L8,14H3A1,1,0,0,1,2,13Z" fill="#e6e9ed"/>
        </g>
        <g id="Grupo_988513" data-name="Grupo 988513">
          <path id="Trazado_741662" data-name="Trazado 741662" d="M40,32v6H34V36a4,4,0,0,1,4-4Z" fill="#f0d0b4"/>
        </g>
        <g id="Grupo_988514" data-name="Grupo 988514">
          <path id="Trazado_741663" data-name="Trazado 741663" d="M30,36v2H24V32h2a4,4,0,0,1,4,4Z" fill="#f0d0b4"/>
        </g>
        <g id="Grupo_988515" data-name="Grupo 988515">
          <path id="Trazado_741664" data-name="Trazado 741664" d="M28.84,15.49a10.045,10.045,0,0,0,6.32,0L36,18l-4,2-4-2Z" fill="#f0d0b4"/>
        </g>
        <g id="Grupo_988516" data-name="Grupo 988516">
          <path id="Trazado_741665" data-name="Trazado 741665" d="M32,2H42V6A10,10,0,1,1,22,6V2Z" fill="#f0d0b4"/>
        </g>
        <g id="Grupo_988517" data-name="Grupo 988517">
          <path id="Trazado_741666" data-name="Trazado 741666" d="M28,8h8a4,4,0,1,1-8,0Z" fill="#ff826e"/>
        </g>
      </g>
      <g id="Grupo_988519" data-name="Grupo 988519">
        <path id="Trazado_741667" data-name="Trazado 741667" d="M37,8V7H27V8A5,5,0,0,0,37,8ZM29.171,9h5.657a3,3,0,0,1-5.657,0Z"/>
        <path id="Trazado_741668" data-name="Trazado 741668" d="M53,29.73a9.312,9.312,0,0,0-6.015-8.679L36.8,17.231,36.41,16.07A11.01,11.01,0,0,0,43,6V1H21V6a11.011,11.011,0,0,0,6.589,10.07L27.2,17.231l-10.188,3.82A9.18,9.18,0,0,0,11.1,31H1v2H11.607a9.278,9.278,0,0,0,8.663,6H21V61a2,2,0,0,0,2,2H41a2,2,0,0,0,2-2V39h.73a9.278,9.278,0,0,0,8.663-6H63V31H52.9A9.326,9.326,0,0,0,53,29.73ZM37.648,19.686l-1.076,2.691L33.845,20.2l2.212-1.106ZM35,37V36a3,3,0,0,1,3-3h1v4Zm-2-1v1H31V36a4.982,4.982,0,0,0-1.49-3.553L31.744,25h.511l2.234,7.447A4.986,4.986,0,0,0,33,36Zm-7-3a3,3,0,0,1,3,3v1H25V33Zm6.465-10h-.93l-.586-.879L32,21.28l1.051.841ZM23,6V3h8V5h2V3h8V6A9,9,0,0,1,23,6Zm9,11a10.953,10.953,0,0,0,2.512-.3l.265.794L32,18.882l-2.777-1.388.265-.794A11.008,11.008,0,0,0,32,17Zm-4.057,2.09L30.155,20.2l-2.727,2.181-1.076-2.691ZM13,29.73a7.3,7.3,0,0,1,4.717-6.806l6.761-2.535,2.094,5.234,2.81-2.248.525.788-2.152,7.172A4.947,4.947,0,0,0,26,31H23V26.719l-3.967.992A2.685,2.685,0,0,0,19.685,33H23v4H20.27A7.278,7.278,0,0,1,13,29.73Zm8-.449V31H19.685a.685.685,0,0,1-.166-1.349ZM41,61H23V39H41Zm2.73-24H41V33h3.315a2.685,2.685,0,0,0,.652-5.289L41,26.719V31H38a4.947,4.947,0,0,0-1.755.335l-2.152-7.172.525-.788,2.81,2.248,2.094-5.234,6.761,2.535A7.269,7.269,0,0,1,43.73,37ZM43,31V29.281l1.481.371A.684.684,0,0,1,44.315,31Z"/>
        <path id="Trazado_741669" data-name="Trazado 741669" d="M33,41H25V51h8Zm-2,8H27V43h4Z"/>
        <path id="Trazado_741670" data-name="Trazado 741670" d="M35,41h4v2H35Z"/>
        <path id="Trazado_741671" data-name="Trazado 741671" d="M35,45h4v2H35Z"/>
        <path id="Trazado_741672" data-name="Trazado 741672" d="M35,49h4v2H35Z"/>
        <path id="Trazado_741673" data-name="Trazado 741673" d="M31,59h8V53H31Zm2-4h4v2H33Z"/>
        <path id="Trazado_741674" data-name="Trazado 741674" d="M25,53h4v2H25Z"/>
        <path id="Trazado_741675" data-name="Trazado 741675" d="M25,57h4v2H25Z"/>
        <path id="Trazado_741676" data-name="Trazado 741676" d="M17,43H7a2,2,0,0,0-2,2H4.2a3.2,3.2,0,0,0-.627,6.334l2.59.518A7,7,0,0,0,19,48V45A2,2,0,0,0,17,43ZM3.963,49.373A1.2,1.2,0,0,1,4.2,47H5v1a6.983,6.983,0,0,0,.2,1.62ZM17,48A5,5,0,0,1,7,48V45H17Z"/>
        <path id="Trazado_741677" data-name="Trazado 741677" d="M53,52a1,1,0,0,1-1,1H51V45a4,4,0,0,0-4-4,2,2,0,0,0-2,2V60a3,3,0,0,0,6,0V55h1a3,3,0,0,0,3-3V47H53Zm-4-7v6H47V43A2,2,0,0,1,49,45ZM48,61a1,1,0,0,1-1-1V53h2v7A1,1,0,0,1,48,61Z"/>
        <path id="Trazado_741678" data-name="Trazado 741678" d="M5,9H7v2H5Z"/>
        <path id="Trazado_741679" data-name="Trazado 741679" d="M9,9h2v2H9Z"/>
        <path id="Trazado_741680" data-name="Trazado 741680" d="M13,9h2v2H13Z"/>
        <path id="Trazado_741681" data-name="Trazado 741681" d="M3,15H7.586l3.293,3.293A2.414,2.414,0,0,0,15,16.586V15h2a2,2,0,0,0,2-2V7a2,2,0,0,0-2-2H3A2,2,0,0,0,1,7v6A2,2,0,0,0,3,15ZM3,7H17v6H13v3.586a.43.43,0,0,1-.707.293L8.414,13H3Z"/>
        <path id="Trazado_741682" data-name="Trazado 741682" d="M57,9h2v2H57Z"/>
        <path id="Trazado_741683" data-name="Trazado 741683" d="M53,9h2v2H53Z"/>
        <path id="Trazado_741684" data-name="Trazado 741684" d="M49,9h2v2H49Z"/>
        <path id="Trazado_741685" data-name="Trazado 741685" d="M61,5H56.414L53.121,1.707A2.414,2.414,0,0,0,49,3.414V5H47a2,2,0,0,0-2,2v6a2,2,0,0,0,2,2H61a2,2,0,0,0,2-2V7A2,2,0,0,0,61,5Zm0,8H47V7h4V3.414a.43.43,0,0,1,.707-.293L55.586,7H61Z"/>
      </g>
    </g>
  </g>
</svg>
