<svg xmlns="http://www.w3.org/2000/svg" width="85" height="92" viewBox="0 0 85 92">
  <g id="Grupo_988594" data-name="Grupo 988594" transform="translate(-219 -8088)">
    <g id="Grupo_985861" data-name="Grupo 985861" transform="translate(-158 5451)">
      <rect id="Rectángulo_338875" data-name="Rectángulo 338875" width="85" height="92" rx="10" transform="translate(377 2637)" fill="#ff6e33"/>
    </g>
    <g id="comportamiento" transform="translate(223.798 8095.171)">
      <g id="Grupo_988589" data-name="Grupo 988589" transform="translate(21.992 32.774)">
        <path id="Trazado_741871" data-name="Trazado 741871" d="M94.317,187.094h-14.7a8.273,8.273,0,0,0-8.273,8.273v9.278H102.59v-9.278A8.273,8.273,0,0,0,94.317,187.094Z" transform="translate(-71.342 -164.778)" fill="#72c2e9"/>
        <path id="Trazado_741872" data-name="Trazado 741872" d="M94.317,187.094h-14.7a8.273,8.273,0,0,0-8.273,8.273v9.278H102.59v-9.278A8.273,8.273,0,0,0,94.317,187.094Z" transform="translate(-71.342 -164.778)" fill="#fc5d3d"/>
        <path id="Trazado_741873" data-name="Trazado 741873" d="M163,235.879h5.972v4.1H163Z" transform="translate(-137.727 -200.11)" fill="#ffb69f"/>
        <path id="Trazado_741874" data-name="Trazado 741874" d="M116.251,113.177l-.978.993H99.621V111.9a3.552,3.552,0,0,1,3.553-3.55h8.44a2.688,2.688,0,0,0,2.64-2.185l1.418.97A3.956,3.956,0,0,1,116.251,113.177Z" transform="translate(-91.823 -106.167)" fill="#7c7b7a"/>
        <g id="Grupo_988588" data-name="Grupo 988588" transform="translate(0 8.003)">
          <path id="Trazado_741875" data-name="Trazado 741875" d="M108.074,138.577h-.8V135.19H91.627v3.39h-.786a2.251,2.251,0,1,0,0,4.5h.912a7.831,7.831,0,0,0,15.406,0h.915a2.252,2.252,0,0,0,0-4.5Z" transform="translate(-83.832 -135.19)" fill="#ffb69f"/>
          <path id="Trazado_741876" data-name="Trazado 741876" d="M71.343,235.879h6v4.1h-6Z" transform="translate(-71.343 -208.113)" fill="#ffb69f"/>
        </g>
      </g>
      <path id="Trazado_741877" data-name="Trazado 741877" d="M109.532,18.688a11.355,11.355,0,1,0-13.6,11.133l2.244,3.594,2.244-3.594a11.359,11.359,0,0,0,9.111-11.133Z" transform="translate(-60.56 -1.814)" fill="#efefef"/>
      <path id="Trazado_741878" data-name="Trazado 741878" d="M196.944,171.418c-1.028-.339-1.831-.558-2.369-2.874a.734.734,0,0,0-1.429,0c-.526,2.265-1.259,2.507-2.369,2.874a.734.734,0,0,0,0,1.393c1.844.609,2.053,1.51,2.369,2.874a.734.734,0,0,0,1.429,0c.525-2.265,1.3-2.52,2.369-2.874a.734.734,0,0,0,0-1.393Z" transform="translate(-135.487 -118.16)"/>
      <path id="Trazado_741879" data-name="Trazado 741879" d="M201.461,179.728a3.636,3.636,0,0,0-1.084,1.224,3.8,3.8,0,0,0-1.15-1.213,3.621,3.621,0,0,0,1.136-1.28A3.75,3.75,0,0,0,201.461,179.728Z" transform="translate(-141.969 -125.75)" fill="#f0c020"/>
      <path id="Trazado_741880" data-name="Trazado 741880" d="M46.39,171.418c-1.028-.339-1.831-.558-2.369-2.874a.734.734,0,0,0-1.429,0c-.526,2.265-1.259,2.507-2.369,2.874a.734.734,0,0,0,0,1.393c1.844.609,2.053,1.51,2.369,2.874a.734.734,0,0,0,1.429,0c.525-2.265,1.3-2.52,2.369-2.874a.734.734,0,0,0,0-1.393Z" transform="translate(-26.449 -118.16)"/>
      <path id="Trazado_741881" data-name="Trazado 741881" d="M50.907,179.728a3.636,3.636,0,0,0-1.084,1.224,3.8,3.8,0,0,0-1.15-1.213,3.621,3.621,0,0,0,1.136-1.28A3.75,3.75,0,0,0,50.907,179.728Z" transform="translate(-32.932 -125.75)" fill="#f0c020"/>
      <g id="Grupo_988590" data-name="Grupo 988590" transform="translate(3.891 19.675)">
        <path id="Trazado_741882" data-name="Trazado 741882" d="M25.605,75.457a10.844,10.844,0,1,0-3.113,3.113l4.524,1.411Z" transform="translate(-5.702 -58.667)" fill="#efefef"/>
      </g>
      <g id="Grupo_988591" data-name="Grupo 988591" transform="translate(7.2 22.984)">
        <circle id="Elipse_5919" data-name="Elipse 5919" cx="7.532" cy="7.532" r="7.532" fill="#72c2e9"/>
      </g>
      <circle id="Elipse_5920" data-name="Elipse 5920" cx="7.532" cy="7.532" r="7.532" transform="translate(30.084 9.343)" fill="#f0c020"/>
      <g id="Grupo_988592" data-name="Grupo 988592" transform="translate(49.658 19.675)">
        <path id="Trazado_741883" data-name="Trazado 741883" d="M176.563,78.569a10.843,10.843,0,1,0-3.113-3.113l-1.411,4.524Z" transform="translate(-171.67 -58.666)" fill="#efefef"/>
      </g>
      <circle id="Elipse_5921" data-name="Elipse 5921" cx="7.532" cy="7.532" r="7.532" transform="translate(52.968 22.984)" fill="#fc5d3d"/>
      <g id="Grupo_988593" data-name="Grupo 988593" transform="translate(29.575 57.158)">
        <path id="Trazado_741884" data-name="Trazado 741884" d="M119.748,203.461a.689.689,0,0,1-.689-.689V200.8a4.831,4.831,0,0,0-4.826-4.826H103.116a.689.689,0,1,1,0-1.379h11.117a6.212,6.212,0,0,1,6.2,6.2v1.973A.689.689,0,0,1,119.748,203.461Zm-19.39-7.488H99.53a.689.689,0,0,1,0-1.379h.827a.689.689,0,0,1,0,1.379Z" transform="translate(-98.841 -194.594)" fill="#ffcbc3"/>
      </g>
      <path id="Trazado_741885" data-name="Trazado 741885" d="M122.722,165.526a.7.7,0,0,0-.888.4,1.752,1.752,0,0,1-1.63,1.131H120.2a1.727,1.727,0,0,1-1.63-1.128.689.689,0,0,0-1.274-.047.677.677,0,0,0-.019.524v0a3.126,3.126,0,0,0,5.852,0A.691.691,0,0,0,122.722,165.526Z" transform="translate(-82.585 -116.352)"/>
      <path id="Trazado_741886" data-name="Trazado 741886" d="M113.668,147.885a.689.689,0,1,0-1.379,0v.461a.689.689,0,1,0,1.379,0Z" transform="translate(-79.005 -103.108)"/>
      <path id="Trazado_741887" data-name="Trazado 741887" d="M139.39,147.2a.689.689,0,0,0-.689.689v.461a.689.689,0,0,0,1.379,0v-.461A.689.689,0,0,0,139.39,147.2Z" transform="translate(-98.134 -103.108)"/>
      <path id="Trazado_741888" data-name="Trazado 741888" d="M126.184,152.348a.689.689,0,0,0,.689-.689v-2.1a.689.689,0,0,0-1.379,0v2.1A.689.689,0,0,0,126.184,152.348Z" transform="translate(-88.57 -104.318)"/>
      <path id="Trazado_741889" data-name="Trazado 741889" d="M68.841,134.943v9.278a.689.689,0,1,0,1.379,0v-3.408h4.62v3.409a.689.689,0,0,0,1.379,0V136.5a.689.689,0,0,0-1.379,0v2.931H70.22v-4.49A7.592,7.592,0,0,1,77.8,127.36h14.7a7.592,7.592,0,0,1,7.583,7.583v4.49H95.5V136.5a.689.689,0,1,0-1.379,0v7.718a.689.689,0,1,0,1.379,0v-3.409h4.592v3.408a.689.689,0,0,0,1.379,0v-9.278a8.972,8.972,0,0,0-8.962-8.962h-2.59a7.994,7.994,0,0,0,3.5-5.043h.354a2.943,2.943,0,1,0-.105-5.884v-2.412l.782-.794a4.646,4.646,0,0,0-.681-7.095l-1.418-.97a.69.69,0,0,0-1.066.441,2,2,0,0,1-1.957,1.624h-2.1a.689.689,0,0,0,0,1.379h2.1a3.38,3.38,0,0,0,2.987-1.8l.682.466a3.267,3.267,0,0,1,.477,4.987l-.776.788H78.018v-1.578a2.866,2.866,0,0,1,2.864-2.861h.828a.689.689,0,0,0,0-1.379h-.837a4.246,4.246,0,0,0-4.234,4.24c0,1.733,0,2.269,0,4.968a2.941,2.941,0,1,0-.1,5.88h.352a8.044,8.044,0,0,0,3.489,5.043H77.8A8.973,8.973,0,0,0,68.841,134.943Zm24.828-18.51a1.567,1.567,0,1,1-.025,3.126c.006-.071.025-.509.025-.673v-2.453ZM74.975,118a1.569,1.569,0,0,1,1.661-1.561v2.45c0,.18.008.417.028.672A1.572,1.572,0,0,1,74.975,118Zm3.041.888c0-1.007,0-4.832,0-5.839H92.288v5.84a7.136,7.136,0,0,1-14.272,0Z" transform="translate(-47.539 -71.58)"/>
      <circle id="Elipse_5922" data-name="Elipse 5922" cx="0.689" cy="0.689" r="0.689" transform="translate(36.24 34.269)"/>
      <path id="Trazado_741890" data-name="Trazado 741890" d="M93.691,28.621l2.09,3.346a.69.69,0,0,0,1.169,0l2.09-3.346A12.046,12.046,0,0,0,96.367,4.83h0a12.033,12.033,0,0,0-4.018.686.689.689,0,0,0,.461,1.3,10.672,10.672,0,0,1,3.551-.606h.007a10.667,10.667,0,0,1,2.109,21.123.69.69,0,0,0-.449.311L96.365,30.3l-1.66-2.658a.69.69,0,0,0-.449-.311A10.689,10.689,0,0,1,85.7,16.875s0,0,0,0a10.636,10.636,0,0,1,2.827-7.23.688.688,0,0,0-.036-.973.71.71,0,0,0-.976.039,12.006,12.006,0,0,0-3.193,8.168s0,0,0,0A12.074,12.074,0,0,0,93.691,28.621Z" transform="translate(-58.749)"/>
      <path id="Trazado_741891" data-name="Trazado 741891" d="M103.145,11.753a.689.689,0,1,0,.954.2A.7.7,0,0,0,103.145,11.753Z" transform="translate(-72.158 -4.936)"/>
      <path id="Trazado_741892" data-name="Trazado 741892" d="M14.733,79.227a11.48,11.48,0,0,0,6.049-1.715L25,78.828a.69.69,0,0,0,.863-.863l-1.316-4.219a11.53,11.53,0,1,0-9.815,5.482Zm0-21.682a10.149,10.149,0,0,1,8.486,15.721.689.689,0,0,0-.082.584l1.02,3.269L20.886,76.1a.69.69,0,0,0-.584.082,10.151,10.151,0,1,1-5.569-18.637Z" transform="translate(0 -37.18)"/>
      <path id="Trazado_741893" data-name="Trazado 741893" d="M23.423,84.61A8.221,8.221,0,1,0,15.2,76.388a8.231,8.231,0,0,0,8.221,8.222Zm0-15.064a6.843,6.843,0,1,1-6.843,6.842,6.85,6.85,0,0,1,6.843-6.842Z" transform="translate(-8.691 -45.872)"/>
      <path id="Trazado_741894" data-name="Trazado 741894" d="M33.955,90.177a.689.689,0,0,0,.689-.689v-.3a.689.689,0,0,0-1.379,0v.3A.689.689,0,0,0,33.955,90.177Z" transform="translate(-21.774 -60.598)"/>
      <path id="Trazado_741895" data-name="Trazado 741895" d="M52.455,90.177a.689.689,0,0,0,.689-.689v-.3a.689.689,0,0,0-1.379,0v.3A.689.689,0,0,0,52.455,90.177Z" transform="translate(-35.172 -60.598)"/>
      <path id="Trazado_741896" data-name="Trazado 741896" d="M117.951,52.8a3.831,3.831,0,0,0,3.826-3.826.689.689,0,1,0-1.379,0,2.447,2.447,0,0,1-4.895,0,.689.689,0,1,0-1.379,0A3.831,3.831,0,0,0,117.951,52.8Z" transform="translate(-80.335 -31.47)"/>
      <path id="Trazado_741897" data-name="Trazado 741897" d="M98.186,26.919a8.221,8.221,0,1,0,8.221-8.221,8.231,8.231,0,0,0-8.221,8.221Zm8.221-6.843a6.843,6.843,0,1,1-6.843,6.843,6.85,6.85,0,0,1,6.843-6.843Z" transform="translate(-68.791 -10.045)"/>
      <path id="Trazado_741898" data-name="Trazado 741898" d="M116.939,40.709a.689.689,0,0,0,.689-.689v-.3a.689.689,0,1,0-1.379,0v.3A.689.689,0,0,0,116.939,40.709Z" transform="translate(-81.874 -24.771)"/>
      <path id="Trazado_741899" data-name="Trazado 741899" d="M135.439,40.709a.689.689,0,0,0,.689-.689v-.3a.689.689,0,1,0-1.379,0v.3A.689.689,0,0,0,135.439,40.709Z" transform="translate(-95.273 -24.771)"/>
      <path id="Trazado_741900" data-name="Trazado 741900" d="M192.231,67.7a11.531,11.531,0,1,0-21.346,6.049l-1.316,4.219a.69.69,0,0,0,.863.863l4.218-1.316a11.529,11.529,0,0,0,17.58-9.816Zm-17.685,8.4-3.269,1.02,1.02-3.269a.689.689,0,0,0-.082-.584,10.156,10.156,0,1,1,2.916,2.916.689.689,0,0,0-.584-.082Z" transform="translate(-120.201 -37.181)"/>
      <path id="Trazado_741901" data-name="Trazado 741901" d="M197.613,76.388a8.221,8.221,0,1,0-8.221,8.221A8.231,8.231,0,0,0,197.613,76.388Zm-15.064,0a6.843,6.843,0,1,1,6.843,6.843A6.85,6.85,0,0,1,182.549,76.388Z" transform="translate(-128.892 -45.872)"/>
      <path id="Trazado_741902" data-name="Trazado 741902" d="M198.133,90.624l.772.092a.7.7,0,0,0,.082,0,.689.689,0,0,0,.081-1.374l-.772-.092a.689.689,0,1,0-.163,1.369Z" transform="translate(-140.736 -61.142)"/>
      <path id="Trazado_741903" data-name="Trazado 741903" d="M217.331,90.72a.691.691,0,0,0,.082,0l.772-.092a.689.689,0,0,0-.163-1.369l-.772.092a.689.689,0,0,0,.081,1.374Z" transform="translate(-154.582 -61.14)"/>
      <path id="Trazado_741904" data-name="Trazado 741904" d="M38.393,103.5h2.654a.689.689,0,0,0,0-1.379H38.393a.689.689,0,1,0,0,1.379Z" transform="translate(-24.988 -70.466)"/>
      <path id="Trazado_741905" data-name="Trazado 741905" d="M198.845,101.087a.689.689,0,0,0,.975,0l.943-.943.943.943a.689.689,0,1,0,.975-.975l-1.431-1.431a.689.689,0,0,0-.975,0l-.943.943-.943-.943a.689.689,0,0,0-.975,0l-.943.943-.943-.943a.689.689,0,0,0-.975,0l-1.431,1.431a.689.689,0,1,0,.975.975l.943-.943.943.943a.689.689,0,0,0,.975,0l.943-.943Z" transform="translate(-137.402 -67.825)"/>
    </g>
  </g>
</svg>
