<svg xmlns="http://www.w3.org/2000/svg" width="85" height="92" viewBox="0 0 85 92">
  <g id="Grupo_985862" data-name="Grupo 985862" transform="translate(-692 -2637)">
    <g id="Grupo_988587" data-name="Grupo 988587">
      <rect id="Rectángulo_338877" data-name="Rectángulo 338877" width="85" height="92" rx="10" transform="translate(692 2637)" fill="#ff6e33"/>
      <g id="idea_" data-name="idea´" transform="translate(636.62 2647.583)">
        <g id="Grupo_988585" data-name="Grupo 988585" transform="translate(72.713 1.105)">
          <path id="Trazado_741855" data-name="Trazado 741855" d="M171.047,20.922a13.421,13.421,0,1,0-21.452,10.754,4.849,4.849,0,0,1,1.93,3.887v4.859h12.2V35.563a4.851,4.851,0,0,1,1.932-3.888,13.4,13.4,0,0,0,5.389-10.753Z" transform="translate(-135.663 -7.501)" fill="#ffdd40"/>
          <path id="Trazado_741856" data-name="Trazado 741856" d="M225.343,7.5a13.385,13.385,0,0,0-1.5.106,13.422,13.422,0,0,1,6.335,24.067,4.851,4.851,0,0,0-1.932,3.888v4.859h3.388V35.563a4.85,4.85,0,0,1,1.932-3.888A13.422,13.422,0,0,0,225.343,7.5Z" transform="translate(-203.572 -7.501)" fill="#ffb332"/>
          <path id="Trazado_741857" data-name="Trazado 741857" d="M86.221,225.307a2.44,2.44,0,0,1,2.44-2.44H127.7a2.44,2.44,0,0,1,2.44,2.44v3.048a2.439,2.439,0,0,0,.29,1.153l6.452,12.029a4.88,4.88,0,0,1,.579,2.307v.985a2.44,2.44,0,0,1-2.44,2.44h-3.7a1.178,1.178,0,0,0-1.178,1.178v6.142a4.88,4.88,0,0,1-4.88,4.88h-3.7a1.178,1.178,0,0,0-1.178,1.178v2.482a1.22,1.22,0,0,1-1.22,1.22H98.422a1.22,1.22,0,0,1-1.22-1.22v-3.657a4.911,4.911,0,0,0-2.612-4.321,15.859,15.859,0,0,1-8.37-13.984V225.307Z" transform="translate(-86.221 -191.144)" fill="#fab991"/>
          <g id="Grupo_988584" data-name="Grupo 988584" transform="translate(29.555 31.723)">
            <path id="Trazado_741858" data-name="Trazado 741858" d="M333.191,389.714v6.142a4.88,4.88,0,0,1-4.876,4.88H331.7a4.88,4.88,0,0,0,4.88-4.88v-6.142a1.178,1.178,0,0,1,1.178-1.178h-3.388A1.178,1.178,0,0,0,333.191,389.714Z" transform="translate(-322.21 -364.133)" fill="#fd995b"/>
            <path id="Trazado_741859" data-name="Trazado 741859" d="M289.269,471.365a1.178,1.178,0,0,0-1.178,1.178v2.482a1.22,1.22,0,0,1-1.22,1.22h3.388a1.22,1.22,0,0,0,1.22-1.22v-2.482a1.178,1.178,0,0,1,1.176-1.178Z" transform="translate(-286.871 -434.762)" fill="#fd995b"/>
            <path id="Trazado_741860" data-name="Trazado 741860" d="M357.421,241.538l-6.452-12.029a2.44,2.44,0,0,1-.29-1.153v-3.048a2.44,2.44,0,0,0-2.44-2.44h-3.388a2.44,2.44,0,0,1,2.44,2.44v3.048a2.44,2.44,0,0,0,.29,1.153l6.452,12.029a4.88,4.88,0,0,1,.579,2.307v.985a2.44,2.44,0,0,1-2.44,2.44h3.388a2.44,2.44,0,0,0,2.44-2.44v-.985A4.88,4.88,0,0,0,357.421,241.538Z" transform="translate(-336.311 -222.868)" fill="#fd995b"/>
          </g>
        </g>
        <g id="Grupo_988586" data-name="Grupo 988586" transform="translate(70.38 0)">
          <path id="Trazado_741861" data-name="Trazado 741861" d="M131.465,50.977l-6.452-12.029a1.342,1.342,0,0,1-.159-.631V35.269a3.549,3.549,0,0,0-3.545-3.545H108.993V29.168a3.761,3.761,0,0,1,1.489-3,14.527,14.527,0,0,0,1.506-21.981A14.495,14.495,0,0,0,95.065,1.661a1.1,1.1,0,1,0,1.03,1.955,12.093,12.093,0,0,1,5.518-1.4h.177A12.317,12.317,0,0,1,109.158,24.4a5.98,5.98,0,0,0-2.375,4.772v2.556h-3.891v-11.1a1.1,1.1,0,1,0-2.209,0v11.1H96.792V29.168A5.979,5.979,0,0,0,94.418,24.4,12.287,12.287,0,0,1,92.835,6.1a1.1,1.1,0,1,0-1.609-1.515,14.5,14.5,0,0,0,1.869,21.583,3.759,3.759,0,0,1,1.488,3v2.556H82.266a3.549,3.549,0,0,0-3.545,3.545V51.13a16.955,16.955,0,0,0,8.952,14.958A3.807,3.807,0,0,1,89.7,69.435v3.657a2.327,2.327,0,0,0,2.325,2.325h3.43a1.1,1.1,0,0,0,0-2.209h-3.43a.116.116,0,0,1-.115-.115V69.435a6.014,6.014,0,0,0-3.194-5.294A14.749,14.749,0,0,1,80.93,51.13V35.268a1.337,1.337,0,0,1,1.335-1.335h39.044a1.337,1.337,0,0,1,1.335,1.336v3.048a3.559,3.559,0,0,0,.421,1.675l6.452,12.029a3.789,3.789,0,0,1,.448,1.785v.985a1.337,1.337,0,0,1-1.335,1.335h-7.321a1.337,1.337,0,0,1-1.335-1.335V53.57a.116.116,0,0,1,.115-.115h2.745a1.1,1.1,0,0,0,0-2.209h-2.745a2.328,2.328,0,0,0-2.325,2.325v1.22a3.549,3.549,0,0,0,3.545,3.545h1.336v6.216a3.78,3.78,0,0,1-3.776,3.776h-4.884a6.7,6.7,0,0,1-6.5-5.082L106.52,59.4a1.1,1.1,0,1,0-2.143.536l.961,3.842a8.9,8.9,0,0,0,7.547,6.687v2.624a.116.116,0,0,1-.115.115H99.875a1.1,1.1,0,0,0,0,2.209h12.893a2.327,2.327,0,0,0,2.325-2.325V70.536h3.775a5.992,5.992,0,0,0,5.985-5.985V58.335h3.776a3.549,3.549,0,0,0,3.545-3.545v-.985a6,6,0,0,0-.71-2.829Z" transform="translate(-77.492 0)"/>
          <path id="Trazado_741862" data-name="Trazado 741862" d="M180.7,248.5h-4.88a5.992,5.992,0,0,0-5.985,5.985v7.321a8.435,8.435,0,0,0,8.425,8.425h2.44a1.1,1.1,0,0,0,0-2.209h-2.44a6.223,6.223,0,0,1-6.216-6.216v-7.321a3.78,3.78,0,0,1,3.776-3.776h4.88a1.1,1.1,0,0,0,0-2.209Z" transform="translate(-155.188 -211.896)"/>
          <path id="Trazado_741863" data-name="Trazado 741863" d="M206.516,283.843h2.44a1.1,1.1,0,1,0,0-2.209h-2.44a3.549,3.549,0,0,0-3.545,3.545v4.881a3.549,3.549,0,0,0,3.545,3.545h2.44a1.1,1.1,0,1,0,0-2.209h-2.44a1.337,1.337,0,0,1-1.335-1.335v-4.881A1.337,1.337,0,0,1,206.516,283.843Z" transform="translate(-183.441 -240.15)"/>
          <path id="Trazado_741864" data-name="Trazado 741864" d="M170.11,84.665l3.352,3.831a2.325,2.325,0,0,0,3.5,0l2.434-2.782a.116.116,0,0,1,.174,0L182,88.5a2.325,2.325,0,0,0,1.749.794h0a2.325,2.325,0,0,0,1.75-.794l3.352-3.831a1.1,1.1,0,0,0-1.663-1.455l-3.352,3.831a.116.116,0,0,1-.174,0l-2.434-2.782a2.325,2.325,0,0,0-3.5,0L175.3,87.041a.116.116,0,0,1-.174,0l-3.352-3.831a1.1,1.1,0,1,0-1.663,1.455Z" transform="translate(-155.187 -70.632)"/>
          <path id="Trazado_741865" data-name="Trazado 741865" d="M352.071,92.223a1.1,1.1,0,0,0,1.1,1.1h4.88a1.1,1.1,0,1,0,0-2.209h-4.88A1.1,1.1,0,0,0,352.071,92.223Z" transform="translate(-310.578 -77.697)"/>
          <path id="Trazado_741866" data-name="Trazado 741866" d="M336.494,16.946a1.1,1.1,0,0,0,.551-.148l4.227-2.44a1.1,1.1,0,1,0-1.1-1.913l-4.227,2.44a1.1,1.1,0,0,0,.553,2.062Z" transform="translate(-296.353 -10.485)"/>
          <path id="Trazado_741867" data-name="Trazado 741867" d="M92.051,14.358l4.227,2.44a1.1,1.1,0,1,0,1.1-1.913l-4.227-2.44a1.1,1.1,0,1,0-1.1,1.913Z" transform="translate(-88.388 -10.485)"/>
          <path id="Trazado_741868" data-name="Trazado 741868" d="M77.47,92.223a1.1,1.1,0,0,0-1.1-1.1h-4.88a1.1,1.1,0,0,0,0,2.209h4.88A1.1,1.1,0,0,0,77.47,92.223Z" transform="translate(-70.38 -77.697)"/>
          <path id="Trazado_741869" data-name="Trazado 741869" d="M96.278,153.519l-4.227,2.44a1.1,1.1,0,1,0,1.1,1.913l4.227-2.44a1.1,1.1,0,0,0-1.1-1.913Z" transform="translate(-88.388 -130.78)"/>
          <path id="Trazado_741870" data-name="Trazado 741870" d="M335.941,155.433l4.227,2.44a1.1,1.1,0,1,0,1.1-1.913l-4.227-2.44a1.1,1.1,0,1,0-1.1,1.913Z" transform="translate(-296.353 -130.78)"/>
        </g>
      </g>
    </g>
  </g>
</svg>
