<svg xmlns="http://www.w3.org/2000/svg" width="85" height="92" viewBox="0 0 85 92">
  <g id="Grupo_988599" data-name="Grupo 988599" transform="translate(-849 -8088)">
    <g id="Grupo_985864" data-name="Grupo 985864" transform="translate(-158 5451)">
      <rect id="Rectángulo_338879" data-name="Rectángulo 338879" width="85" height="92" rx="10" transform="translate(1007 2637)" fill="#ff6e33"/>
    </g>
    <g id="conocimiento" transform="translate(824.53 8102)">
      <path id="Trazado_741906" data-name="Trazado 741906" d="M93.488,72.791a7.31,7.31,0,0,0-3.566-9.527,7.314,7.314,0,0,0-7.292-8.9,7.318,7.318,0,0,0-4.311-5.273,11.665,11.665,0,1,0-22.065,0,7.313,7.313,0,0,0-4.312,5.273,7.313,7.313,0,0,0-7.292,8.9,7.314,7.314,0,0,0-1.256,12.451A7.308,7.308,0,0,0,51.8,86.46a7.314,7.314,0,0,0,14.62-.327s0,0,0,0V66.336h1.726V86.13h0a7.314,7.314,0,0,0,14.62.329,7.311,7.311,0,0,0,8.794-10.011,7.567,7.567,0,0,0-.385-.734A7.265,7.265,0,0,0,93.488,72.791Zm-26.2-37.832a10.364,10.364,0,0,1,4.433,19.732c-.013.007-.025.016-.038.022s-.04.023-.06.038a.372.372,0,0,0-.049.04.455.455,0,0,0-.046.042c-.014.016-.027.033-.042.049s-.025.033-.035.049a.566.566,0,0,0-.03.055c-.009.02-.02.038-.027.057a.546.546,0,0,0-.018.061c-.005.02-.012.039-.016.06a.664.664,0,0,0-.007.072c0,.014-.005.029-.005.043v.741H63.225v-.741c0-.017,0-.031-.005-.048a.551.551,0,0,0-.007-.065A.619.619,0,0,0,63.2,55.1a.364.364,0,0,0-.017-.053.562.562,0,0,0-.029-.064c-.009-.017-.017-.033-.027-.049a.508.508,0,0,0-.039-.053c-.012-.016-.025-.031-.038-.046A.54.54,0,0,0,63,54.788a.438.438,0,0,0-.046-.038c-.02-.014-.042-.026-.064-.039s-.022-.014-.035-.021a10.364,10.364,0,0,1,4.433-19.732Zm-1.04,24.835h5.1v1.034h-5.1a.651.651,0,0,0,0,1.3h5.1v1.083H63.225V57.322h8.122v1.17h-5.1a.651.651,0,1,0,0,1.3ZM65.121,86.126s0,0,0,0a6.012,6.012,0,1,1-6.011-6.013.651.651,0,1,0,0-1.3,7.326,7.326,0,0,0-7.236,6.246,6.011,6.011,0,0,1-7.677-8.075,5.861,5.861,0,0,1,.62-1.065,6.028,6.028,0,0,1,7.335-1.932.651.651,0,1,0,.538-1.185,7.338,7.338,0,0,0-8.531,1.857,6.01,6.01,0,0,1,.894-10.144l.031.078a7.317,7.317,0,0,0,9.627,3.784.651.651,0,0,0-.521-1.194,6.018,6.018,0,0,1-7.912-3.11,6.131,6.131,0,0,1-.233-.628A6.009,6.009,0,0,1,51.8,55.662c0,.053,0,.107,0,.16a7.322,7.322,0,0,0,7.315,7.315.651.651,0,1,0,0-1.3A6.019,6.019,0,0,1,53.1,55.822a5.691,5.691,0,0,1,.042-.7,6.011,6.011,0,0,1,3.608-4.828,11.716,11.716,0,0,0,5.178,5.39v.337h-.43a.651.651,0,1,0,0,1.3h.43v6.542a.651.651,0,0,0,.651.651h1.767v1.169a.65.65,0,0,0,.651.651h.129v19.79Zm3.81-21.092H65.643v-.518H68.93Zm21.484,9.627A7.338,7.338,0,0,0,81.884,72.8a.651.651,0,0,0,.538,1.186,6.027,6.027,0,0,1,7.337,1.933,5.865,5.865,0,0,1,.618,1.062A6.011,6.011,0,0,1,82.7,85.061a7.326,7.326,0,0,0-7.235-6.246.651.651,0,1,0,0,1.3,6.013,6.013,0,1,1-6.013,6.013h0V66.336h.13a.651.651,0,0,0,.651-.651V64.515H72a.65.65,0,0,0,.651-.651V62.13h.431a.651.651,0,0,0,0-1.3h-.431V59.794h.431a.651.651,0,0,0,0-1.3h-.431v-1.17h.431a.651.651,0,0,0,0-1.3h-.431v-.337a11.716,11.716,0,0,0,5.178-5.39,6.013,6.013,0,0,1,3.608,4.83,5.881,5.881,0,0,1,.042.7,6.019,6.019,0,0,1-6.013,6.013.651.651,0,0,0,0,1.3,7.322,7.322,0,0,0,7.315-7.315c0-.053,0-.107,0-.16a6.009,6.009,0,0,1,5.753,7.786,6.144,6.144,0,0,1-.233.626,6.019,6.019,0,0,1-7.912,3.11.651.651,0,0,0-.521,1.194,7.316,7.316,0,0,0,9.627-3.785l.031-.077a6.012,6.012,0,0,1,.894,10.144Z" transform="translate(0 -29.275)" fill="#23130d"/>
      <rect id="Rectángulo_345718" data-name="Rectángulo 345718" width="3.288" height="0.518" transform="translate(65.643 35.241)" fill="#636368"/>
      <g id="Grupo_988595" data-name="Grupo 988595" transform="translate(41.773 21.018)">
        <path id="Trazado_741907" data-name="Trazado 741907" d="M285.9,183.4a5.969,5.969,0,0,1-1.88,2.39,7.338,7.338,0,0,0-8.531-1.857.651.651,0,0,0,.538,1.186,6.027,6.027,0,0,1,7.337,1.933,5.866,5.866,0,0,1,.618,1.062,6.011,6.011,0,0,1-7.677,8.075,7.326,7.326,0,0,0-7.235-6.246.651.651,0,1,0,0,1.3,6.013,6.013,0,1,1-6.013,6.013h0V177.47h.13a.651.651,0,0,0,.651-.651V175.65H265.6a.65.65,0,0,0,.651-.651v-1.734h.431a.651.651,0,0,0,0-1.3h-.431v-1.034h.431a.651.651,0,0,0,0-1.3h-.431v-1.17h.431a.651.651,0,0,0,0-1.3h-.431v-.337a11.716,11.716,0,0,0,5.178-5.39,6.013,6.013,0,0,1,3.608,4.83,5.879,5.879,0,0,1,.042.7,6.019,6.019,0,0,1-6.013,6.013.651.651,0,0,0,0,1.3,7.322,7.322,0,0,0,7.315-7.315c0-.053,0-.107,0-.16a6.009,6.009,0,0,1,5.753,7.786,6.145,6.145,0,0,1-.233.626,6.019,6.019,0,0,1-7.912,3.11.651.651,0,0,0-.521,1.194,7.316,7.316,0,0,0,9.627-3.785l.031-.077A6.008,6.008,0,0,1,285.9,183.4Z" transform="translate(-235.38 -161.427)" fill="#f8d3c9"/>
        <path id="Trazado_741908" data-name="Trazado 741908" d="M73.823,177.47v19.79s0,0,0,0a6.012,6.012,0,1,1-6.011-6.013.651.651,0,1,0,0-1.3,7.326,7.326,0,0,0-7.236,6.246A6.011,6.011,0,0,1,52.9,188.12a5.861,5.861,0,0,1,.62-1.065,6.028,6.028,0,0,1,7.335-1.932.651.651,0,1,0,.538-1.185A7.338,7.338,0,0,0,52.86,185.8a6.01,6.01,0,0,1,.894-10.144l.031.078a7.317,7.317,0,0,0,9.627,3.784.651.651,0,0,0-.521-1.194,6.018,6.018,0,0,1-7.912-3.11,6.131,6.131,0,0,1-.233-.628A6.009,6.009,0,0,1,60.5,166.8c0,.053,0,.107,0,.16a7.322,7.322,0,0,0,7.315,7.315.651.651,0,1,0,0-1.3,6.019,6.019,0,0,1-6.013-6.013,5.689,5.689,0,0,1,.042-.7,6.011,6.011,0,0,1,3.608-4.828,11.716,11.716,0,0,0,5.178,5.39v.337H70.2a.651.651,0,1,0,0,1.3h.43V175a.651.651,0,0,0,.651.651h1.767v1.169a.65.65,0,0,0,.651.651Z" transform="translate(-50.475 -161.427)" fill="#f8d3c9"/>
      </g>
      <path id="Trazado_741909" data-name="Trazado 741909" d="M271.773,162.476a5.236,5.236,0,0,1,2.493,3.874,5.111,5.111,0,0,1,.036.606,5.237,5.237,0,0,1-5.231,5.231.87.87,0,0,1-1.556-.742,1.431,1.431,0,0,0-.106-2.4,1.431,1.431,0,0,0,.338-2.2,12.6,12.6,0,0,0,4.026-4.367m5.366,5.154a5.229,5.229,0,0,1,4.25,6.722,5.344,5.344,0,0,1-.2.545,5.236,5.236,0,0,1-4.8,3.141,5.183,5.183,0,0,1-2.08-.435,1.432,1.432,0,0,0-1.144,2.627,8.1,8.1,0,0,0,10.3-3.467,5.234,5.234,0,0,1,.618,7.958,8.115,8.115,0,0,0-5.579-2.211,8,8,0,0,0-3.324.717,1.431,1.431,0,0,0-.714,1.894,1.433,1.433,0,0,0,1.9.715,5.157,5.157,0,0,1,2.145-.463,5.251,5.251,0,0,1,4.239,2.147,5.077,5.077,0,0,1,.537.923A5.23,5.23,0,0,1,277,195.608a8.145,8.145,0,0,0-7.924-6.44,1.432,1.432,0,0,0,0,2.864,5.231,5.231,0,1,1-5.231,5.231v-19.17a1.434,1.434,0,0,0,.781-1.276v-.388h.984A1.434,1.434,0,0,0,267.037,175v-1a1.2,1.2,0,0,1,2.034,1.05,8.107,8.107,0,0,0,8.068-7.422m-5.7-6.2a11.716,11.716,0,0,1-5.178,5.39v.337h.431a.651.651,0,1,1,0,1.3h-.431v1.17h.431a.651.651,0,1,1,0,1.3h-.431v1.034h.431a.651.651,0,1,1,0,1.3h-.431V175a.65.65,0,0,1-.651.651h-1.765v1.169a.651.651,0,0,1-.651.651h-.13v19.793h0a6.012,6.012,0,1,0,6.013-6.013.651.651,0,0,1,0-1.3,7.326,7.326,0,0,1,7.235,6.246,6.011,6.011,0,0,0,7.677-8.075,5.864,5.864,0,0,0-.618-1.062,6.022,6.022,0,0,0-7.337-1.933.651.651,0,0,1-.538-1.186,7.26,7.26,0,0,1,3-.648,7.34,7.34,0,0,1,5.529,2.5,6.01,6.01,0,0,0-.894-10.144l-.031.077a7.316,7.316,0,0,1-9.627,3.785.651.651,0,0,1,.521-1.194,6.013,6.013,0,0,0,7.912-3.11,6.148,6.148,0,0,0,.233-.626,6.009,6.009,0,0,0-5.744-7.786h-.01c0,.053,0,.107,0,.16a7.322,7.322,0,0,1-7.315,7.315.651.651,0,1,1,0-1.3,6.019,6.019,0,0,0,6.013-6.013,5.879,5.879,0,0,0-.042-.7,6.014,6.014,0,0,0-3.608-4.83Z" transform="translate(-193.607 -140.409)" opacity="0.2"/>
      <path id="Trazado_741910" data-name="Trazado 741910" d="M65.108,162.476a12.6,12.6,0,0,0,4.027,4.368,1.432,1.432,0,0,0,.709,2.35V175a1.434,1.434,0,0,0,1.432,1.432h.986v.388a1.434,1.434,0,0,0,.78,1.275v19.17a5.231,5.231,0,1,1-5.23-5.231,1.432,1.432,0,1,0,0-2.864,8.145,8.145,0,0,0-7.925,6.44,5.232,5.232,0,0,1-6.275-7.168,5.1,5.1,0,0,1,.538-.925,5.248,5.248,0,0,1,4.236-2.143,5.164,5.164,0,0,1,2.145.463,1.432,1.432,0,1,0,1.182-2.608,8,8,0,0,0-3.324-.717,8.111,8.111,0,0,0-5.579,2.211,5.23,5.23,0,0,1,.618-7.957,8.1,8.1,0,0,0,10.3,3.465,1.432,1.432,0,0,0-1.147-2.625,5.178,5.178,0,0,1-2.08.435,5.236,5.236,0,0,1-4.8-3.142,5.352,5.352,0,0,1-.2-.547,5.225,5.225,0,0,1,4.25-6.718,8.107,8.107,0,0,0,8.068,7.421,1.432,1.432,0,1,0,0-2.864,5.237,5.237,0,0,1-5.231-5.231,4.932,4.932,0,0,1,.036-.605v-.007a5.232,5.232,0,0,1,2.493-3.868m.339-1.049a6.011,6.011,0,0,0-3.608,4.828,5.691,5.691,0,0,0-.042.7,6.019,6.019,0,0,0,6.013,6.013.651.651,0,1,1,0,1.3,7.322,7.322,0,0,1-7.315-7.315c0-.053,0-.107,0-.16H60.49a6.009,6.009,0,0,0-5.744,7.785,6.134,6.134,0,0,0,.233.628,6.012,6.012,0,0,0,7.912,3.11.651.651,0,0,1,.521,1.194,7.317,7.317,0,0,1-9.627-3.784l-.031-.078A6.012,6.012,0,0,0,52.86,185.8a7.336,7.336,0,0,1,5.529-2.5,7.261,7.261,0,0,1,3,.648.651.651,0,1,1-.538,1.185,6.025,6.025,0,0,0-7.335,1.932,5.861,5.861,0,0,0-.62,1.065,6.01,6.01,0,0,0,7.677,8.075,7.326,7.326,0,0,1,7.236-6.246.651.651,0,0,1,0,1.3,6.013,6.013,0,1,0,6.011,6.013s0,0,0,0V177.47h-.129a.65.65,0,0,1-.651-.651V175.65H71.276a.651.651,0,0,1-.651-.651v-6.542H70.2a.651.651,0,0,1,0-1.3h.43v-.337a11.717,11.717,0,0,1-5.178-5.39Z" transform="translate(-8.702 -140.409)" opacity="0.2"/>
      <path id="Trazado_741911" data-name="Trazado 741911" d="M217.608,217.238a.651.651,0,0,0,.651.651h5.1v1.034h-5.1a.651.651,0,0,0,0,1.3h5.1v1.083h-8.122v-5.891h8.122v1.17h-5.1A.651.651,0,0,0,217.608,217.238Z" transform="translate(-152.013 -187.37)" fill="#e1e1e5"/>
      <path id="Trazado_741912" data-name="Trazado 741912" d="M187.563,54.02a10.3,10.3,0,0,1-.651,3.6,10.444,10.444,0,0,1-1.51,2.724,10.309,10.309,0,0,1-1.275,1.38,10.141,10.141,0,0,1-1.45,1.1c-.267.167-.542.323-.825.465-.072.036-.145.072-.217.107-.013.007-.025.016-.038.022s-.04.023-.06.038a.373.373,0,0,0-.049.04.454.454,0,0,0-.046.042c-.014.016-.027.033-.042.049s-.025.033-.035.049a.571.571,0,0,0-.03.055c-.009.02-.02.038-.027.057a.55.55,0,0,0-.018.061c-.005.02-.012.039-.016.06a.66.66,0,0,0-.007.072c0,.014-.005.029-.005.043v.741H173.14v-.741c0-.017,0-.031-.005-.048a.55.55,0,0,0-.007-.065.62.62,0,0,0-.017-.066.365.365,0,0,0-.017-.053.563.563,0,0,0-.029-.064c-.009-.017-.017-.033-.027-.049a.511.511,0,0,0-.039-.053c-.012-.016-.025-.031-.038-.046a.541.541,0,0,0-.049-.046.439.439,0,0,0-.046-.038c-.02-.014-.042-.026-.064-.039s-.022-.014-.035-.021a10.418,10.418,0,0,1-5.929-9.369,10.3,10.3,0,0,1,1.1-4.648q.213-.424.465-.824a10.464,10.464,0,0,1,2.471-2.73,10.356,10.356,0,0,1,16.686,8.2Z" transform="translate(-109.915 -37.973)" fill="#f9c139"/>
      <path id="Trazado_741913" data-name="Trazado 741913" d="M173.791,92.813h7.545a0,0,0,0,0,0,0c-.009.02-.02.038-.027.057a.551.551,0,0,0-.018.061c-.005.02-.012.039-.016.06a.66.66,0,0,0-.007.072c0,.014-.005.029-.005.043v.741H173.14v-.741c0-.017,0-.031-.005-.048a.55.55,0,0,0-.007-.065.624.624,0,0,0-.017-.066.367.367,0,0,0-.017-.053.563.563,0,0,0-.029-.064c-.009-.017-.017-.033-.027-.049a.51.51,0,0,0-.039-.053c-.012-.016-.025-.031-.038-.046a.544.544,0,0,0-.049-.046.439.439,0,0,0-.046-.038c-.02-.014-.042-.026-.064-.039s-.022-.014-.035-.021a10.418,10.418,0,0,1-5.929-9.369,10.3,10.3,0,0,1,1.922-6,10.29,10.29,0,0,0-1.271,4.967,10.418,10.418,0,0,0,5.929,9.369c.013.007.023.014.035.021s.044.025.064.039a.436.436,0,0,1,.046.038.537.537,0,0,1,.049.046c.013.014.026.03.038.046a.513.513,0,0,1,.039.053c.01.017.018.033.027.049a.56.56,0,0,1,.029.064.365.365,0,0,1,.017.053.623.623,0,0,1,.017.066.553.553,0,0,1,.007.065c0,.017.005.031.005.048v.741Z" transform="translate(-109.915 -67.103)" opacity="0.2"/>
      <g id="Grupo_988596" data-name="Grupo 988596" transform="translate(51.456)">
        <path id="Trazado_741914" data-name="Trazado 741914" d="M242.079,3.039a.651.651,0,0,0,.651-.651V.651a.651.651,0,1,0-1.3,0V2.388A.651.651,0,0,0,242.079,3.039Z" transform="translate(-226.249)" fill="#23130d"/>
        <path id="Trazado_741915" data-name="Trazado 741915" d="M184.093,18.1a.651.651,0,0,0,1.128-.651l-.868-1.5a.651.651,0,0,0-1.128.651Z" transform="translate(-175.548 -13.587)" fill="#23130d"/>
        <path id="Trazado_741916" data-name="Trazado 741916" d="M140.793,59.506l1.5.868a.651.651,0,1,0,.651-1.128l-1.5-.868a.651.651,0,1,0-.651,1.128Z" transform="translate(-138.433 -50.702)" fill="#23130d"/>
        <path id="Trazado_741917" data-name="Trazado 741917" d="M125.5,117.887h1.737a.651.651,0,0,0,0-1.3H125.5a.651.651,0,0,0,0,1.3Z" transform="translate(-124.845 -101.406)" fill="#23130d"/>
        <path id="Trazado_741918" data-name="Trazado 741918" d="M344.675,117.24a.651.651,0,0,0,.651.651h1.736a.651.651,0,1,0,0-1.3h-1.736A.651.651,0,0,0,344.675,117.24Z" transform="translate(-316.053 -101.409)" fill="#23130d"/>
        <path id="Trazado_741919" data-name="Trazado 741919" d="M331.492,60.463a.647.647,0,0,0,.325-.087l1.5-.868a.651.651,0,1,0-.651-1.128l-1.5.868a.651.651,0,0,0,.326,1.215Z" transform="translate(-304.02 -50.703)" fill="#23130d"/>
        <path id="Trazado_741920" data-name="Trazado 741920" d="M293.376,18.34a.651.651,0,0,0,.889-.238l.869-1.5a.651.651,0,1,0-1.128-.651l-.869,1.5A.651.651,0,0,0,293.376,18.34Z" transform="translate(-271.151 -13.587)" fill="#23130d"/>
      </g>
      <rect id="Rectángulo_345719" data-name="Rectángulo 345719" width="0.947" height="5.891" transform="translate(63.225 28.047)" opacity="0.2"/>
      <g id="Grupo_988598" data-name="Grupo 988598" transform="translate(57.159 6.218)">
        <g id="Grupo_988597" data-name="Grupo 988597" transform="translate(0 0.112)" opacity="0.2">
          <path id="Trazado_741921" data-name="Trazado 741921" d="M183.426,101.457c-.072.036-.145.072-.217.107-.013.007-.025.016-.038.022s-.04.023-.06.038a.371.371,0,0,0-.049.04.454.454,0,0,0-.046.042c-.014.016-.027.033-.042.049s-.025.033-.035.049a.566.566,0,0,0-.03.055c-.009.02-.02.038-.027.057a.547.547,0,0,0-.018.061c-.005.02-.012.039-.016.06a.667.667,0,0,0-.007.072c0,.014-.005.029-.005.043v.741h-1.288l-12.9-12.9a10.214,10.214,0,0,1,.867-2.446Z" transform="translate(-168.648 -82.478)" fill="#fff"/>
          <path id="Trazado_741922" data-name="Trazado 741922" d="M194.6,84.684a10.14,10.14,0,0,1-1.45,1.1L178.878,71.51a10.181,10.181,0,0,1,1.095-1.453Z" transform="translate(-177.546 -67.266)" fill="#fff"/>
          <path id="Trazado_741923" data-name="Trazado 741923" d="M213.893,61.931a10.443,10.443,0,0,1-1.51,2.724L197.858,50.131a10.332,10.332,0,0,1,2.722-1.514Z" transform="translate(-194.055 -48.617)" fill="#fff"/>
        </g>
        <path id="Trazado_741924" data-name="Trazado 741924" d="M251.281,58.258a.651.651,0,0,1-.651-.651,8.56,8.56,0,0,0-8.551-8.551.651.651,0,1,1,0-1.3,9.864,9.864,0,0,1,9.853,9.853A.651.651,0,0,1,251.281,58.258Z" transform="translate(-231.952 -47.754)" fill="#fff"/>
      </g>
    </g>
  </g>
</svg>
