<svg xmlns="http://www.w3.org/2000/svg" width="104" height="104" viewBox="0 0 104 104">
  <g id="Grupo_988641" data-name="Grupo 988641" transform="translate(-221 -10815)">
    <g id="Grupo_988640" data-name="Grupo 988640">
      <rect id="Rectángulo_345208" data-name="Rectángulo 345208" width="104" height="104" rx="7" transform="translate(221 10815)" fill="#ff6e33"/>
      <g id="pregunta" transform="translate(222.86 10829)">
        <path id="Trazado_742101" data-name="Trazado 742101" d="M65.922,312l13.891,2.316a12.332,12.332,0,0,1,10.04,9.623l3.2,15.19H24l3.2-15.191a12.332,12.332,0,0,1,10.04-9.623L51.125,312Z" transform="translate(-8.337 -263.909)" fill="#ececec"/>
        <g id="Grupo_988639" data-name="Grupo 988639" transform="translate(35.389 48.091)">
          <path id="Trazado_742102" data-name="Trazado 742102" d="M262.793,313.233l-4.932,14.8L248,319.4l7.4-7.4Z" transform="translate(-233.199 -312)" fill="#b6c1ce"/>
          <path id="Trazado_742103" data-name="Trazado 742103" d="M310.192,339.129h6.166l-3.2-15.191a12.332,12.332,0,0,0-10.039-9.623L289.229,312H288l15.464,8.247a7.4,7.4,0,0,1,3.752,4.978Z" transform="translate(-267.033 -312)" fill="#b6c1ce"/>
          <path id="Trazado_742104" data-name="Trazado 742104" d="M152,313.233l4.932,14.8,9.865-8.632-7.4-7.4Z" transform="translate(-151.996 -312)" fill="#b6c1ce"/>
        </g>
        <path id="Trazado_742105" data-name="Trazado 742105" d="M214.793,280v4.932l-7.4,7.4-7.4-7.4V280Z" transform="translate(-157.208 -236.841)" fill="#f9e0a6"/>
        <path id="Trazado_742106" data-name="Trazado 742106" d="M202.284,366.166l4.58,4.932L204.4,379.73h9.865L211.8,371.1l4.58-4.932L209.33,360Z" transform="translate(-159.144 -304.51)" fill="#fb5968"/>
        <circle id="Elipse_5926" data-name="Elipse 5926" cx="22.196" cy="22.196" r="22.196" transform="translate(27.99 1.233)" fill="#92e0c0"/>
        <path id="Trazado_742107" data-name="Trazado 742107" d="M237.846,8c-.624,0-1.238.043-1.85.094a22.178,22.178,0,0,1,0,44.2c.612.051,1.226.094,1.85.094a22.2,22.2,0,0,0,0-44.392Z" transform="translate(-187.659 -6.767)" fill="#48c397"/>
        <circle id="Elipse_5927" data-name="Elipse 5927" cx="2.466" cy="2.466" r="2.466" transform="translate(47.72 33.294)" fill="#ececec"/>
        <path id="Trazado_742108" data-name="Trazado 742108" d="M82.722,59.776A13.484,13.484,0,0,0,71.678,49.191l-12.86-2.144V45.19a23.429,23.429,0,1,0-17.264,0v1.857L28.693,49.191A13.485,13.485,0,0,0,17.649,59.776L14.14,76.453H86.234Zm-2.413.508,2.885,13.7H75.952l-1.111-10-2.45.273,1.08,9.728H56.049l-2.042-7.148,2.882-3.845,3.746,3.278L65.82,50.714l5.453.909A11.031,11.031,0,0,1,80.309,60.285ZM48.382,55.43,40.9,61.973,37.016,50.3l5.349-.892Zm9.626-6.018,5.349.892L59.468,61.973,51.99,55.43Zm-7.877,7.766.055.055.055-.055,4.786,4.188L51.3,66.338l2.186,7.649h-6.6l2.186-7.649-3.73-4.972ZM29.223,23.429A20.963,20.963,0,1,1,50.186,44.392,20.986,20.986,0,0,1,29.223,23.429ZM50.186,46.858a23.288,23.288,0,0,0,6.166-.851v1.573l-6.166,6.166-6.166-6.166V46.008A23.288,23.288,0,0,0,50.186,46.858ZM20.064,60.285a11.033,11.033,0,0,1,9.036-8.66l5.453-.909,5.185,15.557,3.746-3.278,2.882,3.845-2.042,7.147H26.9l1.081-9.729-2.45-.273-1.112,10H17.178Z"/>
        <path id="Trazado_742109" data-name="Trazado 742109" d="M206.778,50.466a4.321,4.321,0,0,1,4.316,4.316v.784a4.3,4.3,0,0,1-1.264,3.053l-3.669,3.667v6.676h2.466V63.308l2.947-2.946a6.741,6.741,0,0,0,1.985-4.8v-.783a6.782,6.782,0,0,0-13.564,0V55.4h2.466v-.617A4.321,4.321,0,0,1,206.778,50.466Z" transform="translate(-157.208 -40.601)"/>
        <path id="Trazado_742110" data-name="Trazado 742110" d="M231.395,211.7a3.7,3.7,0,1,0-3.7,3.7A3.7,3.7,0,0,0,231.395,211.7Zm-4.932,0a1.233,1.233,0,1,1,1.233,1.233A1.234,1.234,0,0,1,226.462,211.7Z" transform="translate(-177.509 -175.939)"/>
      </g>
    </g>
  </g>
</svg>
