<svg xmlns="http://www.w3.org/2000/svg" width="309" height="260" viewBox="0 0 309 260">
  <g id="Grupo_987326" data-name="Grupo 987326" transform="translate(-1858 10345)">
    <rect id="kitchen-scale-g31e4b8c17_1280" width="309" height="260" rx="24" transform="translate(1858 -10345)" fill="#d2d7e3"/>
    <g id="Grupo_987325" data-name="Grupo 987325" transform="translate(2 6)">
      <g id="Grupo_987319" data-name="Grupo 987319" transform="translate(616 -419)">
        <circle id="Elipse_4726" data-name="Elipse 4726" cx="20" cy="20" r="20" transform="translate(1295 -9876)" fill="#ea526f"/>
        <path id="Trazado_742154" data-name="Trazado 742154" d="M.575-1.983a4.034,4.034,0,0,0,2.619-.908A3.2,3.2,0,0,0,4.435-5.162H7.084a5.078,5.078,0,0,1-.969,2.679A6.38,6.38,0,0,1,3.731-.454,6.879,6.879,0,0,1,.575.3,6.747,6.747,0,0,1-4.745-1.93,8.892,8.892,0,0,1-6.721-8.038v-.469a9.86,9.86,0,0,1,.878-4.253,6.687,6.687,0,0,1,2.52-2.891A7.159,7.159,0,0,1,.56-16.681a6.568,6.568,0,0,1,4.579,1.65,5.9,5.9,0,0,1,1.945,4.284H4.435a3.859,3.859,0,0,0-1.2-2.611A3.743,3.743,0,0,0,.56-14.38a3.919,3.919,0,0,0-3.307,1.536A7.215,7.215,0,0,0-3.92-8.4v.53A7.072,7.072,0,0,0-2.755-3.512,3.938,3.938,0,0,0,.575-1.983Z" transform="translate(1315 -9847)" fill="#12263f"/>
      </g>
      <g id="Grupo_987322" data-name="Grupo 987322" transform="translate(776 -419)">
        <circle id="Elipse_4726-2" data-name="Elipse 4726" cx="20" cy="20" r="20" transform="translate(1295 -9876)" fill="#ea526f"/>
        <path id="Trazado_742157" data-name="Trazado 742157" d="M.015-3.8,4.072-16.378H6.933L1.06,0H-1.075L-7.008-16.378h2.861Z" transform="translate(1315 -9847)" fill="#12263f"/>
      </g>
      <g id="Grupo_987320" data-name="Grupo 987320" transform="translate(616 -365)">
        <circle id="Elipse_4726-3" data-name="Elipse 4726" cx="20" cy="20" r="20" transform="translate(1295 -9876)" fill="#ea526f"/>
        <path id="Trazado_742155" data-name="Trazado 742155" d="M.575-1.983a4.034,4.034,0,0,0,2.619-.908A3.2,3.2,0,0,0,4.435-5.162H7.084a5.078,5.078,0,0,1-.969,2.679A6.38,6.38,0,0,1,3.731-.454,6.879,6.879,0,0,1,.575.3,6.747,6.747,0,0,1-4.745-1.93,8.892,8.892,0,0,1-6.721-8.038v-.469a9.86,9.86,0,0,1,.878-4.253,6.687,6.687,0,0,1,2.52-2.891A7.159,7.159,0,0,1,.56-16.681a6.568,6.568,0,0,1,4.579,1.65,5.9,5.9,0,0,1,1.945,4.284H4.435a3.859,3.859,0,0,0-1.2-2.611A3.743,3.743,0,0,0,.56-14.38a3.919,3.919,0,0,0-3.307,1.536A7.215,7.215,0,0,0-3.92-8.4v.53A7.072,7.072,0,0,0-2.755-3.512,3.938,3.938,0,0,0,.575-1.983Z" transform="translate(1315 -9847)" fill="#12263f"/>
      </g>
      <g id="Grupo_987323" data-name="Grupo 987323" transform="translate(776 -365)">
        <circle id="Elipse_4726-4" data-name="Elipse 4726" cx="20" cy="20" r="20" transform="translate(1295 -9876)" fill="#ea526f"/>
        <path id="Trazado_742158" data-name="Trazado 742158" d="M.015-3.8,4.072-16.378H6.933L1.06,0H-1.075L-7.008-16.378h2.861Z" transform="translate(1315 -9847)" fill="#12263f"/>
      </g>
      <g id="Grupo_987321" data-name="Grupo 987321" transform="translate(616 -311)">
        <circle id="Elipse_4726-5" data-name="Elipse 4726" cx="20" cy="20" r="20" transform="translate(1295 -9876)" fill="#ea526f"/>
        <path id="Trazado_742156" data-name="Trazado 742156" d="M.575-1.983a4.034,4.034,0,0,0,2.619-.908A3.2,3.2,0,0,0,4.435-5.162H7.084a5.078,5.078,0,0,1-.969,2.679A6.38,6.38,0,0,1,3.731-.454,6.879,6.879,0,0,1,.575.3,6.747,6.747,0,0,1-4.745-1.93,8.892,8.892,0,0,1-6.721-8.038v-.469a9.86,9.86,0,0,1,.878-4.253,6.687,6.687,0,0,1,2.52-2.891A7.159,7.159,0,0,1,.56-16.681a6.568,6.568,0,0,1,4.579,1.65,5.9,5.9,0,0,1,1.945,4.284H4.435a3.859,3.859,0,0,0-1.2-2.611A3.743,3.743,0,0,0,.56-14.38a3.919,3.919,0,0,0-3.307,1.536A7.215,7.215,0,0,0-3.92-8.4v.53A7.072,7.072,0,0,0-2.755-3.512,3.938,3.938,0,0,0,.575-1.983Z" transform="translate(1315 -9847)" fill="#12263f"/>
      </g>
      <g id="Grupo_987324" data-name="Grupo 987324" transform="translate(776 -311)">
        <circle id="Elipse_4726-6" data-name="Elipse 4726" cx="20" cy="20" r="20" transform="translate(1295 -9876)" fill="#ea526f"/>
        <path id="Trazado_742159" data-name="Trazado 742159" d="M.015-3.8,4.072-16.378H6.933L1.06,0H-1.075L-7.008-16.378h2.861Z" transform="translate(1315 -9847)" fill="#12263f"/>
      </g>
      <line id="Línea_215" data-name="Línea 215" x2="120" y2="102" transform="translate(1950 -10269)" fill="none" stroke="#9f0925" stroke-width="1"/>
      <line id="Línea_216" data-name="Línea 216" x2="120" y2="48" transform="translate(1949 -10268.5)" fill="none" stroke="#9f0925" stroke-width="1"/>
      <line id="Línea_217" data-name="Línea 217" x2="120.5" y2="51" transform="translate(1949.5 -10218)" fill="none" stroke="#9f0925" stroke-width="1"/>
      <line id="Línea_218" data-name="Línea 218" y1="3" x2="120.5" transform="translate(1948.5 -10221)" fill="none" stroke="#9f0925" stroke-width="1"/>
      <line id="Línea_219" data-name="Línea 219" y1="55" x2="118.5" transform="translate(1951 -10272.5)" fill="none" stroke="#9f0925" stroke-width="1"/>
      <line id="Línea_220" data-name="Línea 220" x2="118" transform="translate(1951.5 -10166.5)" fill="none" stroke="#9f0925" stroke-width="1"/>
      <line id="Línea_221" data-name="Línea 221" y1="54" x2="118" transform="translate(1951.5 -10220.5)" fill="none" stroke="#9f0925" stroke-width="1"/>
      <line id="Línea_222" data-name="Línea 222" y1="106" x2="118" transform="translate(1951.5 -10272.5)" fill="none" stroke="#9f0925" stroke-width="1"/>
      <line id="Línea_223" data-name="Línea 223" y2="19" transform="translate(2070 -10177)" fill="none" stroke="#9f0925" stroke-width="2"/>
      <line id="Línea_224" data-name="Línea 224" y2="19" transform="translate(2070 -10230)" fill="none" stroke="#9f0925" stroke-width="2"/>
      <path id="Trazado_742114" data-name="Trazado 742114" d="M0,0V19" transform="translate(2069 -10282)" fill="none" stroke="#9f0925" stroke-width="2"/>
    </g>
  </g>
</svg>
