<svg xmlns="http://www.w3.org/2000/svg" xmlns:xlink="http://www.w3.org/1999/xlink" width="400" height="671.759" viewBox="0 0 400 671.759">
  <defs>
    <clipPath id="clip-path">
      <path id="Trazado_735920" data-name="Trazado 735920" d="M165.758,324.286l264.1-79.928L263.49,179.587Z" transform="translate(-165.758 -179.587)" fill="none"/>
    </clipPath>
    <clipPath id="clip-path-2">
      <rect id="Rectángulo_345600" data-name="Rectángulo 345600" width="275.929" height="178.507" transform="translate(0 79.929) rotate(-16.838)" fill="none"/>
    </clipPath>
    <clipPath id="clip-path-3">
      <path id="Trazado_736493" data-name="Trazado 736493" d="M266.672,266.595l31.6,37.618,3.984-45.841-10.859-16Z" transform="translate(-266.672 -242.372)" fill="none"/>
    </clipPath>
    <clipPath id="clip-path-4">
      <path id="Trazado_736755" data-name="Trazado 736755" d="M203.27,189.411l-3.387,39.458a2.7,2.7,0,0,0,2.459,2.921l7.309.627a2.7,2.7,0,0,0,2.921-2.459l3.385-39.458a2.7,2.7,0,0,0-2.458-2.919l-7.309-.627c-.079-.008-.156-.011-.234-.011a2.7,2.7,0,0,0-2.687,2.468" transform="translate(-199.874 -186.943)" fill="none"/>
    </clipPath>
    <clipPath id="clip-path-5">
      <path id="Trazado_737018" data-name="Trazado 737018" d="M210.128,181.348a10.419,10.419,0,1,0,11.3-9.985c-.288-.025-.576-.037-.861-.037a10.723,10.723,0,0,0-10.442,10.022" transform="translate(-210.085 -171.326)" fill="none"/>
    </clipPath>
    <clipPath id="clip-path-6">
      <path id="Trazado_737486" data-name="Trazado 737486" d="M191.3,199.777l32.529,2.792c5.708.446,10.99-6.913,11.811-16.475s-3.13-17.714-8.832-18.247v0l-32.529-2.791Z" transform="translate(-191.299 -165.055)" fill="none"/>
    </clipPath>
    <clipPath id="clip-path-7">
      <path id="Trazado_737710" data-name="Trazado 737710" d="M168.256,222.043l35.684-14.908c5.708.446,10.99-6.913,11.811-16.475s-3.131-17.714-8.831-18.247L174.3,151.643Z" transform="translate(-168.256 -151.643)" fill="none"/>
    </clipPath>
    <clipPath id="clip-path-8">
      <path id="Trazado_738102" data-name="Trazado 738102" d="M160.02,185.488c-1.668,19.436,4.135,35.8,12.958,36.563s17.332-14.386,19-33.821-4.133-35.808-12.957-36.565c-.212-.019-.424-.026-.636-.026-8.593,0-16.734,14.879-18.363,33.849" transform="translate(-159.734 -151.639)" fill="none"/>
    </clipPath>
    <clipPath id="clip-path-9">
      <path id="Trazado_738364" data-name="Trazado 738364" d="M161.16,184.25c-1.48,17.268,3.673,31.811,11.512,32.484s15.4-12.78,16.879-30.048-3.672-31.814-11.512-32.486c-.187-.017-.376-.025-.564-.025-7.636,0-14.869,13.22-16.316,30.075" transform="translate(-160.906 -154.175)" fill="none"/>
    </clipPath>
    <clipPath id="clip-path-10">
      <path id="Trazado_738543" data-name="Trazado 738543" d="M170.959,177.694a10.062,10.062,0,0,0,11.563,10.8,68.088,68.088,0,0,0,1.668-19.462,10.059,10.059,0,0,0-2.354-.489c-.293-.025-.584-.037-.872-.037a10.056,10.056,0,0,0-10.005,9.194" transform="translate(-170.922 -168.5)" fill="none"/>
    </clipPath>
    <clipPath id="clip-path-11">
      <rect id="Rectángulo_345620" data-name="Rectángulo 345620" width="7.297" height="5.806" fill="none"/>
    </clipPath>
    <clipPath id="clip-path-13">
      <rect id="Rectángulo_345622" data-name="Rectángulo 345622" width="7.297" height="6.594" fill="none"/>
    </clipPath>
    <clipPath id="clip-path-15">
      <rect id="Rectángulo_345624" data-name="Rectángulo 345624" width="7.257" height="5.868" fill="none"/>
    </clipPath>
    <clipPath id="clip-path-17">
      <rect id="Rectángulo_345626" data-name="Rectángulo 345626" width="6.499" height="5.126" fill="none"/>
    </clipPath>
    <clipPath id="clip-path-19">
      <path id="Trazado_738827" data-name="Trazado 738827" d="M215.844,240.247s-20.105,49.293-11.164,49.333c12.37.056,35.969-29.271,35.969-29.271l1.149-28.793Z" transform="translate(-202.388 -231.516)" fill="none"/>
    </clipPath>
    <clipPath id="clip-path-20">
      <path id="Trazado_739539" data-name="Trazado 739539" d="M200.643,127.164,313,76.9,235.816,58.31Z" transform="translate(-200.643 -58.31)" fill="none"/>
    </clipPath>
    <clipPath id="clip-path-21">
      <rect id="Rectángulo_345638" data-name="Rectángulo 345638" width="123.083" height="79.626" transform="matrix(0.913, -0.408, 0.408, 0.913, 0, 50.261)" fill="none"/>
    </clipPath>
    <clipPath id="clip-path-22">
      <path id="Trazado_740538" data-name="Trazado 740538" d="M324.986,387.906l84.6,51.543-22.9-59.653Z" transform="translate(-324.986 -379.796)" fill="none"/>
    </clipPath>
    <clipPath id="clip-path-23">
      <rect id="Rectángulo_345648" data-name="Rectángulo 345648" width="64.089" height="99.065" transform="translate(0 54.731) rotate(-58.649)" fill="none"/>
    </clipPath>
  </defs>
  <g id="Grupo_988419" data-name="Grupo 988419" transform="translate(-1020 -1289.81)">
    <g id="Grupo_988402" data-name="Grupo 988402" transform="translate(-20355 11700)">
      <g id="Grupo_987233" data-name="Grupo 987233" transform="translate(21534 -10171)">
        <rect id="Rectángulo_344916" data-name="Rectángulo 344916" width="241" height="425" rx="17" fill="#ff6e33"/>
      </g>
      <rect id="AdobeStock_31320034" width="380" height="475" rx="24" transform="translate(21375 -10317)" fill="#fef3ee"/>
      <path id="Trazado_735757" data-name="Trazado 735757" d="M429.856,244.357,263.49,179.586l-97.732,144.7Z" transform="translate(21245.93 -10342.484)" fill="#d7daff"/>
      <rect id="Rectángulo_345597" data-name="Rectángulo 345597" width="275.929" height="178.506" transform="matrix(0.957, -0.29, 0.29, 0.957, 21411.689, -10018.197)" fill="#989ee0"/>
      <path id="Trazado_736208" data-name="Trazado 736208" d="M275.541,218.616V189.8H257.883v22.82l-7.819.506-.773,35.23Z" transform="translate(21291.754 -10336.883)" fill="#ef8e4d"/>
      <path id="Trazado_736209" data-name="Trazado 736209" d="M254.839,192.317l9.931-1.522,7.518,1.6s-8.317,7.569-17.449,9.093Z" transform="translate(21294.797 -10336.335)"/>
      <path id="Trazado_736210" data-name="Trazado 736210" d="M266.706,162.771s-17.1-.477-20.6,18.18.248,28,7.771,29.689,28.768,2.9,33.029-15.287-3.56-26.423-3.56-26.423Z" transform="translate(21289.283 -10351.709)" fill="#ef8e4d"/>
      <path id="Trazado_736211" data-name="Trazado 736211" d="M248.173,184.3a.772.772,0,0,1-.706-.457L246,180.567a.775.775,0,0,1,.706-1.092h3.192a.774.774,0,1,1,0,1.549h-2l.982,2.185a.775.775,0,0,1-.39,1.024.764.764,0,0,1-.316.068" transform="translate(21289.908 -10342.545)"/>
      <path id="Trazado_736212" data-name="Trazado 736212" d="M280.934,209s-3.326-10.952,2.879-18.448c0,0-7.8-9.236-7.52-14.571,0,0-11.456.994-13.22-3.878-.982-2.715,3.35-3.936,3.35-3.936s-10.572,2.9-15.113-1.637c-4.238-4.24-.825-7.983,5.141-7.168,4.119.564,10.324,4.046,10.324,4.046s-1.629-7.991,3.34-7.647c3.308.229,5.756,9.4,9.316,12.254s8.376,7.26,9.787,10.492c0,0,.76-7.023,5.522-5.171,3.049,1.188-1.076,9.437-1,14.1.1,5.821-2.489,20.563-13.6,22.467Z" transform="translate(21291.826 -10355.558)"/>
      <path id="Trazado_736213" data-name="Trazado 736213" d="M250.868,174.274a.777.777,0,0,1-.557-.237c-1.048-1.089-2.594-2.1-3.1-1.823a.774.774,0,1,1-.749-1.355c1.829-1.014,4.455,1.575,4.965,2.1a.775.775,0,0,1-.559,1.31" transform="translate(21289.982 -10347.399)"/>
      <path id="Trazado_736214" data-name="Trazado 736214" d="M255.58,174.925a.774.774,0,0,1-.263-1.5c.192-.07,4.751-1.685,8.441-.424a.775.775,0,0,1-.5,1.466c-3.17-1.084-7.373.4-7.416.413a.778.778,0,0,1-.262.046" transform="translate(21294.779 -10346.36)"/>
      <path id="Trazado_736215" data-name="Trazado 736215" d="M259.493,163.7c4.472-1.034,17.762-4.252,26.9,6.259,10.913,12.548,10.811,31.436-10.663,38.3l4.217-5.025,2.7-6.244-1.846,2.092-.031-6.091s-9.027-11.3-5.776-18.3c2.447-5.267-3.391-1.389-9.641-.369-7.724,1.261-17.082-2.349-17.084-7.085,0-3.085,8.766-2.972,11.226-3.542" transform="translate(21291.191 -10351.9)" fill="#000300"/>
      <path id="Trazado_736216" data-name="Trazado 736216" d="M269.052,185.59s3.531-4.818,7.284-2.029,1.81,8.231-1.58,9.762c-2.374,1.072-7.5.451-7.5-3.477s1.8-4.257,1.8-4.257" transform="translate(21301.609 -10340.779)" fill="#ef8e4d"/>
      <path id="Trazado_736217" data-name="Trazado 736217" d="M268.519,188.314a.775.775,0,0,1-.44-1.412c.19-.132,4.734-3.216,8.054-1.93a.774.774,0,1,1-.559,1.443c-2.128-.828-5.5.991-6.617,1.762a.777.777,0,0,1-.438.136" transform="translate(21301.877 -10339.701)"/>
      <path id="Trazado_736218" data-name="Trazado 736218" d="M271.122,190.638a.774.774,0,0,1-.706-.454l-1.589-3.517a.774.774,0,1,1,1.411-.64l1.589,3.517a.77.77,0,0,1-.7,1.093" transform="translate(21302.434 -10339.199)"/>
      <path id="Trazado_736219" data-name="Trazado 736219" d="M247.61,184.695c1.352-.252,5.894.952,7.952,3.012s-2.08,3.158-4,2.961c-2.859-.293-5.714-5.643-3.953-5.973" transform="translate(21290.535 -10339.7)"/>
      <path id="Trazado_736220" data-name="Trazado 736220" d="M251.823,185.263h0A10.593,10.593,0,0,1,255.4,187.4c2.06,2.058-2.081,3.158-4,2.961-1.631-.167-3.26-1.981-4.033-3.568a5.386,5.386,0,0,1,4.455-1.525" transform="translate(21290.699 -10339.387)" fill="#ff1300"/>
      <path id="Trazado_736221" data-name="Trazado 736221" d="M252.715,182.445s7.069-13,14.786-.372c0,0-5.2,8.167-14.786.372" transform="translate(21293.633 -10344.146)" fill="#fff"/>
      <path id="Trazado_736222" data-name="Trazado 736222" d="M253.89,181.379a6.045,6.045,0,0,1,.273-1.807c1.525-1.676,3.774-3.382,6.389-2.945a5.453,5.453,0,0,1,2.538,4.753,5.588,5.588,0,0,1-1.959,4.351,9.98,9.98,0,0,1-6.538-1.527,5.922,5.922,0,0,1-.7-2.825" transform="translate(21294.277 -10344.146)"/>
      <path id="Trazado_736223" data-name="Trazado 736223" d="M249.878,182.244s.706-11.631-4.155-6.755c0,0-2.5,8.268,4.155,6.755" transform="translate(21289.545 -10345.387)" fill="#fff"/>
      <path id="Trazado_736224" data-name="Trazado 736224" d="M248.64,174.663a8.187,8.187,0,0,1,.788,3.7,7.662,7.662,0,0,1-1,4.065c-4.805.031-2.7-6.939-2.7-6.939,1.364-1.369,2.29-1.437,2.916-.825" transform="translate(21289.545 -10345.388)"/>
      <path id="Trazado_736225" data-name="Trazado 736225" d="M231.11,284.094v31.453l90.293-7.856-7.565-27.6Z" transform="translate(21281.781 -10287.352)" fill="#000300"/>
      <path id="Trazado_736226" data-name="Trazado 736226" d="M191.775,225.414c.254,3.893,8.006,5.1,17.183,1.824s15.549-8.915,14.236-12.59-9.815-3.994-18.992-.715-12.593,8.948-12.427,11.481" transform="translate(21260.199 -10324.885)" fill="#000300"/>
      <path id="Trazado_736227" data-name="Trazado 736227" d="M220.542,207.537l-.751,17.476s-5.14,48.272-12.365,43.8c-6.761-4.183-9.288-50.457-9.288-50.457Z" transform="translate(21263.693 -10327.151)" fill="#ef8e4d"/>
      <path id="Trazado_736228" data-name="Trazado 736228" d="M292.429,299.352c1.576,7.182,6.711,10.457,13.294,10.47,0,0,4.768-.887,4.768-9.471,0-11.343-5.336-20.537-11.919-20.537s-8.574,8.46-6.143,19.538" transform="translate(21314.871 -10287.502)" fill="#000300"/>
      <path id="Trazado_736229" data-name="Trazado 736229" d="M303.81,279.6l-17.569,3.549,3.529,21.641,28.937-1.725,1.541-23.747Z" transform="translate(21312.023 -10287.773)" fill="#ef8e4d"/>
      <path id="Trazado_736230" data-name="Trazado 736230" d="M214.016,239.172l-1.439-10.177s8.111-8.813,8.652-12.78c.8-5.849-.585-7.865-3.429-13.946-.918-1.967-2.56-5.953-3.35-7.538-.672-1.349-1.189-6.879-2.633-6.461l-2.154,2.393c-2.142.619-.423,5.24.138,7.407,1.082,4.183-3.577,12.311-1.372,15.168,1.237,1.6-2.524.418-1.94,5.643,1.419,12.674,1.628,30.764,1.628,30.764Z" transform="translate(21268.24 -10337.733)" fill="#ef8e4d"/>
      <path id="Trazado_736231" data-name="Trazado 736231" d="M314.184,211.821s35.812.938,48.337,9.239,44.127,68.26,49.618,87.815c4.491,15.989-32.689,13.5-32.689,13.5l-34.931-41.55-4.883,48.06c-6.388-2.445-94.046,2.026-94.046,2.026l2.278-52.754s-24.746,32.381-44.823,29.259c-9.912-1.542-14.029-12.07-13.332-33.352.694-21.188,3.232-43.038,3.232-43.038s19.407,8.209,31.856-10.5l-1.7,30.29s8.04-24.686,13.562-30.927,31.551-9.1,44.463-9.1l.588-9.347h32.655Z" transform="translate(21259.029 -10330.492)" fill="#ffc816"/>
      <path id="Trazado_736232" data-name="Trazado 736232" d="M354.883,269.115s10.868,18.891-.246,28.289-49.268,18.289-49.268,18.289,11.342-25.579-13.293-28.855l37.322-8.858Z" transform="translate(21315.225 -10293.371)" fill="#ffc816"/>
      <path id="Trazado_736494" data-name="Trazado 736494" d="M202.342,231.789l7.309.627a2.7,2.7,0,0,0,2.921-2.458l3.385-39.458a2.7,2.7,0,0,0-2.458-2.921l-7.309-.627a2.7,2.7,0,0,0-2.921,2.459l-3.385,39.458a2.7,2.7,0,0,0,2.458,2.919" transform="translate(21264.646 -10338.448)" fill="#583b68"/>
      <path id="Trazado_736756" data-name="Trazado 736756" d="M201.85,231.759l1.8.155a2.255,2.255,0,0,0,2.439-2.053l3.461-40.343a2.255,2.255,0,0,0-2.053-2.439l-1.8-.155a2.254,2.254,0,0,0-2.439,2.053L199.8,229.32a2.255,2.255,0,0,0,2.053,2.439" transform="translate(21264.598 -10338.464)" fill="#a68bb4"/>
      <path id="Trazado_736757" data-name="Trazado 736757" d="M230.867,183.128a10.419,10.419,0,1,0-11.3,9.985,10.669,10.669,0,0,0,11.3-9.985" transform="translate(21270.246 -10347.016)" fill="#ffc816"/>
      <path id="Trazado_737019" data-name="Trazado 737019" d="M181.408,206.525c-.158,0-.316-.006-.474-.02-3.034-.26-5.621-2.989-7.284-7.682a44.484,44.484,0,0,1,2.77-32.283c2.441-4.342,5.446-6.586,8.488-6.329s5.621,2.987,7.284,7.682a40.274,40.274,0,0,1,1.66,16.4c-1.086,12.646-6.5,22.23-12.444,22.23m3.043-44.786c-2.267,0-4.683,2-6.681,5.559a42.953,42.953,0,0,0-2.66,31.006c1.428,4.029,3.6,6.456,5.956,6.659,5.092.426,10.239-9.089,11.244-20.8l.771.067-.771-.067a38.724,38.724,0,0,0-1.576-15.752c-1.428-4.028-3.6-6.454-5.957-6.657q-.163-.014-.325-.014" transform="translate(21249.248 -10353.124)"/>
      <path id="Trazado_737020" data-name="Trazado 737020" d="M226.808,167.847v0l-32.529-2.791L191.3,199.779l32.529,2.791c5.708.446,10.992-6.913,11.813-16.475s-3.131-17.714-8.833-18.247" transform="translate(21259.941 -10350.455)" fill="#583b68"/>
      <path id="Trazado_737487" data-name="Trazado 737487" d="M206.919,172.413v0L174.3,151.642l-6.041,70.4,35.681-14.908c5.708.446,10.992-6.913,11.813-16.475s-3.131-17.714-8.831-18.247" transform="translate(21247.301 -10357.813)" fill="#ffc816"/>
      <path id="Trazado_737711" data-name="Trazado 737711" d="M191.978,188.229c1.668-19.436-4.133-35.806-12.958-36.563s-17.33,14.385-19,33.821,4.135,35.808,12.96,36.565,17.33-14.386,19-33.822" transform="translate(21242.625 -10357.815)" fill="#ffab00"/>
      <path id="Trazado_738103" data-name="Trazado 738103" d="M189.553,186.684c1.482-17.267-3.673-31.812-11.512-32.486s-15.4,12.782-16.881,30.05,3.673,31.812,11.514,32.486,15.4-12.782,16.879-30.05" transform="translate(21243.27 -10356.424)" fill="#ffc816"/>
      <path id="Trazado_738365" data-name="Trazado 738365" d="M181.835,168.537a10.072,10.072,0,0,1,2.355.489,68.088,68.088,0,0,1-1.668,19.462,10.054,10.054,0,1,1-.688-19.952" transform="translate(21248.764 -10348.565)" fill="#583b68"/>
      <path id="Trazado_738544" data-name="Trazado 738544" d="M212.523,209.364l-13.473-1.682a3.9,3.9,0,0,1-3.336-4.647l.238-1.14a3.853,3.853,0,0,1,4.584-2.976l13.236,2.823a3.9,3.9,0,0,1,3.006,4.593,3.851,3.851,0,0,1-4.255,3.029" transform="translate(21262.318 -10331.926)" fill="#ef8e4d"/>
      <path id="Trazado_738545" data-name="Trazado 738545" d="M214.55,207.943a4.01,4.01,0,0,1-3.727,1.6.154.154,0,0,1-.133-.169.15.15,0,0,1,.169-.132,3.714,3.714,0,0,0,1.2-7.325l-13.236-2.822a.152.152,0,0,1,.062-.3l13.236,2.822a4.051,4.051,0,0,1,3.123,4.773,3.98,3.98,0,0,1-.694,1.555" transform="translate(21264.002 -10331.949)"/>
      <path id="Trazado_738546" data-name="Trazado 738546" d="M211.463,210.094a4.409,4.409,0,0,1-.551-.034.541.541,0,0,1-.469-.6.529.529,0,0,1,.2-.361.524.524,0,0,1,.4-.11,3.327,3.327,0,0,0,2.341-.59,3.291,3.291,0,0,0,1.318-2.018,3.355,3.355,0,0,0-2.589-3.954l-13.236-2.821a.539.539,0,0,1-.184-.979.53.53,0,0,1,.407-.076l13.236,2.822a4.437,4.437,0,0,1,3.421,5.23,4.333,4.333,0,0,1-.76,1.707,4.4,4.4,0,0,1-3.535,1.784" transform="translate(21263.865 -10332.087)"/>
      <path id="Trazado_738547" data-name="Trazado 738547" d="M209.844,203.28l-10.71-1.962a3.861,3.861,0,1,1,1.36-7.6l10.71,1.964a3.887,3.887,0,0,1,3.133,4.5,3.848,3.848,0,0,1-4.492,3.1" transform="translate(21262.488 -10334.768)" fill="#ef8e4d"/>
      <g id="Grupo_988300" data-name="Grupo 988300" transform="translate(21469.643 -10138.31)">
        <g id="Grupo_988299" data-name="Grupo 988299" clip-path="url(#clip-path-11)">
          <g id="Grupo_988298" data-name="Grupo 988298" opacity="0.4">
            <g id="Grupo_988297" data-name="Grupo 988297">
              <g id="Grupo_988296" data-name="Grupo 988296" clip-path="url(#clip-path-11)">
                <path id="Trazado_738548" data-name="Trazado 738548" d="M207.177,201.271a4.7,4.7,0,0,1-.852-.079c-1.991-.364-3.385-1.928-3.106-3.486a2.479,2.479,0,0,1,1.078-1.6,4.089,4.089,0,0,1,3.043-.562c1.991.367,3.385,1.93,3.1,3.486a2.463,2.463,0,0,1-1.076,1.6,3.845,3.845,0,0,1-2.191.641m-.677-5.031a3.116,3.116,0,0,0-1.764.5,1.712,1.712,0,0,0-.754,1.1c-.2,1.138.909,2.3,2.482,2.588a3.35,3.35,0,0,0,2.462-.435,1.717,1.717,0,0,0,.756-1.1c.2-1.138-.909-2.3-2.482-2.588a3.991,3.991,0,0,0-.7-.063" transform="translate(-203.183 -195.464)"/>
              </g>
            </g>
          </g>
        </g>
      </g>
      <g id="Grupo_988306" data-name="Grupo 988306" transform="translate(21471.863 -10129.954)">
        <g id="Grupo_988305" data-name="Grupo 988305" clip-path="url(#clip-path-13)">
          <g id="Grupo_988304" data-name="Grupo 988304" opacity="0.4">
            <g id="Grupo_988303" data-name="Grupo 988303">
              <g id="Grupo_988302" data-name="Grupo 988302" clip-path="url(#clip-path-13)">
                <path id="Trazado_738549" data-name="Trazado 738549" d="M208.475,207.454a4.036,4.036,0,0,1-.994-.122,3.512,3.512,0,0,1-2.78-4.067,3.064,3.064,0,0,1,1.422-1.886,3.882,3.882,0,0,1,2.925-.4,3.508,3.508,0,0,1,2.78,4.065,3.05,3.05,0,0,1-1.422,1.886,3.741,3.741,0,0,1-1.931.52m-.805-.873a3.1,3.1,0,0,0,2.337-.31,2.294,2.294,0,0,0,1.07-1.408,2.739,2.739,0,0,0-2.216-3.13,3.105,3.105,0,0,0-2.338.308,2.3,2.3,0,0,0-1.069,1.408,2.739,2.739,0,0,0,2.216,3.131" transform="translate(-204.616 -200.86)"/>
              </g>
            </g>
          </g>
        </g>
      </g>
      <path id="Trazado_738550" data-name="Trazado 738550" d="M208.435,213.339l-9.471-.957a3.892,3.892,0,0,1-3.484-4.235,3.843,3.843,0,0,1,4.223-3.455l9.47.957a3.893,3.893,0,0,1,3.486,4.235,3.845,3.845,0,0,1-4.223,3.455" transform="translate(21262.225 -10328.723)" fill="#ef8e4d"/>
      <path id="Trazado_738551" data-name="Trazado 738551" d="M210.6,211.928a4,4,0,0,1-3.631,1.609.152.152,0,1,1,.029-.3,3.694,3.694,0,0,0,4.057-3.32,3.745,3.745,0,0,0-3.348-4.068l-9.471-.957a.154.154,0,0,1-.138-.166.151.151,0,0,1,.166-.136l9.471.957a4.051,4.051,0,0,1,3.622,4.4,3.965,3.965,0,0,1-.757,1.982" transform="translate(21263.672 -10328.77)"/>
      <path id="Trazado_738552" data-name="Trazado 738552" d="M207.506,214.081a4.139,4.139,0,0,1-.437-.022.542.542,0,0,1-.483-.59.545.545,0,0,1,.2-.365.528.528,0,0,1,.4-.116,3.322,3.322,0,0,0,2.434-.732,3.271,3.271,0,0,0,1.194-2.241,3.353,3.353,0,0,0-3-3.645l-9.471-.959a.539.539,0,0,1-.29-.951.556.556,0,0,1,.4-.121l9.471.959a4.438,4.438,0,0,1,3.969,4.822,4.381,4.381,0,0,1-4.376,3.961m-.407-.324h0" transform="translate(21263.535 -10328.906)"/>
      <g id="Grupo_988312" data-name="Grupo 988312" transform="translate(21467.805 -10122.956)">
        <g id="Grupo_988311" data-name="Grupo 988311" clip-path="url(#clip-path-15)">
          <g id="Grupo_988310" data-name="Grupo 988310" opacity="0.4">
            <g id="Grupo_988309" data-name="Grupo 988309">
              <g id="Grupo_988308" data-name="Grupo 988308" clip-path="url(#clip-path-15)">
                <path id="Trazado_738553" data-name="Trazado 738553" d="M206.065,211.247a4.68,4.68,0,0,1-1.129-.142c-1.964-.492-3.254-2.145-2.874-3.684a2.477,2.477,0,0,1,1.18-1.533,4.079,4.079,0,0,1,3.072-.367c1.964.492,3.254,2.145,2.873,3.684a2.476,2.476,0,0,1-1.178,1.535,3.769,3.769,0,0,1-1.943.508m-.872-5.092a3.025,3.025,0,0,0-1.552.395,1.719,1.719,0,0,0-.827,1.056c-.277,1.126.759,2.358,2.309,2.747a3.338,3.338,0,0,0,2.485-.279,1.719,1.719,0,0,0,.827-1.056c.277-1.127-.759-2.358-2.31-2.747a3.872,3.872,0,0,0-.932-.116" transform="translate(-201.996 -205.379)"/>
              </g>
            </g>
          </g>
        </g>
      </g>
      <path id="Trazado_738554" data-name="Trazado 738554" d="M196.251,212.333s2.222-2.815,4.424-3.429.266,6.914.266,6.914Z" transform="translate(21262.658 -10326.42)" fill="#ef8e4d"/>
      <path id="Trazado_738555" data-name="Trazado 738555" d="M206.447,216.316l-7.012.822a3.285,3.285,0,0,1-3.641-2.857,3.24,3.24,0,0,1,2.842-3.619l7.012-.824a3.29,3.29,0,0,1,3.642,2.859,3.242,3.242,0,0,1-2.843,3.619" transform="translate(21262.393 -10325.901)" fill="#ef8e4d"/>
      <g id="Grupo_988318" data-name="Grupo 988318" transform="translate(21465.32 -10115.799)">
        <g id="Grupo_988317" data-name="Grupo 988317" clip-path="url(#clip-path-17)">
          <g id="Grupo_988316" data-name="Grupo 988316" opacity="0.4">
            <g id="Grupo_988315" data-name="Grupo 988315">
              <g id="Grupo_988314" data-name="Grupo 988314" clip-path="url(#clip-path-17)">
                <path id="Trazado_738556" data-name="Trazado 738556" d="M203.6,215.127c-1.73,0-3.156-1.081-3.207-2.456a2.205,2.205,0,0,1,.635-1.609A3.6,3.6,0,0,1,203.545,210c1.792-.074,3.289,1.044,3.343,2.454a2.239,2.239,0,0,1-.636,1.609,3.592,3.592,0,0,1-2.516,1.058c-.046,0-.091,0-.136,0m.082-4.35c-.037,0-.074,0-.112,0a2.866,2.866,0,0,0-1.978.811,1.444,1.444,0,0,0-.426,1.053c.036.985,1.2,1.765,2.543,1.708h0a2.86,2.86,0,0,0,1.974-.81,1.46,1.46,0,0,0,.429-1.055c-.037-.959-1.117-1.71-2.433-1.71" transform="translate(-200.391 -210.001)"/>
              </g>
            </g>
          </g>
        </g>
      </g>
      <path id="Trazado_738557" data-name="Trazado 738557" d="M207.843,215.161l-.064.085a3.377,3.377,0,0,1-2.276,1.274.155.155,0,0,1-.17-.133.15.15,0,0,1,.133-.167,3.112,3.112,0,0,0-.762-6.177l-7.012.824a.153.153,0,0,1-.037-.3l7.012-.822a3.443,3.443,0,0,1,3.811,2.992,3.367,3.367,0,0,1-.635,2.428" transform="translate(21263.355 -10325.954)"/>
      <path id="Trazado_738558" data-name="Trazado 738558" d="M205.622,217.045a.539.539,0,0,1-.534-.475.531.531,0,0,1,.11-.4.539.539,0,0,1,.364-.2,2.708,2.708,0,0,0,2.368-3.02,2.72,2.72,0,0,0-1.028-1.82,2.75,2.75,0,0,0-2.015-.568l-7.012.824a.539.539,0,0,1-.127-1.07l7.012-.824a3.827,3.827,0,0,1,4.24,3.328,3.769,3.769,0,0,1-.706,2.707l0,0-.068.09a3.756,3.756,0,0,1-2.537,1.419.424.424,0,0,1-.063,0m.031-.305h0Z" transform="translate(21263.219 -10326.092)"/>
      <path id="Trazado_738559" data-name="Trazado 738559" d="M211.518,261.583a.775.775,0,0,1-.774-.774V233.6a.774.774,0,0,1,1.549,0v27.207a.775.775,0,0,1-.774.774" transform="translate(21270.607 -10313.277)"/>
      <path id="Trazado_738560" data-name="Trazado 738560" d="M219.085,256.514a.777.777,0,0,1-.568-.248L210.95,248.1a.775.775,0,0,1,1.137-1.053l7.566,8.169a.774.774,0,0,1-.568,1.3" transform="translate(21270.607 -10305.615)"/>
      <path id="Trazado_738561" data-name="Trazado 738561" d="M227.514,263.319h-.008a.774.774,0,0,1-.767-.782l.352-31.87a.773.773,0,0,1,.774-.765h.008a.775.775,0,0,1,.767.782l-.352,31.868a.775.775,0,0,1-.774.767" transform="translate(21279.383 -10314.882)"/>
      <path id="Trazado_738562" data-name="Trazado 738562" d="M286.516,244.43a.773.773,0,0,1-.643-1.2L304.238,215.8a.774.774,0,0,1,1.287.861L287.16,244.086a.776.776,0,0,1-.644.344" transform="translate(21311.75 -10322.808)"/>
      <path id="Trazado_738563" data-name="Trazado 738563" d="M294.249,260.542a.774.774,0,0,1-.647-.347l-11.332-17.121a.774.774,0,1,1,1.292-.855l11.334,17.123a.773.773,0,0,1-.646,1.2" transform="translate(21309.773 -10308.316)"/>
      <path id="Trazado_738564" data-name="Trazado 738564" d="M228.419,231.482a.778.778,0,0,1-.742-.548l-4.824-15.874a.774.774,0,1,1,1.482-.451l4.825,15.874a.776.776,0,0,1-.516.966.823.823,0,0,1-.226.033" transform="translate(21277.232 -10323.573)"/>
      <path id="Trazado_738565" data-name="Trazado 738565" d="M309.644,279.665a.774.774,0,0,1-.217-1.518l20.881-6.1a.775.775,0,0,1,.435,1.488l-20.883,6.1a.757.757,0,0,1-.217.031" transform="translate(21324.438 -10291.78)"/>
      <path id="Trazado_738566" data-name="Trazado 738566" d="M311.063,277.278a.774.774,0,0,1-.426-1.422l10.854-7.114a.775.775,0,0,1,.852,1.295l-10.859,7.114a.75.75,0,0,1-.421.127" transform="translate(21325.215 -10293.646)"/>
      <g id="Grupo_988328" data-name="Grupo 988328" transform="translate(21155 -10441)">
        <path id="Trazado_738828" data-name="Trazado 738828" d="M165.758,273.027l157.9,45.461L217.467,443.88Z" transform="translate(90.93 149.775)" fill="#d7daff"/>
        <path id="Trazado_741196" data-name="Trazado 741196" d="M323.661,443.88l-157.9-45.461L271.953,273.027Z" transform="translate(249.26 70.733)" fill="#d7daff"/>
      </g>
      <path id="Trazado_739321" data-name="Trazado 739321" d="M463.248,354.547,348.692,310.311,296.532,290.17,199.15,434.476Z" transform="translate(21264.248 -10281.821)" fill="#c4c9fd"/>
      <path id="Trazado_739322" data-name="Trazado 739322" d="M313,76.9,235.815,58.31l-35.173,68.854Z" transform="translate(21265.066 -10409.013)" fill="#d7daff"/>
      <path id="Trazado_741194" data-name="Trazado 741194" d="M0,0H123.083V79.625H0Z" transform="translate(21465.711 -10281.849) rotate(-24.101)" fill="#989ee0"/>
      <path id="Trazado_739783" data-name="Trazado 739783" d="M319.36,129.917l-50.295,50.765a5.09,5.09,0,0,1-7.2.034l-70.72-70.065a5.09,5.09,0,0,1-.034-7.2l50.293-50.765a5.092,5.092,0,0,1,7.2-.034l70.72,70.065a5.09,5.09,0,0,1,.034,7.2" transform="translate(21259.029 -10412.925)" fill="#ffc816"/>
      <path id="Trazado_739784" data-name="Trazado 739784" d="M287.633,111.38l-29.423,29.7a2.47,2.47,0,0,1-3.494.017l-28.549-28.283a2.47,2.47,0,0,1-.016-3.494l29.423-29.7a2.472,2.472,0,0,1,3.494-.015l28.549,28.283a2.472,2.472,0,0,1,.016,3.494" transform="translate(21278.668 -10397.725)" fill="#fff"/>
      <path id="Trazado_739785" data-name="Trazado 739785" d="M201.712,106.572a3.1,3.1,0,0,1-2.2-5.278l40.907-41.288a3.1,3.1,0,1,1,4.4,4.359l-40.906,41.29a3.092,3.092,0,0,1-2.2.917" transform="translate(21263.955 -10408.586)" fill="#fff"/>
      <path id="Trazado_739786" data-name="Trazado 739786" d="M208.733,113.526a3.1,3.1,0,0,1-2.2-5.278l40.906-41.288a3.1,3.1,0,0,1,4.4,4.359l-40.906,41.29a3.092,3.092,0,0,1-2.2.917" transform="translate(21267.807 -10404.771)" fill="#fff"/>
      <path id="Trazado_739787" data-name="Trazado 739787" d="M215.753,120.482a3.1,3.1,0,0,1-2.2-5.278l40.906-41.288a3.1,3.1,0,1,1,4.4,4.359l-40.906,41.29a3.092,3.092,0,0,1-2.2.917" transform="translate(21271.656 -10400.955)" fill="#fff"/>
      <path id="Trazado_739788" data-name="Trazado 739788" d="M200.643,102.773l72.434,11.212-39.919,61.472Z" transform="translate(21265.066 -10384.622)" fill="#d7daff"/>
      <path id="Trazado_740050" data-name="Trazado 740050" d="M287.4,70.289l-39.919,61.472,72.434,11.212Z" transform="translate(21290.76 -10402.441)" fill="#d7daff"/>
      <path id="Trazado_740312" data-name="Trazado 740312" d="M333.993,124.013l-77.4-19.085L221.64,174.274Z" transform="translate(21276.586 -10383.438)" fill="#c2c7fa"/>
      <path id="Trazado_740313" data-name="Trazado 740313" d="M409.587,439.449l-22.9-59.653-61.7,8.11Z" transform="translate(21333.277 -10232.654)" fill="#d7daff"/>
      <path id="Trazado_741195" data-name="Trazado 741195" d="M0,0H64.089V99.066H0Z" transform="translate(21624.92 -9790.017) rotate(-58.649)" fill="#989ee0"/>
      <path id="Trazado_740735" data-name="Trazado 740735" d="M419.5,432.534l-65.361,30.9a5.564,5.564,0,0,1-7.41-2.653l-22.9-48.441a5.565,5.565,0,0,1,2.654-7.41l65.359-30.9a5.567,5.567,0,0,1,7.411,2.654l22.9,48.439a5.567,5.567,0,0,1-2.654,7.411" transform="translate(21332.35 -10236.111)" fill="#ffc816"/>
      <path id="Trazado_740736" data-name="Trazado 740736" d="M352.469,437.411a3.382,3.382,0,0,1-.482-.036,3.1,3.1,0,0,1-2.583-3.538l3.721-23.9a3.1,3.1,0,0,1,4.636-2.191l18.109,10.687,4.421-28.379a3.1,3.1,0,1,1,6.122.952L381.291,423.9a3.1,3.1,0,0,1-4.636,2.191L358.544,415.4l-3.018,19.391a3.1,3.1,0,0,1-3.057,2.62" transform="translate(21346.652 -10228.466)" fill="#fff"/>
      <path id="Trazado_740737" data-name="Trazado 740737" d="M353.494,401.314a11.514,11.514,0,1,1-15.331-5.49,11.515,11.515,0,0,1,15.331,5.49" transform="translate(21336.889 -10224.469)" fill="#fff"/>
      <path id="Trazado_740738" data-name="Trazado 740738" d="M336.8,385.033l25.629,53.136-58.974,1.6Z" transform="translate(21321.465 -10229.781)" fill="#d7daff"/>
      <path id="Trazado_740998" data-name="Trazado 740998" d="M400.554,418.346l-58.973,1.593,25.627,53.138Z" transform="translate(21342.383 -10211.508)" fill="#d7daff"/>
      <path id="Trazado_741187" data-name="Trazado 741187" d="M388.055,474.923,365.379,414.9l-61.926,8.48Z" transform="translate(21321.465 -10213.397)" fill="#c4c9ff"/>
      <path id="Trazado_741188" data-name="Trazado 741188" d="M291.439,381.81h48.7l25.239,16.215-3.61-16.215h-1.792c9.322,0,16.879-6.758,16.879-15.094V341.735c0-8.336-7.557-15.094-16.879-15.094H291.439c-9.322,0-16.879,6.758-16.879,15.094v24.982c0,8.336,7.557,15.094,16.879,15.094" transform="translate(21305.615 -10261.813)" fill="#fff"/>
      <path id="Trazado_741189" data-name="Trazado 741189" d="M365.656,399.076a.771.771,0,0,1-.418-.124l-25.047-16.093H291.713c-9.734,0-17.654-7.119-17.654-15.868V342.009c0-8.749,7.919-15.868,17.654-15.868h68.541c9.734,0,17.654,7.119,17.654,15.868v24.982c0,7.919-6.487,14.5-14.936,15.681l3.439,15.461a.775.775,0,0,1-.756.943M291.713,327.69c-8.88,0-16.105,6.423-16.105,14.32v24.982c0,7.895,7.226,14.32,16.105,14.32h48.7a.776.776,0,0,1,.42.122l23.654,15.2-3.065-13.773h-1.172a.774.774,0,0,1,0-1.549c8.88,0,16.105-6.425,16.105-14.32V342.009c0-7.9-7.226-14.32-16.105-14.32Z" transform="translate(21305.342 -10262.088)" fill="#ffc816"/>
      <path id="Trazado_741191" data-name="Trazado 741191" d="M308.158,59.666H273.49L255.525,71.209l2.568-11.543h1.278c-6.637,0-12.015-4.81-12.015-10.744V31.14c0-5.934,5.378-10.744,12.015-10.744h48.788c6.636,0,12.015,4.81,12.015,10.744V48.922c0,5.934-5.38,10.744-12.015,10.744" transform="translate(21290.691 -10429.812)" fill="#fff"/>
      <path id="Trazado_741192" data-name="Trazado 741192" d="M255.8,72.258a.774.774,0,0,1-.756-.942l2.4-10.772c-6.007-.943-10.586-5.672-10.586-11.348V31.414c0-6.351,5.737-11.518,12.79-11.518h48.789c7.051,0,12.788,5.168,12.788,11.518V49.2c0,6.352-5.737,11.518-12.788,11.518H273.991L256.218,72.136a.778.778,0,0,1-.42.122m3.19-11.543-2.026,9.1L273.345,59.29a.763.763,0,0,1,.418-.124h34.669c6.2,0,11.24-4.472,11.24-9.97V31.414c0-5.5-5.042-9.97-11.24-9.97H259.644c-6.2,0-11.241,4.472-11.241,9.97V49.2c0,5.5,5.042,9.97,11.241,9.97a.774.774,0,1,1,0,1.549Z" transform="translate(21290.418 -10430.086)" fill="#ffc816"/>
      <path id="Trazado_741193" data-name="Trazado 741193" d="M274.65,24.425l-3.314,6.715a1.7,1.7,0,0,1-1.276.928l-7.41,1.076a1.7,1.7,0,0,0-.94,2.891l5.363,5.226a1.7,1.7,0,0,1,.488,1.5l-1.267,7.38a1.7,1.7,0,0,0,2.461,1.787l6.626-3.484a1.693,1.693,0,0,1,1.578,0l6.628,3.484a1.7,1.7,0,0,0,2.459-1.787l-1.265-7.38a1.7,1.7,0,0,1,.488-1.5l5.361-5.226a1.7,1.7,0,0,0-.94-2.891l-7.41-1.076A1.7,1.7,0,0,1,281,31.14l-3.314-6.715a1.694,1.694,0,0,0-3.04,0" transform="translate(21298.285 -10428.12)" fill="#ffc816"/>
    </g>
  </g>
</svg>
