<svg xmlns="http://www.w3.org/2000/svg" xmlns:xlink="http://www.w3.org/1999/xlink" width="197.001" height="197" viewBox="0 0 197.001 197">
  <defs>
    <filter id="Trazado_113939" x="0" y="0" width="197.001" height="197" filterUnits="userSpaceOnUse">
      <feOffset input="SourceAlpha"/>
      <feGaussianBlur stdDeviation="20" result="blur"/>
      <feFlood flood-color="#402d27" flood-opacity="0.435"/>
      <feComposite operator="in" in2="blur"/>
      <feComposite in="SourceGraphic"/>
    </filter>
    <clipPath id="clip-path">
      <rect id="Rectángulo_345075" data-name="Rectángulo 345075" width="88.881" height="66.685" fill="none"/>
    </clipPath>
    <clipPath id="clip-path-2">
      <path id="Trazado_733045" data-name="Trazado 733045" d="M723.26,53.148a1.9,1.9,0,0,1,1.538,1.644c.437,2.2.12,4.3-1.482,4.568-2.245.383-2.96-2.077-3.047-2.494a12.96,12.96,0,0,1-.033-1.6,2.122,2.122,0,0,1,1.658-2.042,4.31,4.31,0,0,1,.93-.107,3.417,3.417,0,0,1,.435.027" transform="translate(-720.232 -53.121)" fill="none"/>
    </clipPath>
  </defs>
  <g id="Grupo_987260" data-name="Grupo 987260" transform="translate(54.121 60)">
    <g id="Grupo_80250" data-name="Grupo 80250" transform="translate(5.879)">
      <g transform="matrix(1, 0, 0, 1, -60, -60)" filter="url(#Trazado_113939)">
        <path id="Trazado_113939-2" data-name="Trazado 113939" d="M38.5,0A38.5,38.5,0,1,0,77,38.5,38.5,38.5,0,0,0,38.5,0Z" transform="translate(60 60)" fill="#ea526f"/>
      </g>
    </g>
    <g id="Grupo_987259" data-name="Grupo 987259" transform="translate(0 5)">
      <g id="Grupo_987254" data-name="Grupo 987254">
        <g id="Grupo_987253" data-name="Grupo 987253" clip-path="url(#clip-path)">
          <path id="Trazado_732882" data-name="Trazado 732882" d="M1467.716,29.322h.12a.09.09,0,0,0,.088-.092.1.1,0,0,0-.091-.088h-.117a5.791,5.791,0,0,1-.59-.03.09.09,0,0,0-.018.179,6.032,6.032,0,0,0,.608.031m.835-.059h.013a5.974,5.974,0,0,0,.714-.146.09.09,0,0,0-.047-.173,5.9,5.9,0,0,1-.693.142.09.09,0,0,0,.012.179m-2.142-.087a.09.09,0,0,0,.02-.178,5.685,5.685,0,0,1-.679-.2.09.09,0,0,0-.061.169,5.971,5.971,0,0,0,.7.205l.02,0m3.527-.288a.089.089,0,0,0,.034-.007,5.894,5.894,0,0,0,.657-.317.09.09,0,1,0-.088-.157,5.728,5.728,0,0,1-.637.307.09.09,0,0,0,.034.173m-4.876-.2a.09.09,0,0,0,.041-.17,5.9,5.9,0,0,1-.61-.358.09.09,0,1,0-.1.149,6.038,6.038,0,0,0,.628.37.09.09,0,0,0,.041.01m6.128-.5a.088.088,0,0,0,.053-.018,5.927,5.927,0,0,0,.561-.467.09.09,0,1,0-.123-.131,5.865,5.865,0,0,1-.544.453.09.09,0,0,0,.053.162m-7.317-.3a.09.09,0,0,0,.059-.158,5.851,5.851,0,0,1-.505-.5.09.09,0,0,0-.133.121,6.047,6.047,0,0,0,.521.51.09.09,0,0,0,.059.022m8.362-.683a.09.09,0,0,0,.069-.032,6.143,6.143,0,0,0,.431-.588.09.09,0,1,0-.151-.1,5.86,5.86,0,0,1-.419.57.09.09,0,0,0,.012.127.089.089,0,0,0,.057.021m-9.323-.381a.09.09,0,0,0,.073-.141,5.788,5.788,0,0,1-.371-.6.09.09,0,0,0-.159.085,5.937,5.937,0,0,0,.383.621.09.09,0,0,0,.073.038m10.1-.824a.089.089,0,0,0,.081-.051,5.917,5.917,0,0,0,.276-.675.09.09,0,0,0-.056-.114.088.088,0,0,0-.114.056,5.768,5.768,0,0,1-.268.655.09.09,0,0,0,.042.12.092.092,0,0,0,.039.009m-10.775-.442a.087.087,0,0,0,.032-.006.09.09,0,0,0,.052-.116,5.687,5.687,0,0,1-.213-.675A.088.088,0,0,0,1462,24.7a.09.09,0,0,0-.066.109,5.907,5.907,0,0,0,.22.7.09.09,0,0,0,.084.058m11.235-.917a.09.09,0,0,0,.088-.072,6,6,0,0,0,.1-.722.09.09,0,0,0-.082-.1.087.087,0,0,0-.1.082,5.823,5.823,0,0,1-.1.7.09.09,0,0,0,.07.106l.018,0m-11.582-.475h.011a.09.09,0,0,0,.078-.1,5.872,5.872,0,0,1-.043-.706.09.09,0,1,0-.18,0,6.036,6.036,0,0,0,.044.728.09.09,0,0,0,.089.079m11.7-.955h0a.09.09,0,0,0,.087-.093,6.018,6.018,0,0,0-.073-.726.09.09,0,1,0-.177.029,5.84,5.84,0,0,1,.071.7.09.09,0,0,0,.09.086m-11.736-.007a.09.09,0,0,0,.09-.086,5.86,5.86,0,0,1,.072-.7.09.09,0,0,0-.074-.1.091.091,0,0,0-.1.074,6.088,6.088,0,0,0-.074.726.09.09,0,0,0,.086.094Zm11.505-1.408a.09.09,0,0,0,.086-.115,5.919,5.919,0,0,0-.248-.686.09.09,0,0,0-.165.072,5.7,5.7,0,0,1,.24.665.09.09,0,0,0,.086.065m-11.273-.007a.089.089,0,0,0,.086-.065,5.8,5.8,0,0,1,.241-.665.09.09,0,1,0-.165-.072,5.927,5.927,0,0,0-.248.686.09.09,0,0,0,.061.112.091.091,0,0,0,.025,0m10.7-1.31a.089.089,0,0,0,.045-.012.09.09,0,0,0,.032-.123,6.064,6.064,0,0,0-.407-.605.09.09,0,0,0-.143.109,5.893,5.893,0,0,1,.4.588.089.089,0,0,0,.077.044m-10.133-.006a.089.089,0,0,0,.077-.044,5.786,5.786,0,0,1,.4-.586.09.09,0,1,0-.143-.11,5.956,5.956,0,0,0-.408.6.09.09,0,0,0,.032.123.089.089,0,0,0,.046.012m9.261-1.134a.089.089,0,0,0,.063-.026.09.09,0,0,0,0-.127,6.094,6.094,0,0,0-.541-.489.09.09,0,1,0-.112.14,5.893,5.893,0,0,1,.525.474.09.09,0,0,0,.064.027m-8.389,0a.091.091,0,0,0,.064-.027,5.85,5.85,0,0,1,.525-.474.09.09,0,1,0-.112-.14,5.974,5.974,0,0,0-.542.489.09.09,0,0,0,.064.153m7.268-.891a.09.09,0,0,0,.047-.166,5.969,5.969,0,0,0-.643-.344.09.09,0,1,0-.075.164,5.791,5.791,0,0,1,.623.333.089.089,0,0,0,.047.013m-6.147,0a.088.088,0,0,0,.047-.013,5.868,5.868,0,0,1,.625-.333.09.09,0,0,0-.075-.164,6.059,6.059,0,0,0-.644.343.09.09,0,0,0,.047.166m4.844-.593a.09.09,0,0,0,.027-.176,5.99,5.99,0,0,0-.708-.177.089.089,0,0,0-.1.072.09.09,0,0,0,.072.1,5.842,5.842,0,0,1,.687.171.089.089,0,0,0,.027,0m-3.539,0a.091.091,0,0,0,.027,0,5.7,5.7,0,0,1,.686-.17.09.09,0,0,0-.032-.177,5.971,5.971,0,0,0-.708.176.09.09,0,0,0,.027.176m2.129-.258a.09.09,0,0,0,.005-.18,6.148,6.148,0,0,0-.729,0,.09.09,0,0,0-.084.1.088.088,0,0,0,.1.085,5.8,5.8,0,0,1,.707,0Z" transform="translate(-1461.754 -16.481)" fill="#c8e1ff"/>
          <path id="Trazado_732883" data-name="Trazado 732883" d="M1617.685,425.675a.09.09,0,0,0,.009-.179,1.372,1.372,0,0,1-.628-.226.09.09,0,0,0-.1.15,1.557,1.557,0,0,0,.71.256h.009m.7-.1a.089.089,0,0,0,.034-.007,1.569,1.569,0,0,0,.609-.447.09.09,0,0,0-.138-.115,1.387,1.387,0,0,1-.538.4.09.09,0,0,0,.034.173m-1.851-.668a.092.092,0,0,0,.042-.01.09.09,0,0,0,.037-.121,1.382,1.382,0,0,1-.051-1.191.09.09,0,0,0-.165-.071,1.545,1.545,0,0,0-.126.614,1.561,1.561,0,0,0,.183.733.089.089,0,0,0,.079.048m2.733-.4a.09.09,0,0,0,.088-.072,1.568,1.568,0,0,0-.032-.755.09.09,0,0,0-.172.051,1.39,1.39,0,0,1,.028.668.09.09,0,0,0,.07.106l.018,0m-.392-1.324a.089.089,0,0,0,.063-.026.09.09,0,0,0,0-.127,1.555,1.555,0,0,0-.645-.394.09.09,0,1,0-.053.171,1.375,1.375,0,0,1,.57.349.09.09,0,0,0,.064.027m-1.964-.115a.089.089,0,0,0,.056-.02,1.381,1.381,0,0,1,.607-.279.09.09,0,0,0-.033-.177,1.565,1.565,0,0,0-.686.316.09.09,0,0,0,.056.16" transform="translate(-1615.605 -400.344)" fill="#a7d0f9"/>
          <path id="Trazado_732884" data-name="Trazado 732884" d="M304.215,112.765h.006a3.6,3.6,0,0,0,.725-.124.09.09,0,0,0-.048-.173,3.423,3.423,0,0,1-.689.119.09.09,0,0,0,.006.179m-.717-.024a.09.09,0,0,0,.012-.179,3.432,3.432,0,0,1-.679-.165.09.09,0,1,0-.06.169,3.617,3.617,0,0,0,.715.174h.012m2.092-.361a.088.088,0,0,0,.041-.01,3.6,3.6,0,0,0,.615-.4.09.09,0,1,0-.113-.139,3.452,3.452,0,0,1-.584.384.09.09,0,0,0,.041.17m-3.437-.117a.09.09,0,0,0,.047-.167,3.444,3.444,0,0,1-.557-.423.09.09,0,1,0-.123.131,3.63,3.63,0,0,0,.586.445.09.09,0,0,0,.047.013m4.544-.786a.089.089,0,0,0,.07-.033,3.612,3.612,0,0,0,.4-.615.09.09,0,0,0-.16-.083,3.432,3.432,0,0,1-.383.585.09.09,0,0,0,.013.126.091.091,0,0,0,.057.02m-5.587-.189a.09.09,0,0,0,.073-.142,3.4,3.4,0,0,1-.343-.609.09.09,0,0,0-.165.072,3.607,3.607,0,0,0,.362.641.09.09,0,0,0,.073.038m6.244-1.079a.09.09,0,0,0,.086-.066,3.615,3.615,0,0,0,.124-.726.09.09,0,0,0-.084-.1.088.088,0,0,0-.1.084,3.433,3.433,0,0,1-.118.689.09.09,0,0,0,.062.111.1.1,0,0,0,.024,0m-6.813-.231.018,0a.09.09,0,0,0,.07-.106,3.461,3.461,0,0,1-.04-1.157.09.09,0,0,0-.077-.1.092.092,0,0,0-.1.077,3.627,3.627,0,0,0,.042,1.217.09.09,0,0,0,.088.072m6.909-1.194h.012a.09.09,0,0,0,.077-.1,3.573,3.573,0,0,0-.174-.715.09.09,0,0,0-.169.06,3.4,3.4,0,0,1,.166.679.09.09,0,0,0,.089.078m-6.781-.691a.09.09,0,0,0,.085-.06,3.4,3.4,0,0,1,.3-.631.09.09,0,1,0-.153-.093,3.6,3.6,0,0,0-.316.665.09.09,0,0,0,.055.114.091.091,0,0,0,.03.005m6.3-.654a.091.091,0,0,0,.047-.013.09.09,0,0,0,.03-.124,3.6,3.6,0,0,0-.445-.586.09.09,0,0,0-.131.123,3.438,3.438,0,0,1,.423.556.09.09,0,0,0,.077.043m-5.562-.566a.089.089,0,0,0,.066-.028,3.423,3.423,0,0,1,.527-.46.09.09,0,0,0-.1-.147,3.614,3.614,0,0,0-.554.484.09.09,0,0,0,.066.151m4.586-.476a.09.09,0,0,0,.052-.163,3.608,3.608,0,0,0-.642-.361.09.09,0,1,0-.072.165,3.433,3.433,0,0,1,.61.343.088.088,0,0,0,.052.016m-3.421-.349a.093.093,0,0,0,.036-.007,3.386,3.386,0,0,1,.666-.212.09.09,0,0,0,.07-.106.091.091,0,0,0-.106-.07,3.59,3.59,0,0,0-.7.223.09.09,0,0,0,.036.172m2.111-.219a.09.09,0,0,0,.018-.178,3.986,3.986,0,0,0-.729-.074.09.09,0,1,0,0,.18,3.4,3.4,0,0,1,.691.07l.018,0" transform="translate(-234.497 -100.021)" fill="#a7d0f9"/>
          <path id="Trazado_732885" data-name="Trazado 732885" d="M652.566,852.881a.09.09,0,0,0,0-.18,6.921,6.921,0,0,1-.707-.051.092.092,0,0,0-.1.078.09.09,0,0,0,.078.1,7.1,7.1,0,0,0,.726.052Zm.718-.021h.007c.24-.02.482-.052.721-.1a.09.09,0,0,0-.033-.177,6.94,6.94,0,0,1-.7.094.09.09,0,0,0,.007.179m-2.142-.155a.09.09,0,0,0,.02-.177,7.07,7.07,0,0,1-.682-.2.09.09,0,0,0-.058.17,7.141,7.141,0,0,0,.7.2l.02,0m3.553-.108a.079.079,0,0,0,.025,0,6.783,6.783,0,0,0,.687-.243.09.09,0,1,0-.069-.166,6.821,6.821,0,0,1-.668.237.09.09,0,0,0,.025.176m-4.91-.358a.09.09,0,0,0,.038-.171,6.853,6.853,0,0,1-.627-.332.09.09,0,0,0-.092.154,6.942,6.942,0,0,0,.643.34.091.091,0,0,0,.038.008m6.236-.191a.09.09,0,0,0,.043-.011,7.02,7.02,0,0,0,.621-.379.09.09,0,0,0,.023-.125.091.091,0,0,0-.125-.023,6.835,6.835,0,0,1-.606.37.09.09,0,0,0,.043.169m-7.468-.545a.09.09,0,0,0,.054-.162,6.993,6.993,0,0,1-.545-.453.09.09,0,1,0-.122.132,6.967,6.967,0,0,0,.56.465.09.09,0,0,0,.054.018m8.653-.265a.089.089,0,0,0,.058-.021,7.071,7.071,0,0,0,.53-.5.09.09,0,1,0-.13-.124,6.94,6.94,0,0,1-.517.486.09.09,0,0,0,.058.158m-9.709-.708a.089.089,0,0,0,.059-.022.09.09,0,0,0,.008-.127,6.813,6.813,0,0,1-.442-.555.09.09,0,0,0-.146.1,7.1,7.1,0,0,0,.453.57.09.09,0,0,0,.067.03m10.7-.327a.089.089,0,0,0,.071-.034,7.113,7.113,0,0,0,.418-.6.09.09,0,1,0-.152-.1,6.9,6.9,0,0,1-.407.581.09.09,0,0,0,.071.145m-11.538-.841a.091.091,0,0,0,.044-.012.09.09,0,0,0,.034-.123,6.868,6.868,0,0,1-.318-.634.09.09,0,0,0-.165.072,7.134,7.134,0,0,0,.327.651.09.09,0,0,0,.078.045m12.3-.376a.09.09,0,0,0,.081-.05,7.038,7.038,0,0,0,.286-.67.09.09,0,0,0-.169-.062,6.741,6.741,0,0,1-.279.652.09.09,0,0,0,.081.13m-12.877-.938a.093.093,0,0,0,.027,0,.09.09,0,0,0,.058-.113,6.9,6.9,0,0,1-.181-.686.09.09,0,1,0-.176.036,7.059,7.059,0,0,0,.185.7.09.09,0,0,0,.086.062m13.372-.408a.09.09,0,0,0,.087-.068,7,7,0,0,0,.142-.714.09.09,0,0,0-.178-.026,6.828,6.828,0,0,1-.138.7.09.09,0,0,0,.065.109.077.077,0,0,0,.022,0m-13.665-1h.009a.09.09,0,0,0,.08-.1,6.927,6.927,0,0,1-.036-.708c0-.193.008-.388.024-.58a.09.09,0,0,0-.082-.1.088.088,0,0,0-.1.082c-.017.2-.025.4-.025.595a7.077,7.077,0,0,0,.037.726.09.09,0,0,0,.089.081m13.872-.423a.09.09,0,0,0,.09-.086q.006-.148.006-.3,0-.216-.013-.429a.088.088,0,0,0-.1-.085.09.09,0,0,0-.084.1q.012.207.012.419c0,.1,0,.194-.006.29a.09.09,0,0,0,.086.094Zm-.087-1.432h.015a.09.09,0,0,0,.074-.1,6.958,6.958,0,0,0-.155-.711.091.091,0,0,0-.11-.063.09.09,0,0,0-.063.111,6.769,6.769,0,0,1,.151.692.09.09,0,0,0,.089.076m-13.7-.162a.09.09,0,0,0,.088-.073,6.806,6.806,0,0,1,.168-.689.09.09,0,0,0-.172-.051,6.944,6.944,0,0,0-.172.707.09.09,0,0,0,.072.1h.017M659.2,843.4a.1.1,0,0,0,.033-.006.09.09,0,0,0,.051-.117,7.046,7.046,0,0,0-.3-.664.09.09,0,1,0-.16.082,6.882,6.882,0,0,1,.291.647.09.09,0,0,0,.084.057m-12.91-.151a.09.09,0,0,0,.083-.055,6.792,6.792,0,0,1,.306-.64.09.09,0,1,0-.158-.086,7.011,7.011,0,0,0-.314.657.09.09,0,0,0,.048.117.087.087,0,0,0,.035.007m12.254-1.125a.087.087,0,0,0,.049-.015.09.09,0,0,0,.026-.124,7.078,7.078,0,0,0-.429-.588.09.09,0,1,0-.139.113,6.953,6.953,0,0,1,.418.573.09.09,0,0,0,.075.041m-11.568-.136a.09.09,0,0,0,.074-.039,6.822,6.822,0,0,1,.431-.563.09.09,0,1,0-.137-.117,7.121,7.121,0,0,0-.442.578.09.09,0,0,0,.023.125.091.091,0,0,0,.051.016m10.663-.979a.09.09,0,0,0,.064-.153,7.168,7.168,0,0,0-.54-.488.09.09,0,1,0-.114.139,7.074,7.074,0,0,1,.526.476.09.09,0,0,0,.064.026M647.9,840.9a.09.09,0,0,0,.062-.025,6.935,6.935,0,0,1,.537-.463.09.09,0,1,0-.11-.142,7.059,7.059,0,0,0-.551.475.09.09,0,0,0,.062.155m8.621-.793a.09.09,0,0,0,.049-.165,7.018,7.018,0,0,0-.628-.367.09.09,0,1,0-.082.159,6.792,6.792,0,0,1,.612.358.09.09,0,0,0,.049.015m-7.488-.088a.09.09,0,0,0,.048-.014,6.862,6.862,0,0,1,.62-.344.09.09,0,0,0-.079-.161,6.918,6.918,0,0,0-.637.353.09.09,0,0,0,.048.166m6.213-.572a.09.09,0,0,0,.033-.173,6.9,6.9,0,0,0-.691-.23.09.09,0,0,0-.048.173,6.748,6.748,0,0,1,.673.224.09.09,0,0,0,.033.006m-4.923-.058a.094.094,0,0,0,.031-.005,6.9,6.9,0,0,1,.678-.208.09.09,0,0,0,.066-.109.088.088,0,0,0-.109-.065,7.042,7.042,0,0,0-.7.213.09.09,0,0,0,.031.174m3.54-.324a.09.09,0,0,0,.015-.179c-.238-.039-.481-.067-.723-.083a.09.09,0,0,0-.011.18,6.724,6.724,0,0,1,.7.08h.015m-2.148-.025h.013a6.913,6.913,0,0,1,.706-.064.09.09,0,0,0,.086-.093.089.089,0,0,0-.093-.086,6.969,6.969,0,0,0-.725.066.09.09,0,0,0,.013.179" transform="translate(-604.873 -794.634)" fill="#a7d0f9"/>
          <path id="Trazado_732886" data-name="Trazado 732886" d="M858.861,844.922h15.808l2.384-20.8H861.246Z" transform="translate(-833.391 -780.729)" fill="#383749"/>
          <path id="Trazado_732887" data-name="Trazado 732887" d="M857.242,843.4h15.808a.09.09,0,0,0,.089-.08l2.384-20.8a.09.09,0,0,0-.022-.07.089.089,0,0,0-.067-.03H859.626a.09.09,0,0,0-.089.08l-2.384,20.8a.09.09,0,0,0,.022.07.089.089,0,0,0,.067.03m15.727-.18H857.342l2.364-20.625h15.627Z" transform="translate(-831.771 -779.113)" fill="#383749"/>
          <path id="Trazado_732888" data-name="Trazado 732888" d="M634.223,1214.385H670.4a2.808,2.808,0,0,0-2.808-2.807H637.031a2.808,2.808,0,0,0-2.807,2.807" transform="translate(-614.91 -1147.791)" fill="#383749"/>
          <path id="Trazado_732889" data-name="Trazado 732889" d="M632.606,1212.855h36.177a.09.09,0,0,0,.09-.09,2.9,2.9,0,0,0-2.9-2.9H635.413a2.9,2.9,0,0,0-2.9,2.9.09.09,0,0,0,.09.09m36.086-.18H632.7a2.721,2.721,0,0,1,2.716-2.628h30.562a2.721,2.721,0,0,1,2.716,2.628" transform="translate(-613.293 -1146.171)" fill="#383749"/>
          <path id="Trazado_732890" data-name="Trazado 732890" d="M831.82,844.922h15.808l2.384-20.8H834.2Z" transform="translate(-804.925 -780.729)" fill="#e9f3ff"/>
          <path id="Trazado_732891" data-name="Trazado 732891" d="M830.2,843.4h15.808a.09.09,0,0,0,.089-.08l2.384-20.8a.09.09,0,0,0-.022-.07.089.089,0,0,0-.067-.03H832.585a.09.09,0,0,0-.089.08l-2.384,20.8a.09.09,0,0,0,.022.07.089.089,0,0,0,.067.03m15.727-.18H830.3l2.364-20.625h15.627Z" transform="translate(-803.306 -779.113)" fill="#e9f3ff"/>
          <path id="Trazado_732892" data-name="Trazado 732892" d="M589.512,1214.385h36.177a2.807,2.807,0,0,0-2.807-2.807H592.32a2.807,2.807,0,0,0-2.807,2.807" transform="translate(-567.845 -1147.791)" fill="#e9f3ff"/>
          <path id="Trazado_732893" data-name="Trazado 732893" d="M587.894,1212.855h36.177a.09.09,0,0,0,.09-.09,2.9,2.9,0,0,0-2.9-2.9H590.7a2.9,2.9,0,0,0-2.9,2.9.09.09,0,0,0,.09.09m36.086-.18H587.985a2.721,2.721,0,0,1,2.716-2.628h30.562a2.721,2.721,0,0,1,2.716,2.628" transform="translate(-566.227 -1146.171)" fill="#e9f3ff"/>
          <path id="Trazado_732894" data-name="Trazado 732894" d="M459.19,108.713h58.746a1.625,1.625,0,0,0,1.625-1.625V63.567a1.625,1.625,0,0,0-1.625-1.625H459.19a1.625,1.625,0,0,0-1.625,1.625v43.52a1.625,1.625,0,0,0,1.625,1.625" transform="translate(-454.771 -58.681)" fill="#383749"/>
          <path id="Trazado_732895" data-name="Trazado 732895" d="M457.574,107.183H516.32a1.717,1.717,0,0,0,1.715-1.715V61.948a1.717,1.717,0,0,0-1.715-1.715H457.574a1.717,1.717,0,0,0-1.715,1.715v43.52a1.717,1.717,0,0,0,1.715,1.715M516.32,60.413a1.537,1.537,0,0,1,1.535,1.535v43.52A1.537,1.537,0,0,1,516.32,107H457.574a1.537,1.537,0,0,1-1.535-1.535V61.948a1.537,1.537,0,0,1,1.535-1.535Z" transform="translate(-453.154 -57.062)" fill="#383749"/>
          <path id="Trazado_732896" data-name="Trazado 732896" d="M419.16,108.713h58.746a1.625,1.625,0,0,0,1.625-1.625V63.567a1.625,1.625,0,0,0-1.625-1.625H419.16a1.625,1.625,0,0,0-1.625,1.625v43.52a1.625,1.625,0,0,0,1.625,1.625" transform="translate(-412.633 -58.681)" fill="#e9f3ff"/>
          <path id="Trazado_732897" data-name="Trazado 732897" d="M417.542,107.183h58.746A1.717,1.717,0,0,0,478,105.468V61.948a1.717,1.717,0,0,0-1.715-1.715H417.542a1.717,1.717,0,0,0-1.715,1.715v43.52a1.717,1.717,0,0,0,1.715,1.715m58.746-46.771a1.537,1.537,0,0,1,1.535,1.535v43.52A1.537,1.537,0,0,1,476.288,107H417.542a1.537,1.537,0,0,1-1.535-1.535V61.948a1.537,1.537,0,0,1,1.535-1.535Z" transform="translate(-411.015 -57.062)" fill="#e9f3ff"/>
          <path id="Trazado_732898" data-name="Trazado 732898" d="M59.253,163.761a2.07,2.07,0,0,1,1.906,1.276c.432,1.276-1.359,2.427-2.2,2.274s-1.117-1.822-.7-2.078a5.2,5.2,0,0,0,1-1.473" transform="translate(24.598 -155.139)" fill="#383749"/>
          <path id="Trazado_732899" data-name="Trazado 732899" d="M57.521,165.8a2.615,2.615,0,0,0,1.748-.909,1.513,1.513,0,0,0,.375-1.5,2.176,2.176,0,0,0-1.991-1.338.09.09,0,0,0-.081.051,4.857,4.857,0,0,1-.967,1.435c-.255.158-.264.648-.193,1.019.1.5.4,1.127.929,1.224a1.024,1.024,0,0,0,.18.015m.186-3.563a1.927,1.927,0,0,1,1.766,1.214,1.346,1.346,0,0,1-.34,1.323,2.276,2.276,0,0,1-1.76.834c-.444-.08-.7-.632-.785-1.08-.074-.39-.026-.747.111-.832a4.8,4.8,0,0,0,1.008-1.458" transform="translate(26.199 -153.522)" fill="#383749"/>
          <path id="Trazado_732900" data-name="Trazado 732900" d="M156.729,100.2s-1.309-.255-1.921.393-.3,2.067-.3,2.067,2.262-1.753,2.222-2.46" transform="translate(-75.979 -94.882)" fill="#383749"/>
          <path id="Trazado_732901" data-name="Trazado 732901" d="M152.893,101.117a.089.089,0,0,0,.055-.019c.235-.182,2.3-1.8,2.257-2.536a.09.09,0,0,0-.072-.083,2.471,2.471,0,0,0-2,.419c-.638.674-.337,2.088-.324,2.148a.089.089,0,0,0,.057.065.092.092,0,0,0,.031.005m2.128-2.474c-.09.546-1.414,1.7-2.066,2.221a2.436,2.436,0,0,1,.3-1.842,2.213,2.213,0,0,1,1.761-.379" transform="translate(-74.365 -93.245)" fill="#383749"/>
          <path id="Trazado_732902" data-name="Trazado 732902" d="M124.244,267.172l7.7-2.647-5.261-10.965-7.7,2.647Z" transform="translate(-49.333 -240.211)" fill="#fff"/>
          <path id="Trazado_732903" data-name="Trazado 732903" d="M122.625,265.637a.085.085,0,0,0,.029,0l7.7-2.647a.09.09,0,0,0,.052-.124L125.15,251.9a.089.089,0,0,0-.11-.046l-7.7,2.647a.09.09,0,0,0-.052.124l5.261,10.965a.09.09,0,0,0,.081.051m7.58-2.789-7.534,2.589-5.183-10.8,7.534-2.589Z" transform="translate(-47.713 -238.585)" fill="#383749"/>
          <path id="Trazado_732904" data-name="Trazado 732904" d="M146.124,288.642l6.275-2.156-4.284-8.93-6.275,2.156Z" transform="translate(-70.986 -262.944)" fill="#e9f3ff"/>
          <path id="Trazado_732905" data-name="Trazado 732905" d="M144.508,287.109a.086.086,0,0,0,.029,0l6.275-2.156a.09.09,0,0,0,.052-.124l-4.284-8.929a.089.089,0,0,0-.11-.046L140.194,278a.09.09,0,0,0-.052.124l4.284,8.929a.09.09,0,0,0,.081.051m6.15-2.3-6.1,2.1-4.206-8.766,6.1-2.1Z" transform="translate(-69.369 -261.321)" fill="#e9f3ff"/>
          <path id="Trazado_732906" data-name="Trazado 732906" d="M356.263,334.165s.975.188.9,1.052-.736.4-.736.4-.41-1.422-.165-1.453" transform="translate(-287.041 -316.572)" fill="#ff9c70"/>
          <path id="Trazado_732907" data-name="Trazado 732907" d="M341.026,299.157l.442.179,1.446-3.578a.239.239,0,1,0-.442-.179Z" transform="translate(-272.005 -279.877)" fill="#383749"/>
          <path id="Trazado_732908" data-name="Trazado 732908" d="M339.848,297.807a.093.093,0,0,0,.035-.007.091.091,0,0,0,.048-.049l1.446-3.578a.328.328,0,1,0-.609-.246l-1.446,3.578a.09.09,0,0,0,.05.117l.442.179a.088.088,0,0,0,.034.007m1.225-3.906a.147.147,0,0,1,.056.011.149.149,0,0,1,.082.194L339.8,297.6l-.276-.112,1.413-3.494a.147.147,0,0,1,.08-.081.144.144,0,0,1,.058-.012" transform="translate(-270.386 -278.258)" fill="#383749"/>
          <path id="Trazado_732909" data-name="Trazado 732909" d="M321.6,1183.1l.917-1.043.477-1.377H325.2l-.477,1.77-2.048,1.484Z" transform="translate(-253.256 -1118.518)" fill="#ff9c70"/>
          <path id="Trazado_732910" data-name="Trazado 732910" d="M321.063,1182.406a.088.088,0,0,0,.053-.017l2.048-1.484a.089.089,0,0,0,.034-.049l.477-1.77a.09.09,0,0,0-.087-.113h-2.209a.09.09,0,0,0-.085.06l-.471,1.36-.905,1.03a.09.09,0,0,0,.013.13l1.078.834a.089.089,0,0,0,.055.019m1.97-1.628-1.968,1.426-.949-.734.854-.971a.094.094,0,0,0,.017-.03l.456-1.316h2.028Z" transform="translate(-251.639 -1116.902)" fill="#ff9c70"/>
          <path id="Trazado_732911" data-name="Trazado 732911" d="M329.666,1205.366a7.487,7.487,0,0,1,.346,1.367,9.2,9.2,0,0,1-.1,1.647.147.147,0,0,1-.146.12h-.5a.149.149,0,0,1-.147-.129l-.1-.76-.164.409a.763.763,0,0,1-.708.479h-3.6c-.183,0-.493-.061-.412-.225a12.254,12.254,0,0,1,2.415-1.789,2.108,2.108,0,0,0,1.282-.2c.672-.336,1.139-.893,1.834-.918" transform="translate(-258.204 -1141.906)" fill="#383749"/>
          <path id="Trazado_732912" data-name="Trazado 732912" d="M322.93,1206.974h3.6a.848.848,0,0,0,.792-.536l.036-.091.056.42a.24.24,0,0,0,.237.207h.5a.238.238,0,0,0,.234-.194,9.278,9.278,0,0,0,.1-1.67,7.446,7.446,0,0,0-.351-1.39.1.1,0,0,0-.088-.06,2.353,2.353,0,0,0-1.243.539,5.321,5.321,0,0,1-.628.388,2.039,2.039,0,0,1-1.223.194.091.091,0,0,0-.064.01,11.886,11.886,0,0,0-2.451,1.828.186.186,0,0,0,.006.186c.1.164.449.168.488.168m4.471-1.068a.09.09,0,0,0-.083.057l-.164.409a.67.67,0,0,1-.625.423h-3.6a.515.515,0,0,1-.336-.085,12.32,12.32,0,0,1,2.355-1.745,2.211,2.211,0,0,0,1.306-.216,5.494,5.494,0,0,0,.649-.4,2.348,2.348,0,0,1,1.082-.5,6.922,6.922,0,0,1,.319,1.28,9.207,9.207,0,0,1-.1,1.623.058.058,0,0,1-.058.047h-.5a.059.059,0,0,1-.058-.051l-.1-.759a.089.089,0,0,0-.078-.077H327.4" transform="translate(-256.586 -1140.289)" fill="#383749"/>
          <path id="Trazado_732913" data-name="Trazado 732913" d="M17.111,1183.1l.917-1.043v-1.377h2.209v1.77l-2.048,1.484Z" transform="translate(67.744 -1118.518)" fill="#ff9c70"/>
          <path id="Trazado_732914" data-name="Trazado 732914" d="M16.572,1182.406a.088.088,0,0,0,.053-.017l2.048-1.484a.09.09,0,0,0,.037-.073v-1.77a.09.09,0,0,0-.09-.09H16.411a.09.09,0,0,0-.09.09v1.343l-.894,1.018a.09.09,0,0,0,.013.13l1.078.834a.089.089,0,0,0,.055.019m1.958-1.62-1.956,1.417-.949-.734.854-.971a.09.09,0,0,0,.022-.059v-1.287H18.53Z" transform="translate(69.36 -1116.902)" fill="#ff9c70"/>
          <path id="Trazado_732915" data-name="Trazado 732915" d="M16.118,1205.366a7.489,7.489,0,0,1,.346,1.367,9.191,9.191,0,0,1-.1,1.647.147.147,0,0,1-.146.12h-.5a.149.149,0,0,1-.148-.129l-.1-.76-.164.409a.763.763,0,0,1-.708.479H11c-.183,0-.493-.061-.412-.225A12.254,12.254,0,0,1,13,1206.486a2.107,2.107,0,0,0,1.282-.2c.672-.336,1.139-.893,1.834-.918" transform="translate(71.852 -1141.906)" fill="#383749"/>
          <path id="Trazado_732916" data-name="Trazado 732916" d="M9.382,1206.974h3.6a.848.848,0,0,0,.792-.536l.037-.091.056.42a.24.24,0,0,0,.237.207h.5a.238.238,0,0,0,.234-.194,9.25,9.25,0,0,0,.1-1.67,7.451,7.451,0,0,0-.351-1.39.091.091,0,0,0-.088-.06,2.352,2.352,0,0,0-1.243.539,5.338,5.338,0,0,1-.628.388,2.039,2.039,0,0,1-1.223.194.091.091,0,0,0-.064.01,11.884,11.884,0,0,0-2.451,1.828.186.186,0,0,0,.006.186c.1.164.449.168.488.168m4.472-1.068a.09.09,0,0,0-.083.057l-.164.409a.67.67,0,0,1-.625.423h-3.6a.518.518,0,0,1-.336-.085,12.3,12.3,0,0,1,2.355-1.745,2.215,2.215,0,0,0,1.306-.216,5.491,5.491,0,0,0,.649-.4,2.348,2.348,0,0,1,1.082-.5,6.924,6.924,0,0,1,.319,1.28,9.2,9.2,0,0,1-.1,1.623.058.058,0,0,1-.058.047h-.5a.059.059,0,0,1-.058-.051l-.1-.759a.089.089,0,0,0-.078-.077h-.011" transform="translate(73.47 -1140.289)" fill="#383749"/>
          <path id="Trazado_732917" data-name="Trazado 732917" d="M7.968,528.566,9.543,562.12a7.281,7.281,0,0,1-4.188.189L1.707,529.18s5.21-3.3,6.261-.614" transform="translate(79.248 -499.742)" fill="#383749"/>
          <path id="Trazado_732918" data-name="Trazado 732918" d="M5.388,561.008a8.247,8.247,0,0,0,2.57-.432.09.09,0,0,0,.058-.088L6.441,526.934a.087.087,0,0,0-.006-.028,1.618,1.618,0,0,0-1.037-1c-1.874-.614-5.215,1.478-5.356,1.568a.09.09,0,0,0-.041.086L3.65,560.69a.09.09,0,0,0,.062.076,5.545,5.545,0,0,0,1.676.242m2.446-.579a7.205,7.205,0,0,1-4.012.183L.186,527.6c.418-.256,3.479-2.072,5.157-1.519a1.443,1.443,0,0,1,.92.877Z" transform="translate(80.864 -498.114)" fill="#383749"/>
          <path id="Trazado_732919" data-name="Trazado 732919" d="M57.331,539.7l-8.048,32.619a8.312,8.312,0,0,0,4.024.526l8.838-27.729,4.588-3.836-.428-2.651Z" transform="translate(19.553 -510.276)" fill="#383749"/>
          <path id="Trazado_732920" data-name="Trazado 732920" d="M50.77,571.372c.293,0,.6-.013.928-.043a.09.09,0,0,0,.077-.062l8.83-27.7,4.568-3.82a.09.09,0,0,0,.031-.083l-.428-2.65a.092.092,0,0,0-.1-.075L55.7,538.005a.089.089,0,0,0-.076.068l-8.048,32.619a.09.09,0,0,0,.049.1,7.827,7.827,0,0,0,3.143.578m.853-.217a8.479,8.479,0,0,1-3.851-.494l8.015-32.485,8.827-1.053.406,2.515-4.549,3.8a.09.09,0,0,0-.028.041Z" transform="translate(21.169 -508.665)" fill="#383749"/>
          <path id="Trazado_732921" data-name="Trazado 732921" d="M1.708,250.058s2.576.179,3.607,1.291,2.212,7.473,2.212,8.4c0,2.731-5.235,3.127-5.235,3.127Z" transform="translate(81.264 -236.893)" fill="#9f0925"/>
          <path id="Trazado_732922" data-name="Trazado 732922" d="M.674,261.333H.68a12.378,12.378,0,0,0,2.639-.544C5.072,260.2,6,259.275,6,258.116c0-.87-1.182-7.32-2.236-8.457S.2,248.347.1,248.34a.081.081,0,0,0-.069.025.09.09,0,0,0-.027.068l.584,12.814a.09.09,0,0,0,.09.086M.184,248.528c.482.047,2.566.3,3.446,1.253,1.031,1.113,2.188,7.475,2.188,8.335,0,2.422-4.365,2.959-5.059,3.029Z" transform="translate(82.882 -235.264)" fill="#9f0925"/>
          <rect id="Rectángulo_345020" data-name="Rectángulo 345020" width="2.922" height="5.213" transform="translate(79.986 9.565)" fill="#ff9c70"/>
          <path id="Trazado_732923" data-name="Trazado 732923" d="M111.836,185.378h2.922a.09.09,0,0,0,.09-.09v-5.213a.09.09,0,0,0-.09-.09h-2.922a.09.09,0,0,0-.09.09v5.213a.09.09,0,0,0,.09.09m2.832-.18h-2.742v-5.034h2.742Z" transform="translate(-31.85 -170.509)" fill="#ff9c70"/>
          <path id="Trazado_732924" data-name="Trazado 732924" d="M132.15,221.034v1.206s1.633-.321,1.937-1.546Z" transform="translate(-52.164 -209.075)" fill="#383749"/>
          <path id="Trazado_732925" data-name="Trazado 732925" d="M130.53,220.706l.017,0c.069-.013,1.692-.346,2.007-1.612a.09.09,0,0,0-.022-.083.086.086,0,0,0-.081-.027l-1.937.34a.09.09,0,0,0-.074.089v1.206a.09.09,0,0,0,.09.09m1.809-1.522a2.5,2.5,0,0,1-1.719,1.318v-1.016Z" transform="translate(-50.544 -207.451)" fill="#383749"/>
          <path id="Trazado_732926" data-name="Trazado 732926" d="M104.09,107.305a3.565,3.565,0,0,0-.44.078,2.367,2.367,0,0,0-1.75,2.039l-.213,1.8s-.55.416-.55.52.357.446.357.446.27,1.849,1.058,1.968a3.759,3.759,0,0,0,3.46-1.656,5.1,5.1,0,0,0,.911-2.518,2.541,2.541,0,0,0-2.832-2.672" transform="translate(-23.373 -101.64)" fill="#ff9c70"/>
          <path id="Trazado_732927" data-name="Trazado 732927" d="M160.876,158.8s-.275.573-.736.664a1.286,1.286,0,0,1-.933-.335s.275-.573.736-.664a1.286,1.286,0,0,1,.933.335" transform="translate(-80.377 -150.106)" fill="#fff"/>
          <path id="Trazado_732928" data-name="Trazado 732928" d="M158.387,157.943a.761.761,0,0,0,.151-.014,1.361,1.361,0,0,0,.8-.713.09.09,0,0,0-.021-.106,1.054,1.054,0,0,0-1.811.357.09.09,0,0,0,.021.106,1.485,1.485,0,0,0,.86.37m.756-.744a.853.853,0,1,1-.8-.269,1.117,1.117,0,0,1,.8.269" transform="translate(-78.759 -148.488)" fill="#383749"/>
          <path id="Trazado_732929" data-name="Trazado 732929" d="M172.013,160.032c-.4.079-.821-.357-.821-.357s.225-.563.624-.642.6.92.2,1" transform="translate(-92.363 -150.657)" fill="#383749"/>
          <path id="Trazado_732930" data-name="Trazado 732930" d="M166.791,144.633c-.083.04-.122.263.011.285a3.141,3.141,0,0,0,1.033-.036,1.5,1.5,0,0,0-1.044-.249" transform="translate(-87.731 -136.986)" fill="#383749"/>
          <path id="Trazado_732931" data-name="Trazado 732931" d="M165.673,143.426c.291,0,.6-.025.63-.125a.108.108,0,0,0-.046-.113c-.117-.094-.811-.388-1.124-.239h0a.284.284,0,0,0-.124.282.191.191,0,0,0,.158.173c.025,0,.258.022.506.022m.292-.191a4.15,4.15,0,0,1-.768-.009.124.124,0,0,1,.015-.117,1.3,1.3,0,0,1,.753.126" transform="translate(-86.112 -135.383)" fill="#383749"/>
          <path id="Trazado_732932" data-name="Trazado 732932" d="M101.311,112.654a3.823,3.823,0,0,0,2.546-1.041.09.09,0,0,0-.119-.135,3.484,3.484,0,0,1-2.79.971c-.592-.09-.909-1.4-.982-1.892a.092.092,0,0,0-.027-.052,1.721,1.721,0,0,1-.33-.387,4.207,4.207,0,0,1,.515-.443.09.09,0,0,0,.035-.061l.213-1.8a2.279,2.279,0,0,1,1.682-1.963,3.506,3.506,0,0,1,.429-.076,2.477,2.477,0,0,1,1.994.677,2.389,2.389,0,0,1,.738,1.9.09.09,0,0,0,.179.013,2.568,2.568,0,0,0-.793-2.043,2.65,2.65,0,0,0-2.139-.726,3.729,3.729,0,0,0-.451.079,2.459,2.459,0,0,0-1.817,2.116l-.209,1.758c-.555.424-.555.533-.555.569,0,.113.192.324.362.489.041.255.334,1.893,1.128,2.013a2.647,2.647,0,0,0,.39.027" transform="translate(-21.757 -100.027)" fill="#383749"/>
          <path id="Trazado_732933" data-name="Trazado 732933" d="M341.243,336.819l-.475-.675s-.179-1-.446-1.113a2.453,2.453,0,0,0-.605-.146l-.346-.72s-1.648.726-1.536,1.639a1.665,1.665,0,0,0,1.04,1.25l.745.843Z" transform="translate(-270.149 -316.572)" fill="#ff9c70"/>
          <path id="Trazado_732934" data-name="Trazado 732934" d="M40.359,250.058s-4.409.073-5.628,1.041c-2.25,1.789-2.87,9.166-2.87,9.166l-3.276-3.556a4.533,4.533,0,0,0-2.363,1.313s3.931,6.818,6.6,6.643,2.13-6.287,2.13-6.287-.613,6.827-1.4,8.8c0,0,6.258.9,11.334-.843,0,0-.494-7.184-.8-8.409s-3.728-7.864-3.728-7.864" transform="translate(42.614 -236.893)" fill="#9f0925"/>
          <path id="Trazado_732935" data-name="Trazado 732935" d="M35.786,265.844A23.921,23.921,0,0,0,43.3,264.77a.09.09,0,0,0,.061-.091c-.02-.293-.5-7.206-.8-8.425s-3.6-7.612-3.735-7.883a.079.079,0,0,0-.081-.049c-.181,0-4.454.084-5.682,1.061-2.072,1.647-2.766,7.8-2.885,9.026L27.032,255a.091.091,0,0,0-.085-.027,4.564,4.564,0,0,0-2.417,1.348.09.09,0,0,0-.005.1c.16.277,3.889,6.691,6.577,6.691.036,0,.072,0,.108,0a1.7,1.7,0,0,0,1.209-.626q.078-.092.15-.194a17.728,17.728,0,0,1-.718,3.206.09.09,0,0,0,.071.122,30.727,30.727,0,0,0,3.866.227m7.387-1.222c-4.617,1.557-10.255.939-11.115.831a21.583,21.583,0,0,0,.76-3.6c.884-1.819.618-4.983.6-5.133a.09.09,0,0,0-.179,0c0,.042-.24,2.646-.6,5.085a2.685,2.685,0,0,1-.36.557,1.526,1.526,0,0,1-1.084.564c-.032,0-.065,0-.1,0-2.461,0-6.026-5.934-6.389-6.551a4.44,4.44,0,0,1,2.225-1.22l3.241,3.517a.091.091,0,0,0,.1.024.09.09,0,0,0,.06-.078c.006-.073.642-7.358,2.836-9.1,1.107-.881,5-1.008,5.517-1.02.316.614,3.409,6.649,3.7,7.794s.741,7.584.793,8.325m-9.887-6.5a11.565,11.565,0,0,1-.348,2.9c.146-1.068.264-2.108.348-2.9" transform="translate(44.233 -235.247)" fill="#9f0925"/>
          <path id="Trazado_732936" data-name="Trazado 732936" d="M91.784,95.369s1.23,2.921,3.692,3.019l.538.273s1.373-4.225-2.023-4.4c-2.088-.106-2.208,1.1-2.208,1.1" transform="translate(-12.241 -89.295)" fill="#383749"/>
          <path id="Trazado_732937" data-name="Trazado 732937" d="M94.347,97.143a.084.084,0,0,0,.034-.007.089.089,0,0,0,.051-.055c.03-.092.721-2.267-.18-3.577a2.332,2.332,0,0,0-1.923-.937c-2.147-.1-2.3,1.172-2.3,1.186a.088.088,0,0,0,.006.044c.012.03,1.274,2.96,3.752,3.073l.521.264a.088.088,0,0,0,.041.01m-2.277-4.4c.08,0,.163,0,.25.007a2.162,2.162,0,0,1,1.784.859c.746,1.083.312,2.875.188,3.318l-.442-.224a.092.092,0,0,0-.037-.01c-2.264-.09-3.483-2.673-3.6-2.942.027-.153.25-1.009,1.861-1.009" transform="translate(-10.573 -87.688)" fill="#383749"/>
          <path id="Trazado_732938" data-name="Trazado 732938" d="M95.889,168.486s.513-.617.98-.361.122,1.914-1.071,1.643c-.663-.151.091-1.282.091-1.282" transform="translate(-13.218 -159.215)" fill="#ff9c70"/>
          <path id="Trazado_732939" data-name="Trazado 732939" d="M94.172,168.258a1.094,1.094,0,0,0,1.01-.769c.153-.4.138-.915-.151-1.073-.527-.287-1.069.355-1.092.383a.09.09,0,0,0,.138.115c0-.006.471-.558.868-.34.173.094.205.492.069.851a.907.907,0,0,1-1.077.625.09.09,0,0,0-.04.176,1.244,1.244,0,0,0,.274.032" transform="translate(-11.338 -157.585)" fill="#383749"/>
          <path id="Trazado_732940" data-name="Trazado 732940" d="M100.595,176.97a.089.089,0,0,0,.066-.029c.065-.071.282-.259.428-.2a.09.09,0,1,0,.066-.167c-.285-.113-.593.213-.627.25a.09.09,0,0,0,.067.15" transform="translate(-17.623 -167.251)" fill="#383749"/>
          <path id="Trazado_732941" data-name="Trazado 732941" d="M181.893,201.254a1.877,1.877,0,0,0,.462-.061.09.09,0,0,0,.062-.111.088.088,0,0,0-.111-.062,1.393,1.393,0,0,1-.732,0,.09.09,0,0,0-.066.167,1.054,1.054,0,0,0,.384.064" transform="translate(-103.093 -190.433)" fill="#383749"/>
          <path id="Trazado_732942" data-name="Trazado 732942" d="M27.389,368.659H27.4a.09.09,0,0,0,.083-.1c-.214-2.7-.856-8.96-.862-9.023a.092.092,0,0,0-.1-.08.09.09,0,0,0-.08.1c.006.063.648,6.325.862,9.019a.09.09,0,0,0,.089.083" transform="translate(60.01 -340.534)" fill="#383749"/>
          <path id="Trazado_732943" data-name="Trazado 732943" d="M189.384,395.553a.086.086,0,0,0,.042-.01c2.058-1.084,2.712-6.848,2.739-7.093a.09.09,0,0,0-.079-.1.087.087,0,0,0-.1.079c-.006.059-.67,5.913-2.644,6.954a.09.09,0,0,0,.042.169" transform="translate(-113.25 -367.903)" fill="#383749"/>
          <path id="Trazado_732944" data-name="Trazado 732944" d="M269.1,378.812a.088.088,0,0,0,.061-.024.089.089,0,0,0,.005-.127l-3.62-3.938a.09.09,0,0,0-.132.122l3.62,3.938a.09.09,0,0,0,.066.029" transform="translate(-194.282 -354.968)" fill="#383749"/>
          <path id="Trazado_732945" data-name="Trazado 732945" d="M263.523,442.418a.09.09,0,0,0,0-.18l-.471-.02a.092.092,0,0,0-.094.086.09.09,0,0,0,.086.094l.471.02Z" transform="translate(-188.577 -418.936)" fill="#383749"/>
          <path id="Trazado_732946" data-name="Trazado 732946" d="M84.675,616.591a.09.09,0,0,0,.083-.055c.266-.63,2.3-1.67,2.316-1.681a.09.09,0,0,0-.082-.16c-.086.044-2.108,1.082-2.4,1.771a.09.09,0,0,0,.048.118.088.088,0,0,0,.035.007" transform="translate(-2.695 -582.324)" fill="#fff"/>
          <path id="Trazado_732947" data-name="Trazado 732947" d="M209.983,584.835a.09.09,0,0,0,.038-.171c-.689-.322-.816-1.479-.817-1.491a.09.09,0,1,0-.179.018c.005.052.138,1.271.92,1.636a.092.092,0,0,0,.038.008" transform="translate(-132.197 -552.393)" fill="#fff"/>
          <path id="Trazado_732948" data-name="Trazado 732948" d="M284.71,869.3a.09.09,0,0,0,.01-.179,3.44,3.44,0,0,1-.823-.161.09.09,0,0,0-.109.143,3.232,3.232,0,0,0,.912.2h.01" transform="translate(-210.858 -823.197)" fill="#fff"/>
          <path id="Trazado_732949" data-name="Trazado 732949" d="M86.75,878.016a3.828,3.828,0,0,0,1.019-.165.09.09,0,0,0-.055-.171,3.45,3.45,0,0,1-1.138.149.09.09,0,1,0-.017.179c.063.006.127.008.191.008" transform="translate(-3.504 -831.468)" fill="#fff"/>
          <rect id="Rectángulo_345021" data-name="Rectángulo 345021" width="57.295" height="43.224" transform="translate(7.253 5.034)" fill="#fff"/>
          <path id="Trazado_732950" data-name="Trazado 732950" d="M460.563,137.319h57.3a.09.09,0,0,0,.09-.09V94a.09.09,0,0,0-.09-.09h-57.3a.09.09,0,0,0-.09.09v43.224a.09.09,0,0,0,.09.09m57.205-.18H460.653V94.095h57.115Z" transform="translate(-453.31 -88.971)" fill="#383749"/>
          <rect id="Rectángulo_345022" data-name="Rectángulo 345022" width="15.555" height="26.435" transform="translate(47.251 19.834)" fill="#c8e1ff"/>
          <path id="Trazado_732951" data-name="Trazado 732951" d="M493.635,401.626H509.19a.09.09,0,0,0,.09-.09V375.1a.09.09,0,0,0-.09-.09H493.635a.09.09,0,0,0-.09.09v26.435a.09.09,0,0,0,.09.09m15.465-.18H493.725V375.191H509.1Z" transform="translate(-446.384 -355.267)" fill="#c8e1ff"/>
          <path id="Trazado_732952" data-name="Trazado 732952" d="M1143.747,560.859h16.363a.654.654,0,0,0,.654-.654V543.843a.654.654,0,0,0-.654-.654h-16.363a.654.654,0,0,0-.654.654v16.363a.654.654,0,0,0,.654.654" transform="translate(-1132.066 -514.591)" fill="#fff"/>
          <path id="Trazado_732953" data-name="Trazado 732953" d="M1142.129,559.333h16.363a.745.745,0,0,0,.744-.744V542.227a.745.745,0,0,0-.744-.744h-16.363a.745.745,0,0,0-.744.744v16.363a.745.745,0,0,0,.744.744m16.363-17.67a.565.565,0,0,1,.564.564v16.363a.565.565,0,0,1-.564.564h-16.363a.565.565,0,0,1-.564-.564V542.227a.565.565,0,0,1,.564-.564Z" transform="translate(-1130.447 -512.975)" fill="#a7d0f9"/>
          <path id="Trazado_732954" data-name="Trazado 732954" d="M1143.747,157.4h16.363a.654.654,0,0,0,.654-.654V140.383a.654.654,0,0,0-.654-.654h-16.363a.654.654,0,0,0-.654.654v16.363a.654.654,0,0,0,.654.654" transform="translate(-1132.066 -132.373)" fill="#fff"/>
          <path id="Trazado_732955" data-name="Trazado 732955" d="M1142.129,155.871h16.363a.745.745,0,0,0,.744-.744V138.765a.745.745,0,0,0-.744-.744h-16.363a.745.745,0,0,0-.744.744v16.363a.745.745,0,0,0,.744.744m16.363-17.67a.565.565,0,0,1,.564.564v16.363a.565.565,0,0,1-.564.564h-16.363a.565.565,0,0,1-.564-.564V138.765a.565.565,0,0,1,.564-.564Z" transform="translate(-1130.447 -130.755)" fill="#a7d0f9"/>
          <rect id="Rectángulo_345023" data-name="Rectángulo 345023" width="9.717" height="27.645" transform="translate(33.116 18.708)" fill="#e9f3ff"/>
          <path id="Trazado_732956" data-name="Trazado 732956" d="M873,381.464h9.717a.09.09,0,0,0,.09-.09V353.729a.09.09,0,0,0-.09-.09H873a.09.09,0,0,0-.09.09v27.645a.09.09,0,0,0,.09.09m9.627-.18H873.09V353.819h9.537Z" transform="translate(-839.883 -335.021)" fill="#e9f3ff"/>
          <rect id="Rectángulo_345024" data-name="Rectángulo 345024" width="4.419" height="0.754" transform="translate(37.842 44.245)" fill="#c8e1ff"/>
          <rect id="Rectángulo_345025" data-name="Rectángulo 345025" width="3.585" height="0.754" transform="translate(33.793 44.245)" fill="#c8e1ff"/>
          <rect id="Rectángulo_345026" data-name="Rectángulo 345026" width="1.942" height="0.754" transform="translate(40.319 42.137)" fill="#c8e1ff"/>
          <rect id="Rectángulo_345027" data-name="Rectángulo 345027" width="6.061" height="0.754" transform="translate(33.792 42.137)" fill="#c8e1ff"/>
          <rect id="Rectángulo_345028" data-name="Rectángulo 345028" width="5.379" height="0.754" transform="translate(36.881 40.029)" fill="#c8e1ff"/>
          <rect id="Rectángulo_345029" data-name="Rectángulo 345029" width="2.624" height="0.754" transform="translate(33.792 40.029)" fill="#c8e1ff"/>
          <rect id="Rectángulo_345030" data-name="Rectángulo 345030" width="4.788" height="0.754" transform="translate(37.473 37.921)" fill="#c8e1ff"/>
          <rect id="Rectángulo_345031" data-name="Rectángulo 345031" width="3.216" height="0.754" transform="translate(33.792 37.921)" fill="#c8e1ff"/>
          <rect id="Rectángulo_345032" data-name="Rectángulo 345032" width="3.088" height="0.754" transform="translate(39.173 35.813)" fill="#c8e1ff"/>
          <rect id="Rectángulo_345033" data-name="Rectángulo 345033" width="4.9" height="0.754" transform="translate(33.792 35.813)" fill="#c8e1ff"/>
          <rect id="Rectángulo_345034" data-name="Rectángulo 345034" width="5.971" height="0.754" transform="translate(36.29 33.705)" fill="#c8e1ff"/>
          <rect id="Rectángulo_345035" data-name="Rectángulo 345035" width="1.97" height="0.754" transform="translate(33.792 33.705)" fill="#c8e1ff"/>
          <rect id="Rectángulo_345036" data-name="Rectángulo 345036" width="1.757" height="0.754" transform="translate(40.503 31.597)" fill="#c8e1ff"/>
          <path id="Trazado_732957" data-name="Trazado 732957" d="M929.941,600.91a.247.247,0,0,1,.04,0h3.961v-.754H927.7v.754Z" transform="translate(-893.904 -568.559)" fill="#c8e1ff"/>
          <rect id="Rectángulo_345037" data-name="Rectángulo 345037" width="1.731" height="0.754" transform="translate(33.793 29.489)" fill="#c8e1ff"/>
          <rect id="Rectángulo_345038" data-name="Rectángulo 345038" width="3.384" height="0.754" transform="translate(38.877 29.489)" fill="#c8e1ff"/>
          <rect id="Rectángulo_345039" data-name="Rectángulo 345039" width="2.418" height="0.754" transform="translate(35.994 29.489)" fill="#c8e1ff"/>
          <rect id="Rectángulo_345040" data-name="Rectángulo 345040" width="3.105" height="0.754" transform="translate(33.792 27.381)" fill="#c8e1ff"/>
          <rect id="Rectángulo_345041" data-name="Rectángulo 345041" width="4.899" height="0.754" transform="translate(37.362 27.381)" fill="#c8e1ff"/>
          <rect id="Rectángulo_345042" data-name="Rectángulo 345042" width="1.979" height="0.754" transform="translate(40.282 25.273)" fill="#c8e1ff"/>
          <rect id="Rectángulo_345043" data-name="Rectángulo 345043" width="6.024" height="0.754" transform="translate(33.793 25.273)" fill="#c8e1ff"/>
          <rect id="Rectángulo_345044" data-name="Rectángulo 345044" width="5.564" height="0.754" transform="translate(36.697 23.165)" fill="#c8e1ff"/>
          <rect id="Rectángulo_345045" data-name="Rectángulo 345045" width="2.439" height="0.754" transform="translate(33.793 23.165)" fill="#c8e1ff"/>
          <rect id="Rectángulo_345046" data-name="Rectángulo 345046" width="2.755" height="0.754" transform="translate(39.505 21.057)" fill="#c8e1ff"/>
          <rect id="Rectángulo_345047" data-name="Rectángulo 345047" width="3.157" height="0.754" transform="translate(35.884 21.057)" fill="#c8e1ff"/>
          <rect id="Rectángulo_345048" data-name="Rectángulo 345048" width="1.626" height="0.754" transform="translate(33.793 21.057)" fill="#c8e1ff"/>
          <rect id="Rectángulo_345049" data-name="Rectángulo 345049" width="2.922" height="5.213" transform="translate(18.114 12.862)" fill="#ff9c70"/>
          <path id="Trazado_732958" data-name="Trazado 732958" d="M1287.018,248h2.922a.09.09,0,0,0,.09-.09v-5.213a.09.09,0,0,0-.09-.09h-2.922a.09.09,0,0,0-.09.09v5.213a.09.09,0,0,0,.09.09m2.832-.18h-2.742v-5.033h2.742Z" transform="translate(-1268.904 -229.831)" fill="#ff9c70"/>
          <path id="Trazado_732959" data-name="Trazado 732959" d="M1290.571,283.653v1.206s-1.633-.321-1.937-1.546Z" transform="translate(-1269.536 -268.397)" fill="#383749"/>
          <path id="Trazado_732960" data-name="Trazado 732960" d="M1288.955,283.328a.09.09,0,0,0,.09-.09v-1.206a.09.09,0,0,0-.074-.089l-1.937-.34a.088.088,0,0,0-.081.027.09.09,0,0,0-.022.083c.315,1.266,1.938,1.6,2.007,1.612l.017,0m-.09-1.22v1.016a2.5,2.5,0,0,1-1.719-1.318Z" transform="translate(-1267.92 -266.776)" fill="#383749"/>
          <path id="Trazado_732961" data-name="Trazado 732961" d="M1249.276,169.923a3.6,3.6,0,0,1,.44.078,2.367,2.367,0,0,1,1.75,2.039l.213,1.8s.55.416.55.52-.357.446-.357.446-.27,1.849-1.058,1.968a3.759,3.759,0,0,1-3.46-1.655,5.1,5.1,0,0,1-.911-2.518,2.541,2.541,0,0,1,2.832-2.673" transform="translate(-1228.971 -160.961)" fill="#ff9c70"/>
          <path id="Trazado_732962" data-name="Trazado 732962" d="M1266.656,221.414s.275.573.736.664a1.286,1.286,0,0,0,.933-.335s-.275-.573-.736-.664a1.286,1.286,0,0,0-.933.335" transform="translate(-1246.133 -209.428)" fill="#fff"/>
          <path id="Trazado_732963" data-name="Trazado 732963" d="M1265.907,220.553a1.484,1.484,0,0,0,.86-.37.09.09,0,0,0,.021-.106,1.054,1.054,0,0,0-1.811-.357.09.09,0,0,0-.021.106,1.361,1.361,0,0,0,.8.713.765.765,0,0,0,.151.014m.686-.46a.853.853,0,1,1-.64-.553,1.115,1.115,0,0,1,.64.553" transform="translate(-1244.514 -207.801)" fill="#383749"/>
          <path id="Trazado_732964" data-name="Trazado 732964" d="M1266.874,222.65c.4.079.821-.357.821-.357s-.225-.563-.624-.642-.6.92-.2,1" transform="translate(-1245.502 -209.978)" fill="#383749"/>
          <path id="Trazado_732965" data-name="Trazado 732965" d="M1270.633,207.251c.083.04.122.263-.011.285a3.141,3.141,0,0,1-1.033-.036,1.5,1.5,0,0,1,1.044-.249" transform="translate(-1248.67 -196.308)" fill="#383749"/>
          <path id="Trazado_732966" data-name="Trazado 732966" d="M1268.506,206.041c.251,0,.49-.019.517-.024a.191.191,0,0,0,.158-.173.283.283,0,0,0-.124-.282c-.312-.151-1.007.144-1.124.239a.107.107,0,0,0-.046.113c.025.1.331.127.619.127m.472-.317a.131.131,0,0,1,.024.1,3.538,3.538,0,0,1-.777.022,1.275,1.275,0,0,1,.753-.125m.04-.08h0Z" transform="translate(-1247.055 -194.7)" fill="#383749"/>
          <path id="Trazado_732967" data-name="Trazado 732967" d="M1248.82,175.274a2.653,2.653,0,0,0,.391-.027c.795-.12,1.088-1.758,1.128-2.013.17-.165.362-.377.362-.489,0-.036,0-.145-.555-.569l-.209-1.758a2.459,2.459,0,0,0-1.817-2.116,3.735,3.735,0,0,0-.451-.079,2.648,2.648,0,0,0-2.139.726,2.568,2.568,0,0,0-.793,2.043.09.09,0,0,0,.179-.013,2.389,2.389,0,0,1,.738-1.9,2.473,2.473,0,0,1,1.994-.677,3.516,3.516,0,0,1,.429.076,2.279,2.279,0,0,1,1.682,1.963l.213,1.8a.09.09,0,0,0,.035.061,2.823,2.823,0,0,1,.516.464,3,3,0,0,1-.331.366.092.092,0,0,0-.027.052c-.072.5-.391,1.8-.982,1.892a3.483,3.483,0,0,1-2.789-.971.09.09,0,1,0-.119.134,3.819,3.819,0,0,0,2.545,1.042" transform="translate(-1227.354 -159.35)" fill="#383749"/>
          <path id="Trazado_732968" data-name="Trazado 732968" d="M1249.039,311.973a6.244,6.244,0,0,1-2.922-.863,11.552,11.552,0,0,0-2.084,2.329,57.771,57.771,0,0,0-.875,6.319h8.276s-.518-6.093-2.394-7.785" transform="translate(-1228.004 -294.731)" fill="#9f0925"/>
          <path id="Trazado_732969" data-name="Trazado 732969" d="M1241.54,318.231h8.276a.09.09,0,0,0,.09-.1c-.021-.25-.543-6.147-2.424-7.844a.1.1,0,0,0-.065-.023,6.247,6.247,0,0,1-2.875-.852.091.091,0,0,0-.1.012,11.391,11.391,0,0,0-2.107,2.361,56.123,56.123,0,0,0-.882,6.346.09.09,0,0,0,.089.1m8.177-.18h-8.078a54.514,54.514,0,0,1,.859-6.193,10.932,10.932,0,0,1,2.015-2.256,6.582,6.582,0,0,0,2.874.845c1.68,1.564,2.253,6.821,2.33,7.6" transform="translate(-1226.385 -293.115)" fill="#fff"/>
          <path id="Trazado_732970" data-name="Trazado 732970" d="M1315.189,389.2a.09.09,0,0,0,.09-.088,31.327,31.327,0,0,0-.478-4.721.09.09,0,0,0-.177.032,31.1,31.1,0,0,1,.475,4.685.09.09,0,0,0,.088.092Z" transform="translate(-1295.614 -364.086)" fill="#383749"/>
          <path id="Trazado_732971" data-name="Trazado 732971" d="M1377.062,425.01a.09.09,0,0,0,.09-.09v-2.713a.09.09,0,0,0-.18,0v2.713a.09.09,0,0,0,.09.09" transform="translate(-1360.767 -399.893)" fill="#383749"/>
          <path id="Trazado_732972" data-name="Trazado 732972" d="M1264.1,265.088a.518.518,0,0,0,.059,0,.09.09,0,0,0-.02-.178.659.659,0,0,1-.374-.092.09.09,0,1,0-.1.152.828.828,0,0,0,.431.12" transform="translate(-1241.883 -250.86)" fill="#383749"/>
          <path id="Trazado_732973" data-name="Trazado 732973" d="M1259.079,157.165a3.173,3.173,0,0,1-2.5-.451s-1,2.443-2.163,2.312l.35,1.221v.527s-3.526-3.975.54-5.69c0,0,1.38-.931,3.242.5s.71,2.531.71,2.531Z" transform="translate(-1236.715 -146.637)" fill="#383749"/>
          <path id="Trazado_732974" data-name="Trazado 732974" d="M1253.149,159.333a.085.085,0,0,0,.032-.006.089.089,0,0,0,.058-.084v-.527a.091.091,0,0,0,0-.025l-.316-1.1c1.03-.034,1.877-1.8,2.08-2.267a3.223,3.223,0,0,0,2.392.419l.161.856a.09.09,0,0,0,.151.048,1.381,1.381,0,0,0,.378-1.019,2.368,2.368,0,0,0-1.1-1.649,2.905,2.905,0,0,0-3.347-.5,2.945,2.945,0,0,0-1.936,1.991c-.407,1.794,1.306,3.751,1.38,3.834a.09.09,0,0,0,.067.03m-.09-.6v.262c-.417-.535-1.5-2.092-1.182-3.482a2.8,2.8,0,0,1,1.846-1.873c.07-.045,1.368-.883,3.152.487a2.2,2.2,0,0,1,1.026,1.516,1.2,1.2,0,0,1-.208.736l-.142-.756a.089.089,0,0,0-.04-.059.092.092,0,0,0-.071-.011,3.109,3.109,0,0,1-2.423-.435.091.091,0,0,0-.078-.016.09.09,0,0,0-.06.053c-.01.024-.986,2.37-2.07,2.257a.09.09,0,0,0-.1.114Z" transform="translate(-1235.1 -145.106)" fill="#383749"/>
          <path id="Trazado_732975" data-name="Trazado 732975" d="M1333.9,231.1s-.513-.617-.98-.361-.122,1.914,1.071,1.643c.663-.151-.09-1.282-.09-1.282" transform="translate(-1315.546 -218.536)" fill="#ff9c70"/>
          <path id="Trazado_732976" data-name="Trazado 732976" d="M1337.3,230.876a1.242,1.242,0,0,0,.274-.032.09.09,0,0,0-.04-.175.905.905,0,0,1-1.077-.624c-.136-.359-.1-.758.069-.852.4-.218.863.335.868.34a.09.09,0,0,0,.138-.115c-.023-.027-.565-.67-1.093-.383-.289.158-.3.67-.151,1.074a1.094,1.094,0,0,0,1.01.768" transform="translate(-1319.117 -216.907)" fill="#383749"/>
          <path id="Trazado_732977" data-name="Trazado 732977" d="M1344.263,239.589a.09.09,0,0,0,.067-.15c-.034-.038-.338-.364-.627-.251a.09.09,0,1,0,.066.167c.146-.058.364.133.428.2a.089.089,0,0,0,.067.029" transform="translate(-1326.214 -226.573)" fill="#383749"/>
          <path id="Trazado_732978" data-name="Trazado 732978" d="M1243.964,571.283s.133.2.8,0v-.53l.451.53a2.054,2.054,0,0,0,.958-.4s1.19-8.233-4.775-6.287a2.255,2.255,0,0,0-1.669.828c-.694.85-.621,4.519-.165,5.772a1.866,1.866,0,0,0,.839.084l.061-.53.306.554a2.084,2.084,0,0,0,.628,0c.146-.062,2.226-.542,2.561-.025" transform="translate(-1222.637 -534.591)" fill="#383749"/>
          <path id="Trazado_732979" data-name="Trazado 732979" d="M1242.563,569.854a1.938,1.938,0,0,0,.533-.091.09.09,0,0,0,.065-.086v-.286l.293.344a.09.09,0,0,0,.082.031,2.108,2.108,0,0,0,1.01-.425.09.09,0,0,0,.023-.048c.026-.179.612-4.41-1.344-6.056a3.549,3.549,0,0,0-3.534-.334,2.331,2.331,0,0,0-1.725.861c-.72.883-.649,4.571-.18,5.86a.09.09,0,0,0,.055.054,1.941,1.941,0,0,0,.889.087.089.089,0,0,0,.069-.077l.029-.25.171.308a.09.09,0,0,0,.067.046,1.935,1.935,0,0,0,.674-.006c.227-.1,2.17-.492,2.451-.059v0c.019.028.1.126.371.126m-.3-.177h0Zm.714-.068c-.492.132-.629.026-.643.014-.393-.583-2.556-.051-2.667,0a1.74,1.74,0,0,1-.537,0l-.284-.514a.092.092,0,0,0-.1-.045.09.09,0,0,0-.072.078l-.053.464a1.813,1.813,0,0,1-.687-.081c-.433-1.264-.5-4.825.165-5.643a2.186,2.186,0,0,1,1.6-.795.109.109,0,0,0,.03,0,3.394,3.394,0,0,1,3.376.3c1.8,1.513,1.334,5.487,1.286,5.864a1.911,1.911,0,0,1-.838.342l-.418-.49a.09.09,0,0,0-.158.058Z" transform="translate(-1220.94 -532.985)" fill="#383749"/>
          <rect id="Rectángulo_345050" data-name="Rectángulo 345050" width="2.922" height="5.213" transform="matrix(-1, -0.003, 0.003, -1, 21.339, 39.136)" fill="#ff9c70"/>
          <path id="Trazado_732980" data-name="Trazado 732980" d="M1283.924,647.871a.089.089,0,0,0,.063-.026.088.088,0,0,0,.026-.063l.014-5.213a.09.09,0,0,0-.09-.09l-2.922-.008h0a.09.09,0,0,0-.09.089l-.014,5.213a.091.091,0,0,0,.026.064.089.089,0,0,0,.063.026l2.922.008Zm-.076-5.214-.013,5.033-2.742-.007.014-5.034Z" transform="translate(-1262.585 -608.645)" fill="#ff9c70"/>
          <path id="Trazado_732981" data-name="Trazado 732981" d="M1290.249,686.943s-.3,1.023-1.187,1.025-1.119-.97-1.119-.97a7.776,7.776,0,0,1,2.306-.054" transform="translate(-1269.177 -650.697)" fill="#383749"/>
          <path id="Trazado_732982" data-name="Trazado 732982" d="M1287.44,686.449h0c.941,0,1.271-1.078,1.274-1.089a.09.09,0,0,0-.042-.1,7.265,7.265,0,0,0-2.363.044.088.088,0,0,0-.062.038.09.09,0,0,0-.013.072c0,.01.26,1.039,1.2,1.039m1.077-1.064a1.262,1.262,0,0,1-1.074.884h0a1.1,1.1,0,0,1-1-.806,7.811,7.811,0,0,1,2.076-.079" transform="translate(-1267.558 -649.088)" fill="#383749"/>
          <path id="Trazado_732983" data-name="Trazado 732983" d="M1261.267,582.868c0,1.828.868,3.548,2.592,3.548s2.592-1.72,2.592-3.548a2.592,2.592,0,1,0-5.184,0" transform="translate(-1243.974 -549.724)" fill="#ff9c70"/>
          <path id="Trazado_732984" data-name="Trazado 732984" d="M1262.243,584.887c1.843,0,2.682-1.886,2.682-3.638a2.682,2.682,0,1,0-5.363,0c0,1.752.839,3.638,2.682,3.638m0-6.141a2.219,2.219,0,0,1,2.5,2.5c0,1.666-.783,3.458-2.5,3.458s-2.5-1.792-2.5-3.458a2.219,2.219,0,0,1,2.5-2.5" transform="translate(-1242.358 -548.106)" fill="#383749"/>
          <path id="Trazado_732985" data-name="Trazado 732985" d="M1326.343,617.734c.083.04.122.263-.011.286a3.141,3.141,0,0,1-1.033-.036,1.5,1.5,0,0,1,1.044-.25" transform="translate(-1307.313 -585.179)" fill="#383749"/>
          <path id="Trazado_732986" data-name="Trazado 732986" d="M1324.228,616.52c.248,0,.48-.018.506-.022a.191.191,0,0,0,.158-.173.283.283,0,0,0-.124-.282c-.313-.151-1.007.144-1.124.239a.107.107,0,0,0-.046.113c.025.1.338.125.63.125m.461-.316a.131.131,0,0,1,.024.1,3.581,3.581,0,0,1-.777.022,1.278,1.278,0,0,1,.753-.125m.04-.08h0Z" transform="translate(-1305.699 -583.569)" fill="#383749"/>
          <path id="Trazado_732987" data-name="Trazado 732987" d="M1272.513,617.934c-.082.043-.113.267.021.285a3.142,3.142,0,0,0,1.031-.072,1.5,1.5,0,0,0-1.052-.213" transform="translate(-1251.677 -585.363)" fill="#383749"/>
          <path id="Trazado_732988" data-name="Trazado 732988" d="M1271.2,616.705c.327,0,.807-.024.834-.15a.108.108,0,0,0-.051-.112c-.12-.09-.825-.361-1.131-.2a.283.283,0,0,0-.114.286.192.192,0,0,0,.164.168c.018,0,.14.008.3.008m.494-.2a4.155,4.155,0,0,1-.768.018.123.123,0,0,1,.01-.117,1.273,1.273,0,0,1,.758.1" transform="translate(-1250.056 -583.751)" fill="#383749"/>
          <path id="Trazado_732989" data-name="Trazado 732989" d="M1318.925,630.121s.275.573.736.664a1.286,1.286,0,0,0,.933-.335s-.275-.573-.736-.664a1.286,1.286,0,0,0-.933.335" transform="translate(-1301.154 -596.617)" fill="#fff"/>
          <path id="Trazado_732990" data-name="Trazado 732990" d="M1318.178,629.264a1.484,1.484,0,0,0,.86-.37.09.09,0,0,0,.021-.106,1.054,1.054,0,0,0-1.811-.357.09.09,0,0,0-.021.106,1.362,1.362,0,0,0,.8.713.769.769,0,0,0,.151.014m.685-.46a.853.853,0,1,1-.64-.553,1.114,1.114,0,0,1,.64.553" transform="translate(-1299.537 -594.994)" fill="#383749"/>
          <path id="Trazado_732991" data-name="Trazado 732991" d="M1271.766,630.121s-.275.573-.736.664a1.286,1.286,0,0,1-.933-.335s.275-.573.736-.664a1.286,1.286,0,0,1,.933.335" transform="translate(-1249.754 -596.617)" fill="#fff"/>
          <path id="Trazado_732992" data-name="Trazado 732992" d="M1269.279,629.263a.762.762,0,0,0,.151-.014,1.361,1.361,0,0,0,.8-.713.09.09,0,0,0-.021-.106,1.054,1.054,0,0,0-1.811.357.09.09,0,0,0,.021.106,1.486,1.486,0,0,0,.86.37m.755-.744a.853.853,0,1,1-.8-.269,1.116,1.116,0,0,1,.8.269" transform="translate(-1248.137 -594.993)" fill="#383749"/>
          <path id="Trazado_732993" data-name="Trazado 732993" d="M1303.232,646.229a.09.09,0,0,0,.036-.008c.071-.032.287-.127.283-.3s-.272-.3-.325-.324a.09.09,0,0,0-.065.168c.1.038.209.115.21.16,0,.021-.036.072-.176.134a.09.09,0,0,0,.036.172" transform="translate(-1283.277 -611.599)" fill="#383749"/>
          <path id="Trazado_732994" data-name="Trazado 732994" d="M1186.4,715.6a3.674,3.674,0,0,1-1.686.633,1.656,1.656,0,0,1-1.236-.633,26.631,26.631,0,0,0-3.172,1.383c-1.735,1.289-2.954,7.3-2.954,7.3l2.274-.085.609-1.373-.023,1.373h8.557l.164-1.583.563,1.583h2.455s-1.682-6.272-2.573-7.163a8.174,8.174,0,0,0-2.979-1.43" transform="translate(-1165.058 -677.923)" fill="#9f0925"/>
          <path id="Trazado_732995" data-name="Trazado 732995" d="M1308.554,778.112a.255.255,0,1,0,.255.255.255.255,0,0,0-.255-.255" transform="translate(-1288.808 -737.146)" fill="#fff"/>
          <path id="Trazado_732996" data-name="Trazado 732996" d="M1308.554,756.925a.255.255,0,1,0,.255.255.255.255,0,0,0-.255-.255" transform="translate(-1288.808 -717.074)" fill="#e9f3ff"/>
          <path id="Trazado_732997" data-name="Trazado 732997" d="M1308.554,734.692a.255.255,0,1,0,.255.255.255.255,0,0,0-.255-.255" transform="translate(-1288.808 -696.012)" fill="#e9f3ff"/>
          <path id="Trazado_732998" data-name="Trazado 732998" d="M1175.737,722.75h0l2.274-.085a.09.09,0,0,0,.079-.053l.43-.968-.016.93a.09.09,0,0,0,.09.091h8.557a.09.09,0,0,0,.089-.081l.123-1.188.429,1.209a.09.09,0,0,0,.085.06h2.455a.09.09,0,0,0,.087-.113c-.069-.257-1.7-6.306-2.6-7.2a8.141,8.141,0,0,0-3.021-1.454.093.093,0,0,0-.074.013,3.608,3.608,0,0,1-1.635.617,1.57,1.57,0,0,1-1.163-.6.092.092,0,0,0-.1-.031,26,26,0,0,0-3.194,1.4c-1.743,1.295-2.938,7.1-2.988,7.349a.09.09,0,0,0,.088.108m2.215-.263-2.1.079c.178-.827,1.337-5.971,2.9-7.129a25.1,25.1,0,0,1,3.089-1.348,1.715,1.715,0,0,0,1.265.616,3.625,3.625,0,0,0,1.7-.626,7.917,7.917,0,0,1,2.9,1.4c.8.8,2.286,6.159,2.518,7.01h-2.274l-.541-1.524a.088.088,0,0,0-.1-.059.09.09,0,0,0-.079.08l-.156,1.5h-8.385l.022-1.281a.09.09,0,0,0-.172-.038Z" transform="translate(-1163.442 -676.306)" fill="#9f0925"/>
          <path id="Trazado_732999" data-name="Trazado 732999" d="M1306.344,656.715a.09.09,0,0,0,0-.18c-.212-.006-.52-.074-.522-.181a.094.094,0,0,0-.092-.088.09.09,0,0,0-.088.092c.008.319.582.352.7.356Z" transform="translate(-1286.294 -621.716)" fill="#383749"/>
          <path id="Trazado_733000" data-name="Trazado 733000" d="M1328.187,630.909c.461.091.658-.908.2-1s-.658.908-.2,1" transform="translate(-1309.679 -596.742)" fill="#383749"/>
          <path id="Trazado_733001" data-name="Trazado 733001" d="M1326.631,629.387c.254,0,.42-.253.471-.51.056-.283-.02-.614-.318-.673a.394.394,0,0,0-.384.143.836.836,0,0,0-.149.753.4.4,0,0,0,.3.279.418.418,0,0,0,.079.008m.077-1.011a.206.206,0,0,1,.041,0c.169.033.217.258.177.462s-.172.39-.339.36a.218.218,0,0,1-.165-.16.66.66,0,0,1,.114-.577.229.229,0,0,1,.173-.089" transform="translate(-1308.062 -595.123)" fill="#383749"/>
          <path id="Trazado_733002" data-name="Trazado 733002" d="M1279.554,630.909c-.461.091-.658-.908-.2-1s.658.908.2,1" transform="translate(-1258.279 -596.742)" fill="#383749"/>
          <path id="Trazado_733003" data-name="Trazado 733003" d="M1277.884,629.382a.39.39,0,0,0,.376-.286.836.836,0,0,0-.149-.753.393.393,0,0,0-.384-.143c-.3.059-.374.39-.318.673a.767.767,0,0,0,.176.37.4.4,0,0,0,.3.139m-.081-1.01a.23.23,0,0,1,.173.089.661.661,0,0,1,.114.577.219.219,0,0,1-.166.16c-.168.03-.3-.156-.339-.36s.007-.429.177-.462a.2.2,0,0,1,.041,0" transform="translate(-1256.667 -595.119)" fill="#383749"/>
          <path id="Trazado_733004" data-name="Trazado 733004" d="M1256.065,569.952s-1.267.155-3.141-1.545c0,0-1.142,1.98-2.437,1.829,0,0-.619-2.7,1.762-3.149,0,0,2.49-.738,3.711.962a2.4,2.4,0,0,1,.106,3Z" transform="translate(-1233.483 -537.08)" fill="#383749"/>
          <path id="Trazado_733005" data-name="Trazado 733005" d="M1254.517,569.6a.089.089,0,0,0,.068-.031,2.512,2.512,0,0,0-.1-3.109c-1.243-1.733-3.783-1-3.809-1a2.178,2.178,0,0,0-1.491.931,3.353,3.353,0,0,0-.333,2.324.089.089,0,0,0,.077.069c1.186.138,2.216-1.376,2.468-1.779a4.841,4.841,0,0,0,3.026,1.5h.005v1a.09.09,0,0,0,.059.084.087.087,0,0,0,.031.006m-2.586-4.116a2.839,2.839,0,0,1,2.407,1.08,2.35,2.35,0,0,1,.269,2.654v-.8a.09.09,0,0,0-.03-.067.091.091,0,0,0-.071-.022c-.012,0-1.255.124-3.07-1.523a.09.09,0,0,0-.138.022c-.011.019-1.08,1.866-2.284,1.79a3.16,3.16,0,0,1,.321-2.123,2.016,2.016,0,0,1,1.383-.854,4.808,4.808,0,0,1,1.214-.154" transform="translate(-1231.934 -535.543)" fill="#383749"/>
          <path id="Trazado_733006" data-name="Trazado 733006" d="M1245.785,623.521s.236-.555.7-.312.4,1.783-.794,1.527Z" transform="translate(-1223.461 -590.34)" fill="#ff9c70"/>
          <path id="Trazado_733007" data-name="Trazado 733007" d="M1244.326,623.23a.843.843,0,0,0,.833-.591.979.979,0,0,0-.246-1.133.526.526,0,0,0-.434-.043.782.782,0,0,0-.394.4.1.1,0,0,0-.007.029l-.09,1.215a.09.09,0,0,0,.071.094,1.266,1.266,0,0,0,.267.03m.317-1.616a.409.409,0,0,1,.187.051c.208.107.286.56.159.913a.68.68,0,0,1-.816.461l.083-1.118a.588.588,0,0,1,.284-.289.3.3,0,0,1,.1-.018" transform="translate(-1221.844 -588.717)" fill="#ff9c70"/>
          <path id="Trazado_733008" data-name="Trazado 733008" d="M1244.326,623.23a.843.843,0,0,0,.833-.591.979.979,0,0,0-.246-1.133.526.526,0,0,0-.434-.043.781.781,0,0,0-.393.4.09.09,0,0,0,.165.071.606.606,0,0,1,.29-.3.351.351,0,0,1,.289.033c.208.107.286.56.159.913a.693.693,0,0,1-.893.447.09.09,0,1,0-.038.176,1.26,1.26,0,0,0,.267.03" transform="translate(-1221.845 -588.717)" fill="#383749"/>
          <path id="Trazado_733009" data-name="Trazado 733009" d="M1249.335,631.364a.09.09,0,0,0,.086-.063.45.45,0,0,1,.361-.3.09.09,0,0,0-.018-.179.631.631,0,0,0-.514.43.089.089,0,0,0,.086.116" transform="translate(-1226.753 -597.606)" fill="#383749"/>
          <path id="Trazado_733010" data-name="Trazado 733010" d="M1356.085,623.521s-.236-.555-.7-.312-.4,1.783.794,1.527Z" transform="translate(-1338.64 -590.34)" fill="#ff9c70"/>
          <path id="Trazado_733011" data-name="Trazado 733011" d="M1354.309,623.23a1.26,1.26,0,0,0,.267-.03.09.09,0,0,0,.071-.094l-.091-1.215a.091.091,0,0,0-.007-.028.781.781,0,0,0-.393-.4.526.526,0,0,0-.434.043.978.978,0,0,0-.246,1.133.843.843,0,0,0,.833.592m.152-.191a.68.68,0,0,1-.816-.461c-.127-.353-.048-.805.159-.912a.351.351,0,0,1,.289-.033.588.588,0,0,1,.284.289Z" transform="translate(-1337.021 -588.717)" fill="#ff9c70"/>
          <path id="Trazado_733012" data-name="Trazado 733012" d="M1354.31,623.23a1.262,1.262,0,0,0,.267-.03.09.09,0,1,0-.038-.176.7.7,0,0,1-.893-.447c-.127-.353-.048-.805.159-.912a.351.351,0,0,1,.29-.033.606.606,0,0,1,.29.3.091.091,0,0,0,.118.047.09.09,0,0,0,.047-.118.782.782,0,0,0-.393-.4.526.526,0,0,0-.434.043.978.978,0,0,0-.246,1.133.843.843,0,0,0,.833.592" transform="translate(-1337.022 -588.717)" fill="#383749"/>
          <path id="Trazado_733013" data-name="Trazado 733013" d="M1360.557,631.363a.091.091,0,0,0,.027,0,.09.09,0,0,0,.059-.112.631.631,0,0,0-.514-.43.09.09,0,0,0-.018.179.453.453,0,0,1,.36.3.089.089,0,0,0,.086.063" transform="translate(-1343.37 -597.604)" fill="#383749"/>
          <path id="Trazado_733014" data-name="Trazado 733014" d="M1224.6,839.089a.087.087,0,0,0,.032-.006.09.09,0,0,0,.052-.116l-.723-1.888a.09.09,0,0,0-.168.065l.723,1.888a.09.09,0,0,0,.084.058" transform="translate(-1200.237 -792.953)" fill="#383749"/>
          <path id="Trazado_733015" data-name="Trazado 733015" d="M1389.268,839.084a.089.089,0,0,0,.08-.048l.984-1.888a.09.09,0,0,0-.16-.083l-.984,1.888a.09.09,0,0,0,.038.121.088.088,0,0,0,.042.01" transform="translate(-1374.6 -792.948)" fill="#383749"/>
          <path id="Trazado_733016" data-name="Trazado 733016" d="M1142.129,559.333h16.363a.745.745,0,0,0,.744-.744V542.227a.745.745,0,0,0-.744-.744h-16.363a.745.745,0,0,0-.744.744v16.363a.745.745,0,0,0,.744.744m16.363-17.67a.565.565,0,0,1,.564.564v16.363a.565.565,0,0,1-.564.564h-16.363a.565.565,0,0,1-.564-.564V542.227a.565.565,0,0,1,.564-.564Z" transform="translate(-1130.447 -512.975)" fill="#a7d0f9"/>
          <path id="Trazado_733017" data-name="Trazado 733017" d="M1142.129,155.871h16.363a.745.745,0,0,0,.744-.744V138.765a.745.745,0,0,0-.744-.744h-16.363a.745.745,0,0,0-.744.744v16.363a.745.745,0,0,0,.744.744m16.363-17.67a.565.565,0,0,1,.564.564v16.363a.565.565,0,0,1-.564.564h-16.363a.565.565,0,0,1-.564-.564V138.765a.565.565,0,0,1,.564-.564Z" transform="translate(-1130.447 -130.755)" fill="#a7d0f9"/>
          <rect id="Rectángulo_345051" data-name="Rectángulo 345051" width="14.047" height="0.754" transform="translate(48.116 21.032)" fill="#e9f3ff"/>
          <rect id="Rectángulo_345052" data-name="Rectángulo 345052" width="14.047" height="0.754" transform="translate(48.116 23.14)" fill="#e9f3ff"/>
          <rect id="Rectángulo_345053" data-name="Rectángulo 345053" width="14.047" height="0.754" transform="translate(48.116 25.248)" fill="#e9f3ff"/>
          <rect id="Rectángulo_345054" data-name="Rectángulo 345054" width="8.224" height="0.754" transform="translate(53.94 27.356)" fill="#e9f3ff"/>
          <rect id="Rectángulo_345055" data-name="Rectángulo 345055" width="5.359" height="0.754" transform="translate(48.116 27.356)" fill="#e9f3ff"/>
          <rect id="Rectángulo_345056" data-name="Rectángulo 345056" width="5.455" height="0.754" transform="translate(56.709 29.464)" fill="#e9f3ff"/>
          <rect id="Rectángulo_345057" data-name="Rectángulo 345057" width="8.128" height="0.754" transform="translate(48.116 29.464)" fill="#e9f3ff"/>
          <rect id="Rectángulo_345058" data-name="Rectángulo 345058" width="10.316" height="0.754" transform="translate(51.848 31.572)" fill="#e9f3ff"/>
          <rect id="Rectángulo_345059" data-name="Rectángulo 345059" width="3.267" height="0.754" transform="translate(48.116 31.572)" fill="#e9f3ff"/>
          <rect id="Rectángulo_345060" data-name="Rectángulo 345060" width="3.024" height="0.754" transform="translate(59.14 33.68)" fill="#e9f3ff"/>
          <rect id="Rectángulo_345061" data-name="Rectángulo 345061" width="10.559" height="0.754" transform="translate(48.116 33.68)" fill="#e9f3ff"/>
          <rect id="Rectángulo_345062" data-name="Rectángulo 345062" width="2.872" height="0.754" transform="translate(48.116 35.788)" fill="#e9f3ff"/>
          <rect id="Rectángulo_345063" data-name="Rectángulo 345063" width="5.85" height="0.754" transform="translate(56.314 35.788)" fill="#e9f3ff"/>
          <rect id="Rectángulo_345064" data-name="Rectángulo 345064" width="4.396" height="0.754" transform="translate(51.453 35.788)" fill="#e9f3ff"/>
          <rect id="Rectángulo_345065" data-name="Rectángulo 345065" width="5.302" height="0.754" transform="translate(48.116 37.896)" fill="#e9f3ff"/>
          <rect id="Rectángulo_345066" data-name="Rectángulo 345066" width="8.281" height="0.754" transform="translate(53.883 37.896)" fill="#e9f3ff"/>
          <rect id="Rectángulo_345067" data-name="Rectángulo 345067" width="3.307" height="0.754" transform="translate(58.857 40.004)" fill="#e9f3ff"/>
          <rect id="Rectángulo_345068" data-name="Rectángulo 345068" width="10.276" height="0.754" transform="translate(48.116 40.004)" fill="#e9f3ff"/>
          <rect id="Rectángulo_345069" data-name="Rectángulo 345069" width="9.411" height="0.754" transform="translate(52.753 42.112)" fill="#e9f3ff"/>
          <rect id="Rectángulo_345070" data-name="Rectángulo 345070" width="4.172" height="0.754" transform="translate(48.116 42.112)" fill="#e9f3ff"/>
          <rect id="Rectángulo_345071" data-name="Rectángulo 345071" width="4.72" height="0.754" transform="translate(57.444 44.22)" fill="#e9f3ff"/>
          <rect id="Rectángulo_345072" data-name="Rectángulo 345072" width="5.64" height="0.754" transform="translate(51.34 44.22)" fill="#e9f3ff"/>
          <rect id="Rectángulo_345073" data-name="Rectángulo 345073" width="2.759" height="0.754" transform="translate(48.116 44.22)" fill="#e9f3ff"/>
          <path id="Trazado_733018" data-name="Trazado 733018" d="M519.6,51.674h26.584A1.275,1.275,0,0,0,547.46,50.4v-22.7a1.275,1.275,0,0,0-1.276-1.276H519.6a1.276,1.276,0,0,0-1.276,1.276V50.4a1.276,1.276,0,0,0,1.276,1.276" transform="translate(-485.868 -25.027)" fill="#fff"/>
          <path id="Trazado_733019" data-name="Trazado 733019" d="M517.984,50.146h26.583a1.367,1.367,0,0,0,1.365-1.365v-22.7a1.367,1.367,0,0,0-1.365-1.365H517.984a1.367,1.367,0,0,0-1.366,1.365v22.7a1.367,1.367,0,0,0,1.366,1.365m26.583-25.256a1.187,1.187,0,0,1,1.186,1.186v22.7a1.187,1.187,0,0,1-1.186,1.186H517.984a1.187,1.187,0,0,1-1.186-1.186v-22.7a1.187,1.187,0,0,1,1.186-1.186Z" transform="translate(-484.251 -23.41)" fill="#383749"/>
          <path id="Trazado_733020" data-name="Trazado 733020" d="M829.948,170.233h0a6.505,6.505,0,0,0,.727-.054.09.09,0,0,0-.024-.178,6.31,6.31,0,0,1-.706.052.09.09,0,0,0,0,.18m-.718-.027a.09.09,0,0,0,.008-.179,6.259,6.259,0,0,1-.7-.106.092.092,0,0,0-.106.07.09.09,0,0,0,.069.107,6.51,6.51,0,0,0,.72.109h.009m2.14-.159a.078.078,0,0,0,.022,0,6.4,6.4,0,0,0,.7-.216.09.09,0,0,0-.063-.169,6.2,6.2,0,0,1-.677.211.09.09,0,0,0,.022.177m-3.544-.137a.09.09,0,0,0,.029-.175,6.25,6.25,0,0,1-.658-.262.091.091,0,0,0-.119.043.09.09,0,0,0,.044.119,6.5,6.5,0,0,0,.677.27.091.091,0,0,0,.029,0m4.888-.368a.089.089,0,0,0,.041-.01,6.458,6.458,0,0,0,.629-.369.09.09,0,1,0-.1-.15,6.339,6.339,0,0,1-.611.358.09.09,0,0,0,.041.17m-6.188-.238a.09.09,0,0,0,.047-.166,6.288,6.288,0,0,1-.582-.4.09.09,0,1,0-.111.142,6.512,6.512,0,0,0,.6.415.088.088,0,0,0,.047.013m7.383-.556a.09.09,0,0,0,.058-.021,6.494,6.494,0,0,0,.53-.5.09.09,0,0,0-.131-.124,6.2,6.2,0,0,1-.515.486.09.09,0,0,0,.058.159m-8.513-.327a.091.091,0,0,0,.064-.027.09.09,0,0,0,0-.127,6.435,6.435,0,0,1-.477-.524.09.09,0,1,0-.139.113,6.6,6.6,0,0,0,.49.539.089.089,0,0,0,.063.026m9.5-.715a.09.09,0,0,0,.072-.036,6.484,6.484,0,0,0,.4-.606.09.09,0,1,0-.155-.091,6.24,6.24,0,0,1-.393.589.09.09,0,0,0,.072.144m-10.4-.4a.09.09,0,0,0,.076-.138,6.223,6.223,0,0,1-.347-.618.09.09,0,0,0-.162.079,6.545,6.545,0,0,0,.357.635.09.09,0,0,0,.076.041m11.13-.837a.09.09,0,0,0,.082-.053,6.537,6.537,0,0,0,.257-.682.09.09,0,0,0-.172-.054,6.214,6.214,0,0,1-.25.663.09.09,0,0,0,.082.126m-11.76-.453a.09.09,0,0,0,.085-.12,6.224,6.224,0,0,1-.2-.68.09.09,0,0,0-.175.04,6.409,6.409,0,0,0,.2.7.09.09,0,0,0,.085.06m12.19-.916a.09.09,0,0,0,.088-.073,6.489,6.489,0,0,0,.1-.722.09.09,0,0,0-.179-.013,6.275,6.275,0,0,1-.094.7.09.09,0,0,0,.071.1l.017,0m-12.512-.482h.01a.09.09,0,0,0,.079-.1,6.332,6.332,0,0,1-.04-.707.09.09,0,1,0-.18,0,6.541,6.541,0,0,0,.041.727.09.09,0,0,0,.089.08m12.621-.948h0a.09.09,0,0,0,.087-.093,6.46,6.46,0,0,0-.067-.725.09.09,0,0,0-.178.027,6.248,6.248,0,0,1,.065.7.09.09,0,0,0,.09.087m-12.655-.026a.09.09,0,0,0,.09-.086,6.278,6.278,0,0,1,.068-.7.09.09,0,0,0-.075-.1.091.091,0,0,0-.1.075,6.49,6.49,0,0,0-.07.725.09.09,0,0,0,.086.093Zm12.443-1.393a.09.09,0,0,0,.087-.113,6.386,6.386,0,0,0-.229-.692.09.09,0,1,0-.167.066,6.221,6.221,0,0,1,.223.673.09.09,0,0,0,.087.067m-12.224-.025a.09.09,0,0,0,.087-.066,6.2,6.2,0,0,1,.225-.671.09.09,0,1,0-.167-.067,6.4,6.4,0,0,0-.232.691.09.09,0,0,0,.063.11.093.093,0,0,0,.024,0m11.7-1.31a.092.092,0,0,0,.042-.011.09.09,0,0,0,.037-.122,6.5,6.5,0,0,0-.38-.622.09.09,0,1,0-.148.1,6.242,6.242,0,0,1,.369.6.09.09,0,0,0,.079.047m-11.162-.022a.09.09,0,0,0,.079-.047,6.194,6.194,0,0,1,.371-.6.09.09,0,0,0-.147-.1,6.4,6.4,0,0,0-.382.621.09.09,0,0,0,.079.132m10.346-1.158a.09.09,0,0,0,.068-.149,6.578,6.578,0,0,0-.509-.521.09.09,0,1,0-.121.133,6.35,6.35,0,0,1,.5.506.09.09,0,0,0,.068.031m-9.525-.018a.089.089,0,0,0,.068-.031,6.227,6.227,0,0,1,.5-.5.09.09,0,1,0-.121-.133,6.45,6.45,0,0,0-.512.519.09.09,0,0,0,.008.127.089.089,0,0,0,.059.022m8.466-.949a.09.09,0,0,0,.053-.163,6.468,6.468,0,0,0-.613-.394.09.09,0,0,0-.088.157,6.4,6.4,0,0,1,.6.382.089.089,0,0,0,.053.017m-7.4-.014a.091.091,0,0,0,.052-.017,6.243,6.243,0,0,1,.6-.381.09.09,0,0,0,.035-.122.089.089,0,0,0-.122-.034,6.391,6.391,0,0,0-.615.391.09.09,0,0,0,.052.163m6.154-.691a.09.09,0,0,0,.035-.173,6.436,6.436,0,0,0-.686-.245.09.09,0,0,0-.051.173,6.234,6.234,0,0,1,.667.238.087.087,0,0,0,.035.007m-4.9-.009a.086.086,0,0,0,.035-.007,6.218,6.218,0,0,1,.668-.235.09.09,0,0,0-.05-.173,6.406,6.406,0,0,0-.688.242.09.09,0,0,0,.035.173m3.525-.394a.09.09,0,0,0,.015-.178,6.415,6.415,0,0,0-.724-.083.088.088,0,0,0-.095.085.09.09,0,0,0,.085.095,6.229,6.229,0,0,1,.7.08h.015m-2.146,0h.015a6.335,6.335,0,0,1,.7-.078.09.09,0,0,0,.085-.095.092.092,0,0,0-.094-.085,6.446,6.446,0,0,0-.724.08.09.09,0,0,0,.015.178" transform="translate(-790.721 -149.113)" fill="#e9f3ff"/>
          <path id="Trazado_733021" data-name="Trazado 733021" d="M551.686,255.1h0a6.474,6.474,0,0,0,.727-.054.09.09,0,0,0,.077-.1.092.092,0,0,0-.1-.078,6.317,6.317,0,0,1-.706.052.09.09,0,0,0,0,.18m-.718-.027a.09.09,0,0,0,.008-.179,6.262,6.262,0,0,1-.7-.106.092.092,0,0,0-.106.07.09.09,0,0,0,.07.107,6.509,6.509,0,0,0,.72.109h.009m2.14-.159a.077.077,0,0,0,.022,0,6.4,6.4,0,0,0,.7-.216.09.09,0,0,0-.063-.169,6.2,6.2,0,0,1-.677.211.09.09,0,0,0,.022.177m-3.544-.136a.09.09,0,0,0,.029-.175,6.239,6.239,0,0,1-.658-.262.091.091,0,0,0-.119.044.09.09,0,0,0,.044.119,6.492,6.492,0,0,0,.677.27.09.09,0,0,0,.029,0m4.888-.368a.089.089,0,0,0,.041-.01,6.468,6.468,0,0,0,.629-.369.09.09,0,1,0-.1-.15,6.336,6.336,0,0,1-.611.358.09.09,0,0,0,.041.17m-6.188-.238a.09.09,0,0,0,.047-.166,6.315,6.315,0,0,1-.582-.4.09.09,0,1,0-.111.142,6.52,6.52,0,0,0,.6.415.088.088,0,0,0,.047.013m7.383-.556a.09.09,0,0,0,.058-.021,6.491,6.491,0,0,0,.53-.5.09.09,0,0,0-.131-.124,6.181,6.181,0,0,1-.515.486.09.09,0,0,0,.058.159m-8.513-.327a.09.09,0,0,0,.063-.154,6.443,6.443,0,0,1-.477-.524.09.09,0,1,0-.139.113,6.56,6.56,0,0,0,.49.539.088.088,0,0,0,.063.026m9.5-.715a.09.09,0,0,0,.072-.036,6.45,6.45,0,0,0,.4-.606.09.09,0,1,0-.155-.091,6.217,6.217,0,0,1-.393.589.09.09,0,0,0,.072.144m-10.4-.4a.09.09,0,0,0,.076-.138,6.259,6.259,0,0,1-.347-.618.09.09,0,0,0-.161.079,6.527,6.527,0,0,0,.357.635.09.09,0,0,0,.076.041m11.13-.837a.09.09,0,0,0,.082-.053,6.537,6.537,0,0,0,.257-.682.09.09,0,0,0-.172-.054,6.229,6.229,0,0,1-.25.663.09.09,0,0,0,.082.126m-11.761-.453a.09.09,0,0,0,.085-.12,6.23,6.23,0,0,1-.2-.68.089.089,0,0,0-.108-.067.09.09,0,0,0-.067.107,6.422,6.422,0,0,0,.2.7.09.09,0,0,0,.085.06m12.19-.916a.09.09,0,0,0,.088-.073,6.488,6.488,0,0,0,.1-.723.09.09,0,0,0-.083-.1.088.088,0,0,0-.1.083,6.26,6.26,0,0,1-.094.7.09.09,0,0,0,.071.1l.017,0m-12.512-.482h.01a.09.09,0,0,0,.079-.1,6.317,6.317,0,0,1-.04-.707.09.09,0,0,0-.18,0,6.541,6.541,0,0,0,.041.727.09.09,0,0,0,.089.08m12.621-.948h0a.09.09,0,0,0,.087-.093,6.473,6.473,0,0,0-.067-.725.09.09,0,0,0-.178.027,6.233,6.233,0,0,1,.065.7.09.09,0,0,0,.09.087m-12.656-.026a.09.09,0,0,0,.09-.086,6.207,6.207,0,0,1,.068-.7.09.09,0,1,0-.178-.027,6.411,6.411,0,0,0-.07.725.09.09,0,0,0,.086.093Zm12.443-1.392a.088.088,0,0,0,.023,0,.089.089,0,0,0,.063-.11,6.386,6.386,0,0,0-.229-.692.09.09,0,1,0-.167.066,6.262,6.262,0,0,1,.223.673.09.09,0,0,0,.087.067m-12.224-.025a.09.09,0,0,0,.087-.066,6.236,6.236,0,0,1,.226-.672.09.09,0,1,0-.167-.067,6.389,6.389,0,0,0-.232.691.09.09,0,0,0,.087.114m11.7-1.309a.09.09,0,0,0,.079-.132,6.5,6.5,0,0,0-.38-.622.09.09,0,0,0-.148.1,6.236,6.236,0,0,1,.369.6.09.09,0,0,0,.079.047M546,245.766a.09.09,0,0,0,.079-.047,6.145,6.145,0,0,1,.371-.6.09.09,0,0,0-.147-.1,6.4,6.4,0,0,0-.382.621.09.09,0,0,0,.079.132m10.346-1.158a.09.09,0,0,0,.068-.149,6.592,6.592,0,0,0-.509-.521.09.09,0,0,0-.122.133,6.388,6.388,0,0,1,.5.506.09.09,0,0,0,.068.031m-9.526-.019a.089.089,0,0,0,.067-.031,6.308,6.308,0,0,1,.5-.5.09.09,0,0,0-.121-.133,6.476,6.476,0,0,0-.511.519.09.09,0,0,0,.067.149m8.466-.949a.09.09,0,0,0,.053-.163,6.468,6.468,0,0,0-.613-.394.09.09,0,0,0-.089.157,6.375,6.375,0,0,1,.6.382.089.089,0,0,0,.053.017m-7.4-.014a.091.091,0,0,0,.052-.017,6.225,6.225,0,0,1,.6-.381.09.09,0,0,0,.035-.122.089.089,0,0,0-.122-.034,6.406,6.406,0,0,0-.615.391.09.09,0,0,0,.052.163m6.154-.69a.09.09,0,0,0,.035-.173,6.534,6.534,0,0,0-.686-.245.09.09,0,0,0-.051.173,6.244,6.244,0,0,1,.667.238.088.088,0,0,0,.035.007m-4.9-.01a.089.089,0,0,0,.035-.007,6.2,6.2,0,0,1,.668-.235.09.09,0,0,0-.05-.173,6.393,6.393,0,0,0-.688.242.09.09,0,0,0,.035.173m3.525-.394a.09.09,0,0,0,.015-.178,6.438,6.438,0,0,0-.724-.083.087.087,0,0,0-.095.085.09.09,0,0,0,.085.095,6.214,6.214,0,0,1,.7.08h.015m-2.147,0h.015a6.352,6.352,0,0,1,.7-.078.09.09,0,0,0,.085-.095.1.1,0,0,0-.094-.085,6.452,6.452,0,0,0-.724.08.09.09,0,0,0,.015.178" transform="translate(-497.809 -229.514)" fill="#e9f3ff"/>
          <path id="Trazado_733022" data-name="Trazado 733022" d="M619.1,54.15a4.28,4.28,0,0,0,.462-.026.09.09,0,1,0-.02-.178,3.93,3.93,0,0,1-.442.024c-.087,0-.174,0-.259-.009a.086.086,0,0,0-.1.083.09.09,0,0,0,.083.1q.134.01.272.01m-.974-.127a.09.09,0,0,0,.023-.177,3.737,3.737,0,0,1-.657-.243.09.09,0,0,0-.078.162,3.93,3.93,0,0,0,.689.254.087.087,0,0,0,.023,0m2.128-.045a.087.087,0,0,0,.027,0,3.914,3.914,0,0,0,.678-.283.09.09,0,0,0,.037-.121.091.091,0,0,0-.122-.037,3.759,3.759,0,0,1-.647.271.09.09,0,0,0,.027.175m-3.417-.574a.09.09,0,0,0,.053-.162,3.785,3.785,0,0,1-.523-.466.09.09,0,0,0-.132.122,3.95,3.95,0,0,0,.548.489.09.09,0,0,0,.053.018m4.678-.1a.089.089,0,0,0,.056-.02,3.95,3.95,0,0,0,.527-.512.09.09,0,1,0-.137-.117,3.76,3.76,0,0,1-.5.488.09.09,0,0,0,.056.16m-5.651-.948a.09.09,0,0,0,.076-.138,3.7,3.7,0,0,1-.317-.625.09.09,0,0,0-.167.066,3.908,3.908,0,0,0,.332.655.09.09,0,0,0,.076.042m6.58-.139a.089.089,0,0,0,.078-.045,3.911,3.911,0,0,0,.3-.668.09.09,0,0,0-.056-.114.089.089,0,0,0-.114.055,3.751,3.751,0,0,1-.29.638.09.09,0,0,0,.078.134m-7.1-1.191h.017a.09.09,0,0,0,.072-.105,3.77,3.77,0,0,1-.065-.7.09.09,0,0,0-.18,0,3.958,3.958,0,0,0,.068.731.09.09,0,0,0,.088.073m7.569-.16A.09.09,0,0,0,623,50.79a4,4,0,0,0,.041-.568c0-.056,0-.111,0-.166a.088.088,0,0,0-.094-.086.09.09,0,0,0-.086.094c0,.052,0,.105,0,.158a3.786,3.786,0,0,1-.039.542.09.09,0,0,0,.076.1h.013m-7.616-.949a.09.09,0,0,0,.089-.081,3.741,3.741,0,0,1,.136-.687.09.09,0,0,0-.172-.051,3.909,3.909,0,0,0-.143.72.09.09,0,0,0,.08.1h.009m7.555-.479.02,0a.09.09,0,0,0,.067-.108,3.942,3.942,0,0,0-.233-.7.09.09,0,1,0-.164.072,3.772,3.772,0,0,1,.222.665.09.09,0,0,0,.088.069m-7.147-.89a.09.09,0,0,0,.08-.048,3.746,3.746,0,0,1,.379-.59.09.09,0,0,0-.141-.111,3.95,3.95,0,0,0-.4.618.09.09,0,0,0,.038.121.088.088,0,0,0,.041.01m6.568-.417a.092.092,0,0,0,.051-.016.09.09,0,0,0,.023-.125,3.952,3.952,0,0,0-.472-.562.09.09,0,1,0-.126.128,3.767,3.767,0,0,1,.451.537.09.09,0,0,0,.074.039m-5.686-.708a.09.09,0,0,0,.059-.022,3.764,3.764,0,0,1,.568-.411.09.09,0,1,0-.091-.155,3.979,3.979,0,0,0-.6.43.09.09,0,0,0,.059.158m4.669-.3a.09.09,0,0,0,.05-.164,3.9,3.9,0,0,0-.645-.352.09.09,0,1,0-.071.165,3.753,3.753,0,0,1,.615.336.088.088,0,0,0,.05.015m-3.437-.429a.093.093,0,0,0,.03-.005,3.718,3.718,0,0,1,.679-.173.09.09,0,1,0-.028-.178,3.9,3.9,0,0,0-.712.182.09.09,0,0,0,.03.174m2.124-.135a.09.09,0,0,0,.019-.178,3.952,3.952,0,0,0-.729-.09.092.092,0,0,0-.093.087.09.09,0,0,0,.087.093,3.772,3.772,0,0,1,.7.086l.019,0" transform="translate(-566.548 -43.859)" fill="#e9f3ff"/>
          <path id="Trazado_733023" data-name="Trazado 733023" d="M706.185,451.2l.608,2.892h-9.839l.436-2.591Z" transform="translate(-654.606 -427.441)" fill="#383749"/>
          <path id="Trazado_733024" data-name="Trazado 733024" d="M695.336,452.562h9.839a.09.09,0,0,0,.088-.109l-.608-2.892a.1.1,0,0,0-.091-.071l-8.8.3a.09.09,0,0,0-.086.075l-.436,2.591a.09.09,0,0,0,.089.1m9.729-.18h-9.622l.406-2.414,8.646-.3Z" transform="translate(-652.988 -425.826)" fill="#383749"/>
          <path id="Trazado_733025" data-name="Trazado 733025" d="M518.324,28.992v-1.3a1.275,1.275,0,0,1,1.276-1.276h26.584a1.276,1.276,0,0,1,1.276,1.276v1.3Z" transform="translate(-485.867 -25.028)" fill="#9f0925"/>
          <path id="Trazado_733026" data-name="Trazado 733026" d="M516.708,27.464h29.135a.09.09,0,0,0,.09-.09v-1.3a1.367,1.367,0,0,0-1.365-1.365H517.984a1.367,1.367,0,0,0-1.366,1.365v1.3a.09.09,0,0,0,.09.09m29.045-.18H516.8V26.076a1.187,1.187,0,0,1,1.186-1.186h26.583a1.187,1.187,0,0,1,1.186,1.186Z" transform="translate(-484.251 -23.41)" fill="#9f0925"/>
          <rect id="Rectángulo_345074" data-name="Rectángulo 345074" width="2.922" height="5.213" transform="translate(49.376 11.532) rotate(-179.848)" fill="#ff9c70"/>
          <path id="Trazado_733027" data-name="Trazado 733027" d="M751.387,123.563a.09.09,0,0,0,.09-.09l.014-5.213a.091.091,0,0,0-.026-.064.09.09,0,0,0-.064-.026l-2.922-.008h0a.09.09,0,0,0-.09.09l-.014,5.213a.091.091,0,0,0,.026.064.09.09,0,0,0,.064.026l2.922.008Zm-.076-5.214-.014,5.034-2.742-.007.013-5.033Z" transform="translate(-702.011 -111.941)" fill="#ff9c70"/>
          <path id="Trazado_733028" data-name="Trazado 733028" d="M752.14,159.268l0,.967s-1.631-.086-1.932-1.313Z" transform="translate(-702.757 -150.556)" fill="#383749"/>
          <path id="Trazado_733029" data-name="Trazado 733029" d="M750.519,158.708a.09.09,0,0,0,.09-.09l0-.967a.09.09,0,0,0-.074-.089l-1.936-.345a.09.09,0,0,0-.1.11c.313,1.276,1.945,1.377,2.015,1.381Zm-.086-.982,0,.793a2.054,2.054,0,0,1-1.715-1.1Z" transform="translate(-701.14 -148.939)" fill="#383749"/>
          <path id="Trazado_733030" data-name="Trazado 733030" d="M720.555,55.271a2.122,2.122,0,0,1,1.658-2.042,3.994,3.994,0,0,1,1.365-.08c.836.107,1.307.424,1.538,1.644.29,1.528.39,4.345-1.482,4.569a2.4,2.4,0,0,1-2.372-1l-.344-.576a4.249,4.249,0,0,1-.33-.918,12.974,12.974,0,0,1-.033-1.6" transform="translate(-674.334 -50.325)" fill="#ff9c70"/>
        </g>
      </g>
      <g id="Grupo_987256" data-name="Grupo 987256" transform="translate(46.216 2.797)">
        <g id="Grupo_987255" data-name="Grupo 987255" transform="translate(0)" clip-path="url(#clip-path-2)">
          <path id="Trazado_733031" data-name="Trazado 733031" d="M759.291,101.9a.966.966,0,0,0,1.685.237.966.966,0,0,0-1.685-.237" transform="translate(-758.287 -98.96)" fill="#fff"/>
          <path id="Trazado_733032" data-name="Trazado 733032" d="M758.539,101a1.448,1.448,0,0,0,.883-.418.09.09,0,0,0,.015-.106,1.054,1.054,0,0,0-1.828-.257.089.089,0,0,0-.015.106,1.362,1.362,0,0,0,.838.668.779.779,0,0,0,.107.007m.7-.5a.853.853,0,0,1-1.454-.2.853.853,0,0,1,1.454.2" transform="translate(-756.669 -97.346)" fill="#383749"/>
          <path id="Trazado_733033" data-name="Trazado 733033" d="M711.654,101.9a.966.966,0,0,1-1.685.237.966.966,0,0,1,1.685-.237" transform="translate(-706.369 -98.96)" fill="#fff"/>
          <path id="Trazado_733034" data-name="Trazado 733034" d="M709.173,101a.779.779,0,0,0,.107-.007,1.362,1.362,0,0,0,.838-.668.09.09,0,0,0-.015-.106,1.054,1.054,0,0,0-1.828.257.09.09,0,0,0,.015.106,1.447,1.447,0,0,0,.883.419m.75-.7a.853.853,0,0,1-1.454.2.853.853,0,0,1,1.454-.2" transform="translate(-704.753 -97.343)" fill="#383749"/>
          <path id="Trazado_733035" data-name="Trazado 733035" d="M741.189,120.4a.088.088,0,0,0,.056-.02c.063-.051.256-.206.2-.374-.061-.186-.382-.21-.446-.213a.09.09,0,0,0-.008.18c.131.006.271.051.284.09,0,.014-.013.073-.144.178a.09.09,0,0,0,.056.16" transform="translate(-737.8 -116.279)" fill="#383749"/>
          <path id="Trazado_733036" data-name="Trazado 733036" d="M759.578,102.583a1.287,1.287,0,0,0,.913-.386,1.286,1.286,0,0,0-.772-.622c-.466-.065-.607.943-.142,1.008" transform="translate(-757.803 -99.021)" fill="#383749"/>
          <path id="Trazado_733037" data-name="Trazado 733037" d="M758.052,101.071a1.448,1.448,0,0,0,.883-.419.09.09,0,0,0,.015-.106,1.363,1.363,0,0,0-.839-.668.4.4,0,0,0-.375.165.837.837,0,0,0-.107.76.4.4,0,0,0,.316.262.779.779,0,0,0,.107.007m.7-.5a1.114,1.114,0,0,1-.785.312.218.218,0,0,1-.174-.151.661.661,0,0,1,.082-.582.214.214,0,0,1,.209-.1,1.117,1.117,0,0,1,.669.517" transform="translate(-756.183 -97.413)" fill="#383749"/>
          <path id="Trazado_733038" data-name="Trazado 733038" d="M711.169,101.9a1.286,1.286,0,0,1-.772.622c-.466.065-.607-.943-.142-1.008a1.286,1.286,0,0,1,.913.386" transform="translate(-705.883 -98.96)" fill="#383749"/>
          <path id="Trazado_733039" data-name="Trazado 733039" d="M708.735,101a.473.473,0,0,0,.058,0,1.362,1.362,0,0,0,.838-.668.09.09,0,0,0-.015-.106,1.363,1.363,0,0,0-.99-.411c-.3.042-.395.369-.355.654.037.267.2.536.463.536m.7-.7a1.116,1.116,0,0,1-.669.517c-.172.026-.29-.172-.318-.378s.031-.427.2-.451a1.109,1.109,0,0,1,.786.312" transform="translate(-704.267 -97.347)" fill="#383749"/>
          <path id="Trazado_733040" data-name="Trazado 733040" d="M746.3,131.4a.09.09,0,0,0,0-.18c-.315-.01-.375-.133-.376-.134a.091.091,0,0,0-.116-.047.088.088,0,0,0-.051.111c.009.024.1.236.538.25Z" transform="translate(-742.99 -126.931)" fill="#383749"/>
          <path id="Trazado_733041" data-name="Trazado 733041" d="M765.291,89c.083.04.122.263-.011.286a3.141,3.141,0,0,1-1.033-.036A1.5,1.5,0,0,1,765.291,89" transform="translate(-762.938 -87.079)" fill="#383749"/>
          <path id="Trazado_733042" data-name="Trazado 733042" d="M763.162,87.79c.252,0,.49-.019.517-.024a.191.191,0,0,0,.159-.173.284.284,0,0,0-.124-.282c-.314-.151-1.008.144-1.124.239a.107.107,0,0,0-.046.113c.025.1.331.127.619.127m.472-.317a.131.131,0,0,1,.024.1,3.539,3.539,0,0,1-.777.022,1.276,1.276,0,0,1,.753-.125" transform="translate(-761.323 -85.471)" fill="#383749"/>
          <path id="Trazado_733043" data-name="Trazado 733043" d="M711.282,89c-.083.04-.122.263.011.286a3.142,3.142,0,0,0,1.033-.036A1.5,1.5,0,0,0,711.282,89" transform="translate(-707.105 -87.079)" fill="#383749"/>
          <path id="Trazado_733044" data-name="Trazado 733044" d="M710.176,87.785c.288,0,.594-.025.619-.127a.107.107,0,0,0-.047-.113c-.117-.094-.81-.39-1.124-.239a.283.283,0,0,0-.124.282.191.191,0,0,0,.159.173c.027,0,.265.024.516.024m.282-.192a4.122,4.122,0,0,1-.768-.009.124.124,0,0,1,.014-.117,1.273,1.273,0,0,1,.754.126" transform="translate(-705.487 -85.466)" fill="#383749"/>
        </g>
      </g>
      <g id="Grupo_987258" data-name="Grupo 987258">
        <g id="Grupo_987257" data-name="Grupo 987257" clip-path="url(#clip-path)">
          <path id="Trazado_733046" data-name="Trazado 733046" d="M721.641,57.86a3.218,3.218,0,0,0,.393-.024,1.621,1.621,0,0,0,1.158-.674c.68-.928.654-2.675.4-4-.245-1.293-.778-1.609-1.615-1.716a4.081,4.081,0,0,0-1.4.081,2.2,2.2,0,0,0-1.728,2.129,11.778,11.778,0,0,0,.035,1.616,4.316,4.316,0,0,0,.337.939.09.09,0,0,0,.161-.079,4.129,4.129,0,0,1-.323-.9,10.925,10.925,0,0,1-.031-1.576,2.025,2.025,0,0,1,1.587-1.956,3.907,3.907,0,0,1,1.334-.079c.791.1,1.234.372,1.462,1.572.245,1.288.276,2.979-.37,3.861a1.448,1.448,0,0,1-1.034.6,2.333,2.333,0,0,1-1.9-.532.09.09,0,1,0-.119.135,2.415,2.415,0,0,0,1.645.6" transform="translate(-672.723 -48.71)" fill="#383749"/>
          <path id="Trazado_733047" data-name="Trazado 733047" d="M517.984,50.146h26.583a1.367,1.367,0,0,0,1.365-1.365v-22.7a1.367,1.367,0,0,0-1.365-1.365H517.984a1.367,1.367,0,0,0-1.366,1.365v22.7a1.367,1.367,0,0,0,1.366,1.365m26.583-25.256a1.187,1.187,0,0,1,1.186,1.186v22.7a1.187,1.187,0,0,1-1.186,1.186H517.984a1.187,1.187,0,0,1-1.186-1.186v-22.7a1.187,1.187,0,0,1,1.186-1.186Z" transform="translate(-484.251 -23.41)" fill="#383749"/>
          <path id="Trazado_733048" data-name="Trazado 733048" d="M499.954,232.55l.438-.366a3.131,3.131,0,0,0,1.152-.554c.249-.306,1.687-1.424.95-1.755,0,0,.617-.824-.2-.69,0,0,.242-.458.074-.65s-.562.173-.562.173.062-.415-.269-.37c-.152.02-.33.268-.41.4a1.215,1.215,0,0,1-.63.534s.121-.967-.335-.923-.356.926-.565,1.248a2.269,2.269,0,0,0-.614,1.184l-.6.679Z" transform="translate(-440.077 -216.313)" fill="#ff9c70"/>
          <path id="Trazado_733049" data-name="Trazado 733049" d="M498.344,231.025A.09.09,0,0,0,498.4,231l.423-.354a3.043,3.043,0,0,0,1.179-.579c.047-.058.147-.154.262-.265.516-.5.973-.97.91-1.333a.365.365,0,0,0-.162-.243c.1-.151.257-.444.145-.628a.342.342,0,0,0-.327-.137c.066-.17.137-.444,0-.6a.25.25,0,0,0-.18-.086.625.625,0,0,0-.364.136.366.366,0,0,0-.093-.2.309.309,0,0,0-.274-.08c-.21.028-.416.345-.474.441a1.2,1.2,0,0,1-.451.44,1.147,1.147,0,0,0-.171-.774.329.329,0,0,0-.275-.1c-.357.034-.431.447-.5.81a1.508,1.508,0,0,1-.135.479,2.481,2.481,0,0,1-.168.222,1.807,1.807,0,0,0-.455.971l-.586.659a.09.09,0,0,0,.016.133l1.573,1.092a.089.089,0,0,0,.051.016m2.5-3.38c.082,0,.137.017.157.05.058.1-.081.361-.193.511a.09.09,0,0,0-.015.076.091.091,0,0,0,.05.06.227.227,0,0,1,.152.162c.052.3-.54.868-.858,1.173a3.872,3.872,0,0,0-.277.281,2.919,2.919,0,0,1-1.106.524.094.094,0,0,0-.034.018l-.386.322-1.433-1,.536-.6a.092.092,0,0,0,.022-.046,1.64,1.64,0,0,1,.421-.91,2.693,2.693,0,0,0,.18-.238,1.574,1.574,0,0,0,.161-.544c.068-.376.132-.643.337-.663a.147.147,0,0,1,.129.044c.149.153.129.614.108.778a.09.09,0,0,0,.118.1,1.321,1.321,0,0,0,.678-.574c.1-.167.252-.343.344-.356s.112.018.122.027a.337.337,0,0,1,.046.24.09.09,0,0,0,.15.079c.089-.082.272-.217.38-.2a.071.071,0,0,1,.054.025c.1.109-.017.417-.086.549a.09.09,0,0,0,.007.094.091.091,0,0,0,.087.036.916.916,0,0,1,.146-.014" transform="translate(-438.466 -214.699)" fill="#ff9c70"/>
          <path id="Trazado_733050" data-name="Trazado 733050" d="M553.812,195.764s2.216.381,2.885,1.083,2.272,6.351,2.272,6.351l3.943-3.127a2.914,2.914,0,0,1,1.61,1.891s-3.85,5.009-5.956,5.151-3.018-6.182-3.018-6.182.383,6.891.829,8.741c0,0-7.146,1.574-9.6,0l1.021-9.889s5.844-2.7,6.015-4.017" transform="translate(-504.428 -185.458)" fill="#9f0925"/>
          <path id="Trazado_733051" data-name="Trazado 733051" d="M548.753,208.839a32.328,32.328,0,0,0,6.026-.706.09.09,0,0,0,.068-.109,68.805,68.805,0,0,1-.737-7.263c.412,1.883,1.309,4.924,2.844,4.815,2.122-.143,5.863-4.98,6.021-5.186a.09.09,0,0,0,.017-.072,2.973,2.973,0,0,0-1.663-1.956.09.09,0,0,0-.091.012l-3.838,3.044c-.25-.869-1.628-5.6-2.256-6.259a7.189,7.189,0,0,0-2.935-1.109.085.085,0,0,0-.069.016.09.09,0,0,0-.036.061c-.135,1.043-4.35,3.2-5.963,3.948a.089.089,0,0,0-.052.072l-1.021,9.889a.09.09,0,0,0,.041.085,7.188,7.188,0,0,0,3.644.718m5.9-.863c-.823.171-7.109,1.417-9.4.022l1.01-9.783c.58-.27,5.61-2.646,6-3.973a6.761,6.761,0,0,1,2.751,1.041c.647.678,2.235,6.257,2.25,6.314a.09.09,0,0,0,.142.046l3.9-3.093a2.819,2.819,0,0,1,1.5,1.764c-.336.43-3.912,4.952-5.865,5.084-2,.131-2.914-6.043-2.922-6.106a.087.087,0,0,0-.1-.077.09.09,0,0,0-.081.094c0,.068.376,6.707.811,8.667" transform="translate(-502.81 -183.832)" fill="#9f0925"/>
          <path id="Trazado_733052" data-name="Trazado 733052" d="M768.592,452.557l.287.486a3.1,3.1,0,0,0,.358,1.213c.26.292,1.122,1.875,1.563,1.207,0,0,.706.734.705-.083,0,0,.409.309.623.176s-.079-.577-.079-.577.4.127.4-.2c0-.151-.209-.365-.324-.463a1.2,1.2,0,0,1-.422-.7s.926.272.955-.181-.847-.5-1.129-.751a2.246,2.246,0,0,0-1.059-.789l-.567-.7Z" transform="translate(-724.249 -427.441)" fill="#ff9c70"/>
          <path id="Trazado_733053" data-name="Trazado 733053" d="M769.682,454.242a.265.265,0,0,0,.1-.018.338.338,0,0,0,.186-.3c.156.092.412.2.591.092a.25.25,0,0,0,.113-.163.645.645,0,0,0-.074-.376.365.365,0,0,0,.207-.059.305.305,0,0,0,.122-.256c.006-.21-.271-.462-.356-.534a1.184,1.184,0,0,1-.357-.509,1.134,1.134,0,0,0,.782-.044.326.326,0,0,0,.14-.254c.023-.355-.368-.493-.713-.615a1.5,1.5,0,0,1-.446-.208,2.424,2.424,0,0,1-.19-.2,1.791,1.791,0,0,0-.876-.6l-.55-.677a.089.089,0,0,0-.066-.033.105.105,0,0,0-.068.027l-1.317,1.362a.09.09,0,0,0-.013.108l.278.47a3.006,3.006,0,0,0,.378,1.244c.049.055.127.168.217.3.4.581.79,1.1,1.155,1.1h0a.362.362,0,0,0,.264-.119.871.871,0,0,0,.492.259m.2-.565a.09.09,0,0,0-.09.09c0,.163-.03.269-.084.29-.1.042-.339-.137-.467-.27a.081.081,0,0,0-.073-.027.089.089,0,0,0-.067.04.225.225,0,0,1-.182.122h0c-.3,0-.76-.666-1.007-1.024a3.857,3.857,0,0,0-.23-.316,2.881,2.881,0,0,1-.336-1.163.089.089,0,0,0-.012-.036l-.253-.427,1.2-1.24.5.619a.09.09,0,0,0,.042.029,1.62,1.62,0,0,1,.822.555,2.623,2.623,0,0,0,.2.215,1.566,1.566,0,0,0,.506.244c.356.126.607.231.593.434a.146.146,0,0,1-.064.119c-.172.12-.63.025-.777-.019a.09.09,0,0,0-.114.1,1.3,1.3,0,0,0,.452.755c.172.146.295.311.293.392s-.035.106-.046.114a.333.333,0,0,1-.241.007.091.091,0,0,0-.1.031.09.09,0,0,0,0,.1.723.723,0,0,1,.139.4.07.07,0,0,1-.033.049c-.121.075-.4-.083-.521-.172a.091.091,0,0,0-.054-.018" transform="translate(-722.629 -425.826)" fill="#ff9c70"/>
          <path id="Trazado_733054" data-name="Trazado 733054" d="M740.749,187.832s-.885,1.223-1.316,1.222-1.608-1.663-1.608-1.663-3.879.844-4.677,1.663-2.955,7.633-2.556,8.36,5.02,5.732,5.02,5.732,1.839-.519,1.814-1.678l-3.738-4.661,1.016-4h7.082Z" transform="translate(-691.365 -177.525)" fill="#9f0925"/>
          <path id="Trazado_733055" data-name="Trazado 733055" d="M733.992,201.622a.083.083,0,0,0,.024,0c.078-.022,1.906-.552,1.879-1.766a.09.09,0,0,0-.02-.054l-3.71-4.627.987-3.889h7.012a.09.09,0,0,0,.088-.108l-1.035-4.974a.09.09,0,0,0-.161-.034c-.332.458-.962,1.185-1.242,1.185h0c-.28,0-1.091-1-1.535-1.624a.09.09,0,0,0-.092-.036c-.159.035-3.915.859-4.722,1.687a16.958,16.958,0,0,0-1.748,4.251c-.189.61-1.118,3.676-.822,4.215.4.728,4.844,5.545,5.033,5.75a.09.09,0,0,0,.066.029m1.724-1.736c-.009.95-1.407,1.45-1.7,1.543-.446-.484-4.6-5-4.969-5.673-.352-.641,1.739-7.429,2.542-8.254.718-.737,4.089-1.516,4.574-1.624.264.368,1.214,1.65,1.647,1.651h0c.378,0,1-.751,1.268-1.1l.972,4.672h-6.971a.09.09,0,0,0-.087.068l-1.016,4a.09.09,0,0,0,.017.078Z" transform="translate(-689.747 -175.911)" fill="#9f0925"/>
          <path id="Trazado_733056" data-name="Trazado 733056" d="M815.657,363.325a.09.09,0,0,0,.071-.145l-3.933-5a.091.091,0,0,0-.126-.015.09.09,0,0,0-.015.126l3.932,5a.09.09,0,0,0,.071.034" transform="translate(-769.597 -339.292)" fill="#383749"/>
          <path id="Trazado_733057" data-name="Trazado 733057" d="M704.7,299.73h.013a.09.09,0,0,0,.076-.1c-.093-.66-.6-7.318-.6-7.385a.086.086,0,0,0-.1-.083.09.09,0,0,0-.083.1c.021.275.512,6.731.606,7.4a.09.09,0,0,0,.089.077" transform="translate(-652.977 -276.777)" fill="#383749"/>
          <path id="Trazado_733058" data-name="Trazado 733058" d="M862.987,304.168a.09.09,0,0,0,.086-.063l1.039-3.365a.09.09,0,0,0-.059-.113.091.091,0,0,0-.112.059l-1.039,3.365a.09.09,0,0,0,.059.113.1.1,0,0,0,.026,0" transform="translate(-820.666 -284.797)" fill="#383749"/>
          <path id="Trazado_733059" data-name="Trazado 733059" d="M619.255,312.117a.09.09,0,0,0,.055-.019l2.042-1.574a.09.09,0,0,0-.11-.143l-2.042,1.574a.09.09,0,0,0,.055.161" transform="translate(-565.104 -294.023)" fill="#383749"/>
          <path id="Trazado_733060" data-name="Trazado 733060" d="M772.663,222.914a.09.09,0,0,0,.089-.075,11.742,11.742,0,0,0,.135-2.563.091.091,0,0,0-.1-.082.09.09,0,0,0-.082.1,11.567,11.567,0,0,1-.133,2.519.09.09,0,0,0,.074.1h.015" transform="translate(-724.7 -208.601)" fill="#fff"/>
          <path id="Trazado_733061" data-name="Trazado 733061" d="M724.435,38.642a4.543,4.543,0,0,1-3.133-.37s-.426,2.2-1.5,2.118l-.122.545s-1.917-2.4.483-3.567a3.326,3.326,0,0,1,3.239-.747c2.071.529,1.177,2.735,1.177,2.735Z" transform="translate(-673.745 -34.571)" fill="#383749"/>
          <path id="Trazado_733062" data-name="Trazado 733062" d="M718.044,39.423l.02,0a.09.09,0,0,0,.068-.068l.106-.473c.951-.017,1.387-1.632,1.49-2.081a4.69,4.69,0,0,0,3,.355l.128.619a.09.09,0,0,0,.171.015,2.642,2.642,0,0,0,.006-1.949,1.8,1.8,0,0,0-1.244-.906,3.457,3.457,0,0,0-3.315.76,2.031,2.031,0,0,0-1.2,1.353,3.215,3.215,0,0,0,.7,2.344.09.09,0,0,0,.07.034m.122-.725a.09.09,0,0,0-.088.07l-.078.349a2.872,2.872,0,0,1-.551-2.033,1.869,1.869,0,0,1,1.117-1.237.086.086,0,0,0,.027-.02,3.27,3.27,0,0,1,3.151-.72,1.634,1.634,0,0,1,1.128.812,2.216,2.216,0,0,1,.089,1.471l-.075-.367a.09.09,0,0,0-.043-.059.086.086,0,0,0-.073-.008,4.505,4.505,0,0,1-3.067-.366.087.087,0,0,0-.079,0,.09.09,0,0,0-.048.063c0,.021-.409,2.047-1.354,2.047l-.049,0h-.007" transform="translate(-672.107 -32.97)" fill="#383749"/>
          <path id="Trazado_733063" data-name="Trazado 733063" d="M796.879,104.816s-.513-.617-.98-.361-.122,1.914,1.071,1.643c.664-.151-.09-1.282-.09-1.282" transform="translate(-750.254 -98.897)" fill="#ff9c70"/>
          <path id="Trazado_733064" data-name="Trazado 733064" d="M800.287,104.585a1.243,1.243,0,0,0,.274-.032.09.09,0,0,0-.04-.176.907.907,0,0,1-1.077-.625c-.136-.359-.1-.757.069-.852.4-.218.863.335.868.34a.09.09,0,1,0,.138-.115c-.023-.027-.566-.67-1.093-.383-.289.158-.3.67-.151,1.073a1.094,1.094,0,0,0,1.01.769" transform="translate(-753.827 -97.264)" fill="#383749"/>
          <path id="Trazado_733065" data-name="Trazado 733065" d="M807.246,113.3a.09.09,0,0,0,.067-.15c-.034-.038-.338-.363-.627-.25a.09.09,0,1,0,.066.167c.146-.055.363.133.428.2a.089.089,0,0,0,.067.03" transform="translate(-760.924 -106.935)" fill="#383749"/>
          <path id="Trazado_733066" data-name="Trazado 733066" d="M546.776,42.748a.28.28,0,1,0,.28-.28.28.28,0,0,0-.28.28" transform="translate(-487.243 -40.232)" fill="#fff"/>
          <path id="Trazado_733067" data-name="Trazado 733067" d="M570.087,42.748a.28.28,0,1,0,.28-.28.28.28,0,0,0-.28.28" transform="translate(-511.781 -40.232)" fill="#e9f3ff"/>
          <path id="Trazado_733068" data-name="Trazado 733068" d="M594.551,42.748a.28.28,0,1,0,.28-.28.28.28,0,0,0-.28.28" transform="translate(-537.534 -40.232)" fill="#e9f3ff"/>
          <path id="Trazado_733069" data-name="Trazado 733069" d="M779.424,510.185a.09.09,0,0,0,.024-.176,2.627,2.627,0,0,1-.734-.606.09.09,0,0,0-.134.12,2.752,2.752,0,0,0,.819.659.084.084,0,0,0,.024,0" transform="translate(-731.623 -482.556)" fill="#383749"/>
          <path id="Trazado_733070" data-name="Trazado 733070" d="M789.855,515.043a.09.09,0,0,0,.041-.17,4.257,4.257,0,0,1-.851-.765.09.09,0,0,0-.136.118,4.34,4.34,0,0,0,.9.806.089.089,0,0,0,.041.01" transform="translate(-742.598 -487.013)" fill="#383749"/>
          <path id="Trazado_733071" data-name="Trazado 733071" d="M805.109,518.869a.09.09,0,0,0,.042-.17,1.484,1.484,0,0,1-.551-.536.09.09,0,0,0-.158.086,1.642,1.642,0,0,0,.626.609.089.089,0,0,0,.042.01" transform="translate(-758.671 -490.839)" fill="#383749"/>
          <path id="Trazado_733072" data-name="Trazado 733072" d="M523.24,256.073a.088.088,0,0,0,.042-.01.09.09,0,0,0,.038-.121,1.863,1.863,0,0,0-.871-.848.09.09,0,0,0-.052.172c.432.131.76.752.764.759a.09.09,0,0,0,.08.048" transform="translate(-461.949 -241.66)" fill="#383749"/>
          <path id="Trazado_733073" data-name="Trazado 733073" d="M514.037,234.617a.091.091,0,0,0,.037-.008,2.673,2.673,0,0,0,.718-.745.09.09,0,0,0-.148-.1,2.519,2.519,0,0,1-.643.683.09.09,0,0,0,.037.172" transform="translate(-452.985 -221.419)" fill="#383749"/>
          <path id="Trazado_733074" data-name="Trazado 733074" d="M504.765,243.608a.089.089,0,0,0,.025,0c.354-.1.7-.664.713-.687a.09.09,0,0,0-.153-.093c-.089.145-.372.538-.61.608a.09.09,0,0,0,.025.176" transform="translate(-443.207 -229.999)" fill="#383749"/>
          <path id="Trazado_733075" data-name="Trazado 733075" d="M499.61,257.32h.008c.382-.032.708-.489.722-.509a.09.09,0,0,0-.147-.1s-.292.409-.59.434a.09.09,0,0,0,.007.179" transform="translate(-437.774 -243.156)" fill="#383749"/>
          <path id="Trazado_733076" data-name="Trazado 733076" d="M512.35,966.177a.09.09,0,0,0,.012-.179,1.406,1.406,0,0,1-.623-.244.09.09,0,1,0-.1.147,1.588,1.588,0,0,0,.7.276h.012m.708-.074a.09.09,0,0,0,.03-.005,1.6,1.6,0,0,0,.63-.416.09.09,0,0,0-.132-.122,1.417,1.417,0,0,1-.559.369.09.09,0,0,0,.03.174m-1.84-.722a.088.088,0,0,0,.041-.01.09.09,0,0,0,.038-.121,1.4,1.4,0,0,1-.158-.651.081.081,0,0,1,0-.087,1.409,1.409,0,0,1,.2-.639.09.09,0,0,0-.154-.093,1.592,1.592,0,0,0-.223.721.088.088,0,0,0,.011.049.089.089,0,0,0-.014.048,1.6,1.6,0,0,0,.179.733.09.09,0,0,0,.08.048m2.781-.292a.09.09,0,0,0,.087-.066,1.6,1.6,0,0,0,.023-.754.09.09,0,0,0-.176.037,1.422,1.422,0,0,1-.021.669.09.09,0,0,0,.063.111.091.091,0,0,0,.024,0m-.287-1.353a.09.09,0,0,0,.07-.147,1.592,1.592,0,0,0-.6-.453.09.09,0,1,0-.071.165,1.421,1.421,0,0,1,.535.4.09.09,0,0,0,.07.033m-1.949-.326a.09.09,0,0,0,.047-.013,1.414,1.414,0,0,1,.637-.206.09.09,0,0,0,.083-.1.088.088,0,0,0-.1-.083,1.592,1.592,0,0,0-.718.232.09.09,0,0,0,.047.166" transform="translate(-452.164 -912.31)" fill="#a7d0f9"/>
          <path id="Trazado_733077" data-name="Trazado 733077" d="M1224.789,2.015h0a1,1,0,0,0,.71-.294.09.09,0,1,0-.127-.127.821.821,0,0,1-.583.241.09.09,0,1,0,0,.18m-.647-.269a.09.09,0,0,0,.064-.153.818.818,0,0,1-.242-.584.091.091,0,0,0-.09-.091.089.089,0,0,0-.09.089v0a1,1,0,0,0,.294.711.089.089,0,0,0,.063.026m1.563-.646a.089.089,0,0,0,.09-.089v0A1,1,0,0,0,1225.5.3a.09.09,0,0,0-.127.127.82.82,0,0,1,.241.583.09.09,0,0,0,.09.091m-1.561-.65a.089.089,0,0,0,.063-.026.821.821,0,0,1,.582-.24.091.091,0,0,0,.091-.09.089.089,0,0,0-.089-.09h0a1,1,0,0,0-.709.293.09.09,0,0,0,.063.153" transform="translate(-1201.345 -0.004)" fill="#a7d0f9"/>
          <path id="Trazado_733078" data-name="Trazado 733078" d="M580.885,1053.488h0a1.314,1.314,0,0,0,.242-.022.09.09,0,0,0-.033-.177,1.121,1.121,0,0,1-.209.019h0a1.122,1.122,0,0,1-.441-.09.09.09,0,0,0-.07.166,1.3,1.3,0,0,0,.511.1m.858-.346a.089.089,0,0,0,.062-.025,1.311,1.311,0,0,0,.37-.665.09.09,0,1,0-.176-.038,1.131,1.131,0,0,1-.32.573.09.09,0,0,0,0,.127.089.089,0,0,0,.064.027m-1.879-.2a.09.09,0,0,0,.075-.14,1.14,1.14,0,0,1-.085-1.1.09.09,0,1,0-.163-.075,1.32,1.32,0,0,0,.1,1.279.089.089,0,0,0,.075.04m2.169-1.122a.1.1,0,0,0,.032-.006.09.09,0,0,0,.051-.117,1.317,1.317,0,0,0-.468-.6.09.09,0,0,0-.1.147,1.136,1.136,0,0,1,.4.518.09.09,0,0,0,.084.057m-1.792-.6a.09.09,0,0,0,.047-.013,1.134,1.134,0,0,1,.6-.171h.035a.1.1,0,0,0,.092-.088.09.09,0,0,0-.087-.092h-.04a1.318,1.318,0,0,0-.694.2.09.09,0,0,0,.047.167" transform="translate(-523.81 -995.527)" fill="#c8e1ff"/>
          <path id="Trazado_733079" data-name="Trazado 733079" d="M218.281,137.649h0a1,1,0,0,0,.71-.3.09.09,0,0,0-.127-.127.817.817,0,0,1-.583.243.09.09,0,0,0,0,.18m-.647-.267a.09.09,0,0,0,.063-.153.819.819,0,0,1-.242-.584.09.09,0,1,0-.18,0,1,1,0,0,0,.295.711.089.089,0,0,0,.063.026m1.561-.65h0a.09.09,0,0,0,.09-.09,1,1,0,0,0-.3-.71.09.09,0,0,0-.127.128.819.819,0,0,1,.243.583.09.09,0,0,0,.09.089m-1.564-.641a.089.089,0,0,0,.064-.027.821.821,0,0,1,.582-.244.09.09,0,0,0,0-.18h0a1,1,0,0,0-.71.3.09.09,0,0,0,.064.153" transform="translate(-141.842 -128.499)" fill="#c8e1ff"/>
        </g>
      </g>
    </g>
  </g>
</svg>
