<svg xmlns="http://www.w3.org/2000/svg" width="66" height="82" viewBox="0 0 66 82">
  <g id="Grupo_988213" data-name="Grupo 988213" transform="translate(-199 -2772)">
    <g id="Rectángulo_344456" data-name="Rectángulo 344456" transform="translate(199 2772)" fill="none" stroke="#9f0925" stroke-width="2">
      <rect width="66" height="82" rx="11" stroke="none"/>
      <rect x="1" y="1" width="64" height="80" rx="10" fill="none"/>
    </g>
    <g id="revista_1_" data-name="revista (1)" transform="translate(205 2788.999)">
      <path id="Trazado_735736" data-name="Trazado 735736" d="M50.395,2.2l-2,.511V2.284A2.281,2.281,0,0,0,45.21.191l-7.377,3.2a.783.783,0,1,0,.623,1.437l7.377-3.2a.714.714,0,0,1,1,.656V37.478a.714.714,0,0,1-.431.655L27.516,46.32V9.558c.164-.055-.452.207,7.586-3.278a.783.783,0,0,0-.623-1.437L27.1,8.041a.929.929,0,0,1-.738,0L8.256.192A2.281,2.281,0,0,0,5.068,2.284v.425l-2-.511A2.46,2.46,0,0,0,0,4.582V39.576A2.46,2.46,0,0,0,1.851,41.96l23.662,6.049a4.987,4.987,0,0,0,2.438,0L51.614,41.96a2.46,2.46,0,0,0,1.851-2.384V4.582A2.46,2.46,0,0,0,50.395,2.2ZM1.566,39.576V4.582a.9.9,0,0,1,1.116-.867l2.385.61V7.266a.783.783,0,0,0,1.566,0V2.284a.714.714,0,0,1,1-.655c19.4,8.409,18.154,7.876,18.317,7.93V46.32L7.064,38.132a.714.714,0,0,1-.43-.655V10.921a.783.783,0,1,0-1.566,0V37.477a2.28,2.28,0,0,0,1.373,2.092l10.947,4.746L2.239,40.442A.894.894,0,0,1,1.566,39.576Zm50.332,0a.894.894,0,0,1-.673.866l-15.15,3.873,10.948-4.746A2.278,2.278,0,0,0,48.4,37.478V4.325l2.385-.61a.9.9,0,0,1,1.116.867Zm0,0" transform="translate(0 0)" fill="#9f0925"/>
      <path id="Trazado_735737" data-name="Trazado 735737" d="M189.636,109.235l3.063,1.328a.783.783,0,1,0,.623-1.437l-3.063-1.328a.783.783,0,1,0-.623,1.437Zm0,0" transform="translate(-169.411 -96.482)" fill="#9f0925"/>
      <path id="Trazado_735738" data-name="Trazado 735738" d="M79.28,70.13l4.994,2.165a1.244,1.244,0,0,0,1.738-1.141V65.477a1.244,1.244,0,0,0-.749-1.141l-4.994-2.165a1.244,1.244,0,0,0-1.738,1.141v5.677A1.243,1.243,0,0,0,79.28,70.13ZM80.1,63.8l4.348,1.885v4.974L80.1,68.777Zm0,0" transform="translate(-70.331 -55.585)" fill="#9f0925"/>
      <path id="Trazado_735739" data-name="Trazado 735739" d="M167.769,221.039a1.244,1.244,0,0,0-1.738,1.141v5.678A1.242,1.242,0,0,0,166.78,229l4.994,2.165a1.244,1.244,0,0,0,1.738-1.141v-5.677a1.244,1.244,0,0,0-.749-1.141Zm4.176,8.491-4.348-1.885v-4.974l4.348,1.885Zm0,0" transform="translate(-148.694 -197.863)" fill="#9f0925"/>
      <path id="Trazado_735740" data-name="Trazado 735740" d="M166.5,145.118l5.479,2.375a.783.783,0,1,0,.623-1.437l-5.479-2.375a.783.783,0,1,0-.623,1.437Zm0,0" transform="translate(-148.69 -128.618)" fill="#9f0925"/>
      <path id="Trazado_735741" data-name="Trazado 735741" d="M79,153.1l14.616,6.336A.783.783,0,1,0,94.242,158l-14.616-6.336A.783.783,0,0,0,79,153.1Zm0,0" transform="translate(-70.331 -135.765)" fill="#9f0925"/>
      <path id="Trazado_735742" data-name="Trazado 735742" d="M79,199.012l6.358,2.756a.783.783,0,1,0,.623-1.437l-6.358-2.756A.783.783,0,1,0,79,199.012Zm0,0" transform="translate(-70.331 -176.885)" fill="#9f0925"/>
      <path id="Trazado_735743" data-name="Trazado 735743" d="M79,244.924l6.358,2.757a.783.783,0,0,0,.623-1.437l-6.358-2.757A.783.783,0,1,0,79,244.924Zm0,0" transform="translate(-70.331 -218.003)" fill="#9f0925"/>
      <path id="Trazado_735744" data-name="Trazado 735744" d="M79,290.836,90.212,295.7a.783.783,0,1,0,.623-1.437L79.626,289.4A.783.783,0,1,0,79,290.836Zm0,0" transform="translate(-70.331 -259.12)" fill="#9f0925"/>
      <path id="Trazado_735745" data-name="Trazado 735745" d="M293.034,191.157a3.153,3.153,0,0,0,2.246-.93l3.552-3.552a2.047,2.047,0,0,0-2.9-2.9l-1.128,1.128v-.884a.783.783,0,1,0-1.566,0v2.492a.9.9,0,0,0,1.537.637l2.265-2.265a.481.481,0,0,1,.68.68l-3.552,3.552a1.61,1.61,0,0,1-2.748-1.138v-6.828a.9.9,0,0,0-1.537-.637l-2.265,2.265a.481.481,0,1,1-.68-.68l3.552-3.552a1.609,1.609,0,0,1,2.747,1.138v.681a.783.783,0,1,0,1.566,0v-.681a3.176,3.176,0,0,0-5.421-2.245l-3.552,3.552a2.047,2.047,0,0,0,2.9,2.9l1.128-1.128v5.22A3.18,3.18,0,0,0,293.034,191.157Zm0,0" transform="translate(-255.449 -158.079)" fill="#9f0925"/>
      <path id="Trazado_735746" data-name="Trazado 735746" d="M328.513,115.949a2.88,2.88,0,1,0,2.88,2.88A2.883,2.883,0,0,0,328.513,115.949Zm0,4.193a1.313,1.313,0,1,1,1.313-1.313A1.315,1.315,0,0,1,328.513,120.142Zm0,0" transform="translate(-291.629 -103.841)" fill="#9f0925"/>
    </g>
  </g>
</svg>
