<svg xmlns="http://www.w3.org/2000/svg" width="66" height="82.297" viewBox="0 0 66 82.297">
  <g id="Grupo_988217" data-name="Grupo 988217" transform="translate(-1039 -2771)">
    <g id="Rectángulo_344961" data-name="Rectángulo 344961" transform="translate(1039 2771)" fill="none" stroke="#9f0925" stroke-width="2">
      <rect width="66" height="82.297" rx="11" stroke="none"/>
      <rect x="1" y="1" width="64" height="80.297" rx="10" fill="none"/>
    </g>
    <g id="Grupo_988216" data-name="Grupo 988216" transform="translate(-4.354 -1.666)">
      <path id="path849" d="M-13.216-3.662a.85.85,0,0,1-.8-.559,7.812,7.812,0,0,1-.04-5.21.85.85,0,0,1,1.081-.525.85.85,0,0,1,.525,1.081A6.108,6.108,0,0,0-12.418-4.8a.85.85,0,0,1-.508,1.089A.848.848,0,0,1-13.216-3.662Z" transform="translate(1111.096 2819.726)" fill="#9f0925"/>
      <path id="path853" d="M3.964-4.877H-8.588a.85.85,0,0,1-.85-.85.85.85,0,0,1,.85-.85H3.964a.863.863,0,0,0,.862-.863A.863.863,0,0,0,3.964-8.3H-9.15A.85.85,0,0,1-10-9.15.85.85,0,0,1-9.15-10H3.964A2.564,2.564,0,0,1,6.526-7.438,2.565,2.565,0,0,1,3.964-4.877Z" transform="translate(1094.723 2816.199)" fill="#9f0925"/>
      <path id="path857" d="M-310.977-37.015h-41.291a6.6,6.6,0,0,1-4.719-1.971,6.6,6.6,0,0,1-1.924-4.738A6.7,6.7,0,0,1-352.2-50.3h24.349a.85.85,0,0,1,.85.85.85.85,0,0,1-.85.85H-352.2a4.992,4.992,0,0,0-5.008,4.9,4.91,4.91,0,0,0,1.433,3.526,4.908,4.908,0,0,0,3.511,1.467h41.291a.863.863,0,0,0,.862-.862.863.863,0,0,0-.862-.862h-41.291a3.223,3.223,0,0,1-3.22-3.22,3.223,3.223,0,0,1,3.22-3.22h23.85a.85.85,0,0,1,.85.85.85.85,0,0,1-.85.85h-23.85a1.522,1.522,0,0,0-1.52,1.521,1.522,1.522,0,0,0,1.52,1.521h41.291a2.565,2.565,0,0,1,2.562,2.562A2.565,2.565,0,0,1-310.977-37.015Z" transform="translate(1409.664 2856.502)" fill="#9f0925"/>
      <path id="path861" d="M-13.666-3.661a.85.85,0,0,1-.8-.572,7.812,7.812,0,0,1,.04-5.21.85.85,0,0,1,1.089-.508.85.85,0,0,1,.508,1.089,6.108,6.108,0,0,0-.031,4.074.85.85,0,0,1-.525,1.081A.849.849,0,0,1-13.666-3.661Z" transform="translate(1115.37 2842.804)" fill="#9f0925"/>
      <path id="path865" d="M-65.109-37.015H-113.2a6.6,6.6,0,0,1-4.719-1.971,6.6,6.6,0,0,1-1.924-4.738,6.7,6.7,0,0,1,6.707-6.579h3.474a.85.85,0,0,1,.85.85.85.85,0,0,1-.85.85h-3.474a4.993,4.993,0,0,0-5.008,4.9,4.911,4.911,0,0,0,1.433,3.526,4.909,4.909,0,0,0,3.512,1.467h48.088a.863.863,0,0,0,.862-.862.863.863,0,0,0-.862-.862H-113.2a3.223,3.223,0,0,1-3.22-3.22,3.223,3.223,0,0,1,3.22-3.22h3.538a.85.85,0,0,1,.85.85.85.85,0,0,1-.85.85H-113.2a1.522,1.522,0,0,0-1.52,1.521,1.522,1.522,0,0,0,1.52,1.521h48.088a2.564,2.564,0,0,1,2.562,2.562A2.564,2.564,0,0,1-65.109-37.015Z" transform="translate(1167.194 2879.68)" fill="#9f0925"/>
      <path id="path869" d="M-344.187-4.877H-384.7a.85.85,0,0,1-.85-.85.85.85,0,0,1,.85-.85h40.509a.863.863,0,0,0,.862-.863.863.863,0,0,0-.862-.862h-8.6a.85.85,0,0,1-.85-.85.85.85,0,0,1,.85-.85h8.6a2.564,2.564,0,0,1,2.562,2.562A2.565,2.565,0,0,1-344.187-4.877Z" transform="translate(1446.272 2839.377)" fill="#9f0925"/>
      <path id="path873" d="M18.193-8.3H-9.15A.85.85,0,0,1-10-9.15.85.85,0,0,1-9.15-10H18.193a.85.85,0,0,1,.85.85A.85.85,0,0,1,18.193-8.3Z" transform="translate(1070.813 2839.377)" fill="#9f0925"/>
      <path id="path877" d="M-9.153-59.12a.848.848,0,0,1-.289-.051.85.85,0,0,1-.51-1.088,6.1,6.1,0,0,0,0-4.14.85.85,0,0,1,.51-1.088.85.85,0,0,1,1.088.51,7.8,7.8,0,0,1,0,5.3A.85.85,0,0,1-9.153-59.12Z" transform="translate(1059.418 2886.762)" fill="#9f0925"/>
      <path id="path881" d="M-117.833-92.81a.85.85,0,0,1-.85-.85.85.85,0,0,1,.85-.85,4.992,4.992,0,0,0,5.008-4.9,4.911,4.911,0,0,0-1.433-3.526,4.909,4.909,0,0,0-3.511-1.467h-48.088a.863.863,0,0,0-.862.862.863.863,0,0,0,.862.862h48.088a3.223,3.223,0,0,1,3.22,3.22,3.223,3.223,0,0,1-3.22,3.22h-36.341a.85.85,0,0,1-.85-.85.85.85,0,0,1,.85-.85h36.341a1.522,1.522,0,0,0,1.52-1.521,1.522,1.522,0,0,0-1.52-1.521h-48.088a2.564,2.564,0,0,1-2.562-2.562,2.564,2.564,0,0,1,2.562-2.562h48.088a6.6,6.6,0,0,1,4.719,1.971,6.6,6.6,0,0,1,1.924,4.739A6.7,6.7,0,0,1-117.833-92.81Z" transform="translate(1215.771 2923.887)" fill="#9f0925"/>
      <path id="path885" d="M-109.658-45.179h-7.62a2.564,2.564,0,0,1-2.562-2.562,2.565,2.565,0,0,1,2.562-2.562h7.62a.85.85,0,0,1,.85.85.85.85,0,0,1-.85.85h-7.62a.863.863,0,0,0-.862.863.863.863,0,0,0,.862.862h7.62a.85.85,0,0,1,.85.85A.85.85,0,0,1-109.658-45.179Z" transform="translate(1167.193 2876.256)" fill="#9f0925"/>
      <path id="path889" d="M-9.152-111.8a.85.85,0,0,1-.242-.035.85.85,0,0,1-.573-1.056l2.854-9.61a.85.85,0,0,1,1.056-.573.85.85,0,0,1,.573,1.056l-2.854,9.61A.85.85,0,0,1-9.152-111.8Z" transform="translate(1069.293 2919.699)" fill="#9f0925"/>
      <path id="path893" d="M-6.3,1.307A.85.85,0,0,1-7.113.7l-2.854-9.61a.85.85,0,0,1,.573-1.056.85.85,0,0,1,1.056.573L-5.484.215a.85.85,0,0,1-.573,1.056A.85.85,0,0,1-6.3,1.307Z" transform="translate(1098.158 2806.593)" fill="#9f0925"/>
      <path id="path897" d="M-109.514-37a12.384,12.384,0,0,1-3.145-.405L-135.2-43.329a2.04,2.04,0,0,1-1.54-2,2.04,2.04,0,0,1,1.54-2l9.862-2.59a.85.85,0,0,1,1.038.606.85.85,0,0,1-.606,1.038l-9.862,2.59a.342.342,0,0,0-.273.354.342.342,0,0,0,.273.353l22.544,5.921a10.7,10.7,0,0,0,5.426,0l22.544-5.921a.342.342,0,0,0,.273-.354.342.342,0,0,0-.273-.353L-106.8-51.6a10.7,10.7,0,0,0-5.426,0l-8.383,2.2a.85.85,0,0,1-1.038-.606.85.85,0,0,1,.606-1.038l8.383-2.2a12.4,12.4,0,0,1,6.29,0l22.544,5.921a2.04,2.04,0,0,1,1.54,2,2.04,2.04,0,0,1-1.54,2l-22.544,5.921A12.384,12.384,0,0,1-109.514-37Z" transform="translate(1185.515 2838.316)" fill="#9f0925"/>
      <path id="path901" d="M-3.093,2.929a.85.85,0,0,1-.85-.85v-5.36l-5.779-5.24a.85.85,0,0,1-.059-1.2.85.85,0,0,1,1.2-.059l6.058,5.493a.85.85,0,0,1,.279.629V2.079A.85.85,0,0,1-3.093,2.929Z" transform="translate(1086.783 2802.508)" fill="#9f0925"/>
      <path id="path905" d="M-61.813-87.772H-66.7a.85.85,0,0,1-.85-.85c0-1.93.238-8.229,3.294-8.229s3.294,6.3,3.294,8.229A.85.85,0,0,1-61.813-87.772Zm-4.024-1.7h3.157c-.117-3.023-.83-5.68-1.578-5.68S-65.721-92.494-65.836-89.472Z" transform="translate(1147.947 2900.588)" fill="#9f0925"/>
      <path id="path909" d="M-56.714-130.993a.849.849,0,0,1-.44-.123.85.85,0,0,1-.41-.727v-13.709a.85.85,0,0,1,.85-.85h4.041a.85.85,0,0,1,.85.85v11.589a.85.85,0,0,1-.455.752l-4.041,2.12A.849.849,0,0,1-56.714-130.993Zm.85-13.709v11.454l2.342-1.229V-144.7Z" transform="translate(1114.25 2967.613)" fill="#9f0925"/>
      <path id="path913" d="M-47.013-51.916a4.06,4.06,0,0,1-2.123-.611.85.85,0,0,1-.4-.724v-2.415A2.532,2.532,0,0,1-47.012-58.2a2.532,2.532,0,0,1,2.529,2.529v2.415a.85.85,0,0,1-.406.725A4.074,4.074,0,0,1-47.013-51.916Zm-.829-1.857a2.273,2.273,0,0,0,1.66,0v-1.892a.831.831,0,0,0-.83-.83.831.831,0,0,0-.83.83Z" transform="translate(1122.929 2846.648)" fill="#9f0925"/>
    </g>
  </g>
</svg>
