<svg xmlns="http://www.w3.org/2000/svg" width="66" height="73.3" viewBox="0 0 66 73.3">
  <g id="Grupo_988218" data-name="Grupo 988218" transform="translate(-199 -2931)">
    <g id="Rectángulo_344967" data-name="Rectángulo 344967" transform="translate(199 2931)" fill="none" stroke="#9f0925" stroke-width="2">
      <rect width="66" height="73.3" rx="11" stroke="none"/>
      <rect x="1" y="1" width="64" height="71.3" rx="10" fill="none"/>
    </g>
    <g id="publicidad-online" transform="translate(205.5 2937.501)">
      <path id="Trazado_735747" data-name="Trazado 735747" d="M53.59,46.8H53.6a1.158,1.158,0,1,0-.011,0Zm0,0" transform="translate(-46.395 -38.93)" fill="#9f0925"/>
      <path id="Trazado_735748" data-name="Trazado 735748" d="M99.09,46.8H99.1a1.158,1.158,0,1,0-.011,0Zm0,0" transform="translate(-86.652 -38.93)" fill="#9f0925"/>
      <path id="Trazado_735749" data-name="Trazado 735749" d="M144.594,46.8h.011a1.158,1.158,0,1,0-.011,0Zm0,0" transform="translate(-126.912 -38.93)" fill="#9f0925"/>
      <path id="Trazado_735750" data-name="Trazado 735750" d="M222.9,46.8h16.045a1.152,1.152,0,1,0,0-2.3H222.9a1.152,1.152,0,1,0,0,2.3Zm0,0" transform="translate(-196.193 -38.93)" fill="#9f0925"/>
      <path id="Trazado_735751" data-name="Trazado 735751" d="M415.137,268.492a1.153,1.153,0,1,0,.814.338A1.16,1.16,0,0,0,415.137,268.492Zm0,0" transform="translate(-366.279 -237.11)" fill="#9f0925"/>
      <path id="Trazado_735752" data-name="Trazado 735752" d="M194.779,176.492h-1.435a1.152,1.152,0,0,0-1.152,1.152v8.3a1.152,1.152,0,0,0,1.152,1.152h1.435a5.3,5.3,0,0,0,0-10.6Zm0,8.3H194.5V178.8h.283a3,3,0,0,1,0,5.992Zm0,0" transform="translate(-170.044 -155.712)" fill="#9f0925"/>
      <path id="Trazado_735753" data-name="Trazado 735753" d="M108.378,177.277a1.152,1.152,0,0,0-2.184,0l-2.792,8.3a1.152,1.152,0,1,0,2.184.735l.085-.253H108.9l.085.253a1.152,1.152,0,1,0,2.184-.735Zm-1.932,6.475.84-2.494.839,2.494Zm0,0" transform="translate(-91.433 -155.712)" fill="#9f0925"/>
      <path id="Trazado_735754" data-name="Trazado 735754" d="M58.662,49.727l-7.835-7.835,2.762-2.761a1.152,1.152,0,0,0-.5-1.922l-16.68-4.8V17.323a1.152,1.152,0,0,0-1.152-1.152H6.683a1.152,1.152,0,0,0-1.152,1.152V34.838a1.152,1.152,0,0,0,1.152,1.152H31.642L33.633,42.9H3.457A1.153,1.153,0,0,1,2.3,41.752V12.945h45.4v14.98a1.152,1.152,0,0,0,2.3,0V3.957A3.461,3.461,0,0,0,46.553.5H3.457A3.461,3.461,0,0,0,0,3.957v37.8a3.461,3.461,0,0,0,3.457,3.457H34.3l2.414,8.382a1.152,1.152,0,0,0,1.922.5l2.761-2.761,7.835,7.835a1.153,1.153,0,0,0,1.629,0l7.8-7.8A1.152,1.152,0,0,0,58.662,49.727ZM3.457,2.8h43.1a1.154,1.154,0,0,1,1.152,1.152V10.64H2.3V3.957A1.153,1.153,0,0,1,3.457,2.8ZM7.835,33.686V18.476H34.108V31.741l-2.021-.582a1.153,1.153,0,0,0-1.426,1.426l.317,1.1Zm42.208,23.03-7.835-7.835a1.152,1.152,0,0,0-1.63,0l-2.194,2.195L33.452,33.95l17.125,4.932-2.194,2.195a1.152,1.152,0,0,0,0,1.629l7.835,7.835Zm0,0" fill="#9f0925"/>
      <path id="Trazado_735755" data-name="Trazado 735755" d="M58.453,330.793a1.152,1.152,0,1,0,0-2.3H50.578a1.152,1.152,0,1,0,0,2.3Zm0,0" transform="translate(-43.73 -290.193)" fill="#9f0925"/>
      <path id="Trazado_735756" data-name="Trazado 735756" d="M159.232,330.455a1.151,1.151,0,1,0-.815.338A1.162,1.162,0,0,0,159.232,330.455Zm0,0" transform="translate(-139.143 -290.193)" fill="#9f0925"/>
    </g>
  </g>
</svg>
