<svg xmlns="http://www.w3.org/2000/svg" xmlns:xlink="http://www.w3.org/1999/xlink" width="400" height="395.776" viewBox="0 0 400 395.776">
  <defs>
    <clipPath id="clip-path">
      <rect id="Rectángulo_345657" data-name="Rectángulo 345657" width="400" height="395.776" transform="translate(0 0)" fill="none"/>
    </clipPath>
  </defs>
  <g id="Grupo_988403" data-name="Grupo 988403" transform="translate(0 0.004)">
    <g id="Grupo_988403-2" data-name="Grupo 988403" transform="translate(0 -0.004)" clip-path="url(#clip-path)">
      <path id="Trazado_741197" data-name="Trazado 741197" d="M395.776,197.885c0,109.291-88.6,197.888-197.888,197.888S0,307.175,0,197.885,88.6,0,197.888,0s197.888,88.6,197.888,197.888" transform="translate(0 0.003)" fill="#fee7dd"/>
      <path id="Trazado_741198" data-name="Trazado 741198" d="M168.685,396.486a.477.477,0,0,1-.473-.425c-5.489-50.907-25.384-93.173-41.108-119.665-17.043-28.714-32.994-45.6-33.153-45.77a.477.477,0,0,1,.676-.674l.016.016c.159.167,16.171,17.117,33.268,45.916,15.779,26.579,35.743,68.986,41.248,120.074a.477.477,0,0,1-.422.525h-.052" transform="translate(-73.824 -180.849)" fill="#e6d0be"/>
      <path id="Trazado_741199" data-name="Trazado 741199" d="M41.48,167.018S43.511,150.2,14.193,134.6c0,0,3.413,32.5,27.287,32.414" transform="translate(-11.169 -105.926)" fill="#e6d0be"/>
      <path id="Trazado_741200" data-name="Trazado 741200" d="M177.59,197.728c-.338.24-6.619-15.33,7.64-35.2,0,0,4.943,26.271-7.64,35.2" transform="translate(-138.443 -127.9)" fill="#e6d0be"/>
      <path id="Trazado_741201" data-name="Trazado 741201" d="M233.122,277.874s-1.369-14.434,19.12-31.465c0,0-6.563,30.315-19.12,31.465" transform="translate(-183.44 -193.911)" fill="#e6d0be"/>
      <path id="Trazado_741202" data-name="Trazado 741202" d="M279.98,384.776c-.413.013,2.944-16.439,25.8-25.135,0,0-10.38,24.634-25.8,25.135" transform="translate(-220.305 -283.019)" fill="#e6d0be"/>
      <path id="Trazado_741203" data-name="Trazado 741203" d="M314.455,496.449s6.77-11.075,30.6-12.387c0,0-20.984,18.241-30.6,12.387" transform="translate(-247.46 -380.932)" fill="#e6d0be"/>
      <path id="Trazado_741204" data-name="Trazado 741204" d="M355.342,622.341s9.122-6.706,28.794.1c0,0-22.962,7.8-28.794-.1" transform="translate(-279.636 -487.428)" fill="#e6d0be"/>
      <path id="Trazado_741205" data-name="Trazado 741205" d="M56.25,319.992c.291-.223-11.258-9.616-31.825-2.729,0,0,20.969,11.059,31.825,2.729" transform="translate(-19.221 -247.687)" fill="#e6d0be"/>
      <path id="Trazado_741206" data-name="Trazado 741206" d="M83.852,403.278s-13.389-5.564-35.7,8.994c0,0,30.9,2.666,35.7-8.994" transform="translate(-37.891 -316.537)" fill="#e6d0be"/>
      <path id="Trazado_741207" data-name="Trazado 741207" d="M146.45,494.725c.134-.392-16.574-2.032-31.624,17.245,0,0,26.6-2.656,31.624-17.245" transform="translate(-90.362 -389.16)" fill="#e6d0be"/>
      <path id="Trazado_741208" data-name="Trazado 741208" d="M221.591,556.085s-12.578,3.2-20.858,25.59c0,0,23.613-14.673,20.858-25.59" transform="translate(-157.967 -437.61)" fill="#e6d0be"/>
      <path id="Trazado_741209" data-name="Trazado 741209" d="M308.934,642.829s-9.1,6.739-8.391,27.544c0,0,14.222-19.644,8.391-27.544" transform="translate(-236.482 -505.873)" fill="#e6d0be"/>
      <path id="Trazado_741210" data-name="Trazado 741210" d="M1298.842,1277.205a17.1,17.1,0,0,1-17.054,17.054H1165.993a17.054,17.054,0,1,1,0-34.108h115.793a17.1,17.1,0,0,1,17.054,17.054" transform="translate(-904.157 -991.674)" fill="#fad1d9"/>
      <path id="Trazado_741211" data-name="Trazado 741211" d="M1315.05,1325.6H1205.835a18.959,18.959,0,0,1,0-37.918h109.214a18.959,18.959,0,1,1,.034,37.918h-.034m-109.214-36.963a18.006,18.006,0,0,0,0,36.011h109.214a18.006,18.006,0,1,0,0-36.011Z" transform="translate(-934.025 -1013.343)" fill="#fff"/>
      <path id="Trazado_741212" data-name="Trazado 741212" d="M1257.692,1349.88a6.721,6.721,0,1,1-6.721-6.721,6.721,6.721,0,0,1,6.721,6.721" transform="translate(-979.162 -1056.998)" fill="#fff"/>
      <path id="Trazado_741213" data-name="Trazado 741213" d="M1358.559,1349.88a6.721,6.721,0,1,1-6.721-6.721,6.721,6.721,0,0,1,6.721,6.721" transform="translate(-1058.539 -1056.998)" fill="#fff"/>
      <path id="Trazado_741214" data-name="Trazado 741214" d="M1459.421,1349.88a6.721,6.721,0,1,1-6.722-6.721,6.721,6.721,0,0,1,6.722,6.721" transform="translate(-1137.913 -1056.998)" fill="#fff"/>
      <path id="Trazado_741215" data-name="Trazado 741215" d="M1560.288,1349.88a6.721,6.721,0,1,1-6.721-6.721,6.721,6.721,0,0,1,6.721,6.721" transform="translate(-1217.29 -1056.998)" fill="#fff"/>
      <path id="Trazado_741216" data-name="Trazado 741216" d="M230.528,169H131.692a14.556,14.556,0,1,1,0-29.112h98.835a14.556,14.556,0,1,1,0,29.112" transform="translate(-92.18 -110.085)" fill="#fad1d9"/>
      <path id="Trazado_741217" data-name="Trazado 741217" d="M128.092,139.888H234.118a10.96,10.96,0,0,1,10.96,10.96v7.193A10.96,10.96,0,0,1,234.118,169H128.092a10.96,10.96,0,0,1-10.96-10.96v-7.193a10.96,10.96,0,0,1,10.96-10.96" transform="translate(-92.177 -110.084)" fill="#fad1d9"/>
      <path id="Trazado_741218" data-name="Trazado 741218" d="M258.6,195.569H165.384a16.252,16.252,0,1,1,0-32.5H258.6a16.252,16.252,0,1,1,.023,32.5H258.6m-93.217-31.55a15.3,15.3,0,1,0-.022,30.6H258.6a15.3,15.3,0,0,0,.022-30.6H165.384Z" transform="translate(-117.359 -128.323)" fill="#fff"/>
      <path id="Trazado_741219" data-name="Trazado 741219" d="M209.962,216.479a5.737,5.737,0,1,1-5.737-5.737,5.737,5.737,0,0,1,5.737,5.737" transform="translate(-156.2 -165.843)" fill="#fff"/>
      <path id="Trazado_741220" data-name="Trazado 741220" d="M296.051,216.479a5.737,5.737,0,1,1-5.737-5.737,5.737,5.737,0,0,1,5.737,5.737" transform="translate(-223.948 -165.843)" fill="#fff"/>
      <path id="Trazado_741221" data-name="Trazado 741221" d="M382.141,216.479a5.737,5.737,0,1,1-5.737-5.737,5.737,5.737,0,0,1,5.737,5.737Z" transform="translate(-291.696 -165.843)" fill="#fff"/>
      <path id="Trazado_741222" data-name="Trazado 741222" d="M468.234,216.479a5.737,5.737,0,1,1-5.737-5.737,5.737,5.737,0,0,1,5.737,5.737" transform="translate(-359.447 -165.843)" fill="#fff"/>
      <rect id="Rectángulo_345649" data-name="Rectángulo 345649" width="92.686" height="70.482" transform="translate(145.742 11.127)" fill="#e6d0be"/>
      <rect id="Rectángulo_345650" data-name="Rectángulo 345650" width="92.686" height="16.411" transform="translate(145.728 95.482)" fill="#f7f1eb"/>
      <path id="Trazado_741223" data-name="Trazado 741223" d="M724.087,462.531l4.031.51-2.856,2.889.76,3.991-3.631-1.824-3.561,1.957.613-4.016-2.961-2.782,4.009-.659,1.73-3.675Z" transform="translate(-563.836 -361.148)" fill="#ff6e33"/>
      <path id="Trazado_741224" data-name="Trazado 741224" d="M802.956,462.531l4.031.51-2.856,2.889.76,3.991L801.26,468.1l-3.561,1.957.613-4.016-2.961-2.782,4.009-.659,1.731-3.675Z" transform="translate(-625.901 -361.148)" fill="#ff6e33"/>
      <path id="Trazado_741225" data-name="Trazado 741225" d="M875.78,469.465a.216.216,0,0,1-.216-.217.206.206,0,0,1,0-.032l.6-3.9-2.878-2.7a.216.216,0,0,1,.114-.371l3.9-.64,1.683-3.573a.216.216,0,0,1,.388-.007l1.812,3.509,3.918.5a.216.216,0,0,1,.188.242.214.214,0,0,1-.061.125l-2.777,2.809.739,3.88a.216.216,0,0,1-.31.233l-3.529-1.773-3.461,1.9a.221.221,0,0,1-.1.027m-1.881-6.875,2.642,2.482a.217.217,0,0,1,.066.19l-.547,3.587,3.177-1.746a.216.216,0,0,1,.2,0l3.239,1.627L882,465.173a.216.216,0,0,1,.059-.192l2.549-2.578-3.6-.455a.215.215,0,0,1-.165-.115l-1.664-3.22-1.544,3.28a.215.215,0,0,1-.16.121Z" transform="translate(-687.179 -360.344)" fill="#ff6e33"/>
      <path id="Trazado_741226" data-name="Trazado 741226" d="M954.648,469.463a.216.216,0,0,1-.216-.217.237.237,0,0,1,0-.032l.6-3.9-2.878-2.7a.216.216,0,0,1,.114-.371l3.9-.64,1.683-3.573a.216.216,0,0,1,.191-.124.22.22,0,0,1,.2.117l1.812,3.509,3.918.5a.216.216,0,0,1,.126.367L961.32,465.2l.739,3.88a.216.216,0,0,1-.31.233l-3.529-1.773-3.461,1.9a.217.217,0,0,1-.1.027m-1.881-6.875,2.642,2.482a.217.217,0,0,1,.066.19l-.547,3.587,3.177-1.746a.216.216,0,0,1,.2,0l3.239,1.627-.678-3.561a.216.216,0,0,1,.059-.192l2.548-2.577-3.6-.455a.216.216,0,0,1-.165-.116l-1.664-3.22-1.544,3.28a.216.216,0,0,1-.161.121Z" transform="translate(-749.244 -360.342)" fill="#ff6e33"/>
      <path id="Trazado_741227" data-name="Trazado 741227" d="M1033.518,469.462a.216.216,0,0,1-.216-.217.179.179,0,0,1,0-.032l.6-3.9-2.878-2.7a.216.216,0,0,1,.114-.371l3.9-.64,1.683-3.573a.216.216,0,0,1,.191-.124.207.207,0,0,1,.2.117l1.813,3.509,3.918.5a.216.216,0,0,1,.126.367l-2.777,2.809.739,3.88a.216.216,0,0,1-.31.233l-3.529-1.773-3.461,1.9a.219.219,0,0,1-.1.027m-1.881-6.875,2.643,2.482a.217.217,0,0,1,.065.19l-.547,3.587,3.177-1.746a.215.215,0,0,1,.2,0l3.239,1.627-.679-3.561a.217.217,0,0,1,.059-.192l2.549-2.577-3.6-.455a.217.217,0,0,1-.166-.116l-1.664-3.22-1.544,3.28a.216.216,0,0,1-.161.121Z" transform="translate(-811.311 -360.34)" fill="#ff6e33"/>
      <path id="Trazado_741228" data-name="Trazado 741228" d="M776.645,332.834H683.962V310.149l46.559-8.543,46.13,8.543Z" transform="translate(-538.243 -237.348)" fill="#fff"/>
      <path id="Trazado_741229" data-name="Trazado 741229" d="M851.188,239.537h0a12.155,12.155,0,0,1-12.933-11.321l-1.63-24.533,24.255-1.612,1.63,24.533a12.155,12.155,0,0,1-11.321,12.933" transform="translate(-658.382 -159.019)" fill="#e2a18d"/>
      <path id="Trazado_741230" data-name="Trazado 741230" d="M852.832,104.9c-.226,10.835-7.885,19.462-17.106,19.27s-16.513-9.132-16.287-19.966,7.885-19.462,17.106-19.27,16.513,9.132,16.287,19.966" transform="translate(-644.854 -66.839)" fill="#e2a18d"/>
      <path id="Trazado_741231" data-name="Trazado 741231" d="M792.269,147.121c2.014,3.169,1.46,7.129-1.237,8.842s-6.517.534-8.531-2.636-1.46-7.129,1.237-8.842,6.517-.534,8.531,2.636" transform="translate(-614.836 -113.082)" fill="#e2a18d"/>
      <path id="Trazado_741232" data-name="Trazado 741232" d="M957.41,150.707c-2.144,3.083-1.755,7.061.868,8.886s6.489.805,8.633-2.277,1.756-7.061-.868-8.886-6.489-.805-8.633,2.277" transform="translate(-752.344 -116.093)" fill="#e2a18d"/>
      <path id="Trazado_741233" data-name="Trazado 741233" d="M852.22,246.389h-.31a15.663,15.663,0,0,1-11.849-6.071.216.216,0,0,1,.323-.288l.012.015a14.789,14.789,0,0,0,23.283.486.216.216,0,0,1,.324.287A15.7,15.7,0,0,1,852.22,246.4" transform="translate(-661.043 -188.834)" fill="#363e44"/>
      <path id="Trazado_741234" data-name="Trazado 741234" d="M972.085,165.984a.211.211,0,0,1-.054-.007.216.216,0,0,1-.155-.263,22.917,22.917,0,0,0,.326-9.816.216.216,0,0,1,.425-.08,23.354,23.354,0,0,1-.332,10,.216.216,0,0,1-.209.162" transform="translate(-764.812 -122.482)" fill="#363e44"/>
      <path id="Trazado_741235" data-name="Trazado 741235" d="M819.115,162.389a.216.216,0,0,1-.211-.172,23.335,23.335,0,0,1,.125-10.008.216.216,0,0,1,.421.1,22.918,22.918,0,0,0-.124,9.821.216.216,0,0,1-.167.256h0a.211.211,0,0,1-.044,0" transform="translate(-644.056 -119.648)" fill="#363e44"/>
      <path id="Trazado_741236" data-name="Trazado 741236" d="M822.66,64.3c2.79-4.461,7.11-9.645,13.095-10.433,7.826-1.03,12.23,6.277,20.284,5.632,3.93-.317,9.3-2.573,15.286-11.4l-5.652.461,5.8-7.692a43.7,43.7,0,0,1-12.941,3.058c-11.9.914-17.8-1.286-24.657.38-4.523,1.1-11.956,6.015-11.218,20" transform="translate(-647.352 -32.161)" fill="#ff6e33"/>
      <path id="Trazado_741237" data-name="Trazado 741237" d="M949.02,109.226a19.019,19.019,0,0,1,5.222,7.417,13.4,13.4,0,0,0-1.547-10.055l-3.675,2.637" transform="translate(-746.831 -83.879)" fill="#ff6e33"/>
      <path id="Trazado_741238" data-name="Trazado 741238" d="M900.367,188.932a.216.216,0,0,1-.119-.4,1.531,1.531,0,0,0,.809-1.022,1.293,1.293,0,0,0-.289-.8,2.841,2.841,0,0,1-.476-1.177,2.693,2.693,0,0,1,.224-1.437.217.217,0,1,1,.4.171,2.274,2.274,0,0,0-.192,1.208,2.44,2.44,0,0,0,.416,1.007,1.678,1.678,0,0,1,.352,1.059,1.921,1.921,0,0,1-1,1.343.214.214,0,0,1-.119.036" transform="translate(-708.371 -144.774)" fill="#363e44"/>
      <path id="Trazado_741239" data-name="Trazado 741239" d="M873.393,213.392a4.833,4.833,0,0,1-2.889-.948,4.739,4.739,0,0,1-1.386-1.678.216.216,0,0,1,.387-.192,4.3,4.3,0,0,0,1.259,1.524,4.41,4.41,0,0,0,2.651.861.216.216,0,0,1,0,.432h-.03" transform="translate(-683.934 -165.615)" fill="#363e44"/>
      <path id="Trazado_741240" data-name="Trazado 741240" d="M923.4,165.763h0l-.041-.009c-.032.084-.1.187-.193.174a2.625,2.625,0,0,0-.288.45c-.162.233-.513-.032-.352-.264.108-.156-.522.095-.8.164-.867.222-1.74.407-2.62.563-.41.073-.822.149-1.235.208a10.464,10.464,0,0,1-1.51.2,10.9,10.9,0,0,0-1.9,1.732,11.235,11.235,0,0,0,3.464,1.208c.009-.026.018-.052.026-.079a17.128,17.128,0,0,1,4.93-.6,11.207,11.207,0,0,0,3.432-2.648,11.135,11.135,0,0,0-2.916-1.1" transform="translate(-719.631 -130.439)" fill="#fff"/>
      <path id="Trazado_741241" data-name="Trazado 741241" d="M927.025,164.782a8.964,8.964,0,0,0-3.614,1.61,3.638,3.638,0,0,0,1.495,2.931,8.387,8.387,0,0,0,2.931.028,8,8,0,0,0,2.052-.679,3.651,3.651,0,0,0,.509-3.772,8.64,8.64,0,0,0-3.376-.119" transform="translate(-726.678 -129.585)" fill="#363e44"/>
      <path id="Trazado_741242" data-name="Trazado 741242" d="M838.447,154.914h.042c.012.089.057.206.149.214a2.673,2.673,0,0,1,.177.5c.1.264.506.087.4-.177-.07-.177.486.211.735.342.8.415,1.6.8,2.421,1.149.383.166.766.334,1.155.485a10.425,10.425,0,0,0,1.424.539,10.912,10.912,0,0,1,1.461,2.122,11.232,11.232,0,0,1-3.648.382c0-.028-.006-.055-.007-.083a17.127,17.127,0,0,0-4.661-1.712,11.213,11.213,0,0,1-2.735-3.364,11.145,11.145,0,0,1,3.089-.4" transform="translate(-657.385 -121.909)" fill="#fff"/>
      <path id="Trazado_741243" data-name="Trazado 741243" d="M850.648,155.574a8.96,8.96,0,0,1,3.148,2.391,3.637,3.637,0,0,1-2.13,2.511,8.408,8.408,0,0,1-2.859-.644,8,8,0,0,1-1.842-1.131,3.651,3.651,0,0,1,.369-3.786,8.631,8.631,0,0,1,3.314.659" transform="translate(-666.232 -121.909)" fill="#363e44"/>
      <path id="Trazado_741244" data-name="Trazado 741244" d="M768.753,672.562h-6.517a60.184,60.184,0,0,0-2.474-9.249l5.639-3.256-11.027-19.1-5.652,3.264a61.035,61.035,0,0,0-6.765-6.765l3.263-5.652-19.1-11.027-3.256,5.64a60.159,60.159,0,0,0-9.249-2.474v-6.517H691.562v6.517a60.149,60.149,0,0,0-9.249,2.474l-3.256-5.64-19.1,11.027,3.264,5.652a61.035,61.035,0,0,0-6.765,6.765l-5.653-3.264-11.027,19.1,5.64,3.256a60.213,60.213,0,0,0-2.474,9.249h-6.517v22.055h6.517a60.205,60.205,0,0,0,2.474,9.249l-5.64,3.256,11.027,19.1,5.653-3.264a61.077,61.077,0,0,0,6.765,6.765l-3.264,5.653,19.1,11.027,3.256-5.64a60.156,60.156,0,0,0,9.249,2.474v6.517h22.055v-6.517a60.148,60.148,0,0,0,9.249-2.474l3.256,5.64,19.1-11.027-3.263-5.653a61.079,61.079,0,0,0,6.765-6.765l5.652,3.264,11.027-19.1-5.639-3.256a60.205,60.205,0,0,0,2.474-9.249h6.517Zm-29.636,12.223a36.68,36.68,0,1,1,0-2.121q.031,1.06,0,2.121" transform="translate(-500.834 -485.882)" fill="#fff"/>
      <path id="Trazado_741245" data-name="Trazado 741245" d="M767.984,799.42a48.464,48.464,0,0,1-7.257-96.381.216.216,0,0,1,.078.426l-.014,0a48.032,48.032,0,1,0,53.683,59.6.216.216,0,1,1,.421.1l0,.009a48.449,48.449,0,0,1-46.909,36.249" transform="translate(-566.229 -553.253)" fill="#f2e6dc"/>
      <path id="Trazado_741246" data-name="Trazado 741246" d="M546.431,629.971a4.688,4.688,0,1,1-4.688-4.688A4.688,4.688,0,0,1,546.431,629.971Z" transform="translate(-422.636 -492.065)" fill="#ff6e33"/>
      <path id="Trazado_741247" data-name="Trazado 741247" d="M578.293,532.819c-2.833,0-5.843-2.536-7.2-6.339a10.722,10.722,0,0,1-.406-6.248,5.447,5.447,0,0,1,3.3-3.985c3.207-1.148,7.118,1.58,8.725,6.077s.308,9.084-2.893,10.232a4.5,4.5,0,0,1-1.524.26m-2.742-15.365a3.16,3.16,0,0,0-1.07.183,4.031,4.031,0,0,0-2.371,2.973,9.237,9.237,0,0,0,.369,5.375c1.335,3.732,4.4,6.057,6.842,5.185s3.336-4.619,2-8.349c-1.146-3.2-3.567-5.369-5.772-5.369" transform="translate(-448.875 -406.054)" fill="#363e44"/>
      <path id="Trazado_741248" data-name="Trazado 741248" d="M418.608,467.416c-4.157-11.638-7.6-18.057-14.42-21.254-9.171-4.3-19,.972-20.015,1.54-.65.36-10.2,4.938-11.787,15.472a29.281,29.281,0,0,0,10.737,27.57v23.248A13.512,13.512,0,0,0,396.635,527.5h1.693a13.512,13.512,0,0,0,13.512-13.512V498.458c4.734-.4,8.479-1.767,9.98-4.166,2.688-4.3,1.681-13.17-3.206-26.875" transform="translate(-292.761 -349.789)" fill="#bc8271"/>
      <path id="Trazado_741249" data-name="Trazado 741249" d="M399.155,358.927l-8.289,1.358a19.837,19.837,0,0,1,.27,3.244q0,.642-.037,1.247a1.432,1.432,0,0,1-2.762.433l-.035-.089a20.815,20.815,0,0,0-2.156-4.062l-30.3,4.962a12.307,12.307,0,0,1,2.265,7.244,12.877,12.877,0,0,1-4.679,9.356,26.248,26.248,0,0,0-5.886,26.41,26.722,26.722,0,0,0,15.242,15.4q3.25-.461,6.64-1.056c4.329-.76,8.457-1.627,12.375-2.565a9.392,9.392,0,0,1-6.188-8.149c-.462-3.886,2.406-8.225,6.443-8.375,2.564-.1,4.679,1.245,6.565,5.47,1.509-.805,3.29-1.874,4.8-2.679l-6.037-11.923c.63-.308,14.98-7.63,15.695-22.035a24.482,24.482,0,0,0-3.923-14.186" transform="translate(-272.437 -282.457)" fill="#363e44"/>
      <path id="Trazado_741250" data-name="Trazado 741250" d="M535.812,545.152a.736.736,0,0,1-.379-1.369L552.6,533.541a.737.737,0,0,1,.754,1.266l-17.168,10.243a.733.733,0,0,1-.377.1" transform="translate(-421.076 -419.787)" fill="#363e44"/>
      <path id="Trazado_741251" data-name="Trazado 741251" d="M556.607,673.1a.737.737,0,0,1-.736-.717l-.154-5.684a.738.738,0,0,1,.718-.756.761.761,0,0,1,.756.718l.154,5.684a.737.737,0,0,1-.717.756Z" transform="translate(-437.321 -524.065)" fill="#363e44"/>
      <path id="Trazado_741252" data-name="Trazado 741252" d="M508.335,600.392a.735.735,0,0,1-.544-.24c-.651-.711-1.232-1.369-1.835-2.052-.486-.551-.99-1.121-1.558-1.75a.738.738,0,0,1,1.093-.987c.573.634,1.078,1.207,1.569,1.763.6.677,1.172,1.329,1.818,2.034a.737.737,0,0,1-.543,1.232" transform="translate(-396.808 -468.351)" fill="#363e44"/>
      <path id="Trazado_741253" data-name="Trazado 741253" d="M379.449,1265.618h39.879c3.628-42.259-1.077-100.076-35.832-159.019l-79.058-1.263,32.613,49.59s33.7,36.775,42.4,110.692" transform="translate(-239.577 -869.843)" fill="#363e44"/>
      <path id="Trazado_741254" data-name="Trazado 741254" d="M300.639,1275.4c29.139-81.491,21.674-154.982,21.674-154.982l-45.207-2.653c-15.379,29.431-17.368,104.1-16.432,157.635Z" transform="translate(-204.985 -879.622)" fill="#363e44"/>
      <path id="Trazado_741255" data-name="Trazado 741255" d="M533.389,1193.409l27.882-4.976,2.438,13.666a14.161,14.161,0,1,1-27.882,4.976Z" transform="translate(-419.75 -935.236)" fill="#40484c"/>
      <path id="Trazado_741256" data-name="Trazado 741256" d="M762.531,771.085c34.138,7.231,51.687,15.509,47.894,28.207-2.2,7.366-22.684,11-49.923,6.717.6-11.011,1-21.62,2.027-34.924" transform="translate(-598.477 -606.804)" fill="#bc8271"/>
      <path id="Trazado_741257" data-name="Trazado 741257" d="M845.969,543.422c-.526-8.568-.879-28.127-.293-43.069.616-15.693,3.809-38.772,7.032-38.284,1.835.278,2.05,3.516,2.05,12.208a3.831,3.831,0,0,1,3.614-.928,3.679,3.679,0,0,1,2.591,3.174c.137-.161,1.66-1.855,3.4-1.6a4.051,4.051,0,0,1,3.448,3.1,4.2,4.2,0,0,1,3.458-1.4,3.772,3.772,0,0,1,3.174,3.662c-.179,3.315-.9,13.152-.667,17.987.458,9.508,6.617,43.053,3.646,56.97-10.515-6.413-20.933-5.4-31.447-11.817" transform="translate(-665.265 -363.618)" fill="#bc8271"/>
      <path id="Trazado_741258" data-name="Trazado 741258" d="M863.32,796.141a.476.476,0,0,1-.21-.049,111.743,111.743,0,0,0-19.722-6.986.476.476,0,1,1,.249-.919,112.631,112.631,0,0,1,19.894,7.05.477.477,0,0,1-.211.9" transform="translate(-663.427 -620.249)" fill="#363e44"/>
      <path id="Trazado_741259" data-name="Trazado 741259" d="M864.114,539.289a.471.471,0,0,1-.1-.01l-2.576-.525a.476.476,0,0,1,.19-.934l2.577.525a.477.477,0,0,1-.1.945" transform="translate(-677.608 -423.229)" fill="#363e44"/>
      <path id="Trazado_741260" data-name="Trazado 741260" d="M894.814,545.5a.471.471,0,0,1-.1-.01l-2.577-.525a.477.477,0,0,1,.19-.935l2.576.525a.476.476,0,0,1-.1.944" transform="translate(-701.767 -428.116)" fill="#363e44"/>
      <path id="Trazado_741261" data-name="Trazado 741261" d="M926.138,551.476a.487.487,0,0,1-.1-.01l-2.577-.525a.476.476,0,0,1,.19-.934l2.577.525a.477.477,0,0,1-.1.944" transform="translate(-726.418 -432.82)" fill="#363e44"/>
      <path id="Trazado_741262" data-name="Trazado 741262" d="M954.455,557.49a.5.5,0,0,1-.1-.01l-2.577-.525a.476.476,0,1,1,.19-.934l2.576.525a.476.476,0,0,1-.095.944" transform="translate(-748.701 -437.552)" fill="#363e44"/>
      <path id="Trazado_741263" data-name="Trazado 741263" d="M49.367,817.224C14.4,842.366-1.637,859.8,8.02,870.354c5.6,6.122,30.687-.559,59.229-19.146-5.377-10.569-11.056-21.369-17.882-33.984" transform="translate(-4.132 -643.114)" fill="#bc8271"/>
      <path id="Trazado_741264" data-name="Trazado 741264" d="M166.09,752.4s33.987-17.549,66.509-18.722c27.719-1,70.595,9.8,70.595,9.8l.407,43.428-16.8,1.953,3.516,32.033-100.007,5.081-1.954-28.119-10.841,2.335Z" transform="translate(-130.704 -577.318)" fill="#9f0925"/>
      <path id="Trazado_741265" data-name="Trazado 741265" d="M727.222,954.813a.476.476,0,0,1-.471-.411c-.2-1.407-.4-3.139-.588-4.815s-.39-3.387-.584-4.782a.477.477,0,1,1,.945-.132c.2,1.4.4,3.133.587,4.806s.39,3.4.585,4.792a.476.476,0,0,1-.405.538h0a.437.437,0,0,1-.067,0" transform="translate(-570.991 -743.086)" fill="#363e44"/>
      <path id="Trazado_741266" data-name="Trazado 741266" d="M36.982,932.887h0c25.057,19.222,43.2,32.38,48.647,36.665a12.749,12.749,0,0,1,2.566,2.576c3.654,4.966,1.128,9.565,2.59,16.539,1.656,7.914,7.068,11.432,5.795,13.058-.886,1.131-3.3.378-7.267-2.825,2.734,2.781,6.277,6.713,4.735,8.219-1.872,1.644-6.576-2.491-9.3-5.126,3.3,3.194,4.095,5.878,3.027,6.5-1.682.985-4.815-.9-9.01-5.287,2.049,3.841,1.974,5.081.9,5.4-1.971.59-5.351-3.088-7.841-6.791a25.775,25.775,0,0,1-3.926-11.045C48.948,979.13,36.5,971.325,21,962.233c-3.171-1.861,7.432-21.261,15.979-29.346" transform="translate(-16.076 -734.134)" fill="#bc8271"/>
      <path id="Trazado_741267" data-name="Trazado 741267" d="M131.547,959.768a.473.473,0,0,1-.286-.1c-7.6-5.694-14.646-11.023-21.53-16.291a.477.477,0,1,1,.58-.757c6.886,5.266,13.926,10.593,21.52,16.286a.476.476,0,0,1-.286.858" transform="translate(-86.205 -741.717)" fill="#363e44"/>
      <path id="Trazado_741268" data-name="Trazado 741268" d="M330.624,1220.232a.48.48,0,0,1-.35-.153,12.64,12.64,0,0,1-3.045-5.786.477.477,0,0,1,.918-.261.449.449,0,0,1,.011.051,11.688,11.688,0,0,0,2.816,5.348.478.478,0,0,1-.35.8" transform="translate(-257.499 -955.108)" fill="#363e44"/>
      <path id="Trazado_741269" data-name="Trazado 741269" d="M306.735,1233.366a.474.474,0,0,1-.314-.117,14.417,14.417,0,0,1-4.179-6.25.477.477,0,0,1,.9-.3,13.449,13.449,0,0,0,3.9,5.836.477.477,0,0,1-.314.836" transform="translate(-237.835 -965.104)" fill="#363e44"/>
      <path id="Trazado_741270" data-name="Trazado 741270" d="M279.966,1235.155a.474.474,0,0,1-.361-.165,15.421,15.421,0,0,1-3.5-7.2.477.477,0,0,1,.929-.22c0,.013.006.027.008.041a14.469,14.469,0,0,0,3.282,6.759.476.476,0,0,1-.36.789" transform="translate(-217.272 -965.743)" fill="#363e44"/>
      <rect id="Rectángulo_345651" data-name="Rectángulo 345651" width="90.807" height="86.038" transform="translate(204.579 299.383)" fill="#ff6e33"/>
      <path id="Trazado_741271" data-name="Trazado 741271" d="M1004.94,1298q-.053,1.682-.055,3.387c0,34.036,16.07,61.626,35.893,61.626s35.892-27.59,35.892-61.626q0-1.7-.055-3.387Z" transform="translate(-790.794 -1021.462)" fill="#efbc73"/>
      <path id="Trazado_741272" data-name="Trazado 741272" d="M1138.7,1583.185c0,3.834-5.761,6.941-12.867,6.941s-12.866-3.107-12.866-6.941,5.761-6.941,12.866-6.941,12.867,3.108,12.867,6.941" transform="translate(-875.846 -1240.423)" fill="#efbc73"/>
      <path id="Trazado_741273" data-name="Trazado 741273" d="M1140.078,1579.231c4.975,0,9.008,7.473,9.008,16.7s-4.033,16.7-9.008,16.7-9.008-7.473-9.008-16.7,4.033-16.7,9.008-16.7" transform="translate(-890.095 -1242.774)" fill="#efbc73"/>
      <path id="Trazado_741274" data-name="Trazado 741274" d="M1106.187,1730.752c-.323-5.657-11.358-10.2-24.933-10.2s-24.609,4.545-24.933,10.2Z" transform="translate(-831.271 -1353.985)" fill="#efbc73"/>
      <path id="Trazado_741275" data-name="Trazado 741275" d="M969.3,1360.693h-5.394a33.383,33.383,0,0,1-33.345-33.345v-15.213a.476.476,0,0,1,.475-.477H969.3a.476.476,0,0,1,.477.475v48.083a.477.477,0,0,1-.475.478h0m-37.785-48.082v14.737a32.427,32.427,0,0,0,32.39,32.392h4.917v-47.126Z" transform="translate(-732.305 -1032.208)" fill="#efbc73"/>
      <path id="Trazado_741276" data-name="Trazado 741276" d="M1236.461,1360.692h-5.394a.476.476,0,0,1-.477-.475v-48.083a.476.476,0,0,1,.475-.478h38.261a.477.477,0,0,1,.478.476v15.215a33.383,33.383,0,0,1-33.345,33.345m-4.917-.953h4.917a32.428,32.428,0,0,0,32.392-32.391v-14.737h-37.309Z" transform="translate(-968.412 -1032.207)" fill="#efbc73"/>
      <path id="Trazado_741277" data-name="Trazado 741277" d="M1222.369,1375.692a.477.477,0,0,1-.33-.821,60.077,60.077,0,0,0,14.2-22.158c3.824-10.155,3.917-15.287,4.071-23.787l.036-1.893a.477.477,0,0,1,.954.02l-.036,1.886c-.152,8.308-.251,13.8-4.133,24.106a61.067,61.067,0,0,1-14.432,22.517.473.473,0,0,1-.33.132" transform="translate(-961.568 -1043.955)" fill="#f7f1eb"/>
      <rect id="Rectángulo_345652" data-name="Rectángulo 345652" width="92.686" height="70.891" transform="translate(284.433 150.742)" fill="#e6d0be"/>
      <rect id="Rectángulo_345653" data-name="Rectángulo 345653" width="92.686" height="16.411" transform="translate(284.433 236.62)" fill="#f7f1eb"/>
      <path id="Trazado_741278" data-name="Trazado 741278" d="M1375.14,1125l4.031.51-2.856,2.89.76,3.991-3.63-1.824-3.561,1.957.613-4.016-2.961-2.782,4.009-.659,1.73-3.675Z" transform="translate(-1076.181 -882.474)" fill="#ff6e33"/>
      <path id="Trazado_741279" data-name="Trazado 741279" d="M1454,1125l4.031.51-2.856,2.89.76,3.991-3.631-1.824-3.561,1.957.613-4.016-2.961-2.782,4.009-.659,1.731-3.675Z" transform="translate(-1138.244 -882.474)" fill="#ff6e33"/>
      <path id="Trazado_741280" data-name="Trazado 741280" d="M1532.873,1125l4.031.51-2.856,2.89.76,3.991-3.63-1.824-3.561,1.957.613-4.016-2.961-2.782,4.009-.659,1.73-3.675Z" transform="translate(-1200.309 -882.474)" fill="#ff6e33"/>
      <path id="Trazado_741281" data-name="Trazado 741281" d="M1605.693,1131.953a.216.216,0,0,1-.216-.217.179.179,0,0,1,0-.032l.6-3.9-2.878-2.7a.216.216,0,0,1,.114-.371l3.9-.64,1.683-3.573a.216.216,0,0,1,.387-.007l1.813,3.509,3.918.5a.216.216,0,0,1,.188.242.214.214,0,0,1-.061.125l-2.777,2.809.739,3.88a.216.216,0,0,1-.31.233l-3.529-1.773-3.461,1.9a.22.22,0,0,1-.1.027m-1.881-6.875,2.642,2.482a.217.217,0,0,1,.065.19l-.547,3.587,3.177-1.746a.214.214,0,0,1,.2,0l3.239,1.628-.679-3.561a.216.216,0,0,1,.059-.192l2.549-2.578-3.6-.456a.216.216,0,0,1-.166-.115l-1.664-3.22-1.544,3.28a.215.215,0,0,1-.16.122Z" transform="translate(-1261.583 -881.688)" fill="#ff6e33"/>
      <path id="Trazado_741282" data-name="Trazado 741282" d="M1684.561,1131.953a.216.216,0,0,1-.216-.217.239.239,0,0,1,0-.032l.6-3.9-2.878-2.7a.216.216,0,0,1,.113-.371l3.9-.64,1.683-3.573a.216.216,0,0,1,.288-.1.219.219,0,0,1,.1.1l1.812,3.509,3.918.5a.216.216,0,0,1,.188.242.214.214,0,0,1-.061.125l-2.777,2.809.739,3.88a.216.216,0,0,1-.31.233l-3.529-1.773-3.461,1.9a.223.223,0,0,1-.1.027m-1.881-6.875,2.642,2.482a.219.219,0,0,1,.066.19l-.547,3.587,3.177-1.746a.214.214,0,0,1,.2,0l3.239,1.628-.679-3.561a.215.215,0,0,1,.059-.192l2.548-2.578-3.6-.456a.216.216,0,0,1-.166-.115l-1.664-3.22-1.544,3.28a.217.217,0,0,1-.16.122Z" transform="translate(-1323.649 -881.688)" fill="#ff6e33"/>
      <path id="Trazado_741283" data-name="Trazado 741283" d="M1427.613,1023.239h-92.687v-15.664l47.178-8.543,45.508,8.543Z" transform="translate(-1050.52 -786.187)" fill="#363e44"/>
      <rect id="Rectángulo_345654" data-name="Rectángulo 345654" width="33.58" height="26.225" transform="translate(312.07 162.842) rotate(-5.853)" fill="#363e44"/>
      <path id="Trazado_741284" data-name="Trazado 741284" d="M1514.952,951.6h0c5.611-.579,10.017-5.963,10.262-12.54l.762-20.442-22.233-.837-.749,20.464c-.285,7.79,5.312,14.042,11.956,13.351" transform="translate(-1182.772 -722.251)" fill="#e2a18d"/>
      <path id="Trazado_741285" data-name="Trazado 741285" d="M1473.854,801.421c.519,9.285,6.165,23.713,18.151,23.039s15.991-15.633,15.472-24.918-8.52-13.948-17.8-13.434-16.34,6.028-15.818,15.313" transform="translate(-1159.828 -618.597)" fill="#e2a18d"/>
      <path id="Trazado_741286" data-name="Trazado 741286" d="M1613.329,849.036c-1.4,3.686-.533,7.427,1.924,8.356s5.58-1.3,6.975-4.99.533-7.427-1.924-8.356-5.58,1.3-6.975,4.99" transform="translate(-1269.083 -664.055)" fill="#e2a18d"/>
      <path id="Trazado_741287" data-name="Trazado 741287" d="M1456.982,858.349c1.793,3.507,1.357,7.321-.981,8.519s-5.69-.674-7.485-4.184-1.357-7.321.981-8.519,5.69.675,7.486,4.185" transform="translate(-1139.039 -671.899)" fill="#e2a18d"/>
      <path id="Trazado_741288" data-name="Trazado 741288" d="M1460.734,874.834a.214.214,0,0,1-.1-.028,5.505,5.505,0,0,1-2.585-5.044,2.43,2.43,0,0,1,1.215-1.993,1.94,1.94,0,0,1,.44-.162.216.216,0,0,1,.1.42,1.538,1.538,0,0,0-.344.127,2.015,2.015,0,0,0-.982,1.658,5.075,5.075,0,0,0,2.365,4.618.216.216,0,0,1-.105.406" transform="translate(-1147.398 -682.759)" fill="#363e44"/>
      <path id="Trazado_741289" data-name="Trazado 741289" d="M1638.6,865.15a.216.216,0,0,1-.126-.392,4.716,4.716,0,0,0,1.585-2.174c.708-1.868.3-3.759-.909-4.217a1.508,1.508,0,0,0-.355-.087.216.216,0,0,1,.052-.43,1.97,1.97,0,0,1,.457.113c1.432.542,1.952,2.683,1.161,4.774a5.152,5.152,0,0,1-1.738,2.372.217.217,0,0,1-.125.041" transform="translate(-1289.329 -675.083)" fill="#363e44"/>
      <path id="Trazado_741290" data-name="Trazado 741290" d="M1475.762,873.735a.217.217,0,0,1-.2-.142,35.322,35.322,0,0,1-1.868-7.813.216.216,0,1,1,.429-.051,34.886,34.886,0,0,0,1.844,7.717.216.216,0,0,1-.13.277.2.2,0,0,1-.074.013" transform="translate(-1159.723 -681.134)" fill="#363e44"/>
      <path id="Trazado_741291" data-name="Trazado 741291" d="M1625.508,863.424a.216.216,0,0,1-.217-.216.207.207,0,0,1,.008-.057,34.886,34.886,0,0,0,1.2-9.456.216.216,0,0,1,.212-.22h0a.21.21,0,0,1,.22.2.1.1,0,0,1,0,.012,35.324,35.324,0,0,1-1.214,9.577.216.216,0,0,1-.208.159" transform="translate(-1279.022 -671.641)" fill="#363e44"/>
      <path id="Trazado_741292" data-name="Trazado 741292" d="M1516.739,943.591c-4.29,0-7.877-2.63-10.561-4.971a.216.216,0,0,1,.274-.334l.01.009c2.769,2.416,6.516,5.149,10.974,4.839s7.746-3.35,10.39-6.284a.217.217,0,0,1,.322.29c-2.543,2.823-6.057,6.1-10.682,6.425q-.368.026-.729.025" transform="translate(-1185.224 -737.196)" fill="#363e44"/>
      <path id="Trazado_741293" data-name="Trazado 741293" d="M1548.333,884.5a.213.213,0,0,1-.092-.02c-.871-.406-1.375-.906-1.495-1.488a1.944,1.944,0,0,1,.335-1.358,5.265,5.265,0,0,0,.471-1.14,4.414,4.414,0,0,0-.01-2.179.216.216,0,0,1,.42-.1,4.83,4.83,0,0,1,.008,2.391,5.6,5.6,0,0,1-.506,1.229,1.59,1.59,0,0,0-.3,1.068c.094.441.516.84,1.257,1.186a.216.216,0,0,1-.091.413" transform="translate(-1217.199 -690.989)" fill="#363e44"/>
      <path id="Trazado_741294" data-name="Trazado 741294" d="M1558.333,913.9h-.127a.216.216,0,1,1,0-.432h.02a2.7,2.7,0,0,0,2.217-1.1,2.411,2.411,0,0,0,.5-1.41.216.216,0,0,1,.432,0,2.848,2.848,0,0,1-.586,1.666,3.176,3.176,0,0,1-2.459,1.271" transform="translate(-1226.06 -716.716)" fill="#363e44"/>
      <path id="Trazado_741295" data-name="Trazado 741295" d="M1460.5,760.551a4.959,4.959,0,1,1-2.871-6.4h0a4.959,4.959,0,0,1,2.87,6.4h0" transform="translate(-1141.788 -593.223)" fill="#363e44"/>
      <path id="Trazado_741296" data-name="Trazado 741296" d="M1599.993,750.033a6.054,6.054,0,1,1-3.5-7.812,6.054,6.054,0,0,1,3.5,7.812h0" transform="translate(-1249.897 -583.777)" fill="#363e44"/>
      <path id="Trazado_741297" data-name="Trazado 741297" d="M1469.538,727.993a6.054,6.054,0,1,1-3.5-7.812,6.054,6.054,0,0,1,3.5,7.812h0" transform="translate(-1147.235 -566.433)" fill="#363e44"/>
      <path id="Trazado_741298" data-name="Trazado 741298" d="M1583.4,729.778a3.816,3.816,0,1,1-2.209-4.924,3.816,3.816,0,0,1,2.209,4.924Z" transform="translate(-1240.248 -570.226)" fill="#363e44"/>
      <path id="Trazado_741299" data-name="Trazado 741299" d="M1541.57,725.056a6.054,6.054,0,1,1-3.5-7.812,6.054,6.054,0,0,1,3.5,7.812h0" transform="translate(-1203.922 -564.121)" fill="#363e44"/>
      <path id="Trazado_741300" data-name="Trazado 741300" d="M1522.345,766.672a6.054,6.054,0,1,1-3.5-7.812,6.054,6.054,0,0,1,3.5,7.812h0" transform="translate(-1188.792 -596.871)" fill="#363e44"/>
      <path id="Trazado_741301" data-name="Trazado 741301" d="M1503.867,713.207a6.054,6.054,0,1,1-3.5-7.812,6.054,6.054,0,0,1,3.5,7.812h0" transform="translate(-1174.251 -554.796)" fill="#363e44"/>
      <path id="Trazado_741302" data-name="Trazado 741302" d="M1496.247,796a3.816,3.816,0,1,1-2.209-4.924,3.816,3.816,0,0,1,2.209,4.924" transform="translate(-1171.661 -622.341)" fill="#363e44"/>
      <path id="Trazado_741303" data-name="Trazado 741303" d="M1576.592,850.634h-.046c-.017.1-.071.22-.169.225a2.879,2.879,0,0,0-.213.539c-.123.282-.552.074-.43-.208.083-.189-.535.209-.809.34-.875.418-1.764.8-2.668,1.145-.421.163-.843.33-1.271.479a11.305,11.305,0,0,1-1.563.526,11.814,11.814,0,0,0-1.661,2.238,12.173,12.173,0,0,0,3.936.562c0-.03.009-.059.011-.089.028-.3,4.963-1.877,5.116-1.665a12.161,12.161,0,0,0,3.1-3.532,12.079,12.079,0,0,0-3.331-.561" transform="translate(-1233.75 -669.405)" fill="#fff"/>
      <path id="Trazado_741304" data-name="Trazado 741304" d="M1579.08,851.192a9.712,9.712,0,0,0-3.506,2.465,3.938,3.938,0,0,0,2.205,2.8,9.1,9.1,0,0,0,3.123-.582,8.63,8.63,0,0,0,2.039-1.151,3.955,3.955,0,0,0-.246-4.117,9.354,9.354,0,0,0-3.615.579" transform="translate(-1239.897 -669.383)" fill="#363e44"/>
      <path id="Trazado_741305" data-name="Trazado 741305" d="M1481.824,861.28h0l.045-.008c.031.093.1.207.2.2a2.912,2.912,0,0,1,.3.5c.165.259.556-.014.391-.272-.11-.174.561.124.853.21.929.276,1.867.51,2.813.715.441.1.884.2,1.329.275a11.366,11.366,0,0,0,1.626.276,11.831,11.831,0,0,1,1.993,1.952,12.175,12.175,0,0,1-3.8,1.168c-.009-.029-.018-.057-.025-.087-.074-.289-5.195-1.081-5.313-.847a12.142,12.142,0,0,1-3.61-3.006,12.078,12.078,0,0,1,3.2-1.073" transform="translate(-1163.604 -677.777)" fill="#fff"/>
      <path id="Trazado_741306" data-name="Trazado 741306" d="M1496.057,860.649a9.711,9.711,0,0,1,3.847,1.893,3.939,3.939,0,0,1-1.741,3.114,9.107,9.107,0,0,1-3.175-.089,8.665,8.665,0,0,1-2.192-.818,3.957,3.957,0,0,1-.4-4.1,9.354,9.354,0,0,1,3.661.009" transform="translate(-1174.13 -677.144)" fill="#363e44"/>
      <rect id="Rectángulo_345655" data-name="Rectángulo 345655" width="92.686" height="66.5" transform="translate(257.234 34.754)" fill="#fff"/>
      <path id="Trazado_741307" data-name="Trazado 741307" d="M1300.071,455.965h-92.686V436.437l45.446-8.544,47.241,8.544Z" transform="translate(-950.151 -336.73)" fill="#efbc73"/>
      <path id="Trazado_741308" data-name="Trazado 741308" d="M1466.13,325.677a7.611,7.611,0,1,1-7.612-7.61h0a7.611,7.611,0,0,1,7.611,7.61" transform="translate(-1141.792 -250.302)" fill="#363e44"/>
      <path id="Trazado_741309" data-name="Trazado 741309" d="M1475.549,365.717a7.611,7.611,0,1,1-7.611-7.611A7.611,7.611,0,0,1,1475.549,365.717Z" transform="translate(-1149.204 -281.811)" fill="#363e44"/>
      <path id="Trazado_741310" data-name="Trazado 741310" d="M1348.193,192.641a11.507,11.507,0,0,1,10.738-1.206c7.513,3.089,11.943,12.68,10.338,24.588l-35.461.67c-1.673-7.527-2.4-15.32,1.505-20.239,5.051-6.357,12.085-3.779,12.879-3.812" transform="translate(-1048.577 -150.014)" fill="#363e44"/>
      <path id="Trazado_741311" data-name="Trazado 741311" d="M1382.377,361.192h0a8.989,8.989,0,0,0,9.565-8.369l1.6-24.077-17.934-1.2-1.6,24.077a8.987,8.987,0,0,0,8.369,9.565" transform="translate(-1081.26 -257.765)" fill="#bc8271"/>
      <path id="Trazado_741312" data-name="Trazado 741312" d="M1348.163,242.124c.2,9.764,7.108,17.544,15.42,17.371s14.885-8.232,14.682-18-7.108-16.774-15.42-16.6-14.886,7.461-14.682,17.228" transform="translate(-1060.932 -176.978)" fill="#bc8271"/>
      <path id="Trazado_741313" data-name="Trazado 741313" d="M1473.386,277.336c-1.815,2.857-1.315,6.425,1.116,7.971s5.878.481,7.69-2.376,1.315-6.426-1.116-7.97-5.878-.481-7.689,2.376" transform="translate(-1158.621 -215.821)" fill="#bc8271"/>
      <path id="Trazado_741314" data-name="Trazado 741314" d="M1324.26,280.568c1.933,2.779,1.583,6.366-.782,8.01s-5.85.725-7.782-2.053-1.583-6.366.782-8.01,5.849-.725,7.782,2.053" transform="translate(-1034.403 -218.534)" fill="#bc8271"/>
      <path id="Trazado_741315" data-name="Trazado 741315" d="M1387.24,373.719a13.727,13.727,0,0,1-8.591-3.089.216.216,0,1,1,.269-.339,13.052,13.052,0,0,0,17.186-.475.216.216,0,1,1,.287.324,13.715,13.715,0,0,1-8.873,3.577h-.278" transform="translate(-1084.863 -290.983)" fill="#363e44"/>
      <path id="Trazado_741316" data-name="Trazado 741316" d="M1348.27,314.743a.216.216,0,0,1-.209-.162,20.707,20.707,0,0,1-.576-3.417.216.216,0,0,1,.429-.057c0,.007,0,.014,0,.021a20.307,20.307,0,0,0,.563,3.345.215.215,0,0,1-.155.263.2.2,0,0,1-.054.007" transform="translate(-1060.402 -244.678)" fill="#363e44"/>
      <path id="Trazado_741317" data-name="Trazado 741317" d="M1486.67,309.566a.2.2,0,0,1-.211-.256h0a20.377,20.377,0,0,0,.423-3.886.216.216,0,0,1,.433.006,20.817,20.817,0,0,1-.434,3.969.216.216,0,0,1-.211.172" transform="translate(-1169.765 -240.185)" fill="#363e44"/>
      <path id="Trazado_741318" data-name="Trazado 741318" d="M1411.992,315a.219.219,0,0,1-.12-.036,1.751,1.751,0,0,1-.912-1.228,1.526,1.526,0,0,1,.32-.968,2.188,2.188,0,0,0,.372-.9,2.027,2.027,0,0,0-.172-1.077.217.217,0,0,1,.4-.171,2.445,2.445,0,0,1,.2,1.306,2.622,2.622,0,0,1-.431,1.069,1.147,1.147,0,0,0-.257.7,1.365,1.365,0,0,0,.719.906.216.216,0,0,1-.12.4" transform="translate(-1110.355 -244.341)" fill="#363e44"/>
      <path id="Trazado_741319" data-name="Trazado 741319" d="M1425.627,337.019h-.027a.216.216,0,0,1,0-.432h.025a3.943,3.943,0,0,0,2.354-.772,3.857,3.857,0,0,0,1.127-1.366.217.217,0,0,1,.388.192,4.291,4.291,0,0,1-1.256,1.519,4.375,4.375,0,0,1-2.613.859" transform="translate(-1121.707 -263.099)" fill="#363e44"/>
      <path id="Trazado_741320" data-name="Trazado 741320" d="M1349.083,288.221a12.07,12.07,0,0,1-4.807-1.1,11.423,11.423,0,0,1-4.646-3.579,3.7,3.7,0,0,1,2.812-6.343,11.424,11.424,0,0,1,5.771,1.039c4.093,1.814,6.54,5.281,5.455,7.732a4.2,4.2,0,0,1-3.62,2.192,8.551,8.551,0,0,1-.965.054m-5.679-10.635a8.166,8.166,0,0,0-.919.051,3.274,3.274,0,0,0-2.508,5.66,11.955,11.955,0,0,0,10.018,4.441,3.793,3.793,0,0,0,3.273-1.936c.988-2.231-1.36-5.443-5.235-7.161a11.636,11.636,0,0,0-4.629-1.055" transform="translate(-1053.336 -218.115)" fill="#363e44"/>
      <path id="Trazado_741321" data-name="Trazado 741321" d="M1428.57,286.4c-2.186,0-3.948-.773-4.6-2.235-1.085-2.449,1.361-5.917,5.455-7.731s8.306-1.3,9.391,1.151-1.362,5.917-5.455,7.731a12.033,12.033,0,0,1-4.8,1.084m-4.2-2.41c.988,2.231,4.945,2.648,8.821.931s6.223-4.93,5.235-7.161-4.946-2.648-8.822-.931-6.223,4.93-5.234,7.161" transform="translate(-1120.394 -216.683)" fill="#363e44"/>
      <path id="Trazado_741322" data-name="Trazado 741322" d="M1412.021,310.193h-3a.216.216,0,0,1,0-.432h3a.216.216,0,0,1,0,.432" transform="translate(-1108.657 -243.766)" fill="#363e44"/>
      <path id="Trazado_741323" data-name="Trazado 741323" d="M1489.188,407.884a6.511,6.511,0,1,1-6.511-6.511A6.511,6.511,0,0,1,1489.188,407.884Z" transform="translate(-1161.668 -315.86)" fill="#363e44"/>
      <path id="Trazado_741324" data-name="Trazado 741324" d="M1501.573,447.593a5.324,5.324,0,1,1-5.324-5.324,5.324,5.324,0,0,1,5.324,5.324" transform="translate(-1173.283 -348.043)" fill="#363e44"/>
      <path id="Trazado_741325" data-name="Trazado 741325" d="M1481.89,462.691l-10.116,17.521h20.232Z" transform="translate(-1158.212 -364.114)" fill="#363e44"/>
      <path id="Trazado_741326" data-name="Trazado 741326" d="M1439.919,291.373h-.04c-.021.082-.076.186-.162.183a2.509,2.509,0,0,0-.22.453c-.125.235-.482.026-.358-.208.083-.158-.477.144-.723.24q-1.176.448-2.384.811c-.375.113-.751.229-1.131.329a9.754,9.754,0,0,1-1.387.35,10.278,10.278,0,0,0-1.587,1.823,10.559,10.559,0,0,0,3.366.75c.005-.026.011-.051.016-.077a16.085,16.085,0,0,1,4.536-1.1,10.528,10.528,0,0,0,2.916-2.845,10.463,10.463,0,0,0-2.842-.709" transform="translate(-1126.854 -229.295)" fill="#fff"/>
      <path id="Trazado_741327" data-name="Trazado 741327" d="M1442.593,291.414a8.424,8.424,0,0,0-3.2,1.893,3.419,3.419,0,0,0,1.718,2.574,7.9,7.9,0,0,0,2.739-.293,7.508,7.508,0,0,0,1.842-.857,3.433,3.433,0,0,0,.064-3.577,8.128,8.128,0,0,0-3.166.257" transform="translate(-1132.731 -229.079)" fill="#363e44"/>
      <path id="Trazado_741328" data-name="Trazado 741328" d="M1358.3,292.814h.04c.021.082.076.186.163.183a2.5,2.5,0,0,1,.22.451c.125.235.482.026.356-.209-.084-.159.478.144.724.239q1.178.448,2.385.808c.376.113.751.228,1.131.328a9.854,9.854,0,0,0,1.388.349,10.237,10.237,0,0,1,1.594,1.821,10.556,10.556,0,0,1-3.365.754c0-.025-.011-.051-.016-.076a16.088,16.088,0,0,0-4.539-1.09,10.54,10.54,0,0,1-2.919-2.842,10.47,10.47,0,0,1,2.842-.712" transform="translate(-1066.684 -230.429)" fill="#fff"/>
      <path id="Trazado_741329" data-name="Trazado 741329" d="M1370.4,292.865a8.424,8.424,0,0,1,3.2,1.893,3.414,3.414,0,0,1-1.715,2.579,7.9,7.9,0,0,1-2.74-.29,7.53,7.53,0,0,1-1.842-.856,3.431,3.431,0,0,1-.068-3.577,8.114,8.114,0,0,1,3.166.254" transform="translate(-1075.574 -230.228)" fill="#363e44"/>
      <rect id="Rectángulo_345656" data-name="Rectángulo 345656" width="92.686" height="16.411" transform="translate(257.234 119.234)" fill="#f7f1eb"/>
      <path id="Trazado_741330" data-name="Trazado 741330" d="M1247.463,574.014l4.031.51-2.856,2.889.76,3.991-3.63-1.824-3.561,1.957.613-4.016-2.961-2.782,4.009-.659,1.73-3.677Z" transform="translate(-975.706 -448.878)" fill="#ff6e33"/>
      <path id="Trazado_741331" data-name="Trazado 741331" d="M1326.336,574.014l4.031.51-2.856,2.889.76,3.991-3.631-1.824-3.561,1.957.613-4.016-2.961-2.782,4.009-.659,1.731-3.677Z" transform="translate(-1037.775 -448.878)" fill="#ff6e33"/>
      <path id="Trazado_741332" data-name="Trazado 741332" d="M1405.2,574.014l4.031.51-2.856,2.889.76,3.991-3.63-1.824-3.561,1.957.613-4.016-2.961-2.782,4.009-.659,1.73-3.677Z" transform="translate(-1099.837 -448.878)" fill="#ff6e33"/>
      <path id="Trazado_741333" data-name="Trazado 741333" d="M1484.074,574.014l4.031.51-2.856,2.889.76,3.991-3.63-1.824-3.561,1.957.613-4.016-2.961-2.782,4.009-.659,1.731-3.677Z" transform="translate(-1161.907 -448.878)" fill="#ff6e33"/>
      <path id="Trazado_741334" data-name="Trazado 741334" d="M1562.942,574.014l4.031.51-2.856,2.889.76,3.991-3.631-1.824-3.561,1.957.613-4.016-2.961-2.782,4.009-.659,1.73-3.677Z" transform="translate(-1223.972 -448.878)" fill="#ff6e33"/>
    </g>
  </g>
</svg>
