<svg xmlns="http://www.w3.org/2000/svg" width="97" height="100" viewBox="0 0 97 100">
  <g id="Grupo_988469" data-name="Grupo 988469" transform="translate(-310 -4526)">
    <rect id="Rectángulo_345158" data-name="Rectángulo 345158" width="97" height="100" rx="15" transform="translate(310 4526)" fill="#ea526f"/>
    <g id="Grupo_988468" data-name="Grupo 988468" transform="translate(-251 204)">
      <g id="Grupo_988465" data-name="Grupo 988465" transform="translate(581 4358)">
        <path id="Trazado_741533" data-name="Trazado 741533" d="M344,128v24.779a2.967,2.967,0,0,1,0,4.443v1.2A5,5,0,0,1,347,163v1h.422a4.993,4.993,0,0,1,9.156,0H360V128Z" transform="translate(-302 -128)" fill="#dfdeed"/>
        <path id="Trazado_741534" data-name="Trazado 741534" d="M23,155a2.981,2.981,0,0,1,1-2.221V128H8v36h3.422a4.993,4.993,0,0,1,9.156,0H21v-1a5,5,0,0,1,3-4.578v-1.2A2.981,2.981,0,0,1,23,155Z" transform="translate(-8 -128)" fill="#dfdeed"/>
      </g>
      <path id="Trazado_741535" data-name="Trazado 741535" d="M136,8V47.778A3,3,0,1,1,138,53a5,5,0,0,1,5,5,6,6,0,0,1,12,0,5,5,0,0,1,5-5,3,3,0,1,1,2-5.221V8Z" transform="translate(461 4335)" fill="#92b1f9"/>
      <circle id="Elipse_5905" data-name="Elipse 5905" cx="4" cy="4" r="4" transform="translate(606 4379)" fill="#f73445"/>
      <g id="Grupo_988466" data-name="Grupo 988466" transform="translate(586 4385)">
        <circle id="Elipse_5906" data-name="Elipse 5906" cx="3" cy="3" r="3" fill="#fed966"/>
        <circle id="Elipse_5907" data-name="Elipse 5907" cx="3" cy="3" r="3" transform="translate(42)" fill="#fed966"/>
      </g>
      <path id="Trazado_741536" data-name="Trazado 741536" d="M198,360a6,6,0,0,1,6,6v8H192v-8A6,6,0,0,1,198,360Z" transform="translate(412 4027)" fill="#f73445"/>
      <g id="Grupo_988467" data-name="Grupo 988467" transform="translate(584 4347)">
        <path id="Trazado_741537" data-name="Trazado 741537" d="M37,392a5,5,0,0,1,5,5v5H32v-5A5,5,0,0,1,37,392Z" transform="translate(-32 -348)" fill="#fed966"/>
        <path id="Trazado_741538" data-name="Trazado 741538" d="M117,368a5,5,0,0,1,5,5v8H112v-8A5,5,0,0,1,117,368Z" transform="translate(-102 -327)" fill="#fed966"/>
        <circle id="Elipse_5908" data-name="Elipse 5908" cx="3" cy="3" r="3" transform="translate(12 35)" fill="#fed966"/>
        <path id="Trazado_741539" data-name="Trazado 741539" d="M373,392a5,5,0,0,1,5,5v5H368v-5A5,5,0,0,1,373,392Z" transform="translate(-326 -348)" fill="#fed966"/>
        <path id="Trazado_741540" data-name="Trazado 741540" d="M293,368a5,5,0,0,1,5,5v8H288v-8A5,5,0,0,1,293,368Z" transform="translate(-256 -327)" fill="#fed966"/>
        <circle id="Elipse_5909" data-name="Elipse 5909" cx="3" cy="3" r="3" transform="translate(34 35)" fill="#fed966"/>
        <path id="Trazado_741541" data-name="Trazado 741541" d="M192,40h12v8H192Z" transform="translate(-172 -40)" fill="#fed966"/>
      </g>
      <path id="Trazado_741542" data-name="Trazado 741542" d="M168,160h2v2h-2Z" transform="translate(433 4202)"/>
      <path id="Trazado_741543" data-name="Trazado 741543" d="M168,192h2v2h-2Z" transform="translate(433 4174)"/>
      <path id="Trazado_741544" data-name="Trazado 741544" d="M168,224h2v2h-2Z" transform="translate(433 4146)"/>
      <path id="Trazado_741545" data-name="Trazado 741545" d="M168,256h2v2h-2Z" transform="translate(433 4118)"/>
      <path id="Trazado_741546" data-name="Trazado 741546" d="M200,160h2v2h-2Z" transform="translate(405 4202)"/>
      <path id="Trazado_741547" data-name="Trazado 741547" d="M200,192h2v2h-2Z" transform="translate(405 4174)"/>
      <path id="Trazado_741548" data-name="Trazado 741548" d="M200,224h2v2h-2Z" transform="translate(405 4146)"/>
      <path id="Trazado_741549" data-name="Trazado 741549" d="M200,256h2v2h-2Z" transform="translate(405 4118)"/>
      <path id="Trazado_741550" data-name="Trazado 741550" d="M232,160h2v2h-2Z" transform="translate(377 4202)"/>
      <path id="Trazado_741551" data-name="Trazado 741551" d="M232,192h2v2h-2Z" transform="translate(377 4174)"/>
      <path id="Trazado_741552" data-name="Trazado 741552" d="M232,224h2v2h-2Z" transform="translate(377 4146)"/>
      <path id="Trazado_741553" data-name="Trazado 741553" d="M232,256h2v2h-2Z" transform="translate(377 4118)"/>
      <path id="Trazado_741554" data-name="Trazado 741554" d="M264,160h2v2h-2Z" transform="translate(349 4202)"/>
      <path id="Trazado_741555" data-name="Trazado 741555" d="M200,128h2v2h-2Z" transform="translate(405 4230)"/>
      <path id="Trazado_741556" data-name="Trazado 741556" d="M232,128h2v2h-2Z" transform="translate(377 4230)"/>
      <path id="Trazado_741557" data-name="Trazado 741557" d="M264,128h2v2h-2Z" transform="translate(349 4230)"/>
      <path id="Trazado_741558" data-name="Trazado 741558" d="M264,192h2v2h-2Z" transform="translate(349 4174)"/>
      <path id="Trazado_741559" data-name="Trazado 741559" d="M264,224h2v2h-2Z" transform="translate(349 4146)"/>
      <path id="Trazado_741560" data-name="Trazado 741560" d="M264,256h2v2h-2Z" transform="translate(349 4118)"/>
      <path id="Trazado_741561" data-name="Trazado 741561" d="M296,160h2v2h-2Z" transform="translate(321 4202)"/>
      <path id="Trazado_741562" data-name="Trazado 741562" d="M296,192h2v2h-2Z" transform="translate(321 4174)"/>
      <path id="Trazado_741563" data-name="Trazado 741563" d="M296,224h2v2h-2Z" transform="translate(321 4146)"/>
      <path id="Trazado_741564" data-name="Trazado 741564" d="M296,256h2v2h-2Z" transform="translate(321 4118)"/>
      <path id="Trazado_741565" data-name="Trazado 741565" d="M59,15H44V1a1,1,0,0,0-1-1H17a1,1,0,0,0-1,1h0V15H1a1,1,0,0,0-1,1H0V52a1,1,0,0,0,1,1H3.09A6,6,0,0,0,3,54v5a1,1,0,0,0,1,1H56a1,1,0,0,0,1-1h0V54a5.988,5.988,0,0,0-.09-1H59a1,1,0,0,0,1-1h0V16a1,1,0,0,0-1-1ZM43,43a2,2,0,1,1-2-2A2,2,0,0,1,43,43ZM19,41a2,2,0,1,1-2,2A2,2,0,0,1,19,41ZM13,58H5V54a4,4,0,1,1,8,0ZM7,46a2,2,0,1,1,2,2A2,2,0,0,1,7,46Zm6.151,3.678a6.028,6.028,0,0,0-1.258-.931,4,4,0,1,0-5.787,0A6.039,6.039,0,0,0,3.812,51H2V17H16V40.382a3.946,3.946,0,0,0,.107,5.365A6.017,6.017,0,0,0,13.151,49.678ZM23,58H15V51a4,4,0,0,1,8,0Zm12,0H25V51a5,5,0,0,1,10,0ZM27,41a3,3,0,1,1,3,3A3,3,0,0,1,27,41Zm9.09,6.562a7.044,7.044,0,0,0-2.869-2.77,5,5,0,1,0-6.442,0,7.043,7.043,0,0,0-2.869,2.77,6.04,6.04,0,0,0-2.016-1.815A3.971,3.971,0,0,0,18,39.142V2H42V39.142a3.982,3.982,0,0,0-3.894,6.6,6.04,6.04,0,0,0-2.016,1.815ZM45,54v4H37V51a4,4,0,0,1,8,0Zm10,4H47V54a4,4,0,0,1,8,0ZM49,46a2,2,0,1,1,2,2A2,2,0,0,1,49,46Zm9,5H56.188a6.038,6.038,0,0,0-2.295-2.253,4,4,0,1,0-5.787,0,6.025,6.025,0,0,0-1.258.931,6.017,6.017,0,0,0-2.955-3.931A3.946,3.946,0,0,0,44,40.382V17H58Z" transform="translate(580 4342)"/>
      <path id="Trazado_741566" data-name="Trazado 741566" d="M376,184h2v16h-2Z" transform="translate(251 4181)"/>
      <path id="Trazado_741567" data-name="Trazado 741567" d="M424,184h2v16h-2Z" transform="translate(209 4181)"/>
      <path id="Trazado_741568" data-name="Trazado 741568" d="M40,184h2v16H40Z" transform="translate(545 4181)"/>
      <path id="Trazado_741569" data-name="Trazado 741569" d="M88,184h2v16H88Z" transform="translate(503 4181)"/>
      <path id="Trazado_741570" data-name="Trazado 741570" d="M185,42h12a1,1,0,0,0,1-1h0V33a1,1,0,0,0-1-1H185a1,1,0,0,0-1,1h0v8a1,1,0,0,0,1,1Zm1-8h10v6H186Z" transform="translate(419 4314)"/>
    </g>
  </g>
</svg>
