<svg xmlns="http://www.w3.org/2000/svg" xmlns:xlink="http://www.w3.org/1999/xlink" width="85" height="92" viewBox="0 0 85 92">
  <defs>
    <clipPath id="clip-path">
      <path id="path6636" d="M0-682.665H66.665V-616H0Z" transform="translate(0 682.665)"/>
    </clipPath>
  </defs>
  <g id="Grupo_988198" data-name="Grupo 988198" transform="translate(-285 -3924)">
    <rect id="Rectángulo_338875" data-name="Rectángulo 338875" width="85" height="92" rx="10" transform="translate(285 3924)" fill="#ff6e33"/>
    <g id="g6630" transform="translate(294 4619.665)">
      <g id="g6632" transform="translate(0 -682.665)">
        <g id="g6634" clip-path="url(#clip-path)">
          <g id="g6640" transform="translate(11.128 0.977)">
            <path id="path6642" d="M0-104.431v32.247H30.773v-32.247a11.3,11.3,0,0,0-12.326-11.254l-2.155.2a9.988,9.988,0,0,1-1.811,0l-2.155-.2A11.3,11.3,0,0,0,0-104.431" transform="translate(0 115.733)" fill="#fdbd37"/>
          </g>
          <g id="g6644" transform="translate(26.666 0.977)">
            <path id="path6646" d="M-26.874-.439l-2.155.2c-.251.023-.5.034-.754.038A11.307,11.307,0,0,1-21,10.815V43.062h6.453V10.815A11.3,11.3,0,0,0-26.874-.439" transform="translate(29.783 0.487)" fill="#fa9a39"/>
          </g>
          <g id="g6648" transform="translate(3.555 29.291)">
            <path id="path6650" d="M-385.662-119.737h0a41.452,41.452,0,0,0-11.255-3.805,3.16,3.16,0,0,1-2.584-3.109V-132.7h-9.879v6.044a3.159,3.159,0,0,1-2.584,3.109,41.449,41.449,0,0,0-11.255,3.805h0a7.638,7.638,0,0,0-4.181,6.811v15.107a1.521,1.521,0,0,0,1.521,1.521h44.4v-16.628a7.638,7.638,0,0,0-4.181-6.811" transform="translate(427.399 132.696)" fill="#fed6a6"/>
          </g>
          <g id="g6652" transform="translate(25.038 29.291)">
            <path id="path6654" d="M-187.157-119.737h0a41.452,41.452,0,0,0-11.255-3.805A3.16,3.16,0,0,1-201-126.652V-132.7h-6.416v10.178a3.159,3.159,0,0,0,2.584,3.109,41.453,41.453,0,0,1,11.255,3.805,7.638,7.638,0,0,1,4.181,6.811V-96.3h6.416v-16.628a7.638,7.638,0,0,0-4.181-6.811" transform="translate(207.411 132.696)" fill="#efc79c"/>
          </g>
          <g id="g6656" transform="translate(3.555 37.559)">
            <path id="path6658" d="M-385.662-43.339h0a41.452,41.452,0,0,0-11.255-3.805,3.142,3.142,0,0,1-1.671-.885h0l-2.482,8.858a6.864,6.864,0,0,1-6.741,0l-2.482-8.858a3.144,3.144,0,0,1-1.671.885,41.45,41.45,0,0,0-11.255,3.805,7.638,7.638,0,0,0-4.181,6.811v15.107a1.521,1.521,0,0,0,1.521,1.521h44.4V-36.575a7.562,7.562,0,0,0-4.181-6.764" transform="translate(427.399 48.029)" fill="#51a1c8"/>
          </g>
          <g id="g6660" transform="translate(30.762 37.559)">
            <path id="path6662" d="M-134.264-43.339h0a41.452,41.452,0,0,0-11.255-3.805,3.142,3.142,0,0,1-1.671-.885h0l-1.6,5.726a41.454,41.454,0,0,1,8.115,3.1,7.638,7.638,0,0,1,4.181,6.811V-19.9h6.416V-36.528a7.638,7.638,0,0,0-4.181-6.811" transform="translate(148.794 48.029)" fill="#4497b7"/>
          </g>
          <g id="g6664" transform="translate(11.128 15.336)">
            <path id="path6666" d="M-42.082,0h-1.8a2.758,2.758,0,0,0-2.758,2.76V4.065a2.758,2.758,0,0,0,2.758,2.76h1.8Z" transform="translate(46.636)" fill="#fed6a6"/>
          </g>
          <g id="g6668" transform="translate(37.346 15.336)">
            <path id="path6670" d="M0,0H1.8A2.759,2.759,0,0,1,4.554,2.76V4.065A2.759,2.759,0,0,1,1.8,6.825H0Z" fill="#fed6a6"/>
          </g>
          <g id="g6672" transform="translate(14.878 8.63)">
            <path id="path6674" d="M-104.665-1.139A20.416,20.416,0,0,1-115.6,4a.451.451,0,0,0-.393.45l.036,9.354c0,7.712,8.1,11.343,11.6,11.418,3.5-.075,11.6-3.706,11.6-11.418l.036-9.354A.451.451,0,0,0-93.112,4a20.417,20.417,0,0,1-10.935-5.134.449.449,0,0,0-.618,0" transform="translate(115.992 1.262)" fill="#ffe3c2"/>
          </g>
          <g id="g6676" transform="translate(23.288 12.053)">
            <path id="path6678" d="M-133.7-16.953a21.085,21.085,0,0,1-6.079-1.835L-139.8-7.149c0,5.818-4.607,9.313-8.375,10.711a10.388,10.388,0,0,0,3.226.707c3.5-.075,11.6-3.706,11.6-11.418l.036-9.354a.452.452,0,0,0-.393-.45" transform="translate(148.172 18.788)" fill="#f7d6b5"/>
          </g>
          <g id="g6680" transform="translate(25.307 19.684)">
            <path id="path6682" d="M-7.761-5.045h-.855A1.386,1.386,0,0,1-10-6.43V-9.023A.977.977,0,0,1-9.023-10a.977.977,0,0,1,.977.977V-7h.286a.977.977,0,0,1,.977.977A.977.977,0,0,1-7.761-5.045Z" transform="translate(10 10)"/>
          </g>
          <g id="g6684" transform="translate(21.659 26.43)">
            <path id="path6686" d="M-5.146-6.164A5.518,5.518,0,0,1-9.85-8.5a.977.977,0,0,1,.3-1.347.977.977,0,0,1,1.347.3,3.616,3.616,0,0,0,3.054,1.43,3.616,3.616,0,0,0,3.054-1.43.977.977,0,0,1,1.347-.3A.977.977,0,0,1-.441-8.5,5.518,5.518,0,0,1-5.146-6.164Z" transform="translate(10.001 10.001)"/>
          </g>
          <g id="g6688" transform="translate(31.476 17.271)">
            <path id="path6690" d="M-9.023-6.865A.977.977,0,0,1-10-7.842V-9.023A.977.977,0,0,1-9.023-10a.977.977,0,0,1,.977.977v1.182A.977.977,0,0,1-9.023-6.865Z" transform="translate(10 10)"/>
          </g>
          <g id="g6692" transform="translate(19.599 17.271)">
            <path id="path6694" d="M-9.023-6.865A.977.977,0,0,1-10-7.842V-9.023A.977.977,0,0,1-9.023-10a.977.977,0,0,1,.977.977v1.182A.977.977,0,0,1-9.023-6.865Z" transform="translate(10 10)"/>
          </g>
          <g id="g6696" transform="translate(9.854 55.979)">
            <path id="path6698" d="M-9.023-88.74A.977.977,0,0,1-10-89.717V-98.45a.977.977,0,0,1,.977-.977.977.977,0,0,1,.977.977v8.733A.977.977,0,0,1-9.023-88.74Z" transform="translate(10 99.426)"/>
          </g>
          <g id="g6700" transform="translate(12.569 37.559)">
            <path id="path6702" d="M-128.858-193.015l-5.852-20.889a16.08,16.08,0,0,0-3.313.576,3.421,3.421,0,0,0-1.523.968l-3.147,3.576a.439.439,0,0,0,.177.7l4.712,1.746a.439.439,0,0,1,.219.646l-1.221,1.938a.439.439,0,0,0,.056.54Z" transform="translate(142.804 213.903)" fill="#3990b2"/>
          </g>
          <g id="g6704" transform="translate(26.514 37.559)">
            <path id="path6706" d="M0-193.015,5.852-213.9a16.081,16.081,0,0,1,3.313.576,3.42,3.42,0,0,1,1.523.968l3.147,3.576a.439.439,0,0,1-.177.7l-4.712,1.746a.439.439,0,0,0-.219.646l1.221,1.938a.439.439,0,0,1-.056.54Z" transform="translate(0 213.903)" fill="#3990b2"/>
          </g>
          <g id="g6708" transform="translate(23.143 46.418)">
            <path id="path6710" d="M0,0,3.371,12.03,6.741,0A6.863,6.863,0,0,1,0,0" fill="#fc6a58"/>
          </g>
          <g id="g6712" transform="translate(43.028 41.02)">
            <path id="path6714" d="M-95.076-47.847a.977.977,0,0,1-.977-.977v-2.868c0-.251-.288-.462-.628-.462h-6.1c-.34,0-.628.212-.628.462v2.868a.977.977,0,0,1-.977.977.977.977,0,0,1-.977-.977v-2.868a2.505,2.505,0,0,1,2.581-2.416h6.1A2.505,2.505,0,0,1-94.1-51.692v2.868A.977.977,0,0,1-95.076-47.847Z" transform="translate(105.365 54.108)"/>
          </g>
          <g id="g6716" transform="translate(34.211 46.304)">
            <path id="path6718" d="M-239.371,0h-22.912a2.994,2.994,0,0,0-2.994,2.994v13.4a2.994,2.994,0,0,0,2.994,2.994h22.912a2.994,2.994,0,0,0,2.994-2.994V2.994A2.994,2.994,0,0,0-239.371,0" transform="translate(265.277)" fill="#d08f61"/>
          </g>
          <g id="g6720" transform="translate(54.079 46.304)">
            <path id="path6722" d="M-55.786,0h-6.037a2.578,2.578,0,0,1,2.578,2.578V16.807a2.578,2.578,0,0,1-2.578,2.578h6.037a2.994,2.994,0,0,0,2.994-2.994V2.994A2.994,2.994,0,0,0-55.786,0" transform="translate(61.824)" fill="#c67f4f"/>
          </g>
          <g id="g6724" transform="translate(34.214 46.304)">
            <path id="path6726" d="M-266.975-27.087a2.992,2.992,0,0,0-2.991-2.931h-22.912a2.992,2.992,0,0,0-2.99,2.931,6.292,6.292,0,0,0,6.29,6.169h16.312a6.293,6.293,0,0,0,6.291-6.169" transform="translate(295.867 30.019)" fill="#8b5f46"/>
          </g>
          <g id="g6728" transform="translate(54.079 46.304)">
            <path id="path6730" d="M-83.42-27.087c0-.012,0-.026,0-.039a2.993,2.993,0,0,0-2.991-2.892h-6.037a2.578,2.578,0,0,1,2.578,2.578v6.523h.159a6.293,6.293,0,0,0,6.291-6.169" transform="translate(92.448 30.019)" fill="#844535"/>
          </g>
          <g id="g6732" transform="translate(45.525 53.824)">
            <path id="path6734" d="M-53.051-29.2h-5.212a.529.529,0,0,1-.529-.529v-2.1a.529.529,0,0,1,.529-.529h5.212a.529.529,0,0,1,.529.529v2.1a.529.529,0,0,1-.529.529" transform="translate(58.792 32.361)" fill="#e4ebf0"/>
          </g>
          <g id="g6736" transform="translate(19.685 32.665)">
            <path id="path6738" d="M-18.37-4.129a.973.973,0,0,1-.686-.281.977.977,0,0,1-.009-1.381,2.177,2.177,0,0,0,.631-1.538V-9.023A.977.977,0,0,1-17.457-10a.977.977,0,0,1,.977.977v1.694a4.118,4.118,0,0,1-1.194,2.91A.974.974,0,0,1-18.37-4.129Z" transform="translate(19.347 10)"/>
          </g>
          <g id="g6740" transform="translate(30.477 32.665)">
            <path id="path6742" d="M-18.152-44.54a4.119,4.119,0,0,1-1.194-2.91v-1.694a.977.977,0,0,1,.977-.977.977.977,0,0,1,.977.977v1.694a2.177,2.177,0,0,0,.631,1.538Z" transform="translate(19.347 50.12)"/>
          </g>
          <g id="g6744" transform="translate(11.592 36.583)">
            <path id="path6746" d="M-137.88-201.062a.976.976,0,0,1-.7-.3l-9.892-10.2a1.412,1.412,0,0,1-.181-1.741l.868-1.378-4.092-1.516a1.415,1.415,0,0,1-.881-.981,1.416,1.416,0,0,1,.309-1.282l3.147-3.577a4.388,4.388,0,0,1,1.956-1.252,16.944,16.944,0,0,1,3.554-.621.977.977,0,0,1,1,.711l5.852,20.889a.977.977,0,0,1-.454,1.11A.974.974,0,0,1-137.88-201.062Zm-8.9-11.55,6.918,7.131-4.594-16.4a12.879,12.879,0,0,0-2.293.456,2.439,2.439,0,0,0-1.09.684l-2.63,2.989,3.979,1.475a1.41,1.41,0,0,1,.849.873,1.41,1.41,0,0,1-.143,1.21Z" transform="translate(152.802 223.904)"/>
          </g>
          <g id="g6748" transform="translate(22.167 45.441)">
            <path id="path6750" d="M-9.024-10a.975.975,0,0,1,.479.126,5.9,5.9,0,0,0,2.891.759,5.9,5.9,0,0,0,2.891-.759.977.977,0,0,1,1.082.082A.977.977,0,0,1-1.343-8.76L-4.713,3.27a.977.977,0,0,1-.94.713.977.977,0,0,1-.94-.713L-9.964-8.76a.977.977,0,0,1,.338-1.032A.976.976,0,0,1-9.024-10Zm3.37,2.838a7.842,7.842,0,0,1-1.9-.234l1.9,6.784,1.9-6.784A7.841,7.841,0,0,1-5.653-7.162Z" transform="translate(10 10)"/>
          </g>
          <g id="g6752" transform="translate(25.537 36.583)">
            <path id="path6754" d="M-104.08-80.3a.974.974,0,0,1-.486-.13.977.977,0,0,1-.454-1.11l5.852-20.888a.977.977,0,0,1,1-.711,16.933,16.933,0,0,1,3.554.621,4.385,4.385,0,0,1,1.956,1.252l3.147,3.576a1.416,1.416,0,0,1,.31,1.282,1.416,1.416,0,0,1-.881.981l-4.092,1.516.2.322a.977.977,0,0,1-.305,1.347.977.977,0,0,1-1.347-.305l-.556-.882a1.411,1.411,0,0,1-.143-1.21,1.41,1.41,0,0,1,.849-.873l3.979-1.475-2.631-2.989a2.436,2.436,0,0,0-1.09-.683,12.838,12.838,0,0,0-2.293-.456l-4.594,16.4,5.018-5.172a.977.977,0,0,1,1.381-.021.977.977,0,0,1,.021,1.381l-7.7,7.934A.976.976,0,0,1-104.08-80.3Z" transform="translate(105.057 103.144)"/>
          </g>
          <g id="g6756" transform="translate(2.579 56.706)">
            <path id="path6758" d="M24.626-.041H-7.5a2.5,2.5,0,0,1-2.5-2.5V-9.023A.977.977,0,0,1-9.023-10a.977.977,0,0,1,.977.977v6.485a.545.545,0,0,0,.544.544H24.626a.977.977,0,0,1,.977.977A.977.977,0,0,1,24.626-.041Z" transform="translate(10 10)"/>
          </g>
          <g id="g6760" transform="translate(2.579 38.199)">
            <path id="path6762" d="M-134.01,5.911a.977.977,0,0,1-.977-.977V.859a8.575,8.575,0,0,1,4.715-7.681,42.532,42.532,0,0,1,8.214-3.146.977.977,0,0,1,1.2.69.977.977,0,0,1-.69,1.2,40.575,40.575,0,0,0-7.836,3,6.631,6.631,0,0,0-3.646,5.94V4.935A.977.977,0,0,1-134.01,5.911Z" transform="translate(134.986 10.002)"/>
          </g>
          <g id="g6764" transform="translate(36.291 38.199)">
            <path id="path6766" d="M-117.041-73.91a.977.977,0,0,1-.911-.624,6.653,6.653,0,0,0-3.2-3.536,40.574,40.574,0,0,0-7.836-3,.977.977,0,0,1-.69-1.2.977.977,0,0,1,1.2-.69,42.531,42.531,0,0,1,8.214,3.146,8.6,8.6,0,0,1,4.133,4.572.977.977,0,0,1-.558,1.263A.974.974,0,0,1-117.041-73.91Z" transform="translate(129.708 82.992)"/>
          </g>
          <g id="g6768" transform="translate(44.549 52.848)">
            <path id="path6770" d="M-62.074-37.248h-5.212a1.507,1.507,0,0,1-1.506-1.506v-2.1a1.507,1.507,0,0,1,1.506-1.506h5.212a1.507,1.507,0,0,1,1.506,1.506v2.1A1.507,1.507,0,0,1-62.074-37.248ZM-66.839-39.2h4.317v-1.207h-4.317Z" transform="translate(68.792 42.361)"/>
          </g>
          <g id="g6772" transform="translate(33.238 45.327)">
            <path id="path6774" d="M-271.276-10h22.912A3.99,3.99,0,0,1-244.4-6.112a7.313,7.313,0,0,1-7.267,7.166h-5.021a.977.977,0,0,1-.977-.977v-.6h-4.317v.6a.977.977,0,0,1-.977.977h-5.021a7.306,7.306,0,0,1-7.267-7.127A4,4,0,0,1-271.276-10Zm19.612,9.1a5.343,5.343,0,0,0,5.314-5.212,2.02,2.02,0,0,0-2.014-1.936h-22.912a2.027,2.027,0,0,0-2.014,1.975A5.336,5.336,0,0,0-267.976-.9h4.044V-.974a1.507,1.507,0,0,1,1.506-1.506h5.212a1.507,1.507,0,0,1,1.506,1.506V-.9Z" transform="translate(275.243 10)"/>
          </g>
          <g id="g6776" transform="translate(33.235 54.835)">
            <path id="path6778" d="M16.882,1.83H-6.03A3.975,3.975,0,0,1-10-2.14V-9.023A.977.977,0,0,1-9.023-10a.977.977,0,0,1,.977.977V-2.14A2.019,2.019,0,0,0-6.03-.123H16.882A2.019,2.019,0,0,0,18.9-2.14V-9.023A.977.977,0,0,1,19.875-10a.977.977,0,0,1,.977.977V-2.14A3.975,3.975,0,0,1,16.882,1.83Z" transform="translate(10 10)"/>
          </g>
          <g id="g6780" transform="translate(13.901 7.653)">
            <path id="path6782" d="M-113.379-11.262a1.419,1.419,0,0,1,.982.392A19.386,19.386,0,0,0-102.009-6a1.431,1.431,0,0,1,1.243,1.422L-100.8,4.78c0,7.958-8.174,12.3-12.556,12.391-4.424-.094-12.6-4.433-12.6-12.395l-.036-9.35A1.431,1.431,0,0,1-124.749-6a19.385,19.385,0,0,0,10.388-4.874A1.419,1.419,0,0,1-113.379-11.262Zm10.658,7.135a21.5,21.5,0,0,1-10.658-4.991,21.5,21.5,0,0,1-10.658,4.991l.034,8.9c0,7.179,7.615,10.381,10.645,10.446,2.988-.065,10.6-3.266,10.6-10.442Z" transform="translate(125.992 11.262)"/>
          </g>
          <g id="g6784" transform="translate(10.151 14.36)">
            <path id="path6786" d="M-43.683-1.222h-1.022A3.74,3.74,0,0,1-48.44-4.958V-6.264A3.74,3.74,0,0,1-44.705-10h1a.977.977,0,0,1,.977.977.977.977,0,0,1-.977.977h-1a1.784,1.784,0,0,0-1.782,1.783v1.305a1.784,1.784,0,0,0,1.782,1.783h1.022a.977.977,0,0,1,.977.977A.977.977,0,0,1-43.683-1.222Z" transform="translate(48.44 10)"/>
          </g>
          <g id="g6788" transform="translate(37.144 14.36)">
            <path id="path6790" d="M-8-71.11H-9.023A.977.977,0,0,1-10-72.086a.977.977,0,0,1,.977-.977H-8A1.784,1.784,0,0,0-6.22-74.846v-1.305A1.784,1.784,0,0,0-8-77.935H-9a.977.977,0,0,1-.977-.977A.977.977,0,0,1-9-79.888h1a3.74,3.74,0,0,1,3.735,3.736v1.305A3.74,3.74,0,0,1-8-71.11Z" transform="translate(10 79.888)"/>
          </g>
          <g id="g6792" transform="translate(40.91 18.425)">
            <path id="path6794" d="M-8.832-204.858a.976.976,0,0,1-.367-.071,1,1,0,0,1-.61-1.082v-21.137a.977.977,0,0,1,.977-.977.977.977,0,0,1,.977.977v21.313a.977.977,0,0,1-.431.81A.976.976,0,0,1-8.832-204.858Z" transform="translate(9.822 228.125)"/>
          </g>
          <g id="g6796" transform="translate(10.151 0.001)">
            <path id="path6798" d="M-324.143-166.22a.977.977,0,0,1-.977-.977v-5.818a12.3,12.3,0,0,1,4-9.067,12.3,12.3,0,0,1,9.392-3.16l2.155.2a9.058,9.058,0,0,0,1.634,0l2.154-.2a12.3,12.3,0,0,1,9.392,3.16,12.3,12.3,0,0,1,4,9.067v5.817a.977.977,0,0,1-.977.977.977.977,0,0,1-.977-.977v-5.817a10.347,10.347,0,0,0-3.363-7.624,10.347,10.347,0,0,0-7.9-2.657l-2.155.2a11.017,11.017,0,0,1-1.988,0l-2.155-.2a10.347,10.347,0,0,0-7.9,2.657,10.347,10.347,0,0,0-3.363,7.624v5.818A.977.977,0,0,1-324.143-166.22Z" transform="translate(325.119 185.291)"/>
          </g>
          <g id="g6800" transform="translate(10.151 18.425)">
            <path id="path6802" d="M-9.023,13.269A.977.977,0,0,1-10,12.293V-9.023A.977.977,0,0,1-9.023-10a.977.977,0,0,1,.977.977V12.293A.977.977,0,0,1-9.023,13.269Z" transform="translate(10 10)"/>
          </g>
        </g>
      </g>
    </g>
  </g>
</svg>
