<svg xmlns="http://www.w3.org/2000/svg" xmlns:xlink="http://www.w3.org/1999/xlink" width="85" height="92" viewBox="0 0 85 92">
  <defs>
    <clipPath id="clip-path">
      <path id="path12288" d="M0-682.665H67v67H0Z" transform="translate(0 682.665)"/>
    </clipPath>
  </defs>
  <g id="Grupo_988199" data-name="Grupo 988199" transform="translate(-810 -4071)">
    <rect id="Rectángulo_338875" data-name="Rectángulo 338875" width="85" height="92" rx="10" transform="translate(810 4071)" fill="#ff6e33"/>
    <g id="g12282" transform="translate(819 4766.665)">
      <g id="g12284" transform="translate(0 -682.665)">
        <g id="g12286" clip-path="url(#clip-path)">
          <g id="g12292" transform="translate(7.066 3.271)">
            <path id="path12294" d="M-395.216-508.241h-42.355a.654.654,0,0,1-.654-.654v-54a.654.654,0,0,1,.654-.654h42.355a.654.654,0,0,1,.654.654v54a.654.654,0,0,1-.654.654" transform="translate(438.226 563.551)" fill="#a79ca7"/>
          </g>
          <g id="g12296" transform="translate(6.085 2.29)">
            <path id="path12298" d="M-404.235-516.278H-446.59a1.638,1.638,0,0,1-1.636-1.636v-54a1.638,1.638,0,0,1,1.636-1.636h42.355a1.638,1.638,0,0,1,1.636,1.636v54A1.638,1.638,0,0,1-404.235-516.278Zm-42.028-1.963h41.7v-53.347h-41.7Z" transform="translate(448.226 573.551)"/>
          </g>
          <g id="g12300" transform="translate(11.143 7.368)">
            <path id="path12302" d="M-395.217-508.241h-42.355a.654.654,0,0,1-.654-.654v-54a.654.654,0,0,1,.654-.654h42.355a.654.654,0,0,1,.654.654v54a.654.654,0,0,1-.654.654" transform="translate(438.227 563.551)" fill="#fff"/>
          </g>
          <g id="g12304" transform="translate(11.143 19.918)">
            <path id="path12306" d="M-50.32-386.9v-42.1H-55.8v42.1a.654.654,0,0,0,.654.654h5.476a.654.654,0,0,1-.654-.654" transform="translate(55.796 429.007)" fill="#f3f0f3"/>
          </g>
          <g id="g12308" transform="translate(10.162 6.387)">
            <path id="path12310" d="M-79.138,47.272h-42.355a1.638,1.638,0,0,1-1.636-1.636v-54A1.638,1.638,0,0,1-121.493-10h10.449a.981.981,0,0,1,.981.981.981.981,0,0,1-.981.981h-10.122V45.31h41.7V-8.037h-27a.981.981,0,0,1-.981-.981.981.981,0,0,1,.981-.981h27.327A1.638,1.638,0,0,1-77.5-8.364v54A1.638,1.638,0,0,1-79.138,47.272Z" transform="translate(123.129 10)"/>
          </g>
          <g id="g12312" transform="translate(59.331 27.742)">
            <path id="path12314" d="M0,0H3.953V7.447A3.272,3.272,0,0,1,3.742,8.6L2.221,12.631a.262.262,0,0,1-.49,0L.211,8.6A3.272,3.272,0,0,1,0,7.447Z" fill="#fff"/>
          </g>
          <g id="g12316" transform="translate(58.35 26.761)">
            <path id="path12318" d="M-9.019-10h3.953a.981.981,0,0,1,.981.981v7.447a4.239,4.239,0,0,1-.274,1.5L-5.879,3.959a1.233,1.233,0,0,1-1.163.8A1.234,1.234,0,0,1-8.2,3.96L-9.726-.069A4.239,4.239,0,0,1-10-1.571V-9.019A.981.981,0,0,1-9.019-10Zm2.972,1.963h-1.99v6.466a2.283,2.283,0,0,0,.148.809l.848,2.245.848-2.245a2.283,2.283,0,0,0,.148-.809Z" transform="translate(10 10)"/>
          </g>
          <g id="g12320" transform="translate(59.331 7.368)">
            <path id="path12322" d="M-36.325-242.49V-266.9a1.977,1.977,0,0,0-1.976-1.977,1.977,1.977,0,0,0-1.977,1.977v24.413Z" transform="translate(40.279 268.879)" fill="#fed402"/>
          </g>
          <g id="g12324" transform="translate(58.35 6.387)">
            <path id="path12326" d="M-45.344-113.241H-49.3a.981.981,0,0,1-.981-.981v-24.413a2.961,2.961,0,0,1,2.958-2.958,2.961,2.961,0,0,1,2.958,2.958V-127.7a.981.981,0,0,1-.981.981.981.981,0,0,1-.981-.981v-10.939a1,1,0,0,0-1-1,1,1,0,0,0-1,1V-115.2h1.99v-7.912a.981.981,0,0,1,.981-.981.981.981,0,0,1,.981.981v8.894A.981.981,0,0,1-45.344-113.241Z" transform="translate(50.279 141.593)"/>
          </g>
          <g id="g12328" transform="translate(42.146 46.508)">
            <path id="path12330" d="M-179.279-89.639a9.755,9.755,0,0,1-9.755,9.755,9.755,9.755,0,0,1-9.755-9.755,9.755,9.755,0,0,1,9.755-9.755,9.755,9.755,0,0,1,9.755,9.755" transform="translate(198.789 99.394)" fill="#00c27a"/>
          </g>
          <g id="g12332" transform="translate(42.146 46.508)">
            <path id="path12334" d="M-49.1-89.639a9.757,9.757,0,0,1,7.083-9.381,9.75,9.75,0,0,0-2.672-.374,9.755,9.755,0,0,0-9.755,9.755,9.755,9.755,0,0,0,9.755,9.755,9.751,9.751,0,0,0,2.672-.374A9.757,9.757,0,0,1-49.1-89.639" transform="translate(54.447 99.394)" fill="#09a755"/>
          </g>
          <g id="g12336" transform="translate(41.165 45.527)">
            <path id="path12338" d="M-194.422-61.316a10.749,10.749,0,0,1-10.736-10.736,10.749,10.749,0,0,1,10.736-10.736,10.764,10.764,0,0,1,10.344,7.863.981.981,0,0,1-.684,1.208.981.981,0,0,1-1.208-.684,8.8,8.8,0,0,0-8.453-6.425,8.784,8.784,0,0,0-8.774,8.774,8.784,8.784,0,0,0,8.774,8.774,8.8,8.8,0,0,0,8.595-7,.981.981,0,0,1,1.159-.764.981.981,0,0,1,.764,1.158A10.769,10.769,0,0,1-194.422-61.316Z" transform="translate(205.158 82.789)"/>
          </g>
          <g id="g12340" transform="translate(46.059 52.362)">
            <path id="path12342" d="M-5.325-25.782a.978.978,0,0,1-.694-.287l-3.694-3.694a.981.981,0,0,1,0-1.388.981.981,0,0,1,1.388,0l3,3L.009-33.484a.981.981,0,0,1,1.388,0,.981.981,0,0,1,0,1.388l-6.027,6.027A.978.978,0,0,1-5.325-25.782Z" transform="translate(10 33.772)"/>
          </g>
          <g id="g12344" transform="translate(3.716 0.981)">
            <path id="path12346" d="M-128.753-174.013h-13.357a.654.654,0,0,1-.654-.654V-192.3a.654.654,0,0,1,.654-.654h13.357a.654.654,0,0,1,.654.654v17.628a.654.654,0,0,1-.654.654" transform="translate(142.765 192.95)" fill="#d8ecfe"/>
          </g>
          <g id="g12348" transform="translate(3.716 0.981)">
            <path id="path12350" d="M-37.916-168v-17.628a.654.654,0,0,1,.654-.654h-4.126a.654.654,0,0,0-.654.654V-168a.654.654,0,0,0,.654.654h4.126a.654.654,0,0,1-.654-.654" transform="translate(42.043 186.284)" fill="#c4e2ff"/>
          </g>
          <g id="g12352" transform="translate(3.808 12.731)">
            <path id="path12354" d="M-5.166-66.046H8.192a.652.652,0,0,0,.562-.325c-.541-3.886-3.574-6.863-7.241-6.863s-6.7,2.977-7.241,6.863a.652.652,0,0,0,.562.325" transform="translate(5.728 73.233)" fill="#27a5fe"/>
          </g>
          <g id="g12356" transform="translate(3.808 12.913)">
            <path id="path12358" d="M-66.536-2.858a3.976,3.976,0,0,1-1.545-.311,7.818,7.818,0,0,0-5.7,6.68.652.652,0,0,0,.562.325h4.088a.652.652,0,0,1-.562-.325,7.9,7.9,0,0,1,5.2-6.542q-.245-.079-.5-.139a3.975,3.975,0,0,1-1.546.311" transform="translate(73.777 3.169)" fill="#0593fc"/>
          </g>
          <g id="g12360" transform="translate(2.734 0)">
            <path id="path12362" d="M-137.772-182.05h-13.357a1.638,1.638,0,0,1-1.636-1.636v-17.628a1.638,1.638,0,0,1,1.636-1.636h13.357a1.638,1.638,0,0,1,1.636,1.636v17.628A1.638,1.638,0,0,1-137.772-182.05Zm-13.03-1.963h12.7v-16.974h-12.7Z" transform="translate(152.765 202.95)"/>
          </g>
          <g id="g12364" transform="translate(2.826 11.75)">
            <path id="path12366" d="M-142.095-71.1a.982.982,0,0,1-.971-.846c-.478-3.43-3.173-6.017-6.269-6.017s-5.791,2.587-6.269,6.017a.981.981,0,0,1-1.107.837.981.981,0,0,1-.837-1.107c.622-4.467,4.076-7.709,8.213-7.709s7.591,3.242,8.213,7.709a.981.981,0,0,1-.837,1.107A.99.99,0,0,1-142.095-71.1Z" transform="translate(157.557 79.922)"/>
          </g>
          <g id="g12368" transform="translate(7.062 5.251)">
            <path id="path12370" d="M-73.267-36.633a3.987,3.987,0,0,1-3.987,3.987,3.987,3.987,0,0,1-3.987-3.987,3.987,3.987,0,0,1,3.987-3.987,3.987,3.987,0,0,1,3.987,3.987" transform="translate(81.24 40.62)" fill="#27a5fe"/>
          </g>
          <g id="g12372" transform="translate(6.081 4.269)">
            <path id="path12374" d="M-86.272-50.62A4.974,4.974,0,0,1-81.3-45.652a4.974,4.974,0,0,1-4.968,4.968,4.974,4.974,0,0,1-4.968-4.968A4.974,4.974,0,0,1-86.272-50.62Zm0,7.973a3.009,3.009,0,0,0,3.005-3.005,3.009,3.009,0,0,0-3.005-3.005,3.009,3.009,0,0,0-3.005,3.005A3.009,3.009,0,0,0-86.272-42.646Z" transform="translate(91.24 50.62)"/>
          </g>
          <g id="g12376" transform="translate(16.087 54.837)">
            <path id="path12378" d="M3.824-8.037H-9.019A.981.981,0,0,1-10-9.019.981.981,0,0,1-9.019-10H3.824a.981.981,0,0,1,.981.981A.981.981,0,0,1,3.824-8.037Z" transform="translate(10 10)"/>
          </g>
          <g id="g12380" transform="translate(17.068 45.895)">
            <path id="path12382" d="M-60.761-50.958h-6.22a.393.393,0,0,1-.393-.393v-4.76a.393.393,0,0,1,.393-.393h6.22a.393.393,0,0,1,.393.393v4.76a.393.393,0,0,1-.393.393" transform="translate(67.373 56.504)" fill="#f6a96c"/>
          </g>
          <g id="g12384" transform="translate(16.087 44.913)">
            <path id="path12386" d="M-69.779-59H-76a1.376,1.376,0,0,1-1.374-1.374v-4.76A1.376,1.376,0,0,1-76-66.5h6.22a1.376,1.376,0,0,1,1.374,1.374v4.76A1.376,1.376,0,0,1-69.779-59Zm-5.631-1.963h5.042v-3.583H-75.41Z" transform="translate(77.373 66.504)"/>
          </g>
          <g id="g12388" transform="translate(27.178 13.975)">
            <path id="path12390" d="M.613-8.037H-9.019A.981.981,0,0,1-10-9.019.981.981,0,0,1-9.019-10H.613a.981.981,0,0,1,.981.981A.981.981,0,0,1,.613-8.037Z" transform="translate(10 10)"/>
          </g>
          <g id="g12392" transform="translate(23.821 18.937)">
            <path id="path12394" d="M7.326-8.037H-9.019A.981.981,0,0,1-10-9.019.981.981,0,0,1-9.019-10H7.326a.981.981,0,0,1,.981.981A.981.981,0,0,1,7.326-8.037Z" transform="translate(10 10)"/>
          </g>
          <g id="g12396" transform="translate(16.087 27.401)">
            <path id="path12398" d="M22.8-8.037H-9.019A.981.981,0,0,1-10-9.019.981.981,0,0,1-9.019-10H22.8a.981.981,0,0,1,.981.981A.981.981,0,0,1,22.8-8.037Z" transform="translate(10 10)"/>
          </g>
          <g id="g12400" transform="translate(16.087 32.363)">
            <path id="path12402" d="M22.8-8.037H-9.019A.981.981,0,0,1-10-9.019.981.981,0,0,1-9.019-10H22.8a.981.981,0,0,1,.981.981A.981.981,0,0,1,22.8-8.037Z" transform="translate(10 10)"/>
          </g>
          <g id="g12404" transform="translate(16.087 37.325)">
            <path id="path12406" d="M22.8-8.037H-9.019A.981.981,0,0,1-10-9.019.981.981,0,0,1-9.019-10H22.8a.981.981,0,0,1,.981.981A.981.981,0,0,1,22.8-8.037Z" transform="translate(10 10)"/>
          </g>
        </g>
      </g>
    </g>
  </g>
</svg>
