<svg xmlns="http://www.w3.org/2000/svg" xmlns:xlink="http://www.w3.org/1999/xlink" width="295" height="540" viewBox="0 0 295 540">
  <defs>
    <clipPath id="clip-path">
      <rect id="Rectángulo_345717" data-name="Rectángulo 345717" width="291.696" height="367.747" fill="none"/>
    </clipPath>
    <clipPath id="clip-path-3">
      <rect id="Rectángulo_345706" data-name="Rectángulo 345706" width="269.621" height="362.504" fill="none"/>
    </clipPath>
    <clipPath id="clip-path-4">
      <rect id="Rectángulo_345707" data-name="Rectángulo 345707" width="11.312" height="5.723" fill="none"/>
    </clipPath>
    <clipPath id="clip-path-6">
      <rect id="Rectángulo_345709" data-name="Rectángulo 345709" width="13.168" height="12.383" fill="none"/>
    </clipPath>
    <clipPath id="clip-path-7">
      <rect id="Rectángulo_345710" data-name="Rectángulo 345710" width="11.312" height="5.722" fill="none"/>
    </clipPath>
    <clipPath id="clip-path-9">
      <rect id="Rectángulo_345712" data-name="Rectángulo 345712" width="13.168" height="12.382" fill="none"/>
    </clipPath>
    <clipPath id="clip-path-13">
      <rect id="Rectángulo_345705" data-name="Rectángulo 345705" width="188.478" height="417.409" fill="none"/>
    </clipPath>
    <clipPath id="clip-path-15">
      <rect id="Rectángulo_345696" data-name="Rectángulo 345696" width="12.138" height="16.115" fill="none"/>
    </clipPath>
    <clipPath id="clip-path-16">
      <rect id="Rectángulo_345697" data-name="Rectángulo 345697" width="23.495" height="24.721" fill="none"/>
    </clipPath>
    <clipPath id="clip-path-17">
      <rect id="Rectángulo_345698" data-name="Rectángulo 345698" width="3.439" height="33.316" fill="none"/>
    </clipPath>
    <clipPath id="clip-path-18">
      <rect id="Rectángulo_345699" data-name="Rectángulo 345699" width="20.184" height="11.425" fill="none"/>
    </clipPath>
    <clipPath id="clip-path-20">
      <rect id="Rectángulo_345701" data-name="Rectángulo 345701" width="19.922" height="12.583" fill="none"/>
    </clipPath>
    <clipPath id="clip-path-21">
      <rect id="Rectángulo_345702" data-name="Rectángulo 345702" width="19.923" height="12.583" fill="none"/>
    </clipPath>
    <clipPath id="clip-path-22">
      <rect id="Rectángulo_345703" data-name="Rectángulo 345703" width="3.509" height="29.979" fill="none"/>
    </clipPath>
  </defs>
  <g id="Grupo_988583" data-name="Grupo 988583" transform="translate(-180 -7302)">
    <rect id="Rectángulo_345196" data-name="Rectángulo 345196" width="295" height="540" rx="10" transform="translate(180 7302)" fill="#f5e6e9"/>
    <g id="Grupo_988582" data-name="Grupo 988582" transform="translate(180 7302)">
      <g id="Grupo_988581" data-name="Grupo 988581" clip-path="url(#clip-path)">
        <g id="Grupo_988580" data-name="Grupo 988580">
          <g id="Grupo_988579" data-name="Grupo 988579" clip-path="url(#clip-path)">
            <g id="Grupo_988551" data-name="Grupo 988551" transform="translate(4.693 5.243)" opacity="0.1" style="mix-blend-mode: multiply;isolation: isolate">
              <g id="Grupo_988550" data-name="Grupo 988550">
                <g id="Grupo_988549" data-name="Grupo 988549" clip-path="url(#clip-path-3)">
                  <path id="Trazado_741736" data-name="Trazado 741736" d="M271.527,161.189a2.177,2.177,0,0,0,2.288-2.045V67.289a2.177,2.177,0,0,0-2.288-2.045H216.508V28.754a2.177,2.177,0,0,0-2.288-2.045H181.527V21.858a1.921,1.921,0,0,0-2.02-1.805H128.165c-.665-8.278-8.383-14.81-17.814-14.81S93.2,11.775,92.537,20.053H41.2a1.922,1.922,0,0,0-2.021,1.805v4.851H6.483a2.178,2.178,0,0,0-2.289,2.045V257.7a2.178,2.178,0,0,0,2.289,2.045H27.472v2.675a2.178,2.178,0,0,0,2.289,2.045H271.527a2.177,2.177,0,0,0,2.288-2.045V170.569a2.177,2.177,0,0,0-2.288-2.046H216.508v-7.334Z" transform="translate(-4.194 -5.243)" fill="#320032"/>
                  <path id="Trazado_741737" data-name="Trazado 741737" d="M269.053,271.8H27.287A2.178,2.178,0,0,0,25,273.847V365.7a2.178,2.178,0,0,0,2.289,2.045H269.053a2.177,2.177,0,0,0,2.288-2.045V273.847a2.177,2.177,0,0,0-2.288-2.045" transform="translate(-1.72 -5.243)" fill="#320032"/>
                </g>
              </g>
            </g>
            <path id="Trazado_741738" data-name="Trazado 741738" d="M207.948,254.505H4.365A4.152,4.152,0,0,1,0,250.6V25.367a4.152,4.152,0,0,1,4.365-3.9H207.948a4.153,4.153,0,0,1,4.365,3.9V250.6a4.153,4.153,0,0,1-4.365,3.9" fill="#b5705b"/>
            <path id="Trazado_741739" data-name="Trazado 741739" d="M193.542,242.522H16a4.152,4.152,0,0,1-4.365-3.9V53.829A4.152,4.152,0,0,1,16,49.928H193.542a4.152,4.152,0,0,1,4.364,3.9V238.621a4.153,4.153,0,0,1-4.364,3.9" transform="translate(1.384)" fill="#f9f2ff"/>
            <path id="Trazado_741740" data-name="Trazado 741740" d="M171.595,14.81H120.252C119.589,6.533,111.87,0,102.438,0S85.289,6.533,84.625,14.81H33.283a1.922,1.922,0,0,0-2.021,1.806V34.757a1.922,1.922,0,0,0,2.021,1.805H171.595a1.921,1.921,0,0,0,2.02-1.805V16.616a1.921,1.921,0,0,0-2.02-1.806" transform="translate(3.717)" fill="#213150"/>
            <path id="Trazado_741741" data-name="Trazado 741741" d="M25.169,155.946H262.782a4.153,4.153,0,0,0,4.365-3.9V63.9a4.153,4.153,0,0,0-4.365-3.9H25.169A4.153,4.153,0,0,0,20.8,63.9v88.143a4.153,4.153,0,0,0,4.365,3.9" transform="translate(2.474)" fill="#8a8299"/>
            <path id="Trazado_741742" data-name="Trazado 741742" d="M31.864,148.9H254.5a4.153,4.153,0,0,0,4.365-3.9V70.952a4.153,4.153,0,0,0-4.365-3.9H31.864a4.152,4.152,0,0,0-4.365,3.9V145a4.152,4.152,0,0,0,4.365,3.9" transform="translate(3.27)" fill="#f9f2ff"/>
            <path id="Trazado_741743" data-name="Trazado 741743" d="M147.508,106.836h-37a2.373,2.373,0,1,1,0-4.737h37a2.373,2.373,0,1,1,0,4.737" transform="translate(12.841)" fill="#ffb8b8"/>
            <path id="Trazado_741744" data-name="Trazado 741744" d="M233.692,106.836H188.6c-.789,0-1.428-1.061-1.428-2.369s.639-2.368,1.428-2.368h45.094c.788,0,1.427,1.06,1.427,2.368s-.639,2.369-1.427,2.369" transform="translate(22.257)" fill="#ffb8b8"/>
            <path id="Trazado_741745" data-name="Trazado 741745" d="M185.654,106.836H153.367c-.565,0-1.023-1.061-1.023-2.369s.458-2.368,1.023-2.368h32.287c.564,0,1.022,1.06,1.022,2.368s-.458,2.369-1.022,2.369" transform="translate(18.116)" fill="#ffb8b8"/>
            <path id="Trazado_741746" data-name="Trazado 741746" d="M242.033,117.97H110.387a2.373,2.373,0,1,1,0-4.737H242.033a2.373,2.373,0,1,1,0,4.737" transform="translate(12.827)" fill="#ffb8b8"/>
            <path id="Trazado_741747" data-name="Trazado 741747" d="M147.538,140.238H109.622c-.911,0-1.649-1.061-1.649-2.369s.738-2.368,1.649-2.368h37.915c.911,0,1.649,1.06,1.649,2.368s-.738,2.369-1.649,2.369" transform="translate(12.839)" fill="#ffb8b8"/>
            <path id="Trazado_741748" data-name="Trazado 741748" d="M190.681,140.238H152.765c-.911,0-1.649-1.061-1.649-2.369s.738-2.368,1.649-2.368h37.915c.911,0,1.649,1.06,1.649,2.368s-.738,2.369-1.649,2.369" transform="translate(17.97)" fill="#ffb8b8"/>
            <path id="Trazado_741749" data-name="Trazado 741749" d="M242.033,129.1H110.387a2.373,2.373,0,1,1,0-4.737H242.033a2.373,2.373,0,1,1,0,4.737" transform="translate(12.827)" fill="#ffb8b8"/>
            <path id="Trazado_741750" data-name="Trazado 741750" d="M152.485,84.568h37.764c.906,0,1.641-1.061,1.641-2.369s-.735-2.368-1.641-2.368H152.485c-.907,0-1.643,1.06-1.643,2.368s.735,2.369,1.643,2.369" transform="translate(17.937)" fill="#ffb8b8"/>
            <path id="Trazado_741751" data-name="Trazado 741751" d="M109.514,84.568h37.763c.907,0,1.643-1.061,1.643-2.369s-.735-2.368-1.643-2.368H109.514c-.907,0-1.643,1.06-1.643,2.368s.735,2.369,1.643,2.369" transform="translate(12.827)" fill="#ffb8b8"/>
            <path id="Trazado_741752" data-name="Trazado 741752" d="M109.514,95.7h85.931c.907,0,1.643-1.061,1.643-2.369s-.735-2.368-1.643-2.368H109.514c-.907,0-1.643,1.06-1.643,2.368s.735,2.369,1.643,2.369" transform="translate(12.827)" fill="#ffb8b8"/>
            <path id="Trazado_741753" data-name="Trazado 741753" d="M37.282,106.018a4.424,4.424,0,0,1,3.877-3.647,7.118,7.118,0,0,1,3.638.915c.02.01.039.021.059.03a21.46,21.46,0,0,0,1.574-5.143,26.7,26.7,0,0,0,.385-5.221,50.322,50.322,0,0,0-.556-5.6,26.082,26.082,0,0,1-.308-5.827,11.124,11.124,0,0,1,1.57-4.835,13.61,13.61,0,0,1,7.691-5.717,16.957,16.957,0,0,1,10.5.408,11.66,11.66,0,0,1-.957-1.019,2.506,2.506,0,0,1-.815-1.93,1.169,1.169,0,0,1,1.686-.639,2.669,2.669,0,0,1,1.253,1.653,4.966,4.966,0,0,1,.376-.851,3.6,3.6,0,0,1,.656-.908.87.87,0,0,1,1.44.623,2.254,2.254,0,0,1-.375,1.132c-.194.36-.4.715-.625,1.062-.168.262-.347.517-.531.77A13.188,13.188,0,0,1,70.9,69.97a13.575,13.575,0,0,1,6.024-.307,18.75,18.75,0,0,1,5.872,2.158,19.9,19.9,0,0,1,4.392,3.332,18.472,18.472,0,0,1,1.762,2.059,9.474,9.474,0,0,1,4.017,1.878,8.481,8.481,0,0,1,3.012,6.264,23.369,23.369,0,0,1-1.281,7.7c-.785,2.742-1.534,5.526-1.176,8.375a13.618,13.618,0,0,0,.7,2.891,7.885,7.885,0,0,1,6.025,1.871,4.972,4.972,0,0,1,.277,7.3,5.713,5.713,0,0,1-3.856,1.528,4.8,4.8,0,0,1,.029.537c-.015,2.152-1.537,3.967-3.39,5.22a17.4,17.4,0,0,1-3.3,1.7,28.115,28.115,0,0,1-3.869,1.222,32.5,32.5,0,0,1-8.14.851,36.326,36.326,0,0,1-4.673-.394,25.112,25.112,0,0,1-3.559,1.332,27.242,27.242,0,0,1-9.07,1.019,24.711,24.711,0,0,1-8.861-2.14,15.916,15.916,0,0,1-4.167-2.66,8.981,8.981,0,0,1-2.433-3.6,8.745,8.745,0,0,1-.348-4.527,11.142,11.142,0,0,1-2.309-.605,8.727,8.727,0,0,1-4.754-4.022,4.993,4.993,0,0,1-.54-2.933" transform="translate(4.428)" fill="#b5705b"/>
            <path id="Trazado_741754" data-name="Trazado 741754" d="M107.055,148.882a47.432,47.432,0,0,0-1.611-6.126,39.882,39.882,0,0,0-12.081-17.983c-13.3-11.235-32.376-10.478-45.2,1.037a47.268,47.268,0,0,0-14.009,23.072Z" transform="translate(4.061)" fill="#39354d"/>
            <path id="Trazado_741755" data-name="Trazado 741755" d="M72.7,142.071l-.46-1.928q-.455-1.91-.909-3.819l-.915-3.838q-.277-1.164-.555-2.33a.265.265,0,0,0,.143-.025l1.405-.853.624-.379a3.424,3.424,0,0,0,.559-.361c.119-.116.094-.233-.016-.348a5.831,5.831,0,0,0-.462-.4l-1.972-1.667a.151.151,0,0,0-.09-.028.26.26,0,0,0-.051-.005l-3.262.02a.3.3,0,0,0-.056,0,.223.223,0,0,0-.206.008l-1.972,1.667a5.854,5.854,0,0,0-.463.4c-.109.115-.133.232-.015.348a3.365,3.365,0,0,0,.558.361l.624.379,1.405.853a.267.267,0,0,0,.143.025q-.277,1.165-.555,2.33l-.914,3.838-.91,3.819-.46,1.928a2.153,2.153,0,0,0,.084,1.8,8.74,8.74,0,0,0,1.673,1.579l2,1.677.509.427a.176.176,0,0,0,.125.029.181.181,0,0,0,.126-.029l.509-.427,2-1.677a8.748,8.748,0,0,0,1.674-1.579,2.148,2.148,0,0,0,.083-1.8" transform="translate(7.583)" fill="#f0626e"/>
            <path id="Trazado_741756" data-name="Trazado 741756" d="M79.173,121.326a7.153,7.153,0,0,0-2.464-5.517,6.137,6.137,0,0,0-3.372-1.125,60.027,60.027,0,0,0-8.915,0,6.14,6.14,0,0,0-3.374,1.125,7.157,7.157,0,0,0-2.464,5.517,7.619,7.619,0,0,0,2.577,6.185c1.6,1.348,4.592,2.478,6.3.679a6.762,6.762,0,0,0,1.415-2.738,6.749,6.749,0,0,0,1.415,2.738c1.71,1.8,4.706.669,6.3-.679a7.619,7.619,0,0,0,2.576-6.185" transform="translate(6.966)" fill="#f2f2f2"/>
            <path id="Trazado_741757" data-name="Trazado 741757" d="M52.9,94.157q-.072-.273-.166-.542A6.579,6.579,0,0,0,49.954,90.1a5.317,5.317,0,0,0-7.9,6.034,6.436,6.436,0,0,0,6.183,3.946,5.258,5.258,0,0,0,4.25-2.1,4.768,4.768,0,0,0,.41-3.824" transform="translate(4.97)" fill="#ffbaa6"/>
            <g id="Grupo_988554" data-name="Grupo 988554" transform="translate(46.769 94.356)" opacity="0.4" style="mix-blend-mode: overlay;isolation: isolate">
              <g id="Grupo_988553" data-name="Grupo 988553">
                <g id="Grupo_988552" data-name="Grupo 988552" clip-path="url(#clip-path-4)">
                  <path id="Trazado_741758" data-name="Trazado 741758" d="M49.815,95.859A10.078,10.078,0,0,1,41.8,94.652a4.737,4.737,0,0,0,.256,1.479,6.438,6.438,0,0,0,6.184,3.946,5.258,5.258,0,0,0,4.25-2.1,4.674,4.674,0,0,0,.458-3.624,12.007,12.007,0,0,1-3.132,1.5" transform="translate(-41.799 -94.356)" fill="#320032"/>
                </g>
              </g>
            </g>
            <path id="Trazado_741759" data-name="Trazado 741759" d="M81.135,94.157q.072-.273.166-.542A6.579,6.579,0,0,1,84.078,90.1a5.317,5.317,0,0,1,7.9,6.034,6.436,6.436,0,0,1-6.183,3.946,5.258,5.258,0,0,1-4.25-2.1,4.768,4.768,0,0,1-.41-3.824" transform="translate(9.623)" fill="#ffbaa6"/>
            <g id="Grupo_988557" data-name="Grupo 988557" transform="translate(90.545 94.356)" opacity="0.4" style="mix-blend-mode: overlay;isolation: isolate">
              <g id="Grupo_988556" data-name="Grupo 988556">
                <g id="Grupo_988555" data-name="Grupo 988555" clip-path="url(#clip-path-4)">
                  <path id="Trazado_741760" data-name="Trazado 741760" d="M84.218,95.859a10.076,10.076,0,0,0,8.015-1.207,4.737,4.737,0,0,1-.256,1.479,6.438,6.438,0,0,1-6.184,3.946,5.258,5.258,0,0,1-4.25-2.1,4.674,4.674,0,0,1-.458-3.624,12,12,0,0,0,3.133,1.5" transform="translate(-80.922 -94.356)" fill="#320032"/>
                </g>
              </g>
            </g>
            <path id="Trazado_741761" data-name="Trazado 741761" d="M73.679,105.955a20.246,20.246,0,0,1-11.559.155,86.914,86.914,0,0,0-.7,11.939c.022,2.323.311,4.842,1.809,6.506a6.307,6.307,0,0,0,6.275,1.518,6.593,6.593,0,0,0,4.461-3.358,9.722,9.722,0,0,0,.672-4.216q-.005-.893-.039-1.783c-.135-3.591-.548-7.181-.92-10.761" transform="translate(7.303)" fill="#ffbaa6"/>
            <g id="Grupo_988560" data-name="Grupo 988560" transform="translate(68.766 105.955)" opacity="0.4" style="mix-blend-mode: overlay;isolation: isolate">
              <g id="Grupo_988559" data-name="Grupo 988559">
                <g id="Grupo_988558" data-name="Grupo 988558" clip-path="url(#clip-path-6)">
                  <path id="Trazado_741762" data-name="Trazado 741762" d="M73.674,105.955a20.238,20.238,0,0,1-11.557.155q-.534,4.128-.659,8.3c3.184,3.724,8.267,4.531,13.167,3.546-.007-.412-.016-.824-.031-1.236-.135-3.591-.548-7.181-.92-10.761" transform="translate(-61.458 -105.955)" fill="#320032"/>
                </g>
              </g>
            </g>
            <path id="Trazado_741763" data-name="Trazado 741763" d="M48.707,93.508c-.008.289-.012.579-.012.868-.008,3.772.61,7.662,2.843,10.907,3.463,5.034,10.436,7.746,17.229,7.935,4.941.137,10.085-.992,13.779-3.818,5.63-4.307,6.793-11.489,6.392-17.963-.493-7.94-5.511-15.973-15.433-17.31-9.012-1.213-18.738,2.259-22.534,9.622a22.449,22.449,0,0,0-2.265,9.759" transform="translate(5.79)" fill="#ffbaa6"/>
            <path id="Trazado_741764" data-name="Trazado 741764" d="M88.46,88.219c-1.423-6.88-6.351-13.184-15.038-14.354-9.011-1.214-18.738,2.259-22.533,9.621A19.047,19.047,0,0,0,49.4,87.423a86.782,86.782,0,0,1,8.807-.362l2.064.022A21.58,21.58,0,0,1,61.4,80.877a22.9,22.9,0,0,1,1.312-3.1,42.874,42.874,0,0,0-.648,4.722,42.038,42.038,0,0,0-.115,4.6c3.516.035,7.047.076,10.576.187q.618-2.709.969-5.458c.161,1.13.313,2.262.444,3.395.082.706.157,1.412.229,2.119q1.114.042,2.228.1c.018-.156.036-.312.051-.467a28.013,28.013,0,0,0,.137-3.411c-.012-.683-.047-1.365-.1-2.047q.619,1.764,1.128,3.557.347,1.229.642,2.467c3.329.194,6.642.481,9.923.916a1.325,1.325,0,0,0,.283-.236" transform="translate(5.875)" fill="#b5705b"/>
            <path id="Trazado_741765" data-name="Trazado 741765" d="M221.542,94.4H201.9c-4.01,0-7.261-2.9-7.261-6.489V80.138c0-3.584,3.25-6.489,7.261-6.489h19.641c4.01,0,7.261,2.9,7.261,6.489v7.777c0,3.584-3.25,6.489-7.261,6.489" transform="translate(23.145)" fill="#213150"/>
            <path id="Trazado_741766" data-name="Trazado 741766" d="M217.354,77.432c-3.178,3.158-6.475,6.255-9.855,9.311a26.737,26.737,0,0,0-3.306-3.151c-1.972-1.591-5.289.714-3.329,2.294a20.51,20.51,0,0,1,4.261,4.654c.587.877,2.813,1.112,3.7.328q6.529-5.784,12.6-11.8c1.73-1.72-2.349-3.344-4.066-1.638" transform="translate(23.814)" fill="#f9f2ff"/>
            <path id="Trazado_741767" data-name="Trazado 741767" d="M25.169,362.5H262.782a4.153,4.153,0,0,0,4.365-3.9V270.46a4.153,4.153,0,0,0-4.365-3.9H25.169a4.153,4.153,0,0,0-4.365,3.9V358.6a4.153,4.153,0,0,0,4.365,3.9" transform="translate(2.474)" fill="#8a8299"/>
            <path id="Trazado_741768" data-name="Trazado 741768" d="M31.864,355.455H254.5a4.153,4.153,0,0,0,4.365-3.9V277.51a4.153,4.153,0,0,0-4.365-3.9H31.864a4.152,4.152,0,0,0-4.365,3.9v74.044a4.152,4.152,0,0,0,4.365,3.9" transform="translate(3.27)" fill="#f9f2ff"/>
            <path id="Trazado_741769" data-name="Trazado 741769" d="M147.508,313.394h-37a2.373,2.373,0,1,1,0-4.737h37a2.373,2.373,0,1,1,0,4.737" transform="translate(12.841)" fill="#ffb8b8"/>
            <path id="Trazado_741770" data-name="Trazado 741770" d="M233.692,313.394H188.6c-.789,0-1.428-1.061-1.428-2.369s.639-2.368,1.428-2.368h45.094c.788,0,1.427,1.06,1.427,2.368s-.639,2.369-1.427,2.369" transform="translate(22.257)" fill="#ffb8b8"/>
            <path id="Trazado_741771" data-name="Trazado 741771" d="M185.654,313.394H153.367c-.565,0-1.023-1.061-1.023-2.369s.458-2.368,1.023-2.368h32.287c.564,0,1.022,1.06,1.022,2.368s-.458,2.369-1.022,2.369" transform="translate(18.116)" fill="#ffb8b8"/>
            <path id="Trazado_741772" data-name="Trazado 741772" d="M242.033,324.528H110.387a2.373,2.373,0,1,1,0-4.737H242.033a2.373,2.373,0,1,1,0,4.737" transform="translate(12.827)" fill="#ffb8b8"/>
            <path id="Trazado_741773" data-name="Trazado 741773" d="M147.538,346.8H109.622c-.911,0-1.649-1.061-1.649-2.369s.738-2.368,1.649-2.368h37.915c.911,0,1.649,1.06,1.649,2.368s-.738,2.369-1.649,2.369" transform="translate(12.839)" fill="#ffb8b8"/>
            <path id="Trazado_741774" data-name="Trazado 741774" d="M190.681,346.8H152.765c-.911,0-1.649-1.061-1.649-2.369s.738-2.368,1.649-2.368h37.915c.911,0,1.649,1.06,1.649,2.368s-.738,2.369-1.649,2.369" transform="translate(17.97)" fill="#ffb8b8"/>
            <path id="Trazado_741775" data-name="Trazado 741775" d="M242.033,335.662H110.387a2.373,2.373,0,1,1,0-4.737H242.033a2.373,2.373,0,1,1,0,4.737" transform="translate(12.827)" fill="#ffb8b8"/>
            <path id="Trazado_741776" data-name="Trazado 741776" d="M152.485,291.126h37.764c.906,0,1.641-1.061,1.641-2.369s-.735-2.368-1.641-2.368H152.485c-.907,0-1.643,1.06-1.643,2.368s.735,2.369,1.643,2.369" transform="translate(17.937)" fill="#ffb8b8"/>
            <path id="Trazado_741777" data-name="Trazado 741777" d="M109.514,291.126h37.763c.907,0,1.643-1.061,1.643-2.369s-.735-2.368-1.643-2.368H109.514c-.907,0-1.643,1.06-1.643,2.368s.735,2.369,1.643,2.369" transform="translate(12.827)" fill="#ffb8b8"/>
            <path id="Trazado_741778" data-name="Trazado 741778" d="M109.514,302.26h85.931c.907,0,1.643-1.061,1.643-2.369s-.735-2.368-1.643-2.368H109.514c-.907,0-1.643,1.06-1.643,2.368s.735,2.369,1.643,2.369" transform="translate(12.827)" fill="#ffb8b8"/>
            <path id="Trazado_741779" data-name="Trazado 741779" d="M221.786,300.766H202.145c-4.01,0-7.261-2.9-7.261-6.489V286.5c0-3.584,3.25-6.489,7.261-6.489h19.641c4.01,0,7.261,2.9,7.261,6.489v7.777c0,3.584-3.25,6.489-7.261,6.489" transform="translate(23.174)" fill="#f0626e"/>
            <path id="Trazado_741780" data-name="Trazado 741780" d="M81.135,301.009q.072-.273.166-.542a6.579,6.579,0,0,1,2.778-3.518,5.317,5.317,0,0,1,7.9,6.033,6.435,6.435,0,0,1-6.183,3.947,5.258,5.258,0,0,1-4.25-2.1,4.768,4.768,0,0,1-.41-3.824" transform="translate(9.623)" fill="#ffcbbf"/>
            <g id="Grupo_988563" data-name="Grupo 988563" transform="translate(90.545 301.209)" opacity="0.4" style="mix-blend-mode: overlay;isolation: isolate">
              <g id="Grupo_988562" data-name="Grupo 988562">
                <g id="Grupo_988561" data-name="Grupo 988561" clip-path="url(#clip-path-7)">
                  <path id="Trazado_741781" data-name="Trazado 741781" d="M84.218,302.711a10.076,10.076,0,0,0,8.015-1.207,4.737,4.737,0,0,1-.256,1.479,6.438,6.438,0,0,1-6.184,3.946,5.258,5.258,0,0,1-4.25-2.1,4.674,4.674,0,0,1-.458-3.624,12,12,0,0,0,3.133,1.5" transform="translate(-80.922 -301.209)" fill="#320032"/>
                </g>
              </g>
            </g>
            <path id="Trazado_741782" data-name="Trazado 741782" d="M107.055,355.734a47.432,47.432,0,0,0-1.611-6.126,39.882,39.882,0,0,0-12.081-17.983c-13.3-11.235-32.376-10.478-45.2,1.037a47.268,47.268,0,0,0-14.009,23.072Z" transform="translate(4.061)" fill="#39354d"/>
            <path id="Trazado_741783" data-name="Trazado 741783" d="M72.019,349.964l-.46-1.928q-.455-1.91-.91-3.819l-.914-3.837q-.277-1.166-.555-2.331a.267.267,0,0,0,.143-.025l1.405-.853.624-.379a3.423,3.423,0,0,0,.559-.361c.119-.116.094-.233-.016-.348a5.831,5.831,0,0,0-.462-.4q-.987-.832-1.972-1.667a.151.151,0,0,0-.09-.028.27.27,0,0,0-.051-.005l-3.262.02a.231.231,0,0,0-.056.006.22.22,0,0,0-.206.007l-1.972,1.667a5.659,5.659,0,0,0-.463.4c-.109.115-.134.232-.016.348a3.424,3.424,0,0,0,.559.361l.624.379,1.405.853a.267.267,0,0,0,.143.025q-.279,1.165-.555,2.331l-.914,3.837-.91,3.819-.46,1.928a2.152,2.152,0,0,0,.084,1.8A8.677,8.677,0,0,0,65,353.341l2,1.677.509.428a.181.181,0,0,0,.125.028.186.186,0,0,0,.126-.028l.508-.428,2-1.677a8.718,8.718,0,0,0,1.674-1.579,2.156,2.156,0,0,0,.083-1.8" transform="translate(7.502)" fill="#ffb8b8"/>
            <path id="Trazado_741784" data-name="Trazado 741784" d="M82.511,326.862c-.98-2.254-4.631-3.423-7.027-3.943a33.468,33.468,0,0,0-11.83-.277c-2.913.425-9.755,2.485-8.49,5.97a20.613,20.613,0,0,0,6.056,8.433c1.183,1.02,3.88,2.737,4.814.631q1.155-2.6,2.12-5.243.275-.749.534-1.5c.028-.082.055-.165.083-.248.028.083.055.166.084.248q.258.752.533,1.5.965,2.64,2.119,5.243c.934,2.106,3.632.389,4.815-.631a20.613,20.613,0,0,0,6.056-8.433,2.354,2.354,0,0,0,.135-1.75" transform="translate(6.541)" fill="#f2f2f2"/>
            <path id="Trazado_741785" data-name="Trazado 741785" d="M52.9,301.009q-.072-.273-.166-.542a6.579,6.579,0,0,0-2.778-3.518,5.317,5.317,0,0,0-7.9,6.033,6.435,6.435,0,0,0,6.183,3.947,5.256,5.256,0,0,0,4.25-2.1,4.764,4.764,0,0,0,.41-3.824" transform="translate(4.97)" fill="#ffcbbf"/>
            <g id="Grupo_988566" data-name="Grupo 988566" transform="translate(46.769 301.209)" opacity="0.4" style="mix-blend-mode: overlay;isolation: isolate">
              <g id="Grupo_988565" data-name="Grupo 988565">
                <g id="Grupo_988564" data-name="Grupo 988564" clip-path="url(#clip-path-7)">
                  <path id="Trazado_741786" data-name="Trazado 741786" d="M49.815,302.711A10.078,10.078,0,0,1,41.8,301.5a4.737,4.737,0,0,0,.256,1.479,6.438,6.438,0,0,0,6.184,3.946,5.258,5.258,0,0,0,4.25-2.1,4.674,4.674,0,0,0,.458-3.624,12.007,12.007,0,0,1-3.132,1.5" transform="translate(-41.798 -301.209)" fill="#320032"/>
                </g>
              </g>
            </g>
            <path id="Trazado_741787" data-name="Trazado 741787" d="M73.679,313.588a20.246,20.246,0,0,1-11.559.155,86.736,86.736,0,0,0-.7,11.939c.021,2.323.31,4.842,1.808,6.506a6.309,6.309,0,0,0,6.276,1.518,6.593,6.593,0,0,0,4.46-3.358,9.722,9.722,0,0,0,.672-4.216q-.005-.893-.039-1.783c-.135-3.591-.548-7.181-.92-10.761" transform="translate(7.303)" fill="#ffcbbf"/>
            <g id="Grupo_988569" data-name="Grupo 988569" transform="translate(68.766 313.588)" opacity="0.4" style="mix-blend-mode: overlay;isolation: isolate">
              <g id="Grupo_988568" data-name="Grupo 988568">
                <g id="Grupo_988567" data-name="Grupo 988567" clip-path="url(#clip-path-9)">
                  <path id="Trazado_741788" data-name="Trazado 741788" d="M73.674,313.588a20.247,20.247,0,0,1-11.557.155q-.534,4.128-.659,8.3c3.184,3.724,8.267,4.531,13.167,3.546-.007-.412-.016-.824-.031-1.236-.135-3.591-.548-7.181-.92-10.761" transform="translate(-61.458 -313.588)" fill="#320032"/>
                </g>
              </g>
            </g>
            <path id="Trazado_741789" data-name="Trazado 741789" d="M48.707,300.36c-.008.289-.012.579-.012.868-.008,3.772.61,7.662,2.843,10.907,3.463,5.034,10.436,7.746,17.229,7.935,4.941.137,10.085-.992,13.779-3.818,5.63-4.307,6.793-11.489,6.392-17.963-.493-7.94-5.511-15.973-15.433-17.309-9.012-1.214-18.738,2.258-22.534,9.621a22.452,22.452,0,0,0-2.265,9.759" transform="translate(5.79)" fill="#ffcbbf"/>
            <path id="Trazado_741790" data-name="Trazado 741790" d="M86.79,305.487a5.207,5.207,0,0,0-.97,2.005c-.213.731-.379,1.472-.656,2.182a10.769,10.769,0,0,1-2.3,3.575,8.848,8.848,0,0,1-3.717,2.41,3.892,3.892,0,0,1-2.194.047,2.826,2.826,0,0,1-1.593-1.143c-.371-.583-.389-1.324-.779-1.9a2.846,2.846,0,0,0-1.91-.937,19.482,19.482,0,0,0-8.374,0,2.847,2.847,0,0,0-1.911.937c-.389.573-.406,1.314-.778,1.9a2.829,2.829,0,0,1-1.594,1.143,3.889,3.889,0,0,1-2.193-.047,8.851,8.851,0,0,1-3.718-2.41,10.769,10.769,0,0,1-2.3-3.575c-.276-.71-.443-1.451-.656-2.182a5.175,5.175,0,0,0-.97-2.005,2.7,2.7,0,0,0-1.629-.941,17.463,17.463,0,0,0,2.775,9.175c3.429,4.984,10.333,7.67,17.058,7.856,4.893.136,9.985-.981,13.644-3.78,4.278-3.271,5.949-8.218,6.316-13.239a2.734,2.734,0,0,0-1.552.929" transform="translate(5.773)" fill="#b5705b"/>
            <path id="Trazado_741791" data-name="Trazado 741791" d="M25.169,259.225H262.782a4.153,4.153,0,0,0,4.365-3.9V167.181a4.153,4.153,0,0,0-4.365-3.9H25.169a4.153,4.153,0,0,0-4.365,3.9v88.143a4.153,4.153,0,0,0,4.365,3.9" transform="translate(2.474)" fill="#8a8299"/>
            <path id="Trazado_741792" data-name="Trazado 741792" d="M31.864,252.176H254.5a4.153,4.153,0,0,0,4.365-3.9V174.231a4.153,4.153,0,0,0-4.365-3.9H31.864a4.152,4.152,0,0,0-4.365,3.9v74.044a4.152,4.152,0,0,0,4.365,3.9" transform="translate(3.27)" fill="#f9f2ff"/>
            <path id="Trazado_741793" data-name="Trazado 741793" d="M147.508,210.115h-37a2.373,2.373,0,1,1,0-4.737h37a2.373,2.373,0,1,1,0,4.737" transform="translate(12.841)" fill="#ffb8b8"/>
            <path id="Trazado_741794" data-name="Trazado 741794" d="M233.692,210.115H188.6c-.789,0-1.428-1.061-1.428-2.369s.639-2.368,1.428-2.368h45.094c.788,0,1.427,1.06,1.427,2.368s-.639,2.369-1.427,2.369" transform="translate(22.257)" fill="#ffb8b8"/>
            <path id="Trazado_741795" data-name="Trazado 741795" d="M185.654,210.115H153.367c-.565,0-1.023-1.061-1.023-2.369s.458-2.368,1.023-2.368h32.287c.564,0,1.022,1.06,1.022,2.368s-.458,2.369-1.022,2.369" transform="translate(18.116)" fill="#ffb8b8"/>
            <path id="Trazado_741796" data-name="Trazado 741796" d="M242.033,221.249H110.387a2.373,2.373,0,1,1,0-4.737H242.033a2.373,2.373,0,1,1,0,4.737" transform="translate(12.827)" fill="#ffb8b8"/>
            <path id="Trazado_741797" data-name="Trazado 741797" d="M147.538,243.517H109.622c-.911,0-1.649-1.061-1.649-2.369s.738-2.368,1.649-2.368h37.915c.911,0,1.649,1.06,1.649,2.368s-.738,2.369-1.649,2.369" transform="translate(12.839)" fill="#ffb8b8"/>
            <path id="Trazado_741798" data-name="Trazado 741798" d="M190.681,243.517H152.765c-.911,0-1.649-1.061-1.649-2.369s.738-2.368,1.649-2.368h37.915c.911,0,1.649,1.06,1.649,2.368s-.738,2.369-1.649,2.369" transform="translate(17.97)" fill="#ffb8b8"/>
            <path id="Trazado_741799" data-name="Trazado 741799" d="M242.033,232.383H110.387a2.373,2.373,0,1,1,0-4.737H242.033a2.373,2.373,0,1,1,0,4.737" transform="translate(12.827)" fill="#ffb8b8"/>
            <path id="Trazado_741800" data-name="Trazado 741800" d="M152.485,187.847h37.764c.906,0,1.641-1.06,1.641-2.369s-.735-2.368-1.641-2.368H152.485c-.907,0-1.643,1.06-1.643,2.368s.735,2.369,1.643,2.369" transform="translate(17.937)" fill="#ffb8b8"/>
            <path id="Trazado_741801" data-name="Trazado 741801" d="M109.514,187.847h37.763c.907,0,1.643-1.06,1.643-2.369s-.735-2.368-1.643-2.368H109.514c-.907,0-1.643,1.06-1.643,2.368s.735,2.369,1.643,2.369" transform="translate(12.827)" fill="#ffb8b8"/>
            <path id="Trazado_741802" data-name="Trazado 741802" d="M109.514,198.981h85.931c.907,0,1.643-1.061,1.643-2.369s-.735-2.368-1.643-2.368H109.514c-.907,0-1.643,1.06-1.643,2.368s.735,2.369,1.643,2.369" transform="translate(12.827)" fill="#ffb8b8"/>
            <path id="Trazado_741803" data-name="Trazado 741803" d="M221.786,197.486H202.145c-4.01,0-7.261-2.9-7.261-6.489V183.22c0-3.584,3.25-6.489,7.261-6.489h19.641c4.01,0,7.261,2.9,7.261,6.489V191c0,3.584-3.25,6.489-7.261,6.489" transform="translate(23.174)" fill="#f0626e"/>
            <path id="Trazado_741804" data-name="Trazado 741804" d="M40.5,216.915a26.431,26.431,0,0,1,2.406-4.863,28.751,28.751,0,0,0,2.608-4.767c1.306-3.467.6-7.164.749-10.741a27.24,27.24,0,0,1,1.837-8.753,23.782,23.782,0,0,1,12.479-13.309,17.421,17.421,0,0,1,10.518-1.26,11.963,11.963,0,0,1,6.209,3.533c-.074-.164-.145-.329-.207-.5a1.32,1.32,0,0,1-.006-1.125.656.656,0,0,1,.463-.321.579.579,0,0,1,.512.337,1.443,1.443,0,0,1,.154.822,3.172,3.172,0,0,1,.357-.574,1.1,1.1,0,0,1,.634-.454.558.558,0,0,1,.661.8,3.286,3.286,0,0,1-1.009,1.316l-.016.013c2.375-.547,5.13.435,7.08,1.637a13.078,13.078,0,0,1,5.589,6.86c1.07,3.21.469,6.589.262,9.864a16.689,16.689,0,0,0,.292,5.079,10.935,10.935,0,0,0,2.421,4.433c1.108,1.3,2.384,2.475,3.5,3.768a15.216,15.216,0,0,1,2.693,4.327,10.5,10.5,0,0,1-.529,8.759,16.638,16.638,0,0,1-6.637,6.68A31.206,31.206,0,0,1,82.952,231.9c-1.89.3-3.8.494-5.715.623a35.356,35.356,0,0,1-6.284-.056c-2.058-.228-4.076-.656-6.116-.979a29.3,29.3,0,0,0-6.38-.351c-3.848.23-7.722,1.01-11.557.261a11.166,11.166,0,0,1-4.335-1.751,7.4,7.4,0,0,1-2.646-3.446c-1.122-3-.477-6.356.581-9.289" transform="translate(4.677)" fill="#39354d"/>
            <path id="Trazado_741805" data-name="Trazado 741805" d="M107.055,252.455a47.432,47.432,0,0,0-1.611-6.126,39.882,39.882,0,0,0-12.081-17.983c-13.3-11.235-32.376-10.478-45.2,1.037a47.268,47.268,0,0,0-14.009,23.072Z" transform="translate(4.061)" fill="#f0626e"/>
            <path id="Trazado_741806" data-name="Trazado 741806" d="M72.115,245.644l-.46-1.928q-.455-1.91-.91-3.819l-.914-3.837q-.277-1.165-.555-2.33a.277.277,0,0,0,.143-.026l1.405-.853.624-.379a3.425,3.425,0,0,0,.559-.361c.119-.116.094-.233-.016-.348a5.834,5.834,0,0,0-.462-.4q-.987-.832-1.972-1.667a.151.151,0,0,0-.09-.028.269.269,0,0,0-.051-.005l-3.262.02a.231.231,0,0,0-.056.006.22.22,0,0,0-.206.007l-1.972,1.667a5.855,5.855,0,0,0-.463.4c-.109.115-.134.232-.016.348a3.425,3.425,0,0,0,.559.361l.624.379,1.405.853a.277.277,0,0,0,.143.026q-.279,1.164-.555,2.33l-.914,3.837-.91,3.819-.46,1.928a2.152,2.152,0,0,0,.084,1.8,8.74,8.74,0,0,0,1.673,1.579l2,1.677q.253.215.509.427a.171.171,0,0,0,.125.029.176.176,0,0,0,.126-.029l.508-.427,2-1.677a8.748,8.748,0,0,0,1.674-1.579,2.152,2.152,0,0,0,.083-1.8" transform="translate(7.513)" fill="#39354d"/>
            <path id="Trazado_741807" data-name="Trazado 741807" d="M78.586,224.9a7.153,7.153,0,0,0-2.464-5.517,6.137,6.137,0,0,0-3.372-1.125,60.029,60.029,0,0,0-8.915,0,6.14,6.14,0,0,0-3.374,1.125A7.157,7.157,0,0,0,58,224.9a7.619,7.619,0,0,0,2.577,6.185c1.6,1.349,4.592,2.478,6.3.68a6.772,6.772,0,0,0,1.415-2.739,6.759,6.759,0,0,0,1.415,2.739c1.71,1.8,4.706.669,6.3-.68a7.619,7.619,0,0,0,2.576-6.185" transform="translate(6.896)" fill="#f2f2f2"/>
            <path id="Trazado_741808" data-name="Trazado 741808" d="M52.9,197.73c-.048-.182-.1-.362-.166-.542a6.579,6.579,0,0,0-2.778-3.518,5.318,5.318,0,0,0-7.9,6.034,6.436,6.436,0,0,0,6.183,3.946,5.256,5.256,0,0,0,4.25-2.1,4.764,4.764,0,0,0,.41-3.824" transform="translate(4.97)" fill="#bf8572"/>
            <g id="Grupo_988572" data-name="Grupo 988572" transform="translate(46.769 197.93)" opacity="0.4" style="mix-blend-mode: overlay;isolation: isolate">
              <g id="Grupo_988571" data-name="Grupo 988571">
                <g id="Grupo_988570" data-name="Grupo 988570" clip-path="url(#clip-path-7)">
                  <path id="Trazado_741809" data-name="Trazado 741809" d="M49.815,199.432a10.078,10.078,0,0,1-8.016-1.207,4.737,4.737,0,0,0,.256,1.479,6.438,6.438,0,0,0,6.184,3.946,5.258,5.258,0,0,0,4.25-2.1,4.674,4.674,0,0,0,.458-3.624,12.007,12.007,0,0,1-3.132,1.5" transform="translate(-41.798 -197.93)" fill="#320032"/>
                </g>
              </g>
            </g>
            <path id="Trazado_741810" data-name="Trazado 741810" d="M81.135,197.73c.048-.182.1-.362.166-.542a6.579,6.579,0,0,1,2.778-3.518,5.317,5.317,0,0,1,7.9,6.034,6.436,6.436,0,0,1-6.183,3.946,5.258,5.258,0,0,1-4.25-2.1,4.768,4.768,0,0,1-.41-3.824" transform="translate(9.623)" fill="#bf8572"/>
            <g id="Grupo_988575" data-name="Grupo 988575" transform="translate(90.545 197.93)" opacity="0.4" style="mix-blend-mode: overlay;isolation: isolate">
              <g id="Grupo_988574" data-name="Grupo 988574">
                <g id="Grupo_988573" data-name="Grupo 988573" clip-path="url(#clip-path-7)">
                  <path id="Trazado_741811" data-name="Trazado 741811" d="M84.218,199.432a10.076,10.076,0,0,0,8.015-1.207,4.737,4.737,0,0,1-.256,1.479,6.438,6.438,0,0,1-6.184,3.946,5.258,5.258,0,0,1-4.25-2.1,4.674,4.674,0,0,1-.458-3.624,12,12,0,0,0,3.133,1.5" transform="translate(-80.922 -197.93)" fill="#320032"/>
                </g>
              </g>
            </g>
            <path id="Trazado_741812" data-name="Trazado 741812" d="M73.679,209.529a20.246,20.246,0,0,1-11.559.155,86.736,86.736,0,0,0-.7,11.939c.021,2.323.31,4.842,1.808,6.506a6.309,6.309,0,0,0,6.276,1.518,6.593,6.593,0,0,0,4.46-3.358,9.722,9.722,0,0,0,.672-4.216q-.005-.893-.039-1.783c-.135-3.591-.548-7.181-.92-10.761" transform="translate(7.303)" fill="#bf8572"/>
            <g id="Grupo_988578" data-name="Grupo 988578" transform="translate(68.766 209.529)" opacity="0.4" style="mix-blend-mode: overlay;isolation: isolate">
              <g id="Grupo_988577" data-name="Grupo 988577">
                <g id="Grupo_988576" data-name="Grupo 988576" clip-path="url(#clip-path-9)">
                  <path id="Trazado_741813" data-name="Trazado 741813" d="M73.674,209.529a20.247,20.247,0,0,1-11.557.155q-.534,4.128-.659,8.3c3.184,3.724,8.267,4.531,13.167,3.546-.007-.412-.016-.824-.031-1.236-.135-3.591-.548-7.181-.92-10.761" transform="translate(-61.458 -209.529)" fill="#320032"/>
                </g>
              </g>
            </g>
            <path id="Trazado_741814" data-name="Trazado 741814" d="M48.707,197.081c-.008.289-.012.579-.012.868-.008,3.772.61,7.662,2.843,10.907,3.463,5.033,10.436,7.746,17.229,7.935,4.941.137,10.085-.992,13.779-3.818,5.63-4.307,6.793-11.489,6.392-17.963-.493-7.94-5.511-15.973-15.433-17.309-9.012-1.214-18.738,2.258-22.534,9.621a22.448,22.448,0,0,0-2.265,9.759" transform="translate(5.79)" fill="#bf8572"/>
            <path id="Trazado_741815" data-name="Trazado 741815" d="M73.462,177.181c-9.012-1.214-18.738,2.259-22.534,9.621a19.9,19.9,0,0,0-1.867,5.692,2.108,2.108,0,0,0,2.129.847,5.854,5.854,0,0,0,2.685-1.581,13.4,13.4,0,0,0,1.944-2.179c.04-.056.078-.114.117-.17a3.486,3.486,0,0,0,.369,2.284c1,1.563,3.292.429,4.37-.448a10.751,10.751,0,0,0,1.663-1.763c.18-.233.35-.472.523-.71a2.035,2.035,0,0,0,.415.842c.991,1.171,2.775.6,3.838-.156A9.7,9.7,0,0,0,69.9,186.1a18.778,18.778,0,0,0,1.01-2.257l.011.013a2.632,2.632,0,0,0,2.477.4,8.657,8.657,0,0,0,2.549-1.089,8.843,8.843,0,0,0,.747-.531l.012.024a1.985,1.985,0,0,0,1.993.811,2.1,2.1,0,0,0,.667-.214q.091.875.18,1.749a6.266,6.266,0,0,0,.625,2.587,2.624,2.624,0,0,0,1.987,1.29,2,2,0,0,0,1.6-.623,11.366,11.366,0,0,0,.809,2.928,3.448,3.448,0,0,0,1.5,1.8,2,2,0,0,0,2.113-.208,2.582,2.582,0,0,0,.459-.467c-1.205-7.175-6.17-13.912-15.181-15.126" transform="translate(5.834)" fill="#39354d"/>
            <path id="Trazado_741816" data-name="Trazado 741816" d="M258.655,90.2a2.332,2.332,0,1,1-2.594,2.318,2.47,2.47,0,0,1,2.594-2.318" transform="translate(30.449)" fill="#080927"/>
            <path id="Trazado_741817" data-name="Trazado 741817" d="M249.824,72.889a2.332,2.332,0,1,1-2.594,2.317,2.469,2.469,0,0,1,2.594-2.317" transform="translate(29.399)" fill="#080927"/>
            <path id="Trazado_741818" data-name="Trazado 741818" d="M256.061,135.8a2.609,2.609,0,1,1,2.594,2.318,2.47,2.47,0,0,1-2.594-2.318" transform="translate(30.449)" fill="#080927"/>
            <path id="Trazado_741819" data-name="Trazado 741819" d="M256.061,144.452a2.609,2.609,0,1,1,2.594,2.318,2.47,2.47,0,0,1-2.594-2.318" transform="translate(30.449)" fill="#080927"/>
            <path id="Trazado_741820" data-name="Trazado 741820" d="M258.655,124.823a2.332,2.332,0,1,1-2.594,2.318,2.47,2.47,0,0,1,2.594-2.318" transform="translate(30.449)" fill="#080927"/>
            <path id="Trazado_741821" data-name="Trazado 741821" d="M256.061,109.829a2.609,2.609,0,1,1,2.594,2.318,2.47,2.47,0,0,1-2.594-2.318" transform="translate(30.449)" fill="#080927"/>
            <path id="Trazado_741822" data-name="Trazado 741822" d="M256.061,118.485a2.61,2.61,0,1,1,2.594,2.317,2.47,2.47,0,0,1-2.594-2.317" transform="translate(30.449)" fill="#080927"/>
            <path id="Trazado_741823" data-name="Trazado 741823" d="M258.655,98.856a2.332,2.332,0,1,1-2.594,2.318,2.47,2.47,0,0,1,2.594-2.318" transform="translate(30.449)" fill="#080927"/>
            <path id="Trazado_741824" data-name="Trazado 741824" d="M258.655,72.889a2.332,2.332,0,1,1-2.594,2.317,2.47,2.47,0,0,1,2.594-2.317" transform="translate(30.449)" fill="#080927"/>
            <path id="Trazado_741825" data-name="Trazado 741825" d="M258.655,81.544a2.333,2.333,0,1,1-2.594,2.319,2.471,2.471,0,0,1,2.594-2.319" transform="translate(30.449)" fill="#080927"/>
            <path id="Trazado_741826" data-name="Trazado 741826" d="M258.655,46.686A2.332,2.332,0,1,1,256.061,49a2.47,2.47,0,0,1,2.594-2.318" transform="translate(30.449)" fill="#080927"/>
            <path id="Trazado_741827" data-name="Trazado 741827" d="M249.824,29.571a2.332,2.332,0,1,1-2.594,2.318,2.469,2.469,0,0,1,2.594-2.318" transform="translate(29.399)" fill="#080927"/>
            <path id="Trazado_741828" data-name="Trazado 741828" d="M256.061,57.927a2.609,2.609,0,1,1,2.594,2.318,2.47,2.47,0,0,1-2.594-2.318" transform="translate(30.449)" fill="#080927"/>
            <path id="Trazado_741829" data-name="Trazado 741829" d="M256.061,66.582a2.609,2.609,0,1,1,2.594,2.318,2.47,2.47,0,0,1-2.594-2.318" transform="translate(30.449)" fill="#080927"/>
            <path id="Trazado_741830" data-name="Trazado 741830" d="M258.655,29.571a2.332,2.332,0,1,1-2.594,2.318,2.47,2.47,0,0,1,2.594-2.318" transform="translate(30.449)" fill="#080927"/>
            <path id="Trazado_741831" data-name="Trazado 741831" d="M258.655,38.03a2.332,2.332,0,1,1-2.594,2.318,2.47,2.47,0,0,1,2.594-2.318" transform="translate(30.449)" fill="#080927"/>
            <path id="Trazado_741832" data-name="Trazado 741832" d="M212.3,31.889a2.609,2.609,0,1,1,2.594,2.318,2.47,2.47,0,0,1-2.594-2.318" transform="translate(25.245)" fill="#080927"/>
            <path id="Trazado_741833" data-name="Trazado 741833" d="M232.2,34.206a2.332,2.332,0,1,1,2.594-2.318,2.47,2.47,0,0,1-2.594,2.318" transform="translate(27.303)" fill="#080927"/>
            <path id="Trazado_741834" data-name="Trazado 741834" d="M240.856,34.206a2.332,2.332,0,1,1,2.594-2.318,2.471,2.471,0,0,1-2.594,2.318" transform="translate(28.332)" fill="#080927"/>
            <path id="Trazado_741835" data-name="Trazado 741835" d="M220.951,31.889a2.609,2.609,0,1,1,2.594,2.318,2.47,2.47,0,0,1-2.594-2.318" transform="translate(26.274)" fill="#080927"/>
            <path id="Trazado_741836" data-name="Trazado 741836" d="M194.984,31.889a2.609,2.609,0,1,1,2.593,2.318,2.469,2.469,0,0,1-2.593-2.318" transform="translate(23.186)" fill="#080927"/>
            <path id="Trazado_741837" data-name="Trazado 741837" d="M203.64,31.889a2.609,2.609,0,1,1,2.594,2.318,2.47,2.47,0,0,1-2.594-2.318" transform="translate(24.215)" fill="#080927"/>
            <path id="Trazado_741838" data-name="Trazado 741838" d="M249.824,168.306a2.332,2.332,0,1,1-2.594,2.318,2.469,2.469,0,0,1,2.594-2.318" transform="translate(29.399)" fill="#080927"/>
            <path id="Trazado_741839" data-name="Trazado 741839" d="M249.824,272.111a2.332,2.332,0,1,1-2.594,2.318,2.469,2.469,0,0,1,2.594-2.318" transform="translate(29.399)" fill="#080927"/>
            <path id="Trazado_741840" data-name="Trazado 741840" d="M258.655,168.1a2.332,2.332,0,1,1-2.594,2.318,2.47,2.47,0,0,1,2.594-2.318" transform="translate(30.449)" fill="#080927"/>
            <path id="Trazado_741841" data-name="Trazado 741841" d="M256.061,213.7a2.609,2.609,0,1,1,2.594,2.318,2.47,2.47,0,0,1-2.594-2.318" transform="translate(30.449)" fill="#080927"/>
            <path id="Trazado_741842" data-name="Trazado 741842" d="M256.061,222.354a2.609,2.609,0,1,1,2.594,2.318,2.47,2.47,0,0,1-2.594-2.318" transform="translate(30.449)" fill="#080927"/>
            <path id="Trazado_741843" data-name="Trazado 741843" d="M258.655,202.725a2.332,2.332,0,1,1-2.594,2.318,2.47,2.47,0,0,1,2.594-2.318" transform="translate(30.449)" fill="#080927"/>
            <path id="Trazado_741844" data-name="Trazado 741844" d="M256.061,187.731a2.609,2.609,0,1,1,2.594,2.318,2.47,2.47,0,0,1-2.594-2.318" transform="translate(30.449)" fill="#080927"/>
            <path id="Trazado_741845" data-name="Trazado 741845" d="M256.061,196.387a2.609,2.609,0,1,1,2.594,2.318,2.47,2.47,0,0,1-2.594-2.318" transform="translate(30.449)" fill="#080927"/>
            <path id="Trazado_741846" data-name="Trazado 741846" d="M258.655,176.758a2.332,2.332,0,1,1-2.594,2.317,2.47,2.47,0,0,1,2.594-2.317" transform="translate(30.449)" fill="#080927"/>
            <path id="Trazado_741847" data-name="Trazado 741847" d="M258.655,150.79a2.332,2.332,0,1,1-2.594,2.318,2.47,2.47,0,0,1,2.594-2.318" transform="translate(30.449)" fill="#080927"/>
            <path id="Trazado_741848" data-name="Trazado 741848" d="M258.655,159.446a2.332,2.332,0,1,1-2.594,2.318,2.47,2.47,0,0,1,2.594-2.318" transform="translate(30.449)" fill="#080927"/>
            <path id="Trazado_741849" data-name="Trazado 741849" d="M258.655,228.692a2.332,2.332,0,1,1-2.594,2.318,2.47,2.47,0,0,1,2.594-2.318" transform="translate(30.449)" fill="#080927"/>
            <path id="Trazado_741850" data-name="Trazado 741850" d="M256.061,274.288a2.609,2.609,0,1,1,2.594,2.318,2.47,2.47,0,0,1-2.594-2.318" transform="translate(30.449)" fill="#080927"/>
            <path id="Trazado_741851" data-name="Trazado 741851" d="M258.655,263.315a2.332,2.332,0,1,1-2.594,2.317,2.47,2.47,0,0,1,2.594-2.317" transform="translate(30.449)" fill="#080927"/>
            <path id="Trazado_741852" data-name="Trazado 741852" d="M256.061,248.321a2.609,2.609,0,1,1,2.594,2.318,2.47,2.47,0,0,1-2.594-2.318" transform="translate(30.449)" fill="#080927"/>
            <path id="Trazado_741853" data-name="Trazado 741853" d="M256.061,256.977a2.609,2.609,0,1,1,2.594,2.318,2.47,2.47,0,0,1-2.594-2.318" transform="translate(30.449)" fill="#080927"/>
            <path id="Trazado_741854" data-name="Trazado 741854" d="M258.655,237.348a2.332,2.332,0,1,1-2.594,2.318,2.47,2.47,0,0,1,2.594-2.318" transform="translate(30.449)" fill="#080927"/>
          </g>
        </g>
      </g>
    </g>
    <g id="Grupo_988548" data-name="Grupo 988548" transform="translate(264.261 7424.591)">
      <g id="Grupo_988547" data-name="Grupo 988547" clip-path="url(#clip-path-13)">
        <g id="Grupo_988546" data-name="Grupo 988546">
          <g id="Grupo_988545" data-name="Grupo 988545" clip-path="url(#clip-path-13)">
            <path id="Trazado_741686" data-name="Trazado 741686" d="M58.3,200.613c1.944-10,4.065-19.961,6.279-29.9q3.3-14.8,6.952-29.524a.271.271,0,0,1,.176-.411.286.286,0,0,1,.371.1,76.435,76.435,0,0,0,23.895,3.957c.037,0,.073,0,.109,0s.072,0,.109,0a76.435,76.435,0,0,0,23.895-3.957.286.286,0,0,1,.371-.1.272.272,0,0,1,.177.411q3.651,14.72,6.951,29.524c2.214,9.939,4.335,19.9,6.279,29.9,1.9,9.77,3.506,19.831,2.294,29.794a5.43,5.43,0,0,1-.826,2.654,3.614,3.614,0,0,1-2.34,1.264,35.979,35.979,0,0,1-7.049.41c-4.96-.063-9.98-.594-14.9.26-5.82,1.01-11.06,5.039-17.106,4-4.46-.764-8.327-3.225-12.81-4-4.923-.854-9.943-.323-14.9-.26a35.984,35.984,0,0,1-7.05-.41,3.614,3.614,0,0,1-2.34-1.264,5.418,5.418,0,0,1-.825-2.654c-1.213-9.963.393-20.024,2.293-29.794" transform="translate(-3.688 0)" fill="#8a8299"/>
            <path id="Trazado_741687" data-name="Trazado 741687" d="M65.139,335.251c-3.913-3.859-5.651-9.46-6.75-14.7a90.75,90.75,0,0,1-1.652-14.9c.337-22.425.747-44.849,1.082-67.272.127-8.53,2.323-16.174,12.618-17.752a35.453,35.453,0,0,1,11.635.475c4.054.734,6.694,2.606,7.851,6.669,2.047,7.189,1.542,14.949,1.2,22.333a865,865,0,0,1-8.291,87.321c-6.063,2.085-12.687,2.763-17.7-2.177" transform="translate(40.301 0)" fill="#ffcbbf"/>
            <path id="Trazado_741688" data-name="Trazado 741688" d="M137.018,238.382c-.127-8.53-2.323-16.174-12.618-17.753a35.453,35.453,0,0,0-11.635.476c-4.054.733-6.694,2.606-7.851,6.669-2.047,7.189-1.542,14.949-1.2,22.333a826.923,826.923,0,0,0,13.75,119.346q2.477,12.775,5.378,25.465c.443,1.949.958,3.893,1.348,5.853.571,2.871.392,2.75-2.143,4.259-2.944,1.751-6.014,3.326-8.961,5.06a15.518,15.518,0,0,1-3.445.75,16.392,16.392,0,0,0-5.1.917c-.83.358-4.226,1.982-4.342,2.99-.361,3.177,17.353,1.609,19.068,1.494q6.319-.424,12.619-1.135c4.645-.524,6.1-1.353,6.146-6.369.1-12.274.689-24.513.689-36.8-.038-44.519-1.032-89.04-1.7-133.553" transform="translate(-50.425 0)" fill="#d99582"/>
            <path id="Trazado_741689" data-name="Trazado 741689" d="M100.072,416.166c-.177-.626.448-1.5.73-2a11.269,11.269,0,0,1,2.323-2.853,17.437,17.437,0,0,1,6.4-3.5,27.118,27.118,0,0,1,9.4-1.134,14.33,14.33,0,0,1,3.234-5.47,13.451,13.451,0,0,1,2.045-1.752,20.662,20.662,0,0,0,5.406.932,29.389,29.389,0,0,0,9.266-.774,21.328,21.328,0,0,1,.332,5.051q.09,2.883-.044,5.767c-.042.893-.07,1.8-.179,2.687-.212,1.726-2.489,2.089-3.862,2.3-2.409.364-4.816.759-7.234,1.06a121.9,121.9,0,0,1-16.648.919q-4.921-.066-9.828-.531a2.349,2.349,0,0,1-.918-.216.8.8,0,0,1-.414-.485" transform="translate(-50.798 0)" fill="#f2f2f2"/>
            <path id="Trazado_741690" data-name="Trazado 741690" d="M101.14,413.791c4.251.4,8.52.6,12.781.654a90.188,90.188,0,0,0,16.458-1.269c2.422-.418,6.394-.6,8.856-2.18-.032.71-.068,1.423-.154,2.125-.212,1.726-2.489,2.089-3.862,2.3-2.409.365-4.816.76-7.235,1.061a121.876,121.876,0,0,1-16.647.919q-4.923-.066-9.828-.531a2.345,2.345,0,0,1-.918-.216.8.8,0,0,1-.414-.485c-.177-.626.448-1.5.731-2,.071-.129.155-.249.232-.374" transform="translate(-50.903 0)" fill="#4a4a4a"/>
            <path id="Trazado_741691" data-name="Trazado 741691" d="M104.253,403.722a2.359,2.359,0,1,1-2.359,2.359,2.359,2.359,0,0,1,2.359-2.359" transform="translate(-20.028 0)" fill="#4a4a4a"/>
            <path id="Trazado_741692" data-name="Trazado 741692" d="M114.543,400.2a2.512,2.512,0,0,1,2.346-.005c.309.124.174.631-.14.505-.67-.268-1.574-.494-2.132.119s.026,1.256.5,1.679a7.054,7.054,0,0,0,3.952,1.739c.333.034.336.558,0,.524a7.638,7.638,0,0,1-3.863-1.514,3.434,3.434,0,0,1-1.276-1.462,1.387,1.387,0,0,1,.614-1.585" transform="translate(-44.702 0)" fill="#4a4a4a"/>
            <path id="Trazado_741693" data-name="Trazado 741693" d="M117.163,403.346a2.512,2.512,0,0,1,2.346-.005c.309.124.174.631-.14.505-.67-.268-1.574-.494-2.132.119s.026,1.256.5,1.679a7.054,7.054,0,0,0,3.952,1.739c.333.034.336.558,0,.524a7.638,7.638,0,0,1-3.863-1.514,3.434,3.434,0,0,1-1.276-1.462,1.388,1.388,0,0,1,.614-1.585" transform="translate(-49.943 0)" fill="#4a4a4a"/>
            <path id="Trazado_741694" data-name="Trazado 741694" d="M85.371,313.84q-2.262-5.918-4.792-11.729c-1.864-4.286-3.086-5.439-7.892-4-11.763,3.511-23.635,6.541-35.382,10.151q-3.973,1.226-7.94,2.467c.253-1.381.495-2.764.713-4.151.739-4.7,1.327-9.416,2-14.122q1.951-21.15,2.908-42.345c.339-7.384.844-15.144-1.2-22.333-1.157-4.063-3.8-5.935-7.851-6.669A35.452,35.452,0,0,0,14.3,220.63C4,222.208,1.807,229.852,1.68,238.382c-.429,28.724-.59,57.536,3.345,86.056a28.81,28.81,0,0,0,1,4.957c6.033,18.612,24.774,5.441,35.155-.091q11.484-6.12,22.761-12.621c1.734-1,3.44-2.059,5.2-3.007,2.577-1.39,2.514-1.183,4.7.8,2.539,2.3,4.946,4.771,7.469,7.079a15.534,15.534,0,0,1,1.73,3.073,16.366,16.366,0,0,0,2.374,4.608c.587.689,3.136,3.458,4.134,3.272,3.143-.588-3.559-17.06-4.173-18.665" transform="translate(96.633 0)" fill="#d99582"/>
            <path id="Trazado_741695" data-name="Trazado 741695" d="M27.49,221.1q.147-1.623.354-3.243c.066-.513.066-2.462.387-2.746a1.972,1.972,0,0,1,1.126-.476c1.056-.11,2.134-.151,3.177-.19.558-.022,1.114-.043,1.668-.075l.563-.032c2.976-.171,6.054-.347,9.086-.454,9.409-.334,19.007-.234,28.289-.137,3.864.041,7.86.084,11.78.093q6.466.015,12.931.019c.8,0,1.586,0,2.379,0,1.405,0,2.811-.007,4.216,0,.263,0,.612-.034.978-.071a5.3,5.3,0,0,1,2.585.069,1.469,1.469,0,0,1,.617.491,3.634,3.634,0,0,1,.3,1.573c.236,2.1.376,4.2.453,6.315.152,4.136.062,8.276.006,12.412q-.136,10.062-.663,20.111c-.355,6.632-.849,13.339-1.467,20.007-.432,5.974-.915,11.9-1.456,17.761q-.321,2.246-.623,4.494-.628,6.414-1.343,12.762,3.258-1.017,6.519-2.025c6.422-1.973,12.986-3.8,19.333-5.573l2.336-.651.183.416q.309.705.631,1.406a103.638,103.638,0,0,1,4.149,10.53q.421,1.262.835,2.53l.132.4-.551.318c-7.976,4.581-15.426,8.712-22.777,12.629-1.1.586-2.3,1.26-3.563,1.973-6.012,3.385-13.828,7.785-20.475,7.785a11.961,11.961,0,0,1-4.383-.772,11.575,11.575,0,0,1-5.853-5.414c-2.77-3.675-4.162-8.359-5.09-12.79a102.243,102.243,0,0,1-1.772-18.489c-.107-4.3-.061-8.608-.153-12.909q.136-8.311.275-16.548.289-17.116.555-34.228.009-.565.031-1.136a15.493,15.493,0,0,1-7.436.785,21.926,21.926,0,0,1-3.1-.789c.015.382.026.763.031,1.14q.256,17.114.555,34.228c.548,32.555,1.114,66.219,1.143,99.332,0,6.715-.179,13.522-.352,20.1l-.014.5a.523.523,0,0,1-.515.511q-5.355.09-10.711.188c-2.059.038-3.726.084-5.247.147h-.022a.524.524,0,0,1-.511-.408c-1.871-8.329-3.481-15.99-4.922-23.423q-.406-2.1-.8-4.2c-3.015-16.074-5.577-32.831-7.614-49.806-1.947-16.226-3.47-33.114-4.526-50.2-.193-3.123-.415-6.3-.63-9.369-.806-11.529-2.071-23.332-1.027-34.879" transform="translate(24.433 0)" fill="#8a8299"/>
            <path id="Trazado_741696" data-name="Trazado 741696" d="M26.6,332.839c-.553.343-1.563-.018-2.125-.15a11.236,11.236,0,0,1-3.382-1.447,17.433,17.433,0,0,1-5.126-5.183,27.1,27.1,0,0,1-3.68-8.719,14.332,14.332,0,0,1-6.15-1.6,13.484,13.484,0,0,1-2.248-1.483A20.689,20.689,0,0,0,3.3,308.8,29.392,29.392,0,0,0,0,300.11,21.319,21.319,0,0,1,4.764,298.4q2.747-.881,5.555-1.547c.87-.206,1.749-.429,2.633-.569,1.717-.272,2.694,1.816,3.273,3.079,1.015,2.215,2.058,4.42,3.014,6.662a121.817,121.817,0,0,1,5.473,15.749q1.293,4.749,2.2,9.593a2.35,2.35,0,0,1,.045.943.8.8,0,0,1-.352.531" transform="translate(161.49 0)" fill="#f2f2f2"/>
            <path id="Trazado_741697" data-name="Trazado 741697" d="M13.19,332.568c-.791-4.2-1.771-8.356-2.9-12.466a90.159,90.159,0,0,0-5.757-15.47C3.468,302.418,2.2,298.649,0,296.72c.691-.165,1.386-.327,2.085-.438,1.717-.272,2.7,1.816,3.273,3.079,1.015,2.215,2.058,4.42,3.014,6.662a121.87,121.87,0,0,1,5.473,15.749q1.293,4.749,2.2,9.593a2.35,2.35,0,0,1,.045.943.792.792,0,0,1-.352.531c-.553.343-1.563-.018-2.125-.15-.143-.034-.282-.081-.423-.121" transform="translate(172.355 0)" fill="#4a4a4a"/>
            <path id="Trazado_741698" data-name="Trazado 741698" d="M17.447,302.673a2.359,2.359,0,1,1,2.918,1.617,2.359,2.359,0,0,1-2.918-1.617" transform="translate(149.049 0)" fill="#4a4a4a"/>
            <path id="Trazado_741699" data-name="Trazado 741699" d="M18.819,317.47a2.517,2.517,0,0,1-.652-2.253c.034-.332.559-.342.525-.006-.074.719-.042,1.65.7,2.017s1.2-.371,1.476-.942a7.05,7.05,0,0,0,.582-4.279c-.059-.329.444-.477.5-.144a7.632,7.632,0,0,1-.391,4.131,3.426,3.426,0,0,1-1.053,1.629,1.387,1.387,0,0,1-1.693-.153" transform="translate(148.257 0)" fill="#4a4a4a"/>
            <path id="Trazado_741700" data-name="Trazado 741700" d="M15.073,319.123a2.512,2.512,0,0,1-.652-2.253c.034-.332.559-.342.525-.006-.074.719-.042,1.65.7,2.017s1.2-.371,1.476-.942a7.051,7.051,0,0,0,.581-4.279c-.058-.329.445-.477.5-.144a7.623,7.623,0,0,1-.39,4.131,3.421,3.421,0,0,1-1.053,1.629,1.387,1.387,0,0,1-1.693-.153" transform="translate(155.75 0)" fill="#4a4a4a"/>
            <path id="Trazado_741701" data-name="Trazado 741701" d="M55.83,227.019q6.237-.134,12.455-.686c0,.176,0,.351,0,.526q-6.073.533-12.173.675.022,1.97.046,3.938c.016,1.31.007,2.624.11,3.93a14.213,14.213,0,0,0,1.907,6.162,13.913,13.913,0,0,0,9.675,6.665c-.006.176-.012.353-.019.529a14.139,14.139,0,0,1-5-1.782,14.676,14.676,0,0,1-6.93-10.193,31.474,31.474,0,0,1-.256-4.552q-.027-2.343-.055-4.684a.256.256,0,0,1,.045-.147.245.245,0,0,1,.195-.381" transform="translate(64.602 0)" fill="#4a4a4a"/>
            <path id="Trazado_741702" data-name="Trazado 741702" d="M124.82,248.732c-.013-.175-.026-.351-.04-.527a13.917,13.917,0,0,0,9.525-6.641,14.212,14.212,0,0,0,1.907-6.162c.1-1.306.094-2.62.11-3.93s.031-2.625.046-3.938q-6.2-.14-12.372-.691c.005-.175.011-.35.017-.525q6.306.561,12.638.7a.245.245,0,0,1,.2.381.251.251,0,0,1,.045.147q-.027,2.342-.055,4.684a31.465,31.465,0,0,1-.256,4.552,14.676,14.676,0,0,1-6.93,10.193,14.113,14.113,0,0,1-4.83,1.756" transform="translate(-72.409 0)" fill="#4a4a4a"/>
            <path id="Trazado_741703" data-name="Trazado 741703" d="M170.929,133.081a9.473,9.473,0,0,1,.31-1.907,2.717,2.717,0,0,1,.727-1.423,1.3,1.3,0,0,1,1.532-.05l.023.016a4.788,4.788,0,0,1,1.542-2.526c.711-.559,1.569-.108,2.2.342-.512-.365-.278-1.276.105-1.591a2.327,2.327,0,0,1,1.733-.4,39.241,39.241,0,0,1-2.728-5.928,16.35,16.35,0,0,1-.581-1.779,1.686,1.686,0,0,1,.229-1.48c.822-1.019,2.059.164,2.68.805a21.1,21.1,0,0,1,2.217,2.923c.729,1.076,1.453,2.156,2.121,3.272a25.582,25.582,0,0,1,1.926,3.846,17.965,17.965,0,0,0,1.473,3.508,11,11,0,0,1,1.42,1.319c1,1.109.554,2.326.291,3.652q-.518,2.6-1.034,5.2a2.9,2.9,0,0,1-.483,1.438,5.584,5.584,0,0,1-1.418.889l-3.248,1.837-3.763,2.127a.26.26,0,0,1-.265,0,12.82,12.82,0,0,1-4.251-5.594,8.829,8.829,0,0,1-.423-1.295,11.222,11.222,0,0,1-1.816-3.33,10.28,10.28,0,0,1-.519-3.868" transform="translate(-170.911 0)" fill="#d99582"/>
            <g id="Grupo_988523" data-name="Grupo 988523" transform="translate(2.308 125.459)" opacity="0.4" style="mix-blend-mode: overlay;isolation: isolate">
              <g id="Grupo_988522" data-name="Grupo 988522">
                <g id="Grupo_988521" data-name="Grupo 988521" clip-path="url(#clip-path-15)">
                  <path id="Trazado_741704" data-name="Trazado 741704" d="M174.282,139.456a2.113,2.113,0,0,0,1.612-1.277,2.986,2.986,0,0,0,.264-1.062.25.25,0,0,1,0-.055,5.975,5.975,0,0,0-.117-1.472,23.738,23.738,0,0,0-1.7-5.177c-.137-.3.315-.572.452-.264a27.49,27.49,0,0,1,1.125,2.936,16.428,16.428,0,0,1,.727,3.032,5.56,5.56,0,0,1,.03.885,1.772,1.772,0,0,0,2.519.039c.786-.785.639-2.006.461-3.017-.13-.006-.259-.011-.389-.024a8.188,8.188,0,0,1-2.05-.455,2.22,2.22,0,0,1-1.306-1c-.611-1.275,1.341-2.027,2.19-2.409.218-.1.44-.183.662-.27a4.432,4.432,0,0,0-.871-2.021.263.263,0,0,1,.094-.358.267.267,0,0,1,.358.094,4.741,4.741,0,0,1,.914,2.1,15.084,15.084,0,0,1,1.99-.552,8.105,8.105,0,0,0-1.274-3.286c-.188-.281.266-.544.453-.265a8.634,8.634,0,0,1,1.329,3.457c.156-.026.312-.054.469-.075,1.319-.176,2.876-.208,3.864.838.231.245-.139.616-.371.371a3.442,3.442,0,0,0-2.89-.753c-.392.033-.782.093-1.17.163a.283.283,0,0,1-.108.028.1.1,0,0,1-.017,0,14.533,14.533,0,0,0-2.265.622,14.066,14.066,0,0,0-1.734.773c-.4.209-1.107.494-1.2.995-.1.543.608.894,1.02,1.047a7.561,7.561,0,0,0,1.743.418c.225.027.452.04.678.048a.259.259,0,0,1,.248.005,7.952,7.952,0,0,0,3.147-.628c.307-.131.575.32.265.452-.2.085-.4.161-.607.231a.224.224,0,0,1-.1.1,3.162,3.162,0,0,0-1.382,4.069,6.256,6.256,0,0,0,3.879,3.319c.314.117.178.624-.139.506a6.745,6.745,0,0,1-4.283-3.786,3.863,3.863,0,0,1,.713-3.865,8.435,8.435,0,0,1-1.328.125c.2,1.2.279,2.594-.713,3.468a2.312,2.312,0,0,1-2.873.136,3.206,3.206,0,0,1-.447,1.14,2.545,2.545,0,0,1-1.879,1.205c-.335.034-.333-.491,0-.524" transform="translate(-174.032 -125.459)" fill="#320032"/>
                </g>
              </g>
            </g>
            <path id="Trazado_741705" data-name="Trazado 741705" d="M121.384,143.575a50.226,50.226,0,0,1,6.791-4.685c.87,2.074,6.45,7.559,7.332,8.5a101.175,101.175,0,0,0,10.486,9.207,342.087,342.087,0,0,1,10.536-33.815c2.5-6.871,5.94-13.31,12.907-16.488a12.085,12.085,0,0,1,4.94-1.234,6.64,6.64,0,0,1,4.683,1.757c3.391,3.354,3.307,11.6,3.529,16.059.88,17.681-4.821,36.31-14.276,51.174a47.853,47.853,0,0,1-7.1,8.836c-3.041,2.928-8.208,9.275-12.662,5.65-.09-.073-.176-.152-.265-.227-3.22-2.441-5.849-5.765-8.414-8.829q-3.975-4.749-7.535-9.824a130.258,130.258,0,0,1-7.643-13.356c-1.893-3.533-4.028-6.922-6.068-10.366.911-.8,1.823-1.594,2.759-2.362" transform="translate(-112.824 0)" fill="#d99582"/>
            <path id="Trazado_741706" data-name="Trazado 741706" d="M118.347,157.137c4.969-3.117,8.362-6.083,10.679-9.334a.526.526,0,0,1,.8-.062,95.653,95.653,0,0,0,8.457,7.407l.652.528a342.139,342.139,0,0,1,10.351-33.07c2.321-6.386,5.7-13.374,13.183-16.786a12.488,12.488,0,0,1,5.157-1.282h.016a7.161,7.161,0,0,1,5.036,1.909c3.165,3.131,3.437,10.163,3.617,14.815.022.569.042,1.1.067,1.59.848,17.042-4.385,35.806-14.357,51.482a48.583,48.583,0,0,1-7.179,8.933c-.363.349-.756.748-1.176,1.172-2.368,2.4-5.649,5.723-8.957,5.723a5,5,0,0,1-3.224-1.216c-.06-.049-.118-.1-.176-.15l-.074-.066a49.1,49.1,0,0,1-7.711-7.965l-.789-.946c-2.645-3.16-5.189-6.478-7.562-9.859a102.027,102.027,0,0,1-6.374-10.954l-.624-1.179a.525.525,0,0,1,.185-.69" transform="translate(-106.077 0)" fill="#ffb8b8"/>
            <path id="Trazado_741707" data-name="Trazado 741707" d="M170.007,158.68c-1.674,1.613-3.411,3.186-5.178,4.727-.809-1.464-1.591-2.942-2.361-4.4l-.624-1.18a.525.525,0,0,1,.185-.69c4.969-3.117,8.362-6.083,10.679-9.333a.524.524,0,0,1,.8-.062c.943.967,1.932,1.9,2.943,2.8a32.149,32.149,0,0,1-6.447,8.142" transform="translate(-149.759 0)" fill="#f2f2f2"/>
            <path id="Trazado_741708" data-name="Trazado 741708" d="M55.715,115.1c5.231-18.2,32.5-23.464,48.514-20.487,11.379,2.116,28.417,7.894,32.036,20.487a15.956,15.956,0,0,1,.6,4.454c-6.511,11.206-12.522,22.6-16.584,35a109.586,109.586,0,0,0-4.836,21.269q-.177,1.491-.277,2.984a16.409,16.409,0,0,1-1.518,1.052c-9.907,6.062-25.292,6.137-35.322,0a16.544,16.544,0,0,1-1.518-1.052q-.1-1.493-.277-2.984A109.513,109.513,0,0,0,71.7,154.554c-4.062-12.4-10.072-23.794-16.584-35a15.993,15.993,0,0,1,.6-4.454" transform="translate(-3.502 0)" fill="#d99582"/>
            <path id="Trazado_741709" data-name="Trazado 741709" d="M126.548,138.5l-.045.088c-1.647,3.266-3.02,6.622-4.427,10-1.316,3.157.762,7.533,1.5,10.71q1.428,6.118,2.795,12.251c2.424,10.877,4.449,20.521,6.192,29.482.19.979.372,1.938.547,2.884-3.123,1.027-6.215,2.163-9.36,3.119a105.77,105.77,0,0,1-13.31,3.073,103.2,103.2,0,0,1-27.583.657,122.163,122.163,0,0,1-27.9-6.457c.2-1.1.407-2.2.617-3.277,1.749-8.99,3.774-18.633,6.191-29.481,1.331-5.976,2.676-11.952,4.129-17.9,1.677-6.873-3.461-15.034-6.216-21.123-1.691-3.736-3.647-7.422-5.538-10.986l-.4-.753c-.361-.682-.71-1.378-1.061-2.078a38.906,38.906,0,0,0-2.861-5.071l-.349-.493.387-.464a55.7,55.7,0,0,1,52.824-19.353c15.611,2.9,28.274,10.129,37.638,21.483l.4.491-.392.5A107.015,107.015,0,0,0,129.8,132.152c-1.1,2.1-2.192,4.257-3.247,6.345" transform="translate(-1.716 0)" fill="#ffb8b8"/>
            <path id="Trazado_741710" data-name="Trazado 741710" d="M89.361,158.806l.828-5.188q.819-5.138,1.639-10.275l1.648-10.325q.5-3.135,1-6.269a.352.352,0,0,1-.258-.069l-2.532-2.295-1.125-1.021a6.558,6.558,0,0,1-1.008-.969.793.793,0,0,1,.027-.938,13.6,13.6,0,0,1,.834-1.078l3.553-4.485a.221.221,0,0,1,.161-.077.368.368,0,0,1,.093-.012l5.878.053a.329.329,0,0,1,.1.015.287.287,0,0,1,.372.021l3.553,4.485a13.6,13.6,0,0,1,.834,1.078.793.793,0,0,1,.027.938,6.512,6.512,0,0,1-1.008.969l-1.125,1.021-2.532,2.295a.351.351,0,0,1-.258.069q.5,3.135,1,6.269l1.647,10.325q.821,5.138,1.639,10.275l.828,5.188a8.4,8.4,0,0,1-.15,4.837,20.941,20.941,0,0,1-3.015,4.25l-3.6,4.512-.917,1.15a.377.377,0,0,1-.454,0q-.458-.576-.917-1.15l-3.6-4.512a20.908,20.908,0,0,1-3.016-4.25,8.409,8.409,0,0,1-.15-4.837" transform="translate(-6.06 0)" fill="#f0626e"/>
            <path id="Trazado_741711" data-name="Trazado 741711" d="M78.619,105.6c.123-3.988,1.309-8.422,4.44-11.124A10.3,10.3,0,0,1,89.138,92.2a96.622,96.622,0,0,1,16.066,0,10.3,10.3,0,0,1,6.079,2.269c3.131,2.7,4.317,7.136,4.44,11.124.14,4.573-1.254,9.27-4.643,12.472-2.877,2.719-8.276,5-11.358,1.37a14.261,14.261,0,0,1-2.551-5.522,14.29,14.29,0,0,1-2.551,5.522c-3.082,3.627-8.481,1.349-11.358-1.37-3.389-3.2-4.784-7.9-4.643-12.472" transform="translate(-5.864 0)" fill="#f2f2f2"/>
            <path id="Trazado_741712" data-name="Trazado 741712" d="M87.132,74.9c6.376,2.551,13.652,2.235,20.625.309a193.589,193.589,0,0,1,1.248,23.838c-.038,4.636-.554,9.666-3.227,12.988-2.791,3.468-7.3,4.13-11.2,3.03a12,12,0,0,1-7.959-6.7,21.488,21.488,0,0,1-1.2-8.418q.009-1.782.07-3.56c.242-7.169.978-14.336,1.641-21.484" transform="translate(-5.954 0)" fill="#d99582"/>
            <g id="Grupo_988526" data-name="Grupo 988526" transform="translate(79.481 74.896)" opacity="0.4" style="mix-blend-mode: overlay;isolation: isolate">
              <g id="Grupo_988525" data-name="Grupo 988525" transform="translate(0)">
                <g id="Grupo_988524" data-name="Grupo 988524" clip-path="url(#clip-path-16)">
                  <path id="Trazado_741713" data-name="Trazado 741713" d="M87.2,74.9c6.375,2.55,13.649,2.235,20.622.31q.953,8.241,1.176,16.562c-5.682,7.436-14.751,9.048-23.5,7.08q.018-1.234.057-2.468c.242-7.169.978-14.336,1.641-21.484" transform="translate(-85.503 -74.896)" fill="#320032"/>
                </g>
              </g>
            </g>
            <g id="Grupo_988529" data-name="Grupo 988529" transform="translate(58.675 129.943)" opacity="0.4" style="mix-blend-mode: overlay;isolation: isolate">
              <g id="Grupo_988528" data-name="Grupo 988528" transform="translate(0)">
                <g id="Grupo_988527" data-name="Grupo 988527" clip-path="url(#clip-path-17)">
                  <path id="Trazado_741714" data-name="Trazado 741714" d="M126.891,132.036a17.631,17.631,0,0,0,1.231,4.517c.054-2.12.137-4.24.261-6.357.02-.336.544-.338.524,0a191.842,191.842,0,0,0,.212,25.6q.273,3.612.682,7.213c.037.335-.487.332-.525,0a191.982,191.982,0,0,1-1.181-25.573v-.012a.206.206,0,0,1-.231-.132,18.483,18.483,0,0,1-1.5-5.256c-.044-.334.481-.33.524,0" transform="translate(-126.364 -129.943)" fill="#320032"/>
                </g>
              </g>
            </g>
            <path id="Trazado_741715" data-name="Trazado 741715" d="M46.625,48.754q.129-.545.3-1.082a13,13,0,0,1,4.957-7.024c8.131-5.453,16.66,3.719,14.093,12.046a11.506,11.506,0,0,1-11.033,7.879,9.083,9.083,0,0,1-7.582-4.184,10.525,10.525,0,0,1-.731-7.635" transform="translate(75.796 0)" fill="#d99582"/>
            <g id="Grupo_988532" data-name="Grupo 988532" transform="translate(122.042 49.153)" opacity="0.4" style="mix-blend-mode: overlay;isolation: isolate">
              <g id="Grupo_988531" data-name="Grupo 988531" transform="translate(0)">
                <g id="Grupo_988530" data-name="Grupo 988530" clip-path="url(#clip-path-18)">
                  <path id="Trazado_741716" data-name="Trazado 741716" d="M52.132,52.152a16.364,16.364,0,0,0,14.3-2.41,10.481,10.481,0,0,1-.459,2.952,11.5,11.5,0,0,1-11.033,7.879,9.082,9.082,0,0,1-7.583-4.184,10.313,10.313,0,0,1-.818-7.236,20.559,20.559,0,0,0,5.589,3" transform="translate(-46.251 -49.153)" fill="#320032"/>
                </g>
              </g>
            </g>
            <path id="Trazado_741717" data-name="Trazado 741717" d="M144.172,48.754q-.128-.545-.295-1.082a13.007,13.007,0,0,0-4.958-7.024c-8.131-5.453-16.66,3.719-14.093,12.046a11.507,11.507,0,0,0,11.033,7.879,9.086,9.086,0,0,0,7.583-4.184,10.525,10.525,0,0,0,.73-7.635" transform="translate(-80.435 0)" fill="#d99582"/>
            <g id="Grupo_988535" data-name="Grupo 988535" transform="translate(43.932 49.153)" opacity="0.4" style="mix-blend-mode: overlay;isolation: isolate">
              <g id="Grupo_988534" data-name="Grupo 988534">
                <g id="Grupo_988533" data-name="Grupo 988533" clip-path="url(#clip-path-18)">
                  <path id="Trazado_741718" data-name="Trazado 741718" d="M138.666,52.152a16.365,16.365,0,0,1-14.3-2.41,10.481,10.481,0,0,0,.459,2.952,11.5,11.5,0,0,0,11.033,7.879,9.082,9.082,0,0,0,7.583-4.184,10.313,10.313,0,0,0,.818-7.236,20.559,20.559,0,0,1-5.589,3" transform="translate(-124.362 -49.153)" fill="#320032"/>
                </g>
              </g>
            </g>
            <path id="Trazado_741719" data-name="Trazado 741719" d="M131.933,47.458q.021.867.023,1.733c.013,7.53-1.088,15.3-5.074,21.778C120.7,81.017,108.26,86.432,96.14,86.809c-8.816.274-17.994-1.98-24.588-7.622-10.046-8.6-12.121-22.937-11.4-35.862.879-15.854,9.831-31.891,27.536-34.559,16.08-2.424,33.436,4.51,40.207,19.209a49.238,49.238,0,0,1,4.042,19.483" transform="translate(-3.497 0)" fill="#d99582"/>
            <g id="Grupo_988538" data-name="Grupo 988538" transform="translate(101.609 56.305)" opacity="0.4" style="mix-blend-mode: overlay;isolation: isolate">
              <g id="Grupo_988537" data-name="Grupo 988537" transform="translate(0)">
                <g id="Grupo_988536" data-name="Grupo 988536" clip-path="url(#clip-path-20)">
                  <path id="Trazado_741720" data-name="Trazado 741720" d="M76.908,56.306c5.5,0,9.961,2.817,9.961,6.291s-4.46,6.291-9.961,6.291-9.961-2.816-9.961-6.291,4.46-6.291,9.961-6.291" transform="translate(-66.947 -56.305)" fill="#320032"/>
                </g>
              </g>
            </g>
            <g id="Grupo_988541" data-name="Grupo 988541" transform="translate(63.861 56.305)" opacity="0.4" style="mix-blend-mode: overlay;isolation: isolate">
              <g id="Grupo_988540" data-name="Grupo 988540">
                <g id="Grupo_988539" data-name="Grupo 988539" clip-path="url(#clip-path-21)">
                  <path id="Trazado_741721" data-name="Trazado 741721" d="M114.656,56.306c5.5,0,9.961,2.817,9.961,6.291s-4.46,6.291-9.961,6.291-9.961-2.816-9.961-6.291,4.46-6.291,9.961-6.291" transform="translate(-104.695 -56.305)" fill="#320032"/>
                </g>
              </g>
            </g>
            <path id="Trazado_741722" data-name="Trazado 741722" d="M78.991,46.869A2.644,2.644,0,0,1,81.3,49.752a2.365,2.365,0,1,1-4.614,0,2.644,2.644,0,0,1,2.307-2.883" transform="translate(30.496 0)" fill="#4a4a4a"/>
            <path id="Trazado_741723" data-name="Trazado 741723" d="M112.02,46.869a2.644,2.644,0,0,1,2.307,2.883,2.365,2.365,0,1,1-4.614,0,2.644,2.644,0,0,1,2.307-2.883" transform="translate(-35.562 0)" fill="#4a4a4a"/>
            <path id="Trazado_741724" data-name="Trazado 741724" d="M92.934,56.4c.194-.276.617.034.422.311a1,1,0,0,0,1.528,1.286c.009-.009.02-.015.03-.024a.26.26,0,0,1,.032-.026l.041-.024a.248.248,0,0,1,.035-.013.239.239,0,0,1,.229.031c.01.008.017.021.027.031a2.289,2.289,0,0,0,2.618-.376,2.049,2.049,0,0,0,.161-2.714,2.13,2.13,0,0,0-1.388-.893.27.27,0,0,1-.385-.228q-.083-1.8-.029-3.593c.01-.337.535-.338.524,0-.033,1.108-.023,2.217.022,3.325a2.829,2.829,0,0,1,2.218,2.53,2.59,2.59,0,0,1-2.071,2.652,2.673,2.673,0,0,1-1.828-.2,1.592,1.592,0,0,1-1.468.25,1.488,1.488,0,0,1-.99-1.337,1.553,1.553,0,0,1,.272-.987" transform="translate(-3.209 0)" fill="#4a4a4a"/>
            <path id="Trazado_741725" data-name="Trazado 741725" d="M100.176,62.885a4.424,4.424,0,0,1-7.961.177c-.157-.3.3-.564.452-.265a3.9,3.9,0,0,0,7.056-.177c.142-.305.6-.039.453.265" transform="translate(-3.908 0)" fill="#f0626e"/>
            <path id="Trazado_741726" data-name="Trazado 741726" d="M66.064,48.408a.221.221,0,0,1,.131-.068,2.678,2.678,0,0,1,.448-.007H90.721c.149,0,.3,0,.447,0,.074,0,.149,0,.223,0a.322.322,0,0,0,.168-.073l.14-.086c.091-.054.182-.106.275-.156q.276-.15.565-.276a7.862,7.862,0,0,1,1.185-.409,8.211,8.211,0,0,1,2.488-.245,8.04,8.04,0,0,1,2.445.52,7.4,7.4,0,0,1,.734.328c.12.061.238.125.354.193.1.058.241.19.355.2h24.193c.312,0,.623-.005.934-.023a.273.273,0,0,1,.212.061.3.3,0,0,1,.062.191c.011.077.035.152.05.228.019.1.039.206.058.309.037.2.078.4.111.6a13.128,13.128,0,0,1,.154,1.507c.007.18.011.36.011.539a13.107,13.107,0,1,1-25.9-2.856.239.239,0,0,1-.051-.021,7.519,7.519,0,0,0-8.4.028.212.212,0,0,1-.042.018,13.107,13.107,0,1,1-25.549-.177.713.713,0,0,1,.117-.324m46.714,15.915A12.6,12.6,0,0,0,125.361,51.74a12.461,12.461,0,0,0-.348-2.883H100.545a12.407,12.407,0,0,0-.349,2.883,12.6,12.6,0,0,0,12.582,12.583m-34.077,0A12.563,12.563,0,0,0,90.943,48.857H66.468a12.408,12.408,0,0,0-.35,2.883A12.6,12.6,0,0,0,78.7,64.323" transform="translate(-3.001 0)" fill="#f2f2f2"/>
            <path id="Trazado_741727" data-name="Trazado 741727" d="M57.464,23.127a16.083,16.083,0,0,1,3.67-4.1,13.43,13.43,0,0,1,5.643-2.706,6.408,6.408,0,0,1,.116-1.279c.541-2.759,2.57-5.042,4.779-6.654A13.037,13.037,0,0,1,79.8,5.678a10.316,10.316,0,0,1,3.33.718A11.141,11.141,0,0,1,84.9,4.04,13.725,13.725,0,0,1,92.517.161a13.084,13.084,0,0,1,8.234,1.4,13.861,13.861,0,0,1,3.914,3.152,4.737,4.737,0,0,1,4.214-1.645,8.67,8.67,0,0,1,5.386,2.5,9,9,0,0,1,2.259,3.6c0-.046,0-.092,0-.138a10.623,10.623,0,0,1,.426-2.2,6.093,6.093,0,0,1,.826-1.885,1.185,1.185,0,0,1,1.46-.42,1.638,1.638,0,0,1,.911,1.432,5.078,5.078,0,0,1-.4,2.018c-.032.086-.074.167-.108.252a5.262,5.262,0,0,1,.644-.418c1.255-.673,3.151-.927,4.276.158.645.622.188,1.364-.284,1.93a8.044,8.044,0,0,1-1.552,1.419,9.741,9.741,0,0,1-2.107,1.107l.052,0a17.182,17.182,0,0,1,8.839,3.061,11.609,11.609,0,0,1,4.6,7.111,6.959,6.959,0,0,1-.118,3.342,7.952,7.952,0,0,1,1.554,1.363,6.223,6.223,0,0,1,1.262,6.27,5.963,5.963,0,0,1-4.3,3.343,8.05,8.05,0,0,1-5.887-.983,13.215,13.215,0,0,1-3.268-2.791,6.389,6.389,0,0,1-4.493-.047,8.23,8.23,0,0,1-4.09-3.932,20.078,20.078,0,0,1-1.952-6.247c-.079-.471-.141-.944-.2-1.418a6.8,6.8,0,0,1-4.97,2.2c-3.635-.07-6.585-2.706-8.039-5.889a10.872,10.872,0,0,1-.968,1.417,16.893,16.893,0,0,1-5.767,4.33,10.728,10.728,0,0,1-7.231,1.177A9.672,9.672,0,0,1,82.3,23.189a10.029,10.029,0,0,1-.392,5.451,7.08,7.08,0,0,1-2.5,3.252,5.171,5.171,0,0,1-3.75.826,10.667,10.667,0,0,1-4.153,3.69,10.159,10.159,0,0,1-9.209-.129A11.115,11.115,0,0,1,56.4,28.63a7.679,7.679,0,0,1,1.062-5.5" transform="translate(-4.981 0)" fill="#39354d"/>
            <path id="Trazado_741728" data-name="Trazado 741728" d="M112.874,136.453l-48.581,8.889a.519.519,0,0,0-.417.6L77.041,217.9a.52.52,0,0,0,.6.418l48.581-8.889a.521.521,0,0,0,.418-.6L113.478,136.87a.518.518,0,0,0-.6-.417" transform="translate(-2.042 0)" fill="#b5705b"/>
            <path id="Trazado_741729" data-name="Trazado 741729" d="M115.322,135.677l-4.987.913-.218-1.191a.837.837,0,0,0-1.1-.627l-16.968,3.106c-.925.17-.82.894-.8.976l.218,1.191-4.986.913c-1,.183-.961.826-.926,1.017l1.221,6.679c.036.192.228.807,1.227.624L116.843,144c1-.183.962-.826.927-1.018l-1.221-6.678c-.036-.193-.228-.807-1.227-.624" transform="translate(-14.842 0)" fill="#213150"/>
            <path id="Trazado_741730" data-name="Trazado 741730" d="M121.726,128.926c-1.213-4.292-2.977-12.352-7.032-14.862a6.64,6.64,0,0,0-4.957-.665,12.094,12.094,0,0,0-4.54,2.308c-6.078,4.656-7.994,11.7-8.89,18.958-.631,5.112-.947,10.57-1.31,16.111-.208,1.642-.4,3.285-.561,4.932q-.712,7.25-.839,14.542c-.047,2.747-.019,5.495.06,8.242-1.341.188-2.68.392-4.014.622-2.271.392-4.528.856-6.781,1.34-7.177,1.54-14.564,3.435-21.906,3.928-.306.021-1.089.125-2.036.235-.131-.076-.263-.15-.387-.224l-4.544-2.726c-1.159-.7-2.156-1.523-3.536-.957a11.36,11.36,0,0,0-2.715,1.584c-.934-.43-1.772-.963-2.82-.594-1.154.4-2.683,1.624-1.519,2.88v.006a7.569,7.569,0,0,0-.684.467,3.372,3.372,0,0,0-1.119,1.444,2.175,2.175,0,0,0,.057,1.736,2.585,2.585,0,0,0,.927.959.553.553,0,0,1-.11.017l.129-.006.011.006c-.682.446-1.295,1.1-1.023,1.918a4.792,4.792,0,0,0,1.859,2.3l-.022.015a1.3,1.3,0,0,0-.47,1.46,2.714,2.714,0,0,0,1.094,1.165,9.516,9.516,0,0,0,1.692.933,10.243,10.243,0,0,0,3.816.816,11.212,11.212,0,0,0,3.747-.588,8.75,8.75,0,0,0,1.362.038,13.32,13.32,0,0,0,5.93-1.63c2.922.83,5.8,1.8,8.8,2.375a112.532,112.532,0,0,0,14.289,1.45q6.182.379,12.379.234a65.128,65.128,0,0,0,13.051-1.251,2.592,2.592,0,0,0,.756-.263,2.73,2.73,0,0,0,.67-.648A48.392,48.392,0,0,0,119.262,182c5.89-16.6,7.278-36.035,2.464-53.071" transform="translate(22.399 0)" fill="#d99582"/>
            <path id="Trazado_741731" data-name="Trazado 741731" d="M41.511,183.085c3.285-.578,6.6-1.315,9.807-2.028,1.308-.291,2.612-.581,3.908-.86,1.986-.426,4.346-.919,6.792-1.341,1.164-.2,2.406-.394,3.79-.591-.08-2.851-.1-5.476-.054-8.02.083-4.828.366-9.728.84-14.563.146-1.484.33-3.1.561-4.924l.12-1.859c.324-5,.63-9.72,1.191-14.266.827-6.689,2.541-14.194,8.992-19.134a12.219,12.219,0,0,1,4.639-2.356,6.906,6.906,0,0,1,5.154.7c3.7,2.289,5.52,9.021,6.725,13.476.149.55.289,1.067.422,1.538,4.625,16.368,3.725,35.769-2.47,53.23A48.447,48.447,0,0,1,83.16,197.7a2.923,2.923,0,0,1-.739.707,2.806,2.806,0,0,1-.831.293,64.684,64.684,0,0,1-13.1,1.257q-1.713.042-3.438.041c-2.988,0-5.99-.092-8.963-.275l-.663-.04c-3.606-.221-7.336-.449-10.974-.972l-.232-.033.008-.235a34.231,34.231,0,0,0-.419-6.4,35.13,35.13,0,0,0-2.489-8.6l-.137-.307Z" transform="translate(49.979 0)" fill="#ffb8b8"/>
            <path id="Trazado_741732" data-name="Trazado 741732" d="M86.554,183.085c2.335-.411,4.683-.9,7-1.409a63.71,63.71,0,0,1,2.7,8.035,45.892,45.892,0,0,1,1.062,9.772c-2.6-.177-5.238-.4-7.827-.77l-.232-.033.008-.235a34.231,34.231,0,0,0-.419-6.4,35.13,35.13,0,0,0-2.489-8.6l-.137-.307Z" transform="translate(4.936 0)" fill="#f2f2f2"/>
            <g id="Grupo_988544" data-name="Grupo 988544" transform="translate(115.902 130.007)" opacity="0.4" style="mix-blend-mode: overlay;isolation: isolate">
              <g id="Grupo_988543" data-name="Grupo 988543" transform="translate(0)">
                <g id="Grupo_988542" data-name="Grupo 988542" clip-path="url(#clip-path-22)">
                  <path id="Trazado_741733" data-name="Trazado 741733" d="M72.1,130.143a21.989,21.989,0,0,0-1.556,4.96,18.8,18.8,0,0,1-.748-4.1c-.023-.334-.547-.337-.524,0a19.33,19.33,0,0,0,1.082,5.165,46.766,46.766,0,0,0-.491,4.708c-.235,3.978-.345,7.966-.509,11.947q-.143,3.455-.284,6.908c-.014.337.511.336.524,0q.25-6.06.5-12.121a103.979,103.979,0,0,1,.7-10.875.224.224,0,0,0,.205-.31c-.041-.107-.071-.217-.11-.325a22.281,22.281,0,0,1,1.67-5.7c.14-.3-.312-.57-.453-.264" transform="translate(-69.067 -130.007)" fill="#320032"/>
                </g>
              </g>
            </g>
            <path id="Trazado_741734" data-name="Trazado 741734" d="M73.658,39.736a1.3,1.3,0,0,1,.815-.909,2.182,2.182,0,0,1,1.3.121A32.928,32.928,0,0,1,83.8,42.723c.594.384,1.253,1.064.919,1.688-.249.464-.882.52-1.408.5-2.834-.106-8.882-.523-9.695-4.076a2.157,2.157,0,0,1,.038-1.1" transform="translate(30.098 0)" fill="#37334a"/>
            <path id="Trazado_741735" data-name="Trazado 741735" d="M117.751,39.736a1.3,1.3,0,0,0-.815-.909,2.182,2.182,0,0,0-1.3.121,32.91,32.91,0,0,0-8.028,3.775c-.594.384-1.254,1.064-.919,1.688.249.464.882.52,1.408.5,2.834-.106,8.882-.523,9.695-4.076a2.157,2.157,0,0,0-.038-1.1" transform="translate(-35.96 0)" fill="#37334a"/>
          </g>
        </g>
      </g>
    </g>
  </g>
</svg>
