<svg xmlns="http://www.w3.org/2000/svg" width="85" height="92" viewBox="0 0 85 92">
  <g id="Grupo_988601" data-name="Grupo 988601" transform="translate(-1164 -8088)">
    <g id="Grupo_987374" data-name="Grupo 987374" transform="translate(157 5451)">
      <rect id="Rectángulo_338879" data-name="Rectángulo 338879" width="85" height="92" rx="10" transform="translate(1007 2637)" fill="#ff6e33"/>
    </g>
    <g id="Layer_1" transform="translate(1168.74 8097.51)">
      <g id="Grupo_988600" data-name="Grupo 988600" transform="translate(5.26 3.49)">
        <path id="Trazado_741925" data-name="Trazado 741925" d="M37.787,29.07a4.148,4.148,0,0,0,4.144,4.149h1.336V41.51H34.977v1.336a4.148,4.148,0,0,1-8.3,0V41.51H18.39V34.22H29.33a2.829,2.829,0,0,0,2.826-2.826V26.747A2.822,2.822,0,0,0,29.33,23.92H24.281L24.8,22.8a1.6,1.6,0,1,0-2.9-1.352L20.75,23.92H18.39V16.63H43.268v8.293H41.931a4.144,4.144,0,0,0-4.144,4.147Z" transform="translate(-14.915 -13.153)" fill="#f2bf22"/>
        <path id="Trazado_741926" data-name="Trazado 741926" d="M24.339,37.567v4.647a2.829,2.829,0,0,1-2.826,2.826H7.76v-10.3h5.173l1.154-2.472a1.6,1.6,0,1,1,2.9,1.352l-.524,1.119h5.049A2.822,2.822,0,0,1,24.339,37.567Z" transform="translate(-7.098 -23.974)" fill="#ffb69f"/>
        <path id="Trazado_741927" data-name="Trazado 741927" d="M36.339,96.265a2.164,2.164,0,0,1-2.163-2.16v-3.32H29.824a.662.662,0,0,1,0-1.323h5.014a.661.661,0,0,1,.662.662V94.1a.84.84,0,0,0,1.679,0V90.123a.661.661,0,0,1,.662-.662h7.631V87a.662.662,0,0,1,1.323,0v3.127a.661.661,0,0,1-.662.662H38.5V94.1A2.164,2.164,0,0,1,36.339,96.265Zm-9.162-5.48h-.632a.662.662,0,1,1,0-1.323h.632a.662.662,0,0,1,0,1.323Z" transform="translate(-20.426 -64.412)" fill="#f8e5b0"/>
        <path id="Trazado_741928" data-name="Trazado 741928" d="M34.125,32.1v4.647a4.8,4.8,0,0,1-4.8,4.8H18.39V39.571H29.33a2.829,2.829,0,0,0,2.826-2.826V32.1a2.822,2.822,0,0,0-2.826-2.826H24.281l.524-1.119A1.6,1.6,0,1,0,21.9,26.8L20.75,29.271H18.39V27.3H19.5l.625-1.336a3.569,3.569,0,0,1,6.8,1.336H29.33A4.8,4.8,0,0,1,34.125,32.1Z" transform="translate(-14.915 -18.504)" fill="#e8a61e"/>
        <path id="Trazado_741929" data-name="Trazado 741929" d="M153.9,16.62V41.5h-8.293V40.161a4.148,4.148,0,0,0-8.3,0V41.5H129.02V33.207h-1.336a4.148,4.148,0,0,1,0-8.3h1.336V16.62h7.29V27.56a2.826,2.826,0,0,0,2.826,2.826h4.647a2.824,2.824,0,0,0,2.826-2.826V22.511l1.119.524a1.6,1.6,0,1,0,1.352-2.9L146.61,18.98V16.62Z" transform="translate(-92.24 -13.145)" fill="#fc5d3d"/>
        <path id="Trazado_741930" data-name="Trazado 741930" d="M185.346,14.442a1.6,1.6,0,0,1-2.128.775l-1.119-.524v5.049a2.824,2.824,0,0,1-2.826,2.826h-4.647a2.826,2.826,0,0,1-2.826-2.826V5.99h10.3v5.173l2.472,1.154a1.6,1.6,0,0,1,.775,2.125Z" transform="translate(-127.729 -5.328)" fill="#ffb69f"/>
        <path id="Trazado_741931" data-name="Trazado 741931" d="M140.3,45.024h-3.127a.661.661,0,0,1-.662-.662V36.732H133.2a2.163,2.163,0,0,1,0-4.325h3.32V28.054a.662.662,0,1,1,1.323,0v5.014a.661.661,0,0,1-.662.662H133.2a.84.84,0,0,0,0,1.679h3.982a.661.661,0,0,1,.662.662V43.7H140.3a.662.662,0,0,1,0,1.323Zm-3.127-18.955a.661.661,0,0,1-.662-.662v-.632a.662.662,0,1,1,1.323,0v.632A.662.662,0,0,1,137.178,26.069Z" transform="translate(-97.752 -18.656)" fill="#ffcbc3"/>
        <path id="Trazado_741932" data-name="Trazado 741932" d="M178.59,25.149V27.56a4.8,4.8,0,0,1-4.8,4.8h-4.647a4.8,4.8,0,0,1-4.8-4.8V16.62h1.971V27.56a2.826,2.826,0,0,0,2.826,2.826h4.647a2.824,2.824,0,0,0,2.826-2.826V22.511l1.119.524a1.6,1.6,0,1,0,1.352-2.9l-2.472-1.154V16.62h1.969v1.106l1.336.625A3.573,3.573,0,0,1,178.59,25.149Z" transform="translate(-122.25 -13.145)" fill="#b34f33"/>
        <path id="Trazado_741933" data-name="Trazado 741933" d="M169.138,129.17v7.29H158.2a2.829,2.829,0,0,0-2.826,2.826v4.647a2.826,2.826,0,0,0,2.826,2.826h5.049l-.524,1.119a1.6,1.6,0,1,0,2.9,1.352l1.154-2.472h2.36v7.29H144.26v-8.293H145.6a4.148,4.148,0,0,0,0-8.3H144.26V129.17h8.291v-1.336a4.148,4.148,0,0,1,8.3,0v1.336Z" transform="translate(-107.477 -91.882)" fill="#72c2e9"/>
        <path id="Trazado_741934" data-name="Trazado 741934" d="M202.829,171.95v10.3h-5.173l-1.154,2.472a1.6,1.6,0,1,1-2.9-1.352l.524-1.119h-5.049a2.826,2.826,0,0,1-2.826-2.826v-4.647a2.829,2.829,0,0,1,2.826-2.826Z" transform="translate(-138.355 -127.371)" fill="#ffb69f"/>
        <path id="Trazado_741935" data-name="Trazado 741935" d="M152.422,141.121a.661.661,0,0,1-.662-.662v-3.127a.661.661,0,0,1,.662-.662h7.631v-3.32a2.163,2.163,0,0,1,4.325,0v3.32h4.353a.662.662,0,1,1,0,1.323h-5.014a.661.661,0,0,1-.662-.662v-3.982a.84.84,0,0,0-1.679,0v3.982a.661.661,0,0,1-.662.662h-7.631v2.465A.661.661,0,0,1,152.422,141.121Zm19.586-3.127h-.632a.662.662,0,1,1,0-1.323h.632a.662.662,0,1,1,0,1.323Z" transform="translate(-112.992 -97.398)" fill="#c5e5fe"/>
        <path id="Trazado_741936" data-name="Trazado 741936" d="M180.779,169.3v4.647a2.826,2.826,0,0,0,2.826,2.826h5.049l-.524,1.119a1.6,1.6,0,1,0,2.9,1.352l1.154-2.472h2.36v1.969h-1.106l-.625,1.336a3.572,3.572,0,0,1-6.8-1.336h-2.411a4.8,4.8,0,0,1-4.8-4.8V169.3a4.8,4.8,0,0,1,4.8-4.8h10.94v1.971h-10.94A2.829,2.829,0,0,0,180.779,169.3Z" transform="translate(-132.884 -121.892)" fill="#48a6c8"/>
        <path id="Trazado_741937" data-name="Trazado 741937" d="M48.741,156.82a4.146,4.146,0,0,1-4.144,4.147H43.26v8.291H35.97v-10.94a2.829,2.829,0,0,0-2.826-2.826H28.5a2.827,2.827,0,0,0-2.826,2.826v5.049l-1.119-.524a1.6,1.6,0,1,0-1.352,2.9L25.67,166.9v2.36H18.38V144.38h8.293v1.336a4.148,4.148,0,0,0,8.3,0V144.38H43.26v8.291H44.6a4.146,4.146,0,0,1,4.144,4.149Z" transform="translate(-14.908 -107.097)" fill="#13bf6d"/>
        <path id="Trazado_741938" data-name="Trazado 741938" d="M46.791,189.2v13.753h-10.3v-5.173l-2.472-1.154a1.6,1.6,0,1,1,1.352-2.9l1.119.524V189.2a2.827,2.827,0,0,1,2.826-2.826h4.647A2.829,2.829,0,0,1,46.791,189.2Z" transform="translate(-25.729 -137.975)" fill="#ffb69f"/>
        <path id="Trazado_741939" data-name="Trazado 741939" d="M91.876,172.793a.661.661,0,0,1-.662-.662V171.5a.662.662,0,0,1,1.323,0v.632A.661.661,0,0,1,91.876,172.793Zm0-3.278a.661.661,0,0,1-.662-.662V163.84a.661.661,0,0,1,.662-.662h3.982a.84.84,0,0,0,0-1.679H91.876a.661.661,0,0,1-.662-.662v-7.631H88.75a.662.662,0,1,1,0-1.323h3.127a.661.661,0,0,1,.662.662v7.631h3.32a2.163,2.163,0,0,1,0,4.325h-3.32v4.353A.661.661,0,0,1,91.876,169.516Z" transform="translate(-66.169 -112.615)" fill="#76ffbb"/>
        <path id="Trazado_741940" data-name="Trazado 741940" d="M43.292,183.725v10.94H41.321v-10.94a2.829,2.829,0,0,0-2.826-2.826H33.848a2.827,2.827,0,0,0-2.826,2.826v5.049L29.9,188.25a1.6,1.6,0,1,0-1.352,2.9l2.472,1.154v2.36H29.053v-1.106l-1.336-.625a3.569,3.569,0,0,1,1.336-6.8v-2.411a4.8,4.8,0,0,1,4.8-4.8h4.647a4.8,4.8,0,0,1,4.8,4.8Z" transform="translate(-20.259 -132.504)" fill="#139d6d"/>
        <circle id="Elipse_5923" data-name="Elipse 5923" cx="0.662" cy="0.662" r="0.662" transform="translate(9.447 20.405)"/>
        <path id="Trazado_741941" data-name="Trazado 741941" d="M12.722,33.043a.662.662,0,0,0,0-1.323h-6.8a.662.662,0,0,0,0,1.323H8.073v6.629a.661.661,0,0,0,.662.662h7.629v.675a4.81,4.81,0,0,0,9.619,0v-.675h7.629a.661.661,0,0,0,.662-.662V31.381a.661.661,0,0,0-.662-.662H32.276a3.486,3.486,0,0,1,0-6.973h1.336a.661.661,0,0,0,.662-.662V14.792a.661.661,0,0,0-.662-.662H8.735a.661.661,0,0,0-.662.662V21.42H5.922a.662.662,0,0,0,0,1.323H11.1a.667.667,0,0,0,.6-.381l1.154-2.472a.938.938,0,0,1,1.7.791L14.027,21.8a.661.661,0,0,0,.6.942h5.049a2.165,2.165,0,0,1,2.165,2.179H16.8a.662.662,0,0,0,0,1.323h5.041v1.973H16.8a.662.662,0,0,0,0,1.323h5.041a2.163,2.163,0,0,1-2.165,2.178H18.015a.662.662,0,1,0,0,1.323h1.659a3.5,3.5,0,0,0,3.488-3.472V24.908a3.489,3.489,0,0,0-3.488-3.488H15.665l.082-.177a2.262,2.262,0,1,0-4.1-1.913l-.974,2.091H9.4V15.453H32.951v6.97h-.675a4.81,4.81,0,0,0,0,9.619h.675V39.01H25.321a.661.661,0,0,0-.662.662v1.336a3.486,3.486,0,0,1-6.973,0V39.672a.661.661,0,0,0-.662-.662H9.4V33.043Z" transform="translate(-5.26 -11.314)"/>
        <circle id="Elipse_5924" data-name="Elipse 5924" cx="0.662" cy="0.662" r="0.662" transform="translate(43.41 9.445)"/>
        <path id="Trazado_741942" data-name="Trazado 741942" d="M126.517,24.213v7.629a.661.661,0,0,0,.662.662h8.291a.661.661,0,0,0,.662-.662V30.506a3.486,3.486,0,0,1,6.973,0v1.336a.661.661,0,0,0,.662.662h8.293a.661.661,0,0,0,.662-.662V6.965a.661.661,0,0,0-.662-.662h-6.628V4.152a.662.662,0,1,0-1.323,0V9.325a.656.656,0,0,0,.381.6l2.472,1.156a.938.938,0,0,1-.791,1.7l-1.119-.524a.661.661,0,0,0-.942.6V17.9a2.164,2.164,0,0,1-2.18,2.165V15.028a.662.662,0,1,0-1.323,0v5.041h-1.973V15.028a.662.662,0,1,0-1.323,0v5.041a2.165,2.165,0,0,1-2.177-2.165V16.242a.662.662,0,1,0-1.323,0V17.9a3.489,3.489,0,0,0,3.451,3.488h4.684a3.491,3.491,0,0,0,3.488-3.488V13.9l.177.082a2.26,2.26,0,1,0,1.911-4.1L145.431,8.9V7.626H151.4V31.181h-6.97v-.675a4.81,4.81,0,0,0-9.619,0v.675h-6.968V23.551a.661.661,0,0,0-.662-.662h-1.336a3.486,3.486,0,0,1,0-6.973h1.336a.661.661,0,0,0,.662-.662V7.626h5.968V10.95a.662.662,0,1,0,1.323,0v-6.8a.662.662,0,1,0-1.323,0V6.3h-6.63a.661.661,0,0,0-.662.662v7.629h-.675a4.81,4.81,0,0,0,0,9.619Z" transform="translate(-90.399 -3.49)"/>
        <path id="Trazado_741943" data-name="Trazado 741943" d="M163.311,133.963a.662.662,0,0,0,0,1.323h6.8a.662.662,0,1,0,0-1.323h-2.151v-6.628a.661.661,0,0,0-.662-.662H159.67V126a4.81,4.81,0,0,0-9.619,0v.675h-7.629a.661.661,0,0,0-.662.662v8.291a.661.661,0,0,0,.662.662h1.336a3.486,3.486,0,0,1,0,6.973h-1.336a.661.661,0,0,0-.662.662v8.293a.661.661,0,0,0,.662.662H167.3a.661.661,0,0,0,.662-.662v-6.63h2.151a.662.662,0,1,0,0-1.323h-5.173a.665.665,0,0,0-.6.384l-1.154,2.469a.938.938,0,1,1-1.7-.789l.524-1.122a.663.663,0,0,0-.6-.942h-5.049a2.162,2.162,0,0,1-2.165-2.179h5.041a.662.662,0,0,0,0-1.323h-5.041v-1.973h5.041a.662.662,0,0,0,0-1.323h-5.041v-.014a2.163,2.163,0,0,1,2.165-2.165h1.662a.662.662,0,0,0,0-1.323h-1.662a3.5,3.5,0,0,0-3.488,3.456V142.1a3.49,3.49,0,0,0,3.488,3.488h4.009l-.082.177a2.261,2.261,0,1,0,4.1,1.913l.976-2.091h1.278v5.968H143.083v-6.97h.675a4.81,4.81,0,0,0,0-9.619h-.675V128h7.629a.661.661,0,0,0,.662-.662V126a3.486,3.486,0,0,1,6.973,0v1.336a.661.661,0,0,0,.662.662h7.629v5.967Z" transform="translate(-105.638 -90.046)"/>
        <path id="Trazado_741944" data-name="Trazado 741944" d="M210.7,170.112a.663.663,0,1,0,.664-.662A.664.664,0,0,0,210.7,170.112Z" transform="translate(-156.335 -125.532)"/>
        <circle id="Elipse_5925" data-name="Elipse 5925" cx="0.662" cy="0.662" r="0.662" transform="translate(20.4 54.868)"/>
        <path id="Trazado_741945" data-name="Trazado 741945" d="M33.471,170.235a.662.662,0,0,0,1.323,0v-2.15h6.629a.661.661,0,0,0,.662-.662v-7.629h.675a4.81,4.81,0,0,0,0-9.619h-.675v-7.629a.661.661,0,0,0-.662-.662H33.133a.661.661,0,0,0-.662.662v1.336a3.486,3.486,0,0,1-6.973,0v-1.336a.661.661,0,0,0-.662-.662H16.544a.661.661,0,0,0-.662.662v24.878a.661.661,0,0,0,.662.662h6.628v2.15a.662.662,0,1,0,1.323,0v-5.173a.662.662,0,0,0-.381-.6l-2.472-1.154a.939.939,0,0,1,.789-1.7l1.122.527a.664.664,0,0,0,.942-.6v-5.049a2.164,2.164,0,0,1,2.18-2.165v5.042a.662.662,0,1,0,1.323,0v-5.042h1.973v5.042a.662.662,0,1,0,1.323,0v-5.042a2.166,2.166,0,0,1,2.177,2.165v1.662a.662.662,0,1,0,1.323,0v-1.662a3.493,3.493,0,0,0-3.456-3.488H26.66a3.489,3.489,0,0,0-3.488,3.488v4.009l-.177-.082a2.262,2.262,0,0,0-1.913,4.1l2.091.974v1.279H17.205V143.207h6.97v.675a4.81,4.81,0,0,0,9.619,0v-.675h6.968v7.629a.661.661,0,0,0,.662.662H42.76a3.486,3.486,0,0,1,0,6.973H41.424a.661.661,0,0,0-.662.662v7.629H34.794v-3.325a.662.662,0,1,0-1.323,0Z" transform="translate(-13.071 -105.261)"/>
      </g>
    </g>
  </g>
</svg>
