<svg xmlns="http://www.w3.org/2000/svg" xmlns:xlink="http://www.w3.org/1999/xlink" width="295" height="440.755" viewBox="0 0 295 440.755">
  <defs>
    <clipPath id="clip-path">
      <rect id="Rectángulo_345720" data-name="Rectángulo 345720" width="280.179" height="280.179" fill="#effefe"/>
    </clipPath>
    <clipPath id="clip-path-2">
      <rect id="Rectángulo_345723" data-name="Rectángulo 345723" width="14.301" height="38.032" fill="none"/>
    </clipPath>
    <clipPath id="clip-path-3">
      <rect id="Rectángulo_345724" data-name="Rectángulo 345724" width="54.016" height="108.62" fill="none"/>
    </clipPath>
    <clipPath id="clip-path-4">
      <rect id="Rectángulo_345725" data-name="Rectángulo 345725" width="12.256" height="2.666" fill="none"/>
    </clipPath>
    <clipPath id="clip-path-5">
      <rect id="Rectángulo_345726" data-name="Rectángulo 345726" width="11.556" height="2.353" fill="none"/>
    </clipPath>
    <clipPath id="clip-path-6">
      <rect id="Rectángulo_345727" data-name="Rectángulo 345727" width="10.745" height="3.144" fill="none"/>
    </clipPath>
    <clipPath id="clip-path-7">
      <rect id="Rectángulo_345728" data-name="Rectángulo 345728" width="27.028" height="108.631" fill="none"/>
    </clipPath>
    <clipPath id="clip-path-8">
      <rect id="Rectángulo_345729" data-name="Rectángulo 345729" width="16.331" height="45.588" fill="none"/>
    </clipPath>
    <clipPath id="clip-path-9">
      <rect id="Rectángulo_345730" data-name="Rectángulo 345730" width="48.156" height="119.552" fill="none"/>
    </clipPath>
    <clipPath id="clip-path-10">
      <rect id="Rectángulo_345731" data-name="Rectángulo 345731" width="15.667" height="48.661" fill="none"/>
    </clipPath>
  </defs>
  <g id="Grupo_988636" data-name="Grupo 988636" transform="translate(-180 -10206.245)">
    <rect id="Rectángulo_345204" data-name="Rectángulo 345204" width="295" height="398" rx="15" transform="translate(180 10221)" fill="#fad1d9"/>
    <path id="Trazado_741946" data-name="Trazado 741946" d="M168.192,140.089a20.626,20.626,0,0,1-1.4-8.756l-.1-8.756c-.1-5.837-.06-11.674-.061-17.511.057-11.674.24-23.349.408-35.023.21-11.674.352-23.348.618-35.022l.409-17.511c.181-5.837.32-11.674.537-17.511h.258c.218,5.837.357,11.674.537,17.511l.409,17.511c.266,11.674.408,23.348.618,35.022.169,11.674.351,23.349.408,35.023,0,5.837.038,11.674-.061,17.511l-.1,8.756a20.627,20.627,0,0,1-1.4,8.756Z" transform="translate(151.362 10244.862)" fill="#effefe"/>
    <path id="Trazado_741947" data-name="Trazado 741947" d="M163.563,140.619a20.615,20.615,0,0,1-2.9-8.379l-1.621-8.605c-1.111-5.731-2.087-11.486-3.1-17.234-1.97-11.507-3.818-23.035-5.679-34.562-1.82-11.533-3.708-23.055-5.472-34.6l-2.638-17.316c-.836-5.78-1.713-11.552-2.512-17.338l.255-.046c1.227,5.711,2.378,11.435,3.569,17.152L146.9,36.868c2.29,11.45,4.456,22.922,6.69,34.383,2.194,11.468,4.4,22.932,6.484,34.419,1.013,5.749,2.065,11.49,2.98,17.256l1.419,8.64a20.616,20.616,0,0,1,.138,8.867Z" transform="translate(156 10244.426)" fill="#effefe"/>
    <path id="Trazado_741948" data-name="Trazado 741948" d="M158.694,142.016a20.627,20.627,0,0,1-4.314-7.748l-3.091-8.193c-2.09-5.451-4.05-10.949-6.047-16.434-3.939-10.989-7.76-22.022-11.595-33.049-3.8-11.042-7.654-22.061-11.4-33.122l-5.6-16.6c-1.828-5.547-3.693-11.079-5.485-16.639l.243-.089C113.6,15.559,115.732,21,117.9,26.42l6.374,16.315c4.242,10.879,8.369,21.8,12.559,32.7,4.151,10.912,8.315,21.82,12.362,32.77,1.995,5.485,4.029,10.957,5.931,16.476l2.9,8.262a20.631,20.631,0,0,1,1.676,8.708Z" transform="translate(160.894 10243.118)" fill="#effefe"/>
    <path id="Trazado_741949" data-name="Trazado 741949" d="M154.141,144.238a20.629,20.629,0,0,1-5.593-6.881l-4.466-7.532c-3.005-5.005-5.89-10.079-8.809-15.134-5.788-10.139-11.467-20.34-17.158-30.535-5.655-10.216-11.369-20.4-16.976-30.64l-8.4-15.369C89.976,33,87.177,27.878,84.447,22.715l.224-.13c3.107,4.946,6.146,9.932,9.22,14.9L103,52.443c6.068,9.976,12.028,20.016,18.046,30.021,5.983,10.025,11.978,20.045,17.865,30.126,2.918,5.055,5.871,10.091,8.7,15.2l4.29,7.633a20.632,20.632,0,0,1,3.163,8.285Z" transform="translate(165.485 10240.98)" fill="#effefe"/>
    <path id="Trazado_741950" data-name="Trazado 741950" d="M150.046,147.218a20.631,20.631,0,0,1-6.7-5.805l-5.707-6.642c-3.828-4.407-7.551-8.9-11.3-13.375-7.461-8.979-14.824-18.04-22.2-27.091C96.791,85.227,89.4,76.193,82.1,67.079L71.153,53.4c-3.614-4.587-7.259-9.148-10.845-13.759l.2-.166c3.919,4.332,7.778,8.713,11.667,13.069L83.743,65.7c7.708,8.771,15.321,17.623,22.986,26.431,7.633,8.834,15.276,17.661,22.825,26.566,3.751,4.472,7.533,8.918,11.209,13.454l5.55,6.772a20.624,20.624,0,0,1,4.552,7.61Z" transform="translate(169.634 10238.077)" fill="#effefe"/>
    <path id="Trazado_741951" data-name="Trazado 741951" d="M146.531,150.865a20.621,20.621,0,0,1-7.61-4.553l-6.772-5.549c-4.536-3.676-8.983-7.458-13.454-11.209-8.906-7.547-17.731-15.192-26.566-22.825C83.321,99.063,74.468,91.451,65.7,83.743L52.545,72.173c-4.356-3.89-8.738-7.748-13.069-11.667l.166-.2c4.612,3.585,9.172,7.23,13.76,10.845L67.08,82.1c9.113,7.3,18.147,14.7,27.226,22.038,9.051,7.375,18.111,14.739,27.091,22.2,4.471,3.752,8.967,7.475,13.374,11.3l6.642,5.706a20.622,20.622,0,0,1,5.805,6.7Z" transform="translate(173.215 10234.497)" fill="#effefe"/>
    <path id="Trazado_741952" data-name="Trazado 741952" d="M143.7,155.068a20.611,20.611,0,0,1-8.284-3.163l-7.634-4.289c-5.1-2.832-10.14-5.784-15.2-8.7-10.081-5.886-20.1-11.882-30.125-17.864C72.459,115.03,62.419,109.07,52.443,103L37.482,93.893c-4.965-3.075-9.951-6.114-14.9-9.222l.13-.223c5.163,2.729,10.289,5.528,15.433,8.29l15.37,8.4c10.243,5.606,20.425,11.32,30.64,16.976,10.194,5.692,20.4,11.37,30.535,17.158,5.055,2.919,10.129,5.8,15.134,8.809l7.532,4.466a20.629,20.629,0,0,1,6.881,5.593Z" transform="translate(176.118 10230.348)" fill="#effefe"/>
    <path id="Trazado_741953" data-name="Trazado 741953" d="M141.651,159.7a20.63,20.63,0,0,1-8.708-1.676l-8.262-2.9c-5.519-1.9-10.991-3.935-16.476-5.931-10.951-4.047-21.858-8.212-32.77-12.362-10.9-4.19-21.82-8.317-32.7-12.559L26.42,117.9C21,115.732,15.559,113.6,10.149,111.4l.089-.243c5.559,1.792,11.092,3.658,16.639,5.485l16.595,5.6c11.061,3.743,22.08,7.6,33.122,11.4,11.027,3.835,22.059,7.656,33.049,11.595,5.485,2,10.983,3.957,16.434,6.047l8.193,3.091a20.614,20.614,0,0,1,7.748,4.313Z" transform="translate(178.256 10225.756)" fill="#effefe"/>
    <path id="Trazado_741954" data-name="Trazado 741954" d="M140.433,164.616a20.616,20.616,0,0,1-8.867-.138l-8.64-1.419c-5.766-.916-11.508-1.968-17.256-2.98-11.487-2.084-22.951-4.291-34.419-6.483-11.46-2.234-22.932-4.4-34.383-6.691L19.694,143.46c-5.717-1.191-11.441-2.341-17.152-3.569l.046-.255c5.786.8,11.559,1.675,17.338,2.512l17.316,2.638c11.543,1.765,23.065,3.652,34.6,5.472,11.527,1.862,23.055,3.709,34.562,5.679,5.748,1.014,11.5,1.99,17.234,3.1l8.605,1.621a20.61,20.61,0,0,1,8.379,2.9Z" transform="translate(179.563 10220.862)" fill="#effefe"/>
    <path id="Trazado_741955" data-name="Trazado 741955" d="M140.089,169.262a20.627,20.627,0,0,1-8.756,1.4l-8.756.1c-5.837.1-11.674.061-17.511.061-11.675-.057-23.349-.24-35.023-.408-11.674-.21-23.348-.352-35.022-.618l-17.511-.409c-5.836-.181-11.674-.32-17.51-.537V168.6c5.836-.218,11.674-.357,17.51-.537l17.511-.408c11.674-.267,23.348-.408,35.022-.619,11.674-.168,23.348-.351,35.023-.408,5.837,0,11.674-.038,17.511.061l8.756.1a20.626,20.626,0,0,1,8.756,1.4Z" transform="translate(180 10216.225)" fill="#effefe"/>
    <path id="Trazado_741956" data-name="Trazado 741956" d="M140.619,169.493a20.627,20.627,0,0,1-8.379,2.9l-8.605,1.621c-5.731,1.112-11.486,2.088-17.234,3.1-11.507,1.97-23.035,3.818-34.562,5.679-11.533,1.82-23.054,3.708-34.6,5.472l-17.316,2.638c-5.78.836-11.552,1.713-17.338,2.512l-.046-.255c5.711-1.228,11.436-2.378,17.152-3.569l17.174-3.443c11.45-2.29,22.922-4.457,34.383-6.691,11.468-2.193,22.932-4.4,34.419-6.483,5.749-1.013,11.49-2.064,17.256-2.98l8.64-1.419a20.616,20.616,0,0,1,8.867-.138Z" transform="translate(179.563 10215.985)" fill="#effefe"/>
    <path id="Trazado_741957" data-name="Trazado 741957" d="M142.016,169.556a20.631,20.631,0,0,1-7.747,4.314l-8.193,3.091c-5.451,2.09-10.949,4.05-16.434,6.047-10.989,3.939-22.022,7.759-33.049,11.595-11.042,3.8-22.061,7.654-33.122,11.4l-16.6,5.6c-5.547,1.828-11.079,3.693-16.639,5.485l-.089-.243c5.411-2.2,10.848-4.328,16.272-6.493l16.315-6.374c10.879-4.242,21.8-8.369,32.7-12.559,10.912-4.151,21.82-8.315,32.77-12.362,5.485-2,10.957-4.029,16.476-5.931l8.263-2.9a20.624,20.624,0,0,1,8.707-1.676Z" transform="translate(178.256 10215.897)" fill="#effefe"/>
    <path id="Trazado_741958" data-name="Trazado 741958" d="M144.238,169.533a20.628,20.628,0,0,1-6.881,5.593l-7.532,4.466c-5.005,3.005-10.08,5.89-15.134,8.81-10.139,5.787-20.34,11.466-30.535,17.157-10.216,5.655-20.4,11.369-30.64,16.976l-15.37,8.4C33,233.7,27.878,236.5,22.714,239.226L22.585,239c4.946-3.107,9.932-6.146,14.9-9.22l14.961-9.11c9.976-6.068,20.016-12.028,30.021-18.046,10.025-5.983,20.045-11.978,30.125-17.865,5.056-2.917,10.091-5.871,15.2-8.7l7.634-4.29a20.632,20.632,0,0,1,8.285-3.163Z" transform="translate(176.118 10215.883)" fill="#effefe"/>
    <path id="Trazado_741959" data-name="Trazado 741959" d="M147.218,169.49a20.622,20.622,0,0,1-5.805,6.7l-6.642,5.707c-4.407,3.828-8.9,7.551-13.374,11.3-8.98,7.46-18.041,14.824-27.092,22.2-9.078,7.343-18.112,14.738-27.225,22.038L53.4,248.382c-4.588,3.614-9.148,7.259-13.76,10.845l-.166-.2c4.332-3.919,8.713-7.778,13.069-11.667L65.7,235.793c8.771-7.708,17.623-15.321,26.431-22.986,8.835-7.633,17.661-15.276,26.566-22.825,4.472-3.751,8.919-7.533,13.454-11.209l6.772-5.55a20.643,20.643,0,0,1,7.61-4.553Z" transform="translate(173.215 10215.871)" fill="#effefe"/>
    <path id="Trazado_741960" data-name="Trazado 741960" d="M150.865,169.437a20.612,20.612,0,0,1-4.553,7.609l-5.549,6.773c-3.676,4.536-7.457,8.983-11.209,13.454-7.548,8.906-15.193,17.732-22.825,26.567-7.666,8.807-15.278,17.659-22.986,26.431L72.174,263.422c-3.891,4.356-7.749,8.737-11.667,13.069l-.2-.167c3.586-4.611,7.23-9.172,10.845-13.759L82.1,248.888c7.3-9.113,14.7-18.148,22.038-27.226,7.375-9.051,14.739-18.111,22.2-27.091,3.752-4.471,7.475-8.968,11.3-13.375l5.706-6.641a20.615,20.615,0,0,1,6.7-5.805Z" transform="translate(169.634 10215.857)" fill="#effefe"/>
    <path id="Trazado_741961" data-name="Trazado 741961" d="M155.068,169.377a20.619,20.619,0,0,1-3.163,8.285l-4.289,7.634c-2.832,5.1-5.784,10.14-8.7,15.2-5.886,10.081-11.882,20.1-17.864,30.126-6.02,10-11.98,20.044-18.047,30.02L93.893,275.6c-3.075,4.965-6.114,9.951-9.221,14.9l-.224-.13c2.729-5.163,5.528-10.288,8.29-15.433l8.4-15.37c5.606-10.243,11.32-20.424,16.976-30.64,5.692-10.194,11.37-20.4,17.158-30.534,2.919-5.055,5.8-10.129,8.809-15.134l4.466-7.532a20.629,20.629,0,0,1,5.593-6.881Z" transform="translate(165.485 10215.842)" fill="#effefe"/>
    <path id="Trazado_741962" data-name="Trazado 741962" d="M159.7,169.31a20.618,20.618,0,0,1-1.676,8.708l-2.9,8.262c-1.9,5.519-3.935,10.991-5.931,16.476-4.047,10.95-8.212,21.858-12.362,32.77-4.19,10.9-8.317,21.82-12.559,32.7L117.9,284.541c-2.166,5.424-4.293,10.861-6.494,16.272l-.243-.089c1.792-5.559,3.658-11.092,5.485-16.639l5.6-16.595c3.743-11.061,7.6-22.08,11.4-33.122,3.835-11.027,7.656-22.059,11.6-33.049,2-5.485,3.957-10.983,6.047-16.434l3.091-8.193a20.614,20.614,0,0,1,4.313-7.748Z" transform="translate(160.894 10215.824)" fill="#effefe"/>
    <path id="Trazado_741963" data-name="Trazado 741963" d="M164.616,169.238a20.612,20.612,0,0,1-.138,8.866l-1.419,8.641c-.916,5.766-1.968,11.508-2.98,17.256-2.084,11.487-4.29,22.952-6.483,34.42-2.234,11.46-4.4,22.932-6.691,34.383l-3.443,17.174c-1.191,5.717-2.341,11.441-3.569,17.151l-.255-.045c.8-5.786,1.675-11.559,2.512-17.338l2.638-17.316c1.765-11.543,3.652-23.065,5.472-34.6,1.862-11.526,3.709-23.054,5.679-34.561,1.014-5.748,1.99-11.5,3.1-17.235l1.621-8.6a20.627,20.627,0,0,1,2.9-8.379Z" transform="translate(156 10215.806)" fill="#effefe"/>
    <path id="Trazado_741964" data-name="Trazado 741964" d="M169.262,169.165a20.627,20.627,0,0,1,1.4,8.756l.1,8.756c.1,5.837.061,11.674.061,17.511-.057,11.675-.239,23.349-.408,35.023-.21,11.674-.352,23.348-.618,35.022l-.409,17.511c-.181,5.837-.32,11.674-.537,17.511H168.6c-.218-5.837-.357-11.674-.537-17.511l-.408-17.511c-.267-11.674-.408-23.348-.619-35.022-.168-11.674-.351-23.348-.408-35.023,0-5.837-.038-11.674.061-17.511l.1-8.756a20.626,20.626,0,0,1,1.4-8.756Z" transform="translate(151.362 10215.786)" fill="#effefe"/>
    <path id="Trazado_741965" data-name="Trazado 741965" d="M169.493,169.053a20.615,20.615,0,0,1,2.9,8.379l1.621,8.605c1.111,5.731,2.087,11.486,3.1,17.234,1.97,11.507,3.818,23.036,5.679,34.562,1.82,11.533,3.708,23.055,5.472,34.6l2.638,17.316c.836,5.78,1.713,11.552,2.512,17.338l-.255.046c-1.227-5.711-2.378-11.435-3.569-17.152L186.152,272.8c-2.29-11.45-4.456-22.922-6.69-34.383-2.194-11.468-4.4-22.932-6.484-34.419-1.013-5.749-2.064-11.49-2.98-17.256l-1.419-8.641a20.616,20.616,0,0,1-.138-8.867Z" transform="translate(151.123 10215.806)" fill="#effefe"/>
    <path id="Trazado_741966" data-name="Trazado 741966" d="M169.556,168.944a20.628,20.628,0,0,1,4.314,7.748l3.091,8.193c2.09,5.451,4.05,10.949,6.047,16.434,3.939,10.989,7.759,22.022,11.595,33.049,3.8,11.042,7.655,22.061,11.4,33.122l5.6,16.6c1.827,5.547,3.693,11.079,5.485,16.639l-.243.089c-2.2-5.411-4.328-10.848-6.493-16.272l-6.374-16.315c-4.242-10.879-8.369-21.8-12.559-32.7-4.151-10.912-8.315-21.82-12.361-32.77-2-5.485-4.03-10.957-5.932-16.476l-2.9-8.262a20.63,20.63,0,0,1-1.676-8.708Z" transform="translate(151.036 10215.824)" fill="#effefe"/>
    <path id="Trazado_741967" data-name="Trazado 741967" d="M169.533,168.842a20.63,20.63,0,0,1,5.593,6.881l4.466,7.532c3.005,5,5.89,10.079,8.809,15.134,5.788,10.139,11.467,20.34,17.158,30.534,5.655,10.215,11.369,20.4,16.976,30.64l8.4,15.369c2.763,5.145,5.561,10.27,8.291,15.434l-.224.13c-3.107-4.946-6.146-9.932-9.22-14.9l-9.11-14.961c-6.068-9.976-12.028-20.016-18.046-30.021-5.983-10.026-11.978-20.045-17.865-30.126-2.918-5.055-5.871-10.091-8.7-15.2l-4.29-7.634a20.623,20.623,0,0,1-3.163-8.284Z" transform="translate(151.02 10215.842)" fill="#effefe"/>
    <path id="Trazado_741968" data-name="Trazado 741968" d="M169.49,168.75a20.631,20.631,0,0,1,6.7,5.805L181.9,181.2c3.828,4.407,7.551,8.9,11.3,13.375,7.461,8.979,14.824,18.04,22.2,27.091,7.343,9.078,14.738,18.112,22.038,27.226l10.943,13.677c3.614,4.587,7.259,9.147,10.845,13.759l-.2.166c-3.919-4.332-7.778-8.714-11.667-13.069l-11.569-13.151c-7.708-8.771-15.321-17.623-22.986-26.431-7.633-8.834-15.276-17.661-22.825-26.566-3.751-4.472-7.533-8.918-11.209-13.454l-5.55-6.772a20.631,20.631,0,0,1-4.552-7.61Z" transform="translate(151.009 10215.857)" fill="#effefe"/>
    <path id="Trazado_741969" data-name="Trazado 741969" d="M169.437,168.67a20.621,20.621,0,0,1,7.61,4.553l6.772,5.549c4.536,3.676,8.983,7.457,13.454,11.209,8.906,7.547,17.731,15.192,26.566,22.825,8.807,7.665,17.66,15.277,26.431,22.985l13.151,11.57c4.356,3.89,8.737,7.748,13.069,11.667l-.166.2c-4.612-3.585-9.172-7.23-13.76-10.844L248.888,237.44c-9.113-7.3-18.147-14.7-27.226-22.039-9.051-7.374-18.111-14.739-27.091-22.2-4.471-3.753-8.967-7.475-13.374-11.3l-6.642-5.707a20.622,20.622,0,0,1-5.805-6.7Z" transform="translate(150.995 10215.871)" fill="#effefe"/>
    <path id="Trazado_741970" data-name="Trazado 741970" d="M169.377,168.606a20.619,20.619,0,0,1,8.285,3.163l7.634,4.289c5.1,2.832,10.14,5.784,15.2,8.7,10.081,5.886,20.1,11.882,30.125,17.864,10.005,6.02,20.045,11.98,30.021,18.047l14.961,9.109c4.965,3.075,9.951,6.114,14.9,9.221l-.13.224c-5.163-2.729-10.289-5.528-15.433-8.29l-15.37-8.4c-10.243-5.606-20.425-11.32-30.64-16.976-10.194-5.692-20.4-11.37-30.534-17.158-5.055-2.919-10.129-5.8-15.134-8.809l-7.532-4.466a20.63,20.63,0,0,1-6.881-5.593Z" transform="translate(150.98 10215.883)" fill="#effefe"/>
    <path id="Trazado_741971" data-name="Trazado 741971" d="M169.31,168.551a20.63,20.63,0,0,1,8.708,1.676l8.262,2.9c5.519,1.9,10.991,3.935,16.476,5.931,10.95,4.047,21.858,8.212,32.77,12.362,10.9,4.19,21.82,8.317,32.7,12.559l16.315,6.374c5.424,2.166,10.862,4.292,16.272,6.493l-.089.243c-5.559-1.792-11.092-3.658-16.639-5.485L267.49,206c-11.061-3.743-22.08-7.6-33.122-11.4-11.027-3.835-22.059-7.656-33.049-11.595-5.485-2-10.983-3.957-16.434-6.047l-8.193-3.091a20.62,20.62,0,0,1-7.748-4.313Z" transform="translate(150.962 10215.897)" fill="#effefe"/>
    <path id="Trazado_741972" data-name="Trazado 741972" d="M169.238,168.439a20.616,20.616,0,0,1,8.867.138l8.64,1.42c5.766.915,11.508,1.967,17.256,2.98,11.487,2.084,22.951,4.291,34.419,6.483,11.46,2.234,22.932,4.4,34.383,6.691l17.174,3.443c5.717,1.191,11.441,2.342,17.152,3.569l-.046.255c-5.786-.8-11.558-1.675-17.338-2.512l-17.316-2.638c-11.543-1.765-23.064-3.652-34.6-5.472-11.527-1.862-23.055-3.709-34.562-5.679-5.748-1.014-11.5-1.99-17.234-3.1l-8.605-1.621a20.615,20.615,0,0,1-8.379-2.9Z" transform="translate(150.943 10215.985)" fill="#effefe"/>
    <path id="Trazado_741973" data-name="Trazado 741973" d="M169.165,168.192a20.637,20.637,0,0,1,8.756-1.4l8.756-.1c5.837-.1,11.674-.061,17.511-.061,11.674.057,23.349.24,35.023.408,11.674.21,23.348.352,35.022.618l17.511.409c5.837.181,11.675.32,17.511.537v.258c-5.836.218-11.674.357-17.511.537l-17.511.408c-11.674.267-23.348.408-35.022.619-11.674.168-23.349.351-35.023.408-5.837,0-11.674.038-17.511-.061l-8.756-.1a20.624,20.624,0,0,1-8.756-1.4Z" transform="translate(150.924 10216.225)" fill="#effefe"/>
    <path id="Trazado_741974" data-name="Trazado 741974" d="M169.053,163.563a20.615,20.615,0,0,1,8.379-2.9l8.605-1.621c5.731-1.112,11.486-2.088,17.234-3.1,11.507-1.971,23.036-3.818,34.562-5.68,11.533-1.82,23.055-3.708,34.6-5.472l17.316-2.638c5.78-.836,11.552-1.713,17.338-2.512l.046.255c-5.711,1.228-11.436,2.378-17.152,3.569L272.8,146.9c-11.45,2.29-22.922,4.457-34.383,6.691-11.468,2.193-22.932,4.4-34.419,6.483-5.749,1.013-11.49,2.065-17.256,2.98l-8.64,1.419a20.616,20.616,0,0,1-8.867.138Z" transform="translate(150.943 10220.862)" fill="#effefe"/>
    <path id="Trazado_741975" data-name="Trazado 741975" d="M168.945,158.693a20.631,20.631,0,0,1,7.747-4.314l8.193-3.091c5.451-2.09,10.949-4.05,16.434-6.047,10.989-3.939,22.022-7.759,33.049-11.595,11.042-3.8,22.06-7.654,33.122-11.4l16.6-5.6c5.547-1.828,11.079-3.693,16.639-5.485l.089.243c-5.411,2.2-10.848,4.328-16.272,6.493l-16.315,6.374c-10.879,4.242-21.8,8.369-32.7,12.559-10.912,4.151-21.82,8.315-32.77,12.362-5.485,2-10.957,4.029-16.476,5.931l-8.263,2.9a20.624,20.624,0,0,1-8.707,1.676Z" transform="translate(150.962 10225.756)" fill="#effefe"/>
    <path id="Trazado_741976" data-name="Trazado 741976" d="M168.842,154.141a20.629,20.629,0,0,1,6.881-5.593l7.532-4.466c5.005-3.005,10.08-5.89,15.134-8.81,10.14-5.787,20.34-11.466,30.534-17.157,10.216-5.655,20.4-11.369,30.64-16.976l15.37-8.4c5.144-2.763,10.27-5.561,15.434-8.291l.129.224c-4.946,3.107-9.932,6.146-14.9,9.22L260.638,103c-9.977,6.068-20.017,12.028-30.022,18.046-10.025,5.983-20.045,11.978-30.125,17.865-5.056,2.917-10.091,5.87-15.2,8.7l-7.634,4.29a20.632,20.632,0,0,1-8.285,3.163Z" transform="translate(150.98 10230.348)" fill="#effefe"/>
    <path id="Trazado_741977" data-name="Trazado 741977" d="M168.75,150.045a20.622,20.622,0,0,1,5.805-6.7l6.642-5.707c4.407-3.828,8.9-7.551,13.374-11.3,8.98-7.46,18.041-14.824,27.092-22.2,9.078-7.343,18.112-14.738,27.225-22.038l13.678-10.943c4.587-3.614,9.148-7.259,13.759-10.845l.166.2c-4.332,3.919-8.714,7.778-13.069,11.667L250.271,83.742c-8.771,7.708-17.623,15.321-26.431,22.986C215,114.361,206.179,122,197.274,129.553c-4.472,3.751-8.919,7.533-13.454,11.209l-6.772,5.55a20.644,20.644,0,0,1-7.61,4.553Z" transform="translate(150.995 10234.497)" fill="#effefe"/>
    <path id="Trazado_741978" data-name="Trazado 741978" d="M168.671,146.531a20.621,20.621,0,0,1,4.553-7.61l5.549-6.772c3.676-4.536,7.457-8.983,11.209-13.454,7.548-8.906,15.193-17.732,22.826-26.567,7.665-8.807,15.277-17.659,22.985-26.431l11.57-13.151c3.89-4.356,7.748-8.738,11.667-13.069l.2.166c-3.586,4.612-7.23,9.172-10.845,13.76L237.44,67.08c-7.3,9.113-14.7,18.148-22.038,27.226-7.375,9.051-14.739,18.111-22.2,27.091-3.752,4.471-7.475,8.967-11.3,13.374l-5.706,6.642a20.615,20.615,0,0,1-6.7,5.805Z" transform="translate(151.009 10238.077)" fill="#effefe"/>
    <path id="Trazado_741979" data-name="Trazado 741979" d="M168.606,143.7a20.62,20.62,0,0,1,3.163-8.285l4.289-7.634c2.832-5.1,5.784-10.14,8.7-15.2,5.886-10.081,11.882-20.1,17.864-30.126,6.02-10,11.98-20.044,18.047-30.021l9.109-14.96c3.075-4.965,6.114-9.951,9.221-14.9l.224.129C236.5,27.878,233.7,33,230.935,38.148l-8.4,15.37c-5.606,10.243-11.32,20.424-16.976,30.64-5.692,10.194-11.37,20.395-17.158,30.535-2.919,5.054-5.8,10.129-8.809,15.134l-4.466,7.532a20.638,20.638,0,0,1-5.593,6.881Z" transform="translate(151.02 10240.98)" fill="#effefe"/>
    <path id="Trazado_741980" data-name="Trazado 741980" d="M168.552,141.65a20.618,20.618,0,0,1,1.676-8.708l2.9-8.262c1.9-5.519,3.935-10.991,5.931-16.476,4.047-10.95,8.212-21.858,12.362-32.77,4.19-10.9,8.317-21.82,12.559-32.7l6.373-16.316c2.166-5.423,4.293-10.86,6.494-16.271l.243.089C215.3,15.8,213.432,21.328,211.6,26.875L206,43.47c-3.742,11.061-7.6,22.08-11.4,33.122-3.835,11.027-7.656,22.059-11.6,33.049-2,5.485-3.957,10.983-6.047,16.434l-3.091,8.193a20.614,20.614,0,0,1-4.313,7.748Z" transform="translate(151.036 10243.118)" fill="#effefe"/>
    <path id="Trazado_741981" data-name="Trazado 741981" d="M168.439,140.433a20.612,20.612,0,0,1,.138-8.866L170,122.927c.916-5.765,1.968-11.508,2.98-17.256,2.084-11.487,4.29-22.952,6.483-34.42,2.234-11.46,4.4-22.932,6.691-34.383L189.6,19.694c1.191-5.717,2.341-11.441,3.569-17.151l.255.045c-.8,5.786-1.675,11.559-2.512,17.338l-2.638,17.316c-1.765,11.543-3.652,23.065-5.472,34.6-1.862,11.526-3.709,23.054-5.679,34.561-1.014,5.749-1.99,11.5-3.1,17.235l-1.621,8.6a20.623,20.623,0,0,1-2.9,8.379Z" transform="translate(151.123 10244.425)" fill="#effefe"/>
    <g id="Grupo_988604" data-name="Grupo 988604" transform="translate(180 10244.862)" opacity="0.85">
      <g id="Grupo_988603" data-name="Grupo 988603">
        <g id="Grupo_988602" data-name="Grupo 988602" clip-path="url(#clip-path)">
          <path id="Trazado_741982" data-name="Trazado 741982" d="M168.192,140.089a20.626,20.626,0,0,1-1.4-8.756l-.1-8.756c-.1-5.837-.06-11.674-.061-17.511.057-11.674.24-23.349.408-35.023.21-11.674.352-23.348.618-35.022l.409-17.511c.181-5.837.32-11.674.537-17.511h.258c.218,5.837.357,11.674.537,17.511l.409,17.511c.266,11.674.408,23.348.618,35.022.169,11.674.351,23.349.408,35.023,0,5.837.038,11.674-.061,17.511l-.1,8.756a20.627,20.627,0,0,1-1.4,8.756Z" transform="translate(-28.638)" fill="#effefe"/>
          <path id="Trazado_741983" data-name="Trazado 741983" d="M163.563,140.619a20.615,20.615,0,0,1-2.9-8.379l-1.621-8.605c-1.111-5.731-2.087-11.486-3.1-17.234-1.97-11.507-3.818-23.035-5.679-34.562-1.82-11.533-3.708-23.055-5.472-34.6l-2.638-17.316c-.836-5.78-1.713-11.552-2.512-17.338l.255-.046c1.227,5.711,2.378,11.435,3.569,17.152L146.9,36.868c2.29,11.45,4.456,22.922,6.69,34.383,2.194,11.468,4.4,22.932,6.484,34.419,1.013,5.749,2.065,11.49,2.98,17.256l1.419,8.64a20.616,20.616,0,0,1,.138,8.867Z" transform="translate(-24 -0.437)" fill="#effefe"/>
          <path id="Trazado_741984" data-name="Trazado 741984" d="M158.694,142.016a20.627,20.627,0,0,1-4.314-7.748l-3.091-8.193c-2.09-5.451-4.05-10.949-6.047-16.434-3.939-10.989-7.76-22.022-11.595-33.049-3.8-11.042-7.654-22.061-11.4-33.122l-5.6-16.6c-1.828-5.547-3.693-11.079-5.485-16.639l.243-.089C113.6,15.559,115.732,21,117.9,26.42l6.374,16.315c4.242,10.879,8.369,21.8,12.559,32.7,4.151,10.912,8.315,21.82,12.362,32.77,1.995,5.485,4.029,10.957,5.931,16.476l2.9,8.262a20.631,20.631,0,0,1,1.676,8.708Z" transform="translate(-19.106 -1.744)" fill="#effefe"/>
          <path id="Trazado_741985" data-name="Trazado 741985" d="M154.141,144.238a20.629,20.629,0,0,1-5.593-6.881l-4.466-7.532c-3.005-5.005-5.89-10.079-8.809-15.134-5.788-10.139-11.467-20.34-17.158-30.535-5.655-10.216-11.369-20.4-16.976-30.64l-8.4-15.369C89.976,33,87.177,27.878,84.447,22.715l.224-.13c3.107,4.946,6.146,9.932,9.22,14.9L103,52.443c6.068,9.976,12.028,20.016,18.046,30.021,5.983,10.025,11.978,20.045,17.865,30.126,2.918,5.055,5.871,10.091,8.7,15.2l4.29,7.633a20.632,20.632,0,0,1,3.163,8.285Z" transform="translate(-14.515 -3.882)" fill="#effefe"/>
          <path id="Trazado_741986" data-name="Trazado 741986" d="M150.046,147.218a20.631,20.631,0,0,1-6.7-5.805l-5.707-6.642c-3.828-4.407-7.551-8.9-11.3-13.375-7.461-8.979-14.824-18.04-22.2-27.091C96.791,85.227,89.4,76.193,82.1,67.079L71.153,53.4c-3.614-4.587-7.259-9.148-10.845-13.759l.2-.166c3.919,4.332,7.778,8.713,11.667,13.069L83.743,65.7c7.708,8.771,15.321,17.623,22.986,26.431,7.633,8.834,15.276,17.661,22.825,26.566,3.751,4.472,7.533,8.918,11.209,13.454l5.55,6.772a20.624,20.624,0,0,1,4.552,7.61Z" transform="translate(-10.366 -6.785)" fill="#effefe"/>
          <path id="Trazado_741987" data-name="Trazado 741987" d="M146.531,150.865a20.621,20.621,0,0,1-7.61-4.553l-6.772-5.549c-4.536-3.676-8.983-7.458-13.454-11.209-8.906-7.547-17.731-15.192-26.566-22.825C83.321,99.063,74.468,91.451,65.7,83.743L52.545,72.173c-4.356-3.89-8.738-7.748-13.069-11.667l.166-.2c4.612,3.585,9.172,7.23,13.76,10.845L67.08,82.1c9.113,7.3,18.147,14.7,27.226,22.038,9.051,7.375,18.111,14.739,27.091,22.2,4.471,3.752,8.967,7.475,13.374,11.3l6.642,5.706a20.622,20.622,0,0,1,5.805,6.7Z" transform="translate(-6.785 -10.366)" fill="#effefe"/>
          <path id="Trazado_741988" data-name="Trazado 741988" d="M143.7,155.068a20.611,20.611,0,0,1-8.284-3.163l-7.634-4.289c-5.1-2.832-10.14-5.784-15.2-8.7-10.081-5.886-20.1-11.882-30.125-17.864C72.459,115.03,62.419,109.07,52.443,103L37.482,93.893c-4.965-3.075-9.951-6.114-14.9-9.222l.13-.223c5.163,2.729,10.289,5.528,15.433,8.29l15.37,8.4c10.243,5.606,20.425,11.32,30.64,16.976,10.194,5.692,20.4,11.37,30.535,17.158,5.055,2.919,10.129,5.8,15.134,8.809l7.532,4.466a20.629,20.629,0,0,1,6.881,5.593Z" transform="translate(-3.882 -14.515)" fill="#effefe"/>
          <path id="Trazado_741989" data-name="Trazado 741989" d="M141.651,159.7a20.63,20.63,0,0,1-8.708-1.676l-8.262-2.9c-5.519-1.9-10.991-3.935-16.476-5.931-10.951-4.047-21.858-8.212-32.77-12.362-10.9-4.19-21.82-8.317-32.7-12.559L26.42,117.9C21,115.732,15.559,113.6,10.149,111.4l.089-.243c5.559,1.792,11.092,3.658,16.639,5.485l16.595,5.6c11.061,3.743,22.08,7.6,33.122,11.4,11.027,3.835,22.059,7.656,33.049,11.595,5.485,2,10.983,3.957,16.434,6.047l8.193,3.091a20.614,20.614,0,0,1,7.748,4.313Z" transform="translate(-1.744 -19.106)" fill="#effefe"/>
          <path id="Trazado_741990" data-name="Trazado 741990" d="M140.433,164.616a20.616,20.616,0,0,1-8.867-.138l-8.64-1.419c-5.766-.916-11.508-1.968-17.256-2.98-11.487-2.084-22.951-4.291-34.419-6.483-11.46-2.234-22.932-4.4-34.383-6.691L19.694,143.46c-5.717-1.191-11.441-2.341-17.152-3.569l.046-.255c5.786.8,11.559,1.675,17.338,2.512l17.316,2.638c11.543,1.765,23.065,3.652,34.6,5.472,11.527,1.862,23.055,3.709,34.562,5.679,5.748,1.014,11.5,1.99,17.234,3.1l8.605,1.621a20.61,20.61,0,0,1,8.379,2.9Z" transform="translate(-0.437 -24)" fill="#effefe"/>
          <path id="Trazado_741991" data-name="Trazado 741991" d="M140.089,169.262a20.627,20.627,0,0,1-8.756,1.4l-8.756.1c-5.837.1-11.674.061-17.511.061-11.675-.057-23.349-.24-35.023-.408-11.674-.21-23.348-.352-35.022-.618l-17.511-.409c-5.836-.181-11.674-.32-17.51-.537V168.6c5.836-.218,11.674-.357,17.51-.537l17.511-.408c11.674-.267,23.348-.408,35.022-.619,11.674-.168,23.348-.351,35.023-.408,5.837,0,11.674-.038,17.511.061l8.756.1a20.626,20.626,0,0,1,8.756,1.4Z" transform="translate(0 -28.638)" fill="#effefe"/>
          <path id="Trazado_741992" data-name="Trazado 741992" d="M140.619,169.493a20.627,20.627,0,0,1-8.379,2.9l-8.605,1.621c-5.731,1.112-11.486,2.088-17.234,3.1-11.507,1.97-23.035,3.818-34.562,5.679-11.533,1.82-23.054,3.708-34.6,5.472l-17.316,2.638c-5.78.836-11.552,1.713-17.338,2.512l-.046-.255c5.711-1.228,11.436-2.378,17.152-3.569l17.174-3.443c11.45-2.29,22.922-4.457,34.383-6.691,11.468-2.193,22.932-4.4,34.419-6.483,5.749-1.013,11.49-2.064,17.256-2.98l8.64-1.419a20.616,20.616,0,0,1,8.867-.138Z" transform="translate(-0.437 -28.877)" fill="#effefe"/>
          <path id="Trazado_741993" data-name="Trazado 741993" d="M142.016,169.556a20.631,20.631,0,0,1-7.747,4.314l-8.193,3.091c-5.451,2.09-10.949,4.05-16.434,6.047-10.989,3.939-22.022,7.759-33.049,11.595-11.042,3.8-22.061,7.654-33.122,11.4l-16.6,5.6c-5.547,1.828-11.079,3.693-16.639,5.485l-.089-.243c5.411-2.2,10.848-4.328,16.272-6.493l16.315-6.374c10.879-4.242,21.8-8.369,32.7-12.559,10.912-4.151,21.82-8.315,32.77-12.362,5.485-2,10.957-4.029,16.476-5.931l8.263-2.9a20.624,20.624,0,0,1,8.707-1.676Z" transform="translate(-1.744 -28.964)" fill="#effefe"/>
          <path id="Trazado_741994" data-name="Trazado 741994" d="M144.238,169.533a20.628,20.628,0,0,1-6.881,5.593l-7.532,4.466c-5.005,3.005-10.08,5.89-15.134,8.81-10.139,5.787-20.34,11.466-30.535,17.157-10.216,5.655-20.4,11.369-30.64,16.976l-15.37,8.4C33,233.7,27.878,236.5,22.714,239.226L22.585,239c4.946-3.107,9.932-6.146,14.9-9.22l14.961-9.11c9.976-6.068,20.016-12.028,30.021-18.046,10.025-5.983,20.045-11.978,30.125-17.865,5.056-2.917,10.091-5.871,15.2-8.7l7.634-4.29a20.632,20.632,0,0,1,8.285-3.163Z" transform="translate(-3.882 -28.98)" fill="#effefe"/>
          <path id="Trazado_741995" data-name="Trazado 741995" d="M147.218,169.49a20.622,20.622,0,0,1-5.805,6.7l-6.642,5.707c-4.407,3.828-8.9,7.551-13.374,11.3-8.98,7.46-18.041,14.824-27.092,22.2-9.078,7.343-18.112,14.738-27.225,22.038L53.4,248.382c-4.588,3.614-9.148,7.259-13.76,10.845l-.166-.2c4.332-3.919,8.713-7.778,13.069-11.667L65.7,235.793c8.771-7.708,17.623-15.321,26.431-22.986,8.835-7.633,17.661-15.276,26.566-22.825,4.472-3.751,8.919-7.533,13.454-11.209l6.772-5.55a20.643,20.643,0,0,1,7.61-4.553Z" transform="translate(-6.785 -28.991)" fill="#effefe"/>
          <path id="Trazado_741996" data-name="Trazado 741996" d="M150.865,169.437a20.612,20.612,0,0,1-4.553,7.609l-5.549,6.773c-3.676,4.536-7.457,8.983-11.209,13.454-7.548,8.906-15.193,17.732-22.825,26.567-7.666,8.807-15.278,17.659-22.986,26.431L72.174,263.422c-3.891,4.356-7.749,8.737-11.667,13.069l-.2-.167c3.586-4.611,7.23-9.172,10.845-13.759L82.1,248.888c7.3-9.113,14.7-18.148,22.038-27.226,7.375-9.051,14.739-18.111,22.2-27.091,3.752-4.471,7.475-8.968,11.3-13.375l5.706-6.641a20.615,20.615,0,0,1,6.7-5.805Z" transform="translate(-10.366 -29.005)" fill="#effefe"/>
          <path id="Trazado_741997" data-name="Trazado 741997" d="M155.068,169.377a20.619,20.619,0,0,1-3.163,8.285l-4.289,7.634c-2.832,5.1-5.784,10.14-8.7,15.2-5.886,10.081-11.882,20.1-17.864,30.126-6.02,10-11.98,20.044-18.047,30.02L93.893,275.6c-3.075,4.965-6.114,9.951-9.221,14.9l-.224-.13c2.729-5.163,5.528-10.288,8.29-15.433l8.4-15.37c5.606-10.243,11.32-20.424,16.976-30.64,5.692-10.194,11.37-20.4,17.158-30.534,2.919-5.055,5.8-10.129,8.809-15.134l4.466-7.532a20.629,20.629,0,0,1,5.593-6.881Z" transform="translate(-14.515 -29.02)" fill="#effefe"/>
          <path id="Trazado_741998" data-name="Trazado 741998" d="M159.7,169.31a20.618,20.618,0,0,1-1.676,8.708l-2.9,8.262c-1.9,5.519-3.935,10.991-5.931,16.476-4.047,10.95-8.212,21.858-12.362,32.77-4.19,10.9-8.317,21.82-12.559,32.7L117.9,284.541c-2.166,5.424-4.293,10.861-6.494,16.272l-.243-.089c1.792-5.559,3.658-11.092,5.485-16.639l5.6-16.595c3.743-11.061,7.6-22.08,11.4-33.122,3.835-11.027,7.656-22.059,11.6-33.049,2-5.485,3.957-10.983,6.047-16.434l3.091-8.193a20.614,20.614,0,0,1,4.313-7.748Z" transform="translate(-19.106 -29.038)" fill="#effefe"/>
          <path id="Trazado_741999" data-name="Trazado 741999" d="M164.616,169.238a20.612,20.612,0,0,1-.138,8.866l-1.419,8.641c-.916,5.766-1.968,11.508-2.98,17.256-2.084,11.487-4.29,22.952-6.483,34.42-2.234,11.46-4.4,22.932-6.691,34.383l-3.443,17.174c-1.191,5.717-2.341,11.441-3.569,17.151l-.255-.045c.8-5.786,1.675-11.559,2.512-17.338l2.638-17.316c1.765-11.543,3.652-23.065,5.472-34.6,1.862-11.526,3.709-23.054,5.679-34.561,1.014-5.748,1.99-11.5,3.1-17.235l1.621-8.6a20.627,20.627,0,0,1,2.9-8.379Z" transform="translate(-24 -29.057)" fill="#effefe"/>
          <path id="Trazado_742000" data-name="Trazado 742000" d="M169.262,169.165a20.627,20.627,0,0,1,1.4,8.756l.1,8.756c.1,5.837.061,11.674.061,17.511-.057,11.675-.239,23.349-.408,35.023-.21,11.674-.352,23.348-.618,35.022l-.409,17.511c-.181,5.837-.32,11.674-.537,17.511H168.6c-.218-5.837-.357-11.674-.537-17.511l-.408-17.511c-.267-11.674-.408-23.348-.619-35.022-.168-11.674-.351-23.348-.408-35.023,0-5.837-.038-11.674.061-17.511l.1-8.756a20.626,20.626,0,0,1,1.4-8.756Z" transform="translate(-28.638 -29.076)" fill="#effefe"/>
          <path id="Trazado_742001" data-name="Trazado 742001" d="M169.493,169.053a20.615,20.615,0,0,1,2.9,8.379l1.621,8.605c1.111,5.731,2.087,11.486,3.1,17.234,1.97,11.507,3.818,23.036,5.679,34.562,1.82,11.533,3.708,23.055,5.472,34.6l2.638,17.316c.836,5.78,1.713,11.552,2.512,17.338l-.255.046c-1.227-5.711-2.378-11.435-3.569-17.152L186.152,272.8c-2.29-11.45-4.456-22.922-6.69-34.383-2.194-11.468-4.4-22.932-6.484-34.419-1.013-5.749-2.064-11.49-2.98-17.256l-1.419-8.641a20.616,20.616,0,0,1-.138-8.867Z" transform="translate(-28.877 -29.057)" fill="#effefe"/>
          <path id="Trazado_742002" data-name="Trazado 742002" d="M169.556,168.944a20.628,20.628,0,0,1,4.314,7.748l3.091,8.193c2.09,5.451,4.05,10.949,6.047,16.434,3.939,10.989,7.759,22.022,11.595,33.049,3.8,11.042,7.655,22.061,11.4,33.122l5.6,16.6c1.827,5.547,3.693,11.079,5.485,16.639l-.243.089c-2.2-5.411-4.328-10.848-6.493-16.272l-6.374-16.315c-4.242-10.879-8.369-21.8-12.559-32.7-4.151-10.912-8.315-21.82-12.361-32.77-2-5.485-4.03-10.957-5.932-16.476l-2.9-8.262a20.63,20.63,0,0,1-1.676-8.708Z" transform="translate(-28.964 -29.038)" fill="#effefe"/>
          <path id="Trazado_742003" data-name="Trazado 742003" d="M169.533,168.842a20.63,20.63,0,0,1,5.593,6.881l4.466,7.532c3.005,5,5.89,10.079,8.809,15.134,5.788,10.139,11.467,20.34,17.158,30.534,5.655,10.215,11.369,20.4,16.976,30.64l8.4,15.369c2.763,5.145,5.561,10.27,8.291,15.434l-.224.13c-3.107-4.946-6.146-9.932-9.22-14.9l-9.11-14.961c-6.068-9.976-12.028-20.016-18.046-30.021-5.983-10.026-11.978-20.045-17.865-30.126-2.918-5.055-5.871-10.091-8.7-15.2l-4.29-7.634a20.623,20.623,0,0,1-3.163-8.284Z" transform="translate(-28.98 -29.02)" fill="#effefe"/>
          <path id="Trazado_742004" data-name="Trazado 742004" d="M169.49,168.75a20.631,20.631,0,0,1,6.7,5.805L181.9,181.2c3.828,4.407,7.551,8.9,11.3,13.375,7.461,8.979,14.824,18.04,22.2,27.091,7.343,9.078,14.738,18.112,22.038,27.226l10.943,13.677c3.614,4.587,7.259,9.147,10.845,13.759l-.2.166c-3.919-4.332-7.778-8.714-11.667-13.069l-11.569-13.151c-7.708-8.771-15.321-17.623-22.986-26.431-7.633-8.834-15.276-17.661-22.825-26.566-3.751-4.472-7.533-8.918-11.209-13.454l-5.55-6.772a20.631,20.631,0,0,1-4.552-7.61Z" transform="translate(-28.991 -29.005)" fill="#effefe"/>
          <path id="Trazado_742005" data-name="Trazado 742005" d="M169.437,168.67a20.621,20.621,0,0,1,7.61,4.553l6.772,5.549c4.536,3.676,8.983,7.457,13.454,11.209,8.906,7.547,17.731,15.192,26.566,22.825,8.807,7.665,17.66,15.277,26.431,22.985l13.151,11.57c4.356,3.89,8.737,7.748,13.069,11.667l-.166.2c-4.612-3.585-9.172-7.23-13.76-10.844L248.888,237.44c-9.113-7.3-18.147-14.7-27.226-22.039-9.051-7.374-18.111-14.739-27.091-22.2-4.471-3.753-8.967-7.475-13.374-11.3l-6.642-5.707a20.622,20.622,0,0,1-5.805-6.7Z" transform="translate(-29.005 -28.991)" fill="#effefe"/>
          <path id="Trazado_742006" data-name="Trazado 742006" d="M169.377,168.606a20.619,20.619,0,0,1,8.285,3.163l7.634,4.289c5.1,2.832,10.14,5.784,15.2,8.7,10.081,5.886,20.1,11.882,30.125,17.864,10.005,6.02,20.045,11.98,30.021,18.047l14.961,9.109c4.965,3.075,9.951,6.114,14.9,9.221l-.13.224c-5.163-2.729-10.289-5.528-15.433-8.29l-15.37-8.4c-10.243-5.606-20.425-11.32-30.64-16.976-10.194-5.692-20.4-11.37-30.534-17.158-5.055-2.919-10.129-5.8-15.134-8.809l-7.532-4.466a20.63,20.63,0,0,1-6.881-5.593Z" transform="translate(-29.02 -28.98)" fill="#effefe"/>
          <path id="Trazado_742007" data-name="Trazado 742007" d="M169.31,168.551a20.63,20.63,0,0,1,8.708,1.676l8.262,2.9c5.519,1.9,10.991,3.935,16.476,5.931,10.95,4.047,21.858,8.212,32.77,12.362,10.9,4.19,21.82,8.317,32.7,12.559l16.315,6.374c5.424,2.166,10.862,4.292,16.272,6.493l-.089.243c-5.559-1.792-11.092-3.658-16.639-5.485L267.49,206c-11.061-3.743-22.08-7.6-33.122-11.4-11.027-3.835-22.059-7.656-33.049-11.595-5.485-2-10.983-3.957-16.434-6.047l-8.193-3.091a20.62,20.62,0,0,1-7.748-4.313Z" transform="translate(-29.038 -28.964)" fill="#effefe"/>
          <path id="Trazado_742008" data-name="Trazado 742008" d="M169.238,168.439a20.616,20.616,0,0,1,8.867.138l8.64,1.42c5.766.915,11.508,1.967,17.256,2.98,11.487,2.084,22.951,4.291,34.419,6.483,11.46,2.234,22.932,4.4,34.383,6.691l17.174,3.443c5.717,1.191,11.441,2.342,17.152,3.569l-.046.255c-5.786-.8-11.558-1.675-17.338-2.512l-17.316-2.638c-11.543-1.765-23.064-3.652-34.6-5.472-11.527-1.862-23.055-3.709-34.562-5.679-5.748-1.014-11.5-1.99-17.234-3.1l-8.605-1.621a20.615,20.615,0,0,1-8.379-2.9Z" transform="translate(-29.057 -28.877)" fill="#effefe"/>
          <path id="Trazado_742009" data-name="Trazado 742009" d="M169.165,168.192a20.637,20.637,0,0,1,8.756-1.4l8.756-.1c5.837-.1,11.674-.061,17.511-.061,11.674.057,23.349.24,35.023.408,11.674.21,23.348.352,35.022.618l17.511.409c5.837.181,11.675.32,17.511.537v.258c-5.836.218-11.674.357-17.511.537l-17.511.408c-11.674.267-23.348.408-35.022.619-11.674.168-23.349.351-35.023.408-5.837,0-11.674.038-17.511-.061l-8.756-.1a20.624,20.624,0,0,1-8.756-1.4Z" transform="translate(-29.076 -28.638)" fill="#effefe"/>
          <path id="Trazado_742010" data-name="Trazado 742010" d="M169.053,163.563a20.615,20.615,0,0,1,8.379-2.9l8.605-1.621c5.731-1.112,11.486-2.088,17.234-3.1,11.507-1.971,23.036-3.818,34.562-5.68,11.533-1.82,23.055-3.708,34.6-5.472l17.316-2.638c5.78-.836,11.552-1.713,17.338-2.512l.046.255c-5.711,1.228-11.436,2.378-17.152,3.569L272.8,146.9c-11.45,2.29-22.922,4.457-34.383,6.691-11.468,2.193-22.932,4.4-34.419,6.483-5.749,1.013-11.49,2.065-17.256,2.98l-8.64,1.419a20.616,20.616,0,0,1-8.867.138Z" transform="translate(-29.057 -24)" fill="#effefe"/>
          <path id="Trazado_742011" data-name="Trazado 742011" d="M168.945,158.693a20.631,20.631,0,0,1,7.747-4.314l8.193-3.091c5.451-2.09,10.949-4.05,16.434-6.047,10.989-3.939,22.022-7.759,33.049-11.595,11.042-3.8,22.06-7.654,33.122-11.4l16.6-5.6c5.547-1.828,11.079-3.693,16.639-5.485l.089.243c-5.411,2.2-10.848,4.328-16.272,6.493l-16.315,6.374c-10.879,4.242-21.8,8.369-32.7,12.559-10.912,4.151-21.82,8.315-32.77,12.362-5.485,2-10.957,4.029-16.476,5.931l-8.263,2.9a20.624,20.624,0,0,1-8.707,1.676Z" transform="translate(-29.038 -19.106)" fill="#effefe"/>
          <path id="Trazado_742012" data-name="Trazado 742012" d="M168.842,154.141a20.629,20.629,0,0,1,6.881-5.593l7.532-4.466c5.005-3.005,10.08-5.89,15.134-8.81,10.14-5.787,20.34-11.466,30.534-17.157,10.216-5.655,20.4-11.369,30.64-16.976l15.37-8.4c5.144-2.763,10.27-5.561,15.434-8.291l.129.224c-4.946,3.107-9.932,6.146-14.9,9.22L260.638,103c-9.977,6.068-20.017,12.028-30.022,18.046-10.025,5.983-20.045,11.978-30.125,17.865-5.056,2.917-10.091,5.87-15.2,8.7l-7.634,4.29a20.632,20.632,0,0,1-8.285,3.163Z" transform="translate(-29.02 -14.515)" fill="#effefe"/>
          <path id="Trazado_742013" data-name="Trazado 742013" d="M168.75,150.045a20.622,20.622,0,0,1,5.805-6.7l6.642-5.707c4.407-3.828,8.9-7.551,13.374-11.3,8.98-7.46,18.041-14.824,27.092-22.2,9.078-7.343,18.112-14.738,27.225-22.038l13.678-10.943c4.587-3.614,9.148-7.259,13.759-10.845l.166.2c-4.332,3.919-8.714,7.778-13.069,11.667L250.271,83.742c-8.771,7.708-17.623,15.321-26.431,22.986C215,114.361,206.179,122,197.274,129.553c-4.472,3.751-8.919,7.533-13.454,11.209l-6.772,5.55a20.644,20.644,0,0,1-7.61,4.553Z" transform="translate(-29.005 -10.366)" fill="#effefe"/>
          <path id="Trazado_742014" data-name="Trazado 742014" d="M168.671,146.531a20.621,20.621,0,0,1,4.553-7.61l5.549-6.772c3.676-4.536,7.457-8.983,11.209-13.454,7.548-8.906,15.193-17.732,22.826-26.567,7.665-8.807,15.277-17.659,22.985-26.431l11.57-13.151c3.89-4.356,7.748-8.738,11.667-13.069l.2.166c-3.586,4.612-7.23,9.172-10.845,13.76L237.44,67.08c-7.3,9.113-14.7,18.148-22.038,27.226-7.375,9.051-14.739,18.111-22.2,27.091-3.752,4.471-7.475,8.967-11.3,13.374l-5.706,6.642a20.615,20.615,0,0,1-6.7,5.805Z" transform="translate(-28.991 -6.785)" fill="#effefe"/>
          <path id="Trazado_742015" data-name="Trazado 742015" d="M168.606,143.7a20.62,20.62,0,0,1,3.163-8.285l4.289-7.634c2.832-5.1,5.784-10.14,8.7-15.2,5.886-10.081,11.882-20.1,17.864-30.126,6.02-10,11.98-20.044,18.047-30.021l9.109-14.96c3.075-4.965,6.114-9.951,9.221-14.9l.224.129C236.5,27.878,233.7,33,230.935,38.148l-8.4,15.37c-5.606,10.243-11.32,20.424-16.976,30.64-5.692,10.194-11.37,20.395-17.158,30.535-2.919,5.054-5.8,10.129-8.809,15.134l-4.466,7.532a20.638,20.638,0,0,1-5.593,6.881Z" transform="translate(-28.98 -3.882)" fill="#effefe"/>
          <path id="Trazado_742016" data-name="Trazado 742016" d="M168.552,141.65a20.618,20.618,0,0,1,1.676-8.708l2.9-8.262c1.9-5.519,3.935-10.991,5.931-16.476,4.047-10.95,8.212-21.858,12.362-32.77,4.19-10.9,8.317-21.82,12.559-32.7l6.373-16.316c2.166-5.423,4.293-10.86,6.494-16.271l.243.089C215.3,15.8,213.432,21.328,211.6,26.875L206,43.47c-3.742,11.061-7.6,22.08-11.4,33.122-3.835,11.027-7.656,22.059-11.6,33.049-2,5.485-3.957,10.983-6.047,16.434l-3.091,8.193a20.614,20.614,0,0,1-4.313,7.748Z" transform="translate(-28.964 -1.744)" fill="#effefe"/>
          <path id="Trazado_742017" data-name="Trazado 742017" d="M168.439,140.433a20.612,20.612,0,0,1,.138-8.866L170,122.927c.916-5.765,1.968-11.508,2.98-17.256,2.084-11.487,4.29-22.952,6.483-34.42,2.234-11.46,4.4-22.932,6.691-34.383L189.6,19.694c1.191-5.717,2.341-11.441,3.569-17.151l.255.045c-.8,5.786-1.675,11.559-2.512,17.338l-2.638,17.316c-1.765,11.543-3.652,23.065-5.472,34.6-1.862,11.526-3.709,23.054-5.679,34.561-1.014,5.749-1.99,11.5-3.1,17.235l-1.621,8.6a20.623,20.623,0,0,1-2.9,8.379Z" transform="translate(-28.877 -0.437)" fill="#effefe"/>
        </g>
      </g>
    </g>
    <path id="Trazado_742018" data-name="Trazado 742018" d="M161.521,24.169a26.577,26.577,0,0,1,7.564,18.066l-.109,3.051a26.652,26.652,0,0,1-53.128-.627l-.038-3.052a26.653,26.653,0,0,1,45.712-17.438" transform="translate(146.428 10192.36)" fill="#fff"/>
    <path id="Trazado_742019" data-name="Trazado 742019" d="M122.363,22.318a28.932,28.932,0,0,0,36.784,44.406l8.186,3.713a1.681,1.681,0,0,0,2.238-2.195l-3.547-8.26a28.932,28.932,0,0,0-43.661-37.664m39.307,1.993a26.586,26.586,0,0,1,7.6,18.053l-.105,3.051a26.652,26.652,0,0,1-53.129-.532l-.043-3.053a26.654,26.654,0,0,1,45.681-17.519" transform="translate(146.25 10192.185)" fill="#e0e0e0"/>
    <path id="Trazado_742020" data-name="Trazado 742020" d="M137.785,57.562a4.052,4.052,0,0,1-2.959-1.283l-9.19-9.813a4.054,4.054,0,1,1,5.919-5.542l5.968,6.372,14.12-17.885a4.054,4.054,0,1,1,6.364,5.024L140.968,56.02a4.05,4.05,0,0,1-3.011,1.537c-.057,0-.115,0-.171,0" transform="translate(147.164 10193.349)" fill="#ba68c8"/>
    <path id="Trazado_742021" data-name="Trazado 742021" d="M166.6,387.055l-3.971-2.094,4-1.009Z" transform="translate(150.374 10223.354)" fill="#263238"/>
    <path id="Trazado_742022" data-name="Trazado 742022" d="M129.315,394.086S177.4,373.76,177.9,377a4.776,4.776,0,0,1-.076,1.935c.042-.057.093-.113.132-.17l-1.034,5.986a14.092,14.092,0,0,1-7.479,2.921c0-.289.022-2.08.033-3.1a24.154,24.154,0,0,0-4.249,2.127c-3.1,1.948-5.151,5.443-8.493,9.478-2.434,2.939-6.67,4.231-12.917,4.957-6.721.782-12.588-.666-14.2-2.518-1.288-1.477-.555-4.113-.3-4.526" transform="translate(147.529 10222.739)" fill="#263238"/>
    <path id="Trazado_742023" data-name="Trazado 742023" d="M130.622,396.188c.469-.469,2.214-2.3,4.562-4.29a89.781,89.781,0,0,1,7.011-5.7,26.377,26.377,0,0,0,3.479-2.738c.852-.873,1.672-1.779,2.434-2.732a52.008,52.008,0,0,0,5.993-9.635c.793-1.614,2.237-5.172,2.026-11.848-.32-10.112-1.041-13.775-.906-20.34l22.581,3.7c-.756,3.62-1.677,11.719-2.134,15.844-.693,6.275-1.625,6.848.647,13.185.669,1.866,1.695,3.669,1.735,5.65.066,3.221-2.519,5.934-5.369,7.434-2.363,1.243-5.057,1.733-7.352,3.063a23.486,23.486,0,0,0-6.069,5.69c-1.654,2.016-3,4.414-5.283,5.8-2.53,1.539-4.913,1.977-7.812,2.489a41.517,41.517,0,0,1-10.412.256c-4.924-.518-8.549-2.419-5.131-5.837" transform="translate(147.563 10219.559)" fill="#b16668"/>
    <path id="Trazado_742024" data-name="Trazado 742024" d="M149.474,384.395a8.9,8.9,0,0,0-7.354-.867c-3.577,2.7-6.544,5.1-8.636,6.783-2.542,2.038-4.768,3.9-4.739,6.312.044,3.782,14.609,5.3,22.86,1.931a10.177,10.177,0,0,0,5.9-4.92s-1.065-5.32-8.027-9.238m28.094-12.852c-1.182-2.463-1.624-3.717-1.624-3.717-2.874,1.476-7.992,8.474-5.917,15.7a10.836,10.836,0,0,0,7.279-4.7c1.613-2.39,1.444-4.821.262-7.284" transform="translate(147.518 10221.996)" fill="#37474f"/>
    <path id="Trazado_742025" data-name="Trazado 742025" d="M210.22,379.155c-1.325,2.175.5,10.312.244,16.12-.23,5.277-1.233,13.512.12,19.677,1.386,6.317,6.707,12.965,13.911,7.112,4.465-3.628,6.241-7.965,6.783-15.564.376-5.28-1.8-12.558-3.667-19.014-2.183-7.541-3.025-11.576-3.025-11.576Z" transform="translate(154.342 10222.677)" fill="#263238"/>
    <path id="Trazado_742026" data-name="Trazado 742026" d="M225.255,342.893c.634,12.3-.716,20.949-.724,28.828a55.438,55.438,0,0,0,1.222,10.629c1.08,5.017,2.9,11.989,3.668,15.239,1.072,4.542,1.88,7.4.355,12.525a6.034,6.034,0,0,1-.5,1.157c-2.158,4.229-7.713,7.459-9.507,6.966a3.08,3.08,0,0,1-3.135,1.129,4.311,4.311,0,0,1-.6-.139,4.579,4.579,0,0,1-.6-.236,6.11,6.11,0,0,1-3.01-3.839,10.9,10.9,0,0,1-.3-1.11c-1.361-6.326-.455-10.43-.357-12.909.115-2.862-.087-6.5-.382-11.116s-1.53-19.1-3.2-26.009c-1.236-4.826-2.778-10.877-4.4-17.331Z" transform="translate(153.841 10219.895)" fill="#b16668"/>
    <path id="Trazado_742027" data-name="Trazado 742027" d="M229.974,398.885c-4.424-1.9-17.2-2.053-19.175,4.183,0,5.854,0,9.822,3.749,14.882,4.976,6.722,11.318-.513,13.732-5.093s2.324-10.824,1.694-13.972" transform="translate(154.432 10224.516)" fill="#37474f"/>
    <path id="Trazado_742028" data-name="Trazado 742028" d="M210.58,183c6.327,11.094,14.848,26.515,15.393,51.5.726,33.295,1.174,57.147,1.372,61.159S230.2,307,232.58,326.74s-.833,57.425-.833,57.425-2.259,4.46-9.809,5.263c-6.965.743-10.2-2.552-10.2-2.552s-10.47-52.885-13.315-64.752-12.433-63.744-12.433-63.744l-4.31,38.692s2.309,10.878.472,28.255-7.686,50.878-7.686,50.878-3.192,3.3-10.59,2.933c-6.768-.337-10.143-4.123-10.143-4.123s-5.8-66.291-6.127-85.947,1.006-75.575,6.707-104.778Z" transform="translate(149.103 10206.421)" fill="#37474f"/>
    <path id="Trazado_742029" data-name="Trazado 742029" d="M160.021,217.076c2.346,8,11.932,12.721,16.691,13.778l4.982,26.231-.465,37.116,4.311-38.693L180.9,227.521s-14.792-1.868-20.884-10.445m48.221,94.839c-1.926-10.179-4.373-33.329-5.736-43.629-1.327-10.3-2.646-20.623-4.108-30.925.658,10.385,1.436,20.758,2.491,31.113,1.032,10.355,3.4,33.56,5.294,43.826,2.029,10.241,4.071,20.4,6.241,30.576q3.209,15.261,6.818,30.449-2.407-15.417-5.213-30.768c-1.84-10.229-3.81-20.476-5.787-30.642M156,264.5l1.244-27.141c-1.247,8.981-2.184,18-2.87,27.044-.659,9.054-1.565,24.921-1.44,34.085.459,9.114,1.3,18.106,2.195,27.133s1.946,18.018,3.161,27q-.605-13.585-1.531-27.138l-.911-13.55c-.3-4.508-.653-9.04-.82-13.515-.15-4.457.322-15.848.453-20.359s.345-9.038.519-13.56" transform="translate(149.555 10209.292)" fill="#263238"/>
    <path id="Trazado_742030" data-name="Trazado 742030" d="M106.377,194.133a65.581,65.581,0,0,0-7.035-1.837c-1.8-.4-2.884.288-7.3,2.552-4.589,2.354-5.422,3.472-5.864,4.84a2.992,2.992,0,0,0,1.089,3.341c-1.437.849-1.386,3.461.6,4.46a2.376,2.376,0,0,0,.835,3.876c-.709.762-.48,3.761,2.182,4.5a47.658,47.658,0,0,0,7.01,1.148Z" transform="translate(143.919 10207.195)" fill="#9a4a4d"/>
    <path id="Trazado_742031" data-name="Trazado 742031" d="M119.509,408.606,79.531,48.772l3.066-.34,39.981,359.852c.09,1.213-2.962,1.5-3.07.322" transform="translate(143.371 10195.081)" fill="#455a64"/>
    <path id="Trazado_742032" data-name="Trazado 742032" d="M82.663,51.164c14.164,3.375,24.07,11.277,32.4,31.191,5.914,14.138,17.15,30.243,27.308,30.454l-5.692,46.974s-12.85,0-24.262-11.614c-11.488-11.689-12.994-32-22.622-32.81-1.465-13.188-4.581-41.233-4.581-41.233Z" transform="translate(143.635 10195.312)" fill="#ba68c8"/>
    <g id="Grupo_988611" data-name="Grupo 988611" transform="translate(250.239 10285.91)" opacity="0.15">
      <g id="Grupo_988610" data-name="Grupo 988610">
        <g id="Grupo_988609" data-name="Grupo 988609" clip-path="url(#clip-path-2)">
          <path id="Trazado_742033" data-name="Trazado 742033" d="M119,125.173c-.206-.352-.313-.745-.509-1.1a9.945,9.945,0,0,0-.6-.838c-.382-.548-.783-1.081-1.171-1.624q-1.075-1.508-2.071-3.071a58.7,58.7,0,0,1-3.6-6.537,69.205,69.205,0,0,1-5-15.4,57.442,57.442,0,0,1-1.1-8.945c-.007-.14-.18-.178-.185-.015a53.43,53.43,0,0,0,1.8,15.927,58.6,58.6,0,0,0,6.269,14.584q1.119,1.864,2.383,3.632.623.87,1.295,1.706c.263.327.539.669.832.973.373.387.855.656,1.257,1.019a.247.247,0,0,0,.385-.309" transform="translate(-104.744 -87.534)"/>
        </g>
      </g>
    </g>
    <g id="Grupo_988614" data-name="Grupo 988614" transform="translate(226.298 10246.476)" opacity="0.1">
      <g id="Grupo_988613" data-name="Grupo 988613">
        <g id="Grupo_988612" data-name="Grupo 988612" clip-path="url(#clip-path-3)">
          <path id="Trazado_742034" data-name="Trazado 742034" d="M102.8,120.482c-3.86-10.856-8.982-14.6-12-27.261s-8.143-42.057-8.143-42.057l2.55,22.963s3.116,28.043,4.582,41.231c9.628.813,11.133,21.12,22.622,32.811,11.412,11.614,24.26,11.614,24.26,11.614-4.547-.866-10.392-1.726-20.059-10.955-6.949-6.634-9.956-17.49-13.816-28.346" transform="translate(-82.663 -51.164)"/>
        </g>
      </g>
    </g>
    <path id="Trazado_742035" data-name="Trazado 742035" d="M97.077,216.235c.865.047,2.019-1.317,2.859-2.212s1.9-1.97,1.846-2.763c-.078-1.114-1.64-1.175-1.64-1.175a5.607,5.607,0,0,0,.794-.658c1.011-.924-.729-2.278-2.329-1.739,0,0,.689-.377.72-.827a2.038,2.038,0,0,0-2.129-2.039c1.142-.518.8-2.117.074-3.358a7.447,7.447,0,0,0-.852,0c-1.214,4.441-.811,9.432.658,14.77" transform="translate(144.734 10207.976)" fill="#9a4a4d"/>
    <g id="Grupo_988617" data-name="Grupo 988617" transform="translate(232.62 10418.061)" opacity="0.3">
      <g id="Grupo_988616" data-name="Grupo 988616">
        <g id="Grupo_988615" data-name="Grupo 988615" clip-path="url(#clip-path-4)">
          <path id="Trazado_742036" data-name="Trazado 742036" d="M88.493,209.915a22.915,22.915,0,0,0,3.126.994,31.341,31.341,0,0,0,3.191.709,4.779,4.779,0,0,0,3.048-.649c.986-.462,1.946-.993,2.891-1.555a17.968,17.968,0,0,1-2.754,1.83,4.936,4.936,0,0,1-3.246.769,24.769,24.769,0,0,1-3.215-.809,14.531,14.531,0,0,1-3.04-1.289" transform="translate(-88.494 -209.414)"/>
        </g>
      </g>
    </g>
    <g id="Grupo_988620" data-name="Grupo 988620" transform="translate(231.784 10414.686)" opacity="0.3">
      <g id="Grupo_988619" data-name="Grupo 988619">
        <g id="Grupo_988618" data-name="Grupo 988618" clip-path="url(#clip-path-5)">
          <path id="Trazado_742037" data-name="Trazado 742037" d="M99.279,207.279a24.292,24.292,0,0,1-2.807,1.141,4.027,4.027,0,0,1-1.549.224,13.354,13.354,0,0,1-1.5-.35,59.17,59.17,0,0,1-5.7-1.993c1.964.463,3.882,1.07,5.814,1.608a13.056,13.056,0,0,0,1.428.374,4.445,4.445,0,0,0,1.427-.159c.963-.236,1.917-.572,2.887-.845" transform="translate(-87.723 -206.301)"/>
        </g>
      </g>
    </g>
    <g id="Grupo_988623" data-name="Grupo 988623" transform="translate(231.186 10410.225)" opacity="0.3">
      <g id="Grupo_988622" data-name="Grupo 988622">
        <g id="Grupo_988621" data-name="Grupo 988621" clip-path="url(#clip-path-6)">
          <path id="Trazado_742038" data-name="Trazado 742038" d="M97.916,204.759a5.852,5.852,0,0,1-2.807.526,18.285,18.285,0,0,1-2.731-.847c-1.762-.689-3.515-1.393-5.207-2.251,1.815.549,3.574,1.234,5.347,1.877a23.5,23.5,0,0,0,2.646.919,7.121,7.121,0,0,0,2.753-.224" transform="translate(-87.172 -202.187)"/>
        </g>
      </g>
    </g>
    <path id="Trazado_742039" data-name="Trazado 742039" d="M84.559,49.165a3.4,3.4,0,1,1-3.046-3.719,3.4,3.4,0,0,1,3.046,3.719" transform="translate(143.223 10194.828)" fill="#37474f"/>
    <path id="Trazado_742040" data-name="Trazado 742040" d="M136.7,202.475s-11.529,4.3-18.9,7.129c-5.635,2.159-5.728,2.978-7.627,4.847-2.1,2.086-8.157,2.377-8.157,2.377v-.011l-.322-2.833a2.7,2.7,0,0,0,.841-1.65,1.318,1.318,0,0,0-1.142-1.11l-.052-.425c.093-.073.218-.177.352-.3.613-.581.208-1.3-.57-1.65l-.27-2.386a17.356,17.356,0,0,1-2.325-2.781v-.021a6.426,6.426,0,0,1-.5-1.131,6.8,6.8,0,0,0-.706,0,8.168,8.168,0,0,0-3.912,1.11c-1,1.712-2.522,3.787-5.023,3.735-2.034-.062-2.013-1.006-.965-3.061,1.4-2.822,1.9-4.193,3.02-5.6.758-.965,3.7-2.294,6.092-3.259,1.12-.446,2.106-.82,2.7-1.047a2.817,2.817,0,0,1,.28-.093c1.713-.592,3.187-.478,6.361.052a10.867,10.867,0,0,0,6.04-.353c1.66-.446,10.45-5.178,10.45-5.178Z" transform="translate(143.977 10206.912)" fill="#b16668"/>
    <path id="Trazado_742041" data-name="Trazado 742041" d="M108.323,208.527a14.745,14.745,0,0,1-7.514-.336,1.5,1.5,0,0,0-.781-.716l-.271-2.385c1.713,2.418,5.389,3.524,8.566,3.437" transform="translate(145.075 10208.282)" fill="#9a4a4d"/>
    <path id="Trazado_742042" data-name="Trazado 742042" d="M117.558,189.938l-4.686,2.253a11.467,11.467,0,0,1,5.543,7.3,30.322,30.322,0,0,1,.54,8.968l5.453-1.892a24.39,24.39,0,0,0-1.081-9.1c-1.532-4.462-5.768-7.526-5.768-7.526" transform="translate(146.18 10207.006)" fill="#fafafa"/>
    <path id="Trazado_742043" data-name="Trazado 742043" d="M163.716,131.208c-10.5,1.595-13.358,8.61-19.859,27.647-5.5,16.095-8.117,23.427-8.117,23.427l-20.223,13.244s8.312,2.033,7.076,16.628c0,0,10.989-3.833,23.806-8.358,7.067-2.5,7.031-5.978,10.186-13.309,3.607-8.388,8.242-24.165,8.242-24.165Z" transform="translate(146.403 10202.057)" fill="#ba68c8"/>
    <path id="Trazado_742044" data-name="Trazado 742044" d="M218.714,202.755c1.956-3.333-5.434-13.621-4.52-23.086.581-6.017,5.172-18.572,5.172-18.572a52.412,52.412,0,0,1-10.5-39.124l-14.4,3.046-22.09,4.373-8.663,2.375c-2.972,2.555-8.411,6.579-12.787,12.761-6.314,8.919-6.291,20.409.162,27.744.068,1.426.86,21.157.15,29.139-.2,2.225-1.559,5.036-.168,7.9,6.212,10.192,46.608,15.66,67.653-6.557" transform="translate(148.99 10201.278)" fill="#fafafa"/>
    <path id="Trazado_742045" data-name="Trazado 742045" d="M168.117,72.722a17.228,17.228,0,0,0,4.015-.258c2.439-.548,3.362-1.455,4.968-3.347,3.418-4.028,9.705-3.842,13.482-.371,1.289,1.127,2.659,2.66,4.3,2.342.915-.177,1.989-.993,3.621-1.475a6.584,6.584,0,0,1,6.859,2.439c.771,1.3.623,2.956.735,4.48a4.008,4.008,0,0,0,2.27,3.526,2.39,2.39,0,0,0,3.17-1.953c1.66.953,1.789,3.626.63,5.182a6.76,6.76,0,0,1-5.022,2.319c3.483-.046,7.146,3.246,6.121,7.075-.467,1.684-1.865,3.053-1.928,4.809-.079,2.179,1.8,4.131,2.132,6.275a7.494,7.494,0,0,1-.955,5.244,8.111,8.111,0,0,1-2.684,2.119,7.447,7.447,0,0,0-1.9,1.221,5.671,5.671,0,0,0-.983,1.57c-.877,1.855-1.66,3.849-3.207,5.2-2.017,1.757-4.9,2.045-7.575,2.046s-5.459-.183-7.912.883a20.068,20.068,0,0,0-3.192,1.947c-3.253,2.209-7.28,4.054-11.019,2.841-1.715-.556-3.173-1.707-4.824-2.433a10.518,10.518,0,0,0-4.3-.877c-1.564.011-2.995.6-4.538.653a6.222,6.222,0,0,1-5-2.449,7.84,7.84,0,0,1-1.507-5.44,5.7,5.7,0,0,0-2.549,5.32,7.816,7.816,0,0,1-1.751-9.12c.728-1.438,1.9-2.615,2.62-4.055,1.329-2.652-.253-5.445-1.462-7.822-1.416-2.783-2.391-6.306-.645-8.9,1.65-2.446,5.176-3.145,6.683-5.683.971-1.633.878-3.655,1.161-5.535.469-3.117,2.312-6.24,5.29-7.275a14.111,14.111,0,0,1,4.888-.5" transform="translate(149.209 10196.571)" fill="#263238"/>
    <path id="Trazado_742046" data-name="Trazado 742046" d="M167.494,115.375a5.678,5.678,0,0,1-5.842-1.311c-3.713-3.126-4.051-7.08-2.867-9.7.974-2.149,2.715-3.286,5.73-2.9,2.7.349,3.261,1.607,4.345,3.112,1.111,1.544,4.617.9,3-5.518,4.165-2.687.421-8.966,2.416-12.326,3.125-5.26,9.484-4.854,11.646-4a8.147,8.147,0,0,1,8.365-1.67c3.2,1.2,5.643,4.3,8.244,15.732,2.654,11.653,1.441,20.5-.947,23.363-1.643,1.972-4.18,3.473-8.36,3.787l.357,7.287s-4.158,10.718-18.363,11.433c-9.864.5-3.858-9.789-3.858-9.789L169.575,113.3s.143,1.342-2.081,2.075" transform="translate(149.998 10197.789)" fill="#b16668"/>
    <path id="Trazado_742047" data-name="Trazado 742047" d="M180.9,90.964l-3.665,2.974a2.491,2.491,0,0,1,.372-3.417,2.294,2.294,0,0,1,3.293.442" transform="translate(151.561 10198.585)" fill="#263238"/>
    <path id="Trazado_742048" data-name="Trazado 742048" d="M196.084,91.03l-4.592-1.222a2.275,2.275,0,0,1,2.819-1.735,2.509,2.509,0,0,1,1.773,2.957" transform="translate(152.805 10198.415)" fill="#263238"/>
    <path id="Trazado_742049" data-name="Trazado 742049" d="M183.01,108.017l6.7.866a3.242,3.242,0,0,1-3.656,2.973,3.561,3.561,0,0,1-3.042-3.839" transform="translate(152.089 10200.103)" fill="#9a4a4d"/>
    <path id="Trazado_742050" data-name="Trazado 742050" d="M187.321,111.67a3.453,3.453,0,0,0-4.183-2.406,3.541,3.541,0,0,0,2.9,2.5,3.23,3.23,0,0,0,1.281-.09" transform="translate(152.101 10200.198)" fill="#f28f8f"/>
    <path id="Trazado_742051" data-name="Trazado 742051" d="M196.091,94.2a1.92,1.92,0,1,1-2.615-.754,1.924,1.924,0,0,1,2.615.754" transform="translate(152.89 10198.854)" fill="#263238"/>
    <path id="Trazado_742052" data-name="Trazado 742052" d="M182.971,96.36a1.92,1.92,0,1,1-2.615-.754,1.924,1.924,0,0,1,2.615.754" transform="translate(151.784 10199.036)" fill="#263238"/>
    <path id="Trazado_742053" data-name="Trazado 742053" d="M186.408,93.631l2.636,12.324,6.551-2.908c-2.334-4.647-6.267-7.447-9.187-9.416" transform="translate(152.377 10198.89)" fill="#9a4a4d"/>
    <path id="Trazado_742054" data-name="Trazado 742054" d="M192.089,121.325c-6.007.576-17.079,1.282-20.421-9.635a12.549,12.549,0,0,0,10.024,11.752,41.069,41.069,0,0,0,10.522.434Z" transform="translate(151.135 10200.412)" fill="#9a4a4d"/>
    <path id="Trazado_742055" data-name="Trazado 742055" d="M172.439,128.811l-11.242,2.6c-7.779,6.914-15.925,17.628-15.785,26.355a24.377,24.377,0,0,0,4.9,14.343s1.53,17.641.253,27.123-5.155,34.34-5.155,34.34a67.368,67.368,0,0,0,12.7,3.871c1.168-12.13,2.919-56.426,1.788-66.935s-2.652-27.127,12.536-41.7" transform="translate(148.922 10201.854)" fill="#ba68c8"/>
    <g id="Grupo_988626" data-name="Grupo 988626" transform="translate(294.333 10330.666)" opacity="0.3">
      <g id="Grupo_988625" data-name="Grupo 988625">
        <g id="Grupo_988624" data-name="Grupo 988624" clip-path="url(#clip-path-7)">
          <path id="Trazado_742056" data-name="Trazado 742056" d="M172.439,128.811l-11.242,2.6c-7.779,6.914-15.925,17.628-15.785,26.355a24.377,24.377,0,0,0,4.9,14.343s1.53,17.641.253,27.123-5.155,34.34-5.155,34.34a67.368,67.368,0,0,0,12.7,3.871c1.168-12.13,2.919-56.426,1.788-66.935s-2.652-27.127,12.536-41.7" transform="translate(-145.411 -128.811)"/>
        </g>
      </g>
    </g>
    <g id="Grupo_988629" data-name="Grupo 988629" transform="translate(300.219 10331.783)" opacity="0.2">
      <g id="Grupo_988628" data-name="Grupo 988628">
        <g id="Grupo_988627" data-name="Grupo 988627" clip-path="url(#clip-path-8)">
          <path id="Trazado_742057" data-name="Trazado 742057" d="M158.539,175.43c-.905-2.742-1.878-5.46-2.859-8.172s-1.934-5.434-2.844-8.159a33.149,33.149,0,0,1-1.121-4.114c-.316-1.3.535-2.475,1.38-3.585a38.69,38.69,0,0,1,6.19-5.866l.208-.163-.068-.258a13.825,13.825,0,0,1-.345-4.569,11.9,11.9,0,0,1,1.244-4.426,13.765,13.765,0,0,1,2.973-3.572,21.934,21.934,0,0,1,3.873-2.705,19.608,19.608,0,0,0-4.072,2.466,12.876,12.876,0,0,0-3.233,3.553,12.5,12.5,0,0,0-1.477,4.612,13.64,13.64,0,0,0,.294,4.862l.139-.421a37.373,37.373,0,0,0-6.4,5.958,9.868,9.868,0,0,0-1.209,1.905,3.169,3.169,0,0,0-.209.553,1.951,1.951,0,0,0-.137.6,3.853,3.853,0,0,0,.053,1.194,33.508,33.508,0,0,0,1.2,4.218c.926,2.745,2.028,5.417,3.1,8.1s2.213,5.33,3.322,8" transform="translate(-150.839 -129.842)"/>
        </g>
      </g>
    </g>
    <path id="Trazado_742058" data-name="Trazado 742058" d="M191.865,124.434s-3.25,4.949-7.172,16.294-7.756,21.679-6.863,31.828,3.51,66.848,3.51,66.848,18.143.061,30.906-5.334l-1.825-17.11,4.98,15.626s8.291-3.491,10.454-5.781c-4.616-23.058-12.4-34.507-13.4-42.281-.691-5.34,4.118-16.012,7.054-29.154,2.42-10.83-12.746-35.52-12.746-35.52-2.389,2.095-7.034,3.693-14.893,4.582" transform="translate(151.643 10201.1)" fill="#ba68c8"/>
    <g id="Grupo_988632" data-name="Grupo 988632" transform="translate(329.342 10320.951)" opacity="0.3">
      <g id="Grupo_988631" data-name="Grupo 988631">
        <g id="Grupo_988630" data-name="Grupo 988630" clip-path="url(#clip-path-9)">
          <path id="Trazado_742059" data-name="Trazado 742059" d="M191.865,124.434s-3.25,4.949-7.172,16.294-7.756,21.679-6.863,31.828,3.51,66.848,3.51,66.848,18.143.061,30.906-5.334l-1.825-17.11,4.98,15.626s8.291-3.491,10.454-5.781c-4.616-23.058-12.4-34.507-13.4-42.281-.691-5.34,4.118-16.012,7.054-29.154,2.42-10.83-12.746-35.52-12.746-35.52-2.389,2.095-7.034,3.693-14.893,4.582" transform="translate(-177.699 -119.852)"/>
        </g>
      </g>
    </g>
    <g id="Grupo_988635" data-name="Grupo 988635" transform="translate(331.635 10327.866)" opacity="0.2">
      <g id="Grupo_988634" data-name="Grupo 988634">
        <g id="Grupo_988633" data-name="Grupo 988633" clip-path="url(#clip-path-10)">
          <path id="Trazado_742060" data-name="Trazado 742060" d="M179.814,174.89a23.4,23.4,0,0,1,3.441-7.335c1.458-2.29,3.087-4.473,4.762-6.613.823-1.083,1.671-2.148,2.522-3.213l1.283-1.6c.215-.28.425-.526.645-.842a1.427,1.427,0,0,0,.162-.252,3.3,3.3,0,0,0,.142-.4,2.82,2.82,0,0,0,.021-.691,12.328,12.328,0,0,0-1.742-3.936c-.742-1.176-1.529-2.3-2.375-3.406l-.014.681,3.825-4.538,1.9-2.282.472-.576.234-.288a2.136,2.136,0,0,0,.32-.454,2.2,2.2,0,0,0,.034-.936c-.038-.265-.087-.519-.143-.77a46.12,46.12,0,0,0-1.883-5.705c-.734-1.853-1.481-3.7-2.311-5.507.623,1.89,1.269,3.77,1.853,5.667a57.427,57.427,0,0,1,1.568,5.7,3.685,3.685,0,0,1,.081,1.245c.063-.108-.044.06-.131.138l-.249.279-.5.556-1.978,2.248-3.93,4.524-.28.322.267.359c.8,1.076,1.56,2.2,2.26,3.345a12.1,12.1,0,0,1,1.633,3.477,2.959,2.959,0,0,1,0,.326.14.14,0,0,0-.021.087c0,.035-.077.118-.113.176-.164.248-.393.528-.589.793l-1.257,1.614c-.837,1.08-1.673,2.164-2.486,3.267a81.485,81.485,0,0,0-4.513,6.882,32.213,32.213,0,0,0-1.825,3.7,14.367,14.367,0,0,0-1.086,3.959" transform="translate(-179.814 -126.229)"/>
        </g>
      </g>
    </g>
    <path id="Trazado_742061" data-name="Trazado 742061" d="M251.114,57.9c.445-7.917-1.733-13.389-1.789-15.053-.075-2.2-.994-2.8-.994-2.8a2.281,2.281,0,0,0-1.612-2.262c-.278-1.863-1.377-1.829-4.931-2.819s-7.669-2.294-8.971-1.7-1.922,1.931-1.957,4.354a3.816,3.816,0,0,0-3.528.59c-1.416.877-2.035,1.651-1.186,4.157s2.569,4.128,2.746,6.325,1.484,5.239,3.4,6.611c1.2.858,2.21,1.405,2.778,2.6.53,1.115.477,2.161.119,5.189-.3,2.526-5.129,27.3-5.129,27.3l19.1,4.72s1.055-20.265,1.56-30.781c.123-2.526.331-5.339.391-6.424" transform="translate(155.693 10193.79)" fill="#b16668"/>
    <path id="Trazado_742062" data-name="Trazado 742062" d="M242.9,36.123c-1.48-.379-2.99-.647-4.487-.961-.787-.165-1.574-.335-2.364-.493a4.622,4.622,0,0,0-2.157-.055,3.563,3.563,0,0,0-2.115,2.42,21.675,21.675,0,0,0-1.019,4.116,3,3,0,0,0,.173,2.074,1.43,1.43,0,0,0,1.433.721c.29-.047.024-.469-.216-.432-.808.129-1.046-.823-1.017-1.436a11.856,11.856,0,0,1,.309-1.926,15.29,15.29,0,0,1,.981-3.238,3.063,3.063,0,0,1,2.131-1.958,6.052,6.052,0,0,1,2.038.179c.646.118,1.291.24,1.938.359,1.451.268,2.9.588,4.362.786.077.01.073-.141.009-.157" transform="translate(156.106 10193.908)" fill="#9a4a4d"/>
    <path id="Trazado_742063" data-name="Trazado 742063" d="M242.474,37.288c-1.449-.411-2.917-.731-4.4-1a20.454,20.454,0,0,0-2.189-.311,2.232,2.232,0,0,0-1.573.437,5.582,5.582,0,0,0-1.6,3.224c-.169.722-.3,1.453-.416,2.185a9.975,9.975,0,0,0-.248,2.183c.1,1.44,1.676,2.079,2.943,2.036.337-.012.128-.471-.139-.462a2.879,2.879,0,0,1-1.881-.556,1.8,1.8,0,0,1-.411-1.8,27.334,27.334,0,0,1,.7-3.787,4.8,4.8,0,0,1,1.511-2.727,2.291,2.291,0,0,1,1.647-.308c.615.061,1.227.139,1.84.222a40.655,40.655,0,0,1,4.21.838c.087.022.076-.159,0-.181" transform="translate(156.222 10194.031)" fill="#9a4a4d"/>
    <path id="Trazado_742064" data-name="Trazado 742064" d="M238.515,38.689a4.309,4.309,0,0,0-1.764.172,2.214,2.214,0,0,0-1.072,1.026,9.867,9.867,0,0,0-.932,3.869,16.443,16.443,0,0,0-.119,2.064,1.7,1.7,0,0,0,.709,1.38,7.866,7.866,0,0,0,4.126,1.326c.306.017.155-.413-.083-.426a8.26,8.26,0,0,1-2.307-.455c-.589-.21-1.59-.536-1.891-1.142a2.454,2.454,0,0,1-.1-1.219c.023-.387.047-.775.078-1.162a16.411,16.411,0,0,1,.31-2.226,5.9,5.9,0,0,1,.742-2.018,2.127,2.127,0,0,1,1.894-.829c1.64-.029,3.255.211,4.889.295.01,0,.014-.022,0-.025a16.672,16.672,0,0,0-4.482-.63" transform="translate(156.44 10194.259)" fill="#9a4a4d"/>
    <path id="Trazado_742065" data-name="Trazado 742065" d="M240.315,45.306a3.549,3.549,0,0,0-.459-.548.843.843,0,0,0,.021-.25q0-.138-.013-.276a2.524,2.524,0,0,0-.1-.506,4.04,4.04,0,0,0-.389-.961c-.039-.066-.081.046-.063.087a2.642,2.642,0,0,1,.26.905c.01.147.012.3.011.446,0,.074,0,.149-.009.222,0,.022,0,.043-.005.064-.013-.01-.023-.022-.035-.031a2.666,2.666,0,0,0-.976-.559c-.1-.025-.066.158-.013.19a5.378,5.378,0,0,1,.755.489,3.193,3.193,0,0,1,.648.772,3.122,3.122,0,0,1,.365.816,1.71,1.71,0,0,1,.056,1.038c-.09.236.365.492.46.227a1.842,1.842,0,0,0-.043-1.112,3.833,3.833,0,0,0-.471-1.011" transform="translate(156.766 10194.602)" fill="#9a4a4d"/>
    <path id="Trazado_742066" data-name="Trazado 742066" d="M242.842,46.777a3.845,3.845,0,0,0-.717-.085,4.7,4.7,0,0,0-.731.041,5.8,5.8,0,0,0-1.531.394,6.388,6.388,0,0,0-2.379,1.693,5.847,5.847,0,0,0-1.226,5.678c.025.088.109.046.1-.034a7.068,7.068,0,0,1,1.5-5.244,6.306,6.306,0,0,1,2.176-1.659,8.748,8.748,0,0,1,1.361-.482,5.626,5.626,0,0,1,.6-.116c.266-.041.5-.064.841-.112.033,0,.037-.068.005-.075" transform="translate(156.555 10194.935)" fill="#9a4a4d"/>
    <path id="Trazado_742067" data-name="Trazado 742067" d="M231.151,42.266a2.685,2.685,0,0,1-1.858-.154c-.608-.253-1.14-.657-1.72-.963-.029-.016-.036.047-.022.062.943,1,2.369,1.928,3.8,1.482.279-.087.025-.5-.2-.427" transform="translate(155.843 10194.468)" fill="#9a4a4d"/>
    <path id="Trazado_742068" data-name="Trazado 742068" d="M231.407,38.782a2.287,2.287,0,0,0-.477-1.011c-.089-.1-.156-.094-.111.047a2.962,2.962,0,0,1,.115.5,12.131,12.131,0,0,1,.168,1.406.078.078,0,0,0,.093.008c.05-.028.056-.075.119-.081.08-.009.108-.152.123-.211a.816.816,0,0,0,.024-.234,2.73,2.73,0,0,0-.054-.419" transform="translate(156.118 10194.177)" fill="#9a4a4d"/>
    <path id="Trazado_742069" data-name="Trazado 742069" d="M232.1,42.915a.275.275,0,0,0-.32-.1,3.677,3.677,0,0,0-1.485,1.1,3.43,3.43,0,0,0-.462.761,3.128,3.128,0,0,0-.162.424,4.9,4.9,0,0,0-.068.605c-.008.055.063.129.087.048a2.5,2.5,0,0,1,.226-.438c.067-.132.126-.266.2-.394a4.549,4.549,0,0,1,.532-.721,3.84,3.84,0,0,1,1.432-1c.117-.047.076-.216.02-.291" transform="translate(156.017 10194.606)" fill="#9a4a4d"/>
    <path id="Trazado_742070" data-name="Trazado 742070" d="M233,67.282l.9-5.718a15.621,15.621,0,0,0,7.456,4.933,13.267,13.267,0,0,0,8.835-.056l-.37,5.886a22.468,22.468,0,0,1-10.484-.84c-4.932-1.85-6.334-4.2-6.334-4.2" transform="translate(156.303 10196.188)" fill="#fafafa"/>
    <path id="Trazado_742071" data-name="Trazado 742071" d="M204.729,124.472c5.135-6.359,9.417-8.448,12.019-11.681C220.988,107.523,229.7,93.3,229.7,93.3l5.981-29.587c1.537,5.364,13.637,8.779,16.983,6.059,0,0-.443,10.4-1.121,29.012-.234,6.406-.94,7.561-9.227,19.774-3.913,5.767-7.838,11.983-14.107,21.625-4.529,6.964-8.72,13.447-10.98,20.34-.609,2.929-6.649,2.867-10.78-6.54-4.558-10.376-2.582-25.9-1.722-29.511" transform="translate(153.822 10196.369)" fill="#ba68c8"/>
  </g>
</svg>
