<svg xmlns="http://www.w3.org/2000/svg" width="104" height="104" viewBox="0 0 104 104">
  <g id="Grupo_988638" data-name="Grupo 988638" transform="translate(-856 -10815)">
    <rect id="Rectángulo_345209" data-name="Rectángulo 345209" width="104" height="104" rx="7" transform="translate(856 10815)" fill="#ff6e33"/>
    <g id="Layer_2" data-name="Layer 2" transform="translate(864 10823)">
      <g id="Layer_1" data-name="Layer 1" transform="translate(0)">
        <g id="teamwork">
          <path id="Trazado_742072" data-name="Trazado 742072" d="M44.892,40.947A11.462,11.462,0,0,0,33.429,29.47c-12.849.221-15.8,17.7-3.983,22.231v4.706h7.966V51.7a11.462,11.462,0,0,0,7.479-10.754Z" transform="translate(10.458 14.004)" fill="#ffbc41"/>
          <path id="Trazado_742073" data-name="Trazado 742073" d="M27.05,49.93h7.966c-1.357,5.621-6.565,4.957-7.966,0Z" transform="translate(12.854 23.727)" fill="#a7a7a8"/>
          <path id="Trazado_742074" data-name="Trazado 742074" d="M31.2,11.632a5.1,5.1,0,0,1-5.119-5.1,5.119,5.119,0,1,1,10.223,0A5.1,5.1,0,0,1,31.2,11.632Z" transform="translate(12.391 0.539)" fill="#ffdc7c"/>
          <path id="Trazado_742075" data-name="Trazado 742075" d="M36.11,10.66l-3.319,3.319L29.457,10.66a6.756,6.756,0,0,0-6.727,6.727v5.37H42.837v-5.37A6.727,6.727,0,0,0,36.11,10.66Z" transform="translate(10.802 5.066)" fill="#2edef4"/>
          <path id="Trazado_742076" data-name="Trazado 742076" d="M37.261,10.73a6.034,6.034,0,0,1,2.582,4.957V20.5H22.73v2.228H42.837v-5.37A6.727,6.727,0,0,0,37.261,10.73Z" transform="translate(10.802 5.099)" fill="#24b2d6"/>
          <path id="Trazado_742077" data-name="Trazado 742077" d="M9.251,41.812a5.27,5.27,0,1,1,5.1-5.075,5.1,5.1,0,0,1-5.1,5.075Z" transform="translate(1.96 14.895)" fill="#ffdc7c"/>
          <path id="Trazado_742078" data-name="Trazado 742078" d="M14.16,40.85l-3.319,3.319L7.522,40.85A6.771,6.771,0,0,0,.78,47.577v5.37H20.887v-5.37A6.727,6.727,0,0,0,14.16,40.85Z" transform="translate(0.371 19.412)" fill="#ad71d8"/>
          <path id="Trazado_742079" data-name="Trazado 742079" d="M15.311,40.92a6.019,6.019,0,0,1,2.6,4.957v4.809H.78v2.228H20.887v-5.37a6.727,6.727,0,0,0-5.576-6.624Z" transform="translate(0.371 19.446)" fill="#9358c6"/>
          <path id="Trazado_742080" data-name="Trazado 742080" d="M58.06,40.85l-3.334,3.319L51.407,40.85a6.727,6.727,0,0,0-6.727,6.727v5.37H64.787v-5.37A6.727,6.727,0,0,0,58.06,40.85Z" transform="translate(21.232 19.412)" fill="#ff651d"/>
          <path id="Trazado_742081" data-name="Trazado 742081" d="M59.211,40.92a6,6,0,0,1,2.582,4.957v4.809H44.68v2.228H64.787v-5.37a6.727,6.727,0,0,0-5.576-6.624Z" transform="translate(21.232 19.446)" fill="#ff4a22"/>
          <path id="Trazado_742082" data-name="Trazado 742082" d="M51.737,32.64s1.947,4.426,6.255,2.788c.074,3.142-1.121,7.2-4.927,7.125-3.29-.767-8.409-6.093-1.328-9.913" transform="translate(22.894 15.511)" fill="#ffdc7c"/>
          <g id="Grupo_988637" data-name="Grupo 988637">
            <path id="Trazado_742083" data-name="Trazado 742083" d="M47.221,35.558s1.682-5.4,6.314-5.1a6.3,6.3,0,0,1,5.989,7.715c-1.475-1.7-1.387-1.844-1.387-1.844s-5.444.634-5.9-2.641C50.172,34.57,47.089,37.387,47.221,35.558Z" transform="translate(22.438 14.466)" fill="#022432"/>
            <path id="Trazado_742084" data-name="Trazado 742084" d="M38.165,65.2a34.328,34.328,0,0,1-26.554-12.51A1.165,1.165,0,0,1,13.4,51.219c12.554,15.755,38.016,15.416,50.157-.708a1.175,1.175,0,1,1,1.829,1.475A34.225,34.225,0,0,1,38.165,65.2Z" transform="translate(5.428 23.795)" fill="#022432"/>
            <path id="Trazado_742085" data-name="Trazado 742085" d="M32.543,13.469H30.581A5.281,5.281,0,0,1,25.3,8.187V5.237A5.281,5.281,0,0,1,30.581,0h1.962a5.281,5.281,0,0,1,5.281,5.281v2.95a5.281,5.281,0,0,1-5.281,5.237ZM30.581,2.316a2.95,2.95,0,0,0-2.95,2.95v2.95a2.95,2.95,0,0,0,2.95,2.95h1.962a2.95,2.95,0,0,0,2.95-2.95V5.267a2.95,2.95,0,0,0-2.95-2.95Z" transform="translate(12.023)" fill="#022432"/>
            <path id="Trazado_742086" data-name="Trazado 742086" d="M43.208,24.278H23.1a1.151,1.151,0,0,1-1.151-1.151v-5.37A7.892,7.892,0,0,1,29.828,9.88a1.165,1.165,0,0,1,.826.339l2.508,2.493,2.493-2.493a1.165,1.165,0,0,1,.826-.339,7.878,7.878,0,0,1,7.878,7.878v5.37a1.151,1.151,0,0,1-1.151,1.151Zm-18.956-2.3H42.057V17.758a5.562,5.562,0,0,0-5.119-5.547c-4.5,4.426-3.083,4.426-7.568,0a5.562,5.562,0,0,0-5.119,5.547Z" transform="translate(10.431 4.695)" fill="#022432"/>
            <path id="Trazado_742087" data-name="Trazado 742087" d="M10.608,43.593H8.631A5.281,5.281,0,0,1,3.35,38.312v-2.95A5.3,5.3,0,0,1,8.631,30.08h1.977a5.3,5.3,0,0,1,5.281,5.281v2.95a5.281,5.281,0,0,1-5.281,5.281ZM8.631,32.44a2.95,2.95,0,0,0-2.95,2.95v2.95a2.95,2.95,0,0,0,2.95,2.95h1.977a2.95,2.95,0,0,0,2.95-2.95v-2.95a2.95,2.95,0,0,0-2.95-2.95Z" transform="translate(1.592 14.294)" fill="#022432"/>
            <path id="Trazado_742088" data-name="Trazado 742088" d="M21.258,54.383H1.151A1.151,1.151,0,0,1,0,53.277V47.863A7.892,7.892,0,0,1,7.892,40a1.151,1.151,0,0,1,.811.339l2.508,2.493,2.508-2.493A1.106,1.106,0,0,1,14.531,40a7.892,7.892,0,0,1,7.892,7.878v5.4a1.151,1.151,0,0,1-1.165,1.106Zm-18.942-2.3H20.107V47.863a5.576,5.576,0,0,0-5.119-5.547c-4.426,4.426-3.068,4.426-7.568,0a5.576,5.576,0,0,0-5.1,5.547Z" transform="translate(0 19.008)" fill="#022432"/>
            <path id="Trazado_742089" data-name="Trazado 742089" d="M65.158,54.353H45.051A1.165,1.165,0,0,1,43.9,53.187v-5.37a7.892,7.892,0,0,1,7.878-7.878,1.165,1.165,0,0,1,.826.339L55.1,42.787,57.6,40.279a1.165,1.165,0,0,1,.826-.339,7.892,7.892,0,0,1,7.878,7.878v5.37a1.165,1.165,0,0,1-1.151,1.165ZM46.2,52.037H64.007V47.818a5.576,5.576,0,0,0-5.119-5.547c-4.5,4.426-3.083,4.426-7.568,0A5.576,5.576,0,0,0,46.2,47.818Z" transform="translate(20.862 18.98)" fill="#022432"/>
            <path id="Trazado_742090" data-name="Trazado 742090" d="M55.54,34.649a1.18,1.18,0,0,1-1.062-.693A32.278,32.278,0,0,0,39.446,18.245a1.155,1.155,0,0,1,1.033-2.065A34.549,34.549,0,0,1,56.588,33.011a1.165,1.165,0,0,1-1.047,1.637Z" transform="translate(18.442 7.631)" fill="#022432"/>
            <path id="Trazado_742091" data-name="Trazado 742091" d="M9.059,35.485a1.165,1.165,0,0,1-1.033-1.593,34.328,34.328,0,0,1,16.493-17.7,1.155,1.155,0,0,1,1.033,2.065A32.233,32.233,0,0,0,10.121,34.762a1.121,1.121,0,0,1-1.062.723Z" transform="translate(3.775 7.635)" fill="#022432"/>
            <path id="Trazado_742092" data-name="Trazado 742092" d="M37.8,57.925H29.83a1.151,1.151,0,0,1-1.165-1.151V52.85a12.628,12.628,0,1,1,10.326,0v3.924A1.151,1.151,0,0,1,37.8,57.925Zm-6.815-2.316h5.65V52.068a1.165,1.165,0,0,1,.767-1.077C48.064,46.875,45.276,31.15,33.813,31c-11.433.148-14.251,15.844-3.585,19.989a1.151,1.151,0,0,1,.752,1.077Z" transform="translate(10.074 13.638)" fill="#022432"/>
            <path id="Trazado_742093" data-name="Trazado 742093" d="M31.413,55.539a5.134,5.134,0,0,1-5.134-5.134A1.21,1.21,0,0,1,27.43,48.93H35.4a1.21,1.21,0,0,1,1.151,1.475,5.134,5.134,0,0,1-5.134,5.134Zm-2.7-4.278a2.832,2.832,0,0,0,5.385,0Z" transform="translate(12.474 23.252)" fill="#022432"/>
            <path id="Trazado_742094" data-name="Trazado 742094" d="M29.928,28.368a1.151,1.151,0,0,1-1.165-1.151v-1.8a1.165,1.165,0,1,1,2.316,0v1.844a1.151,1.151,0,0,1-1.151,1.106Z" transform="translate(13.665 11.463)" fill="#022432"/>
            <path id="Trazado_742095" data-name="Trazado 742095" d="M25.13,29.738c-1,0-1.475-1.475-1.918-2.169a1.136,1.136,0,0,1,.428-1.578,1.151,1.151,0,0,1,1.578.413l.915,1.608a1.151,1.151,0,0,1-1,1.726Z" transform="translate(10.954 12.276)" fill="#022432"/>
            <path id="Trazado_742096" data-name="Trazado 742096" d="M21.66,33.313c-.457.074-1.785-.9-2.183-1.062a1.165,1.165,0,0,1,1.165-2.006l1.593.915a1.165,1.165,0,0,1-.575,2.154Z" transform="translate(9.024 14.322)" fill="#022432"/>
            <path id="Trazado_742097" data-name="Trazado 742097" d="M38.87,33.022a1.165,1.165,0,0,1-.575-2.169l1.593-.915a1.151,1.151,0,0,1,1.195,1.933C40.64,32.048,39.327,33.022,38.87,33.022Z" transform="translate(17.926 14.185)" fill="#022432"/>
            <path id="Trazado_742098" data-name="Trazado 742098" d="M35.049,29.52a1.18,1.18,0,0,1-1-1.741l.929-1.623a1.165,1.165,0,0,1,2.006,1.165C36.495,28.016,36.052,29.579,35.049,29.52Z" transform="translate(16.111 12.199)" fill="#022432"/>
            <path id="Trazado_742099" data-name="Trazado 742099" d="M53.423,43.788a6.093,6.093,0,0,1-2.36-11.669,1.154,1.154,0,0,1,.9,2.124A3.762,3.762,0,1,0,57.2,37.711c0-.944-.634-2.08.62-2.493s1.7,1.475,1.682,2.493a6.093,6.093,0,0,1-6.078,6.078Z" transform="translate(22.536 15.22)" fill="#022432"/>
            <path id="Trazado_742100" data-name="Trazado 742100" d="M58.192,42.52a1.165,1.165,0,0,1-1-1.726,3.836,3.836,0,0,0,.443-2.419,5.783,5.783,0,0,1-5.621-2.67,3.791,3.791,0,0,0-1.387,5.089,1.151,1.151,0,0,1-.28,1.475c-2.124,1.342-4.1-3.909-3.909-5.532.207-9.264,13.424-10.12,14.87-1a7.538,7.538,0,0,1-2.331,6.491A1.2,1.2,0,0,1,58.192,42.52Zm-5.621-9.456a1.136,1.136,0,0,1,1.092.767A3.437,3.437,0,0,0,56.893,36.1c.708,0,1.475-.516,2.11-.1a5.163,5.163,0,0,0-10.12-.472A5.8,5.8,0,0,1,52.571,33.064Z" transform="translate(22.06 13.936)" fill="#022432"/>
          </g>
        </g>
      </g>
    </g>
  </g>
</svg>
