<svg xmlns="http://www.w3.org/2000/svg" width="309" height="260" viewBox="0 0 309 260">
  <g id="Grupo_987330" data-name="Grupo 987330" transform="translate(-901 10345)">
    <rect id="kitchen-scale-g31e4b8c17_1280" width="309" height="260" rx="24" transform="translate(901 -10345)" fill="#d2d7e3"/>
    <g id="Grupo_987327" data-name="Grupo 987327" transform="translate(-341 -415)">
      <circle id="Elipse_4726" data-name="Elipse 4726" cx="20" cy="20" r="20" transform="translate(1295 -9876)" fill="#ea526f"/>
      <path id="Trazado_742150" data-name="Trazado 742150" d="M.575-1.983a4.034,4.034,0,0,0,2.619-.908A3.2,3.2,0,0,0,4.435-5.162H7.084a5.078,5.078,0,0,1-.969,2.679A6.38,6.38,0,0,1,3.731-.454,6.879,6.879,0,0,1,.575.3,6.747,6.747,0,0,1-4.745-1.93,8.892,8.892,0,0,1-6.721-8.038v-.469a9.86,9.86,0,0,1,.878-4.253,6.687,6.687,0,0,1,2.52-2.891A7.159,7.159,0,0,1,.56-16.681a6.568,6.568,0,0,1,4.579,1.65,5.9,5.9,0,0,1,1.945,4.284H4.435a3.859,3.859,0,0,0-1.2-2.611A3.743,3.743,0,0,0,.56-14.38a3.919,3.919,0,0,0-3.307,1.536A7.215,7.215,0,0,0-3.92-8.4v.53A7.072,7.072,0,0,0-2.755-3.512,3.938,3.938,0,0,0,.575-1.983Z" transform="translate(1315 -9847)" fill="#12263f"/>
    </g>
    <g id="Grupo_987328" data-name="Grupo 987328" transform="translate(-341 -361)">
      <circle id="Elipse_4726-2" data-name="Elipse 4726" cx="20" cy="20" r="20" transform="translate(1295 -9876)" fill="#ea526f"/>
      <circle id="Elipse_4727" data-name="Elipse 4727" cx="20" cy="20" r="20" transform="translate(1460 -9876)" fill="#ea526f"/>
      <path id="Trazado_742151" data-name="Trazado 742151" d="M.575-1.983a4.034,4.034,0,0,0,2.619-.908A3.2,3.2,0,0,0,4.435-5.162H7.084a5.078,5.078,0,0,1-.969,2.679A6.38,6.38,0,0,1,3.731-.454,6.879,6.879,0,0,1,.575.3,6.747,6.747,0,0,1-4.745-1.93,8.892,8.892,0,0,1-6.721-8.038v-.469a9.86,9.86,0,0,1,.878-4.253,6.687,6.687,0,0,1,2.52-2.891A7.159,7.159,0,0,1,.56-16.681a6.568,6.568,0,0,1,4.579,1.65,5.9,5.9,0,0,1,1.945,4.284H4.435a3.859,3.859,0,0,0-1.2-2.611A3.743,3.743,0,0,0,.56-14.38a3.919,3.919,0,0,0-3.307,1.536A7.215,7.215,0,0,0-3.92-8.4v.53A7.072,7.072,0,0,0-2.755-3.512,3.938,3.938,0,0,0,.575-1.983Z" transform="translate(1315 -9847)" fill="#12263f"/>
      <path id="Trazado_742153" data-name="Trazado 742153" d="M.015-3.8,4.072-16.378H6.933L1.06,0H-1.075L-7.008-16.378h2.861Z" transform="translate(1480 -9847)" fill="#12263f"/>
    </g>
    <g id="Grupo_987329" data-name="Grupo 987329" transform="translate(-341 -307)">
      <circle id="Elipse_4726-3" data-name="Elipse 4726" cx="20" cy="20" r="20" transform="translate(1295 -9876)" fill="#ea526f"/>
      <path id="Trazado_742152" data-name="Trazado 742152" d="M.575-1.983a4.034,4.034,0,0,0,2.619-.908A3.2,3.2,0,0,0,4.435-5.162H7.084a5.078,5.078,0,0,1-.969,2.679A6.38,6.38,0,0,1,3.731-.454,6.879,6.879,0,0,1,.575.3,6.747,6.747,0,0,1-4.745-1.93,8.892,8.892,0,0,1-6.721-8.038v-.469a9.86,9.86,0,0,1,.878-4.253,6.687,6.687,0,0,1,2.52-2.891A7.159,7.159,0,0,1,.56-16.681a6.568,6.568,0,0,1,4.579,1.65,5.9,5.9,0,0,1,1.945,4.284H4.435a3.859,3.859,0,0,0-1.2-2.611A3.743,3.743,0,0,0,.56-14.38a3.919,3.919,0,0,0-3.307,1.536A7.215,7.215,0,0,0-3.92-8.4v.53A7.072,7.072,0,0,0-2.755-3.512,3.938,3.938,0,0,0,.575-1.983Z" transform="translate(1315 -9847)" fill="#12263f"/>
    </g>
    <line id="Línea_226" data-name="Línea 226" y1="1" x2="123" transform="translate(994.5 -10215.5)" fill="none" stroke="#9f0925" stroke-width="2"/>
    <path id="Trazado_734214" data-name="Trazado 734214" d="M0,48,126.02,6.972" transform="translate(994.5 -10210.5)" fill="none" stroke="#9f0925" stroke-width="2"/>
    <path id="Trazado_742113" data-name="Trazado 742113" d="M0,0,125.632,44.37" transform="translate(994.5 -10272.5)" fill="none" stroke="#9f0925" stroke-width="2"/>
    <line id="Línea_229" data-name="Línea 229" x2="6" y2="10" transform="translate(1117.855 -10208.75)" fill="none" stroke="#9f0925" stroke-width="2"/>
    <line id="Línea_230" data-name="Línea 230" y2="12" transform="translate(1117 -10223)" fill="none" stroke="#9f0925" stroke-width="2"/>
    <path id="Trazado_742112" data-name="Trazado 742112" d="M3,0,0,12.5" transform="matrix(0.995, 0.105, -0.105, 0.995, 1119.161, -10235.872)" fill="none" stroke="#9f0925" stroke-width="2"/>
  </g>
</svg>
