<svg xmlns="http://www.w3.org/2000/svg" width="66" height="82.297" viewBox="0 0 66 82.297">
  <g id="Grupo_988215" data-name="Grupo 988215" transform="translate(-619 -2771)">
    <g id="Rectángulo_344959" data-name="Rectángulo 344959" transform="translate(619 2771)" fill="none" stroke="#9f0925" stroke-width="2">
      <rect width="66" height="82.297" rx="11" stroke="none"/>
      <rect x="1" y="1" width="64" height="80.297" rx="10" fill="none"/>
    </g>
    <g id="Grupo_988214" data-name="Grupo 988214" transform="translate(3.487 -4.666)">
      <path id="path5775" d="M-412.652-282.664h-6.869a.869.869,0,0,1-.869-.869.869.869,0,0,1,.869-.869h6.869a.869.869,0,0,1,.869.869A.869.869,0,0,1-412.652-282.664Zm0-38.494a.869.869,0,0,1-.869-.869v-17.739a.869.869,0,0,1,.869-.869.869.869,0,0,1,.869.869v17.739A.869.869,0,0,1-412.652-321.159Zm-38.411,0a.869.869,0,0,1-.869-.869v-17.739a.869.869,0,0,1,.869-.869h6.238a.869.869,0,0,1,.869.869.869.869,0,0,1-.869.869h-5.369v16.87A.869.869,0,0,1-451.063-321.159Z" transform="translate(1079.93 3127.302)" fill="#9f0925"/>
      <path id="path5779" d="M-3.592-8.262H-9.131A.869.869,0,0,1-10-9.131.869.869,0,0,1-9.131-10h5.538a.869.869,0,0,1,.869.869A.869.869,0,0,1-3.592-8.262Z" transform="translate(654.235 2844.634)" fill="#9f0925"/>
      <path id="path5783" d="M2.978-8.262H-9.131A.869.869,0,0,1-10-9.131.869.869,0,0,1-9.131-10H2.978a.869.869,0,0,1,.869.869A.869.869,0,0,1,2.978-8.262Z" transform="translate(651.15 2848.514)" fill="#9f0925"/>
      <path id="path5795" d="M-10.281-96.111a2.1,2.1,0,0,1-.422-.044l-4.9-1.2-4.869,1.194a2.182,2.182,0,0,1-.455.051A1.773,1.773,0,0,1-22.744-97.8l-.058-1.976-.111-2.832-1.508-2.2-1.23-1.813a1.8,1.8,0,0,1-.226-1.534,1.832,1.832,0,0,1,1.09-1.119l4.736-1.664,3.118-3.735a1.783,1.783,0,0,1,1.328-.65,1.771,1.771,0,0,1,1.308.624l3.138,3.761,4.7,1.649a1.858,1.858,0,0,1,1.132,1.134,1.776,1.776,0,0,1-.205,1.5L-6.655-105l-1.645,2.4-.109,2.84-.055,1.923A1.79,1.79,0,0,1-10.281-96.111Zm-5.326-3.009a.868.868,0,0,1,.207.025l5.078,1.245h.04a.133.133,0,0,0,.062-.011.2.2,0,0,0,.021-.084l.053-1.883.119-3.1a.869.869,0,0,1,.152-.459l1.784-2.6L-7-107.6c.012-.015-.017-.041-.083-.068l-4.882-1.713a.869.869,0,0,1-.38-.264l-3.262-3.912-.016.017-3.252,3.9a.869.869,0,0,1-.379.263l-4.921,1.728a.207.207,0,0,0-.059.045l1.246,1.817,1.647,2.409a.869.869,0,0,1,.151.456l.122,3.091.056,1.941.079.046,2-.48,3.117-.765A.869.869,0,0,1-15.607-99.12Z" transform="translate(644.474 2942.111)" fill="#9f0925"/>
      <path id="path5799" d="M-7.139-4.468A.869.869,0,0,1-7.4-4.509a.869.869,0,0,1-.55-.523l-1.994-5.312a.869.869,0,0,1,.508-1.119.869.869,0,0,1,1.119.508l1.607,4.28,1.787-1.209-2.436-2.275A.869.869,0,0,1-7.4-11.387a.869.869,0,0,1,1.228-.042L-2.942-8.41a.869.869,0,0,1,.273.7.869.869,0,0,1-.38.652l-3.6,2.437A.869.869,0,0,1-7.139-4.468Z" transform="translate(651.609 2826.307)" fill="#9f0925"/>
      <path id="path5803" d="M-69.933-4.468a.869.869,0,0,1-.487-.149l-3.6-2.437a.869.869,0,0,1-.379-.652.869.869,0,0,1,.273-.7l3.232-3.019a.869.869,0,0,1,1.228.042.869.869,0,0,1-.042,1.228l-2.436,2.275,1.785,1.208,1.609-4.28a.869.869,0,0,1,1.119-.508.869.869,0,0,1,.508,1.119l-2,5.312a.869.869,0,0,1-.55.522A.869.869,0,0,1-69.933-4.468Z" transform="translate(721.607 2826.307)" fill="#9f0925"/>
      <path id="path5807" d="M41.061-74.178a.869.869,0,0,1-.869-.869v-6.275a.869.869,0,0,1,.869-.869.869.869,0,0,1,.869.869v6.275A.869.869,0,0,1,41.061-74.178Z" transform="translate(609.194 2901.328)" fill="#9f0925"/>
      <path id="path5811" d="M-72.731-10a6.931,6.931,0,0,1,6.923,6.924c0,6.962-3.589,10.133-6.923,10.133s-6.923-3.171-6.923-10.133A6.931,6.931,0,0,1-72.731-10Zm0,15.318c2.5,0,5.185-2.627,5.185-8.395a5.191,5.191,0,0,0-5.185-5.185,5.191,5.191,0,0,0-5.185,5.185C-77.916,2.691-75.228,5.318-72.731,5.318Z" transform="translate(720.805 2807.627)" fill="#9f0925"/>
      <path id="path5815" d="M-1.591-5.717A13.6,13.6,0,0,1-9.666-8.446a.869.869,0,0,1-.15-1.22.869.869,0,0,1,1.22-.15C-6.007-7.794-1.473-6.6,2.183-8.23a.869.869,0,0,1,1.148.44.869.869,0,0,1-.44,1.148A10.958,10.958,0,0,1-1.591-5.717Z" transform="translate(651.568 2811.479)" fill="#9f0925"/>
      <path id="path5819" d="M-18.691-21.494a4.568,4.568,0,0,1,3.31,1.423l6.5,6.892A4.553,4.553,0,0,1-9.07-6.75a4.532,4.532,0,0,1-3.12,1.235A4.566,4.566,0,0,1-15.5-6.937L-22-13.829a4.514,4.514,0,0,1-1.234-3.254,4.512,4.512,0,0,1,1.421-3.175A4.524,4.524,0,0,1-18.691-21.494Zm6.5,14.24a2.8,2.8,0,0,0,1.928-.761,2.813,2.813,0,0,0,.115-3.971l-6.5-6.892a2.785,2.785,0,0,0-2.045-.877,2.792,2.792,0,0,0-1.926.762,2.785,2.785,0,0,0-.876,1.961,2.788,2.788,0,0,0,.761,2.01l6.5,6.893A2.782,2.782,0,0,0-12.19-7.254Z" transform="translate(685.469 2849.922)" fill="#9f0925"/>
      <path id="path5823" d="M-65.347-10h.025a.869.869,0,0,1,.607.273l2.49,2.641a.869.869,0,0,1-.036,1.229L-67.612-.811a.869.869,0,0,1-1.228-.036l-2.49-2.638a.869.869,0,0,1-.237-.622.869.869,0,0,1,.272-.607l5.351-5.049A.869.869,0,0,1-65.347-10Zm1.261,3.474-1.3-1.376L-69.47-4.046l1.3,1.374Z" transform="translate(736.807 2841.703)" fill="#9f0925"/>
      <path id="path5827" d="M-46.814-46.914a.866.866,0,0,1-.622-.262l-3.587-3.679a.869.869,0,0,1,.016-1.229.869.869,0,0,1,1.229.016l3.587,3.679a.869.869,0,0,1-.016,1.229A.866.866,0,0,1-46.814-46.914Z" transform="translate(710.84 2877.816)" fill="#9f0925"/>
      <path id="path5831" d="M-218.95-427.91a20.866,20.866,0,0,1-20.842-20.842,20.866,20.866,0,0,1,20.842-20.842,20.866,20.866,0,0,1,20.842,20.842A20.866,20.866,0,0,1-218.95-427.91Zm0-39.946a19.125,19.125,0,0,0-19.1,19.1,19.125,19.125,0,0,0,19.1,19.1,19.125,19.125,0,0,0,19.1-19.1A19.125,19.125,0,0,0-218.95-467.857Z" transform="translate(867.023 3259.525)" fill="#9f0925"/>
      <path id="path5835" d="M-173.638-10A16.548,16.548,0,0,1-157.109,6.529a16.548,16.548,0,0,1-16.529,16.529A16.548,16.548,0,0,1-190.166,6.529,16.548,16.548,0,0,1-173.638-10Zm0,31.32a14.807,14.807,0,0,0,14.79-14.791,14.807,14.807,0,0,0-14.79-14.791,14.807,14.807,0,0,0-14.79,14.791A14.807,14.807,0,0,0-173.638,21.32Z" transform="translate(821.712 2804.244)" fill="#9f0925"/>
      <path id="path5839" d="M43.8-107.583a.869.869,0,0,1-.868-.833,5.931,5.931,0,0,0-5.869-5.632h-.969a.869.869,0,0,1-.869-.869v-2.989a.869.869,0,0,1,.869-.869.869.869,0,0,1,.869.869v2.12h.1a7.594,7.594,0,0,1,7.606,7.3.869.869,0,0,1-.833.9Zm-18.878-5.765a.806.806,0,0,1-.775-.48c-.364-.714-.081-.928,1.758-2.321.74-.56,1.782-1.35,3.191-2.444a.869.869,0,0,1,.915-.094.869.869,0,0,1,.487.781v2.989a.869.869,0,0,1-.869.869H28.66a10.178,10.178,0,0,0-2.922.534A2.942,2.942,0,0,1,24.922-113.348Zm3.838-2.79-.47.36q.184-.009.371-.009h.1Z" transform="translate(615.212 2930.43)" fill="#9f0925"/>
    </g>
  </g>
</svg>
