<svg xmlns="http://www.w3.org/2000/svg" width="66" height="82.3" viewBox="0 0 66 82.3">
  <g id="Grupo_988220" data-name="Grupo 988220" transform="translate(-619 -2926)">
    <g id="Rectángulo_344965" data-name="Rectángulo 344965" transform="translate(619 2926)" fill="none" stroke="#9f0925" stroke-width="2">
      <rect width="66" height="82.3" rx="11" stroke="none"/>
      <rect x="1" y="1" width="64" height="80.3" rx="10" fill="none"/>
    </g>
    <g id="Grupo_988219" data-name="Grupo 988219" transform="translate(-2.895 6)">
      <g id="g5581" transform="translate(635.367 2959.416)">
        <path id="path5583" d="M-209.352-20.668a3.732,3.732,0,0,1-3.728-3.728V-49.024a3.732,3.732,0,0,1,3.728-3.728h8.3a3.7,3.7,0,0,1,2.636,1.092l2.124,2.124a1.943,1.943,0,0,0,1.383.573h.718a.886.886,0,0,1,.886.886.886.886,0,0,1-.886.886h-.718a3.7,3.7,0,0,1-2.636-1.092l-2.124-2.124a1.943,1.943,0,0,0-1.383-.573h-8.3a1.958,1.958,0,0,0-1.956,1.955V-24.4a1.958,1.958,0,0,0,1.956,1.955.886.886,0,0,1,.886.886A.886.886,0,0,1-209.352-20.668Z" transform="translate(213.079 52.752)" fill="#9f0925"/>
      </g>
      <g id="g5585" transform="translate(657.152 2963.205)">
        <path id="path5587" d="M-155.23-47.191a.886.886,0,0,1-.886-.886v-.947a1.958,1.958,0,0,0-1.955-1.955h-11.367a.886.886,0,0,1-.886-.886.886.886,0,0,1,.886-.886h11.367a3.732,3.732,0,0,1,3.728,3.728v.947A.886.886,0,0,1-155.23-47.191Z" transform="translate(170.325 52.752)" fill="#9f0925"/>
      </g>
      <g id="g5589" transform="translate(660.941 2984.991)">
        <path id="path5591" d="M-77.3-8.228h-6.631a.886.886,0,0,1-.886-.886A.886.886,0,0,1-83.931-10H-77.3a.886.886,0,0,1,.886.886A.886.886,0,0,1-77.3-8.228Z" transform="translate(84.817 10)" fill="#9f0925"/>
      </g>
      <g id="g5593" transform="translate(662.836 2981.203)">
        <path id="path5595" d="M-77.3-8.228h-6.631a.886.886,0,0,1-.886-.886A.886.886,0,0,1-83.931-10H-77.3a.886.886,0,0,1,.886.886A.886.886,0,0,1-77.3-8.228Z" transform="translate(84.817 10)" fill="#9f0925"/>
      </g>
      <g id="g5597" transform="translate(635.875 2966.994)">
        <path id="path5599" d="M24.321-224.771h-31.1a.886.886,0,0,1-.886-.886.886.886,0,0,1,.886-.886h31.1a1.953,1.953,0,0,0,1.855-1.337l6.514-19.543-.058-.08H0a1.953,1.953,0,0,0-1.855,1.337L-8.275-226.9a.886.886,0,0,1-1.121.561.886.886,0,0,1-.56-1.121l6.421-19.263A3.723,3.723,0,0,1,0-249.277H32.632a1.838,1.838,0,0,1,1.487.761,1.838,1.838,0,0,1,.252,1.652L27.857-227.32A3.723,3.723,0,0,1,24.321-224.771Z" transform="translate(10.003 249.277)" fill="#9f0925"/>
      </g>
      <g id="g5601" transform="translate(625.895 2931)">
        <path id="path5603" d="M-104.36-10h7.578a.886.886,0,0,1,.627.26L-91.419-5a.886.886,0,0,1,.26.627V6.989a1.836,1.836,0,0,1-1.834,1.834H-104.36a1.836,1.836,0,0,1-1.833-1.834V-8.167A1.836,1.836,0,0,1-104.36-10Zm7.211,1.772h-7.211a.061.061,0,0,0-.061.061V6.989l11.428.061.059-11.063Z" transform="translate(106.193 10)" fill="#9f0925"/>
      </g>
      <g id="g5605" transform="translate(634.419 2931)">
        <path id="path5607" d="M-57.819-56.933h-3.789a1.836,1.836,0,0,1-1.833-1.833v-3.789a.886.886,0,0,1,.886-.886.886.886,0,0,1,.886.886v3.789l3.85.061a.886.886,0,0,1,.886.886A.886.886,0,0,1-57.819-56.933Z" transform="translate(63.441 63.441)" fill="#9f0925"/>
      </g>
      <g id="g5609" transform="translate(629.683 2939.525)">
        <path id="path5611" d="M-4.378-8.228H-9.114A.886.886,0,0,1-10-9.114.886.886,0,0,1-9.114-10h4.736a.886.886,0,0,1,.886.886A.886.886,0,0,1-4.378-8.228Z" transform="translate(10 10)" fill="#9f0925"/>
      </g>
      <g id="g5613" transform="translate(629.683 2943.313)">
        <path id="path5615" d="M-4.378-8.228H-9.114A.886.886,0,0,1-10-9.114.886.886,0,0,1-9.114-10h4.736a.886.886,0,0,1,.886.886A.886.886,0,0,1-4.378-8.228Z" transform="translate(10 10)" fill="#9f0925"/>
      </g>
      <g id="g5617" transform="translate(646.733 2931)">
        <path id="path5619" d="M-104.36-10h7.578a.886.886,0,0,1,.627.26L-91.419-5a.886.886,0,0,1,.26.627V6.989a1.836,1.836,0,0,1-1.834,1.834H-104.36a1.836,1.836,0,0,1-1.833-1.834V-8.167A1.836,1.836,0,0,1-104.36-10Zm7.211,1.772h-7.211a.061.061,0,0,0-.061.061V6.989l11.428.061.059-11.063Z" transform="translate(106.193 10)" fill="#9f0925"/>
      </g>
      <g id="g5621" transform="translate(655.258 2931)">
        <path id="path5623" d="M-57.819-56.933h-3.789a1.836,1.836,0,0,1-1.834-1.833v-3.789a.886.886,0,0,1,.886-.886.886.886,0,0,1,.886.886v3.789l3.85.061a.886.886,0,0,1,.886.886A.886.886,0,0,1-57.819-56.933Z" transform="translate(63.441 63.441)" fill="#9f0925"/>
      </g>
      <g id="g5625" transform="translate(650.522 2939.525)">
        <path id="path5627" d="M-4.378-8.228H-9.114A.886.886,0,0,1-10-9.114.886.886,0,0,1-9.114-10h4.736a.886.886,0,0,1,.886.886A.886.886,0,0,1-4.378-8.228Z" transform="translate(10 10)" fill="#9f0925"/>
      </g>
      <g id="g5629" transform="translate(650.522 2943.313)">
        <path id="path5631" d="M-4.378-8.228H-9.114A.886.886,0,0,1-10-9.114.886.886,0,0,1-9.114-10h4.736a.886.886,0,0,1,.886.886A.886.886,0,0,1-4.378-8.228Z" transform="translate(10 10)" fill="#9f0925"/>
      </g>
      <g id="g5633" transform="translate(667.572 2931)">
        <path id="path5635" d="M-104.361-10h7.578a.886.886,0,0,1,.627.26L-91.42-5a.886.886,0,0,1,.26.627V6.989a1.836,1.836,0,0,1-1.834,1.834h-11.367a1.836,1.836,0,0,1-1.834-1.834V-8.167A1.836,1.836,0,0,1-104.361-10Zm7.211,1.772h-7.211a.061.061,0,0,0-.061.061V6.989l11.428.061.059-11.063Z" transform="translate(106.194 10)" fill="#9f0925"/>
      </g>
      <g id="g5637" transform="translate(676.097 2931)">
        <path id="path5639" d="M-57.819-56.933h-3.789a1.836,1.836,0,0,1-1.834-1.833v-3.789a.886.886,0,0,1,.886-.886.886.886,0,0,1,.886.886v3.789l3.85.061a.886.886,0,0,1,.886.886A.886.886,0,0,1-57.819-56.933Z" transform="translate(63.441 63.441)" fill="#9f0925"/>
      </g>
      <g id="g5641" transform="translate(671.361 2939.525)">
        <path id="path5643" d="M-4.378-8.228H-9.114A.886.886,0,0,1-10-9.114.886.886,0,0,1-9.114-10h4.736a.886.886,0,0,1,.886.886A.886.886,0,0,1-4.378-8.228Z" transform="translate(10 10)" fill="#9f0925"/>
      </g>
      <g id="g5645" transform="translate(671.361 2943.313)">
        <path id="path5647" d="M-4.378-8.228H-9.114A.886.886,0,0,1-10-9.114.886.886,0,0,1-9.114-10h4.736a.886.886,0,0,1,.886.886A.886.886,0,0,1-4.378-8.228Z" transform="translate(10 10)" fill="#9f0925"/>
      </g>
      <g id="g5649" transform="translate(653.364 2955.628)">
        <path id="path5651" d="M-9.114,3.139A.886.886,0,0,1-10,2.253V-9.114A.886.886,0,0,1-9.114-10a.886.886,0,0,1,.886.886V2.253A.886.886,0,0,1-9.114,3.139Z" transform="translate(10 10)" fill="#9f0925"/>
      </g>
      <g id="g5653" transform="translate(655.258 2948.05)">
        <path id="path5655" d="M7.936-66.673H-9.114A.886.886,0,0,1-10-67.56a.886.886,0,0,1,.886-.886H7.936a1.009,1.009,0,0,0,1.008-1.008v-3.789a.886.886,0,0,1,.886-.886.886.886,0,0,1,.886.886v3.789A2.784,2.784,0,0,1,7.936-66.673Z" transform="translate(10 74.129)" fill="#9f0925"/>
      </g>
      <g id="g5657" transform="translate(632.525 2948.05)">
        <path id="path5659" d="M9.83-2.544H-7.219A2.784,2.784,0,0,1-10-5.325V-9.114A.886.886,0,0,1-9.114-10a.886.886,0,0,1,.886.886v3.789A1.009,1.009,0,0,0-7.219-4.317H9.83a.886.886,0,0,1,.886.886A.886.886,0,0,1,9.83-2.544Z" transform="translate(10 10)" fill="#9f0925"/>
      </g>
      <g id="g5661" transform="translate(651.469 2951.839)">
        <path id="path5663" d="M-49.971-31.376A2.784,2.784,0,0,1-47.191-28.6a2.784,2.784,0,0,1-2.781,2.781A2.784,2.784,0,0,1-52.752-28.6,2.784,2.784,0,0,1-49.971-31.376Zm0,3.789A1.009,1.009,0,0,0-48.963-28.6,1.009,1.009,0,0,0-49.971-29.6,1.009,1.009,0,0,0-50.979-28.6,1.009,1.009,0,0,0-49.971-27.587Z" transform="translate(52.752 31.376)" fill="#9f0925"/>
      </g>
      <g id="g5665" transform="translate(653.364 2948.05)">
        <path id="path5667" d="M-9.114-47.191A.886.886,0,0,1-10-48.077v-3.789a.886.886,0,0,1,.886-.886.886.886,0,0,1,.886.886v3.789A.886.886,0,0,1-9.114-47.191Z" transform="translate(10 52.752)" fill="#9f0925"/>
      </g>
    </g>
  </g>
</svg>
