<svg xmlns="http://www.w3.org/2000/svg" xmlns:xlink="http://www.w3.org/1999/xlink" width="213" height="213" viewBox="0 0 213 213">
  <defs>
    <filter id="Trazado_113937" x="0" y="0" width="213" height="213" filterUnits="userSpaceOnUse">
      <feOffset input="SourceAlpha"/>
      <feGaussianBlur stdDeviation="20" result="blur"/>
      <feFlood flood-color="#402d27" flood-opacity="0.455"/>
      <feComposite operator="in" in2="blur"/>
      <feComposite in="SourceGraphic"/>
    </filter>
    <clipPath id="clip-path">
      <rect id="Rectángulo_345009" data-name="Rectángulo 345009" width="91.931" height="90.654" fill="none"/>
    </clipPath>
    <clipPath id="clip-path-2">
      <path id="Trazado_732873" data-name="Trazado 732873" d="M490.757,63.262A19.6,19.6,0,1,0,509.412,49.7a19.621,19.621,0,0,0-18.655,13.558" transform="translate(-489.789 -49.704)" fill="none"/>
    </clipPath>
  </defs>
  <g id="Grupo_80211" data-name="Grupo 80211" transform="translate(-1157.332 -318)">
    <g id="Grupo_987252" data-name="Grupo 987252">
      <g transform="matrix(1, 0, 0, 1, 1157.33, 318)" filter="url(#Trazado_113937)">
        <path id="Trazado_113937-2" data-name="Trazado 113937" d="M46.5,0A46.5,46.5,0,1,1,0,46.5,46.5,46.5,0,0,1,46.5,0Z" transform="translate(60 60)" fill="#ea526f"/>
      </g>
      <g id="Grupo_987246" data-name="Grupo 987246" transform="translate(1220.313 392.012)">
        <g id="Grupo_987247" data-name="Grupo 987247" transform="translate(0 0.002)">
          <g id="Grupo_987246-2" data-name="Grupo 987246" transform="translate(0 0)" clip-path="url(#clip-path)">
            <path id="Trazado_732710" data-name="Trazado 732710" d="M33.914,119.037H3.529a1.822,1.822,0,0,1-1.822-1.822V71.666a1.822,1.822,0,0,1,1.822-1.822H33.914a1.822,1.822,0,0,1,1.822,1.822v45.549a1.822,1.822,0,0,1-1.822,1.822" transform="translate(-1.564 -63.995)" fill="#c8e1ff"/>
            <path id="Trazado_732711" data-name="Trazado 732711" d="M32.35,117.613H1.965A1.967,1.967,0,0,1,0,115.648V70.1a1.967,1.967,0,0,1,1.965-1.965H32.35A1.967,1.967,0,0,1,34.315,70.1v45.549a1.967,1.967,0,0,1-1.965,1.964M1.965,68.42A1.681,1.681,0,0,0,.286,70.1v45.549a1.681,1.681,0,0,0,1.679,1.679H32.35a1.681,1.681,0,0,0,1.679-1.679V70.1A1.681,1.681,0,0,0,32.35,68.42Z" transform="translate(0 -62.429)" fill="#c8e1ff"/>
            <path id="Trazado_732712" data-name="Trazado 732712" d="M57.874,125.94a8.023,8.023,0,1,1-8.023-8.023,7.991,7.991,0,0,1,8.023,8.023" transform="translate(-38.325 -108.043)" fill="#fff"/>
            <path id="Trazado_732713" data-name="Trazado 732713" d="M85.754,167.11a8.009,8.009,0,0,1-10.434,0,5.329,5.329,0,0,1,4.265-4.159,3.444,3.444,0,1,1,1.9,0,5.325,5.325,0,0,1,4.265,4.163" transform="translate(-69.013 -143.12)" fill="#9f0925"/>
            <path id="Trazado_732714" data-name="Trazado 732714" d="M60.9,347.393H34.409a1.2,1.2,0,0,1-1.193-1.194v-3.885a1.2,1.2,0,0,1,1.193-1.193H60.9a1.2,1.2,0,0,1,1.194,1.193V346.2a1.2,1.2,0,0,1-1.194,1.194m-26.493-5.986a.908.908,0,0,0-.907.907V346.2a.909.909,0,0,0,.907.908H60.9a.909.909,0,0,0,.908-.908v-3.885a.909.909,0,0,0-.908-.907Z" transform="translate(-30.434 -312.555)" fill="#e9f3ff"/>
            <rect id="Rectángulo_344992" data-name="Rectángulo 344992" width="27.728" height="0.482" transform="translate(3.215 36.517)" fill="#a7d0f9"/>
            <rect id="Rectángulo_344993" data-name="Rectángulo 344993" width="27.728" height="0.482" transform="translate(3.215 38.67)" fill="#a7d0f9"/>
            <rect id="Rectángulo_344994" data-name="Rectángulo 344994" width="27.728" height="0.482" transform="translate(3.215 40.823)" fill="#a7d0f9"/>
            <rect id="Rectángulo_344995" data-name="Rectángulo 344995" width="27.728" height="0.482" transform="translate(3.215 42.976)" fill="#a7d0f9"/>
            <rect id="Rectángulo_344996" data-name="Rectángulo 344996" width="27.728" height="0.482" transform="translate(3.215 45.129)" fill="#a7d0f9"/>
            <rect id="Rectángulo_344997" data-name="Rectángulo 344997" width="27.728" height="0.482" transform="translate(3.215 47.282)" fill="#a7d0f9"/>
            <rect id="Rectángulo_344998" data-name="Rectángulo 344998" width="27.728" height="0.482" transform="translate(3.215 49.435)" fill="#a7d0f9"/>
            <rect id="Rectángulo_344999" data-name="Rectángulo 344999" width="27.728" height="0.482" transform="translate(3.215 51.588)" fill="#a7d0f9"/>
            <path id="Trazado_732715" data-name="Trazado 732715" d="M458.645,119.037H489.03a1.822,1.822,0,0,0,1.822-1.822V71.666a1.822,1.822,0,0,0-1.822-1.822H458.645a1.822,1.822,0,0,0-1.822,1.822v45.549a1.822,1.822,0,0,0,1.822,1.822" transform="translate(-418.568 -63.995)" fill="#c8e1ff"/>
            <path id="Trazado_732716" data-name="Trazado 732716" d="M487.466,117.613H457.081a1.967,1.967,0,0,1-1.965-1.964V70.1a1.967,1.967,0,0,1,1.965-1.965h30.385a1.967,1.967,0,0,1,1.965,1.965v45.549a1.967,1.967,0,0,1-1.965,1.964M457.081,68.42A1.681,1.681,0,0,0,455.4,70.1v45.549a1.681,1.681,0,0,0,1.679,1.679h30.385a1.68,1.68,0,0,0,1.679-1.679V70.1a1.681,1.681,0,0,0-1.679-1.679Z" transform="translate(-417.004 -62.429)" fill="#c8e1ff"/>
            <path id="Trazado_732717" data-name="Trazado 732717" d="M631.448,125.94a8.023,8.023,0,1,0,8.023-8.023,7.991,7.991,0,0,0-8.023,8.023" transform="translate(-578.57 -108.043)" fill="#fff"/>
            <path id="Trazado_732718" data-name="Trazado 732718" d="M664.981,167.11a8.009,8.009,0,0,0,10.434,0,5.33,5.33,0,0,0-4.265-4.159,3.444,3.444,0,1,0-1.9,0,5.325,5.325,0,0,0-4.265,4.163" transform="translate(-609.295 -143.12)" fill="#a7d0f9"/>
            <path id="Trazado_732719" data-name="Trazado 732719" d="M514.491,347.393H488A1.2,1.2,0,0,1,486.8,346.2v-3.885A1.2,1.2,0,0,1,488,341.121h26.493a1.2,1.2,0,0,1,1.194,1.193V346.2a1.2,1.2,0,0,1-1.194,1.194M488,341.407a.908.908,0,0,0-.907.907V346.2a.909.909,0,0,0,.907.908h26.493a.909.909,0,0,0,.908-.908v-3.885a.909.909,0,0,0-.908-.907Z" transform="translate(-446.04 -312.555)" fill="#e9f3ff"/>
            <rect id="Rectángulo_345000" data-name="Rectángulo 345000" width="27.728" height="0.482" transform="translate(41.485 36.517)" fill="#a7d0f9"/>
            <rect id="Rectángulo_345001" data-name="Rectángulo 345001" width="27.728" height="0.482" transform="translate(41.485 38.67)" fill="#a7d0f9"/>
            <rect id="Rectángulo_345002" data-name="Rectángulo 345002" width="27.728" height="0.482" transform="translate(41.485 40.823)" fill="#a7d0f9"/>
            <rect id="Rectángulo_345003" data-name="Rectángulo 345003" width="27.728" height="0.482" transform="translate(41.485 42.976)" fill="#a7d0f9"/>
            <rect id="Rectángulo_345004" data-name="Rectángulo 345004" width="27.728" height="0.482" transform="translate(41.485 45.129)" fill="#a7d0f9"/>
            <rect id="Rectángulo_345005" data-name="Rectángulo 345005" width="27.728" height="0.482" transform="translate(41.485 47.282)" fill="#a7d0f9"/>
            <rect id="Rectángulo_345006" data-name="Rectángulo 345006" width="27.728" height="0.482" transform="translate(41.485 49.435)" fill="#a7d0f9"/>
            <rect id="Rectángulo_345007" data-name="Rectángulo 345007" width="27.728" height="0.482" transform="translate(41.485 51.588)" fill="#a7d0f9"/>
            <path id="Trazado_732720" data-name="Trazado 732720" d="M238.342,85.024H203.73a2.075,2.075,0,0,1-2.075-2.076V31.063a2.075,2.075,0,0,1,2.075-2.075h34.612a2.075,2.075,0,0,1,2.076,2.075V82.948a2.075,2.075,0,0,1-2.076,2.076" transform="translate(-184.768 -26.561)" fill="#e9f3ff"/>
            <path id="Trazado_732721" data-name="Trazado 732721" d="M236.778,83.605H202.166a2.221,2.221,0,0,1-2.218-2.218V29.5a2.221,2.221,0,0,1,2.218-2.218h34.612A2.221,2.221,0,0,1,239,29.5V81.387a2.221,2.221,0,0,1-2.218,2.218M202.166,27.57a1.934,1.934,0,0,0-1.932,1.932V81.387a1.934,1.934,0,0,0,1.932,1.932h34.612a1.934,1.934,0,0,0,1.932-1.932V29.5a1.934,1.934,0,0,0-1.932-1.932Z" transform="translate(-183.204 -24.999)" fill="#e9f3ff"/>
            <path id="Trazado_732722" data-name="Trazado 732722" d="M289.5,83.779a14.444,14.444,0,1,1-14.444-14.444A14.444,14.444,0,0,1,289.5,83.779" transform="translate(-238.786 -63.529)" fill="#fff"/>
            <path id="Trazado_732723" data-name="Trazado 732723" d="M273.49,96.8a14.587,14.587,0,1,1,14.587-14.588A14.6,14.6,0,0,1,273.49,96.8m0-28.889a14.3,14.3,0,1,0,14.3,14.3,14.318,14.318,0,0,0-14.3-14.3" transform="translate(-237.222 -61.965)" fill="#383749"/>
            <path id="Trazado_732724" data-name="Trazado 732724" d="M373.308,173.675s-.806,3.776.685,5.132l.144-.878s.035,1.207,1.923,1.27,4.089,0,4.089,0a1.924,1.924,0,0,0,2.089-1.078v.928s1.958-1.962.864-5.737Z" transform="translate(-341.848 -158.8)" fill="#383749"/>
            <path id="Trazado_732725" data-name="Trazado 732725" d="M376.348,177.8c-.6,0-1.265-.007-1.889-.028a2.092,2.092,0,0,1-1.866-.849l-.055.337a.143.143,0,0,1-.237.082c-1.534-1.395-.763-5.11-.729-5.268a.144.144,0,0,1,.135-.113l9.794-.362a.138.138,0,0,1,.143.1c1.1,3.812-.818,5.795-.9,5.877a.143.143,0,0,1-.244-.1v-.38a2.268,2.268,0,0,1-1.968.671s-.976.03-2.182.03m-3.807-1.584h.009a.143.143,0,0,1,.133.138c0,.043.065,1.074,1.785,1.132,1.861.064,4.058,0,4.08,0a1.779,1.779,0,0,0,1.959-.985.143.143,0,0,1,.277.05v.518a6.041,6.041,0,0,0,.614-5.179l-9.568.353c-.109.589-.56,3.4.472,4.685l.1-.593a.143.143,0,0,1,.141-.119" transform="translate(-340.251 -157.229)" fill="#383749"/>
            <rect id="Rectángulo_345008" data-name="Rectángulo 345008" width="4.647" height="8.292" transform="translate(33.933 14.917) rotate(-0.152)" fill="#ff9c70"/>
            <path id="Trazado_732726" data-name="Trazado 732726" d="M403.68,184.873a.142.142,0,0,1-.1-.042.141.141,0,0,1-.042-.1l-.022-8.292a.143.143,0,0,1,.143-.143l4.647-.012h0a.142.142,0,0,1,.1.042.141.141,0,0,1,.042.1l.022,8.292a.143.143,0,0,1-.143.144l-4.647.012Zm.122-8.292.021,8.006,4.361-.011-.021-8.006Z" transform="translate(-369.724 -161.521)" fill="#ff9c70"/>
            <path id="Trazado_732727" data-name="Trazado 732727" d="M410.544,220.806s.481,1.627,1.889,1.63,1.78-1.544,1.78-1.544-3.061-.432-3.668-.087" transform="translate(-376.165 -202.193)" fill="#383749"/>
            <path id="Trazado_732728" data-name="Trazado 732728" d="M410.873,221.018h0c-1.5,0-2.021-1.715-2.026-1.732a.143.143,0,0,1,.066-.165c.631-.359,3.441.025,3.759.07a.142.142,0,0,1,.1.061.143.143,0,0,1,.021.114c0,.016-.415,1.653-1.914,1.653m-1.713-1.693a2.007,2.007,0,0,0,1.709,1.407h0a1.742,1.742,0,0,0,1.589-1.282,12.454,12.454,0,0,0-3.3-.125" transform="translate(-374.601 -200.633)" fill="#383749"/>
            <path id="Trazado_732729" data-name="Trazado 732729" d="M392.113,118.214c0,2.907-1.38,5.643-4.122,5.643s-4.123-2.736-4.123-5.643,1.619-4.126,4.123-4.126,4.122,1.219,4.122,4.126" transform="translate(-351.723 -104.534)" fill="#ff9c70"/>
            <path id="Trazado_732730" data-name="Trazado 732730" d="M386.428,122.434c-2.931,0-4.265-3-4.265-5.786s1.475-4.269,4.265-4.269,4.265,1.476,4.265,4.269-1.335,5.786-4.265,5.786m0-9.768c-2.641,0-3.98,1.34-3.98,3.983s1.245,5.5,3.98,5.5,3.979-2.851,3.979-5.5-1.339-3.983-3.979-3.983" transform="translate(-350.16 -102.969)" fill="#383749"/>
            <path id="Trazado_732731" data-name="Trazado 732731" d="M448.021,151.567c-.132.064-.194.418.017.454a5,5,0,0,0,1.643-.057,2.38,2.38,0,0,0-1.661-.4" transform="translate(-410.393 -138.826)" fill="#383749"/>
            <path id="Trazado_732732" data-name="Trazado 732732" d="M447.255,150.63c-.395,0-.764-.028-.8-.036a.3.3,0,0,1-.252-.275.451.451,0,0,1,.2-.448c.5-.244,1.6.228,1.788.379a.171.171,0,0,1,.074.18c-.04.16-.539.2-1,.2m-.733-.5a.207.207,0,0,0-.038.164,5.692,5.692,0,0,0,1.236.036,2.033,2.033,0,0,0-1.2-.2m-.064-.128h0Z" transform="translate(-408.83 -137.258)" fill="#383749"/>
            <path id="Trazado_732733" data-name="Trazado 732733" d="M396.717,151.771c.13.068.179.424-.033.453a5,5,0,0,1-1.641-.114,2.38,2.38,0,0,1,1.674-.339" transform="translate(-361.962 -139.003)" fill="#383749"/>
            <path id="Trazado_732734" data-name="Trazado 732734" d="M394.664,150.82c-.52,0-1.283-.039-1.326-.239a.171.171,0,0,1,.08-.178c.191-.145,1.311-.575,1.8-.318a.452.452,0,0,1,.182.455.306.306,0,0,1-.261.267c-.029,0-.223.013-.474.013m-.787-.324a6.677,6.677,0,0,0,1.222.028.2.2,0,0,0-.016-.186,2.05,2.05,0,0,0-1.205.159" transform="translate(-360.396 -137.444)" fill="#383749"/>
            <path id="Trazado_732735" data-name="Trazado 732735" d="M444.182,164.14s-.438.912-1.171,1.056a2.046,2.046,0,0,1-1.485-.532s.438-.911,1.171-1.056a2.046,2.046,0,0,1,1.485.532" transform="translate(-404.552 -149.888)" fill="#fff"/>
            <path id="Trazado_732736" data-name="Trazado 732736" d="M441.233,163.787a2.362,2.362,0,0,1-1.368-.589.143.143,0,0,1-.033-.168,1.676,1.676,0,0,1,2.881-.568.143.143,0,0,1,.033.168,2.165,2.165,0,0,1-1.273,1.134,1.217,1.217,0,0,1-.24.023m-1.09-.732a1.357,1.357,0,0,0,2.292-.452,1.357,1.357,0,0,0-2.292.452" transform="translate(-402.987 -148.316)" fill="#383749"/>
            <path id="Trazado_732737" data-name="Trazado 732737" d="M392.7,164.14s.438.912,1.171,1.056a2.046,2.046,0,0,0,1.485-.532s-.438-.911-1.171-1.056a2.046,2.046,0,0,0-1.485.532" transform="translate(-359.812 -149.888)" fill="#fff"/>
            <path id="Trazado_732738" data-name="Trazado 732738" d="M392.518,163.788a1.217,1.217,0,0,1-.24-.023A2.166,2.166,0,0,1,391,162.631a.143.143,0,0,1,.033-.168,1.676,1.676,0,0,1,2.881.568.143.143,0,0,1-.033.168,2.363,2.363,0,0,1-1.368.589m-1.2-1.183a1.357,1.357,0,0,0,2.292.452,1.356,1.356,0,0,0-2.292-.452" transform="translate(-358.249 -148.317)" fill="#383749"/>
            <path id="Trazado_732739" data-name="Trazado 732739" d="M426.211,180.422a.14.14,0,0,1-.058-.012c-.113-.05-.457-.2-.45-.482.007-.3.432-.482.518-.515a.143.143,0,0,1,.1.267c-.157.061-.333.183-.335.255,0,.033.057.115.28.214a.143.143,0,0,1-.058.274" transform="translate(-390.054 -164.38)" fill="#383749"/>
            <path id="Trazado_732740" data-name="Trazado 732740" d="M327.616,259.587c-1.813-1.765-6.636-2.164-6.636-2.164l-2.331-.328-2.316.328s-4.349.642-5.672,2.483a26.349,26.349,0,0,0-2.472,5.865,14.434,14.434,0,0,0,21.89-1.129,11.771,11.771,0,0,0-2.463-5.055" transform="translate(-282.381 -235.566)" fill="#9f0925"/>
            <path id="Trazado_732741" data-name="Trazado 732741" d="M317.085,268.843a14.457,14.457,0,0,1-10.564-4.533.143.143,0,0,1-.032-.143,24.857,24.857,0,0,1,2.492-5.9c1.343-1.869,5.587-2.515,5.767-2.541l2.317-.328a.156.156,0,0,1,.04,0l2.331.328c.191.016,4.887.423,6.716,2.2a11.533,11.533,0,0,1,2.5,5.12.144.144,0,0,1-.025.126,14.5,14.5,0,0,1-11.543,5.674m-10.3-4.669a14.291,14.291,0,0,0,21.571-1.124,11.179,11.179,0,0,0-2.406-4.922c-1.756-1.708-6.5-2.12-6.548-2.124l-2.319-.326-2.3.324c-.042.007-4.3.655-5.576,2.425a24.752,24.752,0,0,0-2.425,5.745" transform="translate(-280.817 -234.006)" fill="#9f0925"/>
            <path id="Trazado_732742" data-name="Trazado 732742" d="M313.956,430.2a1.137,1.137,0,0,1-.048.326.837.837,0,0,1-.155.293.785.785,0,0,1-.282.214,1.028,1.028,0,0,1-.435.082.914.914,0,0,1-.569-.173.8.8,0,0,1-.291-.519l.382-.077a.534.534,0,0,0,.157.3.46.46,0,0,0,.326.111.545.545,0,0,0,.269-.059.433.433,0,0,0,.162-.155.663.663,0,0,0,.08-.221,1.443,1.443,0,0,0,.023-.257v-2.257h.382Z" transform="translate(-286.035 -391.986)" fill="#383749"/>
            <path id="Trazado_732743" data-name="Trazado 732743" d="M340.86,440.531a1,1,0,0,1,.389-.248,1.359,1.359,0,0,1,.457-.08.9.9,0,0,1,.683.223.96.96,0,0,1,.209.678v.914q0,.091.009.189c.006.066.014.125.023.18h-.341a.751.751,0,0,1-.021-.161c0-.059,0-.112,0-.157h-.009a.836.836,0,0,1-.28.269.809.809,0,0,1-.421.1,1.125,1.125,0,0,1-.307-.041.772.772,0,0,1-.25-.121.59.59,0,0,1-.171-.2.566.566,0,0,1-.064-.273.593.593,0,0,1,.137-.414.83.83,0,0,1,.339-.223,1.671,1.671,0,0,1,.437-.091q.234-.018.43-.018h.136V441a.435.435,0,0,0-.139-.35.582.582,0,0,0-.389-.119,1.042,1.042,0,0,0-.339.057.811.811,0,0,0-.294.175Zm1.028.833a1.274,1.274,0,0,0-.541.1.325.325,0,0,0-.2.314.31.31,0,0,0,.134.284.618.618,0,0,0,.335.084.655.655,0,0,0,.271-.052.568.568,0,0,0,.193-.139.6.6,0,0,0,.118-.2.825.825,0,0,0,.045-.248v-.137Z" transform="translate(-312.228 -403.341)" fill="#383749"/>
            <path id="Trazado_732744" data-name="Trazado 732744" d="M370.237,440.764q0-.146-.009-.273c-.006-.085-.009-.162-.009-.232h.337c0,.058,0,.115,0,.173s0,.117,0,.177h.009a.614.614,0,0,1,.1-.15.748.748,0,0,1,.157-.13.849.849,0,0,1,.451-.125.932.932,0,0,1,.362.064.674.674,0,0,1,.253.177.721.721,0,0,1,.148.275,1.237,1.237,0,0,1,.048.353v1.315h-.355v-1.279a.682.682,0,0,0-.118-.423.436.436,0,0,0-.369-.155.7.7,0,0,0-.3.059.53.53,0,0,0-.2.169.755.755,0,0,0-.118.259,1.334,1.334,0,0,0-.038.332v1.038h-.355Z" transform="translate(-339.217 -403.341)" fill="#383749"/>
            <path id="Trazado_732745" data-name="Trazado 732745" d="M401.21,442a1.079,1.079,0,0,1-.419.344,1.328,1.328,0,0,1-.528.1,1.1,1.1,0,0,1-.451-.089,1.011,1.011,0,0,1-.339-.239,1.042,1.042,0,0,1-.214-.355,1.256,1.256,0,0,1-.075-.437,1.223,1.223,0,0,1,.082-.453,1.052,1.052,0,0,1,.228-.355,1.02,1.02,0,0,1,.346-.23,1.14,1.14,0,0,1,.437-.082,1.088,1.088,0,0,1,.41.075.888.888,0,0,1,.321.219.984.984,0,0,1,.207.35,1.417,1.417,0,0,1,.073.471v.114h-1.72a.748.748,0,0,0,.066.262.759.759,0,0,0,.148.219.678.678,0,0,0,.214.148.656.656,0,0,0,.269.054.846.846,0,0,0,.391-.082.885.885,0,0,0,.287-.241Zm-.3-.869a.612.612,0,0,0-.178-.437.637.637,0,0,0-.464-.164.657.657,0,0,0-.7.6Z" transform="translate(-365.757 -403.341)" fill="#383749"/>
            <path id="Trazado_732746" data-name="Trazado 732746" d="M446.031,427.812h1.238a1.69,1.69,0,0,1,.689.152,1.638,1.638,0,0,1,.337.207,1.385,1.385,0,0,1,.284.307,1.549,1.549,0,0,1,.2.414,1.972,1.972,0,0,1,0,1.06,1.55,1.55,0,0,1-.2.414,1.384,1.384,0,0,1-.284.307,1.645,1.645,0,0,1-.69.323,1.664,1.664,0,0,1-.337.037h-1.238Zm.382,2.867h.728a1.741,1.741,0,0,0,.514-.073,1.1,1.1,0,0,0,.41-.226,1.057,1.057,0,0,0,.273-.389,1.665,1.665,0,0,0,0-1.138,1.063,1.063,0,0,0-.273-.389,1.1,1.1,0,0,0-.41-.225,1.739,1.739,0,0,0-.514-.073h-.728Z" transform="translate(-408.68 -391.987)" fill="#383749"/>
            <path id="Trazado_732747" data-name="Trazado 732747" d="M484.781,441.323a1.158,1.158,0,0,1,.087-.455,1.077,1.077,0,0,1,.237-.353,1.052,1.052,0,0,1,.359-.23,1.307,1.307,0,0,1,.91,0,1.05,1.05,0,0,1,.359.23,1.077,1.077,0,0,1,.237.353,1.24,1.24,0,0,1,0,.91,1.071,1.071,0,0,1-.237.353,1.044,1.044,0,0,1-.359.23,1.306,1.306,0,0,1-.91,0,1.047,1.047,0,0,1-.359-.23,1.071,1.071,0,0,1-.237-.353,1.158,1.158,0,0,1-.087-.455m.382,0a.9.9,0,0,0,.052.312.719.719,0,0,0,.392.419.826.826,0,0,0,.624,0,.72.72,0,0,0,.391-.419.952.952,0,0,0,0-.623.72.72,0,0,0-.391-.419.821.821,0,0,0-.624,0,.719.719,0,0,0-.392.419.9.9,0,0,0-.052.311" transform="translate(-444.185 -403.341)" fill="#383749"/>
            <path id="Trazado_732748" data-name="Trazado 732748" d="M517.827,442.984h-.351l-.605-1.638h-.009l-.537,1.638h-.364l-.692-2.13h.391l.487,1.638h.009l.551-1.638h.373l.56,1.638h.009l.482-1.638h.382Z" transform="translate(-472.121 -403.937)" fill="#383749"/>
            <path id="Trazado_732749" data-name="Trazado 732749" d="M394.73,245.151a3.167,3.167,0,0,0,2.32,1s-1,1.213-.521,2.259a3.239,3.239,0,0,1-2.773-1.237,5.5,5.5,0,0,1,.975-2.022" transform="translate(-360.782 -224.622)" fill="#e9f3ff"/>
            <path id="Trazado_732750" data-name="Trazado 732750" d="M394.743,247a3.348,3.348,0,0,1-2.663-1.3.144.144,0,0,1-.026-.122,5.578,5.578,0,0,1,1.008-2.085.218.218,0,0,1,.109-.046.144.144,0,0,1,.107.051,3.053,3.053,0,0,0,2.21.949.143.143,0,0,1,.11.234c-.009.011-.937,1.157-.5,2.109a.143.143,0,0,1-.113.2,2.212,2.212,0,0,1-.24.011m-2.394-1.423a3.1,3.1,0,0,0,2.412,1.136h0a2.507,2.507,0,0,1,.453-1.992,3.318,3.318,0,0,1-2.042-.919,5.539,5.539,0,0,0-.824,1.776" transform="translate(-359.219 -223.055)" fill="#e9f3ff"/>
            <path id="Trazado_732751" data-name="Trazado 732751" d="M435.418,245.151a3.167,3.167,0,0,1-2.32,1s1,1.213.521,2.259a3.239,3.239,0,0,0,2.773-1.237,5.5,5.5,0,0,0-.975-2.022" transform="translate(-396.83 -224.622)" fill="#e9f3ff"/>
            <path id="Trazado_732752" data-name="Trazado 732752" d="M432.281,247a2.189,2.189,0,0,1-.24-.011.143.143,0,0,1-.113-.2c.435-.951-.492-2.1-.5-2.109a.143.143,0,0,1,.11-.234,3.052,3.052,0,0,0,2.21-.949.144.144,0,0,1,.107-.051.187.187,0,0,1,.109.046,5.574,5.574,0,0,1,1.008,2.085.144.144,0,0,1-.026.122,3.349,3.349,0,0,1-2.663,1.3m-.472-2.28a2.506,2.506,0,0,1,.452,1.992,3.112,3.112,0,0,0,2.413-1.135,5.54,5.54,0,0,0-.824-1.776,3.317,3.317,0,0,1-2.041.919" transform="translate(-395.268 -223.055)" fill="#e9f3ff"/>
            <path id="Trazado_732753" data-name="Trazado 732753" d="M427.146,194.847a2.036,2.036,0,0,1-.265-.016.143.143,0,0,1-.121-.161.145.145,0,0,1,.162-.121,1.225,1.225,0,0,0,.964-.226.143.143,0,1,1,.219.183,1.258,1.258,0,0,1-.958.342" transform="translate(-391.021 -178.003)" fill="#383749"/>
            <path id="Trazado_732754" data-name="Trazado 732754" d="M451.256,165.317c-.733.145-1.047-1.444-.313-1.588s1.047,1.444.313,1.588" transform="translate(-412.798 -150.009)" fill="#383749"/>
            <path id="Trazado_732755" data-name="Trazado 732755" d="M449.6,163.9c-.4,0-.668-.4-.749-.811-.089-.45.031-.977.506-1.071s.786.349.875.8a1.22,1.22,0,0,1-.036.651.626.626,0,0,1-.47.42.664.664,0,0,1-.126.013m-.123-1.608a.326.326,0,0,0-.065.006c-.269.054-.345.41-.281.735s.269.623.539.573a.343.343,0,0,0,.257-.24,1.033,1.033,0,0,0-.186-.945.357.357,0,0,0-.264-.13" transform="translate(-411.235 -148.442)" fill="#383749"/>
            <path id="Trazado_732756" data-name="Trazado 732756" d="M402.114,165.317c.733.145,1.047-1.444.313-1.588s-1.047,1.444-.313,1.588" transform="translate(-368.058 -150.009)" fill="#383749"/>
            <path id="Trazado_732757" data-name="Trazado 732757" d="M400.646,163.907a.665.665,0,0,1-.126-.013.626.626,0,0,1-.47-.42,1.316,1.316,0,0,1,.244-1.239.627.627,0,0,1,.594-.21c.475.094.595.621.506,1.071-.081.409-.345.811-.749.811m.126-1.608c-.238,0-.418.28-.477.58-.064.325.012.682.281.735s.474-.248.539-.573-.011-.682-.281-.735a.335.335,0,0,0-.062-.006" transform="translate(-366.491 -148.446)" fill="#383749"/>
            <path id="Trazado_732758" data-name="Trazado 732758" d="M273.49,96.8a14.587,14.587,0,1,1,14.587-14.588A14.6,14.6,0,0,1,273.49,96.8m0-28.889a14.3,14.3,0,1,0,14.3,14.3,14.318,14.318,0,0,0-14.3-14.3" transform="translate(-237.222 -61.965)" fill="#383749"/>
            <path id="Trazado_732759" data-name="Trazado 732759" d="M356.863,357.459h-.016a.142.142,0,0,1-.126-.157l.387-3.514a.136.136,0,0,1,.158-.126.142.142,0,0,1,.127.158L357,357.331a.143.143,0,0,1-.142.127" transform="translate(-326.848 -324.041)" fill="#383749"/>
            <path id="Trazado_732760" data-name="Trazado 732760" d="M511.49,352.325a.143.143,0,0,1-.135-.095l-1.1-3.107a.143.143,0,0,1,.27-.1l1.1,3.106a.143.143,0,0,1-.087.183.145.145,0,0,1-.048.008" transform="translate(-467.518 -319.712)" fill="#383749"/>
            <path id="Trazado_732761" data-name="Trazado 732761" d="M379.013,103.624s-1.9,3.271-3.278,2.819c0,0-.831-5.372,4.371-4.813,0,0,2.543-.8,4.272.691s.868,4.909.868,4.909a5.117,5.117,0,0,1-2.03-3.032s-1.482,1.633-4.2-.574" transform="translate(-344.226 -92.924)" fill="#383749"/>
            <path id="Trazado_732762" data-name="Trazado 732762" d="M383.654,105.761a.143.143,0,0,1-.083-.026,5.429,5.429,0,0,1-2.053-2.874c-.508.364-1.919,1.03-4.058-.635-.394.644-2.039,3.173-3.361,2.741a.144.144,0,0,1-.1-.114,5.225,5.225,0,0,1,1.014-3.988,4,4,0,0,1,3.485-.992,4.968,4.968,0,0,1,4.379.728c1.775,1.53.949,4.909.913,5.052a.143.143,0,0,1-.089.1.137.137,0,0,1-.049.009m-2.03-3.317a.141.141,0,0,1,.045.007.143.143,0,0,1,.1.122,4.717,4.717,0,0,0,1.8,2.792c.149-.765.527-3.345-.869-4.548-1.647-1.418-4.112-.671-4.136-.663a.159.159,0,0,1-.058.006,3.756,3.756,0,0,0-3.277.9,4.9,4.9,0,0,0-.949,3.655c1.039.2,2.527-1.919,3.025-2.776a.143.143,0,0,1,.1-.069.148.148,0,0,1,.116.03c2.584,2.1,3.992.6,4.006.59a.144.144,0,0,1,.106-.047" transform="translate(-342.634 -91.312)" fill="#383749"/>
            <path id="Trazado_732763" data-name="Trazado 732763" d="M369.841,157.555s-.375-.882-1.119-.5-.634,2.837,1.262,2.428Z" transform="translate(-337.453 -143.817)" fill="#ff9c70"/>
            <path id="Trazado_732764" data-name="Trazado 732764" d="M368.026,158.1a1.342,1.342,0,0,1-1.325-.941,1.556,1.556,0,0,1,.391-1.8.837.837,0,0,1,.691-.068,1.242,1.242,0,0,1,.626.635.149.149,0,0,1,.011.045l.144,1.932a.143.143,0,0,1-.113.15,2.014,2.014,0,0,1-.424.047m-.5-2.57a.651.651,0,0,0-.3.082c-.33.171-.455.89-.254,1.451a1.083,1.083,0,0,0,1.3.733l-.132-1.778a.936.936,0,0,0-.452-.46.479.479,0,0,0-.163-.028" transform="translate(-335.889 -142.247)" fill="#ff9c70"/>
            <path id="Trazado_732765" data-name="Trazado 732765" d="M368.027,158.1a1.342,1.342,0,0,1-1.325-.941,1.556,1.556,0,0,1,.391-1.8.837.837,0,0,1,.69-.068,1.242,1.242,0,0,1,.626.635.143.143,0,0,1-.263.112.964.964,0,0,0-.461-.479.566.566,0,0,0-.461.053c-.33.171-.455.89-.254,1.451a1.1,1.1,0,0,0,1.42.711.143.143,0,1,1,.06.279,2.008,2.008,0,0,1-.424.047" transform="translate(-335.889 -142.248)" fill="#383749"/>
            <path id="Trazado_732766" data-name="Trazado 732766" d="M372.686,165.507a.143.143,0,0,1-.136-.1.717.717,0,0,0-.573-.484.143.143,0,0,1-.128-.157.146.146,0,0,1,.156-.128,1,1,0,0,1,.818.684.142.142,0,0,1-.137.185" transform="translate(-340.709 -150.852)" fill="#383749"/>
            <path id="Trazado_732767" data-name="Trazado 732767" d="M477.858,157.555s.375-.882,1.119-.5.634,2.837-1.263,2.428Z" transform="translate(-437.71 -143.817)" fill="#ff9c70"/>
            <path id="Trazado_732768" data-name="Trazado 732768" d="M476.544,158.1a2.008,2.008,0,0,1-.424-.047.143.143,0,0,1-.113-.15l.144-1.932a.15.15,0,0,1,.011-.045,1.243,1.243,0,0,1,.626-.635.837.837,0,0,1,.69.068,1.557,1.557,0,0,1,.391,1.8,1.342,1.342,0,0,1-1.325.941m-.242-.3a1.081,1.081,0,0,0,1.3-.733c.2-.561.076-1.28-.253-1.451a.559.559,0,0,0-.461-.053.938.938,0,0,0-.452.46Z" transform="translate(-436.145 -142.248)" fill="#ff9c70"/>
            <path id="Trazado_732769" data-name="Trazado 732769" d="M476.544,158.1a2.008,2.008,0,0,1-.424-.047.143.143,0,1,1,.06-.279,1.106,1.106,0,0,0,1.42-.711c.2-.561.076-1.28-.254-1.451a.559.559,0,0,0-.46-.053.966.966,0,0,0-.461.479.145.145,0,0,1-.188.075.142.142,0,0,1-.075-.187,1.242,1.242,0,0,1,.626-.635.836.836,0,0,1,.69.068,1.556,1.556,0,0,1,.391,1.8,1.342,1.342,0,0,1-1.325.941" transform="translate(-436.145 -142.248)" fill="#383749"/>
            <path id="Trazado_732770" data-name="Trazado 732770" d="M482.776,165.507a.163.163,0,0,1-.042-.006.143.143,0,0,1-.094-.179,1,1,0,0,1,.818-.683.146.146,0,0,1,.156.128.143.143,0,0,1-.128.157.72.72,0,0,0-.573.484.143.143,0,0,1-.137.1" transform="translate(-442.217 -150.851)" fill="#383749"/>
            <path id="Trazado_732771" data-name="Trazado 732771" d="M279.49,492.294H249.027a.322.322,0,0,1,0-.643H279.49a.322.322,0,0,1,0,.643" transform="translate(-227.879 -450.48)" fill="#a7d0f9"/>
            <path id="Trazado_732772" data-name="Trazado 732772" d="M277.926,490.876H247.463a.464.464,0,0,1,0-.929h30.462a.464.464,0,0,1,0,.929m-30.462-.643a.178.178,0,0,0,0,.357h30.462a.178.178,0,0,0,0-.357Z" transform="translate(-226.315 -448.919)" fill="#a7d0f9"/>
            <path id="Trazado_732773" data-name="Trazado 732773" d="M525.484,526.5a.143.143,0,0,1,0-.286c2.57-.007,5.193-.029,7.795-.066a.135.135,0,0,1,.145.141.143.143,0,0,1-.141.145c-2.6.037-5.226.06-7.8.066Z" transform="translate(-481.349 -482.09)" fill="#383749"/>
            <path id="Trazado_732774" data-name="Trazado 732774" d="M404.48,526.5c-3.057,0-6.21-.023-9.371-.068a.143.143,0,0,1-.141-.145.146.146,0,0,1,.145-.141c3.159.045,6.311.068,9.367.068a.143.143,0,0,1,0,.286" transform="translate(-361.894 -482.09)" fill="#383749"/>
            <path id="Trazado_732775" data-name="Trazado 732775" d="M252.59,526.5c-1.826,0-3.66-.023-5.452-.069a.143.143,0,0,1-.139-.147.146.146,0,0,1,.147-.139c3.578.091,7.326.091,10.84,0a.137.137,0,0,1,.147.139.143.143,0,0,1-.139.147c-1.759.046-3.577.069-5.4.069" transform="translate(-226.316 -482.09)" fill="#383749"/>
            <path id="Trazado_732776" data-name="Trazado 732776" d="M448.22,549.513c-2.523,0-5.046-.014-7.447-.044a.143.143,0,0,1,0-.286h0c4.8.06,10.087.06,14.887,0h0a.143.143,0,0,1,0,.286c-2.4.03-4.924.044-7.447.044" transform="translate(-403.733 -503.194)" fill="#383749"/>
            <path id="Trazado_732777" data-name="Trazado 732777" d="M305.883,549.512q-1.4,0-2.815-.006a.143.143,0,0,1,0-.286h0c3.419.016,6.807,0,10.072-.037h0a.143.143,0,0,1,0,.286c-2.367.029-4.8.044-7.261.044" transform="translate(-277.558 -503.194)" fill="#383749"/>
            <path id="Trazado_732778" data-name="Trazado 732778" d="M250.014,549.5h0q-1.436-.01-2.873-.027a.143.143,0,0,1,0-.286h0q1.436.017,2.872.027a.143.143,0,0,1,0,.286" transform="translate(-226.315 -503.194)" fill="#383749"/>
            <path id="Trazado_732779" data-name="Trazado 732779" d="M547.91,576.4a.143.143,0,0,1,0-.286c1.963-.01,3.954-.027,5.917-.054h0a.143.143,0,0,1,0,.286c-1.964.026-3.956.044-5.92.054Z" transform="translate(-501.897 -527.818)" fill="#383749"/>
            <path id="Trazado_732780" data-name="Trazado 732780" d="M398.593,576.405c-3.215,0-6.461-.021-9.679-.063a.143.143,0,0,1,0-.286h0c3.912.051,7.869.073,11.757.06h0a.143.143,0,0,1,0,.286q-1.039,0-2.083,0" transform="translate(-356.218 -527.818)" fill="#383749"/>
            <path id="Trazado_732781" data-name="Trazado 732781" d="M252.385,576.405c-1.717,0-3.457-.021-5.246-.063a.143.143,0,0,1-.14-.146.146.146,0,0,1,.146-.14c3.573.084,6.953.084,10.335,0h0a.143.143,0,0,1,0,.286c-1.693.042-3.386.063-5.1.063" transform="translate(-226.316 -527.817)" fill="#383749"/>
            <path id="Trazado_732782" data-name="Trazado 732782" d="M479.889,603.3c-1.985,0-4.005-.027-6.173-.082a.143.143,0,0,1,.007-.286c4.331.109,8.07.109,12.124,0h0a.143.143,0,0,1,0,.286c-2.029.055-3.98.082-5.966.082" transform="translate(-433.919 -552.44)" fill="#383749"/>
            <path id="Trazado_732783" data-name="Trazado 732783" d="M320.41,603.3q-1.471,0-2.956-.009a.143.143,0,0,1,0-.286h0c3.982.025,7.9,0,11.644-.073a.158.158,0,0,1,.146.14.143.143,0,0,1-.14.146c-2.817.054-5.731.082-8.7.082" transform="translate(-290.74 -552.44)" fill="#383749"/>
            <path id="Trazado_732784" data-name="Trazado 732784" d="M251.231,603.274h0q-2.045-.02-4.09-.058a.143.143,0,0,1,0-.286h0q2.043.038,4.087.058a.143.143,0,0,1,0,.286" transform="translate(-226.316 -552.44)" fill="#383749"/>
            <path id="Trazado_732785" data-name="Trazado 732785" d="M561.766,632.716h0c-1.676-.05-3.422-.087-5.191-.111a.143.143,0,0,1,0-.286h0c1.77.024,3.518.061,5.2.111a.143.143,0,0,1,0,.286" transform="translate(-509.834 -579.368)" fill="#383749"/>
            <path id="Trazado_732786" data-name="Trazado 732786" d="M382.768,632.383a.143.143,0,0,1,0-.286c4.253-.121,8.559-.165,12.793-.13a.143.143,0,0,1,0,.286h0c-4.232-.036-8.532.009-12.783.13Z" transform="translate(-350.584 -579.035)" fill="#383749"/>
            <path id="Trazado_732787" data-name="Trazado 732787" d="M256.985,632.392h-.008a85.811,85.811,0,0,0-9.826,0,.148.148,0,0,1-.15-.136.143.143,0,0,1,.135-.15,86.312,86.312,0,0,1,9.858,0,.143.143,0,0,1-.008.286" transform="translate(-226.317 -579.044)" fill="#383749"/>
            <path id="Trazado_732788" data-name="Trazado 732788" d="M490.094,659.349h-.005c-3.65-.128-7.818-.128-11.734,0a.136.136,0,0,1-.148-.138.143.143,0,0,1,.138-.147c3.923-.128,8.1-.128,11.753,0a.143.143,0,0,1-.005.286" transform="translate(-438.163 -603.785)" fill="#383749"/>
            <path id="Trazado_732789" data-name="Trazado 732789" d="M343.2,659.347h0c-3.531-.078-7.112-.108-10.643-.092h0a.143.143,0,0,1,0-.286c3.532-.016,7.117.014,10.65.092a.143.143,0,0,1,0,.286" transform="translate(-304.57 -603.783)" fill="#383749"/>
            <path id="Trazado_732790" data-name="Trazado 732790" d="M247.143,659.494a.143.143,0,0,1,0-.286c1.9-.04,3.8-.068,5.649-.083h0a.143.143,0,0,1,0,.286c-1.843.015-3.743.043-5.645.083Z" transform="translate(-226.316 -603.93)" fill="#383749"/>
            <path id="Trazado_732791" data-name="Trazado 732791" d="M769.168,596.3h0a2.459,2.459,0,0,1-2.936-1.862l-9.243-41.284,4.8-1.074,9.243,41.284a2.459,2.459,0,0,1-1.862,2.936" transform="translate(-693.598 -505.844)" fill="#c8e1ff"/>
            <path id="Trazado_732792" data-name="Trazado 732792" d="M764.827,593.657a2.575,2.575,0,0,1-.3-.756l-9.243-41.284a.143.143,0,0,1,.108-.171l4.8-1.074a.142.142,0,0,1,.108.019.133.133,0,0,1,.063.089l9.243,41.284a2.6,2.6,0,0,1-4.777,1.893m-9.233-41.963,9.212,41.144a2.316,2.316,0,1,0,4.519-1.012l-9.212-41.144Z" transform="translate(-692.033 -504.28)" fill="#383749"/>
            <path id="Trazado_732793" data-name="Trazado 732793" d="M716.794,501.4l-7.185,1.609a2.218,2.218,0,0,1-2.649-1.68l-.752-3.358,11.514-2.578.752,3.358a2.218,2.218,0,0,1-1.68,2.649" transform="translate(-647.07 -453.91)" fill="#a7d0f9"/>
            <path id="Trazado_732794" data-name="Trazado 732794" d="M705.529,500.488a2.353,2.353,0,0,1-.273-.69l-.752-3.358a.143.143,0,0,1,.108-.171l11.514-2.578a.142.142,0,0,1,.171.108l.752,3.358a2.363,2.363,0,0,1-1.788,2.82l-7.185,1.609a2.365,2.365,0,0,1-2.547-1.1m-.715-3.971.721,3.218a2.074,2.074,0,0,0,2.479,1.571L715.2,499.7a2.078,2.078,0,0,0,1.572-2.479L716.05,494Z" transform="translate(-645.505 -452.346)" fill="#383749"/>
            <path id="Trazado_732795" data-name="Trazado 732795" d="M486.459,18.207A22.35,22.35,0,1,0,500.8,46.373a22.35,22.35,0,0,0-14.342-28.166m11.746,27.322A19.621,19.621,0,1,1,485.615,20.8a19.621,19.621,0,0,1,12.59,24.727" transform="translate(-418.906 -15.673)" fill="#fff"/>
            <path id="Trazado_732796" data-name="Trazado 732796" d="M477.95,60.344a22.53,22.53,0,1,1,10.182-2.46,22.536,22.536,0,0,1-10.182,2.46M477.9,15.622a22.268,22.268,0,1,0,6.891,1.1,22.112,22.112,0,0,0-6.891-1.1m.009,41.983a19.765,19.765,0,1,1,18.809-13.653l-.136-.044.136.044a19.8,19.8,0,0,1-18.809,13.653m.029-39.245a19.481,19.481,0,1,0,6.01.956,19.512,19.512,0,0,0-6.01-.956" transform="translate(-417.285 -14.052)" fill="#383749"/>
          </g>
        </g>
        <g id="Grupo_987249" data-name="Grupo 987249" transform="translate(41.015 4.164)">
          <g id="Grupo_987248" data-name="Grupo 987248" clip-path="url(#clip-path-2)">
            <path id="Trazado_732797" data-name="Trazado 732797" d="M448.081,106.207H480.06a1.918,1.918,0,0,0,1.918-1.918V56.351a1.918,1.918,0,0,0-1.918-1.918H448.081a1.918,1.918,0,0,0-1.918,1.918v47.939a1.918,1.918,0,0,0,1.918,1.918" transform="translate(-449.816 -54.037)" fill="#c8e1ff"/>
            <path id="Trazado_732798" data-name="Trazado 732798" d="M478.5,104.784H446.517a2.063,2.063,0,0,1-2.061-2.061V54.785a2.063,2.063,0,0,1,2.061-2.061H478.5a2.063,2.063,0,0,1,2.061,2.061v47.939a2.063,2.063,0,0,1-2.061,2.061M446.517,53.01a1.777,1.777,0,0,0-1.775,1.775v47.939a1.777,1.777,0,0,0,1.775,1.775H478.5a1.777,1.777,0,0,0,1.775-1.775V54.785A1.777,1.777,0,0,0,478.5,53.01Z" transform="translate(-448.252 -52.471)" fill="#c8e1ff"/>
            <path id="Trazado_732799" data-name="Trazado 732799" d="M629.949,113.472a8.444,8.444,0,1,0,8.444-8.444,8.41,8.41,0,0,0-8.444,8.444" transform="translate(-618.212 -100.395)" fill="#fff"/>
            <path id="Trazado_732800" data-name="Trazado 732800" d="M665.242,156.8a8.429,8.429,0,0,0,10.981,0,5.609,5.609,0,0,0-4.489-4.377,3.625,3.625,0,1,0-2,0,5.6,5.6,0,0,0-4.489,4.381" transform="translate(-650.549 -137.313)" fill="#9f0925"/>
            <path id="Trazado_732801" data-name="Trazado 732801" d="M506.937,346.614H479.054a1.25,1.25,0,0,1-1.249-1.249v-4.089a1.25,1.25,0,0,1,1.249-1.249h27.883a1.25,1.25,0,0,1,1.248,1.249v4.089a1.25,1.25,0,0,1-1.248,1.249m-27.883-6.3a.964.964,0,0,0-.963.963v4.089a.964.964,0,0,0,.963.963h27.883a.963.963,0,0,0,.962-.963v-4.089a.963.963,0,0,0-.962-.963Z" transform="translate(-478.809 -315.715)" fill="#e9f3ff"/>
            <rect id="Rectángulo_345010" data-name="Rectángulo 345010" width="29.182" height="0.507" transform="translate(-0.254 32.673)" fill="#a7d0f9"/>
            <rect id="Rectángulo_345011" data-name="Rectángulo 345011" width="29.182" height="0.507" transform="translate(-0.254 34.939)" fill="#a7d0f9"/>
            <rect id="Rectángulo_345012" data-name="Rectángulo 345012" width="29.182" height="0.507" transform="translate(-0.254 37.205)" fill="#a7d0f9"/>
            <rect id="Rectángulo_345013" data-name="Rectángulo 345013" width="29.182" height="0.507" transform="translate(-0.254 39.471)" fill="#a7d0f9"/>
            <rect id="Rectángulo_345014" data-name="Rectángulo 345014" width="29.182" height="0.507" transform="translate(-0.254 41.737)" fill="#a7d0f9"/>
            <rect id="Rectángulo_345015" data-name="Rectángulo 345015" width="29.182" height="0.507" transform="translate(-0.254 44.003)" fill="#a7d0f9"/>
            <rect id="Rectángulo_345016" data-name="Rectángulo 345016" width="29.182" height="0.507" transform="translate(-0.254 46.269)" fill="#a7d0f9"/>
            <rect id="Rectángulo_345017" data-name="Rectángulo 345017" width="29.182" height="0.507" transform="translate(-0.254 48.535)" fill="#a7d0f9"/>
            <path id="Trazado_732802" data-name="Trazado 732802" d="M222.461,62.312H185.028a2.245,2.245,0,0,1-2.245-2.245V3.952a2.245,2.245,0,0,1,2.245-2.245h37.434a2.245,2.245,0,0,1,2.245,2.245V60.067a2.245,2.245,0,0,1-2.245,2.245" transform="translate(-208.492 -5.726)" fill="#e9f3ff"/>
            <path id="Trazado_732803" data-name="Trazado 732803" d="M220.9,60.892H183.464a2.39,2.39,0,0,1-2.388-2.387V2.389A2.39,2.39,0,0,1,183.464,0H220.9a2.39,2.39,0,0,1,2.388,2.387V58.5a2.39,2.39,0,0,1-2.388,2.387M183.464.288a2.1,2.1,0,0,0-2.1,2.1V58.5a2.1,2.1,0,0,0,2.1,2.1H220.9a2.1,2.1,0,0,0,2.1-2.1V2.389a2.1,2.1,0,0,0-2.1-2.1Z" transform="translate(-206.928 -4.164)" fill="#e9f3ff"/>
            <path id="Trazado_732804" data-name="Trazado 732804" d="M277.789,60.966a15.622,15.622,0,1,1-15.622-15.622,15.622,15.622,0,0,1,15.622,15.622" transform="translate(-266.914 -45.709)" fill="#fff"/>
            <path id="Trazado_732805" data-name="Trazado 732805" d="M260.6,75.164A15.765,15.765,0,1,1,276.369,59.4,15.782,15.782,0,0,1,260.6,75.164m0-31.244A15.479,15.479,0,1,0,276.083,59.4,15.5,15.5,0,0,0,260.6,43.92" transform="translate(-265.351 -44.142)" fill="#383749"/>
            <path id="Trazado_732806" data-name="Trazado 732806" d="M368.432,158.193s-.871,4.084.741,5.551l.156-.949s.038,1.305,2.08,1.374,4.422,0,4.422,0A2.081,2.081,0,0,0,378.09,163v1s2.117-2.122.934-6.2Z" transform="translate(-378.379 -148.749)" fill="#383749"/>
            <path id="Trazado_732807" data-name="Trazado 732807" d="M371.847,162.773c-.653,0-1.368-.007-2.043-.03a2.23,2.23,0,0,1-2.025-.939l-.065.4a.143.143,0,0,1-.237.082c-1.654-1.5-.821-5.516-.785-5.686a.143.143,0,0,1,.135-.113l10.593-.392a.153.153,0,0,1,.143.1c1.193,4.117-.882,6.257-.971,6.346a.143.143,0,0,1-.244-.1v-.445a2.426,2.426,0,0,1-2.138.748s-1.057.032-2.361.032m-4.118-1.69h.009a.143.143,0,0,1,.133.138c0,.047.07,1.172,1.942,1.235,2.015.069,4.39,0,4.414,0a1.935,1.935,0,0,0,2.129-1.073.143.143,0,0,1,.277.05v.6a6.528,6.528,0,0,0,.685-5.651l-10.367.384c-.115.62-.618,3.717.528,5.106l.109-.666a.143.143,0,0,1,.141-.12" transform="translate(-376.779 -147.181)" fill="#383749"/>
            <rect id="Rectángulo_345018" data-name="Rectángulo 345018" width="5.026" height="8.968" transform="translate(-7.272 9.489) rotate(-0.152)" fill="#ff9c70"/>
            <path id="Trazado_732808" data-name="Trazado 732808" d="M401.408,170.413a.143.143,0,0,1-.143-.142l-.024-8.968a.143.143,0,0,1,.143-.144l5.026-.013h0a.142.142,0,0,1,.1.042.141.141,0,0,1,.042.1l.024,8.969a.145.145,0,0,1-.042.1.143.143,0,0,1-.1.042l-5.026.013Zm.12-8.969.023,8.682,4.74-.012-.023-8.683Z" transform="translate(-408.656 -151.814)" fill="#ff9c70"/>
            <path id="Trazado_732809" data-name="Trazado 732809" d="M408.7,209.166s.52,1.76,2.043,1.763,1.925-1.67,1.925-1.67-3.311-.467-3.967-.094" transform="translate(-415.495 -195.68)" fill="#383749"/>
            <path id="Trazado_732810" data-name="Trazado 732810" d="M409.19,209.516h0c-1.611,0-2.174-1.847-2.18-1.865a.144.144,0,0,1,.066-.165c.679-.385,3.714.028,4.058.076a.142.142,0,0,1,.1.061.144.144,0,0,1,.021.114c0,.018-.446,1.779-2.059,1.779m-1.868-1.827a2.19,2.19,0,0,0,1.863,1.541h0a1.9,1.9,0,0,0,1.735-1.408,13.891,13.891,0,0,0-3.6-.133" transform="translate(-413.932 -194.123)" fill="#383749"/>
            <path id="Trazado_732811" data-name="Trazado 732811" d="M388.772,98.208c0,3.144-1.493,6.1-4.459,6.1s-4.459-2.959-4.459-6.1,1.751-4.462,4.459-4.462,4.459,1.318,4.459,4.462" transform="translate(-389.061 -90.058)" fill="#ff9c70"/>
            <path id="Trazado_732812" data-name="Trazado 732812" d="M382.75,102.892c-3.162,0-4.6-3.238-4.6-6.246s1.591-4.6,4.6-4.6,4.6,1.592,4.6,4.6-1.44,6.246-4.6,6.246m0-10.565c-2.864,0-4.316,1.453-4.316,4.319s1.351,5.96,4.316,5.96,4.315-3.09,4.315-5.96-1.452-4.319-4.315-4.319" transform="translate(-387.497 -88.496)" fill="#383749"/>
            <path id="Trazado_732813" data-name="Trazado 732813" d="M449.238,134.281c-.143.069-.21.452.019.491a5.406,5.406,0,0,0,1.777-.062,2.574,2.574,0,0,0-1.8-.429" transform="translate(-452.514 -127.145)" fill="#383749"/>
            <path id="Trazado_732814" data-name="Trazado 732814" d="M448.557,133.389c-.433,0-.844-.032-.888-.04a.318.318,0,0,1-.263-.288.476.476,0,0,1,.207-.473c.533-.258,1.72.247,1.92.409a.174.174,0,0,1,.076.183c-.041.167-.561.208-1.053.208m-.819-.543a.233.233,0,0,0-.047.186c.007.032.017.034.027.035a7.328,7.328,0,0,0,1.375.012,2.248,2.248,0,0,0-1.354-.234m-.063-.128h0Z" transform="translate(-450.951 -125.582)" fill="#383749"/>
            <path id="Trazado_732815" data-name="Trazado 732815" d="M393.752,134.5c.14.074.194.459-.036.49a5.4,5.4,0,0,1-1.774-.124,2.574,2.574,0,0,1,1.81-.367" transform="translate(-400.135 -127.337)" fill="#383749"/>
            <path id="Trazado_732816" data-name="Trazado 732816" d="M391.637,133.6c-.558,0-1.357-.041-1.4-.251a.173.173,0,0,1,.082-.18c.205-.155,1.41-.616,1.934-.342a.475.475,0,0,1,.19.48.318.318,0,0,1-.273.279c-.032,0-.252.014-.533.014m-.88-.334a7.161,7.161,0,0,0,1.374.036c.01,0,.02,0,.028-.034a.233.233,0,0,0-.04-.188,2.262,2.262,0,0,0-1.361.187" transform="translate(-398.57 -125.784)" fill="#383749"/>
            <path id="Trazado_732817" data-name="Trazado 732817" d="M445.086,147.879s-.474.986-1.267,1.142a2.213,2.213,0,0,1-1.606-.576s.474-.986,1.267-1.142a2.213,2.213,0,0,1,1.606.576" transform="translate(-446.197 -139.11)" fill="#fff"/>
            <path id="Trazado_732818" data-name="Trazado 732818" d="M442.023,147.615a2.545,2.545,0,0,1-1.471-.634.143.143,0,0,1-.033-.168,1.8,1.8,0,0,1,3.1-.611.142.142,0,0,1,.033.168,2.33,2.33,0,0,1-1.368,1.221,1.307,1.307,0,0,1-.258.025m-1.194-.776a1.482,1.482,0,0,0,2.509-.5,1.482,1.482,0,0,0-2.509.5" transform="translate(-444.631 -137.539)" fill="#383749"/>
            <path id="Trazado_732819" data-name="Trazado 732819" d="M389.4,147.879s.474.986,1.267,1.142a2.213,2.213,0,0,0,1.606-.576s-.474-.986-1.267-1.142a2.213,2.213,0,0,0-1.606.576" transform="translate(-397.809 -139.11)" fill="#fff"/>
            <path id="Trazado_732820" data-name="Trazado 732820" d="M389.337,147.608a1.306,1.306,0,0,1-.258-.025,2.329,2.329,0,0,1-1.368-1.221.142.142,0,0,1,.033-.168,1.8,1.8,0,0,1,3.1.611.143.143,0,0,1-.033.168,2.544,2.544,0,0,1-1.471.634m-1.315-1.272a1.482,1.482,0,0,0,2.509.5,1.482,1.482,0,0,0-2.509-.5" transform="translate(-396.246 -137.531)" fill="#383749"/>
            <path id="Trazado_732821" data-name="Trazado 732821" d="M425.779,165.607a.139.139,0,0,1-.058-.012c-.121-.053-.487-.216-.48-.51.008-.32.461-.512.552-.547a.143.143,0,0,1,.1.267c-.173.067-.367.2-.369.287,0,.048.079.14.31.242a.143.143,0,0,1-.058.274" transform="translate(-430.646 -154.912)" fill="#383749"/>
            <path id="Trazado_732822" data-name="Trazado 732822" d="M319.015,251.109c-1.961-1.909-7.177-2.34-7.177-2.34l-2.521-.355-2.5.355s-4.7.694-6.135,2.686A28.493,28.493,0,0,0,298,257.8a15.611,15.611,0,0,0,23.675-1.221,12.729,12.729,0,0,0-2.664-5.467" transform="translate(-314.064 -231.774)" fill="#9f0925"/>
            <path id="Trazado_732823" data-name="Trazado 732823" d="M307.752,261.235a15.625,15.625,0,0,1-11.417-4.9.143.143,0,0,1-.032-.143A26.876,26.876,0,0,1,299,249.811c1.45-2.018,6.035-2.716,6.23-2.744l2.506-.355a.159.159,0,0,1,.04,0l2.521.355c.207.017,5.282.457,7.257,2.38a12.461,12.461,0,0,1,2.7,5.532.144.144,0,0,1-.025.126,15.669,15.669,0,0,1-12.475,6.131M296.6,256.2a15.469,15.469,0,0,0,23.356-1.215,12.113,12.113,0,0,0-2.607-5.335c-1.9-1.851-7.038-2.3-7.089-2.3L307.752,247l-2.485.351c-.045.007-4.659.709-6.038,2.628A26.792,26.792,0,0,0,296.6,256.2" transform="translate(-312.499 -230.213)" fill="#9f0925"/>
            <path id="Trazado_732824" data-name="Trazado 732824" d="M304.242,435.634a1.234,1.234,0,0,1-.052.352.9.9,0,0,1-.167.317.846.846,0,0,1-.3.232,1.111,1.111,0,0,1-.47.089.988.988,0,0,1-.615-.187.867.867,0,0,1-.315-.561l.413-.084a.577.577,0,0,0,.17.327.5.5,0,0,0,.352.121.587.587,0,0,0,.29-.064.465.465,0,0,0,.175-.167.716.716,0,0,0,.086-.239,1.568,1.568,0,0,0,.025-.278V433.05h.413Z" transform="translate(-318.017 -400.948)" fill="#383749"/>
            <path id="Trazado_732825" data-name="Trazado 732825" d="M333.338,446.806a1.08,1.08,0,0,1,.421-.268,1.469,1.469,0,0,1,.495-.086.974.974,0,0,1,.738.241,1.038,1.038,0,0,1,.226.733v.989q0,.1.01.2c.007.071.015.135.025.195h-.369a.818.818,0,0,1-.022-.175c0-.064,0-.121,0-.17h-.01a.9.9,0,0,1-.3.29.874.874,0,0,1-.455.113,1.218,1.218,0,0,1-.332-.044.835.835,0,0,1-.271-.131.64.64,0,0,1-.185-.214.612.612,0,0,1-.069-.3.641.641,0,0,1,.148-.448.9.9,0,0,1,.367-.241,1.807,1.807,0,0,1,.473-.1q.253-.02.465-.02h.148v-.069a.471.471,0,0,0-.15-.379.63.63,0,0,0-.421-.128,1.128,1.128,0,0,0-.366.062.878.878,0,0,0-.318.189Zm1.112.9a1.378,1.378,0,0,0-.586.1.351.351,0,0,0-.217.34.335.335,0,0,0,.145.308.668.668,0,0,0,.362.091.707.707,0,0,0,.293-.056.616.616,0,0,0,.209-.15.65.65,0,0,0,.128-.219.9.9,0,0,0,.049-.268v-.148Z" transform="translate(-346.345 -413.228)" fill="#383749"/>
            <path id="Trazado_732826" data-name="Trazado 732826" d="M365.113,447.058q0-.158-.01-.3c-.007-.092-.01-.175-.01-.251h.364c0,.063,0,.125.005.187s0,.126,0,.192h.01a.67.67,0,0,1,.111-.162.812.812,0,0,1,.17-.141.919.919,0,0,1,.487-.135,1.009,1.009,0,0,1,.391.069.733.733,0,0,1,.273.192.78.78,0,0,1,.16.3,1.339,1.339,0,0,1,.052.382v1.422h-.384v-1.383a.738.738,0,0,0-.128-.458.471.471,0,0,0-.4-.167.752.752,0,0,0-.322.064.573.573,0,0,0-.221.182.815.815,0,0,0-.128.28,1.445,1.445,0,0,0-.042.359v1.122h-.384Z" transform="translate(-375.535 -413.229)" fill="#383749"/>
            <path id="Trazado_732827" data-name="Trazado 732827" d="M398.61,448.4a1.167,1.167,0,0,1-.453.372,1.435,1.435,0,0,1-.571.106,1.2,1.2,0,0,1-.487-.1,1.1,1.1,0,0,1-.367-.259,1.129,1.129,0,0,1-.231-.384,1.36,1.36,0,0,1-.081-.473,1.321,1.321,0,0,1,.089-.489,1.139,1.139,0,0,1,.246-.384,1.105,1.105,0,0,1,.374-.248,1.231,1.231,0,0,1,.472-.089,1.178,1.178,0,0,1,.443.081.962.962,0,0,1,.347.236,1.064,1.064,0,0,1,.224.379,1.532,1.532,0,0,1,.079.51v.123h-1.861a.808.808,0,0,0,.071.283.823.823,0,0,0,.16.236.733.733,0,0,0,.231.16.708.708,0,0,0,.29.059.915.915,0,0,0,.423-.089.958.958,0,0,0,.31-.261Zm-.33-.94a.662.662,0,0,0-.192-.472.689.689,0,0,0-.5-.177.71.71,0,0,0-.753.65Z" transform="translate(-404.239 -413.229)" fill="#383749"/>
            <path id="Trazado_732828" data-name="Trazado 732828" d="M447.086,433.05h1.339a1.831,1.831,0,0,1,.746.165,1.775,1.775,0,0,1,.364.224,1.494,1.494,0,0,1,.308.332,1.669,1.669,0,0,1,.212.448,2.127,2.127,0,0,1,0,1.147,1.673,1.673,0,0,1-.212.448,1.5,1.5,0,0,1-.308.332,1.778,1.778,0,0,1-.746.349,1.8,1.8,0,0,1-.364.04h-1.339Zm.414,3.1h.787a1.884,1.884,0,0,0,.556-.079,1.186,1.186,0,0,0,.443-.244,1.143,1.143,0,0,0,.3-.421,1.8,1.8,0,0,0,0-1.231,1.147,1.147,0,0,0-.3-.421,1.193,1.193,0,0,0-.443-.244,1.884,1.884,0,0,0-.556-.079H447.5Z" transform="translate(-450.662 -400.948)" fill="#383749"/>
            <path id="Trazado_732829" data-name="Trazado 732829" d="M489,447.663a1.254,1.254,0,0,1,.093-.492,1.166,1.166,0,0,1,.256-.382,1.136,1.136,0,0,1,.389-.248,1.414,1.414,0,0,1,.985,0,1.136,1.136,0,0,1,.389.248,1.167,1.167,0,0,1,.256.382,1.342,1.342,0,0,1,0,.984,1.162,1.162,0,0,1-.256.381,1.132,1.132,0,0,1-.389.249,1.413,1.413,0,0,1-.985,0,1.132,1.132,0,0,1-.389-.249,1.161,1.161,0,0,1-.256-.381,1.254,1.254,0,0,1-.093-.492m.413,0a.975.975,0,0,0,.057.337.778.778,0,0,0,.423.453.893.893,0,0,0,.674,0,.779.779,0,0,0,.423-.453,1.03,1.03,0,0,0,0-.674.779.779,0,0,0-.423-.453.889.889,0,0,0-.674,0,.778.778,0,0,0-.423.453.975.975,0,0,0-.057.337" transform="translate(-489.062 -413.229)" fill="#383749"/>
            <path id="Trazado_732830" data-name="Trazado 732830" d="M524.735,449.46h-.379l-.655-1.772h-.01l-.581,1.772h-.394l-.748-2.3h.423l.527,1.772h.01l.6-1.772h.4l.605,1.772h.01l.522-1.772h.414Z" transform="translate(-519.274 -413.873)" fill="#383749"/>
            <path id="Trazado_732831" data-name="Trazado 732831" d="M391.6,235.495a3.425,3.425,0,0,0,2.509,1.082s-1.081,1.312-.564,2.443a3.5,3.5,0,0,1-3-1.338,5.951,5.951,0,0,1,1.055-2.187" transform="translate(-398.859 -219.937)" fill="#e9f3ff"/>
            <path id="Trazado_732832" data-name="Trazado 732832" d="M391.742,237.608a3.61,3.61,0,0,1-2.871-1.4.144.144,0,0,1-.026-.122,6.018,6.018,0,0,1,1.088-2.25.219.219,0,0,1,.109-.046.143.143,0,0,1,.107.051,3.312,3.312,0,0,0,2.4,1.031.143.143,0,0,1,.11.234c-.01.012-1.018,1.257-.544,2.293a.143.143,0,0,1-.113.2,2.252,2.252,0,0,1-.258.012m-2.6-1.525a3.368,3.368,0,0,0,2.622,1.237h.017a2.7,2.7,0,0,1,.494-2.177,3.579,3.579,0,0,1-2.23-1,5.993,5.993,0,0,0-.9,1.941" transform="translate(-397.295 -218.371)" fill="#e9f3ff"/>
            <path id="Trazado_732833" data-name="Trazado 732833" d="M435.607,235.495a3.425,3.425,0,0,1-2.509,1.082s1.081,1.312.564,2.443a3.5,3.5,0,0,0,3-1.338,5.951,5.951,0,0,0-1.055-2.187" transform="translate(-437.845 -219.937)" fill="#e9f3ff"/>
            <path id="Trazado_732834" data-name="Trazado 732834" d="M432.341,237.607a2.249,2.249,0,0,1-.258-.012.143.143,0,0,1-.113-.2c.474-1.036-.534-2.281-.544-2.293a.143.143,0,0,1,.11-.234,3.312,3.312,0,0,0,2.4-1.031.143.143,0,0,1,.107-.051.184.184,0,0,1,.109.046,6.021,6.021,0,0,1,1.088,2.25.144.144,0,0,1-.026.122,3.61,3.61,0,0,1-2.871,1.4m-.037-.288h.011a3.378,3.378,0,0,0,2.628-1.236,6,6,0,0,0-.9-1.941,3.578,3.578,0,0,1-2.23,1,2.7,2.7,0,0,1,.494,2.176" transform="translate(-436.283 -218.37)" fill="#e9f3ff"/>
            <path id="Trazado_732835" data-name="Trazado 732835" d="M426.789,181.2a2.037,2.037,0,0,1-.285-.018.143.143,0,1,1,.041-.283c.007,0,.759.1,1.053-.249a.143.143,0,0,1,.22.183,1.349,1.349,0,0,1-1.028.366" transform="translate(-431.691 -169.641)" fill="#383749"/>
            <path id="Trazado_732836" data-name="Trazado 732836" d="M452.736,149.151c-.793.156-1.132-1.561-.339-1.718s1.132,1.561.339,1.718" transform="translate(-455.114 -139.24)" fill="#383749"/>
            <path id="Trazado_732837" data-name="Trazado 732837" d="M451.065,147.731c-.43,0-.712-.431-.8-.868a1.308,1.308,0,0,1,.039-.7.667.667,0,0,1,.5-.447c.5-.1.837.372.932.854s-.033,1.045-.538,1.145a.706.706,0,0,1-.134.013m.106-.154h0Zm-.239-1.585a.358.358,0,0,0-.072.007.382.382,0,0,0-.287.266,1.131,1.131,0,0,0,.2,1.034.377.377,0,0,0,.367.137c.312-.062.381-.463.313-.809-.063-.319-.251-.636-.524-.636" transform="translate(-453.55 -137.666)" fill="#383749"/>
            <path id="Trazado_732838" data-name="Trazado 732838" d="M399.587,149.151c.793.156,1.132-1.561.339-1.718s-1.132,1.561-.339,1.718" transform="translate(-406.727 -139.24)" fill="#383749"/>
            <path id="Trazado_732839" data-name="Trazado 732839" d="M398.131,147.734a.7.7,0,0,1-.134-.013c-.505-.1-.633-.663-.538-1.145s.43-.953.932-.854a.667.667,0,0,1,.5.447,1.308,1.308,0,0,1,.039.7c-.086.437-.369.868-.8.868m-.078-.294a.377.377,0,0,0,.367-.137,1.13,1.13,0,0,0,.2-1.034.382.382,0,0,0-.287-.266c-.312-.063-.528.283-.6.629s0,.747.313.809" transform="translate(-405.165 -137.669)" fill="#383749"/>
            <path id="Trazado_732840" data-name="Trazado 732840" d="M260.6,75.164A15.765,15.765,0,1,1,276.369,59.4,15.782,15.782,0,0,1,260.6,75.164m0-31.244A15.479,15.479,0,1,0,276.083,59.4,15.5,15.5,0,0,0,260.6,43.92" transform="translate(-265.351 -44.142)" fill="#383749"/>
            <path id="Trazado_732841" data-name="Trazado 732841" d="M350.773,357.087h-.016a.142.142,0,0,1-.126-.157l.418-3.8a.138.138,0,0,1,.158-.126.142.142,0,0,1,.127.157l-.418,3.8a.143.143,0,0,1-.142.127" transform="translate(-362.283 -327.601)" fill="#383749"/>
            <path id="Trazado_732842" data-name="Trazado 732842" d="M518.008,351.527a.143.143,0,0,1-.135-.095l-1.191-3.36a.143.143,0,0,1,.27-.1l1.191,3.36a.143.143,0,0,1-.087.183.141.141,0,0,1-.048.008" transform="translate(-514.423 -322.912)" fill="#383749"/>
            <path id="Trazado_732843" data-name="Trazado 732843" d="M374.6,82.429s-2.05,3.538-3.546,3.049c0,0-.9-5.81,4.728-5.206,0,0,2.75-.863,4.62.748s.938,5.309.938,5.309-2.022-1.438-2.2-3.279c0,0-1.6,1.766-4.544-.621" transform="translate(-380.952 -77.501)" fill="#383749"/>
            <path id="Trazado_732844" data-name="Trazado 732844" d="M379.749,84.857a.144.144,0,0,1-.083-.026,5.845,5.845,0,0,1-2.219-3.12c-.534.389-2.065,1.14-4.4-.683-.413.676-2.205,3.442-3.629,2.97a.143.143,0,0,1-.1-.114c-.017-.111-.4-2.735,1.093-4.3a4.32,4.32,0,0,1,3.762-1.069c.32-.094,2.9-.789,4.727.785,1.915,1.649,1.023,5.3.984,5.452a.143.143,0,0,1-.089.1.138.138,0,0,1-.049.009m-2.2-3.565a.144.144,0,0,1,.045.008.142.142,0,0,1,.1.122,5.132,5.132,0,0,0,1.961,3.041c.159-.8.586-3.635-.94-4.949-1.788-1.54-4.457-.728-4.484-.72a.145.145,0,0,1-.058.006,4.074,4.074,0,0,0-3.554.979,5.316,5.316,0,0,0-1.029,3.97c1.131.239,2.751-2.075,3.292-3.007a.143.143,0,0,1,.1-.069.146.146,0,0,1,.116.03c2.793,2.267,4.287.7,4.349.636a.145.145,0,0,1,.106-.046" transform="translate(-379.358 -75.886)" fill="#383749"/>
            <path id="Trazado_732845" data-name="Trazado 732845" d="M364.684,140.757s-.406-.954-1.21-.537-.686,3.068,1.365,2.626Z" transform="translate(-373.628 -132.544)" fill="#ff9c70"/>
            <path id="Trazado_732846" data-name="Trazado 732846" d="M362.848,141.473a1.44,1.44,0,0,1-1.422-1.008,1.672,1.672,0,0,1,.417-1.935.9.9,0,0,1,.737-.073,1.332,1.332,0,0,1,.67.681.149.149,0,0,1,.011.045l.155,2.089a.143.143,0,0,1-.113.15,2.173,2.173,0,0,1-.456.051m-.546-2.779a.711.711,0,0,0-.327.089c-.362.188-.5.972-.28,1.584a1.184,1.184,0,0,0,1.427.8l-.144-1.936a1.03,1.03,0,0,0-.5-.5.538.538,0,0,0-.18-.031" transform="translate(-372.062 -130.979)" fill="#ff9c70"/>
            <path id="Trazado_732847" data-name="Trazado 732847" d="M362.848,141.473a1.44,1.44,0,0,1-1.422-1.008,1.673,1.673,0,0,1,.417-1.935.9.9,0,0,1,.737-.073,1.332,1.332,0,0,1,.67.681.143.143,0,0,1-.263.112,1.057,1.057,0,0,0-.505-.525.615.615,0,0,0-.507.058c-.362.188-.5.972-.28,1.584a1.2,1.2,0,0,0,1.549.776.143.143,0,1,1,.06.279,2.174,2.174,0,0,1-.456.051" transform="translate(-372.062 -130.98)" fill="#383749"/>
            <path id="Trazado_732848" data-name="Trazado 732848" d="M367.888,149.466a.143.143,0,0,1-.136-.1.786.786,0,0,0-.63-.532.143.143,0,0,1-.128-.157.141.141,0,0,1,.157-.128,1.074,1.074,0,0,1,.874.731.143.143,0,0,1-.137.185" transform="translate(-377.276 -140.271)" fill="#383749"/>
            <path id="Trazado_732849" data-name="Trazado 732849" d="M481.508,140.757s.406-.954,1.21-.537.686,3.068-1.366,2.626Z" transform="translate(-482.059 -132.544)" fill="#ff9c70"/>
            <path id="Trazado_732850" data-name="Trazado 732850" d="M480.213,141.473a2.174,2.174,0,0,1-.456-.051.143.143,0,0,1-.113-.15l.156-2.089a.149.149,0,0,1,.011-.045,1.333,1.333,0,0,1,.67-.681.9.9,0,0,1,.737.073,1.672,1.672,0,0,1,.417,1.935,1.44,1.44,0,0,1-1.422,1.008m-.274-.307a1.184,1.184,0,0,0,1.427-.8c.22-.612.082-1.4-.28-1.584a.616.616,0,0,0-.508-.058,1.04,1.04,0,0,0-.495.5Z" transform="translate(-480.493 -130.979)" fill="#ff9c70"/>
            <path id="Trazado_732851" data-name="Trazado 732851" d="M480.213,141.473a2.172,2.172,0,0,1-.456-.051.143.143,0,1,1,.06-.279,1.2,1.2,0,0,0,1.549-.776c.22-.612.082-1.4-.28-1.584a.616.616,0,0,0-.508-.058,1.069,1.069,0,0,0-.5.524.143.143,0,1,1-.263-.112,1.334,1.334,0,0,1,.67-.681.9.9,0,0,1,.737.073,1.673,1.673,0,0,1,.417,1.935,1.44,1.44,0,0,1-1.422,1.008" transform="translate(-480.494 -130.98)" fill="#383749"/>
            <path id="Trazado_732852" data-name="Trazado 732852" d="M486.953,149.465a.143.143,0,0,1-.137-.185,1.074,1.074,0,0,1,.875-.731.143.143,0,0,1,.028.285.786.786,0,0,0-.63.532.143.143,0,0,1-.136.1" transform="translate(-487.059 -140.27)" fill="#383749"/>
            <path id="Trazado_732853" data-name="Trazado 732853" d="M266.965,502.791H234.019a.348.348,0,0,1,0-.7h32.946a.348.348,0,0,1,0,.7" transform="translate(-255.119 -464.212)" fill="#a7d0f9"/>
            <path id="Trazado_732854" data-name="Trazado 732854" d="M265.4,501.371H232.453a.491.491,0,1,1,0-.981H265.4a.491.491,0,1,1,0,.981m-32.946-.7a.2.2,0,1,0,0,.409H265.4a.2.2,0,1,0,0-.409Z" transform="translate(-253.553 -462.649)" fill="#a7d0f9"/>
            <path id="Trazado_732855" data-name="Trazado 732855" d="M533.146,539.9a.143.143,0,0,1,0-.286c2.751-.007,5.588-.031,8.43-.072h0a.143.143,0,0,1,0,.286c-2.844.041-5.681.065-8.434.072Z" transform="translate(-529.384 -498.521)" fill="#383749"/>
            <path id="Trazado_732856" data-name="Trazado 732856" d="M402.274,539.9c-3.3,0-6.708-.025-10.134-.074a.143.143,0,0,1,0-.286h0c3.425.049,6.834.074,10.131.074a.143.143,0,0,1,0,.286" transform="translate(-400.188 -498.521)" fill="#383749"/>
            <path id="Trazado_732857" data-name="Trazado 732857" d="M238,539.9c-1.975,0-3.959-.025-5.9-.075a.143.143,0,0,1-.139-.147.146.146,0,0,1,.147-.139c3.871.1,7.925.1,11.725,0a.135.135,0,0,1,.147.139.143.143,0,0,1-.139.147c-1.9.05-3.868.075-5.843.075" transform="translate(-253.552 -498.518)" fill="#383749"/>
            <path id="Trazado_732858" data-name="Trazado 732858" d="M449.583,564.788c-2.728,0-5.457-.016-8.054-.048a.143.143,0,0,1,0-.286h0c5.191.064,10.909.064,16.1,0h0a.143.143,0,0,1,0,.286c-2.6.032-5.325.048-8.054.048" transform="translate(-445.441 -521.348)" fill="#383749"/>
            <path id="Trazado_732859" data-name="Trazado 732859" d="M295.642,564.787q-1.517,0-3.051-.007a.143.143,0,0,1,0-.286h0c3.725.017,7.39,0,10.894-.041h0a.143.143,0,0,1,0,.286c-2.544.032-5.173.048-7.847.048" transform="translate(-308.974 -521.348)" fill="#383749"/>
            <path id="Trazado_732860" data-name="Trazado 732860" d="M235.213,564.769h0q-1.554-.012-3.107-.03a.143.143,0,0,1,0-.286h0q1.553.018,3.106.03a.143.143,0,0,1,0,.286" transform="translate(-253.553 -521.348)" fill="#383749"/>
            <path id="Trazado_732861" data-name="Trazado 732861" d="M557.4,593.865a.143.143,0,0,1,0-.286c2.168-.011,4.321-.03,6.4-.058h0a.143.143,0,0,1,0,.286c-2.08.028-4.234.047-6.4.058Z" transform="translate(-551.607 -547.981)" fill="#383749"/>
            <path id="Trazado_732862" data-name="Trazado 732862" d="M395.954,593.875c-3.493,0-7.019-.022-10.513-.068a.143.143,0,0,1,0-.286h0c4.231.055,8.509.078,12.716.065h0a.143.143,0,0,1,0,.286q-1.1,0-2.207,0" transform="translate(-394.05 -547.982)" fill="#383749"/>
            <path id="Trazado_732863" data-name="Trazado 732863" d="M237.775,593.876c-1.856,0-3.739-.023-5.674-.068a.143.143,0,0,1-.14-.146.155.155,0,0,1,.146-.14c3.865.09,7.521.09,11.178,0h0a.143.143,0,0,1,0,.286c-1.831.045-3.662.068-5.519.068" transform="translate(-253.552 -547.982)" fill="#383749"/>
            <path id="Trazado_732864" data-name="Trazado 732864" d="M483.83,622.964c-2.147,0-4.331-.029-6.676-.088a.143.143,0,0,1-.139-.146.137.137,0,0,1,.147-.14c4.684.118,8.728.118,13.113,0h0a.143.143,0,0,1,0,.286c-2.195.059-4.3.088-6.452.088" transform="translate(-478.084 -574.616)" fill="#383749"/>
            <path id="Trazado_732865" data-name="Trazado 732865" d="M311.374,622.936q-1.6,0-3.222-.01a.143.143,0,0,1,0-.286h0c4.3.027,8.54,0,12.594-.078.078-.018.144.061.146.14a.143.143,0,0,1-.14.146c-3.04.059-6.183.088-9.379.088" transform="translate(-323.232 -574.588)" fill="#383749"/>
            <path id="Trazado_732866" data-name="Trazado 732866" d="M236.528,622.938h0q-2.212-.022-4.423-.062a.143.143,0,0,1,0-.286h0q2.21.041,4.421.063a.143.143,0,0,1,0,.286" transform="translate(-253.553 -574.615)" fill="#383749"/>
            <path id="Trazado_732867" data-name="Trazado 732867" d="M572.384,654.783h0c-1.818-.054-3.707-.094-5.614-.12a.143.143,0,0,1,0-.286h0c1.909.025,3.8.065,5.619.119a.143.143,0,0,1,0,.286" transform="translate(-560.191 -603.742)" fill="#383749"/>
            <path id="Trazado_732868" data-name="Trazado 732868" d="M378.794,654.429a.143.143,0,0,1,0-.286c4.579-.13,9.233-.176,13.836-.14a.143.143,0,0,1,0,.286h0c-4.6-.035-9.25.011-13.825.14Z" transform="translate(-387.958 -603.388)" fill="#383749"/>
            <path id="Trazado_732869" data-name="Trazado 732869" d="M242.751,654.432h-.008a92.6,92.6,0,0,0-10.628,0,.146.146,0,0,1-.15-.136.143.143,0,0,1,.135-.15,93.712,93.712,0,0,1,10.66,0,.143.143,0,0,1-.008.286" transform="translate(-253.554 -603.391)" fill="#383749"/>
            <path id="Trazado_732870" data-name="Trazado 732870" d="M494.869,683.575h-.005c-3.948-.138-8.455-.138-12.691,0h0a.143.143,0,0,1,0-.286c4.242-.139,8.757-.139,12.711,0a.143.143,0,0,1-.005.286" transform="translate(-482.675 -630.137)" fill="#383749"/>
            <path id="Trazado_732871" data-name="Trazado 732871" d="M335.992,683.58h0c-3.833-.084-7.707-.116-11.511-.1h0a.143.143,0,0,1,0-.286c3.805-.016,7.683.016,11.519.1a.143.143,0,0,1,0,.286" transform="translate(-338.189 -630.142)" fill="#383749"/>
            <path id="Trazado_732872" data-name="Trazado 732872" d="M232.106,683.74a.143.143,0,0,1,0-.286c2.072-.042,4.127-.073,6.11-.089h0a.143.143,0,0,1,0,.286c-1.981.016-4.035.046-6.106.089Z" transform="translate(-253.553 -630.302)" fill="#383749"/>
          </g>
        </g>
        <g id="Grupo_987251" data-name="Grupo 987251" transform="translate(0 0.002)">
          <g id="Grupo_987250" data-name="Grupo 987250" transform="translate(0 0)" clip-path="url(#clip-path)">
            <path id="Trazado_732874" data-name="Trazado 732874" d="M507.788,87.563A19.765,19.765,0,1,1,526.6,73.91l-.136-.044.136.044a19.8,19.8,0,0,1-18.809,13.653m.029-39.245a19.481,19.481,0,1,0,6.01.956,19.512,19.512,0,0,0-6.01-.956" transform="translate(-447.162 -44.01)" fill="#383749"/>
            <path id="Trazado_732875" data-name="Trazado 732875" d="M942.48,533.6h-.093a.143.143,0,0,1-.14-.146.146.146,0,0,1,.146-.14h.087a3.419,3.419,0,0,0,1-.148.143.143,0,1,1,.083.274,3.712,3.712,0,0,1-1.08.16m-1.209-.207a.144.144,0,0,1-.048-.008,3.725,3.725,0,0,1-1.038-.57.143.143,0,1,1,.175-.226,3.448,3.448,0,0,0,.959.527.143.143,0,0,1-.048.277m3.27-.448a.143.143,0,0,1-.083-.26,3.442,3.442,0,0,0,.782-.764.143.143,0,1,1,.229.171,3.735,3.735,0,0,1-.847.827.142.142,0,0,1-.082.026m-5.044-.933a.144.144,0,0,1-.119-.063,3.707,3.707,0,0,1-.5-1.075.143.143,0,1,1,.275-.077,3.417,3.417,0,0,0,.458.992.143.143,0,0,1-.039.2.141.141,0,0,1-.08.025m6.384-.873a.14.14,0,0,1-.045-.007.143.143,0,0,1-.091-.18,3.438,3.438,0,0,0,.173-1.08.143.143,0,0,1,.286,0,3.72,3.72,0,0,1-.187,1.169.143.143,0,0,1-.136.1m-6.988-1.292h-.006a.143.143,0,0,1-.136-.15,3.715,3.715,0,0,1,.241-1.159.143.143,0,0,1,.267.1,3.425,3.425,0,0,0-.223,1.07.143.143,0,0,1-.143.136m7.078-.634a.143.143,0,0,1-.139-.111,3.432,3.432,0,0,0-.411-1.013.143.143,0,0,1,.245-.148,3.721,3.721,0,0,1,.445,1.1.143.143,0,0,1-.107.171.156.156,0,0,1-.032,0M939.7,527.75a.143.143,0,0,1-.11-.233,3.742,3.742,0,0,1,.884-.787.143.143,0,0,1,.154.241,3.455,3.455,0,0,0-.817.727.143.143,0,0,1-.111.052m5.11-.457a.14.14,0,0,1-.093-.035,3.457,3.457,0,0,0-.933-.571.143.143,0,0,1,.109-.265,3.728,3.728,0,0,1,1.01.619.143.143,0,0,1-.093.251m-3.214-.752a.143.143,0,0,1-.035-.281,3.723,3.723,0,0,1,1.18-.1.143.143,0,1,1-.021.285,3.506,3.506,0,0,0-1.089.1.13.13,0,0,1-.035,0" transform="translate(-860.138 -482.085)" fill="#a7d0f9"/>
            <path id="Trazado_732876" data-name="Trazado 732876" d="M1026.659,124.758h-.051a.143.143,0,0,1-.138-.148.15.15,0,0,1,.148-.138h.04a2.012,2.012,0,0,0,.981-.255.143.143,0,1,1,.14.249,2.3,2.3,0,0,1-1.12.292m-1.129-.319a.143.143,0,0,1-.075-.021,2.3,2.3,0,0,1-.824-.879.143.143,0,1,1,.252-.134,2.013,2.013,0,0,0,.722.769.143.143,0,0,1-.075.265m2.988-.745a.143.143,0,0,1-.123-.216,2.008,2.008,0,0,0,.276-1.017.143.143,0,1,1,.286,0,2.293,2.293,0,0,1-.316,1.163.142.142,0,0,1-.123.07m-4.011-1.181h-.006a.143.143,0,0,1-.137-.149,2.3,2.3,0,0,1,.365-1.149.143.143,0,1,1,.24.155,2.008,2.008,0,0,0-.319,1.006.143.143,0,0,1-.143.137m4.1-.839a.142.142,0,0,1-.129-.081,2.026,2.026,0,0,0-.69-.8.143.143,0,1,1,.16-.237,2.308,2.308,0,0,1,.787.912.143.143,0,0,1-.067.191.144.144,0,0,1-.062.014m-2.915-.993a.143.143,0,0,1-.065-.27,2.33,2.33,0,0,1,1.18-.242.143.143,0,0,1,.134.152.146.146,0,0,1-.151.134,2,2,0,0,0-1.033.211.14.14,0,0,1-.064.016" transform="translate(-938.583 -110.101)" fill="#a7d0f9"/>
            <path id="Trazado_732877" data-name="Trazado 732877" d="M76.039,701.242a.143.143,0,0,1,0-.286,2.076,2.076,0,0,0,1.015-.3.143.143,0,0,1,.148.245,2.366,2.366,0,0,1-1.155.338Zm-1.1-.256a.144.144,0,0,1-.067-.017,2.374,2.374,0,0,1-.885-.815.143.143,0,0,1,.241-.154,2.1,2.1,0,0,0,.778.717.143.143,0,0,1-.067.269m2.975-.871a.143.143,0,0,1-.125-.213,2.086,2.086,0,0,0,.269-1.024,2.027,2.027,0,0,0-.012-.227.143.143,0,1,1,.284-.031,2.385,2.385,0,0,1-.292,1.423.143.143,0,0,1-.125.073m-4.154-.972a.143.143,0,0,1-.143-.135c0-.044,0-.087,0-.13a2.341,2.341,0,0,1,.245-1.049.143.143,0,0,1,.256.127,2.053,2.053,0,0,0-.215.921c0,.038,0,.077,0,.114a.143.143,0,0,1-.135.151Zm4.022-1.421a.143.143,0,0,1-.116-.059,2.1,2.1,0,0,0-.817-.674.143.143,0,1,1,.12-.259,2.378,2.378,0,0,1,.928.766.143.143,0,0,1-.032.2.146.146,0,0,1-.084.027m-3.052-.539a.143.143,0,0,1-.08-.261,2.363,2.363,0,0,1,1.135-.4.138.138,0,0,1,.154.131.143.143,0,0,1-.131.154,2.074,2.074,0,0,0-1,.352.141.141,0,0,1-.08.025" transform="translate(-67.449 -638.194)" fill="#a7d0f9"/>
            <path id="Trazado_732878" data-name="Trazado 732878" d="M1064.138,483.508h-.019a1.483,1.483,0,0,1-1.042-.65.143.143,0,1,1,.238-.159,1.2,1.2,0,0,0,.84.524.143.143,0,0,1-.018.285m1.061-.321a.143.143,0,0,1-.094-.251,1.2,1.2,0,0,0,.409-.9.143.143,0,1,1,.286,0,1.485,1.485,0,0,1-.507,1.117.144.144,0,0,1-.094.035m-2.181-1.36a.141.141,0,0,1-.037-.005.143.143,0,0,1-.1-.175,1.49,1.49,0,0,1,.781-.947.143.143,0,0,1,.126.257,1.2,1.2,0,0,0-.631.765.143.143,0,0,1-.138.106m2.57-.077a.143.143,0,0,1-.136-.1,1.2,1.2,0,0,0-.675-.726.143.143,0,0,1,.111-.264,1.485,1.485,0,0,1,.836.9.143.143,0,0,1-.09.181.141.141,0,0,1-.045.007" transform="translate(-973.869 -440.401)" fill="#c8e1ff"/>
            <path id="Trazado_732879" data-name="Trazado 732879" d="M958.625,88.216h-.019a1.487,1.487,0,0,1-1.042-.649.143.143,0,1,1,.238-.159,1.2,1.2,0,0,0,.841.524.143.143,0,0,1-.018.285m1.061-.322a.143.143,0,0,1-.094-.251,1.2,1.2,0,0,0,.409-.9.143.143,0,1,1,.286,0,1.485,1.485,0,0,1-.507,1.117.143.143,0,0,1-.094.035M957.5,86.536a.143.143,0,0,1-.138-.18,1.486,1.486,0,0,1,.78-.948.143.143,0,0,1,.126.257,1.2,1.2,0,0,0-.63.764.142.142,0,0,1-.138.106m2.57-.079a.143.143,0,0,1-.135-.1,1.2,1.2,0,0,0-.677-.725.143.143,0,1,1,.11-.264,1.487,1.487,0,0,1,.837.9.143.143,0,0,1-.09.181.141.141,0,0,1-.046.007" transform="translate(-877.19 -78.211)" fill="#c8e1ff"/>
            <path id="Trazado_732880" data-name="Trazado 732880" d="M1027.687,201.225a1.737,1.737,0,0,1-.943-.276.143.143,0,1,1,.155-.24,1.494,1.494,0,0,0,1,.216.143.143,0,1,1,.04.283,1.737,1.737,0,0,1-.248.018m1.21-.553a.143.143,0,0,1-.108-.237,1.457,1.457,0,0,0,.124-1.744.143.143,0,1,1,.24-.155,1.744,1.744,0,0,1-.148,2.087.143.143,0,0,1-.108.049m-2.747-.6a.142.142,0,0,1-.137-.1,1.748,1.748,0,0,1,.086-1.215.143.143,0,1,1,.26.118,1.446,1.446,0,0,0-.131.6,1.465,1.465,0,0,0,.059.412.142.142,0,0,1-.137.183m.87-1.909a.143.143,0,0,1-.06-.273,1.723,1.723,0,0,1,.723-.157h0a1.74,1.74,0,0,1,.49.07.143.143,0,0,1-.08.275,1.443,1.443,0,0,0-.409-.059h0a1.429,1.429,0,0,0-.6.132.14.14,0,0,1-.06.013" transform="translate(-940.029 -181.178)" fill="#c8e1ff"/>
            <path id="Trazado_732881" data-name="Trazado 732881" d="M149.625,678.367a.143.143,0,0,1-.07-.268.932.932,0,0,0,.48-.814.143.143,0,0,1,.286,0,1.219,1.219,0,0,1-.627,1.064.142.142,0,0,1-.07.018m-1.09-.028a.146.146,0,0,1-.076-.022,1.212,1.212,0,0,1-.572-1.033l0-.062a.148.148,0,0,1,.149-.136.143.143,0,0,1,.136.15v.049a.926.926,0,0,0,.438.79.143.143,0,0,1-.076.264m1.184-1.792a.142.142,0,0,1-.082-.026.942.942,0,0,0-.942-.073.143.143,0,1,1-.126-.257,1.23,1.23,0,0,1,1.232.1.143.143,0,0,1-.082.26" transform="translate(-135.503 -619.455)" fill="#c8e1ff"/>
          </g>
        </g>
      </g>
    </g>
  </g>
</svg>
