<svg xmlns="http://www.w3.org/2000/svg" xmlns:xlink="http://www.w3.org/1999/xlink" width="200" height="200" viewBox="0 0 200 200">
  <defs>
    <filter id="Trazado_113938" x="0" y="0" width="200" height="200" filterUnits="userSpaceOnUse">
      <feOffset input="SourceAlpha"/>
      <feGaussianBlur stdDeviation="20" result="blur"/>
      <feFlood flood-color="#402d27" flood-opacity="0.192"/>
      <feComposite operator="in" in2="blur"/>
      <feComposite in="SourceGraphic"/>
    </filter>
    <clipPath id="clip-path">
      <rect id="Rect치ngulo_345078" data-name="Rect치ngulo 345078" width="63.808" height="56.98" fill="none"/>
    </clipPath>
    <clipPath id="clip-path-2">
      <path id="Trazado_733107" data-name="Trazado 733107" d="M227.159,28.467a4,4,0,0,0-3.233,3.455c-.918,4.623-.252,9.026,3.114,9.6,4.717.8,6.219-4.365,6.4-5.242a27.235,27.235,0,0,0,.069-3.354,4.458,4.458,0,0,0-3.484-4.291,9.06,9.06,0,0,0-1.954-.226,7.18,7.18,0,0,0-.915.057" transform="translate(-223.55 -28.41)" fill="none"/>
    </clipPath>
  </defs>
  <g id="Grupo_987268" data-name="Grupo 987268" transform="translate(-1152.333 -372)">
    <g id="Grupo_80220" data-name="Grupo 80220" transform="translate(262 258)">
      <g transform="matrix(1, 0, 0, 1, 890.33, 114)" filter="url(#Trazado_113938)">
        <path id="Trazado_113938-2" data-name="Trazado 113938" d="M40,0A40,40,0,1,1,10.363,13.136,40,40,0,0,1,40,0Z" transform="translate(60 60)" fill="#ea526f"/>
      </g>
    </g>
    <g id="Grupo_987267" data-name="Grupo 987267" transform="translate(1220.332 444)">
      <g id="Grupo_987262" data-name="Grupo 987262">
        <g id="Grupo_987261" data-name="Grupo 987261" clip-path="url(#clip-path)">
          <path id="Trazado_733080" data-name="Trazado 733080" d="M80.187,54.781H24.323a2.68,2.68,0,0,1-2.68-2.68V4.389a2.68,2.68,0,0,1,2.68-2.681H80.187a2.68,2.68,0,0,1,2.68,2.681V52.1a2.68,2.68,0,0,1-2.68,2.68" transform="translate(-19.248 -1.519)" fill="#fff"/>
          <path id="Trazado_733081" data-name="Trazado 733081" d="M78.669,53.45H22.806a2.873,2.873,0,0,1-2.869-2.869V2.869A2.873,2.873,0,0,1,22.806,0H78.669a2.873,2.873,0,0,1,2.87,2.869V50.581a2.873,2.873,0,0,1-2.87,2.869M22.806.378a2.494,2.494,0,0,0-2.492,2.491V50.581a2.494,2.494,0,0,0,2.492,2.492H78.669a2.5,2.5,0,0,0,2.492-2.492V2.869A2.494,2.494,0,0,0,78.669.378Z" transform="translate(-17.731)" fill="#383749"/>
          <path id="Trazado_733082" data-name="Trazado 733082" d="M339.972,159.658h0a13.668,13.668,0,0,1-1.527-.113.189.189,0,0,1,.049-.375,13.27,13.27,0,0,0,1.484.11.189.189,0,0,1,0,.378m1.508-.058a.189.189,0,0,1-.017-.377,13.16,13.16,0,0,0,1.472-.224.193.193,0,0,1,.224.146.19.19,0,0,1-.146.224,13.648,13.648,0,0,1-1.514.229h-.018m-4.5-.335a.164.164,0,0,1-.046-.006,13.5,13.5,0,0,1-1.463-.454.189.189,0,0,1,.133-.354,13.012,13.012,0,0,0,1.422.443.189.189,0,0,1-.046.372m7.447-.287a.189.189,0,0,1-.06-.368,13.137,13.137,0,0,0,1.383-.551.191.191,0,0,1,.251.091.188.188,0,0,1-.091.251,13.66,13.66,0,0,1-1.422.567.192.192,0,0,1-.06.01m-10.271-.772a.188.188,0,0,1-.086-.021,13.592,13.592,0,0,1-1.321-.775.189.189,0,1,1,.209-.314,13.319,13.319,0,0,0,1.284.753.189.189,0,0,1-.086.357m13-.5a.189.189,0,0,1-.1-.35,13.24,13.24,0,0,0,1.223-.849.189.189,0,1,1,.232.3,13.653,13.653,0,0,1-1.257.873.186.186,0,0,1-.1.028m-15.514-1.168a.189.189,0,0,1-.122-.044,13.629,13.629,0,0,1-1.114-1.051.189.189,0,1,1,.274-.26,13.039,13.039,0,0,0,1.083,1.022.189.189,0,0,1-.122.333m17.889-.688a.188.188,0,0,1-.132-.323,13.544,13.544,0,0,0,1-1.1.189.189,0,1,1,.293.238,13.783,13.783,0,0,1-1.03,1.132.186.186,0,0,1-.132.055m-19.961-1.5a.189.189,0,0,1-.151-.075,13.616,13.616,0,0,1-.85-1.274.189.189,0,1,1,.325-.192,13.119,13.119,0,0,0,.826,1.238.189.189,0,0,1-.037.265.191.191,0,0,1-.114.038m21.861-.84a.189.189,0,0,1-.159-.291,13.106,13.106,0,0,0,.729-1.3.189.189,0,0,1,.339.167,13.716,13.716,0,0,1-.75,1.335.19.19,0,0,1-.159.087m-23.389-1.758a.19.19,0,0,1-.173-.112,13.73,13.73,0,0,1-.541-1.433.189.189,0,0,1,.361-.114,13.1,13.1,0,0,0,.525,1.393.189.189,0,0,1-.173.266m24.714-.951a.189.189,0,0,1-.178-.252,13.069,13.069,0,0,0,.416-1.43.189.189,0,0,1,.368.084,13.458,13.458,0,0,1-.428,1.471.19.19,0,0,1-.178.126m-25.616-1.925a.189.189,0,0,1-.185-.154,13.637,13.637,0,0,1-.2-1.518.189.189,0,0,1,.377-.028,13.182,13.182,0,0,0,.2,1.476.188.188,0,0,1-.15.221.15.15,0,0,1-.036,0m26.292-1.014-.021,0a.188.188,0,0,1-.167-.209,13.324,13.324,0,0,0,.083-1.486.189.189,0,1,1,.378,0,13.727,13.727,0,0,1-.086,1.529.189.189,0,0,1-.187.168m-26.521-1.993h-.007a.189.189,0,0,1-.182-.2,13.549,13.549,0,0,1,.141-1.524.189.189,0,1,1,.373.056,13.133,13.133,0,0,0-.137,1.481.189.189,0,0,1-.189.182m26.594-.054a.189.189,0,0,1-.189-.182,13.21,13.21,0,0,0-.143-1.481.189.189,0,0,1,.158-.216.192.192,0,0,1,.215.158,13.666,13.666,0,0,1,.147,1.524.189.189,0,0,1-.181.2Zm-26.147-2.927a.189.189,0,0,1-.182-.238,13.4,13.4,0,0,1,.482-1.455.189.189,0,1,1,.351.139,13.123,13.123,0,0,0-.468,1.414.188.188,0,0,1-.182.14m25.688-.052a.189.189,0,0,1-.182-.139,13.036,13.036,0,0,0-.474-1.411.189.189,0,1,1,.35-.14,13.413,13.413,0,0,1,.488,1.452.189.189,0,0,1-.182.238m-24.577-2.752a.192.192,0,0,1-.089-.022.19.19,0,0,1-.078-.256,13.666,13.666,0,0,1,.8-1.307.189.189,0,1,1,.311.216,13.105,13.105,0,0,0-.776,1.27.189.189,0,0,1-.166.1m23.456-.046a.189.189,0,0,1-.166-.1,12.979,12.979,0,0,0-.78-1.266.189.189,0,0,1,.31-.217,13.424,13.424,0,0,1,.8,1.3.189.189,0,0,1-.166.278M330.19,137.6a.189.189,0,0,1-.142-.313,13.866,13.866,0,0,1,1.071-1.095.189.189,0,1,1,.255.279,13.392,13.392,0,0,0-1.041,1.064.19.19,0,0,1-.142.065m20.017-.038a.188.188,0,0,1-.142-.064,13.083,13.083,0,0,0-1.045-1.06.189.189,0,0,1,.254-.28,13.546,13.546,0,0,1,1.075,1.091.189.189,0,0,1-.142.314m-17.791-1.995a.189.189,0,0,1-.111-.342,13.593,13.593,0,0,1,1.288-.827.189.189,0,0,1,.186.329,13.436,13.436,0,0,0-1.253.8.188.188,0,0,1-.111.036m15.556-.03a.191.191,0,0,1-.11-.035,13.115,13.115,0,0,0-1.256-.8.188.188,0,0,1-.073-.257.186.186,0,0,1,.257-.072,13.426,13.426,0,0,1,1.292.822.189.189,0,0,1-.11.342M335.04,134.09a.189.189,0,0,1-.073-.363,13.521,13.521,0,0,1,1.442-.514.189.189,0,0,1,.106.363,13.058,13.058,0,0,0-1.4.5.185.185,0,0,1-.073.015m10.3-.02a.182.182,0,0,1-.073-.015,13.055,13.055,0,0,0-1.4-.494.189.189,0,0,1,.1-.363,13.461,13.461,0,0,1,1.445.509.189.189,0,0,1-.073.363m-7.407-.828a.189.189,0,0,1-.032-.375,13.479,13.479,0,0,1,1.521-.175.184.184,0,0,1,.2.179.189.189,0,0,1-.178.2,13.087,13.087,0,0,0-1.479.169.161.161,0,0,1-.032,0m4.511-.009a.147.147,0,0,1-.032,0,13.313,13.313,0,0,0-1.479-.163.19.19,0,0,1-.179-.2.192.192,0,0,1,.2-.179,13.541,13.541,0,0,1,1.522.169.189.189,0,0,1-.031.375" transform="translate(-290.58 -118.008)" fill="#e9f3ff"/>
          <path id="Trazado_733083" data-name="Trazado 733083" d="M61.71,244.528h0a13.643,13.643,0,0,1-1.527-.113.189.189,0,0,1-.163-.212.194.194,0,0,1,.212-.163,13.25,13.25,0,0,0,1.484.11.189.189,0,0,1,0,.378m1.509-.058a.189.189,0,0,1-.017-.377,13.154,13.154,0,0,0,1.472-.224.193.193,0,0,1,.223.146.19.19,0,0,1-.146.224,13.651,13.651,0,0,1-1.514.229h-.018m-4.5-.335a.164.164,0,0,1-.046-.006,13.468,13.468,0,0,1-1.463-.454.189.189,0,0,1,.133-.354,13.019,13.019,0,0,0,1.422.443.189.189,0,0,1-.046.372m7.447-.286a.189.189,0,0,1-.06-.368,13.118,13.118,0,0,0,1.383-.551.191.191,0,0,1,.251.091.188.188,0,0,1-.091.251,13.621,13.621,0,0,1-1.422.567.19.19,0,0,1-.06.01M55.9,243.076a.187.187,0,0,1-.086-.021,13.6,13.6,0,0,1-1.321-.775.189.189,0,1,1,.209-.314,13.311,13.311,0,0,0,1.284.753.189.189,0,0,1-.086.357m13-.5a.189.189,0,0,1-.1-.35,13.257,13.257,0,0,0,1.223-.849.189.189,0,1,1,.232.3,13.685,13.685,0,0,1-1.257.873.185.185,0,0,1-.1.028m-15.514-1.168a.189.189,0,0,1-.122-.044,13.654,13.654,0,0,1-1.114-1.051.189.189,0,0,1,.274-.26,13,13,0,0,0,1.083,1.022.189.189,0,0,1-.122.334m17.889-.688a.191.191,0,0,1-.135-.056.189.189,0,0,1,0-.267,13.544,13.544,0,0,0,1-1.1.189.189,0,1,1,.293.238,13.785,13.785,0,0,1-1.03,1.132.185.185,0,0,1-.132.055m-19.962-1.5a.188.188,0,0,1-.151-.075,13.577,13.577,0,0,1-.85-1.273.189.189,0,1,1,.325-.192,13.058,13.058,0,0,0,.826,1.238.189.189,0,0,1-.151.3m21.861-.84a.189.189,0,0,1-.159-.291,13.125,13.125,0,0,0,.729-1.3.189.189,0,0,1,.339.167,13.736,13.736,0,0,1-.75,1.335.189.189,0,0,1-.159.087M49.786,236.62a.189.189,0,0,1-.173-.112,13.7,13.7,0,0,1-.541-1.433.189.189,0,0,1,.361-.114,13.154,13.154,0,0,0,.525,1.393.189.189,0,0,1-.173.266m24.714-.951a.189.189,0,0,1-.178-.252,13.066,13.066,0,0,0,.416-1.43.186.186,0,0,1,.227-.142.188.188,0,0,1,.142.226,13.459,13.459,0,0,1-.428,1.471.19.19,0,0,1-.178.126m-25.616-1.925a.189.189,0,0,1-.185-.153,13.583,13.583,0,0,1-.2-1.518.188.188,0,0,1,.174-.2.186.186,0,0,1,.2.174,13.2,13.2,0,0,0,.2,1.476.188.188,0,0,1-.15.221.151.151,0,0,1-.036,0m26.292-1.014h-.021a.189.189,0,0,1-.167-.209,13.3,13.3,0,0,0,.083-1.486.189.189,0,0,1,.378,0,13.755,13.755,0,0,1-.086,1.529.189.189,0,0,1-.188.167m-26.521-1.992h-.007a.189.189,0,0,1-.182-.2,13.572,13.572,0,0,1,.141-1.524.189.189,0,1,1,.373.056,13.137,13.137,0,0,0-.136,1.481.189.189,0,0,1-.189.182m26.595-.055a.189.189,0,0,1-.189-.182,13.049,13.049,0,0,0-.143-1.481.189.189,0,0,1,.373-.058,13.47,13.47,0,0,1,.147,1.524.189.189,0,0,1-.182.2ZM49.1,227.757a.185.185,0,0,1-.049-.007.188.188,0,0,1-.133-.231,13.39,13.39,0,0,1,.482-1.455.189.189,0,1,1,.351.139,13.142,13.142,0,0,0-.469,1.414.188.188,0,0,1-.182.14M74.79,227.7a.189.189,0,0,1-.182-.139,13.122,13.122,0,0,0-.474-1.411.189.189,0,1,1,.35-.14,13.393,13.393,0,0,1,.488,1.451.189.189,0,0,1-.182.239m-24.577-2.75a.192.192,0,0,1-.089-.022.19.19,0,0,1-.078-.256,13.666,13.666,0,0,1,.8-1.307.189.189,0,1,1,.311.215,13.1,13.1,0,0,0-.776,1.271.189.189,0,0,1-.166.1m23.455-.047a.189.189,0,0,1-.166-.1,12.914,12.914,0,0,0-.78-1.266.189.189,0,0,1,.31-.217,13.4,13.4,0,0,1,.8,1.3.189.189,0,0,1-.166.278m-21.741-2.434a.189.189,0,0,1-.142-.313,13.847,13.847,0,0,1,1.071-1.095.189.189,0,0,1,.255.279,13.417,13.417,0,0,0-1.041,1.064.19.19,0,0,1-.142.065m20.017-.039a.187.187,0,0,1-.142-.064,13.254,13.254,0,0,0-1.045-1.059.189.189,0,1,1,.254-.28,13.59,13.59,0,0,1,1.075,1.09.189.189,0,0,1-.142.314m-17.79-1.993a.189.189,0,0,1-.111-.342,13.593,13.593,0,0,1,1.288-.827.189.189,0,0,1,.186.329,13.436,13.436,0,0,0-1.253.8.187.187,0,0,1-.111.036m15.556-.03a.19.19,0,0,1-.11-.035,13.08,13.08,0,0,0-1.256-.8.189.189,0,0,1-.073-.257.186.186,0,0,1,.257-.072,13.462,13.462,0,0,1,1.292.822.189.189,0,0,1-.11.342m-12.932-1.45a.189.189,0,0,1-.073-.363,13.719,13.719,0,0,1,1.442-.515.189.189,0,0,1,.107.363,13.119,13.119,0,0,0-1.4.5.184.184,0,0,1-.073.015m10.3-.021a.184.184,0,0,1-.073-.015,13.031,13.031,0,0,0-1.4-.494.189.189,0,0,1,.1-.363,13.465,13.465,0,0,1,1.445.509.189.189,0,0,1-.073.363m-7.407-.828a.189.189,0,0,1-.032-.375,13.527,13.527,0,0,1,1.521-.175.183.183,0,0,1,.2.179.189.189,0,0,1-.178.2,13.086,13.086,0,0,0-1.479.169.16.16,0,0,1-.032,0m4.511-.009a.153.153,0,0,1-.032,0,13.34,13.34,0,0,0-1.479-.163.19.19,0,0,1-.179-.2.205.205,0,0,1,.2-.179,13.566,13.566,0,0,1,1.522.169.189.189,0,0,1-.031.375" transform="translate(-43.104 -193.488)" fill="#e9f3ff"/>
          <path id="Trazado_733084" data-name="Trazado 733084" d="M126.783,38.089a8.987,8.987,0,0,1-.971-.054.189.189,0,1,1,.043-.375,8.256,8.256,0,0,0,.928.051c.183,0,.365-.007.544-.02a.181.181,0,0,1,.2.174.189.189,0,0,1-.175.2q-.283.021-.571.021m2.046-.268a.189.189,0,0,1-.049-.371,7.854,7.854,0,0,0,1.381-.511.189.189,0,1,1,.164.341,8.256,8.256,0,0,1-1.448.534.184.184,0,0,1-.048.007m-4.472-.1a.183.183,0,0,1-.056-.009,8.215,8.215,0,0,1-1.425-.6.189.189,0,0,1-.078-.255.192.192,0,0,1,.256-.078,7.894,7.894,0,0,0,1.359.569.189.189,0,0,1-.056.369m7.18-1.206a.189.189,0,0,1-.112-.341,7.963,7.963,0,0,0,1.1-.98.189.189,0,0,1,.277.257,8.287,8.287,0,0,1-1.152,1.027.188.188,0,0,1-.112.037m-9.83-.207a.188.188,0,0,1-.118-.041,8.3,8.3,0,0,1-1.107-1.076.189.189,0,1,1,.287-.245,7.891,7.891,0,0,0,1.057,1.025.189.189,0,0,1-.118.336m11.875-1.993a.189.189,0,0,1-.16-.29,7.779,7.779,0,0,0,.665-1.314.189.189,0,0,1,.352.139,8.214,8.214,0,0,1-.7,1.377.189.189,0,0,1-.16.088m-13.827-.291a.188.188,0,0,1-.164-.1,8.229,8.229,0,0,1-.639-1.4.189.189,0,0,1,.117-.241.187.187,0,0,1,.24.117,7.873,7.873,0,0,0,.609,1.341.189.189,0,0,1-.164.283m14.926-2.5a.188.188,0,0,1-.186-.224,7.916,7.916,0,0,0,.137-1.466.189.189,0,0,1,.378,0,8.324,8.324,0,0,1-.143,1.537.189.189,0,0,1-.185.153m-15.907-.336a.189.189,0,0,1-.187-.162,8.413,8.413,0,0,1-.085-1.193c0-.117,0-.233.007-.349a.184.184,0,0,1,.2-.181.189.189,0,0,1,.181.2c0,.11-.007.221-.007.333a7.962,7.962,0,0,0,.082,1.138.189.189,0,0,1-.16.214l-.027,0m16-1.993a.189.189,0,0,1-.187-.17,7.862,7.862,0,0,0-.286-1.445.189.189,0,0,1,.362-.108,8.223,8.223,0,0,1,.3,1.514.189.189,0,0,1-.169.207h-.02M118.9,28.19a.172.172,0,0,1-.043-.005.188.188,0,0,1-.141-.226,8.3,8.3,0,0,1,.49-1.465.189.189,0,1,1,.345.152,7.927,7.927,0,0,0-.467,1.4.189.189,0,0,1-.184.146m15.019-1.871a.188.188,0,0,1-.168-.1,7.87,7.87,0,0,0-.8-1.239.189.189,0,0,1,.3-.233,8.285,8.285,0,0,1,.836,1.3.189.189,0,0,1-.081.255.185.185,0,0,1-.087.021m-13.8-.876a.192.192,0,0,1-.107-.033.189.189,0,0,1-.048-.263,8.31,8.31,0,0,1,.992-1.182.189.189,0,0,1,.266.269,7.913,7.913,0,0,0-.947,1.129.189.189,0,0,1-.155.081m11.949-1.487a.189.189,0,0,1-.124-.046,7.918,7.918,0,0,0-1.194-.863.189.189,0,1,1,.192-.325,8.355,8.355,0,0,1,1.251.9.189.189,0,0,1-.124.331m-9.812-.623a.189.189,0,0,1-.106-.345,8.182,8.182,0,0,1,1.355-.739.189.189,0,1,1,.149.347,7.882,7.882,0,0,0-1.293.705.185.185,0,0,1-.106.032m7.224-.9a.2.2,0,0,1-.064-.011,7.814,7.814,0,0,0-1.427-.364.189.189,0,1,1,.058-.373,8.2,8.2,0,0,1,1.5.382.189.189,0,0,1-.064.367m-4.464-.284a.189.189,0,0,1-.041-.373,8.307,8.307,0,0,1,1.532-.189.193.193,0,0,1,.194.183.189.189,0,0,1-.183.195,7.925,7.925,0,0,0-1.462.18.2.2,0,0,1-.041,0" transform="translate(-105.392 -19.197)" fill="#e9f3ff"/>
          <path id="Trazado_733085" data-name="Trazado 733085" d="M201.55,426.484l-1.278,6.077h20.676l-.916-5.446Z" transform="translate(-178.115 -379.3)" fill="#383749"/>
          <path id="Trazado_733086" data-name="Trazado 733086" d="M219.43,431.234H198.754a.189.189,0,0,1-.185-.228l1.278-6.076a.209.209,0,0,1,.191-.15l18.482.631a.189.189,0,0,1,.18.158l.916,5.446a.189.189,0,0,1-.186.22m-20.444-.378h20.221l-.854-5.073-18.17-.62Z" transform="translate(-176.596 -377.784)" fill="#383749"/>
          <path id="Trazado_733087" data-name="Trazado 733087" d="M82.866,7.115V4.388a2.68,2.68,0,0,0-2.68-2.68H24.322a2.68,2.68,0,0,0-2.68,2.68V7.115Z" transform="translate(-19.248 -1.519)" fill="#9f0925"/>
          <path id="Trazado_733088" data-name="Trazado 733088" d="M81.35,5.785H20.126a.189.189,0,0,1-.189-.189V2.869A2.873,2.873,0,0,1,22.806,0H78.669a2.873,2.873,0,0,1,2.87,2.869V5.6a.189.189,0,0,1-.189.189M20.315,5.407H81.161V2.869A2.494,2.494,0,0,0,78.669.378H22.806a2.494,2.494,0,0,0-2.492,2.491Z" transform="translate(-17.731)" fill="#9f0925"/>
          <rect id="Rect치ngulo_345077" data-name="Rect치ngulo 345077" width="6.14" height="10.956" transform="matrix(1, -0.003, 0.003, 1, 28.036, 10.544)" fill="#ff9c70"/>
          <path id="Trazado_733089" data-name="Trazado 733089" d="M251.913,104.8a.189.189,0,0,1-.189-.188L251.7,93.658a.191.191,0,0,1,.055-.134.189.189,0,0,1,.134-.055l6.139-.016h0a.189.189,0,0,1,.189.188l.029,10.955a.191.191,0,0,1-.055.134.188.188,0,0,1-.134.055l-6.139.016Zm.16-10.956.028,10.578,5.762-.015-.028-10.578Z" transform="translate(-223.848 -83.113)" fill="#ff9c70"/>
          <path id="Trazado_733090" data-name="Trazado 733090" d="M253.523,134.939l.008,2.032s3.428-.182,4.061-2.758Z" transform="translate(-225.474 -119.364)" fill="#383749"/>
          <path id="Trazado_733091" data-name="Trazado 733091" d="M252.012,135.641a.189.189,0,0,1-.189-.188l-.008-2.033a.189.189,0,0,1,.156-.187l4.069-.725a.186.186,0,0,1,.171.057.189.189,0,0,1,.045.174c-.659,2.682-4.088,2.894-4.234,2.9Zm.181-2.063.007,1.667c.686-.083,2.951-.492,3.6-2.31Z" transform="translate(-223.955 -117.845)" fill="#383749"/>
          <path id="Trazado_733092" data-name="Trazado 733092" d="M233.793,32.927a4.459,4.459,0,0,0-3.484-4.291,8.392,8.392,0,0,0-2.869-.169c-1.757.226-2.746.892-3.233,3.455-.609,3.211-.82,9.132,3.114,9.6a5.043,5.043,0,0,0,4.985-2.1l.723-1.21a8.931,8.931,0,0,0,.694-1.929,27.257,27.257,0,0,0,.069-3.354" transform="translate(-199.1 -25.267)" fill="#ff9c70"/>
        </g>
      </g>
      <g id="Grupo_987264" data-name="Grupo 987264" transform="translate(24.733 3.143)">
        <g id="Grupo_987263" data-name="Grupo 987263" clip-path="url(#clip-path-2)">
          <path id="Trazado_733093" data-name="Trazado 733093" d="M266.152,77.62a2.03,2.03,0,0,1-3.542.5,2.03,2.03,0,0,1,3.542-.5" transform="translate(-258.289 -71.443)" fill="#fff"/>
          <path id="Trazado_733094" data-name="Trazado 733094" d="M262.812,77.615a3.042,3.042,0,0,1-1.856-.879.188.188,0,0,1-.032-.223,2.215,2.215,0,0,1,3.842-.54.188.188,0,0,1,.032.223,2.862,2.862,0,0,1-1.762,1.4,1.637,1.637,0,0,1-.224.015m-1.479-1.046a1.793,1.793,0,0,0,3.057-.43,1.793,1.793,0,0,0-3.057.43" transform="translate(-256.768 -69.927)" fill="#383749"/>
          <path id="Trazado_733095" data-name="Trazado 733095" d="M213.288,77.62a2.03,2.03,0,0,0,3.542.5,2.03,2.03,0,0,0-3.542-.5" transform="translate(-214.423 -71.443)" fill="#fff"/>
          <path id="Trazado_733096" data-name="Trazado 733096" d="M213.59,77.613a1.633,1.633,0,0,1-.224-.015,2.862,2.862,0,0,1-1.761-1.4.188.188,0,0,1,.032-.223,2.215,2.215,0,0,1,3.841.54.188.188,0,0,1-.032.223,3.041,3.041,0,0,1-1.856.879m-1.577-1.476a1.793,1.793,0,0,0,3.056.43,1.793,1.793,0,0,0-3.056-.43" transform="translate(-212.906 -69.926)" fill="#383749"/>
          <path id="Trazado_733097" data-name="Trazado 733097" d="M244.787,96.354a.185.185,0,0,1-.118-.042c-.133-.107-.539-.434-.424-.786.128-.391.8-.442.938-.449a.189.189,0,0,1,.018.378c-.274.013-.57.106-.6.188-.01.029.026.153.3.375a.189.189,0,0,1-.118.336" transform="translate(-241.937 -87.702)" fill="#383749"/>
          <path id="Trazado_733098" data-name="Trazado 733098" d="M264.53,78.986a2.7,2.7,0,0,1-1.92-.81,2.7,2.7,0,0,1,1.622-1.308c.978-.137,1.276,1.981.3,2.118" transform="translate(-258.289 -71.501)" fill="#383749"/>
          <path id="Trazado_733099" data-name="Trazado 733099" d="M262.812,77.678a3.042,3.042,0,0,1-1.856-.879.188.188,0,0,1-.032-.223,2.863,2.863,0,0,1,1.762-1.4.84.84,0,0,1,.789.346,1.76,1.76,0,0,1,.224,1.6.834.834,0,0,1-.663.55,1.637,1.637,0,0,1-.224.015m-1.479-1.046a2.343,2.343,0,0,0,1.651.657.458.458,0,0,0,.366-.317,1.387,1.387,0,0,0-.172-1.223.449.449,0,0,0-.439-.2,2.347,2.347,0,0,0-1.406,1.087" transform="translate(-256.768 -69.99)" fill="#383749"/>
          <path id="Trazado_733100" data-name="Trazado 733100" d="M213.288,77.62a2.7,2.7,0,0,0,1.622,1.308c.978.137,1.276-1.981.3-2.118a2.7,2.7,0,0,0-1.92.81" transform="translate(-214.423 -71.443)" fill="#383749"/>
          <path id="Trazado_733101" data-name="Trazado 733101" d="M213.488,77.61a.99.99,0,0,1-.122-.008,2.862,2.862,0,0,1-1.761-1.4.188.188,0,0,1,.032-.223,2.865,2.865,0,0,1,2.08-.865c.632.089.83.775.746,1.375-.079.561-.414,1.126-.974,1.126m-1.475-1.47a2.345,2.345,0,0,0,1.406,1.087c.362.055.609-.362.669-.8s-.065-.9-.424-.948a2.33,2.33,0,0,0-1.651.657" transform="translate(-212.906 -69.929)" fill="#383749"/>
          <path id="Trazado_733102" data-name="Trazado 733102" d="M249.263,107.094a.189.189,0,0,1-.006-.378c.661-.021.788-.28.79-.282a.191.191,0,0,1,.245-.1.185.185,0,0,1,.108.234c-.018.051-.2.5-1.131.525Z" transform="translate(-246.25 -97.702)" fill="#383749"/>
          <path id="Trazado_733103" data-name="Trazado 733103" d="M267.725,64.327c-.174.084-.256.552.023.6a6.6,6.6,0,0,0,2.171-.076,3.144,3.144,0,0,0-2.194-.524" transform="translate(-262.696 -60.291)" fill="#383749"/>
          <path id="Trazado_733104" data-name="Trazado 733104" d="M267.286,63.653c-.529,0-1.031-.041-1.087-.05a.4.4,0,0,1-.333-.364.6.6,0,0,1,.26-.592c.659-.316,2.117.3,2.363.5a.225.225,0,0,1,.1.238c-.053.213-.695.266-1.3.266m-.992-.667a.275.275,0,0,0-.051.216,7.447,7.447,0,0,0,1.633.047,2.681,2.681,0,0,0-1.582-.263" transform="translate(-261.179 -58.78)" fill="#383749"/>
          <path id="Trazado_733105" data-name="Trazado 733105" d="M216.72,64.327c.174.084.256.552-.023.6a6.6,6.6,0,0,1-2.171-.076,3.144,3.144,0,0,1,2.194-.524" transform="translate(-215.524 -60.291)" fill="#383749"/>
          <path id="Trazado_733106" data-name="Trazado 733106" d="M214.124,63.648c-.606,0-1.249-.053-1.3-.267a.226.226,0,0,1,.1-.238c.245-.2,1.7-.82,2.362-.5a.6.6,0,0,1,.26.592.4.4,0,0,1-.333.364c-.056.01-.557.05-1.085.05m-.593-.4a8.662,8.662,0,0,0,1.614-.019.26.26,0,0,0-.03-.245,2.675,2.675,0,0,0-1.584.264" transform="translate(-214.004 -58.775)" fill="#383749"/>
        </g>
      </g>
      <g id="Grupo_987266" data-name="Grupo 987266">
        <g id="Grupo_987265" data-name="Grupo 987265" clip-path="url(#clip-path)">
          <path id="Trazado_733108" data-name="Trazado 733108" d="M226.612,40.245a6.742,6.742,0,0,1-.825-.05,3.405,3.405,0,0,1-2.433-1.416c-1.429-1.951-1.373-5.622-.845-8.408.516-2.718,1.635-3.381,3.395-3.607a8.576,8.576,0,0,1,2.934.171,4.631,4.631,0,0,1,3.632,4.473,24.725,24.725,0,0,1-.073,3.4,9.064,9.064,0,0,1-.709,1.974.189.189,0,0,1-.339-.167,8.658,8.658,0,0,0,.678-1.883,22.937,22.937,0,0,0,.065-3.313,4.254,4.254,0,0,0-3.336-4.11,8.209,8.209,0,0,0-2.8-.165c-1.662.213-2.593.783-3.071,3.3-.514,2.708-.579,6.261.778,8.114a3.044,3.044,0,0,0,2.173,1.264A4.9,4.9,0,0,0,229.82,38.7a.189.189,0,1,1,.249.283,5.075,5.075,0,0,1-3.457,1.26" transform="translate(-197.587 -23.751)" fill="#383749"/>
          <path id="Trazado_733109" data-name="Trazado 733109" d="M78.669,53.45H22.806a2.873,2.873,0,0,1-2.869-2.869V2.869A2.873,2.873,0,0,1,22.806,0H78.669a2.873,2.873,0,0,1,2.87,2.869V50.581a2.873,2.873,0,0,1-2.87,2.869M22.806.378a2.494,2.494,0,0,0-2.492,2.491V50.581a2.494,2.494,0,0,0,2.492,2.492H78.669a2.5,2.5,0,0,0,2.492-2.492V2.869A2.494,2.494,0,0,0,78.669.378Z" transform="translate(-17.731)" fill="#383749"/>
          <path id="Trazado_733110" data-name="Trazado 733110" d="M7.509,212.482l-.921-.769a6.578,6.578,0,0,1-2.421-1.164c-.524-.644-3.545-2.993-2-3.688,0,0-1.3-1.731.414-1.45,0,0-.509-.963-.156-1.366s1.182.363,1.182.363-.131-.871.565-.778c.319.043.694.563.861.838a2.554,2.554,0,0,0,1.324,1.123s-.253-2.033.705-1.94.749,1.945,1.187,2.623a4.768,4.768,0,0,1,1.291,2.488l1.268,1.426Z" transform="translate(-1.513 -181.095)" fill="#ff9c70"/>
          <path id="Trazado_733111" data-name="Trazado 733111" d="M6,211.156a.19.19,0,0,1-.121-.043l-.89-.743a6.4,6.4,0,0,1-2.477-1.216c-.1-.122-.309-.323-.551-.557-1.083-1.041-2.045-2.039-1.912-2.8a.766.766,0,0,1,.341-.511c-.207-.318-.539-.932-.3-1.321a.718.718,0,0,1,.687-.287c-.139-.358-.288-.933.008-1.27a.525.525,0,0,1,.378-.18,1.314,1.314,0,0,1,.765.285.769.769,0,0,1,.2-.415.649.649,0,0,1,.575-.167c.442.06.875.725,1,.927a2.523,2.523,0,0,0,.949.924,2.411,2.411,0,0,1,.359-1.626.692.692,0,0,1,.579-.206c.749.072.906.939,1.045,1.7a3.172,3.172,0,0,0,.283,1.006,5.255,5.255,0,0,0,.354.467,3.8,3.8,0,0,1,.956,2.04l1.231,1.385a.189.189,0,0,1-.034.28l-3.3,2.295a.187.187,0,0,1-.108.034m-5.261-7.1c-.173,0-.289.036-.331.106-.122.2.17.759.406,1.074a.188.188,0,0,1,.032.16.191.191,0,0,1-.106.125.478.478,0,0,0-.32.34c-.109.629,1.134,1.824,1.8,2.466a8.13,8.13,0,0,1,.583.591,6.135,6.135,0,0,0,2.324,1.1.2.2,0,0,1,.071.037l.81.677,3.011-2.091-1.127-1.267a.194.194,0,0,1-.045-.1,3.445,3.445,0,0,0-.884-1.913,5.669,5.669,0,0,1-.379-.5,3.307,3.307,0,0,1-.338-1.144c-.143-.789-.278-1.352-.709-1.393a.308.308,0,0,0-.272.093c-.313.321-.271,1.29-.228,1.636a.189.189,0,0,1-.248.2,2.775,2.775,0,0,1-1.426-1.206c-.213-.352-.529-.722-.724-.747-.176-.022-.236.038-.256.058a.707.707,0,0,0-.1.5.189.189,0,0,1-.315.167c-.187-.173-.572-.456-.8-.429a.148.148,0,0,0-.114.052c-.2.229.035.876.181,1.153a.189.189,0,0,1-.014.2.192.192,0,0,1-.184.076,1.92,1.92,0,0,0-.308-.029" transform="translate(0 -179.58)" fill="#ff9c70"/>
          <path id="Trazado_733112" data-name="Trazado 733112" d="M72.6,171.053s-4.656.8-6.064,2.275-4.774,13.347-4.774,13.347L53.478,180.1a6.124,6.124,0,0,0-3.383,3.974S58.186,194.6,62.61,194.9s6.341-12.991,6.341-12.991-.8,14.48-1.743,18.368c0,0,15.016,3.308,20.178,0L85.242,179.5s-12.281-5.666-12.64-8.442" transform="translate(-44.553 -152.128)" fill="#9f0925"/>
          <path id="Trazado_733113" data-name="Trazado 733113" d="M78.311,200.42a67.934,67.934,0,0,1-12.663-1.484.189.189,0,0,1-.143-.229c.658-2.725,1.256-10.792,1.549-15.263-.865,3.957-2.751,10.348-5.976,10.119-4.459-.3-12.321-10.465-12.653-10.9a.19.19,0,0,1-.036-.151,6.247,6.247,0,0,1,3.494-4.111.188.188,0,0,1,.192.025l8.065,6.4c.525-1.827,3.421-11.77,4.742-13.153,1.434-1.5,5.975-2.3,6.168-2.331a.177.177,0,0,1,.144.034.19.19,0,0,1,.075.128c.283,2.193,9.142,6.731,12.532,8.3a.187.187,0,0,1,.109.152l2.145,20.782a.19.19,0,0,1-.086.179c-1.767,1.133-4.631,1.51-7.658,1.51m-12.395-1.813c1.73.36,14.938,2.978,19.751.047L83.546,178.1c-1.219-.567-11.789-5.561-12.609-8.349-.859.163-4.585.933-5.781,2.187-1.36,1.424-4.7,13.149-4.729,13.267a.189.189,0,0,1-.3.1l-8.194-6.5a5.924,5.924,0,0,0-3.155,3.706c.7.9,8.22,10.406,12.326,10.683,4.206.274,6.122-12.7,6.141-12.831a.183.183,0,0,1,.206-.161.189.189,0,0,1,.17.2c-.008.143-.791,14.094-1.7,18.214" transform="translate(-43.033 -150.602)" fill="#9f0925"/>
          <path id="Trazado_733114" data-name="Trazado 733114" d="M280.468,429.347l-.6,1.022a6.512,6.512,0,0,1-.752,2.55c-.546.614-2.359,3.94-3.285,2.536,0,0-1.485,1.542-1.482-.174,0,0-.86.65-1.31.37s.167-1.212.167-1.212-.831.267-.85-.428c-.009-.318.439-.768.681-.974a2.528,2.528,0,0,0,.886-1.472s-1.945.571-2.008-.38,1.781-1.041,2.373-1.578a4.719,4.719,0,0,1,2.225-1.657l1.191-1.466Z" transform="translate(-241.828 -379.3)" fill="#ff9c70"/>
          <path id="Trazado_733115" data-name="Trazado 733115" d="M273.255,434.765a.554.554,0,0,1-.207-.038.71.71,0,0,1-.39-.624c-.328.193-.867.429-1.242.194a.525.525,0,0,1-.238-.342,1.357,1.357,0,0,1,.156-.791.766.766,0,0,1-.435-.125.641.641,0,0,1-.256-.537c-.012-.441.569-.971.748-1.123a2.487,2.487,0,0,0,.751-1.07,2.384,2.384,0,0,1-1.644-.092.684.684,0,0,1-.294-.534c-.048-.745.773-1.037,1.5-1.293a3.141,3.141,0,0,0,.937-.437,5.089,5.089,0,0,0,.4-.421,3.763,3.763,0,0,1,1.84-1.259l1.156-1.422a.188.188,0,0,1,.138-.07.221.221,0,0,1,.144.058l2.767,2.862a.189.189,0,0,1,.027.227l-.583.987a6.315,6.315,0,0,1-.794,2.614c-.1.116-.266.353-.456.627-.841,1.22-1.66,2.315-2.426,2.315h-.008a.76.76,0,0,1-.554-.251,1.83,1.83,0,0,1-1.034.544m-.43-1.188a.189.189,0,0,1,.189.189c0,.342.063.565.176.61.217.089.713-.287.982-.567a.17.17,0,0,1,.153-.057.188.188,0,0,1,.14.084.473.473,0,0,0,.382.257h0c.631,0,1.6-1.4,2.115-2.152a8.154,8.154,0,0,1,.484-.663,6.056,6.056,0,0,0,.706-2.444.186.186,0,0,1,.025-.076l.531-.9-2.519-2.606-1.056,1.3a.19.19,0,0,1-.089.061,3.4,3.4,0,0,0-1.727,1.166,5.54,5.54,0,0,1-.429.451,3.29,3.29,0,0,1-1.064.513c-.748.265-1.275.485-1.247.912a.307.307,0,0,0,.133.25c.362.253,1.324.052,1.632-.039a.189.189,0,0,1,.239.212,2.741,2.741,0,0,1-.95,1.586c-.361.307-.62.654-.615.825s.074.223.1.239a.7.7,0,0,0,.507.014.192.192,0,0,1,.208.066.189.189,0,0,1,.007.218,1.518,1.518,0,0,0-.293.846.147.147,0,0,0,.068.1c.255.158.848-.175,1.1-.361a.191.191,0,0,1,.114-.038" transform="translate(-240.307 -377.785)" fill="#ff9c70"/>
          <path id="Trazado_733116" data-name="Trazado 733116" d="M236.036,163.606s1.86,2.57,2.766,2.568,3.38-3.494,3.38-3.494,8.152,1.773,9.828,3.494,6.21,16.041,5.372,17.567-10.549,12.046-10.549,12.046-3.864-1.091-3.812-3.525l7.856-9.8-2.134-8.407H233.861Z" transform="translate(-207.987 -144.682)" fill="#9f0925"/>
          <path id="Trazado_733117" data-name="Trazado 733117" d="M245.315,194.462a.175.175,0,0,1-.051-.007c-.164-.046-4-1.16-3.949-3.712a.189.189,0,0,1,.042-.114l7.8-9.722-2.075-8.173H232.342a.189.189,0,0,1-.185-.227l2.175-10.454a.189.189,0,0,1,.338-.072c.7.963,2.021,2.489,2.611,2.489h0c.589,0,2.292-2.094,3.227-3.414a.188.188,0,0,1,.194-.075c.335.073,8.227,1.8,9.923,3.546.912.937,2.5,5.162,3.674,8.933.4,1.281,2.35,7.725,1.728,8.858-.84,1.529-10.178,11.653-10.576,12.084a.189.189,0,0,1-.139.061m-3.623-3.648c.018,2,2.956,3.047,3.565,3.243.937-1.017,9.664-10.506,10.441-11.922.74-1.347-3.654-15.612-5.342-17.345-1.508-1.549-8.594-3.185-9.611-3.414-.555.774-2.552,3.468-3.461,3.47h0c-.795,0-2.1-1.578-2.665-2.308l-2.043,9.817h14.65a.188.188,0,0,1,.183.142l2.134,8.407a.188.188,0,0,1-.036.165Z" transform="translate(-206.469 -143.166)" fill="#9f0925"/>
          <path id="Trazado_733118" data-name="Trazado 733118" d="M315.141,344.316a.189.189,0,0,1-.148-.305l8.264-10.5a.191.191,0,0,1,.265-.032.189.189,0,0,1,.031.265l-8.264,10.5a.189.189,0,0,1-.148.072" transform="translate(-280.107 -296.546)" fill="#383749"/>
          <path id="Trazado_733119" data-name="Trazado 733119" d="M207.516,283.359l-.027,0a.188.188,0,0,1-.16-.213c.2-1.387,1.26-15.378,1.27-15.519a.182.182,0,0,1,.2-.174.188.188,0,0,1,.174.2c-.044.577-1.076,14.145-1.273,15.544a.189.189,0,0,1-.187.162" transform="translate(-184.389 -237.858)" fill="#383749"/>
          <path id="Trazado_733120" data-name="Trazado 733120" d="M368.588,283.362a.189.189,0,0,1-.18-.133l-2.184-7.071a.189.189,0,0,1,.125-.237.192.192,0,0,1,.236.125l2.184,7.071a.189.189,0,0,1-.125.237.209.209,0,0,1-.056.008" transform="translate(-325.698 -245.388)" fill="#383749"/>
          <path id="Trazado_733121" data-name="Trazado 733121" d="M126.964,289.338a.189.189,0,0,1-.116-.039l-4.291-3.307a.189.189,0,0,1,.231-.3L127.08,289a.189.189,0,0,1-.115.339" transform="translate(-108.933 -254.048)" fill="#383749"/>
          <path id="Trazado_733122" data-name="Trazado 733122" d="M276.4,201.2a.189.189,0,0,1-.186-.158,24.666,24.666,0,0,1-.283-5.386.191.191,0,0,1,.2-.173.189.189,0,0,1,.173.2,24.308,24.308,0,0,0,.279,5.293.189.189,0,0,1-.156.218l-.031,0" transform="translate(-245.368 -173.855)" fill="#fff"/>
          <path id="Trazado_733123" data-name="Trazado 733123" d="M222.988,16.3a9.547,9.547,0,0,0,6.584-.779s.9,4.614,3.147,4.451l.256,1.146s4.028-5.043-1.014-7.5a6.988,6.988,0,0,0-6.807-1.569C220.8,13.164,222.68,17.8,222.68,17.8Z" transform="translate(-197.685 -10.478)" fill="#383749"/>
          <path id="Trazado_733124" data-name="Trazado 733124" d="M231.437,19.8a.169.169,0,0,1-.042-.005.189.189,0,0,1-.142-.142l-.222-.995c-2-.036-2.915-3.43-3.132-4.373a9.857,9.857,0,0,1-6.3.745l-.268,1.3a.189.189,0,0,1-.36.033,5.553,5.553,0,0,1-.012-4.1,3.791,3.791,0,0,1,2.614-1.9,7.264,7.264,0,0,1,6.966,1.6,4.267,4.267,0,0,1,2.521,2.843c.536,2.377-1.389,4.823-1.471,4.926a.19.19,0,0,1-.148.071m-.256-1.523a.189.189,0,0,1,.185.148l.164.733a6.035,6.035,0,0,0,1.158-4.272,3.928,3.928,0,0,0-2.347-2.6.182.182,0,0,1-.056-.042,6.873,6.873,0,0,0-6.621-1.514,3.433,3.433,0,0,0-2.37,1.707,4.658,4.658,0,0,0-.186,3.091l.159-.772a.189.189,0,0,1,.09-.125.181.181,0,0,1,.153-.016,9.468,9.468,0,0,0,6.444-.769.183.183,0,0,1,.166,0,.189.189,0,0,1,.1.132c.008.044.859,4.3,2.846,4.3.034,0,.068,0,.1,0h.014" transform="translate(-196.146 -8.975)" fill="#383749"/>
          <path id="Trazado_733125" data-name="Trazado 733125" d="M299.781,80.572s1.077-1.3,2.06-.759.256,4.022-2.25,3.453c-1.394-.317.19-2.694.19-2.694" transform="translate(-265.935 -70.866)" fill="#ff9c70"/>
          <path id="Trazado_733126" data-name="Trazado 733126" d="M303.222,81.983a2.611,2.611,0,0,1-.576-.067.189.189,0,0,1,.083-.369,1.906,1.906,0,0,0,2.263-1.313c.286-.755.218-1.591-.145-1.79-.833-.458-1.814.7-1.824.714a.189.189,0,1,1-.29-.242c.048-.058,1.189-1.409,2.3-.8.607.332.638,1.408.317,2.255a2.3,2.3,0,0,1-2.123,1.615" transform="translate(-269.031 -69.333)" fill="#383749"/>
          <path id="Trazado_733127" data-name="Trazado 733127" d="M310.137,89.058a.189.189,0,0,1-.14-.316c.071-.079.709-.764,1.317-.526a.189.189,0,1,1-.138.351c-.307-.115-.763.279-.9.428a.187.187,0,0,1-.14.062" transform="translate(-275.657 -78.412)" fill="#383749"/>
          <path id="Trazado_733128" data-name="Trazado 733128" d="M51.273,18.346a.589.589,0,1,1-.589-.589.589.589,0,0,1,.589.589" transform="translate(-44.552 -15.792)" fill="#fff"/>
          <path id="Trazado_733129" data-name="Trazado 733129" d="M74.585,18.346A.589.589,0,1,1,74,17.757a.589.589,0,0,1,.589.589" transform="translate(-65.285 -15.792)" fill="#e9f3ff"/>
          <path id="Trazado_733130" data-name="Trazado 733130" d="M99.049,18.346a.589.589,0,1,1-.589-.589.589.589,0,0,1,.589.589" transform="translate(-87.042 -15.792)" fill="#e9f3ff"/>
          <path id="Trazado_733131" data-name="Trazado 733131" d="M282.064,486.369a.189.189,0,0,1-.051-.37,5.519,5.519,0,0,0,1.542-1.274.191.191,0,0,1,.267-.014.189.189,0,0,1,.014.266,5.782,5.782,0,0,1-1.721,1.385.178.178,0,0,1-.051.007" transform="translate(-250.689 -431.041)" fill="#383749"/>
          <path id="Trazado_733132" data-name="Trazado 733132" d="M292.4,491.4a.189.189,0,0,1-.087-.356,8.952,8.952,0,0,0,1.789-1.607.189.189,0,1,1,.286.248,9.117,9.117,0,0,1-1.9,1.694.186.186,0,0,1-.087.021" transform="translate(-259.877 -435.225)" fill="#383749"/>
          <path id="Trazado_733133" data-name="Trazado 733133" d="M307.938,494.986a.189.189,0,0,1-.087-.356,3.12,3.12,0,0,0,1.158-1.126.189.189,0,1,1,.332.18,3.448,3.448,0,0,1-1.315,1.281.186.186,0,0,1-.087.021" transform="translate(-273.701 -438.817)" fill="#383749"/>
          <path id="Trazado_733134" data-name="Trazado 733134" d="M25.84,232.444a.186.186,0,0,1-.087-.021.189.189,0,0,1-.08-.254,3.915,3.915,0,0,1,1.83-1.782.189.189,0,0,1,.11.362c-.907.275-1.6,1.581-1.6,1.594a.188.188,0,0,1-.168.1" transform="translate(-22.813 -204.89)" fill="#383749"/>
          <path id="Trazado_733135" data-name="Trazado 733135" d="M18.884,210.89a.191.191,0,0,1-.078-.016,5.617,5.617,0,0,1-1.509-1.566.189.189,0,0,1,.312-.214,5.294,5.294,0,0,0,1.352,1.434.189.189,0,0,1-.077.361" transform="translate(-15.355 -185.888)" fill="#383749"/>
          <path id="Trazado_733136" data-name="Trazado 733136" d="M9.574,219.809a.187.187,0,0,1-.053-.007c-.745-.219-1.469-1.394-1.5-1.445a.189.189,0,0,1,.322-.2c.187.305.781,1.131,1.283,1.278a.189.189,0,0,1-.053.37" transform="translate(-7.11 -193.943)" fill="#383749"/>
          <path id="Trazado_733137" data-name="Trazado 733137" d="M4.407,233.327H4.39c-.8-.067-1.488-1.028-1.517-1.07a.189.189,0,0,1,.309-.218c.006.009.614.859,1.24.911a.189.189,0,0,1-.015.377" transform="translate(-2.525 -206.296)" fill="#383749"/>
        </g>
      </g>
    </g>
  </g>
</svg>
